<?xml version="1.0" encoding="UTF-8"?>
<svg width="1247px" height="491px" viewBox="0 0 1247 491" version="1.1" xmlns="http://www.w3.org/2000/svg" xmlns:xlink="http://www.w3.org/1999/xlink">
    <!-- Generator: Sketch 52.5 (67469) - http://www.bohemiancoding.com/sketch -->
    <title>4rd section image (no background)</title>
    <desc>Created with Sketch.</desc>
    <defs>
        <linearGradient x1="50%" y1="100%" x2="50%" y2="3.061617e-15%" id="linearGradient-1">
            <stop stop-color="#C1A3FF" offset="0%"></stop>
            <stop stop-color="#8D6AFF" offset="100%"></stop>
        </linearGradient>
        <circle id="path-2" cx="74.5" cy="188.5" r="4.5"></circle>
        <filter x="-100.0%" y="-111.1%" width="366.7%" height="366.7%" filterUnits="objectBoundingBox" id="filter-3">
            <feOffset dx="3" dy="2" in="SourceAlpha" result="shadowOffsetOuter1"></feOffset>
            <feGaussianBlur stdDeviation="3.5" in="shadowOffsetOuter1" result="shadowBlurOuter1"></feGaussianBlur>
            <feColorMatrix values="0 0 0 0 0   0 0 0 0 0   0 0 0 0 0  0 0 0 0.188264266 0" type="matrix" in="shadowBlurOuter1"></feColorMatrix>
        </filter>
        <circle id="path-4" cx="74.5" cy="46.5" r="4.5"></circle>
        <filter x="-100.0%" y="-111.1%" width="366.7%" height="366.7%" filterUnits="objectBoundingBox" id="filter-5">
            <feOffset dx="3" dy="2" in="SourceAlpha" result="shadowOffsetOuter1"></feOffset>
            <feGaussianBlur stdDeviation="3.5" in="shadowOffsetOuter1" result="shadowBlurOuter1"></feGaussianBlur>
            <feColorMatrix values="0 0 0 0 0   0 0 0 0 0   0 0 0 0 0  0 0 0 0.188264266 0" type="matrix" in="shadowBlurOuter1"></feColorMatrix>
        </filter>
        <circle id="path-6" cx="20.5" cy="321.5" r="6.5"></circle>
        <filter x="-84.6%" y="-92.3%" width="315.4%" height="315.4%" filterUnits="objectBoundingBox" id="filter-7">
            <feMorphology radius="2" operator="dilate" in="SourceAlpha" result="shadowSpreadOuter1"></feMorphology>
            <feOffset dx="3" dy="2" in="shadowSpreadOuter1" result="shadowOffsetOuter1"></feOffset>
            <feMorphology radius="2" operator="erode" in="SourceAlpha" result="shadowInner"></feMorphology>
            <feOffset dx="3" dy="2" in="shadowInner" result="shadowInner"></feOffset>
            <feComposite in="shadowOffsetOuter1" in2="shadowInner" operator="out" result="shadowOffsetOuter1"></feComposite>
            <feGaussianBlur stdDeviation="3.5" in="shadowOffsetOuter1" result="shadowBlurOuter1"></feGaussianBlur>
            <feColorMatrix values="0 0 0 0 0   0 0 0 0 0   0 0 0 0 0  0 0 0 0.188264266 0" type="matrix" in="shadowBlurOuter1"></feColorMatrix>
        </filter>
        <circle id="path-8" cx="33.5" cy="100.5" r="6.5"></circle>
        <filter x="-84.6%" y="-92.3%" width="315.4%" height="315.4%" filterUnits="objectBoundingBox" id="filter-9">
            <feMorphology radius="2" operator="dilate" in="SourceAlpha" result="shadowSpreadOuter1"></feMorphology>
            <feOffset dx="3" dy="2" in="shadowSpreadOuter1" result="shadowOffsetOuter1"></feOffset>
            <feMorphology radius="2" operator="erode" in="SourceAlpha" result="shadowInner"></feMorphology>
            <feOffset dx="3" dy="2" in="shadowInner" result="shadowInner"></feOffset>
            <feComposite in="shadowOffsetOuter1" in2="shadowInner" operator="out" result="shadowOffsetOuter1"></feComposite>
            <feGaussianBlur stdDeviation="3.5" in="shadowOffsetOuter1" result="shadowBlurOuter1"></feGaussianBlur>
            <feColorMatrix values="0 0 0 0 0   0 0 0 0 0   0 0 0 0 0  0 0 0 0.188264266 0" type="matrix" in="shadowBlurOuter1"></feColorMatrix>
        </filter>
        <circle id="path-10" cx="190.5" cy="320.5" r="4.5"></circle>
        <filter x="-100.0%" y="-111.1%" width="366.7%" height="366.7%" filterUnits="objectBoundingBox" id="filter-11">
            <feOffset dx="3" dy="2" in="SourceAlpha" result="shadowOffsetOuter1"></feOffset>
            <feGaussianBlur stdDeviation="3.5" in="shadowOffsetOuter1" result="shadowBlurOuter1"></feGaussianBlur>
            <feColorMatrix values="0 0 0 0 0   0 0 0 0 0   0 0 0 0 0  0 0 0 0.188264266 0" type="matrix" in="shadowBlurOuter1"></feColorMatrix>
        </filter>
        <circle id="path-12" cx="175.5" cy="332.5" r="4.5"></circle>
        <filter x="-100.0%" y="-111.1%" width="366.7%" height="366.7%" filterUnits="objectBoundingBox" id="filter-13">
            <feOffset dx="3" dy="2" in="SourceAlpha" result="shadowOffsetOuter1"></feOffset>
            <feGaussianBlur stdDeviation="3.5" in="shadowOffsetOuter1" result="shadowBlurOuter1"></feGaussianBlur>
            <feColorMatrix values="0 0 0 0 0   0 0 0 0 0   0 0 0 0 0  0 0 0 0.188264266 0" type="matrix" in="shadowBlurOuter1"></feColorMatrix>
        </filter>
        <path d="M124.568661,149.589866 L137.431339,149.589866 L131.739474,143.898002 C131.331074,143.489602 130.668926,143.489602 130.260526,143.898002 L124.568661,149.589866 Z M124.460984,152.302456 L130.260526,158.101998 C130.668926,158.510398 131.331074,158.510398 131.739474,158.101998 L137.539016,152.302456 L124.460984,152.302456 Z M133.572084,142.065392 L139.934608,148.427916 C141.355131,149.848439 141.355131,152.151561 139.934608,153.572084 L133.572084,159.934608 C132.151561,161.355131 129.848439,161.355131 128.427916,159.934608 L122.065392,153.572084 C120.644869,152.151561 120.644869,149.848439 122.065392,148.427916 L128.427916,142.065392 C129.848439,140.644869 132.151561,140.644869 133.572084,142.065392 Z" id="path-14"></path>
        <filter x="-57.5%" y="-57.5%" width="255.0%" height="255.0%" filterUnits="objectBoundingBox" id="filter-15">
            <feOffset dx="4" dy="4" in="SourceAlpha" result="shadowOffsetOuter1"></feOffset>
            <feGaussianBlur stdDeviation="4.5" in="shadowOffsetOuter1" result="shadowBlurOuter1"></feGaussianBlur>
            <feColorMatrix values="0 0 0 0 0   0 0 0 0 0   0 0 0 0 0  0 0 0 0.3 0" type="matrix" in="shadowBlurOuter1"></feColorMatrix>
        </filter>
        <path d="M1036.56866,312.589866 L1049.43134,312.589866 L1043.73947,306.898002 C1043.33107,306.489602 1042.66893,306.489602 1042.26053,306.898002 L1036.56866,312.589866 Z M1036.46098,315.302456 L1042.26053,321.101998 C1042.66893,321.510398 1043.33107,321.510398 1043.73947,321.101998 L1049.53902,315.302456 L1036.46098,315.302456 Z M1045.57208,305.065392 L1051.93461,311.427916 C1053.35513,312.848439 1053.35513,315.151561 1051.93461,316.572084 L1045.57208,322.934608 C1044.15156,324.355131 1041.84844,324.355131 1040.42792,322.934608 L1034.06539,316.572084 C1032.64487,315.151561 1032.64487,312.848439 1034.06539,311.427916 L1040.42792,305.065392 C1041.84844,303.644869 1044.15156,303.644869 1045.57208,305.065392 Z" id="path-16"></path>
        <filter x="-57.5%" y="-57.5%" width="255.0%" height="255.0%" filterUnits="objectBoundingBox" id="filter-17">
            <feOffset dx="4" dy="4" in="SourceAlpha" result="shadowOffsetOuter1"></feOffset>
            <feGaussianBlur stdDeviation="4.5" in="shadowOffsetOuter1" result="shadowBlurOuter1"></feGaussianBlur>
            <feColorMatrix values="0 0 0 0 0   0 0 0 0 0   0 0 0 0 0  0 0 0 0.3 0" type="matrix" in="shadowBlurOuter1"></feColorMatrix>
        </filter>
        <circle id="path-18" cx="1185.5" cy="201.5" r="4.5"></circle>
        <filter x="-100.0%" y="-111.1%" width="366.7%" height="366.7%" filterUnits="objectBoundingBox" id="filter-19">
            <feOffset dx="3" dy="2" in="SourceAlpha" result="shadowOffsetOuter1"></feOffset>
            <feGaussianBlur stdDeviation="3.5" in="shadowOffsetOuter1" result="shadowBlurOuter1"></feGaussianBlur>
            <feColorMatrix values="0 0 0 0 0   0 0 0 0 0   0 0 0 0 0  0 0 0 0.188264266 0" type="matrix" in="shadowBlurOuter1"></feColorMatrix>
        </filter>
        <circle id="path-20" cx="1139.5" cy="72.5" r="4.5"></circle>
        <filter x="-100.0%" y="-111.1%" width="366.7%" height="366.7%" filterUnits="objectBoundingBox" id="filter-21">
            <feOffset dx="3" dy="2" in="SourceAlpha" result="shadowOffsetOuter1"></feOffset>
            <feGaussianBlur stdDeviation="3.5" in="shadowOffsetOuter1" result="shadowBlurOuter1"></feGaussianBlur>
            <feColorMatrix values="0 0 0 0 0   0 0 0 0 0   0 0 0 0 0  0 0 0 0.188264266 0" type="matrix" in="shadowBlurOuter1"></feColorMatrix>
        </filter>
        <circle id="path-22" cx="1075.5" cy="196.5" r="6.5"></circle>
        <filter x="-84.6%" y="-92.3%" width="315.4%" height="315.4%" filterUnits="objectBoundingBox" id="filter-23">
            <feMorphology radius="2" operator="dilate" in="SourceAlpha" result="shadowSpreadOuter1"></feMorphology>
            <feOffset dx="3" dy="2" in="shadowSpreadOuter1" result="shadowOffsetOuter1"></feOffset>
            <feMorphology radius="2" operator="erode" in="SourceAlpha" result="shadowInner"></feMorphology>
            <feOffset dx="3" dy="2" in="shadowInner" result="shadowInner"></feOffset>
            <feComposite in="shadowOffsetOuter1" in2="shadowInner" operator="out" result="shadowOffsetOuter1"></feComposite>
            <feGaussianBlur stdDeviation="3.5" in="shadowOffsetOuter1" result="shadowBlurOuter1"></feGaussianBlur>
            <feColorMatrix values="0 0 0 0 0   0 0 0 0 0   0 0 0 0 0  0 0 0 0.188264266 0" type="matrix" in="shadowBlurOuter1"></feColorMatrix>
        </filter>
        <circle id="path-24" cx="1226.5" cy="80.5" r="6.5"></circle>
        <filter x="-84.6%" y="-92.3%" width="315.4%" height="315.4%" filterUnits="objectBoundingBox" id="filter-25">
            <feMorphology radius="2" operator="dilate" in="SourceAlpha" result="shadowSpreadOuter1"></feMorphology>
            <feOffset dx="3" dy="2" in="shadowSpreadOuter1" result="shadowOffsetOuter1"></feOffset>
            <feMorphology radius="2" operator="erode" in="SourceAlpha" result="shadowInner"></feMorphology>
            <feOffset dx="3" dy="2" in="shadowInner" result="shadowInner"></feOffset>
            <feComposite in="shadowOffsetOuter1" in2="shadowInner" operator="out" result="shadowOffsetOuter1"></feComposite>
            <feGaussianBlur stdDeviation="3.5" in="shadowOffsetOuter1" result="shadowBlurOuter1"></feGaussianBlur>
            <feColorMatrix values="0 0 0 0 0   0 0 0 0 0   0 0 0 0 0  0 0 0 0.188264266 0" type="matrix" in="shadowBlurOuter1"></feColorMatrix>
        </filter>
        <circle id="path-26" cx="1139.5" cy="293.5" r="4.5"></circle>
        <filter x="-100.0%" y="-111.1%" width="366.7%" height="366.7%" filterUnits="objectBoundingBox" id="filter-27">
            <feOffset dx="3" dy="2" in="SourceAlpha" result="shadowOffsetOuter1"></feOffset>
            <feGaussianBlur stdDeviation="3.5" in="shadowOffsetOuter1" result="shadowBlurOuter1"></feGaussianBlur>
            <feColorMatrix values="0 0 0 0 0   0 0 0 0 0   0 0 0 0 0  0 0 0 0.188264266 0" type="matrix" in="shadowBlurOuter1"></feColorMatrix>
        </filter>
        <circle id="path-28" cx="1154.5" cy="305.5" r="4.5"></circle>
        <filter x="-100.0%" y="-111.1%" width="366.7%" height="366.7%" filterUnits="objectBoundingBox" id="filter-29">
            <feOffset dx="3" dy="2" in="SourceAlpha" result="shadowOffsetOuter1"></feOffset>
            <feGaussianBlur stdDeviation="3.5" in="shadowOffsetOuter1" result="shadowBlurOuter1"></feGaussianBlur>
            <feColorMatrix values="0 0 0 0 0   0 0 0 0 0   0 0 0 0 0  0 0 0 0.188264266 0" type="matrix" in="shadowBlurOuter1"></feColorMatrix>
        </filter>
    </defs>
    <g id="Landing-page" stroke="none" stroke-width="1" fill="none" fill-rule="evenodd">
        <g id="Landing-page-01-Copy" transform="translate(-33.000000, -1517.000000)">
            <g id="4rd-section-image-(no-background)" transform="translate(33.000000, 1517.000000)">
                <path d="M372.179247,596.868114 C346.345165,561.347114 286.319862,515.650069 299.073469,424.076998 C309.937443,346.071817 360.140768,303.541951 423.657782,258.630708" id="Path" stroke="url(#linearGradient-1)" stroke-width="2" opacity="0.350655692" stroke-linecap="round" stroke-dasharray="7,11" transform="translate(360.487553, 427.749411) scale(1, -1) rotate(82.000000) translate(-360.487553, -427.749411) "></path>
                <path d="M199.967532,193.032468 L204.532468,193.032468 C205.895248,193.032468 207,194.137219 207,195.5 C207,196.862781 205.895248,197.967532 204.532468,197.967532 L199.967532,197.967532 L199.967532,202.532468 C199.967532,203.895248 198.862781,205 197.5,205 C196.137219,205 195.032468,203.895248 195.032468,202.532468 L195.032468,197.967532 L190.467532,197.967532 C189.104752,197.967532 188,196.862781 188,195.5 C188,194.137219 189.104752,193.032468 190.467532,193.032468 L195.032468,193.032468 L195.032468,188.467532 C195.032468,187.104752 196.137219,186 197.5,186 C198.862781,186 199.967532,187.104752 199.967532,188.467532 L199.967532,193.032468 Z" id="Combined-Shape-Copy-5" fill-opacity="0.3" fill="#FFFFFF" fill-rule="nonzero"></path>
                <path d="M1093.96753,277.032468 L1098.53247,277.032468 C1099.89525,277.032468 1101,278.137219 1101,279.5 C1101,280.862781 1099.89525,281.967532 1098.53247,281.967532 L1093.96753,281.967532 L1093.96753,286.532468 C1093.96753,287.895248 1092.86278,289 1091.5,289 C1090.13722,289 1089.03247,287.895248 1089.03247,286.532468 L1089.03247,281.967532 L1084.46753,281.967532 C1083.10475,281.967532 1082,280.862781 1082,279.5 C1082,278.137219 1083.10475,277.032468 1084.46753,277.032468 L1089.03247,277.032468 L1089.03247,272.467532 C1089.03247,271.104752 1090.13722,270 1091.5,270 C1092.86278,270 1093.96753,271.104752 1093.96753,272.467532 L1093.96753,277.032468 Z" id="Combined-Shape-Copy-7" fill-opacity="0.3" fill="#FFFFFF" fill-rule="nonzero"></path>
                <path d="M140.967532,274.032468 L145.532468,274.032468 C146.895248,274.032468 148,275.137219 148,276.5 C148,277.862781 146.895248,278.967532 145.532468,278.967532 L140.967532,278.967532 L140.967532,283.532468 C140.967532,284.895248 139.862781,286 138.5,286 C137.137219,286 136.032468,284.895248 136.032468,283.532468 L136.032468,278.967532 L131.467532,278.967532 C130.104752,278.967532 129,277.862781 129,276.5 C129,275.137219 130.104752,274.032468 131.467532,274.032468 L136.032468,274.032468 L136.032468,269.467532 C136.032468,268.104752 137.137219,267 138.5,267 C139.862781,267 140.967532,268.104752 140.967532,269.467532 L140.967532,274.032468 Z" id="Combined-Shape-Copy-9" fill-opacity="0.3" fill="#FFFFFF" fill-rule="nonzero" transform="translate(138.500000, 276.500000) scale(-1, 1) translate(-138.500000, -276.500000) "></path>
                <path d="M114.376623,251.623377 L120.623377,251.623377 C122.488234,251.623377 124,253.135142 124,255 C124,256.864858 122.488234,258.376623 120.623377,258.376623 L114.376623,258.376623 L114.376623,264.623377 C114.376623,266.488234 112.864858,268 111,268 C109.135142,268 107.623377,266.488234 107.623377,264.623377 L107.623377,258.376623 L101.376623,258.376623 C99.5117658,258.376623 98,256.864858 98,255 C98,253.135142 99.5117658,251.623377 101.376623,251.623377 L107.623377,251.623377 L107.623377,245.376623 C107.623377,243.511766 109.135142,242 111,242 C112.864858,242 114.376623,243.511766 114.376623,245.376623 L114.376623,251.623377 Z" id="Combined-Shape-Copy-10" fill-opacity="0.3" fill="#FFFFFF" fill-rule="nonzero" transform="translate(111.000000, 255.000000) scale(-1, 1) translate(-111.000000, -255.000000) "></path>
                <path d="M66,360 C56.6111593,360 49,352.388841 49,343 C49,333.611159 56.6111593,326 66,326 C75.3888407,326 83,333.611159 83,343 C83,352.388841 75.3888407,360 66,360 Z M66,349.538462 C69.6110926,349.538462 72.5384615,346.611093 72.5384615,343 C72.5384615,339.388907 69.6110926,336.461538 66,336.461538 C62.3889074,336.461538 59.4615385,339.388907 59.4615385,343 C59.4615385,346.611093 62.3889074,349.538462 66,349.538462 Z" id="Oval-Copy-14" fill-opacity="0.3" fill="#FFFFFF" fill-rule="nonzero" transform="translate(66.000000, 343.000000) scale(-1, 1) translate(-66.000000, -343.000000) "></path>
                <path d="M17,105 C7.61115925,105 0,97.3888407 0,88 C0,78.6111593 7.61115925,71 17,71 C26.3888407,71 34,78.6111593 34,88 C34,97.3888407 26.3888407,105 17,105 Z M17,94.5384615 C20.6110926,94.5384615 23.5384615,91.6110926 23.5384615,88 C23.5384615,84.3889074 20.6110926,81.4615385 17,81.4615385 C13.3889074,81.4615385 10.4615385,84.3889074 10.4615385,88 C10.4615385,91.6110926 13.3889074,94.5384615 17,94.5384615 Z" id="Oval-Copy-21" fill-opacity="0.3" fill="#FFFFFF" fill-rule="nonzero" transform="translate(17.000000, 88.000000) scale(-1, 1) translate(-17.000000, -88.000000) "></path>
                <path d="M171,34 C161.611159,34 154,26.3888407 154,17 C154,7.61115925 161.611159,0 171,0 C180.388841,0 188,7.61115925 188,17 C188,26.3888407 180.388841,34 171,34 Z M171,23.5384615 C174.611093,23.5384615 177.538462,20.6110926 177.538462,17 C177.538462,13.3889074 174.611093,10.4615385 171,10.4615385 C167.388907,10.4615385 164.461538,13.3889074 164.461538,17 C164.461538,20.6110926 167.388907,23.5384615 171,23.5384615 Z" id="Oval-Copy-22" fill-opacity="0.3" fill="#FFFFFF" fill-rule="nonzero" transform="translate(171.000000, 17.000000) scale(-1, 1) translate(-171.000000, -17.000000) "></path>
                <path d="M115.746753,61.2532468 L121.753247,61.2532468 C123.546379,61.2532468 125,62.7068677 125,64.5 C125,66.2931323 123.546379,67.7467532 121.753247,67.7467532 L115.746753,67.7467532 L115.746753,73.7532468 C115.746753,75.5463791 114.293132,77 112.5,77 C110.706868,77 109.253247,75.5463791 109.253247,73.7532468 L109.253247,67.7467532 L103.246753,67.7467532 C101.453621,67.7467532 100,66.2931323 100,64.5 C100,62.7068677 101.453621,61.2532468 103.246753,61.2532468 L109.253247,61.2532468 L109.253247,55.2467532 C109.253247,53.4536209 110.706868,52 112.5,52 C114.293132,52 115.746753,53.4536209 115.746753,55.2467532 L115.746753,61.2532468 Z" id="Combined-Shape-Copy-3" fill-opacity="0.3" fill="#FFFFFF" transform="translate(112.500000, 64.500000) scale(-1, 1) translate(-112.500000, -64.500000) "></path>
                <g id="Oval-Copy-24" fill-rule="nonzero" transform="translate(74.500000, 188.500000) scale(-1, 1) translate(-74.500000, -188.500000) ">
                    <use fill="black" fill-opacity="1" filter="url(#filter-3)" xlink:href="#path-2"></use>
                    <use fill="#FFFFFF" xlink:href="#path-2"></use>
                </g>
                <g id="Oval-Copy-25" fill-rule="nonzero" transform="translate(74.500000, 46.500000) scale(-1, 1) translate(-74.500000, -46.500000) ">
                    <use fill="black" fill-opacity="1" filter="url(#filter-5)" xlink:href="#path-4"></use>
                    <use fill="#FFFFFF" xlink:href="#path-4"></use>
                </g>
                <g id="Oval-Copy-26" fill-rule="nonzero" transform="translate(20.500000, 321.500000) scale(-1, 1) translate(-20.500000, -321.500000) ">
                    <use fill="black" fill-opacity="1" filter="url(#filter-7)" xlink:href="#path-6"></use>
                    <use stroke="#FFFFFF" stroke-width="4" xlink:href="#path-6"></use>
                </g>
                <g id="Oval-Copy-27" fill-rule="nonzero" transform="translate(33.500000, 100.500000) scale(-1, 1) translate(-33.500000, -100.500000) ">
                    <use fill="black" fill-opacity="1" filter="url(#filter-9)" xlink:href="#path-8"></use>
                    <use stroke="#FFFFFF" stroke-width="4" xlink:href="#path-8"></use>
                </g>
                <g id="Oval-Copy-28" fill-rule="nonzero" transform="translate(190.500000, 320.500000) scale(-1, 1) translate(-190.500000, -320.500000) ">
                    <use fill="black" fill-opacity="1" filter="url(#filter-11)" xlink:href="#path-10"></use>
                    <use fill="#FFFFFF" xlink:href="#path-10"></use>
                </g>
                <g id="Oval-Copy-30" fill-rule="nonzero" transform="translate(175.500000, 332.500000) scale(-1, 1) translate(-175.500000, -332.500000) ">
                    <use fill="black" fill-opacity="1" filter="url(#filter-13)" xlink:href="#path-12"></use>
                    <use fill="#FFFFFF" xlink:href="#path-12"></use>
                </g>
                <path d="M228.376623,169.623377 L234.623377,169.623377 C236.488234,169.623377 238,171.135142 238,173 C238,174.864858 236.488234,176.376623 234.623377,176.376623 L228.376623,176.376623 L228.376623,182.623377 C228.376623,184.488234 226.864858,186 225,186 C223.135142,186 221.623377,184.488234 221.623377,182.623377 L221.623377,176.376623 L215.376623,176.376623 C213.511766,176.376623 212,174.864858 212,173 C212,171.135142 213.511766,169.623377 215.376623,169.623377 L221.623377,169.623377 L221.623377,163.376623 C221.623377,161.511766 223.135142,160 225,160 C226.864858,160 228.376623,161.511766 228.376623,163.376623 L228.376623,169.623377 Z" id="Combined-Shape-Copy-6" fill-opacity="0.3" fill="#FFFFFF" fill-rule="nonzero"></path>
                <path d="M1122.37662,254.623377 L1128.62338,254.623377 C1130.48823,254.623377 1132,256.135142 1132,258 C1132,259.864858 1130.48823,261.376623 1128.62338,261.376623 L1122.37662,261.376623 L1122.37662,267.623377 C1122.37662,269.488234 1120.86486,271 1119,271 C1117.13514,271 1115.62338,269.488234 1115.62338,267.623377 L1115.62338,261.376623 L1109.37662,261.376623 C1107.51177,261.376623 1106,259.864858 1106,258 C1106,256.135142 1107.51177,254.623377 1109.37662,254.623377 L1115.62338,254.623377 L1115.62338,248.376623 C1115.62338,246.511766 1117.13514,245 1119,245 C1120.86486,245 1122.37662,246.511766 1122.37662,248.376623 L1122.37662,254.623377 Z" id="Combined-Shape-Copy-8" fill-opacity="0.3" fill="#FFFFFF" fill-rule="nonzero"></path>
                <path d="M1158,177 C1148.61116,177 1141,169.388841 1141,160 C1141,150.611159 1148.61116,143 1158,143 C1167.38884,143 1175,150.611159 1175,160 C1175,169.388841 1167.38884,177 1158,177 Z M1158,166.538462 C1161.61109,166.538462 1164.53846,163.611093 1164.53846,160 C1164.53846,156.388907 1161.61109,153.461538 1158,153.461538 C1154.38891,153.461538 1151.46154,156.388907 1151.46154,160 C1151.46154,163.611093 1154.38891,166.538462 1158,166.538462 Z" id="Oval" fill-opacity="0.3" fill="#FFFFFF" fill-rule="nonzero"></path>
                <path d="M1243,85 C1233.61116,85 1226,77.3888407 1226,68 C1226,58.6111593 1233.61116,51 1243,51 C1252.38884,51 1260,58.6111593 1260,68 C1260,77.3888407 1252.38884,85 1243,85 Z M1243,74.5384615 C1246.61109,74.5384615 1249.53846,71.6110926 1249.53846,68 C1249.53846,64.3889074 1246.61109,61.4615385 1243,61.4615385 C1239.38891,61.4615385 1236.46154,64.3889074 1236.46154,68 C1236.46154,71.6110926 1239.38891,74.5384615 1243,74.5384615 Z" id="Oval-Copy-11" fill-opacity="0.3" fill="#FFFFFF" fill-rule="nonzero"></path>
                <path d="M1042,149 C1032.61116,149 1025,141.388841 1025,132 C1025,122.611159 1032.61116,115 1042,115 C1051.38884,115 1059,122.611159 1059,132 C1059,141.388841 1051.38884,149 1042,149 Z M1042,138.538462 C1045.61109,138.538462 1048.53846,135.611093 1048.53846,132 C1048.53846,128.388907 1045.61109,125.461538 1042,125.461538 C1038.38891,125.461538 1035.46154,128.388907 1035.46154,132 C1035.46154,135.611093 1038.38891,138.538462 1042,138.538462 Z" id="Oval-Copy-6" fill-opacity="0.3" fill="#FFFFFF" fill-rule="nonzero"></path>
                <path d="M1024,321 C1014.61116,321 1007,313.388841 1007,304 C1007,294.611159 1014.61116,287 1024,287 C1033.38884,287 1041,294.611159 1041,304 C1041,313.388841 1033.38884,321 1024,321 Z M1024,310.538462 C1027.61109,310.538462 1030.53846,307.611093 1030.53846,304 C1030.53846,300.388907 1027.61109,297.461538 1024,297.461538 C1020.38891,297.461538 1017.46154,300.388907 1017.46154,304 C1017.46154,307.611093 1020.38891,310.538462 1024,310.538462 Z" id="Oval-Copy-7" fill-opacity="0.3" fill="#FFFFFF" fill-rule="nonzero"></path>
                <path d="M1131.74675,124.253247 L1137.75325,124.253247 C1139.54638,124.253247 1141,125.706868 1141,127.5 C1141,129.293132 1139.54638,130.746753 1137.75325,130.746753 L1131.74675,130.746753 L1131.74675,136.753247 C1131.74675,138.546379 1130.29313,140 1128.5,140 C1126.70687,140 1125.25325,138.546379 1125.25325,136.753247 L1125.25325,130.746753 L1119.24675,130.746753 C1117.45362,130.746753 1116,129.293132 1116,127.5 C1116,125.706868 1117.45362,124.253247 1119.24675,124.253247 L1125.25325,124.253247 L1125.25325,118.246753 C1125.25325,116.453621 1126.70687,115 1128.5,115 C1130.29313,115 1131.74675,116.453621 1131.74675,118.246753 L1131.74675,124.253247 Z" id="Combined-Shape" fill-opacity="0.3" fill="#FFFFFF"></path>
                <path d="M1087.74675,81.2532468 L1093.75325,81.2532468 C1095.54638,81.2532468 1097,82.7068677 1097,84.5 C1097,86.2931323 1095.54638,87.7467532 1093.75325,87.7467532 L1087.74675,87.7467532 L1087.74675,93.7532468 C1087.74675,95.5463791 1086.29313,97 1084.5,97 C1082.70687,97 1081.25325,95.5463791 1081.25325,93.7532468 L1081.25325,87.7467532 L1075.24675,87.7467532 C1073.45362,87.7467532 1072,86.2931323 1072,84.5 C1072,82.7068677 1073.45362,81.2532468 1075.24675,81.2532468 L1081.25325,81.2532468 L1081.25325,75.2467532 C1081.25325,73.4536209 1082.70687,72 1084.5,72 C1086.29313,72 1087.74675,73.4536209 1087.74675,75.2467532 L1087.74675,81.2532468 Z" id="Combined-Shape-Copy-2" fill-opacity="0.3" fill="#FFFFFF"></path>
                <circle id="Oval-Copy-15" fill-opacity="0.3" fill="#FFFFFF" fill-rule="nonzero" cx="202.5" cy="91.5" r="6.5"></circle>
                <circle id="Oval-Copy-23" fill-opacity="0.3" fill="#FFFFFF" fill-rule="nonzero" cx="55.5" cy="201.5" r="6.5"></circle>
                <circle id="Oval-Copy-16" fill-opacity="0.3" fill="#FFFFFF" fill-rule="nonzero" cx="145" cy="137" r="15"></circle>
                <g id="Combined-Shape-Copy-21" fill-rule="nonzero">
                    <use fill="black" fill-opacity="1" filter="url(#filter-15)" xlink:href="#path-14"></use>
                    <use fill="#FFFFFF" xlink:href="#path-14"></use>
                </g>
                <g id="Combined-Shape-Copy-21" fill-rule="nonzero">
                    <use fill="black" fill-opacity="1" filter="url(#filter-17)" xlink:href="#path-16"></use>
                    <use fill="#FFFFFF" xlink:href="#path-16"></use>
                </g>
                <g id="Oval" fill-rule="nonzero">
                    <use fill="black" fill-opacity="1" filter="url(#filter-19)" xlink:href="#path-18"></use>
                    <use fill="#FFFFFF" xlink:href="#path-18"></use>
                </g>
                <g id="Oval-Copy-13" fill-rule="nonzero">
                    <use fill="black" fill-opacity="1" filter="url(#filter-21)" xlink:href="#path-20"></use>
                    <use fill="#FFFFFF" xlink:href="#path-20"></use>
                </g>
                <g id="Oval-Copy-10" fill-rule="nonzero">
                    <use fill="black" fill-opacity="1" filter="url(#filter-23)" xlink:href="#path-22"></use>
                    <use stroke="#FFFFFF" stroke-width="4" xlink:href="#path-22"></use>
                </g>
                <g id="Oval-Copy-12" fill-rule="nonzero">
                    <use fill="black" fill-opacity="1" filter="url(#filter-25)" xlink:href="#path-24"></use>
                    <use stroke="#FFFFFF" stroke-width="4" xlink:href="#path-24"></use>
                </g>
                <g id="Oval-Copy-8" fill-rule="nonzero">
                    <use fill="black" fill-opacity="1" filter="url(#filter-27)" xlink:href="#path-26"></use>
                    <use fill="#FFFFFF" xlink:href="#path-26"></use>
                </g>
                <g id="Oval-Copy-9" fill-rule="nonzero">
                    <use fill="black" fill-opacity="1" filter="url(#filter-29)" xlink:href="#path-28"></use>
                    <use fill="#FFFFFF" xlink:href="#path-28"></use>
                </g>
            </g>
        </g>
    </g>
</svg>