<?xml version="1.0" encoding="UTF-8"?>
<svg width="371px" height="343px" viewBox="0 0 371 343" version="1.1" xmlns="http://www.w3.org/2000/svg" xmlns:xlink="http://www.w3.org/1999/xlink">
    <!-- Generator: Sketch 52.5 (67469) - http://www.bohemiancoding.com/sketch -->
    <title>Transperant logo (6th section)</title>
    <desc>Created with Sketch.</desc>
    <g id="Landing-page" stroke="none" stroke-width="1" fill="none" fill-rule="evenodd">
        <g id="Landing-page-01-Copy" transform="translate(-455.000000, -2548.000000)" fill="#FFFFFF">
            <path d="M611.993955,2719.72581 C604.121124,2722.00399 595.899554,2717.44278 593.630565,2709.53808 C591.361577,2701.63338 595.904389,2693.37852 603.777221,2691.10035 C653.518942,2676.70651 691.691574,2679.357 741.050935,2706.61815 C806.708682,2742.87353 844.185191,2813.36995 817.117531,2856.87101 C794.841232,2892.66458 738.453256,2896.2477 680.824909,2870.94387 C673.318072,2867.64772 669.893862,2858.86553 673.176723,2851.32831 C676.459584,2843.79108 685.206363,2840.35301 692.713201,2843.64916 C738.523396,2863.7638 779.459819,2861.16252 791.954885,2841.08545 C807.923689,2815.42162 779.419881,2761.80359 726.75184,2732.72096 C684.699541,2709.4955 654.575694,2707.40387 611.993955,2719.72581 Z M626.298697,2792.38724 C632.288748,2797.96109 632.663469,2807.37592 627.135658,2813.41586 C621.607848,2819.45579 612.270776,2819.83363 606.280725,2814.25979 C570.422964,2780.89352 553.233778,2746.99913 550.206469,2692.24688 C546.057097,2617.20088 585.543587,2548 636.36734,2548 C677.856666,2548 710.416065,2593.33089 719.826574,2655.05731 C721.065024,2663.18068 715.53808,2670.7783 707.481801,2672.02707 C699.425521,2673.27583 691.890654,2667.70286 690.652205,2659.57948 C683.182939,2610.58627 659.60719,2577.76289 636.36734,2577.76289 C606.381237,2577.76289 576.349475,2630.39417 579.677773,2690.59012 C582.257863,2737.25391 595.848771,2764.05306 626.298697,2792.38724 Z M679.864623,2752.71773 C682.067639,2744.78224 690.231384,2740.15059 698.098858,2742.37265 C705.966332,2744.59471 710.558283,2752.82903 708.355268,2760.76452 C695.892908,2805.65521 673.967825,2836.16443 628.87671,2863.70056 C564.962511,2902.73154 485.639696,2900.06459 461.720371,2854.70121 C441.721118,2816.76499 467.891422,2764.85156 519.88793,2727.23291 C526.526782,2722.42981 535.76895,2723.9645 540.530889,2730.66074 C545.292828,2737.35699 543.771288,2746.67905 537.132435,2751.48216 C495.679937,2781.47238 476.589106,2819.34243 487.842853,2840.68945 C501.954247,2867.45193 562.285983,2869.48038 613.553383,2838.17252 C651.998011,2814.69524 669.369401,2790.52259 679.864623,2752.71773 Z" id="Transperant-logo-(6th-section)"></path>
        </g>
    </g>
</svg>