<?xml version="1.0" encoding="UTF-8"?>
<svg width="800px" height="500px" viewBox="0 0 800 500" version="1.1" xmlns="http://www.w3.org/2000/svg" xmlns:xlink="http://www.w3.org/1999/xlink">
    <!-- Generator: Sketch 52.5 (67469) - http://www.bohemiancoding.com/sketch -->
    <title>Group 17</title>
    <desc>Created with Sketch.</desc>
    <defs>
        <path d="M10,0 L790,0 C795.522847,-1.01453063e-15 800,4.4771525 800,10 L800,490 C800,495.522847 795.522847,500 790,500 L10,500 C4.4771525,500 6.76353751e-16,495.522847 0,490 L0,10 C-6.76353751e-16,4.4771525 4.4771525,1.01453063e-15 10,0 Z" id="path-1"></path>
        <linearGradient x1="50%" y1="100%" x2="50%" y2="3.061617e-15%" id="linearGradient-3">
            <stop stop-color="#C1A3FF" offset="0%"></stop>
            <stop stop-color="#8D6AFF" offset="100%"></stop>
        </linearGradient>
        <radialGradient cx="69.4334547%" cy="92.2722694%" fx="69.4334547%" fy="92.2722694%" r="78.6119804%" gradientTransform="translate(0.694335,0.922723),rotate(-113.685298),scale(1.000000,2.374040),translate(-0.694335,-0.922723)" id="radialGradient-4">
            <stop stop-color="#00ABA7" offset="0%"></stop>
            <stop stop-color="#00DCD7" offset="100%"></stop>
        </radialGradient>
        <circle id="path-5" cx="612.84375" cy="451.84375" r="7.84375"></circle>
        <filter x="-79.7%" y="-79.7%" width="284.9%" height="284.9%" filterUnits="objectBoundingBox" id="filter-6">
            <feOffset dx="2" dy="2" in="SourceAlpha" result="shadowOffsetOuter1"></feOffset>
            <feGaussianBlur stdDeviation="4.5" in="shadowOffsetOuter1" result="shadowBlurOuter1"></feGaussianBlur>
            <feColorMatrix values="0 0 0 0 0   0 0 0 0 0   0 0 0 0 0  0 0 0 0.25 0" type="matrix" in="shadowBlurOuter1"></feColorMatrix>
        </filter>
        <radialGradient cx="33.7995652%" cy="0%" fx="33.7995652%" fy="0%" r="105.347023%" id="radialGradient-7">
            <stop stop-color="#9FD1FF" offset="0%"></stop>
            <stop stop-color="#2CB0FE" offset="100%"></stop>
        </radialGradient>
        <circle id="path-8" cx="729.633929" cy="112.633929" r="7.63392857"></circle>
        <filter x="-52.4%" y="-52.4%" width="231.0%" height="231.0%" filterUnits="objectBoundingBox" id="filter-9">
            <feOffset dx="2" dy="2" in="SourceAlpha" result="shadowOffsetOuter1"></feOffset>
            <feGaussianBlur stdDeviation="3" in="shadowOffsetOuter1" result="shadowBlurOuter1"></feGaussianBlur>
            <feColorMatrix values="0 0 0 0 0   0 0 0 0 0   0 0 0 0 0  0 0 0 0.25 0" type="matrix" in="shadowBlurOuter1"></feColorMatrix>
        </filter>
        <circle id="path-10" cx="34.6339286" cy="433.633929" r="7.63392857"></circle>
        <filter x="-52.4%" y="-52.4%" width="231.0%" height="231.0%" filterUnits="objectBoundingBox" id="filter-11">
            <feOffset dx="2" dy="2" in="SourceAlpha" result="shadowOffsetOuter1"></feOffset>
            <feGaussianBlur stdDeviation="3" in="shadowOffsetOuter1" result="shadowBlurOuter1"></feGaussianBlur>
            <feColorMatrix values="0 0 0 0 0   0 0 0 0 0   0 0 0 0 0  0 0 0 0.25 0" type="matrix" in="shadowBlurOuter1"></feColorMatrix>
        </filter>
        <linearGradient x1="64.3801177%" y1="0%" x2="50%" y2="100%" id="linearGradient-12">
            <stop stop-color="#FFB1B4" offset="0%"></stop>
            <stop stop-color="#FF797D" offset="100%"></stop>
        </linearGradient>
        <circle id="path-13" cx="753.321429" cy="451.633929" r="7.63392857"></circle>
        <filter x="-81.9%" y="-81.9%" width="289.9%" height="289.9%" filterUnits="objectBoundingBox" id="filter-14">
            <feOffset dx="2" dy="2" in="SourceAlpha" result="shadowOffsetOuter1"></feOffset>
            <feGaussianBlur stdDeviation="4.5" in="shadowOffsetOuter1" result="shadowBlurOuter1"></feGaussianBlur>
            <feColorMatrix values="0 0 0 0 0   0 0 0 0 0   0 0 0 0 0  0 0 0 0.137256567 0" type="matrix" in="shadowBlurOuter1"></feColorMatrix>
        </filter>
        <circle id="path-15" cx="49.6339286" cy="460.633929" r="7.63392857"></circle>
        <filter x="-52.4%" y="-52.4%" width="231.0%" height="231.0%" filterUnits="objectBoundingBox" id="filter-16">
            <feOffset dx="2" dy="2" in="SourceAlpha" result="shadowOffsetOuter1"></feOffset>
            <feGaussianBlur stdDeviation="3" in="shadowOffsetOuter1" result="shadowBlurOuter1"></feGaussianBlur>
            <feColorMatrix values="0 0 0 0 0   0 0 0 0 0   0 0 0 0 0  0 0 0 0.16 0" type="matrix" in="shadowBlurOuter1"></feColorMatrix>
        </filter>
        <circle id="path-17" cx="48.6339286" cy="97.6339286" r="7.63392857"></circle>
        <filter x="-52.4%" y="-52.4%" width="231.0%" height="231.0%" filterUnits="objectBoundingBox" id="filter-18">
            <feOffset dx="2" dy="2" in="SourceAlpha" result="shadowOffsetOuter1"></feOffset>
            <feGaussianBlur stdDeviation="3" in="shadowOffsetOuter1" result="shadowBlurOuter1"></feGaussianBlur>
            <feColorMatrix values="0 0 0 0 0   0 0 0 0 0   0 0 0 0 0  0 0 0 0.16 0" type="matrix" in="shadowBlurOuter1"></feColorMatrix>
        </filter>
        <circle id="path-19" cx="704.5" cy="80.5178571" r="18"></circle>
        <filter x="-22.2%" y="-22.2%" width="155.6%" height="155.6%" filterUnits="objectBoundingBox" id="filter-20">
            <feOffset dx="2" dy="2" in="SourceAlpha" result="shadowOffsetOuter1"></feOffset>
            <feGaussianBlur stdDeviation="3" in="shadowOffsetOuter1" result="shadowBlurOuter1"></feGaussianBlur>
            <feColorMatrix values="0 0 0 0 0   0 0 0 0 0   0 0 0 0 0  0 0 0 0.16 0" type="matrix" in="shadowBlurOuter1"></feColorMatrix>
        </filter>
        <circle id="path-21" cx="16.1160714" cy="16.1160714" r="16.1160714"></circle>
        <filter x="-51.2%" y="-45.0%" width="214.8%" height="214.8%" filterUnits="objectBoundingBox" id="filter-23">
            <feOffset dx="2" dy="4" in="SourceAlpha" result="shadowOffsetOuter1"></feOffset>
            <feGaussianBlur stdDeviation="5.5" in="shadowOffsetOuter1" result="shadowBlurOuter1"></feGaussianBlur>
            <feColorMatrix values="0 0 0 0 0   0 0 0 0 0   0 0 0 0 0  0 0 0 0.1796875 0" type="matrix" in="shadowBlurOuter1"></feColorMatrix>
        </filter>
        <path d="M5.84593594,12.9297535 L2.39439879,12.9297535 C1.07200885,12.9297535 2.5190663e-14,11.8577446 0,10.5353547 L0,2.39439879 C-2.4248956e-14,1.07200885 1.07200885,2.87487124e-12 2.39439879,2.85105273e-12 L14.5698869,2.85105273e-12 C15.8922769,2.85084006e-12 16.9642857,1.07200885 16.9642857,2.39439879 L16.9642857,10.5353547 C16.9642857,11.8577446 15.8922769,12.9297535 14.5698869,12.9297535 L10.635976,12.9297535 L9.26869624,14.3201176 C8.71055875,14.8840502 7.8009412,14.888748 7.23700859,14.3306105 C7.23326104,14.3268924 7.23326104,14.3268924 7.22953175,14.323156 L5.84593594,12.9297535 Z" id="path-24"></path>
        <filter x="-23.6%" y="-27.1%" width="158.9%" height="167.8%" filterUnits="objectBoundingBox" id="filter-25">
            <feOffset dx="1" dy="1" in="SourceAlpha" result="shadowOffsetOuter1"></feOffset>
            <feGaussianBlur stdDeviation="1.5" in="shadowOffsetOuter1" result="shadowBlurOuter1"></feGaussianBlur>
            <feColorMatrix values="0 0 0 0 0.500473209   0 0 0 0 0.344657513   0 0 0 0 1  0 0 0 0.553243886 0" type="matrix" in="shadowBlurOuter1"></feColorMatrix>
        </filter>
        <circle id="path-26" cx="14.1294643" cy="35.03125" r="13.1473214"></circle>
        <filter x="-62.8%" y="-55.1%" width="240.7%" height="240.7%" filterUnits="objectBoundingBox" id="filter-28">
            <feOffset dx="2" dy="4" in="SourceAlpha" result="shadowOffsetOuter1"></feOffset>
            <feGaussianBlur stdDeviation="5.5" in="shadowOffsetOuter1" result="shadowBlurOuter1"></feGaussianBlur>
            <feColorMatrix values="0 0 0 0 0   0 0 0 0 0   0 0 0 0 0  0 0 0 0.1796875 0" type="matrix" in="shadowBlurOuter1"></feColorMatrix>
        </filter>
        <path d="M8.74720982,9.51032366 L6.36160714,11.8959263 L3.97600446,9.51032366 L1.79579909,9.51032366 C0.804006641,9.51032366 1.88929973e-14,8.82490409 0,7.83311163 L0,1.79579909 C-1.8186717e-14,0.804006641 0.804006641,1.7685622e-14 1.79579909,0 L10.9274152,0 C11.9192076,-1.31982254e-16 12.7232143,0.804006641 12.7232143,1.79579909 L12.7232143,7.83311163 C12.7232143,8.82490409 11.9192076,9.51032366 10.9274152,9.51032366 L8.74720982,9.51032366 Z" id="path-29"></path>
        <filter x="-31.4%" y="-33.6%" width="178.6%" height="184.1%" filterUnits="objectBoundingBox" id="filter-30">
            <feOffset dx="1" dy="1" in="SourceAlpha" result="shadowOffsetOuter1"></feOffset>
            <feGaussianBlur stdDeviation="1.5" in="shadowOffsetOuter1" result="shadowBlurOuter1"></feGaussianBlur>
            <feColorMatrix values="0 0 0 0 0   0 0 0 0 0   0 0 0 0 0  0 0 0 0.27 0" type="matrix" in="shadowBlurOuter1"></feColorMatrix>
        </filter>
        <circle id="path-31" cx="15.6919643" cy="15.6919643" r="15.6919643"></circle>
        <filter x="-52.6%" y="-46.2%" width="217.9%" height="217.9%" filterUnits="objectBoundingBox" id="filter-32">
            <feOffset dx="2" dy="4" in="SourceAlpha" result="shadowOffsetOuter1"></feOffset>
            <feGaussianBlur stdDeviation="5.5" in="shadowOffsetOuter1" result="shadowBlurOuter1"></feGaussianBlur>
            <feColorMatrix values="0 0 0 0 0   0 0 0 0 0   0 0 0 0 0  0 0 0 0.1796875 0" type="matrix" in="shadowBlurOuter1"></feColorMatrix>
        </filter>
        <path d="M16.1160714,6.78571429 L16.1160714,15.1675675 C16.1160714,16.9367333 14.2634659,18.3709256 11.9781612,18.3709256 L4.13791023,18.3709256 C1.85260551,18.3709256 2.74028262e-16,16.9367333 0,15.1675675 L0,6.78571429 C0,6.78571429 16.1160714,6.78571429 16.1160714,6.78571429 Z" id="path-33"></path>
        <filter x="-24.8%" y="-34.5%" width="162.0%" height="186.3%" filterUnits="objectBoundingBox" id="filter-34">
            <feOffset dx="1" dy="1" in="SourceAlpha" result="shadowOffsetOuter1"></feOffset>
            <feGaussianBlur stdDeviation="1.5" in="shadowOffsetOuter1" result="shadowBlurOuter1"></feGaussianBlur>
            <feColorMatrix values="0 0 0 0 0.500473209   0 0 0 0 0.344657513   0 0 0 0 1  0 0 0 0.553243886 0" type="matrix" in="shadowBlurOuter1"></feColorMatrix>
        </filter>
        <path d="M4,1.69642857 L12.1160714,1.69642857 C14.3252104,1.69642857 16.1160714,3.48728957 16.1160714,5.69642857 L16.1160714,5.9375 L0,5.9375 L0,5.69642857 C-2.705415e-16,3.48728957 1.790861,1.69642857 4,1.69642857 Z" id="path-35"></path>
        <filter x="-24.8%" y="-94.3%" width="162.0%" height="335.8%" filterUnits="objectBoundingBox" id="filter-36">
            <feOffset dx="1" dy="1" in="SourceAlpha" result="shadowOffsetOuter1"></feOffset>
            <feGaussianBlur stdDeviation="1.5" in="shadowOffsetOuter1" result="shadowBlurOuter1"></feGaussianBlur>
            <feColorMatrix values="0 0 0 0 0.500473209   0 0 0 0 0.344657513   0 0 0 0 1  0 0 0 0.553243886 0" type="matrix" in="shadowBlurOuter1"></feColorMatrix>
        </filter>
        <linearGradient x1="50%" y1="86.8421053%" x2="17.1052632%" y2="0%" id="linearGradient-37">
            <stop stop-color="#28CAC3" offset="0%"></stop>
            <stop stop-color="#00DCD7" offset="100%"></stop>
        </linearGradient>
    </defs>
    <g id="Company-profile-Copy" stroke="none" stroke-width="1" fill="none" fill-rule="evenodd">
        <g id="Welcome-to-Joobilix-details" transform="translate(-240.000000, -112.000000)">
            <g id="Group-17" transform="translate(240.000000, 112.000000)">
                <g id="Group-16">
                    <mask id="mask-2" fill="white">
                        <use xlink:href="#path-1"></use>
                    </mask>
                    <use id="Rectangle-Copy-2" fill="#FFFFFF" opacity="0.116443452" xlink:href="#path-1"></use>
                    <path d="M761.451969,260.539541 C751.746507,221.318024 719.249257,156.195644 646.534979,199.079073 C573.820701,241.962502 425.403688,694 232.184112,699 C38.9645364,704 -31.5,615.882665 -69,492.185594" id="Shape" stroke="url(#linearGradient-3)" stroke-width="2" opacity="0.350655692" stroke-linecap="round" stroke-dasharray="7,11" mask="url(#mask-2)" transform="translate(346.225985, 442.101243) scale(-1, 1) translate(-346.225985, -442.101243) "></path>
                    <path d="M440.267857,330.539541 C430.562395,291.318024 398.065145,226.195644 325.350867,269.079073 C252.636589,311.962502 104.219576,764 -89,769" id="Shape-Copy" stroke="url(#linearGradient-3)" stroke-width="2" opacity="0.350655692" stroke-linecap="round" stroke-dasharray="7,11" mask="url(#mask-2)" transform="translate(175.633929, 512.000000) scale(-1, 1) translate(-175.633929, -512.000000) "></path>
                    <path d="M156.932859,184.93928 C131.098777,149.41828 71.0734731,103.721235 83.8270803,12.1481642 C98.0898957,-90.2612786 180.157491,-131.525945 271.138521,-197.308643" id="Path" stroke="url(#linearGradient-3)" stroke-width="2" opacity="0.350655692" stroke-linecap="round" stroke-dasharray="7,11" mask="url(#mask-2)" transform="translate(176.604728, -6.184682) scale(-1, -1) rotate(80.000000) translate(-176.604728, 6.184682) "></path>
                    <path d="M675.5,508 C667.491871,508 661,501.508129 661,493.5 C661,485.491871 667.491871,479 675.5,479 C683.508129,479 690,485.491871 690,493.5 C690,501.508129 683.508129,508 675.5,508 Z M675.5,502 C680.19442,502 684,498.19442 684,493.5 C684,488.80558 680.19442,485 675.5,485 C670.80558,485 667,488.80558 667,493.5 C667,498.19442 670.80558,502 675.5,502 Z" id="Oval-Copy" fill="#E8ECEC" fill-rule="nonzero" mask="url(#mask-2)"></path>
                </g>
                <g id="Oval-Copy-17">
                    <use fill="black" fill-opacity="1" filter="url(#filter-6)" xlink:href="#path-5"></use>
                    <use fill="url(#radialGradient-4)" fill-rule="evenodd" xlink:href="#path-5"></use>
                </g>
                <g id="Oval-Copy-18">
                    <use fill="black" fill-opacity="1" filter="url(#filter-9)" xlink:href="#path-8"></use>
                    <use fill="url(#radialGradient-7)" fill-rule="evenodd" xlink:href="#path-8"></use>
                </g>
                <g id="Oval-Copy-31">
                    <use fill="black" fill-opacity="1" filter="url(#filter-11)" xlink:href="#path-10"></use>
                    <use fill="url(#radialGradient-7)" fill-rule="evenodd" xlink:href="#path-10"></use>
                </g>
                <g id="Oval-Copy-21">
                    <use fill="black" fill-opacity="1" filter="url(#filter-14)" xlink:href="#path-13"></use>
                    <use fill="url(#linearGradient-12)" fill-rule="evenodd" xlink:href="#path-13"></use>
                </g>
                <g id="Oval-Copy-28">
                    <use fill="black" fill-opacity="1" filter="url(#filter-16)" xlink:href="#path-15"></use>
                    <use fill="url(#linearGradient-12)" fill-rule="evenodd" xlink:href="#path-15"></use>
                </g>
                <g id="Oval-Copy-30">
                    <use fill="black" fill-opacity="1" filter="url(#filter-18)" xlink:href="#path-17"></use>
                    <use fill="url(#linearGradient-12)" fill-rule="evenodd" xlink:href="#path-17"></use>
                </g>
                <circle id="Oval-Copy-14" fill-opacity="0.13" fill="#FFFFFF" cx="678.34375" cy="115.575893" r="23.3258929"></circle>
                <circle id="Oval-Copy-15" fill="#F7F4FF" cx="680.46875" cy="319.558036" r="23.3258929"></circle>
                <circle id="Oval-Copy-32" fill="#F7F4FF" cx="546.84375" cy="54.84375" r="14.84375"></circle>
                <ellipse id="Oval" fill-opacity="0.115942029" fill="#000000" cx="745.62221" cy="310.015625" rx="1.96149554" ry="1"></ellipse>
                <path d="M194.911687,39.0085121 L205.406406,39.0085121 L200.762387,34.3644934 C200.429171,34.0312776 199.888922,34.0312776 199.555706,34.3644934 L194.911687,39.0085121 Z M194.823833,41.2217264 L199.555706,45.9535998 C199.888922,46.2868155 200.429171,46.2868155 200.762387,45.9535998 L205.49426,41.2217264 L194.823833,41.2217264 Z M202.257622,32.8692584 L207.448835,38.0604712 C208.607846,39.2194824 208.607846,41.0986108 207.448835,42.257622 L202.257622,47.4488348 C201.098611,48.607846 199.219482,48.607846 198.060471,47.4488348 L192.869258,42.257622 C191.710247,41.0986108 191.710247,39.2194824 192.869258,38.0604712 L198.060471,32.8692584 C199.219482,31.7102472 201.098611,31.7102472 202.257622,32.8692584 Z" id="Combined-Shape-Copy-21" fill="#E8ECEC" fill-rule="nonzero"></path>
                <path d="M632.753188,59.3392264 L634.961327,59.3392264 C635.620527,59.3392264 636.154915,59.873614 636.154915,60.5328146 C636.154915,61.1920151 635.620527,61.7264027 634.961327,61.7264027 L632.753188,61.7264027 L632.753188,63.9345409 C632.753188,64.5937415 632.218801,65.1281291 631.5596,65.1281291 C630.9004,65.1281291 630.366012,64.5937415 630.366012,63.9345409 L630.366012,61.7264027 L628.157874,61.7264027 C627.498673,61.7264027 626.964286,61.1920151 626.964286,60.5328146 C626.964286,59.873614 627.498673,59.3392264 628.157874,59.3392264 L630.366012,59.3392264 L630.366012,57.1310882 C630.366012,56.4718876 630.9004,55.9375 631.5596,55.9375 C632.218801,55.9375 632.753188,56.4718876 632.753188,57.1310882 L632.753188,59.3392264 Z" id="Combined-Shape" fill="#E8ECEC" fill-rule="nonzero"></path>
                <path d="M653.158105,70.2378812 L656.18141,70.2378812 C657.083964,70.2378812 657.815629,70.969546 657.815629,71.8721002 C657.815629,72.7746544 657.083964,73.5063192 656.18141,73.5063192 L653.158105,73.5063192 L653.158105,76.5296243 C653.158105,77.4321785 652.42644,78.1638433 651.523886,78.1638433 C650.621332,78.1638433 649.889667,77.4321785 649.889667,76.5296243 L649.889667,73.5063192 L646.866362,73.5063192 C645.963808,73.5063192 645.232143,72.7746544 645.232143,71.8721002 C645.232143,70.969546 645.963808,70.2378812 646.866362,70.2378812 L649.889667,70.2378812 L649.889667,67.2145761 C649.889667,66.3120219 650.621332,65.5803571 651.523886,65.5803571 C652.42644,65.5803571 653.158105,66.3120219 653.158105,67.2145761 L653.158105,70.2378812 Z" id="Combined-Shape-Copy-2" fill="#E8ECEC" fill-rule="nonzero"></path>
                <g id="Group-14" transform="translate(686.000000, 385.000000)" fill="#E8ECEC" fill-rule="nonzero">
                    <path d="M10.3408198,30.2006694 L13.7774157,30.2006694 C14.7562286,30.2006694 15.5497133,30.9941541 15.5497133,31.9729671 C15.5497133,32.95178 14.7562286,33.7452647 13.7774157,33.7452647 L10.3408198,33.7452647 L10.3408198,36.968631 C10.3408198,37.9780318 9.52253876,38.7963129 8.51313791,38.7963129 C7.50373706,38.7963129 6.68545599,37.9780318 6.68545599,36.968631 L6.68545599,33.7452647 L3.24886012,33.7452647 C2.27004717,33.7452647 1.4765625,32.95178 1.4765625,31.9729671 C1.4765625,30.9941541 2.27004717,30.2006694 3.24886012,30.2006694 L6.68545599,30.2006694 L6.68545599,26.9773031 C6.68545599,25.9679023 7.50373706,25.1496212 8.51313791,25.1496212 C9.52253876,25.1496212 10.3408198,25.9679023 10.3408198,26.9773031 L10.3408198,30.2006694 Z" id="Combined-Shape-Copy-4"></path>
                    <path d="M41.5858481,7.77746001 L46.2911143,7.77746001 C47.6312706,7.77746001 48.7176819,8.86387132 48.7176819,10.2040276 C48.7176819,11.5441838 47.6312706,12.6305952 46.2911143,12.6305952 L41.5858481,12.6305952 L41.5858481,17.0439149 C41.5858481,18.4259511 40.4654865,19.5463127 39.0834503,19.5463127 C37.7014142,19.5463127 36.5810525,18.4259511 36.5810525,17.0439149 L36.5810525,12.6305952 L31.8757863,12.6305952 C30.5356301,12.6305952 29.4492188,11.5441838 29.4492188,10.2040276 C29.4492188,8.86387132 30.5356301,7.77746001 31.8757863,7.77746001 L36.5810525,7.77746001 L36.5810525,3.36414023 C36.5810525,1.98210409 37.7014142,0.861742424 39.0834503,0.861742424 C40.4654865,0.861742424 41.5858481,1.98210409 41.5858481,3.36414023 L41.5858481,7.77746001 Z" id="Combined-Shape-Copy-3"></path>
                </g>
                <g id="Group-14-Copy" transform="translate(56.000000, 385.000000)" fill="#E8ECEC" fill-rule="nonzero">
                    <path d="M6.75318846,20.3392264 L8.96132663,20.3392264 C9.62052718,20.3392264 10.1549148,20.873614 10.1549148,21.5328146 C10.1549148,22.1920151 9.62052718,22.7264027 8.96132663,22.7264027 L6.75318846,22.7264027 L6.75318846,24.9345409 C6.75318846,25.5937415 6.21880083,26.1281291 5.55960027,26.1281291 C4.90039971,26.1281291 4.36601207,25.5937415 4.36601207,24.9345409 L4.36601207,22.7264027 L2.15787391,22.7264027 C1.49867335,22.7264027 0.964285714,22.1920151 0.964285714,21.5328146 C0.964285714,20.873614 1.49867335,20.3392264 2.15787391,20.3392264 L4.36601207,20.3392264 L4.36601207,18.1310882 C4.36601207,17.4718876 4.90039971,16.9375 5.55960027,16.9375 C6.21880083,16.9375 6.75318846,17.4718876 6.75318846,18.1310882 L6.75318846,20.3392264 Z" id="Combined-Shape-Copy-4"></path>
                    <path d="M27.1581049,5.23788123 L30.18141,5.23788123 C31.0839642,5.23788123 31.815629,5.96954599 31.815629,6.87210021 C31.815629,7.77465443 31.0839642,8.50631919 30.18141,8.50631919 L27.1581049,8.50631919 L27.1581049,11.5296243 C27.1581049,12.4321785 26.4264401,13.1638433 25.5238859,13.1638433 C24.6213317,13.1638433 23.8896669,12.4321785 23.8896669,11.5296243 L23.8896669,8.50631919 L20.8663618,8.50631919 C19.9638076,8.50631919 19.2321429,7.77465443 19.2321429,6.87210021 C19.2321429,5.96954599 19.9638076,5.23788123 20.8663618,5.23788123 L23.8896669,5.23788123 L23.8896669,2.21457612 C23.8896669,1.3120219 24.6213317,0.580357143 25.5238859,0.580357143 C26.4264401,0.580357143 27.1581049,1.3120219 27.1581049,2.21457612 L27.1581049,5.23788123 Z" id="Combined-Shape-Copy-3"></path>
                </g>
                <g id="Group-14-Copy-2" transform="translate(186.000000, 125.000000)" fill="#E8ECEC" fill-rule="nonzero">
                    <path d="M8.86355986,26.6952346 L11.7617412,26.6952346 C12.6269419,26.6952346 13.3283257,27.3966184 13.3283257,28.2618191 C13.3283257,29.1270198 12.6269419,29.8284036 11.7617412,29.8284036 L8.86355986,29.8284036 L8.86355986,32.7265849 C8.86355986,33.5917857 8.16217608,34.2931695 7.29697535,34.2931695 C6.43177462,34.2931695 5.73039084,33.5917857 5.73039084,32.7265849 L5.73039084,29.8284036 L2.83220951,29.8284036 C1.96700877,29.8284036 1.265625,29.1270198 1.265625,28.2618191 C1.265625,27.3966184 1.96700877,26.6952346 2.83220951,26.6952346 L5.73039084,26.6952346 L5.73039084,23.7970533 C5.73039084,22.9318525 6.43177462,22.2304687 7.29697535,22.2304687 C8.16217608,22.2304687 8.86355986,22.9318525 8.86355986,23.7970533 L8.86355986,26.6952346 Z" id="Combined-Shape-Copy-4"></path>
                    <path d="M35.6450127,6.87471911 L39.6131006,6.87471911 C40.797703,6.87471911 41.758013,7.83502911 41.758013,9.01963152 C41.758013,10.2042339 40.797703,11.1645439 39.6131006,11.1645439 L35.6450127,11.1645439 L35.6450127,15.1326319 C35.6450127,16.3172343 34.6847027,17.2775443 33.5001003,17.2775443 C32.3154979,17.2775443 31.3551879,16.3172343 31.3551879,15.1326319 L31.3551879,11.1645439 L27.3870999,11.1645439 C26.2024975,11.1645439 25.2421875,10.2042339 25.2421875,9.01963152 C25.2421875,7.83502911 26.2024975,6.87471911 27.3870999,6.87471911 L31.3551879,6.87471911 L31.3551879,2.90663116 C31.3551879,1.72202875 32.3154979,0.76171875 33.5001003,0.76171875 C34.6847027,0.76171875 35.6450127,1.72202875 35.6450127,2.90663116 L35.6450127,6.87471911 Z" id="Combined-Shape-Copy-3"></path>
                </g>
                <g id="Oval">
                    <use fill="black" fill-opacity="1" filter="url(#filter-20)" xlink:href="#path-19"></use>
                    <use fill="url(#linearGradient-12)" fill-rule="evenodd" xlink:href="#path-19"></use>
                </g>
                <path d="M718.5,243 C710.491871,243 704,236.508129 704,228.5 C704,220.491871 710.491871,214 718.5,214 C726.508129,214 733,220.491871 733,228.5 C733,236.508129 726.508129,243 718.5,243 Z M718.5,237 C723.19442,237 727,233.19442 727,228.5 C727,223.80558 723.19442,220 718.5,220 C713.80558,220 710,223.80558 710,228.5 C710,233.19442 713.80558,237 718.5,237 Z" id="Oval" fill="#E8ECEC" fill-rule="nonzero"></path>
                <g id="Group-12" transform="translate(121.000000, 158.500000) scale(-1, 1) translate(-121.000000, -158.500000) translate(97.000000, 134.000000)">
                    <g id="Group-8" transform="translate(14.794643, 0.071429)">
                        <g id="Group-4">
                            <mask id="mask-22" fill="white">
                                <use xlink:href="#path-21"></use>
                            </mask>
                            <g id="Oval-Copy-29">
                                <use fill="black" fill-opacity="1" filter="url(#filter-23)" xlink:href="#path-21"></use>
                                <use fill="#FFFFFF" fill-rule="evenodd" xlink:href="#path-21"></use>
                            </g>
                        </g>
                        <g id="Group-9" transform="translate(7.633929, 9.330357)">
                            <g id="Combined-Shape" fill-rule="nonzero">
                                <use fill="black" fill-opacity="1" filter="url(#filter-25)" xlink:href="#path-24"></use>
                                <use fill="#8058FF" xlink:href="#path-24"></use>
                            </g>
                            <path d="M4.71230159,7.7281746 C3.98359254,7.7281746 3.39285714,7.1374392 3.39285714,6.40873016 C3.39285714,5.68002111 3.98359254,5.08928571 4.71230159,5.08928571 C5.44101063,5.08928571 6.03174603,5.68002111 6.03174603,6.40873016 C6.03174603,7.1374392 5.44101063,7.7281746 4.71230159,7.7281746 Z M8.48214286,7.7281746 C7.75343381,7.7281746 7.16269841,7.1374392 7.16269841,6.40873016 C7.16269841,5.68002111 7.75343381,5.08928571 8.48214286,5.08928571 C9.2108519,5.08928571 9.8015873,5.68002111 9.8015873,6.40873016 C9.8015873,7.1374392 9.2108519,7.7281746 8.48214286,7.7281746 Z M12.2519841,7.7281746 C11.5232751,7.7281746 10.9325397,7.1374392 10.9325397,6.40873016 C10.9325397,5.68002111 11.5232751,5.08928571 12.2519841,5.08928571 C12.9806932,5.08928571 13.5714286,5.68002111 13.5714286,6.40873016 C13.5714286,7.1374392 12.9806932,7.7281746 12.2519841,7.7281746 Z" id="Combined-Shape" fill="#FFFFFF"></path>
                        </g>
                    </g>
                    <mask id="mask-27" fill="white">
                        <use xlink:href="#path-26"></use>
                    </mask>
                    <g id="Oval-Copy-29">
                        <use fill="black" fill-opacity="1" filter="url(#filter-28)" xlink:href="#path-26"></use>
                        <use fill="#906DFF" fill-rule="evenodd" xlink:href="#path-26"></use>
                    </g>
                    <g id="Group-9" mask="url(#mask-27)">
                        <g transform="translate(7.209821, 30.343750)" id="Group-10">
                            <g>
                                <g id="Group-11">
                                    <g id="Combined-Shape" fill-rule="nonzero">
                                        <use fill="black" fill-opacity="1" filter="url(#filter-30)" xlink:href="#path-29"></use>
                                        <use fill="#FFFFFF" xlink:href="#path-29"></use>
                                    </g>
                                    <rect id="Rectangle" fill="#8058FF" x="2.54464286" y="2.54464286" width="7.63392857" height="1.69642857" rx="0.848214286"></rect>
                                    <rect id="Rectangle-Copy-7" fill="#8058FF" x="2.54464286" y="5.08928571" width="7.63392857" height="1.69642857" rx="0.848214286"></rect>
                                </g>
                            </g>
                        </g>
                    </g>
                </g>
                <g id="Group-5" transform="translate(688.526786, 384.446429)" fill="#FFFFFF">
                    <path d="M0.359278351,0.472201767 C0.331665017,0.472201767 0.309278351,0.486786639 0.309278351,0.504786379 L0.309278351,0.539617156 C0.309278351,0.557616895 0.331665017,0.572201767 0.359278351,0.572201767 C0.386891684,0.572201767 0.409278351,0.557616895 0.409278351,0.539617156 L0.409278351,0.504786379 C0.409278351,0.486790984 0.386885017,0.472201767 0.359278351,0.472201767 Z" id="Path"></path>
                    <path d="M0.689175258,0.472201767 C0.661555258,0.472201767 0.639175258,0.486786639 0.639175258,0.504786379 L0.639175258,0.539617156 C0.639175258,0.557616895 0.661555258,0.572201767 0.689175258,0.572201767 C0.716795258,0.572201767 0.739175258,0.557616895 0.739175258,0.539617156 L0.739175258,0.504786379 C0.739175258,0.486790984 0.716788591,0.472201767 0.689175258,0.472201767 Z" id="Path"></path>
                    <path d="M0.600832865,0.648053804 C0.590854937,0.635232385 0.574560171,0.635102041 0.564444995,0.64774098 C0.555050372,0.659471862 0.532534841,0.673175269 0.500000209,0.673175269 C0.467465576,0.673175269 0.444953477,0.659471862 0.435558853,0.64774098 C0.425436815,0.635093352 0.409142049,0.635236729 0.399167553,0.648049459 C0.389186194,0.660862188 0.389295992,0.681491161 0.399411168,0.6941301 C0.421573285,0.72181498 0.459175799,0.738346834 0.500000209,0.738346834 C0.540821188,0.738346834 0.578423702,0.72181498 0.600585818,0.6941301 C0.610704425,0.681495506 0.610814224,0.660862188 0.600832865,0.648053804 Z" id="Path"></path>
                    <path d="M0.364341232,0.40224595 L0.305758206,0.40224595 C0.290621852,0.40224595 0.278350515,0.42462595 0.278350515,0.45224595 C0.278350515,0.47986595 0.290621852,0.50224595 0.305758206,0.50224595 L0.364344886,0.50224595 C0.379481241,0.50224595 0.391752577,0.47986595 0.391752577,0.45224595 C0.391752577,0.42462595 0.379477586,0.40224595 0.364341232,0.40224595 Z" id="Path"></path>
                    <path d="M0.694241794,0.40224595 L0.635655114,0.40224595 C0.620515105,0.40224595 0.608247423,0.42462595 0.608247423,0.45224595 C0.608247423,0.47986595 0.620518759,0.50224595 0.635655114,0.50224595 L0.694241794,0.50224595 C0.709381802,0.50224595 0.721649485,0.47986595 0.721649485,0.45224595 C0.721649485,0.42462595 0.709381802,0.40224595 0.694241794,0.40224595 Z" id="Path"></path>
                    <path d="M0.721228028,0.934310993 C0.808217978,0.877008518 0.869440986,0.786934008 0.884750216,0.683133387 L0.900254202,0.683133387 C0.951089052,0.683133387 0.994693578,0.647357221 0.99952075,0.601679283 C1.00222647,0.576081586 0.993385929,0.550526711 0.975266645,0.531563136 C0.966499138,0.52238275 0.955902313,0.515119473 0.944255195,0.510043415 L0.944255195,0.235946136 C0.944255195,0.134965182 0.857519123,0.0528094551 0.750900528,0.0528094551 C0.750764895,0.0528094551 0.748949488,0.0528094551 0.746490691,0.0528127491 C0.699530098,0.0200044798 0.630541187,0 0.554012427,0 C0.391081463,0 0.316228998,0.0321494687 0.229562482,0.0693749959 C0.183262669,0.0892608916 0.135390895,0.109822058 0.0675322652,0.128617639 C0.0604097522,0.130590746 0.0545079433,0.135343993 0.0513118547,0.141691536 C0.048115766,0.148035786 0.0479244876,0.155371531 0.0507867084,0.161857422 C0.0515796445,0.163655948 0.0632337173,0.189279997 0.0932992082,0.220408325 C0.0803166197,0.235544268 0.0557425586,0.274252097 0.0557425586,0.350366623 L0.0557425586,0.511143612 C0.0257292345,0.524698434 0.00382263797,0.551547852 0.000480482188,0.583140634 C-0.00222871589,0.608738331 0.00660834742,0.6342965 0.0247276311,0.653266663 C0.0428573482,0.672246708 0.0687494916,0.683130093 0.095764961,0.683130093 L0.115233627,0.683130093 C0.130528946,0.786963654 0.219421247,0.914569827 0.330933092,0.963281749 C0.533136415,0.982169562 0.663234727,0.972512643 0.721228028,0.934310993 Z M0.25110391,0.11437437 C0.335610719,0.0780777516 0.402356457,0.0494100441 0.554012427,0.0494100441 C0.650242865,0.0494100441 0.73623469,0.0875545981 0.754037495,0.138140601 C0.758596877,0.151086033 0.773356616,0.158072613 0.787031284,0.153764057 C0.800695519,0.149448913 0.808082345,0.135455989 0.80352644,0.122513851 C0.802027513,0.118251411 0.800236451,0.114071322 0.7982089,0.109966994 C0.852858885,0.128433175 0.89209183,0.177922275 0.89209183,0.235946136 L0.89209183,0.501699706 L0.862419329,0.501699706 C0.846056329,0.501699706 0.832746828,0.489093556 0.832746828,0.473595272 L0.832746828,0.447187251 C0.832746828,0.332651475 0.745196953,0.248413938 0.741468763,0.244882766 C0.734593173,0.238367229 0.724455416,0.236031781 0.715169718,0.238792155 C0.570375427,0.282101706 0.366218745,0.318602552 0.215915635,0.24657259 C0.162430709,0.220938659 0.130848902,0.188364264 0.114238979,0.166613963 C0.169608867,0.149379739 0.212528268,0.130943205 0.25110391,0.11437437 Z M0.330933092,0.978418788 C0.382073988,1.01422553 0.439436649,1.03434393 0.499998877,1.03434393 C0.560554149,1.03434393 0.669887016,0.997460912 0.721228028,0.934343933 L0.330933092,0.978418788 Z M0.499998877,0.950586662 C0.31454227,0.950586662 0.163665325,0.807679638 0.163665325,0.632023638 C0.163665325,0.618376584 0.151986907,0.607318616 0.137581903,0.607318616 C0.123176898,0.607318616 0.111498481,0.618376584 0.111498481,0.632023638 L0.111498481,0.633723343 L0.095764961,0.633723343 C0.0834640193,0.633723343 0.0716708348,0.628762575 0.0634110846,0.620115817 C0.0550435229,0.611357063 0.0511275318,0.599976283 0.0523864916,0.588068463 C0.0545809769,0.567342596 0.0753851141,0.551106456 0.0997505079,0.551106456 L0.137581903,0.551106456 C0.1827097,0.551106456 0.219421247,0.516331667 0.219421247,0.473591978 L0.219421247,0.380345343 C0.219421247,0.366698289 0.20774283,0.355640321 0.193337825,0.355640321 C0.178932821,0.355640321 0.167254404,0.366698289 0.167254404,0.380345343 L0.167254404,0.473591978 C0.167254404,0.489090262 0.153941425,0.501696412 0.137581903,0.501696412 L0.107909402,0.501696412 L0.107909402,0.350366623 C0.107909402,0.292882977 0.124220235,0.26429762 0.131753128,0.254161973 C0.147688359,0.266066499 0.166378001,0.27785903 0.188253297,0.288656771 C0.247365287,0.317838344 0.31772097,0.333998722 0.397362351,0.336686628 C0.490709701,0.339865341 0.59740133,0.324357175 0.714675872,0.290659525 C0.735375676,0.314402698 0.780583462,0.37457425 0.780583462,0.447183957 L0.780583462,0.473591978 C0.780583462,0.516334961 0.817298487,0.551106456 0.862422807,0.551106456 L0.904239749,0.551106456 C0.91654069,0.551106456 0.928333875,0.556067224 0.936593625,0.564713982 C0.944961187,0.573472736 0.948877178,0.584850222 0.947618218,0.596758042 C0.945427211,0.617487203 0.924626551,0.633723343 0.900261157,0.633723343 L0.888492317,0.633723343 L0.888492317,0.63228057 C0.888492317,0.618640104 0.876820856,0.607582136 0.862419329,0.607575548 C0.848010847,0.607575548 0.836335907,0.618623634 0.836325474,0.632260806 C0.836182884,0.807785047 0.685309417,0.950586662 0.499998877,0.950586662 Z" id="Shape" fill-rule="nonzero"></path>
                </g>
                <g id="Group-7" transform="translate(613.000000, 111.000000)">
                    <g id="Oval-Copy-22">
                        <use fill="black" fill-opacity="1" filter="url(#filter-32)" xlink:href="#path-31"></use>
                        <use fill="#FFFFFF" fill-rule="evenodd" xlink:href="#path-31"></use>
                    </g>
                    <g id="Group-2" transform="translate(7.633929, 5.937500)">
                        <g id="Path" fill-rule="nonzero">
                            <use fill="black" fill-opacity="1" filter="url(#filter-34)" xlink:href="#path-33"></use>
                            <use fill="#8058FF" xlink:href="#path-33"></use>
                        </g>
                        <g id="Group-3" transform="translate(2.949492, 9.537241)" fill="#FFFFFF">
                            <path d="M8.95290179,2.63794643 C8.22445299,2.63794643 7.63392857,2.04742201 7.63392857,1.31897321 C7.63392857,0.590524423 8.22445299,2.8932412e-13 8.95290179,2.8932412e-13 C9.68135058,2.8932412e-13 10.271875,0.590524423 10.271875,1.31897321 C10.271875,2.04742201 9.68135058,2.63794643 8.95290179,2.63794643 Z M5.15519543,2.63794643 C4.42674663,2.63794643 3.83622221,2.04742201 3.83622221,1.31897321 C3.83622221,0.590524423 4.42674663,2.8932412e-13 5.15519543,2.8932412e-13 C5.88364422,2.8932412e-13 6.47416864,0.590524423 6.47416864,1.31897321 C6.47416864,2.04742201 5.88364422,2.63794643 5.15519543,2.63794643 Z M1.31897321,2.63794643 C0.590524423,2.63794643 2.91100477e-13,2.04742201 2.91100477e-13,1.31897321 C2.91100477e-13,0.590524423 0.590524423,2.8932412e-13 1.31897321,2.8932412e-13 C2.04742201,2.8932412e-13 2.63794643,0.590524423 2.63794643,1.31897321 C2.63794643,2.04742201 2.04742201,2.63794643 1.31897321,2.63794643 Z M8.95290179,6.87901786 C8.22445299,6.87901786 7.63392857,6.28849343 7.63392857,5.56004464 C7.63392857,4.83159585 8.22445299,4.24107143 8.95290179,4.24107143 C9.68135058,4.24107143 10.271875,4.83159585 10.271875,5.56004464 C10.271875,6.28849343 9.68135058,6.87901786 8.95290179,6.87901786 Z M5.15519543,6.87901786 C4.42674663,6.87901786 3.83622221,6.28849343 3.83622221,5.56004464 C3.83622221,4.83159585 4.42674663,4.24107143 5.15519543,4.24107143 C5.88364422,4.24107143 6.47416864,4.83159585 6.47416864,5.56004464 C6.47416864,6.28849343 5.88364422,6.87901786 5.15519543,6.87901786 Z M1.31897321,6.87901786 C0.590524423,6.87901786 2.91100477e-13,6.28849343 2.91100477e-13,5.56004464 C2.91100477e-13,4.83159585 0.590524423,4.24107143 1.31897321,4.24107143 C2.04742201,4.24107143 2.63794643,4.83159585 2.63794643,5.56004464 C2.63794643,6.28849343 2.04742201,6.87901786 1.31897321,6.87901786 Z" id="Combined-Shape"></path>
                        </g>
                        <g id="Rectangle" fill-rule="nonzero">
                            <use fill="black" fill-opacity="1" filter="url(#filter-36)" xlink:href="#path-35"></use>
                            <use fill="#8058FF" xlink:href="#path-35"></use>
                        </g>
                        <g id="Rectangle-Copy-6" transform="translate(3.392857, 0.000000)" fill="url(#linearGradient-37)">
                            <g id="Group">
                                <rect id="Rectangle-Copy-3" x="6.78571429" y="0" width="2.54464286" height="4.24107143" rx="1.27232143"></rect>
                                <rect id="Rectangle-Copy-5" x="0" y="0" width="2.54464286" height="4.24107143" rx="1.27232143"></rect>
                            </g>
                        </g>
                    </g>
                </g>
            </g>
        </g>
    </g>
</svg>