<?xml version="1.0" encoding="UTF-8"?>
<svg width="40px" height="40px" viewBox="0 0 40 40" version="1.1" xmlns="http://www.w3.org/2000/svg" xmlns:xlink="http://www.w3.org/1999/xlink">
    <!-- Generator: Sketch 52.5 (67469) - http://www.bohemiancoding.com/sketch -->
    <title>Facebook</title>
    <desc>Created with Sketch.</desc>
    <g id="Landing-page" stroke="none" stroke-width="1" fill="none" fill-rule="evenodd">
        <g id="Landing-page-01-Copy" transform="translate(-648.000000, -2997.000000)" fill="#4267B2">
            <path d="M673.554078,3008.98315 L670.810175,3008.98315 C669.840997,3008.98315 669.639003,3009.37936 669.639003,3010.38156 L669.639003,3012.80257 L673.554078,3012.80257 L673.176797,3017.05413 L669.639003,3017.05413 L669.639003,3029.75057 L664.569266,3029.75057 L664.569266,3017.10706 L661.931702,3017.10706 L661.931702,3012.80257 L664.569266,3012.80257 L664.569266,3009.41335 C664.569266,3006.23245 666.270185,3004.57134 670.04299,3004.57134 L673.554078,3004.57134 L673.554078,3008.98315 Z M667.753086,2997 C656.843513,2997 648,3005.84351 648,3016.75309 C648,3027.66217 656.843513,3036.50617 667.753086,3036.50617 C678.66266,3036.50617 687.506173,3027.66217 687.506173,3016.75309 C687.506173,3005.84351 678.66266,2997 667.753086,2997 Z" id="Facebook"></path>
        </g>
    </g>
</svg>