<?xml version="1.0" encoding="UTF-8"?>
<svg width="39px" height="39px" viewBox="0 0 39 39" version="1.1" xmlns="http://www.w3.org/2000/svg" xmlns:xlink="http://www.w3.org/1999/xlink">
    <!-- Generator: Sketch 52.5 (67469) - http://www.bohemiancoding.com/sketch -->
    <title>Instagram</title>
    <desc>Created with Sketch.</desc>
    <g id="Landing-page" stroke="none" stroke-width="1" fill="none" fill-rule="evenodd">
        <g id="Landing-page-01-Copy" transform="translate(-536.000000, -2997.000000)" fill="#231F20">
            <path d="M561.35925,3012.13624 C562.1013,3012.13624 562.702936,3011.53461 562.702936,3010.79303 C562.702936,3010.05098 562.1013,3009.44935 561.35925,3009.44935 C560.617201,3009.44935 560.01604,3010.05098 560.01604,3010.79303 C560.01604,3011.53461 560.617201,3012.13624 561.35925,3012.13624 Z M555.383347,3022.51732 C558.558596,3022.51732 561.132209,3019.94371 561.132209,3016.76846 C561.132209,3013.59369 558.558596,3011.02007 555.383347,3011.02007 C552.208574,3011.02007 549.634961,3013.59369 549.634961,3016.76846 C549.634961,3019.94371 552.208574,3022.51732 555.383347,3022.51732 Z M564.110403,3010.16617 C564.263668,3010.56076 564.445968,3011.15382 564.495945,3012.24524 C564.549731,3013.42519 564.561154,3013.77932 564.561154,3016.76846 C564.561154,3019.75808 564.549731,3020.11221 564.495945,3021.29216 C564.445968,3022.38357 564.263668,3022.97617 564.110403,3023.37123 C563.907636,3023.89337 563.664888,3024.26654 563.273158,3024.65827 C562.881428,3025.05 562.508737,3025.29275 561.985637,3025.49552 C561.591528,3025.64926 560.998459,3025.83108 559.907041,3025.88106 C558.726616,3025.93484 558.372964,3025.94674 555.383347,3025.94674 C552.394205,3025.94674 552.040077,3025.93484 550.859652,3025.88106 C549.768234,3025.83108 549.175642,3025.64926 548.781056,3025.49552 C548.258432,3025.29275 547.885266,3025.05 547.494012,3024.65827 C547.102282,3024.26654 546.859533,3023.89337 546.65629,3023.37123 C546.503025,3022.97617 546.320726,3022.38357 546.270748,3021.29216 C546.217439,3020.11221 546.205539,3019.75808 546.205539,3016.76846 C546.205539,3013.77932 546.217439,3013.42519 546.270748,3012.24524 C546.320726,3011.15382 546.503025,3010.56076 546.65629,3010.16617 C546.859533,3009.64355 547.102282,3009.27086 547.494012,3008.87913 C547.885266,3008.4874 548.258432,3008.24465 548.781056,3008.0414 C549.175642,3007.88814 549.768234,3007.70584 550.859652,3007.65586 C552.040077,3007.60208 552.394681,3007.59065 555.383347,3007.59065 C558.372488,3007.59065 558.726616,3007.60208 559.907041,3007.65586 C560.998459,3007.70584 561.591528,3007.88814 561.985637,3008.0414 C562.508737,3008.24465 562.881428,3008.4874 563.273158,3008.87913 C563.664888,3009.27086 563.907636,3009.64355 564.110403,3010.16617 Z M555.38349,3013.03708 C557.444474,3013.03708 559.115157,3014.70776 559.115157,3016.76875 C559.115157,3018.82973 557.444474,3020.50041 555.38349,3020.50041 C553.322505,3020.50041 551.651822,3018.82973 551.651822,3016.76875 C551.651822,3014.70776 553.322505,3013.03708 555.38349,3013.03708 Z M566.511141,3021.38435 C566.565402,3020.19012 566.578254,3019.80887 566.578254,3016.76879 C566.578254,3013.72825 566.565402,3013.34699 566.511141,3012.15276 C566.456879,3010.96139 566.26744,3010.14794 565.990421,3009.4354 C565.704834,3008.69954 565.321672,3008.07506 564.699569,3007.45248 C564.076989,3006.83037 563.452982,3006.44769 562.716644,3006.16162 C562.004581,3005.88508 561.190659,3005.69564 559.999286,3005.6409 C558.805057,3005.58664 558.423799,3005.57379 555.383728,3005.57379 C552.34318,3005.57379 551.961922,3005.58664 550.767693,3005.6409 C549.57632,3005.69564 548.762398,3005.88508 548.050335,3006.16162 C547.313997,3006.44769 546.68999,3006.83037 546.06741,3007.45248 C545.445307,3008.07506 545.062145,3008.69954 544.776558,3009.4354 C544.499539,3010.14794 544.3101,3010.96139 544.255838,3012.15276 C544.201577,3013.34699 544.188725,3013.72825 544.188725,3016.76879 C544.188725,3019.80887 544.201577,3020.19012 544.255838,3021.38435 C544.3101,3022.57573 544.499539,3023.38965 544.776558,3024.10171 C545.062145,3024.83805 545.445307,3025.46206 546.06741,3026.08463 C546.68999,3026.70721 547.313997,3027.08942 548.050335,3027.37596 C548.762398,3027.65251 549.57632,3027.84147 550.767693,3027.89621 C551.961922,3027.95047 552.34318,3027.96332 555.383728,3027.96332 C558.423799,3027.96332 558.805057,3027.95047 559.999286,3027.89621 C561.190659,3027.84147 562.004581,3027.65251 562.716644,3027.37596 C563.452982,3027.08942 564.076989,3026.70721 564.699569,3026.08463 C565.321672,3025.46206 565.704834,3024.83805 565.990421,3024.10171 C566.26744,3023.38965 566.456879,3022.57573 566.511141,3021.38435 Z M555.363736,2997 C566.057534,2997 574.726997,3005.66899 574.726997,3016.36326 C574.726997,3027.05706 566.057534,3035.72652 555.363736,3035.72652 C544.669463,3035.72652 536,3027.05706 536,3016.36326 C536,3005.66899 544.669463,2997 555.363736,2997 Z" id="Instagram"></path>
        </g>
    </g>
</svg>