<?xml version="1.0" encoding="UTF-8"?>
<svg width="40px" height="40px" viewBox="0 0 40 40" version="1.1" xmlns="http://www.w3.org/2000/svg" xmlns:xlink="http://www.w3.org/1999/xlink">
    <!-- Generator: Sketch 52.5 (67469) - http://www.bohemiancoding.com/sketch -->
    <title>Linkedin</title>
    <desc>Created with Sketch.</desc>
    <g id="Landing-page" stroke="none" stroke-width="1" fill="none" fill-rule="evenodd">
        <g id="Landing-page-01-Copy" transform="translate(-592.000000, -2997.000000)" fill="#0077B5">
            <path d="M611.753086,3036.50617 C600.843758,3036.50617 592,3027.66241 592,3016.75309 C592,3005.84376 600.843758,2997 611.753086,2997 C622.662415,2997 631.506173,3005.84376 631.506173,3016.75309 C631.506173,3027.66241 622.662415,3036.50617 611.753086,3036.50617 Z M606.821644,3013.4238 L602.982729,3013.4238 C602.812352,3013.4238 602.674298,3013.56017 602.674298,3013.72833 L602.674298,3025.90523 C602.674298,3026.07346 602.812352,3026.20976 602.982729,3026.20976 L606.821644,3026.20976 C606.992022,3026.20976 607.130075,3026.07346 607.130075,3025.90523 L607.130075,3013.72833 C607.130075,3013.56017 606.992022,3013.4238 606.821644,3013.4238 Z M604.903575,3007.37037 C603.506753,3007.37037 602.37037,3008.49117 602.37037,3009.86881 C602.37037,3011.24706 603.506753,3012.36829 604.903575,3012.36829 C606.299286,3012.36829 607.434743,3011.247 607.434743,3009.86881 C607.434805,3008.49117 606.299286,3007.37037 604.903575,3007.37037 Z M616.586195,3013.12116 C615.044349,3013.12116 613.904574,3013.77559 613.213257,3014.5192 L613.213257,3013.72833 C613.213257,3013.56017 613.075203,3013.4238 612.904826,3013.4238 L609.228392,3013.4238 C609.058015,3013.4238 608.919961,3013.56017 608.919961,3013.72833 L608.919961,3025.90523 C608.919961,3026.07346 609.058015,3026.20976 609.228392,3026.20976 L613.058918,3026.20976 C613.229295,3026.20976 613.367349,3026.07346 613.367349,3025.90523 L613.367349,3019.88049 C613.367349,3017.8503 613.925855,3017.05937 615.359195,3017.05937 C616.920226,3017.05937 617.044276,3018.32732 617.044276,3019.98494 L617.044276,3025.90529 C617.044276,3026.07352 617.18233,3026.20983 617.352707,3026.20983 L621.184652,3026.20983 C621.355029,3026.20983 621.493083,3026.07352 621.493083,3025.90529 L621.493083,3019.22605 C621.493083,3016.20722 620.910087,3013.12116 616.586195,3013.12116 Z" id="Linkedin"></path>
        </g>
    </g>
</svg>