<?xml version="1.0" encoding="UTF-8"?>
<svg width="40px" height="40px" viewBox="0 0 40 40" version="1.1" xmlns="http://www.w3.org/2000/svg" xmlns:xlink="http://www.w3.org/1999/xlink">
    <!-- Generator: Sketch 52.5 (67469) - http://www.bohemiancoding.com/sketch -->
    <title>Twitter</title>
    <desc>Created with Sketch.</desc>
    <g id="Landing-page" stroke="none" stroke-width="1" fill="none" fill-rule="evenodd">
        <g id="Landing-page-01-Copy" transform="translate(-705.000000, -2997.000000)" fill="#38A1F3">
            <path d="M724.753086,3036.50617 C713.843758,3036.50617 705,3027.66241 705,3016.75309 C705,3005.84376 713.843758,2997 724.753086,2997 C735.662415,2997 744.506173,3005.84376 744.506173,3016.75309 C744.506173,3027.66241 735.662415,3036.50617 724.753086,3036.50617 Z M735.123457,3010.35814 C734.39672,3010.69737 733.616318,3010.92723 732.797173,3011.03011 C733.633897,3010.50181 734.274412,3009.66488 734.577953,3008.67037 C733.793143,3009.15882 732.926519,3009.5138 732.003573,3009.70659 C731.264515,3008.87614 730.21225,3008.35802 729.046466,3008.35802 C726.809059,3008.35802 724.993971,3010.26918 724.993971,3012.62523 C724.993971,3012.95982 725.030032,3013.28607 725.098674,3013.5975 C721.73157,3013.42048 718.745414,3011.72156 716.747314,3009.13937 C716.398019,3009.76871 716.199181,3010.50184 716.199181,3011.28503 C716.199181,3012.76613 716.915375,3014.07299 718.001072,3014.83764 C717.337668,3014.81355 716.713005,3014.62076 716.165749,3014.301 L716.165749,3014.35476 C716.165749,3016.42254 717.562927,3018.14743 719.415855,3018.5404 C719.076252,3018.63679 718.718142,3018.68961 718.347737,3018.68961 C718.086417,3018.68961 717.833036,3018.66273 717.584914,3018.60991 C718.100491,3020.30696 719.597088,3021.54061 721.369052,3021.57491 C719.98332,3022.71957 718.235095,3023.39893 716.336414,3023.39893 C716.009107,3023.39893 715.687109,3023.37854 715.37037,3023.34055 C717.163472,3024.55381 719.292644,3025.26097 721.581088,3025.26097 C729.035022,3025.26097 733.109504,3018.75727 733.109504,3013.1165 L733.096307,3012.56411 C733.893438,3011.96537 734.581459,3011.21462 735.123431,3010.35822 L735.123457,3010.35814 Z" id="Twitter"></path>
        </g>
    </g>
</svg>