<svg width="148" height="157" viewBox="0 0 148 157" fill="none" xmlns="http://www.w3.org/2000/svg">
<path d="M112.69 21.1808L115.405 21.5688L115.696 21.7627L116.181 22.0537L116.278 22.3446L116.375 22.6356L116.278 23.2175L116.084 23.9934L115.502 25.0602L115.405 25.3511L115.308 26.03V26.7089L115.405 27.5818L115.502 27.9697L115.696 28.4546L116.084 29.0366L116.472 29.4245L116.763 29.6185L118.897 30.6853L119.091 30.9762L119.188 31.3642V31.9461L119.091 32.9159L118.897 33.3039L118.509 33.5948L118.121 33.7888L117.83 34.0797L117.733 34.3707V34.6617L117.927 35.1466L119.091 37.6682L119.285 38.3471V39.4139V40.0928L118.994 40.6747L118.8 40.8687L116.181 42.6144L115.793 43.0023L115.599 43.3902L115.502 43.9721L115.599 44.748L116.375 46.2998L116.569 46.8817L116.763 47.3666V48.0455L116.957 48.3364L117.248 48.7244L118.024 49.1123L118.606 49.3063L120.158 49.5003L120.352 49.5973L120.546 49.8882L120.837 50.1791L121.515 51.8279L122.485 53.2827L122.873 54.0585L122.97 54.4465L123.164 54.6404L123.552 54.8344H124.231L125.104 54.7374L125.686 55.0284L126.171 56.1922L124.91 57.55V58.2289L125.201 58.3259L125.977 58.8108L126.268 59.0047L126.559 59.2957L126.85 59.7806L126.947 60.1686V60.5565L126.559 61.1384L126.365 61.5263V61.9143L126.462 62.3022L126.559 62.7871L126.753 63.66L126.656 64.0479L126.559 64.2419L125.492 64.8238L125.298 65.0178L124.91 65.4057V65.7936L125.007 67.1514L124.91 67.5394L124.716 67.8303L123.746 68.2182L121.903 69.3821L121.418 69.673L120.837 70.6429L120.643 71.1278L120.546 71.6127V72.1946L120.74 72.8735L121.128 73.3584L121.612 73.6494L121.903 73.7464H123.552L124.134 73.9403L124.522 74.3283L124.813 74.9102L124.91 75.7831L124.813 76.171L124.619 76.3649H124.328L124.037 76.5589L123.746 76.8499L123.358 78.0137L123.164 78.4016L122.873 78.8865V79.1775L122.97 79.3715L124.037 79.9534L124.813 80.6323L125.007 80.7292H125.88L126.171 80.8262L126.656 81.1172L127.044 81.5051L127.335 82.184L127.529 82.8629V83.2508L127.335 83.5418L126.753 84.0267L126.559 84.2207L126.365 84.6086V84.9966L126.462 85.6754L126.753 86.3543L127.141 86.7423L128.498 87.0332L128.692 87.2272L128.983 87.9061L129.953 92.9493L130.147 93.6282L130.438 93.7252L132.378 94.0161L133.832 93.9191L134.123 94.0161L134.511 94.2101L134.996 94.889L135.287 95.1799L135.675 95.4709L135.966 95.5679L136.16 95.7618L136.451 96.0528L136.354 96.3437L136.257 96.5377L136.063 96.7317L135.19 97.2166L134.899 97.5076L134.802 97.8955L134.705 98.6713V99.0593L134.802 99.4472L135.19 99.8352L135.578 100.223L137.324 101.484L139.652 102.454L140.039 102.648L140.136 102.939L140.233 103.23V105.557L140.33 106.236L140.427 106.624L140.912 107.594L141.494 108.467L142.464 109.728L143.24 111.376L143.531 112.443V112.831V113.51L143.337 113.898L143.046 114.286L142.755 114.674L142.561 114.771H142.173L142.076 115.062L141.979 115.547L141.785 115.935L141.494 116.42L141.3 116.613L140.33 117.486L140.233 117.68L140.136 117.971L140.039 118.553L140.136 118.844L140.33 119.038H140.524L141.009 118.941L143.531 117.874L144.113 117.68H144.695L145.18 117.874L145.665 118.359L146.537 119.135L145.18 120.978L144.501 121.366L142.658 121.657L142.27 121.851L142.076 122.142L141.3 123.499L140.136 124.954L139.555 125.439L139.167 125.633L139.07 125.439L138.779 124.954L138.488 123.596L138.391 123.305L138.003 122.627L137.906 122.336L138.003 121.657L137.906 121.366L137.712 121.075L136.936 120.881H136.451L136.16 120.978L135.19 121.851L134.802 122.239L134.22 123.208L133.929 123.693L132.766 125.148L131.02 126.797L130.535 127.476L130.438 127.864L130.535 128.64L130.438 129.318V129.997L130.341 130.385L129.953 131.549L129.565 132.131L128.595 133.586L128.304 134.168L128.401 134.362L128.498 134.556L128.983 134.847L130.341 135.234L130.826 135.428L130.923 135.719L130.729 136.495L131.02 137.174L130.923 137.465L130.826 137.853L130.535 138.241L130.244 138.92L130.341 139.502L127.238 141.248L126.753 141.344L126.268 141.441L125.88 141.344L125.395 141.248L124.716 141.635L124.522 141.926L124.425 142.314L124.522 142.508L124.813 142.993L125.88 144.448L126.171 144.933V145.321L126.074 145.806L125.201 148.424L125.007 148.618H124.716L124.231 148.424L123.94 148.327L123.649 148.424L123.164 148.618L120.158 148.909L116.084 148.618L115.405 148.424L113.369 147.164L112.884 146.776H112.011L106.871 148.909L101.925 149.103L101.634 149.006L100.664 148.521L97.8513 147.358L97.3663 147.067L96.8814 146.485L96.6874 146.291L96.0086 145.806L95.0387 144.933L94.5538 144.545L94.2628 144.351L93.6809 144.157H93.39L92.9051 144.254L91.3533 144.933L91.1593 145.03L90.9654 145.321V145.612V146.097L91.3533 148.133L91.4503 148.715L91.3533 149.006L91.1593 149.2L90.5774 149.685L89.7046 150.17L89.2197 150.558L88.5407 151.334L87.9588 152.207L86.795 152.983L82.2368 155.019L81.2669 155.795L80.976 155.213L80.1031 154.437L79.7152 153.856L79.6182 153.371L79.4242 151.334L78.5514 149.2L78.4544 148.618V148.133L78.2604 147.552L77.9695 146.873L76.4177 145.903L74.478 145.515H70.7926L65.8464 143.381H64.1007L62.9369 143.866L61.967 146.776L61.5791 148.521V149.879L61.2881 150.655H60.8032L59.7364 149.879L59.0575 149.2L57.5057 146.097L58.3786 145.03L58.4756 143.866L57.9907 142.702L57.1178 142.12L55.857 142.314L55.1781 143.284L54.5962 144.545L53.8203 145.418L52.6565 145.709L52.0746 145.03L51.9776 143.866L52.3656 142.799L53.1414 141.732L53.9173 141.248L54.4992 140.472L54.8871 138.823L54.7902 137.368L54.2083 136.689L53.3354 136.592L50.8138 136.883L49.941 137.465L49.0681 138.144L47.9043 138.823L46.6435 139.114L45.7706 138.823L45.1887 137.95L44.9947 136.398L44.6068 135.041L43.7339 135.137L42.0852 136.592L41.2124 136.786H40.0485L39.2727 136.204L40.3395 133.004L40.0485 131.549L39.0787 130.482L38.0119 129.997L33.2596 129.415L31.029 128.543L29.8652 126.7L29.4772 126.312L27.7315 123.693L26.9556 122.82L23.4642 120.299L21.7185 119.426L15.0266 119.523L13.9597 118.941L13.7657 116.807L12.602 116.71L11.2441 117.583L10.5653 117.777H8.4316L7.84969 117.001L6.68589 111.667L5.91 109.243L4.8432 107.206L3.29144 105.751L1.25476 104.975L2.41859 100.611L2.80652 98.5744L2.90351 96.7317V96.3437L2.70953 95.9558L2.61254 95.0829V94.3071L2.70953 94.0161L3.00047 93.9191H3.58238H3.87335L4.16429 93.6282V93.3372V93.0463L3.87335 92.5613L3.58238 92.0764L3.19445 91.0096L3.00047 89.9428L2.80652 85.4815L2.70953 84.8996L2.51555 83.7358L2.12761 82.378L1.5457 81.4081L1.35175 80.5353L1.25476 80.1474L1.35175 79.7594L1.5457 79.5654L2.03062 79.2745L2.3216 79.0805L2.61254 78.6926L2.70953 78.3046V78.0137L2.61254 77.8197L2.12761 77.0438L1.93366 76.6559L1.73968 75.88V75.4921L1.83667 75.1041L2.12761 74.8132L2.41859 73.7464L2.51555 73.3584L2.70953 73.0675L3.09746 72.8735L3.67937 72.2916L4.0673 72.0006L4.45524 71.6127L4.74621 70.9338L4.94016 70.061L5.23113 69.576L5.42508 69.3821L6.29796 68.9941L6.5889 68.6062L6.68589 68.2182V67.5394L6.78289 67.2484L6.97684 66.7635L7.17082 66.1816L7.55875 65.1148L7.94668 64.7268L8.23765 64.4359H9.49844L11.8261 64.8238L12.117 64.7268L12.505 64.4359L13.6688 62.3022L14.0567 61.9143L14.3477 61.7203L15.7054 62.0113L16.4813 62.3992L17.3542 62.9811L17.9361 63.369L18.227 63.466L19.1969 63.563L19.7788 63.854L20.8456 64.6298L21.3306 64.9208L21.9124 65.2117L22.4943 65.3087L23.0763 65.2117L23.3672 64.9208L24.434 63.563L24.822 63.1751L26.0828 62.5932L27.8285 62.4962L28.2164 62.3992L28.7983 62.1082L28.9923 61.8173L29.0893 61.4293L28.9923 61.2354L28.7983 60.6535L28.7013 60.0716L28.6044 59.4897V58.8108V58.1319L28.5074 57.55L28.2164 57.065L27.6345 56.1922L27.3436 55.7073L27.2466 54.9314L27.3436 54.3495L27.5375 53.8646L27.8285 53.3796L28.2164 52.7977L28.4104 52.4098V52.0219L28.1195 51.343L27.4406 50.4701L27.2466 50.2761L27.0526 49.7912V49.0153L27.1496 48.2395V47.8515L27.0526 47.6576L26.8586 47.4636L26.6647 47.2696L25.7918 47.0757L25.3069 46.7847L25.1129 46.2028L25.0159 45.3299L24.919 45.039L24.725 44.4571L24.531 44.1661L24.434 43.6812L24.531 43.2933L24.725 43.0023L26.3737 42.4204L26.6647 42.2264L26.7617 41.9355V41.6445L26.3737 40.5777L26.1798 40.0928L25.8888 39.6078L25.6949 39.4139H22.3974L21.7185 39.3169L21.4275 39.1229L21.2336 38.929L21.0396 38.638L20.9426 38.0561L21.0396 37.6682L21.1366 37.3772L21.3306 37.1832L22.0094 36.6983L22.3004 36.4074V36.2134L22.2034 35.9225L22.0094 35.7285L20.4577 34.5647L20.3607 34.1767L20.2637 33.6918V32.431L20.4577 31.8491L20.6516 31.4612L20.8456 31.3642L21.4275 31.2672L21.7185 31.3642L22.2034 31.6551H22.5913L22.9793 31.3642L23.4642 30.6853L23.5612 30.2004V29.8124L23.3672 29.6185L22.7853 29.0366L22.5913 28.7456L22.4943 28.4546V28.1637L22.6883 27.8727L23.1732 27.1939L24.822 23.8964L25.0159 23.3145L25.1129 22.8296V22.5386L24.919 21.9567L24.725 21.4718L24.337 21.0838L23.9491 20.6959L23.4642 20.4049L22.1064 19.726L21.9124 19.5321L21.7185 19.2411L21.6215 18.8532V18.4653L21.7185 18.1743L22.3004 17.1075L22.3974 16.8165L22.5913 16.7195H22.8823L24.2401 17.0105H24.531L25.0159 16.7195L25.5009 16.3316L25.8888 15.8467L26.2767 15.2648V14.9738L26.0828 14.6829L25.1129 14.004L24.919 13.81L25.0159 13.713L25.2099 13.616L26.2767 13.519L26.9556 13.3251L27.9255 12.0643L32.6777 11.4824L36.3631 12.0643L38.1088 11.8703L42.6671 10.6095L47.9043 10.4155L48.3892 10.2216L49.359 9.73666H49.844L50.4259 9.83363L52.9475 11.0944H53.4324H54.0143L55.0811 10.9974L55.954 10.7065L56.4389 10.2216L57.4087 8.37887L57.6027 8.1849L58.1846 8.08791L62.9369 8.1849L63.4218 8.28189L64.7796 9.05776L65.0705 9.34871L65.4585 9.73666L65.6524 9.83363L66.8162 9.63967L67.5921 9.34871L68.562 8.76681L68.8529 8.66982H69.1439L73.2172 9.34871L73.7021 9.25174L73.9931 9.05776L74.284 8.57283L74.672 7.40902L75.3509 6.05125L75.7388 5.6633L76.4177 5.17838L77.6785 4.69346L78.1634 4.40252L78.5514 4.01457L78.8423 3.52965L79.1332 2.94775L79.2302 2.26885L79.5212 2.07488L79.9091 1.97791L83.3036 2.46283L83.5945 2.5598L83.8855 2.75377L83.9825 3.04472L83.7885 3.62664L83.8855 4.01457L84.1765 4.49949L85.0493 5.37236L85.3403 5.85728L85.4372 6.14822L85.2433 6.9241L85.3403 7.21506L85.5342 8.08791V8.37887V9.05776V9.34871L85.6312 9.73666L86.5041 11.6763L86.989 12.3552L87.28 12.7432L88.8317 13.907L88.9287 14.1979V14.4889L86.4071 17.7864L86.1161 18.2713L85.9222 18.8532V19.2411L86.2131 19.4351L87.183 20.211L87.4739 20.5989L87.5709 20.9868L87.6679 21.5688L87.7649 21.8597L88.4438 22.9265L88.5407 23.2175V23.4115L88.3468 23.9934L87.7649 24.5753L87.6679 24.7692L87.5709 25.0602L87.7649 25.5451L88.3468 25.9331L88.8317 26.127L89.9955 26.418L92.0322 26.224L95.8146 26.9029L101.537 26.5149L102.603 26.6119H102.894L103.185 26.5149L103.282 26.127V25.3511L103.476 24.6723L103.864 24.3813L104.543 24.1873L106.774 23.8964L107.744 23.9934L108.229 23.7994L108.714 23.5084L110.459 21.8597L110.847 21.3748L111.429 21.0838L112.69 21.1808V21.1808Z" fill="#FFE300" stroke="white" stroke-width="2" stroke-linecap="round" stroke-linejoin="round"/>
</svg>
