<svg width="139" height="78" viewBox="0 0 139 78" fill="none" xmlns="http://www.w3.org/2000/svg">
<path d="M78.1074 13.1887L79.3682 11.734L80.3381 12.1219L82.8597 11.443L83.9265 12.0249L85.2843 13.3827L85.6722 13.9646L86.6421 16.2922L87.3209 17.3591L88.0968 18.0379L88.9697 18.3289L90.1335 18.4259L91.0063 17.941L90.2305 15.1284L90.7154 13.9646L91.2973 13.8676L91.6852 14.2556L91.9762 14.8375L92.1702 15.1284L92.7521 15.2254L94.5948 15.1284L95.6616 14.8375L95.4676 13.9646L94.5948 13.0918L93.6249 12.4129L91.6852 11.8309L90.6184 11.249L90.5214 10.3762L91.5883 9.50333L92.8491 9.79427L94.7887 11.249L95.5646 11.637L96.4375 11.734L97.0194 11.249L97.3103 9.89126L97.1164 9.40634L96.0495 8.24254L95.8556 7.66063L96.1465 6.88474L96.8254 6.78778L97.4073 7.36966L97.6983 8.14555L97.8923 9.50333L98.3772 10.4732L99.153 10.3762L99.9289 9.01841L100.026 8.14555L99.638 6.98173L99.9289 6.30285L100.511 5.81793L100.996 5.72094L101.578 5.91489L102.16 6.30285L101.772 7.95157L102.063 9.60032L102.838 10.7641L103.808 11.249L105.166 11.0551L105.942 10.3762L106.524 9.40634L107.3 8.43649L108.367 7.95157H109.53L111.567 8.43649L112.246 9.30935L112.634 9.60032L112.828 9.50333L113.022 9.21239L113.313 9.01841L113.992 9.1154L115.058 9.50333L117.386 9.69731L117.968 9.60032L118.259 9.21239L118.938 8.14555L119.229 7.85458H121.072L121.653 8.04856L122.817 8.82443L123.496 9.01841L124.078 8.92142L124.66 8.82443L125.048 8.53348L125.339 7.85458V6.78778L125.048 6.39981L124.466 6.30285L123.981 6.01188L123.884 4.94505L125.048 4.7511L127.182 5.13903L127.666 5.52696L128.151 6.01188L128.636 6.39981L129.315 6.30285L129.897 5.81793L130.576 4.46013L131.255 3.9752L133.292 4.7511L134.843 6.20586L135.91 8.24254L136.686 10.6672L137.85 16.0013L138.432 16.7772L137.171 18.5229L133.873 21.2385L133.001 21.7234L132.225 21.4324L130.77 19.9776L129.703 19.6867L127.763 20.7535L124.563 24.7299L122.526 25.7967L120.781 25.6997L115.058 23.5661L113.895 22.7902L113.313 22.6932L112.731 22.8872V23.4691L112.828 24.148V24.6329V25.0208L113.022 25.4088L113.119 25.8937L112.828 26.0877L112.149 25.8937L111.567 25.9907L111.179 25.7967L110.791 25.6997L110.306 26.1847L108.27 26.5726L106.427 25.4088L104.681 23.954L102.935 23.1781L102.354 23.3721L102.16 23.857L101.966 24.4389L101.481 24.9238H101.093L100.22 24.5359H99.9289L99.347 25.4088L99.444 26.0877L99.7349 27.0575L100.026 28.6093V30.161L99.8319 31.2278L99.25 31.7128L98.1832 31.8098L97.1164 31.4218L96.5345 30.549L95.9526 29.4821L95.1767 28.7062L94.1098 28.3183L93.8189 28.9972L93.528 29.9671L91.7822 31.1308L91.2003 32.1007L90.8124 33.3615V34.0404L89.1637 34.8163L82.3747 36.368L81.5019 36.562L78.9803 36.659L78.1074 36.9499L76.2647 37.8228L75.3919 38.1137L74.422 38.0168L73.9371 37.8228L73.5491 40.4414L73.6461 42.2841L73.0642 44.8057L72.1914 47.3273L71.3185 49.073L70.7366 49.8489L69.2818 51.0127L68.6029 51.8855L67.4391 54.6011L66.9542 55.4739L64.4326 56.6378H59.1954L55.801 57.7046L53.2794 57.4136L52.3096 57.6076L50.7578 58.2865L47.8483 58.6745L44.3568 60.1292L17.9771 63.0388L15.7464 64.5905L10.5093 73.3191L8.27862 75.4528L4.88416 76.9075L0.131933 77.7804V76.8105V76.4226L0.325899 74.5799L0.422889 74.2889L2.94448 68.6638L3.13844 67.9849V67.3061L3.04147 66.7242L2.94448 66.5302L2.45955 65.4634L2.26559 64.6875V62.9418L2.1686 62.3599L1.97463 61.8749L1.10178 60.9051L0.907811 60.4202L0.422889 59.0624L0.325899 58.4805V57.2197L0.0349426 55.6679L0.131933 55.086L0.228909 54.4071L0.422889 53.8252L2.8475 49.17L3.13844 48.588L3.33242 47.1333V46.8423L3.62336 46.4544L4.01131 45.9695L4.88416 45.3876L5.46608 45.0966L6.43592 44.8057L6.82385 44.5147L9.63641 41.2173L10.2183 40.8293L10.7032 40.5383L11.2851 40.4414L11.4791 40.2474L11.5761 39.8594L11.4791 39.5685L11.1882 38.7926L11.0912 38.2107V37.1439L11.2851 36.562L11.4791 36.174L11.867 35.7861L12.6429 35.2042L13.4188 34.8163L14.0007 34.5253L14.4856 34.2344L19.6258 27.4455L23.7961 24.245L25.7358 23.3721L27.9665 22.5962L30.3911 22.3053L31.4579 22.4022L32.1368 22.5962L33.2036 22.9842L33.7855 23.2751L34.1735 23.5661H34.8524L35.1433 23.4691L35.3373 23.1781L35.6282 22.6932L35.8222 22.1113L36.2101 19.9776L36.5011 12.8008L36.4041 11.9279L34.9493 7.95157L34.3674 5.72094L34.2705 4.7511V4.36316L34.3674 3.9752L34.6584 3.29633L34.9493 2.9084L35.4343 2.32649L36.1132 1.64758L38.1498 0.0958252L38.8287 0.580747L39.9925 0.968709L42.3202 1.16266L42.8051 1.64758L43.193 3.58727L43.7749 3.9752L44.3568 3.78125L44.6478 3.19934L44.7448 2.42348L45.1327 1.74457L46.5875 0.774728L47.3634 1.45363L48.0422 2.71442L49.0121 3.49028L50.0789 4.94505L50.2729 5.42997V6.10887V6.39981L52.8915 7.36966L53.7643 7.46665L54.6372 7.36966L55.51 6.69079L56.1889 5.13903L56.8678 4.55712L58.2256 5.13903H58.7105L59.0015 4.65411L59.1954 3.39332L59.3894 2.9084L60.2623 2.52044L60.7472 3.00536L60.9412 4.16918V5.13903L60.4563 7.75762V8.72746L61.0382 9.89126L61.911 10.6672L62.9779 11.249L63.9477 11.1521L64.6266 10.0852L63.7537 8.82443L63.3658 7.95157L63.1718 7.07872V5.91489L63.2688 5.52696L64.8205 5.72094L65.4994 6.69079L65.4025 9.01841L65.6934 11.346L67.3422 12.4129L70.4457 11.734L71.4155 11.8309L72.0944 12.1219L73.4522 12.8978L75.1979 13.5767L76.6526 13.6736L78.1074 13.1887Z" fill="#FFE300"/>
</svg>
