<svg width="161" height="175" viewBox="0 0 161 175" fill="none" xmlns="http://www.w3.org/2000/svg">
<path d="M155.989 2.13366L155.795 2.61858L155.407 4.07335L155.213 5.43113L155.116 6.01303L154.437 7.07986L154.146 7.66177L154.049 8.34066L153.952 9.9894L153.758 10.5713L153.273 11.4442L151.818 12.8989L151.528 13.9658L151.818 18.1361L152.012 18.912L152.206 19.1059L154.534 19.8818L154.825 20.0758L156.086 21.3366L157.056 22.6944L157.638 23.3732L157.832 23.5672L158.122 24.3431L158.316 24.5371L158.607 24.634L160.256 24.828L160.547 24.925L160.644 25.119V25.5069L160.547 25.9918L160.45 26.4767L160.062 27.4466L159.771 27.8345L159.48 28.0285L158.316 28.3195L157.056 28.5134L156.377 28.4164L156.086 28.3195L155.892 28.2225L155.601 27.6406L155.31 27.2526H155.116L154.825 27.3496L154.631 27.6406L154.534 28.2225V31.035V31.423L154.437 31.9079L154.146 32.3928L153.467 33.1687V33.3626L153.758 33.5566L154.631 35.0114L154.728 35.9812L154.146 36.9511L151.14 38.0179L149.879 38.2119L149.103 38.5028L147.163 40.1516L146.581 40.5395L144.157 40.3455L143.09 40.6365L143.478 41.7033V42.3822L142.12 42.7701L141.538 43.9339L141.053 45.2917L139.986 45.9706L139.307 46.6495L138.338 48.2982L137.853 50.3349L138.144 52.1776L138.435 52.8565L139.017 54.7962L139.405 55.4751L139.792 56.057L142.702 58.9665V59.9364L141.829 61.1002L141.732 62.07L141.926 62.8459L142.12 63.1369L142.411 63.3308L142.702 63.4278L142.896 63.7188L142.993 64.1067L143.187 67.5981L143.381 67.9861L143.672 68.1801L144.06 68.568L144.254 68.8589V69.0529L144.157 69.3439L143.866 69.5378L142.993 69.8288L142.702 70.1197L142.605 70.6047L142.702 71.6715L142.799 72.2534L143.09 72.6413L144.157 73.6112L144.351 73.8051L144.545 74.2901L144.351 74.678L143.575 75.7448L143.381 75.8418L142.896 75.6479L141.247 74.775H141.053V74.969L141.538 76.7147V77.1026V77.4906L141.247 77.9755L140.956 78.1694L140.471 78.4604L140.374 78.8483L140.277 79.5272L140.568 80.885L140.762 81.4669L141.053 81.8549L141.441 82.2428V82.6307L141.053 83.2126L140.956 83.6006V84.0855L141.053 84.7644V85.7342L140.859 86.2192L140.665 86.5101L140.471 86.7041L139.889 86.995L138.823 87.189H138.144L137.465 86.995L137.271 86.8011L136.98 86.3161L136.592 85.2493L136.398 84.9584L136.204 84.7644L135.622 84.5704L135.331 84.6674L134.943 85.1523L134.555 85.9282V86.2192V86.7041L134.846 87.189L135.331 88.1588L135.525 88.7407L135.719 89.1287L135.913 89.3227H136.204H136.883L137.077 89.4196L137.271 89.6136L137.465 89.8076V90.1955V90.5835L137.271 91.3593L137.174 91.8442V92.3292L137.368 92.8141L137.562 93.105L138.241 93.687L138.435 93.9779V94.1719L138.144 94.8508L137.95 95.1417V95.6266L138.241 96.6935L138.338 96.9844L138.241 97.2754L138.047 97.6633L137.756 97.8573L136.301 98.6332L136.107 99.0211V99.506L136.204 100.476L136.107 101.058L136.01 101.64L135.525 102.125L132.713 103.094L132.519 103.385L132.422 103.87V105.034L132.713 105.81L132.81 106.295L132.907 106.683L132.713 107.265L132.616 107.556L131.355 109.786L131.258 110.271L131.549 110.562L133.585 111.144L135.622 112.114L136.301 112.211L137.368 111.92H137.659L137.853 112.114L137.95 112.308L138.047 112.599L137.95 112.987L137.659 113.375L136.883 113.86L136.786 114.151L136.883 114.442L137.368 114.927L137.853 115.314L139.017 115.896L141.829 116.478H142.12L142.314 116.284L142.508 116.09L143.575 113.666L143.769 113.472H144.06L144.739 113.666L145.321 113.957L145.515 114.151L145.611 114.539L145.127 115.508L144.351 117.06L143.769 117.642L142.896 118.612L142.799 118.806V119.485L142.993 119.873L143.187 120.164L144.254 121.134L144.448 121.424L144.545 121.909L144.351 122.782V124.722V125.692L144.254 126.177L144.157 126.759L143.672 127.535L143.284 127.728L142.993 127.922L142.799 128.019L142.605 128.31L142.411 128.795L141.15 133.645L141.053 134.517V136.069V136.942L141.247 137.621L141.344 138.009L141.926 138.591L142.605 139.173L142.993 139.367L143.284 139.561L143.478 139.949V140.53L143.284 141.112L142.896 141.694L142.411 142.082L142.023 142.373L141.732 142.761L141.538 143.343L141.344 144.216V145.574L141.247 145.865L141.15 146.253L140.762 146.64L140.18 146.931L139.986 147.222L139.889 147.513L139.986 148.095L140.18 149.065V149.453L140.083 150.52L139.598 152.46L137.756 157.794L135.719 161.77L134.943 162.74L133.682 163.322L133.003 163.71L132.713 164.098L132.422 164.486L132.131 165.455L131.84 165.746L131.549 165.94L130.676 166.231L129.415 167.007L129.124 167.395L128.833 167.783L128.542 168.656L128.251 169.432L127.96 169.723L127.669 169.917L127.184 170.111L125.245 170.305L124.372 170.499L119.814 173.02H117.874L117.583 172.923L117.389 172.438L117.098 172.244H116.613L114.479 172.632L109.048 172.438L107.788 172.05L107.594 171.759L107.303 171.274L107.109 170.79L106.915 169.917L106.721 169.335L106.43 168.947L106.139 168.85H105.751H104.975L104.587 168.947L102.938 170.111L102.647 170.208L102.453 170.111L102.066 169.626L101.581 169.044L101.387 168.85L100.999 168.753L99.6409 168.85L96.2464 170.402L95.8585 170.79L95.4706 171.178L94.4037 173.02L93.8218 173.699L93.2399 174.087L92.755 174.281H92.464L92.1731 174.184L91.7851 173.796L91.4942 173.699H88.2937L84.9962 171.759L84.7053 171.371L84.4143 170.887L84.7053 170.499L85.4811 169.723L85.5782 169.432V169.044L85.4811 168.85L85.1902 168.656L84.6083 168.559L83.9294 168.656H83.5415L83.0565 168.559L82.2807 168.171L81.8928 167.88L81.6018 167.589L81.4078 167.104L81.3108 166.522V165.746L81.2139 165.164L81.0199 164.874L80.8259 164.68L79.5651 163.613L79.3711 163.128V162.74L79.4681 162.449L79.7591 161.964L80.341 161.091L80.535 160.994L80.8259 160.897L81.9897 161.091L82.2807 160.897L82.4746 160.703L82.5716 160.121L82.6686 158.957L82.5716 157.794L82.2807 157.309L81.9897 157.018H79.7591L79.0802 156.921L78.7892 156.824L78.3043 156.436L77.8194 155.854L75.8797 153.235L75.2008 152.75L73.6491 151.199L73.0671 150.811L72.5822 150.617L71.4184 150.714L70.3516 151.102L69.8667 151.393L69.7697 151.684L69.6727 152.557L69.5757 152.847L69.2848 153.235L69.1878 153.526V153.817V154.399V154.593L68.9938 154.787L68.5089 154.981L68.3149 155.175L67.636 156.145L67.2481 156.63L67.0541 156.727H66.6662L64.5325 156.533L63.9506 156.63L63.4657 156.921L63.0778 157.309L62.7868 157.794L62.5928 157.988L62.3019 158.085L61.72 158.182L61.429 158.279L61.0411 158.57L60.4592 159.248L60.2652 159.442L60.0713 159.636H59.7803L59.0044 159.539L58.7135 159.636L58.5195 159.733L58.0346 160.121L57.5496 160.315H57.2587L53.9612 159.539L53.4763 159.636L53.0884 159.927L52.5064 160.606L51.9246 161.091L47.7542 160.024L46.6874 159.927H45.9115L45.6206 160.121L45.3296 160.218L44.7477 160.412L44.3598 160.218L44.0688 160.121L43.5839 159.733L43.099 159.539H42.5171L42.1291 159.442L41.8382 159.345L41.6442 159.151L41.3533 158.667L41.1593 158.182L41.2563 157.018L41.1593 156.63L40.9653 156.242L40.6744 156.048L40.2864 155.951L39.2196 156.048L38.9286 155.854L38.6377 155.66L37.0859 154.108L36.795 153.623L36.698 153.332L36.795 153.041L36.892 152.363L37.0859 152.072L37.2799 151.975L37.8618 152.072L38.0558 151.975L38.2497 151.781L38.6377 151.296L38.8317 150.714L38.9286 150.326V149.647L38.8317 148.774L38.5407 147.61L38.3467 147.125L38.1528 146.64L37.7648 146.156L37.0859 145.38L35.8251 144.313L35.6312 144.022V143.246V142.858L35.4372 142.664L35.0493 142.567L34.2734 142.47L33.4975 142.373L33.2066 142.179L33.0126 141.888V141.597L33.2066 140.918L33.3035 140.627L33.2066 140.336L32.8186 139.852L32.3337 139.173L32.1397 138.688L31.9458 138.397L31.5578 138.3H31.2669L30.782 138.591L30.2001 139.076L29.9091 139.173L29.3272 139.367H28.7453L25.8358 139.173H25.1569L24.5749 139.367L23.7991 140.142L23.4111 140.239L22.7322 140.142L20.2106 139.464L19.9197 139.561L19.7257 139.658L19.3378 140.53L19.0468 140.724L18.7559 140.918L18.271 141.015L17.98 140.918L17.786 140.724L17.3981 140.239L17.1072 139.852L16.5252 139.27L16.0403 139.076L15.6524 138.979L14.1006 139.464H13.5187L13.2278 139.27L13.0338 139.076V138.688L13.2278 138.203L14.0036 136.845L14.4886 135.681L14.8765 134.711L14.9735 134.032L15.2645 132.19V131.996L15.0705 131.608L14.5856 131.123L12.8398 129.765L12.3549 129.474L9.44539 128.407L8.96047 128.116L8.57251 127.825L8.47555 127.535L8.37856 126.953V126.274L8.47555 125.886L8.76649 124.431L9.05743 122.976V122.297L8.96047 121.618L8.76649 120.746L8.57251 120.261L8.28157 119.873L6.92379 118.612L6.43887 118.321L5.95395 118.224H5.66298H5.17806L4.49918 118.03L3.91727 117.545L3.23837 117.157H2.94743L2.75345 117.351L2.26852 117.739L1.97758 117.933H1.39567L1.10473 117.739L1.00774 117.545L0.910748 117.157L0.716797 114.636L0.813758 109.398L0.910748 108.623L1.88059 103.87L1.97758 103.191L1.88059 102.513L1.7836 101.931L1.10473 100.282L1.00774 99.797L1.10473 99.409L1.29868 99.2151L1.58965 99.1181L2.65649 99.2151H2.94743L3.14141 99.0211L3.23837 98.8271L3.33536 98.5362L3.23837 97.8573V97.7603L3.33536 95.7236L3.43235 95.5297L4.40219 93.8809L4.49918 92.6201L6.1479 91.4563L7.69966 89.8076L7.40872 87.383L8.08759 87.092L7.99063 86.7041L7.60267 86.2192L7.40872 85.7342L6.8268 83.3096L6.63282 82.7277L5.95395 82.2428L5.37204 82.1458L4.98411 81.9518L4.79012 80.982L4.88711 79.8182L5.27505 79.2363L5.85696 79.0423L6.63282 79.2363V78.5574L6.05094 78.3634L5.46903 77.9755L4.98411 77.2966L4.79012 76.2298L5.0811 75.5509L4.88711 74.872L4.3052 74.2901L3.62633 73.8051L4.11125 73.4172L4.40219 73.0293L4.79012 72.0594L3.91727 71.6715L2.07457 71.0896L1.49266 70.3137V69.7318L2.17156 69.2469L2.55949 69.1499V68.568L2.07457 68.277L1.10473 67.4042V66.7253L2.65649 65.3675L3.33536 65.0765L3.14141 64.2037L2.94743 63.8158L3.23837 63.6218L3.62633 62.9429L4.01426 62.6519L3.72329 61.3911L4.3052 59.5484L4.01426 58.3846L4.69313 58.1907H6.34188L6.92379 57.8997L7.31173 57.0268V55.96L7.50571 54.9902L8.08759 54.3113V53.7294L7.69966 53.6324L6.63282 53.0505L7.21473 52.3716L8.47555 51.5957L9.44539 50.5289L9.3484 49.1711L8.96047 48.3952V48.0073L9.15442 47.8133L9.54235 47.1344L10.7062 45.5827L10.8032 45.2917L11.1911 45.0978L11.3851 44.5159L11.773 43.9339L12.8398 43.352L13.0338 42.5762V41.8003L13.2278 41.2184L13.7127 41.1214L15.2645 41.2184L15.7494 41.0244L16.2343 40.4425L16.9132 39.4727V38.8908L16.6222 38.5028L16.5252 37.9209V37.63L18.077 37.048L18.8529 36.5631L19.4348 35.9812L20.1137 35.3993L20.5986 34.6234V33.8476L20.6956 33.3626L21.0835 32.7807L21.5684 32.4898L21.8594 32.2958L22.1503 32.4898L22.5383 32.9747L23.9931 32.8777L24.381 31.7139L23.8961 30.5501L22.3443 30.3561L22.5383 29.9682L22.8292 29.0953L23.0232 28.6104L22.7322 27.1556L23.6051 26.2828L24.9629 25.7979L32.2367 25.4099L34.3704 25.6039L35.6312 26.3798L38.1528 28.5134L39.4136 28.9983L40.6744 28.4164L41.5472 26.9617L42.3231 25.216L43.4869 23.8582L47.6572 22.0155H52.6035L62.011 23.8582L68.121 23.5672L71.4184 23.2763L73.1642 23.5672L74.4249 24.828L74.7159 26.1858L74.8129 27.8345L75.0068 29.1923L75.9767 29.7742L76.8496 29.5802L79.7591 28.1255L81.6988 27.9315L84.8993 28.8044H85.9661L93.3369 25.3129L95.6645 23.3732L97.3132 19.9788L97.8952 14.7416L98.3801 13.1899L98.962 12.608L99.6409 12.22L100.223 11.7351L100.514 10.6683L100.32 9.9894L99.2529 8.14669L99.059 7.17685L99.7379 4.17033L101.968 3.68541L106.624 5.43113L109.145 4.65525L119.717 10.2803H121.365L124.566 9.40749H126.118L126.991 9.79543L128.639 11.1532L129.609 11.2502L130.579 10.7653L136.107 5.72208L137.077 5.23716L137.562 5.33414L138.241 5.72208L138.726 5.52811L139.211 5.14017L139.792 3.87938L140.374 3.58842L141.344 3.20049L142.023 2.5216L143.478 0.775875L144.351 0.193969L145.03 0L150.267 1.06683L153.758 0.969844L154.728 1.16381L155.989 2.13366Z" fill="#FFE300"/>
</svg>
