<svg width="176" height="149" viewBox="0 0 176 149" fill="none" xmlns="http://www.w3.org/2000/svg">
<path d="M133.511 1.10663L134.093 1.2036H134.578H134.869L135.16 1.49456L135.451 2.07647L135.742 2.94933L136.518 3.91917L136.712 4.11314L136.906 4.40409L137.003 4.79204L137.197 5.37394L137.39 5.85886L137.778 6.24681L138.069 6.44077L139.233 6.63474L139.815 6.92569L140.106 7.11966L141.076 8.57443L141.367 8.76839H141.658L142.143 8.47744L142.628 8.18649L142.919 7.79855L143.404 7.50759H143.694L143.888 7.60458L144.276 7.99251L144.373 8.28347L144.47 8.67142L144.567 9.64126L144.373 10.1262L144.179 10.4171L142.337 10.999L142.143 11.193L142.24 11.6779L143.307 15.4603L143.501 15.8483L143.888 16.1392L144.276 16.3332L145.537 16.9151H145.828H146.119L146.895 16.6241H147.186L147.477 16.7211L149.901 21.5703L150.289 22.1522L150.483 22.3462L151.744 23.1221L151.938 23.413L152.132 23.801L152.229 24.5769L152.132 25.0618V25.5467L151.647 27.2924V28.0683L151.744 29.5231L151.647 30.008L151.453 30.2989L151.065 30.4929H150.871L150.386 30.2989L150.095 30.202L149.805 30.2989L149.611 30.4929L149.417 30.6869L149.32 30.9778L149.514 31.6567L149.805 32.4326L151.744 35.924L152.714 37.1848L153.199 37.4758H153.393H153.684L154.169 37.1848L154.46 37.0878H154.654L154.945 37.1848L155.139 37.3788L155.915 38.1547L156.302 38.7366L156.496 39.1245L156.787 39.4155L157.272 39.3185L157.757 39.1245L157.951 39.0275L158.242 39.1245L159.988 40.5793L160.182 40.8702L160.279 41.3552L160.376 42.228V42.7129L160.279 44.9436L160.473 45.6225L160.861 45.9134L161.152 46.2044L166.971 48.435L167.262 48.823L167.456 49.3079L167.553 51.7325L167.65 52.1204L167.941 52.7023L168.135 53.0903L168.425 53.2842L169.783 54.3511L170.171 54.933L170.559 56.3877V56.7757V57.3576L170.462 58.2304L170.268 58.7154L170.074 59.1033L169.977 59.2973L168.813 59.9762L168.329 60.3641L168.232 60.5581L166.098 64.1465V64.5344L166.195 65.0194L166.68 65.9892L167.262 66.7651L167.553 67.153L169.686 69.9656L169.977 70.4505L172.208 76.3665L172.305 77.0454V78.4032L172.111 82.2826L171.529 84.6102L171.432 84.9012L170.171 88.3926V88.6836V88.9745L170.559 89.3624L171.141 89.8474L171.529 90.3323L171.82 90.7202L172.208 91.787L172.596 93.7267L172.693 94.5996V96.8302V97.4122L172.79 97.7031L174.051 101.292L174.245 101.485L174.439 101.679L175.408 101.97L175.602 102.067L175.699 102.261V102.94L175.505 103.328L175.117 103.716L172.693 105.753L172.305 106.141L172.111 106.529L171.82 106.82L171.432 106.917H170.559L169.783 106.626L169.104 106.044L167.747 105.074L167.165 104.88L166.777 104.783L166.486 104.88L166.098 105.268L165.904 105.559L165.613 106.238L165.322 106.723L164.837 107.402L163.867 108.177L163.576 108.371H163.091H162.412L162.025 108.274L161.734 108.08L161.055 107.596L160.57 107.305L160.279 107.208L159.988 107.305L159.6 107.693L159.406 108.371L159.503 108.662L159.406 109.341L159.212 109.535L158.824 109.729H158.048L157.66 109.632L157.466 109.438L157.369 108.856L157.272 107.305L157.078 106.529L156.69 105.85L154.654 103.037L154.266 102.261L154.169 102.067V101.776L154.266 99.7398L154.169 99.4488L154.072 99.1579L153.878 99.0609L153.587 99.1579L153.102 99.5458L152.423 100.225L152.132 100.322L151.744 100.419H151.065L150.192 100.225L149.611 100.031L149.417 99.8368L149.223 99.6428L149.126 99.0609L149.029 98.7699L148.835 98.576L148.35 98.285L148.253 98.091L148.156 97.8001L148.253 97.2182V96.9272L148.156 96.6363L147.865 96.5393L147.574 96.4423L147.38 96.5393L146.604 97.2182L146.022 97.4122L145.343 98.091L145.149 98.382L145.052 98.576L145.246 99.4488V99.7398L145.052 99.8368L144.761 99.9338L143.985 99.7398L143.404 99.5458L143.113 99.4488L142.725 99.5458L142.337 99.9338L142.143 100.128L141.27 101.776L140.785 102.552L140.106 103.813L139.718 104.201L137.778 105.462L137.487 105.753L137.197 106.141L137.003 106.723L136.906 107.014L137.003 107.208L137.487 107.789L137.681 108.08L137.584 108.371L137.487 109.05L137.1 110.408L137.003 110.699L136.712 110.99L136.324 111.184H135.354L134.966 111.087L134.675 110.893L134.481 110.408H134.093L132.541 110.699L132.25 110.602L132.056 110.408L131.959 110.02L131.474 109.729H131.183L130.893 109.826L129.923 110.796L129.632 110.99L127.304 111.766L126.528 112.251L126.14 112.639L125.849 113.221L125.461 113.706L124.782 114.287L124.492 114.772L124.201 115.063L123.716 115.257L123.037 115.16L122.746 114.772L122.552 114.384L122.261 113.027L121.97 112.154L121.776 111.766L121.291 111.184L119.642 110.02L115.375 108.468L114.987 108.371H113.144L112.853 108.468L112.466 108.759L112.078 109.341L111.884 109.923L111.593 110.311L111.108 110.602L107.907 110.505L106.258 109.923L105.774 109.826L105.289 110.02L104.804 110.602L104.61 111.087L104.513 111.669V112.736L104.707 114.287V115.839L104.61 116.324L104.416 117.294L104.222 117.682L103.834 118.07L102.476 119.234L101.894 119.816L101.797 120.203L101.603 120.688V121.173L101.312 122.046L100.924 123.307L100.536 123.695L99.8575 124.18L98.1118 124.665L97.045 125.15L95.7842 125.538H95.1053L94.7174 125.635L94.2324 126.217L93.9415 126.314L93.7475 126.217L93.5535 126.023L93.1656 125.247L92.8747 124.956L92.6807 124.762L91.9048 124.471L91.2259 124.374L90.2561 124.471H89.9651L88.8013 123.986L88.1224 123.889L86.1827 123.986L85.7948 124.18L83.1762 125.732L82.3033 126.023H80.1697H79.6848H79.0059L78.8119 125.829L78.23 125.344L77.1632 124.762L75.6114 124.277L74.2536 124.18L73.3808 123.792L72.7989 123.695L70.0833 123.889L69.5014 123.695H69.0165L67.0768 124.18L66.3979 124.277L66.01 124.18L65.816 123.986L65.525 123.501L65.3311 123.404L64.8461 123.307L64.1673 123.404H63.7793L63.3914 123.21L62.9064 123.016L62.5185 122.919L61.7426 123.016L61.0637 122.822H60.6758L60.0939 123.016L58.3482 123.986L56.6994 125.538L55.4387 126.507L54.9537 127.089L54.8567 127.477L55.1477 127.962V128.253L55.2447 128.738V128.932L54.6628 131.26L54.5658 131.551L54.1778 132.036L52.1412 133.781L51.6563 134.46L51.4623 134.848L51.8502 135.236L52.9171 135.721L53.208 135.915L53.305 136.109L53.402 136.303V137.952V138.631L53.208 139.212L52.9171 139.503L52.3351 139.794L48.4558 140.182H48.1648L47.7769 139.794L47.6799 139.6L47.3889 139.115L47.195 138.921L46.904 138.824L45.9342 138.631L44.6734 138.728L44.3824 138.824L44.0915 139.115L43.7035 139.6L43.5096 139.988L43.4126 140.473L43.3156 141.443L43.1216 142.025L36.1388 145.71L35.6538 146.389H35.4599H35.0719L34.296 146.195L33.9081 146.001L33.6172 145.807L33.3262 145.322L33.1322 145.128L32.8413 145.032L32.3563 145.128L31.7745 145.419L30.2227 146.583L28.8649 148.038L28.186 148.329L26.5373 148.135L25.6644 147.359L25.1795 146.874L24.6946 146.68H24.1127L23.5308 146.874L21.0092 147.941L20.5243 148.038H20.3303L20.1363 147.844L20.0393 147.553L20.1363 146.971L20.2333 146.68L20.3303 146.486L21.3001 145.613L21.4941 145.419L21.7851 144.935L21.979 144.547L22.076 144.062L22.173 143.771H22.5609L22.7549 143.674L23.0459 143.286L23.3368 142.898L23.5308 142.51V141.831V141.443L23.2398 140.376L22.464 138.728L21.4941 137.467L20.9122 136.594L20.4273 135.624L20.3303 135.236L20.2333 134.557V132.23L20.1363 131.939L20.0393 131.648L19.6514 131.454L17.3238 130.484L15.5781 129.223L15.1901 128.835L14.8022 128.447L14.7052 128.059V127.671L14.8022 126.895L14.8992 126.507L15.1901 126.217L16.063 125.732L16.257 125.538L16.3539 125.344L16.4509 125.053L16.16 124.762L15.966 124.568L15.675 124.471L15.2871 124.18L14.9961 123.889L14.5112 123.21L14.1233 123.016L13.8323 122.919L12.3776 123.016L10.4379 122.725L10.1469 122.628L9.95297 121.949L8.98313 116.906L8.69216 116.227L8.49821 116.033L7.1404 115.742L6.75247 115.354L6.46153 114.675L6.36454 113.996V113.609L6.55852 113.221L6.75247 113.027L7.33438 112.542L7.52836 112.251V111.863L7.33438 111.184L7.04344 110.505L6.65548 110.117L6.17056 109.826L5.87961 109.729H5.00676L4.81278 109.632L4.03692 108.953L2.97008 108.371L2.87309 108.177V107.886L3.16406 107.402L3.35801 107.014L3.74595 105.85L4.03692 105.559L4.32786 105.365H4.61883L4.81278 105.171L4.90977 104.783L4.81278 103.91L4.52184 103.328L4.13391 102.94L3.55199 102.746H1.90325L1.61231 102.649L1.12738 102.358L0.739452 101.873L0.545471 101.195V100.613L0.642462 100.128L0.836413 99.6428L1.41833 98.6729L1.90325 98.382L3.74595 97.2182L4.71579 96.8302L4.90977 96.5393L5.00676 96.1513L4.90977 94.7936V94.4056L5.2977 94.0177L5.49168 93.8237L6.55852 93.2418L6.65548 93.0479L6.75247 92.6599L6.55852 91.787L6.46153 91.3021L6.36454 90.9142V90.5263L6.55852 90.1383L6.94645 89.5564V89.1685L6.84946 88.7806L6.55852 88.2956L6.26755 88.0047L5.9766 87.8107L5.20071 87.3258L4.90977 87.2288V86.5499L6.17056 85.1921L8.20723 85.774L8.69216 86.2589L8.59517 86.5499L8.20723 86.7439L7.91629 86.9378L7.8193 87.2288L7.91629 87.8107L8.11024 88.1986L8.49821 88.6836L9.56501 89.4594L10.4379 89.8474L13.6384 89.4594L14.9961 89.5564L15.3841 89.3624L15.5781 89.0715L15.3841 88.1986L15.4811 87.9077V87.6167L15.772 87.2288L16.5479 86.4529L16.9358 86.065L17.4208 85.2891L17.5177 84.9012L17.8087 84.0283L18.0997 83.5434L18.7785 83.2524L19.9424 82.3796L20.4273 82.1856H22.27L22.7549 82.0886L23.1428 81.8947L23.7247 81.0218L24.1127 80.5369L24.5006 80.3429L24.8886 80.4399L25.2765 80.5369L26.8283 80.6338L27.1192 80.7308L27.7011 81.0218L27.8951 81.1188L28.38 81.2157L28.671 81.1188V80.8278L28.477 80.3429L28.186 79.664L27.9921 79.2761V79.0821L28.186 78.7911L28.574 78.4032L29.3499 78.0153L29.7378 77.5304L30.3197 76.8514L30.6106 76.7545H30.9016L32.0654 77.2394L32.2594 77.4334V77.6273L32.1624 77.9183L31.5805 78.8881L31.2895 79.3731L31.1926 79.761V80.052L31.2895 80.2459L31.4835 80.4399L31.7745 80.6338L41.1819 82.5735L41.5699 82.8645L41.6669 83.0584V83.7373V84.0283L41.9578 84.4163L42.4428 84.7072H42.9277L43.2186 84.5132L43.3156 84.2223L44.3824 79.761L44.6734 78.7911L44.7704 78.5002V77.5304V76.8514L44.9643 76.1726L45.1583 75.8816L45.3523 75.4937L45.9342 75.2027L46.3221 75.0088H46.7101L47.001 75.1057L47.4859 75.3967L48.0678 75.9786L48.5528 76.7545L48.9407 77.1424H49.3286L51.0744 76.5605L51.3653 76.3665L51.9472 75.7846H52.2382L52.4321 75.8816L53.9839 76.7545L54.2748 76.6575L54.4688 76.5605L54.7598 76.0756L55.4387 74.6208L55.6326 74.3298H55.9236L56.1175 74.4268L56.5055 74.8148L56.8934 74.9118L57.5723 75.0088L58.3482 74.7178H58.8331H59.1241L59.512 75.1057L60.5788 76.9484L60.7728 77.2394L61.0637 77.4334H61.3547H61.6457L62.6155 76.7545L64.3612 76.2695L64.5552 76.0756L65.1371 75.3967L65.428 75.1057L65.913 74.8148L66.2039 74.9118L67.0768 75.2997L67.6587 75.2027L67.9496 75.1057L68.5316 74.5238L69.0165 74.1359H69.4044L69.5984 74.2329L69.8893 74.7178L70.0833 75.0088L70.4712 75.2027L71.1501 75.3967L71.5381 75.0088L71.732 74.6208V74.3298V73.36V73.0691L71.926 72.3902L73.1868 70.0625L73.7687 69.3837L74.7386 68.6078L74.9325 68.4138L75.4175 67.6379L75.9993 67.056L77.3571 65.7952L77.6481 65.3103L77.939 65.0194L80.2667 63.4676L80.5576 62.9827L80.8486 62.5947L81.7214 60.3641L82.0124 59.9762L82.4973 59.4912L84.1461 58.3274L84.437 58.0365L84.534 57.4546L84.631 56.4847V55.9028L84.534 55.6119L84.34 55.4179L84.1461 55.2239L83.4672 55.03L83.2732 54.933L83.0792 54.739L82.9822 54.1571V53.1873L83.0792 52.8963L83.3702 52.5084L83.9521 51.9265L84.1461 51.6355L84.8249 49.7928L85.4068 48.726L85.5038 48.0471V47.7561L85.2129 46.9803V46.7863V46.4953L85.3099 46.2044L86.0857 44.9436L86.1827 44.6526L86.6676 41.6461V41.3552L86.5707 41.0642L86.4737 40.8702L85.9888 40.4823L85.8918 40.2883V39.6094L86.0857 39.2215L86.6676 37.9607L86.7646 37.3788L86.6676 37.1848L85.9888 36.6999L85.7948 36.5059L85.6978 36.215V36.021L85.8918 35.7301L86.5707 34.8572L87.0556 33.7904L87.4435 33.3055L87.8315 33.0145L88.1224 32.8205L89.9651 32.6266L94.1354 29.717L94.7174 29.5231L95.2993 29.4261H97.239L97.8208 29.3291L98.7907 29.0381L99.1786 28.9412L99.7605 29.0381L99.9545 29.1351L100.148 29.3291L100.245 30.202L100.342 30.4929L100.633 30.9778L101.215 31.5597L101.409 32.0447V32.7235L101.7 33.2085L102.088 33.6934L102.476 34.2753L102.767 34.4693L103.058 34.2753L103.155 33.9843L103.252 33.2085L103.446 32.8205L103.737 32.3356L104.028 32.2386H104.222L104.707 32.6266L104.998 32.8205L105.386 32.9175L106.065 32.8205L106.452 32.7235L106.743 32.5296L107.034 32.0447L107.131 31.7537L107.422 30.202L107.616 29.814L107.81 29.62H108.101L108.392 29.717L108.586 30.008L108.683 30.4929L108.586 32.2386L108.683 32.5296L108.78 32.7235L109.071 32.9175L114.114 33.8874L114.599 33.6934L114.793 33.3055L115.375 32.1416L115.957 31.1718L116.927 30.202L117.024 30.008L117.218 29.3291L117.121 28.4562L117.315 27.9713L118.672 26.1286L119.157 24.9648L119.448 24.3829L119.545 23.704V23.0251V22.3462L119.351 21.1824L119.448 20.9884L119.642 20.6005L119.836 20.4065L120.127 20.3095L122.164 19.6306L122.649 19.4367L122.94 19.1457L123.037 18.4668L122.843 17.9819L122.552 16.9151L122.261 15.7513V15.0724L122.164 14.4905L121.776 13.4236L121.679 13.1327L121.97 12.7448L122.358 12.2598L124.104 10.902L124.395 10.6111L124.686 10.0292L124.976 9.25331L125.17 8.76839L125.461 8.67142L125.946 8.96236H126.334L127.013 8.86538L127.692 8.57443L128.759 7.41062L129.147 6.92569L129.438 6.34378L129.535 6.05283V5.47093L129.341 4.98601L128.565 3.91917L128.371 3.53124V2.94933L128.468 2.27044L128.662 1.88251L128.953 1.39759L129.535 0.718683L129.729 0.427741L130.02 0.233761L130.505 0.0397949H130.796H131.474L131.862 0.233761L132.347 0.524717L132.832 0.815673L133.511 1.10663V1.10663Z" fill="#FFE300"/>
</svg>
