<svg width="138" height="176" viewBox="0 0 138 176" fill="none" xmlns="http://www.w3.org/2000/svg">
<path d="M116.647 24.3162L117.035 25.0921L117.326 25.48L117.617 25.577L117.81 25.48L118.295 25.189L118.489 25.0921L118.683 25.383V25.577L118.78 26.2559L118.586 29.4564L118.489 30.4262L118.392 31.1051L117.81 32.2689L117.132 33.1418L116.453 33.8207L114.804 35.0814L113.834 35.6633L113.252 35.7603L112.573 35.8573L112.282 35.9543V36.3422L113.252 40.0276L113.834 44.4889L114.125 45.6527L114.319 46.2347L114.513 46.6226L114.707 46.5256L114.804 46.3316L115.968 44.4889L116.065 44.295H116.356H116.647L117.229 44.4889L118.198 45.1678L119.847 46.7196L120.138 47.1075L120.332 47.3985L120.526 47.8834L120.623 48.4653L120.72 48.7562L121.011 48.9502L121.205 49.1442L122.563 49.5321L123.048 49.8231L123.242 50.017L123.63 50.405L123.921 50.9869L124.017 51.1809V51.5688V51.9567L123.727 52.5386L123.048 53.6055L122.757 54.1874L122.66 54.5753L122.563 55.5452V56.1271L122.757 58.0668V58.6487L122.563 59.2306H122.272L122.078 59.1336L121.399 58.5517L121.108 58.4547L120.817 58.3577H119.071L118.877 58.6487L118.78 59.1336L119.071 60.2974L119.362 60.7823L119.653 60.9763H119.944L120.235 61.0733L120.429 61.2672L123.436 66.0195L124.696 67.4742L124.793 67.6682L124.89 68.0562L124.987 68.6381L123.921 74.6511V74.942L124.017 75.33L124.308 75.524H124.502L126.539 75.33L127.218 75.427L127.8 75.6209L128.188 76.0089L128.382 76.2998L128.576 77.0757L128.77 78.3365L129.546 81.246V81.634L129.449 82.1189L129.158 82.8948L128.867 83.2827L128.576 83.5737L126.927 84.4465L126.539 84.9314L126.054 86.0953L124.599 88.4229L124.017 89.2957L123.533 90.4595L123.436 90.8475V91.1384L123.727 91.6234L124.114 92.1083L125.084 92.7872L125.181 93.0781L125.278 93.3691L124.987 94.3389L124.502 95.8907L124.211 96.3756L123.921 96.4726L123.339 96.5696L123.145 96.7635V97.1515L123.339 97.8304L123.63 98.1213L124.211 98.4123L124.502 98.8972L124.599 99.0912L124.502 99.7701L124.017 101.419L123.727 102.001L123.533 102.195L123.339 102.292H123.048L122.078 102.098H121.787L121.593 102.195L121.496 102.486V102.777L121.69 103.068L122.563 103.552L122.757 103.746V104.037L122.466 104.619L122.175 104.813L121.884 104.91L120.72 105.007L120.526 105.298L120.623 105.686L120.914 106.268L121.302 106.559H121.593L121.884 106.462L123.921 105.589H124.211L126.539 105.492L126.83 105.589L127.121 105.686L127.509 106.074L128.188 106.947L128.77 107.82L128.964 108.208L129.255 110.535L129.934 112.378L130.128 113.639L130.418 114.124L130.612 114.318H131.291L131.97 114.415L132.164 114.609L132.552 115.094L133.134 116.645L133.619 117.518L134.007 117.906L134.201 118.003L134.88 118.294L135.074 118.682V119.458L134.783 122.755L134.88 123.725L134.783 125.568L134.88 125.859L135.074 126.344L135.171 126.635L135.559 126.926L136.335 127.411L136.529 127.605L136.722 127.993V128.574V129.641L137.013 130.126L137.11 130.514V130.902L136.722 131.775L136.335 132.163L135.947 132.357L134.201 132.842L133.91 132.939L133.716 133.23L133.619 133.618V134.103L133.716 134.878L134.492 137.982L134.298 138.467L134.007 138.855L133.813 139.146V139.728L134.007 140.407L137.11 145.45L137.207 146.032L137.11 146.517L136.819 147.001L135.559 148.359L135.171 148.65L133.716 149.426L133.522 149.62L133.231 150.008L132.843 150.881L131.97 152.045L131.582 152.433L131.291 152.627L130.515 152.918L130.225 153.014L129.643 153.693L129.255 153.984L127.509 154.76L125.569 156.215L125.084 156.312L124.599 156.215L124.308 156.312L124.017 156.506L123.727 157.088L123.436 157.379L123.048 157.573L122.369 157.476H122.078L121.884 157.573L121.399 157.864L121.302 158.155L121.205 158.543L121.399 159.222L121.496 159.609L121.787 160.191L121.884 160.676L121.787 161.258L121.593 162.325L121.302 163.295L120.914 164.071L120.623 164.556L120.235 165.041V165.429L120.914 165.525H121.593L122.854 165.332H123.436L123.533 165.525L123.63 165.816V166.301V166.98L123.533 167.368L123.339 167.756L123.145 168.144L122.369 168.532L121.884 168.92L121.69 170.181L120.429 170.084L119.847 170.375L119.459 170.86L117.713 172.508L117.229 172.799L116.744 172.993L115.774 172.896L113.543 173.187L112.864 173.381L112.476 173.672L112.282 174.351V175.127L112.185 175.515L111.894 175.612H111.603L110.537 175.515L104.815 175.903L101.032 175.224L98.9955 175.418L97.8317 175.127L97.3468 174.933L96.7649 174.545L96.5709 174.06L96.6679 173.769L96.7649 173.575L97.3468 172.993L97.5407 172.411V172.217L97.4437 171.926L96.7649 170.86L96.6679 170.569L96.5709 169.987L96.4739 169.599L96.183 169.211L95.2131 168.435L94.9221 168.241V167.853L95.1161 167.271L95.4071 166.786L97.9287 163.489V163.198L97.8317 162.907L96.28 161.743L95.989 161.355L95.5041 160.676L94.6312 158.737L94.5342 158.349V158.058V157.379V157.088L94.3403 156.215L94.2433 155.924L94.4372 155.148L94.3403 154.857L94.0493 154.372L93.1764 153.499L92.8855 153.014L92.7885 152.627L92.9825 152.045L92.8855 151.754L92.5945 151.56L92.3036 151.463L88.9091 150.978L88.5212 151.075L88.2302 151.269L88.1332 151.948L87.8423 152.53L87.5514 153.014L87.1634 153.402L86.6785 153.693L85.4177 154.178L84.7388 154.663L84.3509 155.051L83.672 156.409L83.284 157.573L82.9931 158.058L82.7021 158.252L82.2172 158.349L78.1439 157.67H77.8529L77.5619 157.767L76.5921 158.349L75.8162 158.64L74.6524 158.834L74.4585 158.737L74.0705 158.349L73.7795 158.058L72.4218 157.282L71.9369 157.185L67.1846 157.088L66.6027 157.185L66.4087 157.379L65.4389 159.222L64.954 159.706L64.0811 159.997L63.0143 160.094H62.4324H61.9474L59.4259 158.834L58.844 158.737H58.359L57.3892 159.222L56.9043 159.415L51.6671 159.609L47.1088 160.87L45.3631 161.064L41.6777 160.482L36.9255 161.064L25.7723 157.864L25.4813 157.476L25.1903 156.991L25.0934 156.7L24.9964 156.118L24.8024 155.536L24.2205 154.663L22.7657 152.724L22.4748 152.239L22.3778 151.657L22.5718 150.784V150.493L22.3778 150.008L22.1838 149.814L21.8929 149.62L19.9532 148.844L19.5653 148.553L19.3713 148.165L19.5653 146.323L19.6622 146.032L19.7592 145.838L20.0502 145.741L21.02 145.644L21.311 145.547L21.5049 145.353V145.159L21.408 144.577L21.214 143.995L19.6622 141.279L19.5653 140.794V140.504L19.7592 140.407L22.3778 140.891L22.7657 140.794L23.3476 140.697L23.7356 140.31L24.0265 139.922L24.4145 139.534L24.7054 139.34L25.5783 139.243L25.7723 139.049L25.9662 138.37L26.0632 137.4L25.9662 136.624L25.7723 136.236L25.5783 135.945L25.3843 135.848L24.3175 135.363L23.9296 135.072L23.7356 134.781L23.6386 134.49L23.7356 134.006L24.0265 133.133L24.3175 132.551L24.9964 131.678L25.0934 131.29L24.9964 131.096L24.8024 130.805L24.1235 130.223L24.0265 129.835V129.544L24.1235 129.253L24.3175 129.156L24.8024 128.865L25.0934 128.671L25.1903 128.283V127.605L24.9964 126.926L24.4145 126.053L23.5416 125.083L23.1537 124.501L22.9597 124.113L22.8627 123.822V123.434L23.0567 121.495V120.913L22.9597 120.234L22.7657 119.846L22.4748 119.555H22.1838H21.7959L21.6019 119.749L21.214 120.525L20.7291 121.204L20.3411 122.173L20.0502 122.658L19.8562 122.755L19.5653 122.852L17.1406 122.561H16.9467L16.5587 122.367L16.4617 121.979L16.3648 120.913L16.2678 120.622L16.1708 120.331L15.6859 119.943L14.619 119.652L14.1341 119.361L13.8432 118.973L13.5522 118.294L13.2613 118.1L12.9703 118.003L12.3884 118.1H12.0005L11.8065 117.906L11.7095 117.615L11.8065 117.324L12.0974 116.839L12.2914 116.548L12.1944 116.257L12.0005 116.063L11.5155 115.772L9.76982 114.415L7.4422 113.057L6.86029 112.572L6.56935 112.184L6.37537 111.796L6.18139 110.826L5.98743 110.438L5.79345 110.244L5.30853 109.953L3.85376 109.662L3.46583 109.565L2.98091 109.178L2.68997 108.984L2.59298 108.596V107.917L3.65981 104.037L3.95075 103.455L4.2417 102.971L4.62966 102.583L5.11458 102.292L6.27838 101.613L6.66631 101.225V100.934L6.18139 100.643L5.11458 100.352L4.72662 100.255L4.33869 99.867L4.04775 99.4791L3.85376 98.9942L3.56282 98.2183L3.17489 97.9273L2.399 97.3455L1.72012 96.2786L1.42915 95.9877L0.65329 95.5997L2.59298 93.3691L2.98091 92.1083L2.88392 91.7204L2.49599 91.3324L1.42915 90.7505L1.13821 90.5565L0.944231 90.1686L0.65329 89.4897V89.1018L0.847241 88.6169L1.13821 87.744L1.72012 86.1922L1.91408 85.8043L2.98091 84.4465L3.36884 83.6706L4.62966 80.4702L4.82361 79.5973L4.9206 79.0154L4.72662 78.1425L4.33869 77.3667L3.27185 75.7179L2.78693 74.7481L2.49599 74.0692L2.399 73.5843L2.30201 72.6144V72.0325L2.399 71.5476L3.17489 67.4742L3.27185 66.6014L3.17489 66.0195L2.98091 65.4376L2.30201 64.5647L2.10806 64.2738L1.91408 63.7888L2.01107 63.4979L2.59298 63.3039L2.78693 63.013L3.0779 62.528L2.98091 62.2371L2.88392 61.9461L2.49599 61.5582L2.30201 61.2672L2.10806 60.8793L2.01107 60.1034V59.6185L1.91408 59.2306L1.33216 58.1637L0.944231 57.3879L1.04122 56.9999L1.42915 56.612L1.91408 54.8663L2.10806 54.4783L2.30201 54.2844L2.78693 53.9934L4.9206 53.5085L6.18139 52.9266L6.37537 52.6356L6.66631 52.1507L7.34521 50.599L7.53919 50.211L7.73314 50.017L8.31505 49.4351L8.79998 48.7562L9.09092 48.0774L9.2849 47.4955L9.38189 45.5558L9.47888 44.9739L9.57584 44.4889L9.67283 44.198L10.1578 43.6161L10.5457 43.2281L10.7397 42.8402L11.0306 42.3553L11.7095 40.2216L12.0005 39.7367L12.1944 39.5427L13.4552 38.7669L13.7462 38.4759L14.0371 38.088L14.4251 37.1181L14.619 36.5362L14.716 36.0513V35.6633L14.619 35.1784L14.5221 34.7905L12.7763 31.1051L12.6794 30.7171L12.7763 30.5232L12.9703 30.3292L15.9768 29.6503L16.4617 29.3594L17.0437 28.7775L17.3346 28.0986L17.7226 27.3227L17.8195 26.8378V26.4498L17.5286 25.9649L16.6557 25.189L16.5587 24.4132V23.3463L17.1406 19.5639L17.3346 18.885L17.4316 18.6911L17.7226 18.5941L18.0135 18.6911L18.2075 18.7881L18.5954 19.176L18.8864 19.6609L19.1773 20.5338L19.5653 21.0187L21.6989 22.8614L21.8929 23.0554H22.1838H22.5718L22.6687 22.7644L22.7657 22.4735V22.0855L22.5718 21.6006L22.2808 21.1157L21.408 20.2428L21.311 19.7579L21.214 19.079L21.408 17.4303L21.6019 16.6544L21.7959 16.0725L21.9899 15.9755L22.4748 15.6846L23.0567 15.4906L24.3175 14.8117L26.0632 14.5208L26.3542 15.0057L27.033 15.7815L27.9059 16.5574L28.6818 16.8484L29.5546 16.7514L30.1366 16.1695L32.5612 12.775L32.8521 12.1931L33.1431 11.0293L33.0461 10.1565L32.9491 9.18661V8.11978L33.2401 6.37406L33.9189 4.91929L34.9858 3.94945L36.1496 3.75548L37.3134 4.33739L40.6109 7.92581L41.5807 8.50771L42.5505 8.70169H47.7877L48.8545 8.31375L50.1154 7.14994L51.8611 3.85246L52.9279 2.20372L54.0917 1.1369L55.2555 0.554993L56.4193 0.651976L57.1952 1.52484L57.3892 2.3977V3.17357V3.94945L57.8741 4.91929L58.553 5.59818L60.0077 6.56802L60.6867 7.24692L61.0746 8.21676L61.6565 10.5444L61.9474 11.2233L62.6263 11.5142L63.3052 11.2233L64.76 9.8655L67.3786 8.02279L68.8333 7.53787H70.2881L75.0403 8.50771L76.4951 9.08962L76.8831 10.2534L77.077 11.9992L77.8529 16.8484L78.2408 18.0122L78.7258 18.982L79.6956 19.37L80.4715 19.079L81.1504 18.5941L81.8292 18.6911L82.2172 19.7579L82.6051 21.3097L83.1871 22.1825L84.1569 21.1157L84.3509 19.8549L84.2539 16.5574L84.4478 15.1027L85.5147 12.775L86.9694 10.9323L88.7151 9.57455L90.3639 8.6047L92.0126 8.31375L95.3101 8.21676L96.6679 7.73184L97.7347 6.56802L98.9955 3.85246L100.062 2.78564L101.129 2.3977H102.196L104.33 2.88262L105.687 3.75548L106.366 4.82231L107.433 7.92581L109.276 10.6414L109.858 12.0961L110.052 14.3268L109.567 16.5574L109.955 17.5273L110.828 18.2062L111.894 19.467L112.573 21.1157L112.961 23.0554L113.64 24.6071L114.901 25.286L115.968 24.8981L116.647 24.3162V24.3162Z" fill="#FFE300"/>
</svg>
