<svg width="213" height="139" viewBox="0 0 213 139" fill="none" xmlns="http://www.w3.org/2000/svg">
<path d="M108.044 2.33224L109.887 2.72021L110.566 2.52623L110.76 2.42924H111.051L111.439 2.52623L111.923 2.91416L112.311 3.10814L112.893 3.20513L114.057 2.91416H114.445L115.803 3.20513H116.773L117.064 3.30209L118.033 3.69005L119.585 4.85385L119.973 5.24178L120.264 5.62974L120.458 6.4056L120.652 6.69654L124.144 9.50912L124.435 9.99404L124.628 10.382L124.919 10.6729L126.374 11.6428L126.568 11.9337L127.538 13.1945L128.314 13.9704L131.417 15.8131L132.29 16.492L133.357 17.7528L133.745 17.8498L134.133 17.9467H134.812L135.879 17.6558H136.17L138.885 18.1407L139.176 18.0437L139.661 17.8498L139.952 17.7528L140.34 17.8498L141.213 18.6256L141.504 18.9166L141.795 19.1106L142.086 19.2076L143.734 19.1106L144.122 19.2076L144.51 19.4015L144.995 19.8864L145.383 20.0804H145.868L146.159 19.8864L146.644 19.5955H147.032L149.262 20.2744L150.426 20.7593L150.911 21.1472H151.493H151.881L152.366 20.7593L152.851 20.5653H153.142L153.627 20.3714L153.821 20.2744L154.694 19.5955L155.663 19.1106L158.185 18.1407L158.864 17.7528L159.349 17.8498L160.028 18.3347L161.483 19.6925L161.967 20.3714L162.161 20.9533V21.6322V21.9231L162.549 22.408L163.519 23.5719L163.713 23.9598L163.519 24.4447L162.937 25.5115L162.549 25.8995L161.192 26.6753L160.61 27.2573L160.513 27.4512V27.6452L160.804 27.8392L162.549 27.7422H162.84L163.228 28.0331L164.101 28.809L164.586 29.1L165.944 29.4879L166.429 29.7789L166.623 30.1668V30.5547L166.817 30.9427L167.302 31.3306L168.465 32.0095L168.95 32.3974L169.338 32.7854L169.629 33.4643L169.92 33.7552L171.375 34.822L171.666 35.21L171.763 35.5979L171.472 35.9859L171.181 36.2768L170.114 37.0527L169.92 37.2466L169.726 37.8286L169.629 38.1195L169.726 38.4105L169.92 38.6044L171.957 40.0592L173.315 41.417L177.097 44.6175L177.776 45.3934L177.97 45.8783L177.776 46.4602L177.097 47.818L176.903 48.3029V48.5938L177.097 48.7878L177.97 49.4667L178.843 50.4365L179.037 50.8245L178.843 51.3094L177.388 52.9581L177.194 53.4431L177.291 53.637L177.873 54.2189L178.067 54.3159H178.358L178.843 53.928L179.328 53.4431L179.522 53.2491L179.716 53.1521L180.298 53.4431L180.685 53.831L180.976 54.025H181.364L181.752 53.831L182.722 53.1521L182.819 52.8611V52.5702L182.334 52.1823L182.237 52.0853L182.14 51.7943L182.237 51.5034L183.11 50.0486L186.989 45.2964L187.862 44.7145L188.153 44.6175H188.638L189.511 44.9084L191.839 46.2662L192.712 46.9451L193.002 47.333L193.293 47.818L193.487 48.0119L193.875 48.2059L194.554 48.3029L196.494 48.1089L196.979 47.9149L197.367 47.43L198.434 46.7511L201.537 46.3632L201.731 47.0421L201.828 47.721L202.022 48.1089L202.216 48.3029H202.507L204.35 48.0119H204.641L204.835 48.1089L205.029 48.3029L204.932 48.7878L204.738 49.0788L204.253 49.3697L204.059 49.5637L203.477 50.7275L202.992 51.1154L202.798 51.3094L202.701 51.7943V53.3461V53.831L202.798 54.025L202.895 54.122L203.089 54.2189L204.835 54.025L205.029 53.928L205.223 53.734L205.513 53.1521L205.901 51.3094L205.998 50.9214L206.289 50.4365L206.58 50.1456L206.871 50.0486L209.199 49.8546L209.781 49.9516L209.975 50.1456L210.072 50.3395L210.266 50.8245L210.363 51.6973L210.46 53.4431L210.363 53.831L210.266 54.122L209.878 54.4129L209.296 54.7038L208.617 54.9948L208.423 55.1888L208.326 55.4797L208.52 56.2556L208.617 56.9345V57.1284L208.52 57.4194L208.326 57.6134L207.744 57.9043L207.55 58.0983L207.453 58.4863L207.356 60.9109L207.55 61.2988L208.035 61.6867V61.8807L207.841 62.2686L207.55 62.4626L206.289 63.0445L206.095 63.2385L205.998 63.5294V64.2083L206.095 64.5963L206.289 65.7601L206.58 68.0877L206.483 68.4756L206.192 70.2213V70.6093L206.289 71.1912L206.386 71.3852L206.58 71.5792H206.871L207.55 71.2882L208.132 71.1912L208.617 71.2882L208.908 71.3852L209.005 71.5792L209.102 72.0641L209.296 72.258L209.49 72.355L210.654 72.549L210.945 72.7429L211.139 72.9369L211.236 73.1309V74.0038L211.333 74.5856L211.623 75.6525L212.108 78.756L212.205 79.5319L212.302 80.4047V80.6957L212.205 81.0836L211.914 81.5685L211.139 82.3444L210.751 82.6354L210.363 82.8293L209.781 82.9263L209.587 83.1203L209.393 83.4112L209.296 83.8962V84.672L209.684 86.8057L209.781 87.3876L210.363 88.8424L210.46 89.4243L210.557 90.4911V91.17L210.46 91.461L210.169 91.9459L209.587 92.5278L208.229 93.6916L207.647 94.0795L207.065 94.2735L206.774 94.1765L204.932 93.2067L202.895 92.6248L202.41 92.3338L202.216 92.1398L202.022 91.364L201.634 90.976L201.44 90.7821L198.24 89.8122H197.658L195.912 90.2971H194.942H194.651L194.166 90.4911L193.778 90.976L193.584 91.461L193.487 92.2368L193.196 96.8921L193.293 97.28L193.487 98.3468V99.2197L193.778 99.7046L194.069 99.8986L195.039 100.093L195.33 100.19L195.524 100.287L195.621 100.577L196.203 102.032L196.591 102.711V103.196L196.3 103.293L195.718 103.39L193.972 103.487H193.584L193.293 103.681L192.905 103.972L192.518 104.069H191.645L191.451 104.263L191.257 104.457L191.16 104.942L191.063 105.233V105.912L191.16 106.203L191.354 106.494L191.839 106.784L192.615 106.978L192.905 107.269L193.099 107.56L193.487 109.403L183.595 110.858L183.401 110.761L183.207 110.567L182.916 110.179L182.528 109.791L181.946 109.694L181.655 109.791L181.17 109.985L180.588 110.47L180.394 110.858L180.007 111.44L179.619 111.731L179.134 111.828H177.97L177.291 111.731L176.903 111.634L176.321 111.052L176.127 110.955L175.836 110.761L174.575 110.664L174.09 110.47L173.994 110.276L173.8 108.53L173.703 108.045L173.509 107.851H172.927L172.636 107.948L172.248 108.045L171.86 108.53L171.666 108.918L171.375 109.5L171.181 109.694L170.696 109.888L168.271 110.082H167.884L167.496 109.694L167.302 109.5L166.817 109.306L166.72 109.112L166.623 108.53L166.429 108.336L165.944 108.045L165.847 107.851L165.75 107.269L165.847 106.978L165.944 106.881H166.429L166.623 107.075L167.011 107.463L167.302 107.56L167.593 107.463L167.884 107.075L167.98 106.687L168.465 105.33L168.853 104.457V104.166V103.875L168.659 103.099L168.756 102.517L168.853 102.032V101.741H168.756L167.205 101.838L166.817 101.547L166.623 101.256L166.429 101.062L165.75 100.771L165.653 100.577L165.75 99.7046V99.3167L165.653 98.2499L165.556 97.668L165.265 97.183L165.071 97.086L164.78 96.9891L164.004 96.7951L163.713 96.5041V96.3102L163.81 96.0192L164.101 95.5343L164.78 94.7584L165.071 94.1765L165.168 93.8856L164.974 93.4006L164.683 93.3037L164.295 93.4006L162.549 94.6614L162.064 94.7584H161.483L161.192 94.5644L161.095 94.3705V93.6916V93.4006L160.804 92.7217L160.707 92.1398L160.804 91.7519L160.998 90.6851V90.3941V90.1032L160.804 89.9092L160.61 89.7152L160.416 89.6182L160.028 89.5213H159.446L156.245 90.2971L153.336 91.461L152.754 91.5579L152.269 91.461L151.493 90.2001L151.105 89.8122L150.814 89.7152L148.196 89.1333L147.711 88.8424L147.032 88.0665L146.644 87.3876L146.256 86.9997L145.674 86.8057L145.092 86.7087L143.54 86.9027L141.31 87.4846L140.825 87.7755L139.952 88.4544L138.788 89.7152L138.206 90.1032L137.333 90.3941L136.849 90.4911H136.364L135.588 90.0062L127.15 88.5514L123.659 86.8057L122.495 86.4178H122.01L119.1 86.9027L118.227 87.1936L117.743 87.2906H117.258L115.803 86.6117L115.221 86.5147H114.348L113.184 86.8057L112.893 86.9997L112.408 87.2906L111.439 87.3876H110.954L110.372 87.2906L109.79 87.4846L109.014 87.9695L107.171 89.5213L105.813 90.3941H102.71L102.419 90.2971L102.225 90.1032L102.031 89.6182L101.934 89.0363V88.4544V87.4846V87.2906L101.74 87.0967L101.449 86.9997H100.867L100.576 87.1936L100.285 87.3876L100.091 88.1635L99.9944 88.5514L100.091 88.9394L100.285 89.7152L100.576 90.3941L100.673 90.6851L100.479 91.17L100.382 91.6549L100.285 93.5946L100.188 93.7886L99.9944 94.0795L99.3155 94.5644L99.0246 94.7584L98.8306 95.2433V95.6313L98.9276 95.9222L99.1215 96.0192L99.3155 96.1162H99.8974L100.188 96.2132L100.382 96.3102L100.576 96.7951V97.474V97.7649L100.867 98.2499L101.158 98.6378L101.74 98.9287L103.68 99.4137L103.971 99.5107L104.262 99.9956L104.359 100.48L104.456 100.771L104.359 101.45L104.165 101.838L103.874 102.129L103.292 102.42L100.964 102.905L100.673 103.099L99.2186 104.36L98.9276 104.748L98.7336 105.33L98.5397 106.106V106.687L98.7336 107.172L99.1215 107.56L103.292 110.082L103.583 110.47L103.68 110.761V111.246L103.486 111.634L103.001 112.507L102.807 112.991V113.379V113.67L103.001 114.446V114.737L102.807 115.804V116.095L102.904 116.289L103.195 116.483L104.165 116.677L105.426 116.871L105.716 117.065L105.91 117.162V117.744L105.329 121.526L104.941 122.787L104.553 125.115L104.165 126.472L103.389 128.509L103.292 129.091V129.285L103.486 129.479L104.553 130.352L104.844 130.74L105.135 131.225V131.806L104.747 133.455L104.65 133.746L104.359 134.328L103.874 134.91L103.389 135.007L99.8974 134.813L94.3693 133.746L89.8111 131.806L87.0955 131.322L86.5136 131.516L79.1428 135.007L72.3539 136.462L66.1468 138.498L63.6253 138.886L58.2911 138.401L49.9504 135.686H48.6896L41.9007 137.529L36.6636 137.916L35.9847 137.723L35.8877 137.529L35.5967 136.656L35.3058 136.171L35.0149 135.88H34.6269L33.3661 135.977L33.0752 135.88L32.8812 135.686L32.5902 134.619L32.3963 134.134V133.843L32.5902 133.261L33.0752 132.291V132.097L32.9781 131.709L32.7842 131.419L32.3963 131.031L32.0083 130.934L31.7174 130.837L28.5169 131.516L28.032 131.709L27.935 131.903L27.838 132.194L28.032 132.97V133.552L27.935 133.843L27.547 134.231L27.0621 134.425L21.34 135.589L20.9521 135.783L20.6612 136.268L20.5642 136.753L20.3702 136.947L20.0792 137.238H19.6913L19.4003 137.141L18.8184 136.85L18.3335 136.365L17.9456 135.977L17.8486 135.783L17.6546 135.298L17.4606 134.522L17.2667 134.037L16.6848 133.746L15.812 133.358L11.8356 132.582L11.4477 132.194L10.6717 131.516L10.3808 131.419L6.30743 130.255L1.74921 129.576L1.36125 129.382L1.16727 129.188L1.07031 128.994V128.606L1.16727 128.024L1.55523 127.442L2.13712 126.763L2.42806 126.375L2.62204 125.987V125.502L2.52508 124.727L2.23414 123.854L1.84617 122.884L0.97329 121.332L0.682349 120.556L0.585388 120.071L0.87633 119.877L1.26429 119.489L1.55523 119.392L3.59188 118.811L5.91953 118.617L6.11351 118.326L6.21047 117.938L5.91953 116.871L5.62859 116.386L5.33759 116.095L4.94969 115.804L4.75571 115.416V114.834V110.47L4.94969 109.403L5.14367 108.918L5.24063 108.53L5.33759 106.687L5.43461 106.3L5.53157 106.009L5.91953 105.524V105.233L5.72555 104.748L5.24063 103.972L4.85267 103.778L4.46477 103.681L4.17382 103.778H3.59188L3.30094 103.584L3.20398 103.293V102.808L3.59188 101.353L3.88282 100.577L3.97984 100.093L3.3979 99.6076L3.97984 96.8921L4.56173 94.7584L4.75571 94.5644L5.14367 94.2735L5.62859 94.1765L6.21047 93.7886L6.59843 93.2067L7.08336 92.2368L7.47126 91.7519L7.95618 91.267L8.73204 90.6851L9.12001 90.3941L9.50797 90.2971L11.5446 90.4911L12.8054 90.1032L13.1934 89.9092L13.3873 89.6182L13.6783 88.6484L13.7752 87.9695L13.6783 87.3876V86.8057L13.5813 86.2238L13.7752 85.5449L13.9692 84.5751L14.2602 83.1203L14.4541 82.9263L14.7451 82.8293H14.9391L15.1331 83.2173L15.521 85.4479V85.6419L15.23 86.3208L15.1331 86.6117V87.1936L15.327 87.9695L15.424 88.2605L15.618 88.4544L15.9089 88.6484L16.1029 88.4544L16.2969 88.2605L16.6848 86.9997L17.1697 85.8358L17.2667 85.5449L19.4974 83.1203L19.7883 82.6354L19.9823 82.1504L20.1763 81.9565H20.4672L20.6612 82.0535L21.1461 82.6354L21.534 83.0233H22.1159L22.7948 82.9263L23.0858 82.8293L23.3767 82.5384L23.8616 81.9565L25.9953 79.9198L26.1892 79.7258L26.7712 78.562L27.0621 78.3681L27.3531 78.2711H27.741L28.1289 78.1741L28.8078 77.9801L29.0988 77.6892L29.1958 77.3012L29.7777 73.5188L29.6807 72.9369L29.5837 72.7429L29.3898 72.549L28.7109 72.355L28.5169 72.161L28.3229 71.7731L28.2259 71.0942L28.1289 66.9239L27.741 65.2752V64.5963L27.644 64.1113L27.1591 63.8204L26.9652 63.7234L26.8681 63.4324L26.7712 62.7536L26.8681 62.2686L27.0621 61.9777L27.4501 61.6867L27.547 61.3958V61.1048L26.3832 58.3893L26.1892 57.9043V57.5164L26.2863 56.9345V56.7405L26.0923 56.6435H25.6074L25.4134 56.5466L25.3164 56.1586L25.2194 55.4797V54.8008L25.4134 54.5099L25.6074 54.2189L27.1591 53.2491L31.7174 51.4064L31.9113 51.5034L32.0083 51.8913H32.2993L32.6872 51.6973L34.142 50.1456L34.6269 49.8546L40.252 47.0421L40.7369 46.7511L42.6766 44.7145L42.9676 44.5205L43.5495 44.4235L43.9374 44.3265L44.4224 44.1325L45.1012 43.5506L45.4892 43.1627L45.5861 42.8718L45.4892 42.6778L45.1982 42.4838L43.0646 41.9989L42.7736 41.9019L42.6766 41.7079L42.5796 41.126L42.2887 40.6411L42.0947 40.4471L38.8942 40.2532L38.3123 40.1562L37.1485 39.2833L36.8575 39.1863L33.851 38.6044L33.6571 38.5075L33.2692 38.1195L32.9781 37.3436L32.7842 36.8587L32.5902 36.6648L32.1053 36.3738L31.9113 36.1798L31.6204 35.7919L31.3295 34.919L31.4264 34.4341L32.2023 33.1733L32.5902 32.7854L32.8812 32.5914H33.1721H33.3661L33.5601 32.7854L33.851 33.2703L34.045 33.4643H34.4329H34.7239L36.8575 31.6216L37.1485 31.5246H37.5364L38.1184 31.7185L38.3123 31.9125L38.5063 32.1065L38.7003 32.9793L38.7972 33.1733L38.9912 33.3673L39.2821 33.5612H39.5731L39.8641 33.4643L40.252 33.2703L41.2218 31.9125L41.7067 31.5246H41.9977L42.6766 31.6216L42.8706 31.8155L43.0646 32.0095V32.3005L42.8706 33.3673L42.9676 33.6582L43.0646 33.8522L43.4525 33.7552L43.7435 33.3673L44.1314 32.7854L44.3253 32.4944H44.5193L44.6163 32.6884L44.7133 33.6582V33.8522L45.0042 34.4341V35.21L45.4892 35.5009L45.7801 35.4039L46.071 35.21L46.362 34.7251L46.7499 33.3673L47.1379 32.6884L47.6228 32.3974L47.9138 32.0095L48.3017 31.3306L48.7867 30.9427L48.9806 30.5547L49.0776 30.2638L49.1746 29.8758L49.4655 28.906L50.8233 26.7723L51.3082 27.2573L57.3213 31.5246L57.7092 31.6216L58.4851 31.5246H58.873L59.1639 31.7185L59.8428 32.3005L60.1338 32.5914L61.1036 32.9793L63.9162 33.4643L65.565 34.3371L67.2137 36.4708L67.8925 36.5678L69.4443 35.5009L70.6082 34.3371L70.9961 33.9492L71.0931 33.6582L70.9961 33.4643L70.8991 33.1733L70.2202 32.6884L70.0262 32.4944L69.9293 32.2035V31.6216L70.0262 31.3306L70.1232 31.0396L71.19 29.8758L71.7719 29.4879L72.0629 29.1969L72.1599 28.906L71.9659 27.1603L71.7719 26.6753L71.578 26.4814L70.0262 24.9296L69.8322 24.4447V23.8628L69.9293 22.796L70.1232 22.1171L70.6082 21.0503L71.384 18.7226L71.7719 18.1407L72.0629 17.8498L72.6448 17.3648L73.6146 16.9769H74.2935L74.6815 16.7829L74.9725 16.492V16.201L74.8754 16.0071L74.6815 15.9101H74.0996L73.7116 15.8131L73.6146 15.3282L73.8086 14.8433L74.0026 14.6493L75.3604 13.4855L76.1362 12.7096L76.8151 11.7397L76.9121 11.4488L77.0091 10.7699L76.9121 10.188V9.89705L77.1061 9.50912L77.3971 9.41213H77.688L78.2699 9.70307L87.9683 5.43576L89.8111 5.14482L94.1754 3.78701L94.6603 3.59306L95.0482 3.30209L95.5331 2.62322L96.115 2.0413L96.5029 1.75036L96.9879 1.55638L97.2789 1.45939L98.6366 1.55638L99.0246 1.45939L99.5095 1.07146L99.8004 0.974469H100.091L101.643 1.55638L101.837 1.75036L101.934 1.94431V2.23528L101.837 2.42924L101.449 2.81717L101.255 3.01115L101.158 3.30209L101.255 3.49607L101.449 3.78701L101.74 3.884L102.419 3.98099L102.71 3.78701L103.001 3.69005L103.292 3.10814L103.583 2.0413L103.777 1.55638L104.262 1.07146L104.553 0.877478L104.941 0.780518H105.232L105.813 0.974469L106.395 1.26544L108.044 2.33224V2.33224Z" fill="#FFE300"/>
</svg>
