<svg width="136" height="191" viewBox="0 0 136 191" fill="none" xmlns="http://www.w3.org/2000/svg">
<path d="M134.58 112.336L126.045 112.045L123.524 113.015L121.681 115.343L120.323 118.446L119.353 122.132L118.966 125.429L118.384 126.69L117.22 126.787L115.377 126.108L114.504 126.205L113.534 126.981L111.498 129.308L110.528 130.181L109.17 130.763L97.9199 132.315L96.0772 133.576L94.7194 135.806L93.6526 138.619L92.9737 141.431L93.0707 147.057L92.7798 149.287L91.519 151.712L89.8702 153.942L89.1913 155.397L89.0944 156.658L89.7732 157.434L90.7431 157.628L92.7798 157.24L93.7496 157.337L94.6224 157.725L95.1073 158.598L94.9134 160.149L94.2345 161.313L93.1677 162.089L91.9069 162.671L90.937 163.447L89.8702 165.193L89.4823 167.617L89.7732 170.042L90.5491 172.272L89.4823 173.339L86.5727 177.413L84.7301 178.286L85.9909 175.764L85.8938 174.503L84.5361 173.921L82.7904 172.563L82.4994 172.66L82.2084 172.951L80.8507 173.727L80.3658 173.921L78.3291 173.145L76.8743 172.854L76.2924 173.242L71.5401 172.369L65.7211 174.503H63.3935L56.4106 173.242L54.5679 173.921L51.1734 177.607L45.5483 185.559L44.1905 188.372L43.2207 189.633L42.0569 190.215L42.3479 188.178L41.0871 186.626L39.2443 185.656L37.4986 185.365L36.4318 185.656L34.0072 187.596L27.8002 190.021L27.3153 190.118L25.7635 187.111L25.6665 186.529L25.7635 186.141L26.0545 185.656L26.2484 185.462L27.8002 184.008L27.9942 183.814L28.5761 183.426H28.867L29.6429 183.814L29.9339 183.911H30.1278L30.6127 183.717L31.3886 183.135L31.4856 182.747L31.3886 182.262L30.3218 180.419L30.5158 179.934L30.9037 179.546L31.4856 178.964L31.6796 178.77L31.7765 178.479L31.5826 178.189L31.1947 177.704L31.0007 177.51L30.1278 176.928L29.255 175.958L28.867 175.861L28.4791 176.152L28.0911 176.831H27.8972L27.7032 176.734L25.8605 175.182L25.5696 174.891L25.3756 174.406L24.7936 171.982L24.3087 171.109L23.5329 169.751L23.2419 169.363L23.0479 169.169L22.0781 168.587L19.7505 167.617L19.2656 167.326L18.0047 165.968L17.7138 165.581L17.5198 165.096L17.7138 164.805L18.0047 164.708L18.2957 164.611L21.1083 164.417L21.5932 164.223L21.9811 163.932L22.0781 163.35L21.8841 161.313L21.7872 160.828L21.6902 160.343L20.9143 158.695L20.6233 158.016V157.143L20.7204 156.852L20.9143 156.561L21.3992 156.367L21.8841 156.27L22.369 156.755H22.66L23.2419 156.852H23.4359L24.0178 157.434L24.6967 157.628L25.6665 157.725H26.8304L28.77 157.046L28.964 156.852L29.1579 156.658L29.255 156.367V156.076V155.203V154.912L29.4489 154.33L29.9339 153.554L30.2248 152.973L30.4188 152.294L30.6127 151.712L31.0007 151.324L31.3886 151.033L31.5826 150.936H32.0675L32.5524 151.13L32.7464 151.227L33.3283 151.809L33.7162 152.488L33.9102 152.973L34.0072 153.07L34.4921 152.973L34.8801 152.682L35.171 152.294L35.268 152.003L35.074 151.324V150.645V150.063L35.171 149.772L35.365 149.093L35.9469 148.026V147.735V147.057L36.1408 146.475L36.9167 144.923L37.1107 144.632V144.341L37.0137 144.147L36.6258 144.05H35.6559L33.4253 143.662L33.1343 143.759L32.9404 143.953L32.8434 144.438L32.4554 144.729H32.1645L31.8736 144.438L30.8067 142.789L30.6127 142.595L26.4424 138.91L24.9876 137.067L24.5997 136.679L22.2721 135.224L21.8841 135.127H21.4962L20.1384 136.291L19.7505 136.582L19.5565 136.776L18.8776 136.388L18.0047 135.515L15.8711 133.188L14.9982 132.412L14.4164 132.024L12.7676 132.703L12.1857 132.8L11.9918 132.703L11.7978 132.412L11.7008 131.927L11.7978 131.442L11.9918 130.472V130.181L11.7978 129.987L10.8279 129.793L10.6339 129.599L10.44 129.308L10.246 128.92V128.242L10.343 127.951L10.6339 127.854L11.1189 127.66L11.6038 127.466L11.7978 127.272V127.078L11.7008 126.884L11.3128 126.69L9.95504 126.399L9.6641 126.108L9.27614 125.623L8.5973 123.586L7.04551 120.289L6.94855 119.804L6.85153 118.64L6.75457 118.058L6.65761 117.864L6.46363 117.767H6.07567L4.71792 117.961H4.13598L3.45708 117.864L2.87519 117.573L2.58425 116.7L2.48723 113.403L2.09933 111.56L1.90535 111.269L1.61441 110.978L0.838545 110.784L0.353623 110.493L0.159642 110.202L0.0626221 109.912V109.233L0.159642 108.942L0.256603 108.457L0.450583 108.263L0.644564 108.069H1.51739L1.90535 107.972L2.29331 107.681L2.58425 107.487H2.97215L4.71792 107.39L5.2998 107.293L5.59075 107.196V106.711L5.20284 106.032L4.6209 104.577L4.52394 104.286L4.32996 104.189L4.03902 104.092L3.06917 103.898L2.77823 103.705L2.48723 103.22V102.347L2.29331 101.28L2.19629 100.892L2.48723 96.2367L2.58425 95.4609L2.77823 94.9759L3.16614 94.491L3.65106 94.297H3.942H4.91184L6.65761 93.8121H7.23949L10.44 94.7819L10.6339 94.9759L11.0219 95.3639L11.2158 96.1397L11.4098 96.3337L11.8947 96.6246L13.9314 97.2066L15.7741 98.1764L16.0651 98.2734L16.647 98.0794L17.2289 97.6915L18.5867 96.5277L19.1686 95.9458L19.4595 95.4609L19.5565 95.1699V94.491L19.4595 93.4242L19.3625 92.8423L18.7807 91.3875L18.6836 90.8056L18.2957 88.6719V87.896L18.3927 87.4111L18.5867 87.1202L18.7807 86.9262L19.3625 86.8292L19.7505 86.6353L20.1384 86.3443L20.9143 85.5684L21.2053 85.0835L21.3022 84.6956V84.4046L21.2053 83.5318L21.1083 82.7559L20.6233 79.6524L20.3324 78.5855L20.2354 78.0037V77.1308L20.1384 76.9368L19.9444 76.7428L19.6535 76.5489L18.4897 76.3549L18.2957 76.2579L18.1018 76.064L18.0047 75.579L17.9078 75.3851L17.6168 75.2881L17.1319 75.1911L16.55 75.2881L15.8711 75.579H15.5801L15.3862 75.3851L15.2892 75.1911L15.1922 74.6092V74.2212L15.4832 72.4755L15.5801 72.0876L15.2892 69.76L15.0952 68.5962L14.9982 68.2082V67.5293L15.0952 67.2384L15.2892 67.0444L16.55 66.4625L16.841 66.2685L17.0349 65.8806V65.6866L16.55 65.2987L16.3561 64.9108L16.453 62.4862L16.55 62.0982L16.744 61.9042L17.3259 61.6133L17.5198 61.4193L17.6168 61.1284V60.9344L17.5198 60.2555L17.3259 59.4796L17.4229 59.1887L17.6168 58.9947L18.2957 58.7037L18.8776 58.4128L19.2656 58.1219L19.3625 57.8309L19.4595 57.443L19.3625 55.6972L19.2656 54.8244L19.0716 54.3394L18.9746 54.1455L18.7807 53.9515L18.1987 53.8545L15.8711 54.0485L15.5801 54.1455L15.2892 54.4364L14.9982 54.9214L14.9013 55.3093L14.5133 57.152L14.2224 57.7339L14.0284 57.9279L13.8344 58.0249L12.0887 58.2188L11.8947 58.1219L11.7978 58.0249L11.7008 57.8309V57.346V55.7942L11.7978 55.3093L11.9918 55.1153L12.4767 54.7274L13.0586 53.5636L13.2525 53.3696L13.7375 53.0787L13.9314 52.7877L14.0284 52.3028L13.8344 52.1088L13.6404 52.0118H13.3495L11.5068 52.3028H11.2158L11.0219 52.1088L10.8279 51.7209L10.7309 51.042L10.537 50.3631L9.76106 48.4234L9.56714 47.4536L9.76106 45.2229L9.6641 43.7682V43.0893L8.79122 39.5008L8.5973 38.628V37.9491L8.79122 37.6581L8.9852 37.2702L9.27614 37.0762L9.56714 36.9792H10.149L10.8279 37.1732L12.3797 38.0461L13.0586 38.2401L15.5801 38.434L15.8711 38.337L16.453 37.7551L17.0349 37.1732L17.8108 36.4943L18.0047 36.3973L18.5867 36.2034L19.0716 36.1064H19.3625L20.0414 36.2034L25.1816 38.8219L25.7635 39.3069L26.0545 39.4039L26.5394 39.5008L26.8304 39.3069L27.0243 39.1129V38.725V38.434L26.9273 38.2401L26.7333 38.0461L25.5696 37.5612L25.2786 37.2702L25.1816 37.0762V36.5913L25.2786 36.3004L25.9575 35.3305L26.2484 35.0396L26.5394 34.9426H26.8304L27.4122 35.2335L27.8002 35.3305H28.3821L28.673 35.2335L28.867 34.9426L29.061 33.7788L29.255 33.1969L29.4489 32.9059L29.7399 32.7119H30.3218H30.6127L30.9037 32.8089L31.0976 33.0029L31.5826 33.6818L31.9705 34.0697L32.1645 34.2637L32.7464 34.3607H33.2313L34.3951 34.0697L34.7831 33.8758L34.977 33.5848V33.2938L34.7831 31.8391L34.8801 31.5481L34.977 31.1602L35.268 30.6753L35.559 30.4813L35.9469 30.3843L36.2379 30.1903L36.3348 29.8994L36.6258 29.2205L36.9167 28.4446L37.1107 28.1537L39.1474 26.6989L39.5353 26.5049H40.9901L41.669 26.311L41.9599 26.117L42.1539 25.826V25.5351L41.9599 25.0502L41.572 24.3713V24.0803V23.6924L41.669 23.1105V22.8195L41.572 22.5286L41.0871 22.2376L40.8931 22.0437V21.7527V21.4617L41.8629 19.91L42.1539 19.5221L42.4448 19.3281L43.7056 18.8432L43.9966 18.5522L44.1905 18.1643L44.2876 17.4854L44.3845 17.0005L44.7725 16.1276L45.3544 15.5457L57.5744 7.98092L57.9623 7.49599L58.1563 7.10806L58.0594 6.91408L57.2834 5.75029L56.9925 5.45932L56.7015 5.36233L55.5377 5.45932L53.5011 5.16837L52.8222 4.97439L52.5312 4.8774L52.3372 4.68345V4.48947L53.986 1.67693L54.2769 1.289L54.6649 1.19201L59.8051 1.09502L66.6909 3.03471L69.1155 2.93772L69.9884 2.74376L70.2794 2.54978L70.4733 2.25884L70.5703 1.57994L70.7643 0.804077H71.3462L71.8311 1.09502L72.51 1.67693L72.8009 2.06486L73.2859 2.74376L73.5769 2.84076L73.8678 2.93772L74.8376 3.03471L75.1286 3.22869L75.4195 3.42264V3.90756L75.2255 4.10154L74.9346 4.19853L73.4798 4.29552L73.2859 4.39248L72.9949 4.97439L72.704 5.94424V6.33217L72.898 6.62314L73.2859 7.01107L75.7105 7.98092L77.1652 8.95076L77.6502 9.04775L77.9412 8.95076L78.1351 8.85377L79.5898 7.49599L79.7838 7.399L80.0748 7.30201L82.3055 7.399L82.4994 7.49599L82.6934 7.68997V8.07791L82.3055 10.2115V10.8904V12.0543L82.2084 12.7331L81.9175 13.2181L81.3356 13.8L81.1416 14.0909L81.2386 14.7698L81.5295 15.7397L83.0813 19.5221V19.813V20.201L82.8873 20.3949L82.6934 20.5889L82.4994 20.6859L81.6266 20.7829H81.3356L81.2386 21.0738V21.5587L81.1416 21.8497L80.9476 21.9467L80.2687 21.8497L79.9778 21.9467L79.7838 22.1406L79.6869 22.3346L79.3959 23.0135V23.3044L79.4929 23.4984L79.7838 23.6924L80.4627 23.8864L80.8507 24.0803L81.3356 24.6622L81.7235 24.8562L82.0145 24.9532L88.1245 25.3411L90.2581 26.02L90.4521 26.8929L91.0341 28.8326L91.228 29.6084L91.325 30.1903V31.3542V31.7421L91.519 32.033L92.0039 32.324L92.7798 32.518L93.0707 32.6149L93.7496 32.7119L93.9436 32.9059L94.0405 33.2938V33.7788L93.9436 34.1667V34.6516L94.1375 35.2335L94.6224 36.1064L94.8164 36.9792L94.9134 37.5612L94.8164 37.9491L94.5255 38.531L94.2345 39.1129L93.5556 40.0828L93.4587 40.2767L93.2647 40.9556V41.6345L93.4587 42.0224L93.6526 42.1194L94.7194 41.8285H95.0104L95.3013 41.9255L95.3984 42.2164L95.3013 42.7013L95.1073 43.3802L94.2345 44.544L92.9737 45.6108L92.6827 45.9988L92.4888 46.3867L92.2948 46.9687V47.2596L92.4888 49.2963L92.6827 50.5571V50.945L92.5858 51.6239V52.0118L92.6827 52.3028L93.3616 54.0485L93.4587 54.5334V55.0183L93.3616 55.3093L92.9737 56.2791L92.8767 56.958L93.0707 57.249L93.2647 57.5399L93.8466 58.0249L94.5255 58.3158L95.3013 58.5098L95.5923 58.6068L95.7863 58.8977L95.8833 59.6736L95.7863 60.2555L95.4953 60.9344L95.3013 61.6133L95.2044 62.6801V63.262V63.8439L95.3013 64.2319L95.5923 64.6198L96.3682 65.1047L96.7561 65.3957L97.241 65.4926H97.532L97.823 65.5896L98.5018 65.9776L98.7928 66.0746H99.0837L99.5687 65.6866L99.8596 65.2987L100.054 65.1047L100.345 65.2017L100.732 65.5896L101.314 66.6565L101.605 67.2384L101.799 68.2082L101.993 68.4992L102.381 68.8871L103.448 69.76L104.03 70.5358L104.709 72.0876L104.903 72.4755L104.806 72.8635L104.612 73.4454L104.224 73.8333L103.836 74.0273L101.411 74.4152L101.12 74.6092L100.926 74.8032V75.2881L101.12 75.87L101.411 76.8398L101.702 77.9067L101.896 78.1976L102.187 78.4886L102.866 78.7795L103.739 78.9735L109.073 78.3916L109.364 78.4886L109.558 78.7795L109.946 79.4584L110.14 80.2343L110.334 81.0102L110.528 81.786L111.401 83.7257L111.595 84.2107L111.498 84.5016L111.401 85.1805L111.207 86.1503L111.401 86.4413L111.692 86.8292L112.759 87.5081L119.547 90.1267L122.651 91.9694L122.845 92.1634L123.039 92.5513L123.136 93.3272L123.039 93.7151L122.942 94.103L122.457 94.7819L122.069 95.6548L121.875 96.3337L122.166 96.8186L122.748 97.4005L124.106 98.6613L124.785 99.0493L125.27 99.2432L129.052 99.1462L134.095 100.31L134.289 100.795L134.483 101.571L134.289 104.189V104.868L134.58 105.45L134.774 105.838L135.065 106.032L135.55 106.323L135.647 107.487L134.677 111.657L134.58 112.336V112.336Z" fill="#FFE300"/>
</svg>
