<svg width="175" height="159" viewBox="0 0 175 159" fill="none" xmlns="http://www.w3.org/2000/svg">
<path d="M171.172 44.6502L171.269 45.1351L171.463 45.911L172.336 47.9477L172.724 48.6266L173.112 49.0145L174.178 49.6934L174.276 49.8874V50.1783L173.985 50.4693L173.694 50.5662L173.403 50.6632L172.239 50.7602L171.172 51.0512L170.202 51.5361L169.911 51.924L169.814 52.312L170.008 52.7969L172.336 54.5426L172.433 54.7366L172.336 55.0275L172.142 55.3185L171.948 55.5124L171.172 55.9004L170.881 56.3853L170.687 56.5793L170.202 57.8401L169.814 57.937L168.553 57.6461L168.262 57.7431L168.068 57.8401L167.487 58.519L166.808 59.5858L166.711 59.8767V60.1677L166.808 60.6526L167.099 60.8466H167.293L168.747 60.2647H169.038H169.329L169.523 60.3617L169.911 60.7496L170.008 61.0406V61.3315L169.911 63.6591V64.726L170.008 65.1139V65.6958L169.911 66.0837L169.523 66.5687L168.941 67.3445L168.747 67.7325L168.262 69.1872L167.972 69.5752L167.778 69.8661L167.293 70.0601L167.099 70.2541L167.002 70.642V71.1269L167.39 72.2907L167.487 72.4847L167.972 73.1636V73.3576V73.6485L167.39 74.0365V74.4244L167.972 76.0731L168.068 76.655L167.972 76.946L167.681 77.4309L167.487 77.7219L166.323 78.4978L166.129 78.6917L165.935 78.9827L165.644 80.2435L165.45 81.6012L165.159 82.3771L164.868 82.7651L164.577 82.959L163.704 83.153L163.316 83.444L162.637 84.4138L162.54 84.7048L162.443 84.9957L162.637 85.4806L162.831 85.7716L163.413 86.4505L163.51 86.6444L163.704 87.2264L163.801 87.7113L163.898 88.2932L163.607 92.4635V93.4333L163.801 94.1123L164.092 94.2092L164.965 94.3062L165.547 94.5972L165.838 94.7911L166.129 95.1791V95.47V95.955L166.032 96.5369L165.159 97.7976L164.48 98.5735L163.025 99.6403L161.764 100.804L161.571 101.58L161.474 102.259L161.28 102.55L160.989 102.744L160.116 102.938L157.691 103.035L150.805 101.095L145.665 101.192L145.277 101.289L144.986 101.677L143.337 104.49V104.684L143.531 104.877L143.822 104.974L144.501 105.168L146.538 105.459L147.702 105.362L147.993 105.459L148.284 105.75L149.06 106.914L149.157 107.108L148.963 107.496L148.575 107.981L136.355 115.546L135.773 116.128L135.385 117.001L135.288 117.485L135.191 118.164L134.997 118.552L134.706 118.843L133.445 119.328L133.154 119.522L132.863 119.91L131.893 121.462V121.753V122.044L132.087 122.238L132.572 122.529L132.669 122.82V123.111L132.572 123.692V124.08V124.371L132.96 125.05L133.154 125.535V125.826L132.96 126.117L132.669 126.311L131.99 126.505H130.535L130.148 126.699L128.111 128.154L127.917 128.445L127.626 129.221L127.335 129.899L127.238 130.19L126.947 130.384L126.559 130.481L126.268 130.675L125.977 131.16L125.88 131.548L125.783 131.839L125.977 133.294V133.585L125.783 133.876L125.395 134.07L124.232 134.361H123.747L123.165 134.264L122.971 134.07L122.583 133.682L122.098 133.003L121.904 132.809L121.613 132.712H121.322H120.74L120.449 132.906L120.255 133.197L120.061 133.779L119.867 134.943L119.673 135.234L119.382 135.331H118.8L118.412 135.234L117.831 134.943H117.54L117.249 135.04L116.958 135.331L116.279 136.3L116.182 136.591V137.076L116.279 137.27L116.57 137.561L117.734 138.046L117.928 138.24L118.025 138.434V138.725V139.113L117.831 139.307L117.54 139.501L117.055 139.404L116.764 139.307L116.182 138.822L111.042 136.203L110.363 136.106H110.072L109.587 136.203L109.005 136.397L108.811 136.494L108.035 137.173L107.453 137.755L106.871 138.337L106.58 138.434L104.059 138.24L103.38 138.046L101.828 137.173L101.149 136.979H100.567L100.276 137.076L99.9854 137.27L99.7914 137.658L99.5975 137.949V138.628L99.7914 139.501L100.664 143.089V143.768L100.761 145.223L100.567 147.454L100.761 148.424L101.537 150.363L98.4337 150.751L97.3668 151.43L96.9789 151.915L96.494 152.109L94.5543 152.303L93.8754 152.206L93.4874 152.012L93.2935 151.818L93.0025 151.333L92.7116 150.945L91.8387 150.266L89.5111 148.908L88.6382 148.617H88.1533L87.8623 148.714L86.9895 149.296L83.1101 154.049L82.2373 155.503L82.1403 155.794L82.2373 156.085L82.3342 156.182L82.8191 156.57V156.861L82.7222 157.152L81.7523 157.831L81.3644 158.025H80.9765L80.6855 157.831L80.2976 157.443L79.7157 157.152L79.5217 157.249L79.3277 157.443L78.8428 157.928L78.3579 158.316H78.0669L77.873 158.219L77.2911 157.637L77.1941 157.443L77.388 156.958L78.8428 155.309L79.0368 154.824L78.8428 154.437L77.9699 153.467L77.0971 152.788L76.9031 152.594V152.303L77.0971 151.818L77.776 150.46L77.9699 149.878L77.776 149.393L77.0971 148.617L73.3147 145.417L71.9569 144.059L69.9202 142.604L69.7262 142.41L69.6293 142.12L69.7262 141.829L69.9202 141.247L70.1142 141.053L71.181 140.277L71.472 139.986L71.763 139.598L71.6659 139.21L71.375 138.822L69.9202 137.755L69.6293 137.464L69.3383 136.785L68.9504 136.397L68.4655 136.01L67.3016 135.331L66.8167 134.943L66.6228 134.555V134.167L66.4288 133.779L65.9439 133.488L64.5861 133.1L64.1012 132.809L63.2283 132.033L62.8404 131.742H62.5494L60.8037 131.839L60.5127 131.645V131.451L60.6097 131.257L61.1916 130.675L62.5494 129.899L62.9373 129.512L63.5193 128.445L63.7133 127.96L63.5193 127.572L62.5494 126.408L62.1615 125.923V125.632V124.953L61.9675 124.371L61.4826 123.692L60.0278 122.335L59.349 121.85L58.864 121.753L58.1851 122.141L55.6635 123.111L54.6937 123.596L53.8208 124.274L53.6269 124.371L53.1419 124.565H52.851L52.3661 124.759L51.8811 125.147H51.4932H50.9113L50.4264 124.759L49.2626 124.274L47.0319 123.596H46.644L46.159 123.886L45.8681 124.08H45.3832L44.9952 123.886L44.5103 123.402L44.1224 123.208L43.7344 123.111L42.0857 123.208L41.7947 123.111L41.5038 122.917L41.2129 122.626L40.34 121.85L39.9521 121.753L39.6611 121.85L39.1762 122.044L38.8852 122.141L36.1697 121.656H35.8787L34.8119 121.947H34.133L33.7451 121.85L33.3571 121.753L32.2903 120.492L31.4174 119.813L28.3139 117.97L27.538 117.195L26.5682 115.934L26.3743 115.643L24.9195 114.673L24.6285 114.382L24.4346 113.994L24.1436 113.509L20.6522 110.697L20.4582 110.406L20.2642 109.63L19.9733 109.242L19.5853 108.854L18.0336 107.69L17.0637 107.302L16.7728 107.205H15.8029L14.4451 106.914H14.0572L12.8934 107.205L12.3115 107.108L11.9236 106.914L11.4386 106.526L11.0507 106.429H10.7597L10.5657 106.526L9.88691 106.72L8.04418 106.332L8.23816 105.847L8.33512 105.265L8.23816 104.296L7.94722 103.326L7.75324 102.453L7.55926 101.968L6.49245 100.125L6.39543 99.8343V99.5434V99.0584L6.58941 98.2826L6.97737 97.5067L7.4623 96.7308L10.1778 93.7243L10.6628 93.5303L10.9537 93.4333L11.2447 93.5303L11.7296 93.8213L12.2145 94.5002L12.7964 94.9851L13.3783 95.276L13.7663 95.373L19.0034 95.858L20.1672 95.664L22.9798 94.2092L23.8526 93.5303L25.5014 91.6876L26.8592 89.457L28.2169 87.6143L28.3139 87.2264L28.2169 86.8384L27.635 86.0625V85.6746L27.829 85.2867V84.9957L27.732 84.7048L27.3441 84.4138L26.6652 84.0258L26.3743 83.7349L26.2772 83.153L25.8893 82.3771L25.6954 81.8922V81.3103L25.7923 80.9224L26.0833 80.2435L26.1803 80.0495L26.3743 79.8555L27.2471 79.6616L27.732 79.4676L28.0229 79.3706L28.3139 79.4676L31.4174 80.2435H31.7084L31.9023 80.0495L32.1933 79.5646L32.3872 79.3706L32.6782 79.2736L33.5511 79.1766L33.842 79.0797L33.939 78.9827L34.036 78.5947L33.842 78.1098L33.2601 77.5279L32.0963 76.849L31.2235 75.8792L30.1566 75.2973L29.9626 75.0063L29.8657 74.4244L29.9626 74.2304L30.2536 74.1335H32.7752L33.939 73.9395L34.424 73.6485L34.23 72.9696L33.842 71.8058L31.4174 67.2476L31.2235 66.7626L31.0295 66.1807L31.1265 65.6958L31.2235 65.5018L31.7084 65.2109L31.9023 65.1139V64.8229L31.7084 63.6591L31.6114 63.4652L31.4174 63.1742L31.0295 63.0772H29.3808L29.0898 63.1742L28.8958 63.3682L28.7018 63.5621L28.5079 64.241L28.4109 64.532L28.2169 64.726H27.926L27.2471 64.629L24.5315 63.7561L24.2406 63.6591L24.0466 63.3682V62.9802L23.9496 62.6893L23.7557 62.3983L22.3009 62.1074L21.9129 62.0104L21.719 61.7194L21.622 61.1375L21.525 60.0707L21.428 59.7798L21.234 59.4888L20.1672 58.7129L19.9733 58.519L19.7793 58.131L19.4883 57.6461L19.1974 56.2883L19.1004 55.9004V54.6396L19.2943 52.312L19.1974 51.6331L19.1004 51.0512L18.7125 50.3723L17.8396 49.4994L17.4517 49.3054L17.1607 49.2085L16.8697 49.1115L16.2879 49.3054L15.609 49.7904L15.0271 49.8874L14.4451 49.7904L11.0507 48.1416L10.7597 47.8507L10.0808 46.7838L9.69293 46.5899L9.30496 46.3959H7.07433L6.39543 46.2989L5.81355 46.008L5.42559 45.62L4.94066 45.0381L4.45574 44.6502L3.38894 44.3592L3.098 44.2623L2.90402 43.9713L2.32207 42.9045L2.12815 42.7105L1.83715 42.4195L1.54621 41.9346L1.25527 39.607L1.15831 39.316L0.382385 37.0854V36.8914L0.964327 36.0186L1.44925 35.2427L3.87386 32.9151L4.26176 32.4302L4.35878 31.7513L4.45574 30.5874V26.0292L3.97082 24.8654L5.91051 23.7985L6.58941 23.1196L6.78339 22.3438L7.26831 21.18L7.55926 20.986H7.75324L8.04418 21.3739L8.43214 21.7619L9.11098 22.3438L9.69293 22.6347L10.1778 22.8287L10.4688 22.7317L10.6628 22.4408L10.8568 21.8588L10.7597 21.3739V20.986L10.8568 20.5011L11.6326 19.5312L12.1175 19.1433L12.5054 19.0463L13.2814 19.6282L13.6693 19.7252L13.8632 19.6282L14.0572 19.4342L14.2512 18.6584L14.4451 18.2704L14.7361 17.7855L15.318 17.0096L15.706 16.7187L16.1909 16.5247L16.8697 16.6217L17.5486 16.7187L18.6155 17.3006L18.9064 17.4945L19.2943 17.5915L19.9733 17.6885L21.816 17.3006L22.3009 17.1066L22.4949 16.9127L22.5918 16.6217L22.4949 16.0398L22.2039 15.2639L22.3009 14.876L22.3979 14.585L22.7858 14.0031L23.0768 13.8091L23.2707 13.7122L24.9195 14.1001H25.2104L25.5014 13.9061L25.5983 13.7122V13.5182L25.3074 13.1303V12.8393L25.4044 12.4514L26.0833 11.7725L26.5682 11.5785L26.9561 11.4815L27.2471 11.5785L28.5079 12.3544L28.8958 12.5484H29.2838L29.5747 12.4514L29.7687 12.2574L29.8657 11.9664V11.5785V10.3177V9.92976L29.9626 9.44484L30.2536 9.25087L30.5446 9.05691H30.8355L31.1265 9.1539L31.7084 9.44484L35.3938 11.7725L35.8787 11.8694L36.0727 11.7725L36.1697 11.5785L35.9757 11.3845L35.5878 10.8996L35.4908 10.7056V10.3177L35.7817 10.1237L37.4304 10.5117L39.0792 10.3177L39.8551 9.92976L40.437 9.83279L40.8249 9.7358L42.5706 10.2207L43.5405 10.4147L44.4133 10.3177L44.8983 10.2207L45.2862 10.1237L45.4801 9.92976L45.7711 9.34786L45.9651 8.66898L46.0621 8.18405L46.2561 8.08706L47.0319 7.21421L47.6138 6.14738L48.4867 5.08054L48.9716 4.88657L49.9415 4.7896L50.4264 4.59562L51.0083 4.01372L52.0751 2.46196L52.851 1.88007L53.8208 1.58911L58.864 1.0072L68.2715 1.78308L69.7262 2.55895L70.1142 4.1107L71.6659 4.88657L77.0001 13.5182L78.2609 14.1001L79.5217 14.0031L80.7825 13.5182L81.9463 12.6453L83.0131 11.5785L83.4011 11.3845H84.08L84.5649 11.5785L85.7287 12.1604L86.8925 12.4514L88.3473 13.5182L90.093 13.9061L90.5779 14.1001L91.3538 14.682L91.5477 14.876L91.3538 15.2639L91.2568 17.1066L91.1598 17.8825L91.2568 18.6584L92.0327 19.3373L93.1965 19.7252L94.4573 19.9192L95.7181 19.8222L96.688 19.1433L97.1729 18.4644L98.0457 16.6217L98.5306 15.8458L99.2095 15.2639L108.132 9.92976L111.624 8.66898L115.212 8.37802L118.994 8.95992L126.85 6.72929L128.402 5.46849L131.602 2.268L133.154 1.58911L138.585 0.813232L139.652 1.39514L140.428 3.62577L141.204 6.34134L142.077 8.57199L146.732 10.8996L148.478 12.7423L148.575 16.2337L147.993 18.1734L147.896 19.1433L147.993 20.0161L148.284 20.598L150.223 22.5377L155.364 30.4905L157.206 31.8482L161.474 33.7879L163.607 35.1457L165.45 36.7945L167.099 38.9281L168.844 41.9346V42.1286L169.717 43.6803V44.9411L170.008 45.4261L171.172 44.6502V44.6502Z" fill="#FFE300"/>
</svg>
