<svg width="203" height="147" viewBox="0 0 203 147" fill="none" xmlns="http://www.w3.org/2000/svg">
<path d="M61.1583 119.837L68.82 120.806L72.5055 120.127H74.1542L75.8029 121.485L78.0336 120.418L79.3914 120.321L79.8763 121.097L80.4582 121.679L82.8828 121.485L83.5617 122.455L82.5918 123.522L60.0914 119.837L60.4794 119.352H60.6734L61.1583 119.837V119.837ZM202.077 104.222L202.853 104.707L201.98 105.677L199.167 111.302L197.809 113.145L196.549 114.502L194.415 115.278L193.057 116.345L191.214 116.83L189.954 117.8L187.917 118.77L186.947 118.382L187.044 117.703L188.79 115.666L190.632 114.502L190.535 114.211L190.245 113.436L195.87 111.69L198.682 110.235L200.137 107.229L201.398 105.774L201.98 104.513L202.077 104.222ZM34.9725 112.369L35.7484 112.854L34.4876 112.66L32.257 111.496L12.6661 107.326L4.22845 104.028L2.5797 102.573L1.12493 100.149L0.737032 98.8879L0.25211 96.9482L0.15509 95.4935L1.12493 95.8814L1.99782 99.1789L2.87064 101.506L4.13149 103.058L6.2651 104.319L23.6253 108.586L30.6082 110.332L34.9725 112.369V112.369ZM145.147 8.49844L146.505 12.2808L149.22 21.2034L149.802 22.5612L149.899 23.1431L149.996 24.4039L150.093 24.6948L150.19 24.8888L150.578 25.0828H150.869H151.16L151.645 24.8888L152.227 24.4039L152.421 24.3069L153.196 24.2099L153.487 24.3069L154.263 24.6948L154.845 24.8888L155.33 24.6948L155.427 24.5009L155.718 23.919L156.203 23.2401L156.3 22.9491L156.397 22.3672L156.494 22.0763L156.688 21.8823L157.173 21.6883L160.858 21.3004L161.246 21.3974L161.44 21.7853L161.343 22.1732L161.052 22.4642L160.276 22.7551L159.888 23.1431L159.791 23.822L159.694 24.5009L159.791 25.0828L159.888 25.3737L160.276 25.7617L161.052 26.3436L161.149 26.6345L161.246 26.9255V27.5074L161.149 27.8953L161.052 28.0893L160.761 28.3802L160.664 28.5742L160.567 28.8652V29.447L161.052 31.5807V32.1626L160.858 33.8113L160.955 34.6842V35.2661L161.246 36.333V36.9149L161.343 37.2058L161.537 37.4968L162.022 37.7877L162.701 37.9817L162.992 38.1756L163.186 38.5636L164.059 42.249L164.156 44.9646L164.253 45.4495L164.35 45.7405L164.544 45.9344L165.029 46.2254L165.707 46.3224L165.998 46.5163L166.095 46.8073L166.289 47.1952L166.483 47.9711L166.58 49.1349L166.677 49.3289L166.871 49.6198L167.162 49.8138L168.52 50.1048L169.005 50.3957L169.684 50.8806L170.169 51.1716L172.69 52.0444L172.981 52.1414L173.175 52.4324L173.369 52.9173L173.951 55.4389L174.242 55.9238L174.63 56.2148L175.018 56.3117L175.6 56.4087L175.891 56.5057L176.279 56.7967L176.473 57.2816L176.667 57.7665L176.958 59.0273V59.6092L176.861 59.9971L176.667 60.1911L175.212 60.773L174.727 60.87L174.436 61.064L174.339 61.161L174.145 61.7429V63.5856L173.951 64.0705L173.563 64.5554L173.369 65.0403L173.078 66.0102L172.69 66.4951L172.496 66.5921L172.011 66.7861L171.624 67.077L171.333 67.5619L171.042 68.0469L170.848 68.2408L170.363 68.3378L168.908 68.4348L168.423 68.5318L168.229 68.7257L167.938 69.1137L167.841 69.6956L167.938 70.5685L168.035 70.8594L168.326 71.0534L168.811 71.2473H169.199L169.684 71.0534L169.975 71.1504L170.945 71.9262L171.333 72.1202L171.721 72.2172L172.884 72.4112L173.272 72.6051L173.563 72.8961L173.854 73.575L174.048 74.3509L174.145 75.1267L174.048 75.7086L173.951 75.9996L173.369 76.5815L173.078 77.0664L172.981 77.5513V78.1332L173.369 78.8121L174.63 80.8488L174.921 81.7217L175.115 81.9156L175.406 82.1096L175.891 82.2066L177.734 82.1096L180.255 82.3036L180.546 82.4975L180.74 82.6915V83.1764L180.643 83.4674L180.449 83.7583L180.061 84.0493L179.964 84.3402V85.4071L180.061 85.6011L180.255 85.698L180.934 85.795L183.456 85.5041L183.844 85.6011L185.007 86.6679L185.783 87.1528L186.171 87.2498L187.044 87.7347L187.626 88.0257H189.081L189.469 88.3166L189.76 88.9955L191.117 94.6206V95.0085V95.3965L190.826 96.2693L190.729 96.8512V97.4332L191.02 98.9849V99.2758L191.117 100.731L191.602 101.216L193.542 101.603L191.893 103.446L189.566 104.901L184.425 106.162L183.941 106.259L183.262 105.968L182.971 105.483L182.874 104.901L182.777 104.61L182.195 104.901L181.807 105.58L181.71 106.55L181.516 107.229L179.188 108.392L178.994 108.683L178.121 110.041L177.831 110.72L177.734 111.593L177.831 112.175L178.121 113.436L178.412 118.382L178.703 119.546L179.188 120.806L181.128 130.117L181.613 131.184L182.292 132.057L182.777 133.026L185.589 140.688L188.014 145.343L186.656 146.216L184.716 143.016L184.231 141.658L183.553 138.749L183.068 137.585L182.777 137.003L182.195 136.324L181.613 135.742L181.031 135.645L180.643 136.033L180.449 136.518L180.352 137.197L179.964 137.779L179.576 138.264L179.091 138.555L178.606 138.749L178.025 138.845L177.734 138.458L177.831 137.682L178.897 133.608H178.8L178.606 133.414L178.509 132.929V132.541L178.606 132.445L179.091 132.057L179.382 131.96L179.576 131.572L179.673 131.184L179.382 130.893H179.188L178.509 130.311L178.315 130.117L177.928 129.438L177.831 128.662V126.916L177.637 125.656L177.346 123.813L176.861 122.164L176.279 121.485L175.6 121.679L175.309 122.358L175.115 123.134L174.63 123.522L174.242 123.231L172.593 121.679L172.399 120.515L171.624 119.352L170.654 118.285L169.684 117.703L170.169 117.024L170.848 116.539L172.981 115.957L174.242 116.054L174.63 116.345L175.309 117.412L175.794 117.703L176.473 117.121V115.86L175.988 114.405L175.6 113.436L174.048 111.884L171.624 110.429L169.199 110.138L167.453 111.884L167.259 113.533L167.55 115.084L167.938 116.539L168.229 117.897L167.938 118.964L165.126 124.686L163.962 125.753L161.828 124.88L160.082 127.013L159.016 126.722L159.597 124.977L159.016 124.201L157.658 124.007H156.203L155.718 123.522L156.009 122.552L156.591 121.388L157.173 120.903L157.852 121L158.434 121.582L158.919 121.776L159.404 120.903L158.337 120.031L157.755 118.77V117.412L158.24 116.054L160.082 114.502L160.761 114.599V114.987L160.567 115.375L160.47 115.763L160.664 117.121L161.052 116.345L161.731 114.987L162.313 114.502L162.507 115.278L163.089 116.83L163.865 117.8L164.156 116.83L164.253 116.054L164.835 115.084L164.932 114.211V112.078L164.738 111.302L164.059 110.526L163.38 109.944L162.798 109.653L162.507 110.041L162.216 110.623L161.925 111.884L160.179 113.145L158.24 112.66L154.554 109.653L151.354 108.004L150.869 107.81L150.675 108.295L150.287 108.683L149.899 109.168L149.802 109.653L150.19 110.138L151.451 110.332L151.936 110.72V111.787L151.742 113.824L151.257 115.763L150.675 116.539L150.19 116.248L150.093 115.375V113.436L149.899 112.466L149.705 111.981L146.892 106.259L145.632 104.222L143.983 102.767L142.916 102.476L142.334 103.058L142.14 104.319V106.259L142.431 107.423L143.11 108.392L145.05 110.235L142.819 112.563L142.722 113.048L142.528 112.757L142.14 111.884L142.431 110.235V109.653L142.043 108.974L141.461 108.295L140.88 108.198L140.589 108.877L140.395 109.75L139.813 110.041L138.358 109.653V110.235L139.231 110.817L139.813 111.205L140.395 111.302L140.782 111.69L141.267 113.436L141.558 114.211V114.793H140.976L139.91 114.502H139.619L139.037 114.599L138.746 114.502L138.649 114.114L138.358 113.048V112.854L137.776 112.757L137.388 112.951L137.097 113.242L136.612 113.533L136.321 113.824L136.03 113.921L135.836 113.727L135.545 113.048L135.254 112.854L134.576 112.078L133.218 108.877L132.733 108.101L131.569 107.907L128.465 106.55H127.787L127.011 106.938L126.429 107.132H125.265L124.683 107.035L124.392 106.841L124.004 105.968L123.034 105.483L121.871 105.289L121.095 105.386L120.222 106.065L119.543 106.938L118.864 107.423L117.797 107.132H116.342V107.617H116.439L116.051 108.198L116.536 111.011L115.954 112.951L114.209 114.793L113.433 113.242L112.56 112.369L111.202 112.854L110.038 113.921L109.069 114.987L108.972 116.151L110.426 117.121V117.703L108.972 117.8L107.614 118.188L107.129 119.158L108.196 120.806H107.711L106.547 120.321H103.25L102.765 119.934L101.116 117.703L99.6611 116.442L98.3033 116.151L97.1395 117.703L96.9455 117.315L96.6546 117.218H96.3636L96.0727 117.121L96.9455 116.248L97.5275 115.181L97.4304 114.308L96.2667 113.921L91.9993 114.502L92.3873 113.436L92.5812 112.466L93.0661 107.132L91.9024 108.489L90.9325 110.623L89.8657 112.563L88.2169 113.436L87.732 113.533L87.0532 113.921H86.5682L85.9863 113.727L84.9195 112.854L81.719 111.302L82.2039 113.533L81.428 114.599L75.8029 115.569L75.124 115.472L74.6391 115.375L74.1542 115.084H73.8632H72.6025H72.1175L69.208 114.017L67.9472 113.921L67.1714 114.114L65.1346 115.181L58.3457 116.345L57.8608 116.539L57.2789 116.927L56.406 117.897L56.0181 118.188L53.7875 118.576L43.0222 115.375L41.8584 114.599H41.1795L40.8885 114.502L40.7916 114.211L40.5976 113.242L40.3067 112.272L40.1127 111.205L39.8217 110.72L40.7916 109.847L41.0825 109.362L41.2765 108.586L39.6278 109.265L38.27 109.459L36.8152 109.168L34.4876 108.295L33.7117 108.198L33.0328 107.81L30.9961 105.095L29.4444 103.834L27.7956 104.513L25.0801 103.058L20.6188 99.6638L20.5218 100.537L20.8128 101.506L20.9098 102.476L20.5218 102.767L17.1274 102.67L16.1575 102.379L15.2847 101.797L14.6058 100.925L14.3148 99.7608L14.9937 98.694L16.0606 97.9181L16.9334 97.4332L18.0972 97.3361L21.0067 98.0151L25.0801 97.2392L25.565 96.8512L28.3776 94.2327L29.0564 94.1357H29.7353L30.1233 93.8447L29.6384 92.9719L27.2138 89.5774L26.3409 89.1895L24.4012 89.3834L21.9766 88.9955L16.9334 86.9588L18.8731 83.8553L19.358 84.0493H23.9163L28.5715 85.1161L31.675 84.6312H32.8388L38.6579 85.989L41.6644 87.8317L43.7981 88.4136L46.2227 88.2196L48.2594 87.2498L49.7142 85.698L48.7443 84.2433L50.1991 82.2066L53.9814 79.0061L54.9513 78.3272L57.4729 78.0363L58.3457 77.4543L59.2186 76.5815L60.0914 75.9026L60.8674 75.2237L61.4492 73.8659L60.1885 74.5448L58.7337 75.6116L57.2789 76.3875L56.0181 76.0966L48.7443 80.1699L44.8649 80.7518L41.2765 78.7152L40.4036 77.4543L40.1127 77.1634L39.5308 77.4543L38.6579 78.5212L38.076 78.7152L37.4941 78.8121L36.4273 79.2001L35.9424 79.2971L34.6816 80.8488L33.9057 80.0729L33.1298 77.2604L32.257 76.5815L28.9595 75.9026L27.9896 75.5147L27.3107 74.6418L26.4379 73.284L25.759 71.7323L25.4681 70.4715L25.1771 68.9197L24.8861 68.2408L24.9831 67.8529L27.6987 67.9499L28.4745 67.6589L28.9595 67.174L29.8324 66.4951L30.3173 66.3981L30.7052 66.3011L31.2871 66.3981L32.1599 66.98L32.8388 67.174H33.4207L35.0695 66.6891L36.0393 66.3011L36.4273 66.0102L36.7182 65.6223L36.9122 65.3313L37.3971 64.3614L37.979 62.9067L38.076 62.5187L38.27 62.1308L38.7549 61.7429L39.0459 61.5489L39.4338 61.355L40.1127 61.258H40.6946L43.7981 62.4218L45.2528 62.5187L45.6408 62.4218L45.9317 62.2278L46.0287 62.0338L46.7076 60.0941L46.9016 59.7062L47.2895 59.2213L47.6775 59.0273L49.5202 58.5424L50.684 58.4454H50.9749L51.1689 58.5424L51.3628 58.7364L51.6538 59.5122L52.0417 59.7062L52.5267 59.8032L54.4664 59.6092L54.8543 59.5122L55.1453 59.3183L55.4362 58.9303L55.6302 58.2514V57.9605V56.7967L55.7271 56.4087L55.9211 56.3117H56.2121L56.406 56.4087L56.794 56.7967L56.988 56.8937L57.4729 56.9907L57.6668 57.0876L58.0548 57.2816L58.6367 57.3786H60.7703L61.1583 57.4756L61.5462 57.7665L61.8372 57.9605L63.001 58.3484L63.292 58.4454L63.5829 58.8333L63.9708 59.5122L64.2618 59.9002L64.4557 60.0941L64.8437 60.2881H65.4256L68.3351 59.9002L70.9537 59.9971L71.2447 59.9002L71.7296 59.6092L75.9 58.1544L76.7728 57.6695L77.3547 57.2816L77.1607 57.0876L76.9668 56.9907L76.4818 57.0876L76.1909 56.9907L75.706 56.6997L75.318 56.6027L72.4085 56.8937L71.1477 56.7967L70.7597 56.6027L70.3718 56.4087L70.1778 56.2148L70.0809 55.9238V55.6328L70.3718 55.2449L70.6628 55.1479L75.9 54.2751L76.3849 54.0811L77.5486 52.7233L78.3246 52.3354L80.4582 51.7535L81.0401 51.4625L81.3311 51.0746L81.2341 50.8806L80.9431 50.4927L80.5552 50.2987H78.6155L78.4215 50.2017L78.0336 49.8138L77.8396 49.3289V48.747L77.7426 47.8741L77.8396 47.4862L78.0336 47.0982L78.6155 46.6133L79.1004 46.4193L79.4883 46.7103L79.7793 47.0982L80.0703 47.4862L80.3612 47.7771L81.816 48.747L81.9129 48.65V48.1651L82.01 47.7771L82.2039 47.4862L83.1738 46.4193L83.5617 45.7405L83.7557 45.1585V44.9646L83.6587 44.6736L81.2341 42.346L78.1306 40.5033L77.5486 40.4063L76.7728 40.5033H76.4818L76.2879 40.3093L76.1909 40.1153L76.0939 39.3395L75.9969 38.7576L75.9 38.2726L76.0939 37.6907L77.0637 36.4299L78.4215 33.4234L78.9064 32.0656L79.1974 31.6777L79.4883 31.5807L79.6823 31.6777L80.2642 32.3566L80.3612 32.4536H81.622L82.3979 32.3566L82.7858 32.1626L83.0768 31.9687L84.6285 30.126L85.0164 29.932L85.3074 29.835L85.5984 29.932L86.2772 30.3199L86.5682 30.4169H86.9561L87.2471 30.2229L87.3441 29.932L87.5381 29.3501L87.829 28.6712V28.4772L87.732 28.1863L86.5682 26.1496L86.2772 25.3737L86.0833 24.8888V24.3069L86.1803 23.628L86.4712 22.6581L86.9561 21.2034L87.1501 20.5245V20.0396V19.5547L86.9561 18.7788L85.7923 16.1602L85.6954 15.9662L85.4044 15.8692L85.2104 15.7723H83.3677L82.7858 15.5783L82.3979 15.1904L82.1069 14.8024L81.9129 14.3175V14.1235L82.2039 13.4446L82.9798 12.2808L83.1738 11.8929L83.3677 11.214L83.4647 10.7291L83.6587 10.6321L83.8526 10.7291L83.9496 10.923L84.5315 12.0868L84.8225 13.1537L84.9195 13.3477L85.0164 13.5416L85.5984 13.7356L86.6652 13.6386L87.1501 13.4446L87.3441 13.2507L87.4411 12.9597V12.3778L87.0532 11.5049L86.9561 10.923V10.5351L87.0532 9.85621L87.2471 9.2743V8.5954L87.0532 8.20747L86.8592 7.62555L86.4712 6.84969V6.36477V6.07383L86.8592 5.20094V4.91L86.6652 4.42508L86.3743 4.13414L85.5984 3.45524L85.3074 2.97031L85.2104 2.48539L85.1135 1.90348L85.2104 0.933634L85.3074 0.254761L89.3807 1.41856L89.6717 1.51555L90.4476 2.19445L90.8355 2.58238L94.8119 3.35824L95.6847 3.74618L96.2667 4.03715L96.4606 4.52207L96.6546 5.29793L96.8486 5.78286L96.9455 5.97684L97.3335 6.36477L97.8184 6.84969L98.4003 7.14063L98.6913 7.23762H99.0792L99.3701 6.94668L99.5641 6.7527L99.6611 6.26778L99.9521 5.78286L100.34 5.5889L106.062 4.42508L106.547 4.2311L106.935 3.84317L107.032 3.55223V2.97031L106.838 2.19445L106.935 1.90348L107.032 1.70953L107.517 1.51555L110.717 0.836644L111.008 0.933634L111.396 1.03062L111.784 1.41856L111.978 1.70953L112.075 2.09746V2.29141L111.59 3.26125L111.396 3.84317V4.13414L111.59 4.61906L111.881 5.68587L112.075 5.87985L112.366 5.97684L113.627 5.87985H114.015L114.306 6.17079L114.597 6.65571L114.888 7.52859L114.985 7.72254L115.664 7.91652L120.901 7.52859L127.69 5.68587H128.95L137.291 8.40145L142.625 8.88637L145.147 8.49844V8.49844Z" fill="#FFE300"/>
</svg>
