<svg width="95" height="178" viewBox="0 0 95 178" fill="none" xmlns="http://www.w3.org/2000/svg">
<path d="M56.6533 4.59971L57.4292 4.98765L57.7202 5.2786L58.399 6.34544L59.1749 6.92733L59.5629 7.21829L59.8538 7.99417L60.0478 8.47909L60.3387 8.86702L60.7267 9.25497L61.1146 9.35194L62.1814 9.6429L62.6664 9.93386V10.2248L62.2784 10.6127L61.1146 11.2916L60.6297 11.5826L60.2417 11.9705L59.9508 12.4555L59.6599 13.0374L58.593 16.9167V17.5956L58.69 17.9836L58.981 18.1775L59.4659 18.5655L59.8538 18.6625L61.3086 18.9534L61.7935 19.2444L61.9875 19.4383L62.1814 19.8263L62.3754 20.7961L62.5694 21.1841L62.8603 21.572L63.4422 22.0569L65.7699 23.4147L67.5156 24.7725L68.0005 25.0634L68.1945 25.2574L68.2915 25.5484L68.0975 25.8393L67.8065 26.3242L67.7096 26.6152L67.8065 26.9061L68.0005 27.1001H68.3885L68.9703 27.0031L69.2613 27.1001L69.5523 27.2941L69.8432 27.973L70.1342 28.3609L70.6191 28.6519L71.6859 28.9428L72.1708 29.3307L72.2678 29.6217L72.3648 29.9127L72.4618 30.9795L72.5588 31.3674L72.9467 31.5614H73.1407L75.5653 31.8523L75.8562 31.7554L76.0502 31.6584L76.3412 31.1734L76.7291 30.2036L77.214 29.5247L77.602 28.7488L77.7959 28.5549H78.1839H78.4748L78.7658 28.8458L78.9598 29.2338L79.0567 29.9127V30.4946L78.8628 32.4342V32.8222L78.9598 33.1131L79.1537 33.5011L79.5417 34.083L80.4145 35.0528L80.9964 35.9257L81.1904 36.6046V37.2835L81.0934 37.6714L80.8025 37.8654L80.3175 38.1563L80.1236 38.2533L80.0266 38.5443V38.8352L80.1236 39.2231L80.8025 39.8051L80.9964 40.096L81.0934 40.29L80.9964 40.6779L80.3175 41.5508L80.0266 42.1327L79.7356 43.0056L79.6386 43.4905L79.7356 43.7814L79.9296 44.0724L80.3175 44.3633L81.3844 44.8482L81.5783 44.9452L81.7723 45.2362L81.9663 45.6241L82.0632 46.4L81.9663 47.3698L81.7723 48.0487L81.5783 48.2427L80.7055 48.3397L80.4145 48.5337L80.0266 48.9216L79.7356 49.3095L79.3477 49.6975L78.7658 49.7945L78.3778 49.8914L75.7593 49.4065L75.5653 49.5035V49.7945L75.6623 50.2794L77.214 52.9949L77.408 53.5768L77.505 54.1588V54.3527L77.311 54.5467L77.0201 54.6437L76.0502 54.7407L75.7593 54.8376L75.6623 55.0316L75.5653 55.3226L75.3713 57.1653L75.5653 57.5532L75.9532 57.8442L77.8929 58.62L78.1839 58.814L78.3778 59.008L78.5718 59.4929V59.7838L78.3778 60.6567L78.4748 61.2386L78.7658 61.7235L80.2205 63.6632L80.8025 64.5361L80.9964 65.118L81.0934 65.6999L81.1904 65.9909L81.4814 66.4758L81.7723 66.8637L92.9255 70.0642L91.9557 71.325L91.2768 71.519L90.21 71.616L90.016 71.7129L89.919 71.8099L90.113 72.0039L91.0828 72.6828L91.2768 72.9737V73.2647L90.8888 73.8466L90.5009 74.3315L90.016 74.7195L89.5311 75.0104H89.2401L87.8823 74.7195H87.5914L87.3974 74.8164L87.3004 75.1074L86.7185 76.1742L86.6215 76.4652V76.8531L86.7185 77.241L86.9125 77.532L87.1064 77.726L88.4642 78.4049L88.9491 78.6958L89.3371 79.0838L89.725 79.4717L89.919 79.9566L90.113 80.5385V80.8295L90.016 81.3144L89.822 81.8963L88.1733 85.1938L87.6884 85.8727L87.4944 86.1636V86.4546L87.5914 86.7455L87.7853 87.0365L88.3672 87.6184L88.5612 87.8124V88.2003L88.4642 88.6852L87.9793 89.3641L87.5914 89.655H87.2034L86.7185 89.3641L86.4275 89.2671L85.8457 89.3641L85.6517 89.4611L85.4577 89.849L85.2637 90.4309V91.6917L85.3607 92.1767L85.4577 92.5646L87.0094 93.7284L87.2034 93.9224L87.3004 94.2133V94.4073L87.0094 94.6982L86.3306 95.1832L86.1366 95.3771L86.0396 95.6681L85.9426 96.056L86.0396 96.6379L86.2336 96.9289L86.4275 97.1228L86.7185 97.3168L87.3974 97.4138H90.6949L90.8888 97.6078L91.1798 98.0927L91.3737 98.5776L91.7617 99.6444V99.9354L91.6647 100.226L91.3737 100.42L89.725 101.002L89.5311 101.293L89.4341 101.681L89.5311 102.166L89.725 102.457L89.919 103.039L90.016 103.33L90.113 104.203L90.3069 104.785L90.7918 105.076L91.6647 105.27L91.8587 105.464L92.0527 105.657L92.1496 105.851V106.239L92.0527 107.015V107.791L92.2466 108.276L92.4406 108.47L93.1195 109.343L93.4104 110.022V110.41L93.2164 110.798L92.8285 111.38L92.5376 111.864L92.3436 112.349L92.2466 112.931L92.3436 113.707L92.6346 114.192L93.2164 115.065L93.5074 115.55L93.6044 116.132V116.811V117.49L93.7014 118.071L93.7984 118.653L93.9923 119.235L94.0893 119.429L93.9923 119.817L93.7984 120.108L93.2164 120.399L92.8285 120.496L91.0828 120.593L89.822 121.175L89.4341 121.563L88.3672 122.921L88.0763 123.212L87.4944 123.309L86.9125 123.212L86.3306 122.921L85.8457 122.63L84.7788 121.854L84.1969 121.563L83.2271 121.466L82.9361 121.369L82.3542 120.981L81.4814 120.399L80.7055 120.011L79.3477 119.72L79.0567 119.914L78.6688 120.302L77.505 122.436L77.1171 122.727L76.8261 122.824L74.4985 122.436H73.2377L72.9467 122.727L72.5588 123.115L72.1708 124.181L71.9769 124.763L71.7829 125.248L71.6859 125.539V126.218L71.5889 126.606L71.298 126.994L70.4251 127.382L70.2312 127.576L69.9402 128.061L69.7462 128.934L69.4553 129.613L69.0673 130.001L68.6794 130.292L68.0975 130.873L67.7096 131.067L67.5156 131.358L67.4186 131.746L67.1276 132.813L66.8367 133.104L66.7397 133.492V133.88L66.9337 134.656L67.1276 135.044L67.6126 135.82L67.7096 136.014V136.305L67.6126 136.693L67.3216 137.08L67.0307 137.274L66.5457 137.565L66.3518 137.759L66.2548 138.147L66.3518 138.535L66.5457 139.408L67.1276 140.378L67.5156 141.736L67.7096 142.9L67.8065 143.481L68.0005 147.943L68.1945 149.01L68.5824 150.076L68.8734 150.561L69.1643 151.046V151.337V151.628L68.8734 151.919H68.5824H68.0005L67.7096 152.016L67.6126 152.307V153.083L67.7096 153.956L67.9035 154.344V154.732L67.8065 156.574L67.4186 158.611L66.2548 162.975L65.5759 163.46L64.897 164.818L64.3151 165.303L63.6362 165.4L63.1513 165.012L62.6664 164.527L62.1814 164.139L60.0478 163.751L58.884 163.945L58.981 165.012L59.4659 165.303L60.0478 165.4L60.3387 165.788V166.855L60.0478 167.534L59.6599 167.824L59.0779 167.921L58.496 168.018L57.8171 167.824L56.6533 167.049L56.0714 166.855H54.2287L53.9378 167.146L53.2589 168.212L52.9679 168.6L52.386 168.697L50.0584 168.503L48.9916 168.115L48.3127 168.018L48.0217 168.212L47.8278 168.503L47.6338 168.6L47.2458 168.309L46.567 167.437L44.5303 166.952H43.3665L42.2996 167.437L41.5238 168.406L40.9419 169.376L40.166 170.055L38.8082 170.249L37.8384 169.764L37.0625 168.6L36.7715 166.952L37.1595 165.303L36.5776 164.915L35.9956 164.721L35.5107 164.818L34.9288 165.303L34.6379 165.982L35.0258 167.146L34.9288 168.018L34.1529 169.376L33.3771 169.473L32.8922 168.503L32.6982 167.146L32.4072 166.37L31.8253 165.788L31.1464 165.885L30.8555 166.661L31.0494 167.243L32.1163 168.406L32.3102 168.891L32.0193 170.249L31.4374 170.734L30.5645 170.637L29.7886 170.249L27.849 168.794L26.5882 168.503L25.5213 169.376L25.6183 170.249L26.6851 170.831L28.6248 171.413L29.5947 172.092L30.4675 172.965L30.6615 173.838L29.5947 174.128L27.752 174.225L27.1701 174.128L26.9761 173.838L26.6851 173.256L26.2972 172.868L25.7153 172.965L25.2304 174.128L26.0063 176.941L25.1334 177.426L23.9696 177.329L23.0967 177.038L22.3208 176.359L21.642 175.292L20.6721 172.965L20.2842 172.383L18.9264 171.025L17.8596 170.443L15.338 171.122L14.3681 170.734L13.1073 172.189L12.2345 170.249L11.8465 169.182L11.6526 168.503L11.7496 168.212L12.2345 168.018L12.4284 167.921L12.6224 167.534L12.4284 167.34L11.7496 166.952L11.2646 166.467L10.9737 166.273L9.90684 165.594L9.51891 165.4L9.13098 165.012L9.03399 164.624V164.333L9.13098 164.042L9.51891 163.266L9.6159 162.781V161.908L9.42192 161.811L9.32494 161.908L8.93699 162.296L8.74303 162.49L8.45207 162.393L7.96715 162.102L7.77318 161.714V161.424L7.87018 160.648L7.77318 160.454L7.48223 160.357L7.19129 160.26L6.70637 160.163L6.31842 159.969L5.63953 159.387L5.34857 158.902L5.2516 158.514L5.34857 157.835L5.63953 156.962L5.73652 156.283V154.635L5.8335 154.053L6.02746 153.471L6.12445 152.986L6.02746 152.695L5.73652 152.307L5.05762 151.531L4.96064 151.143L4.86365 150.852L5.05762 150.561L5.44556 149.882L5.54254 149.3L5.63953 149.107L5.8335 149.01L6.41541 148.913L6.70637 148.719L6.80334 148.428V148.234L6.51238 148.04L5.44556 147.652L5.05762 147.264L4.28175 146.1L4.18476 145.712V145.324L4.37873 142.706L4.5727 141.639V141.251L4.47572 140.96L4.28175 140.766L3.50588 140.96H3.11793L3.02095 140.766V140.475V140.184L3.40889 139.311L3.50588 138.826V138.147L3.40889 137.662L3.21492 137.371L2.82699 136.693L2.73 136.305L2.92396 136.111L3.40889 135.82L3.60285 135.626L3.69984 135.238L3.60285 134.753L3.31191 134.074V133.783L3.50588 133.589L4.18476 133.395L4.47572 132.813V132.716L4.37873 132.231L3.79683 131.261L3.40889 130.389L3.31191 129.807V129.419L3.60285 128.934L3.9908 128.449L4.47572 127.964L4.76668 127.673L4.86365 127.285L5.05762 126.703V126.315L4.96064 125.733L4.08777 123.891L3.9908 123.406V123.018L4.08777 122.339V121.951L4.47572 121.078L4.5727 120.69L4.47572 120.399L4.37873 120.108L3.79683 119.429L3.60285 119.138L3.31191 118.459V118.071V117.587L3.60285 116.326V115.55V114.871L3.69984 114.483L3.79683 114.192L3.9908 113.901L4.37873 113.513L4.86365 113.319L5.63953 113.028L5.8335 112.737L5.93049 112.349V111.477V110.992L6.02746 110.604L6.31842 109.925L6.51238 109.343V108.955L6.41541 108.664L5.8335 107.791L5.44556 107.112L5.2516 106.53L5.15461 106.142L5.2516 105.657L5.44556 104.688V104.3V103.815L5.05762 102.263L4.96064 101.487V100.614V100.129L4.86365 99.8384L4.66969 99.6444L3.31191 98.6746L3.11793 98.3837L2.92396 97.8987L2.43904 95.6681L1.95412 94.2133L0.984276 92.1767L0.69332 91.2068L0.596344 90.7219V90.3339L0.69332 89.849L1.4692 88.0063L1.66316 87.6184L2.05111 87.3274L3.50588 86.5516L3.79683 86.0666L3.9908 85.7757L4.18476 84.8058L4.37873 82.6722L4.47572 81.9933L4.66969 81.4114L5.05762 81.0234L5.63953 80.4415L5.8335 80.1506L6.02746 79.7626L6.22144 79.0838V78.5988V78.2109L5.8335 77.823L4.37873 76.5622L3.9908 75.9803L3.69984 75.3983L3.60285 74.9134V74.5255L3.69984 74.2345L3.89381 73.7496L4.28175 73.2647L4.86365 72.6828L5.05762 72.1979L5.15461 71.519L5.2516 69.8702V69.0944L5.15461 68.5124L5.05762 68.2215L4.86365 67.7366L4.5727 67.2517L3.31191 66.2818L2.92396 65.6029L2.63301 64.924V64.5361L2.73 64.1481L2.92396 63.1783L3.02095 62.2085V61.7235V61.2386L2.73 60.7537L2.34207 60.3658L1.66316 59.7838L1.37222 59.4929L1.08127 58.911L0.984276 58.5231V58.1351L1.37222 57.1653L1.56619 56.5834L1.4692 55.9045L1.27523 55.0316L0.79031 53.6738L0.69332 52.9949L0.984276 52.607L1.37222 52.2191L1.76015 51.8311L4.86365 50.8613L5.05762 50.5703L5.15461 50.1824L5.2516 49.5035L5.15461 49.1156L4.86365 48.9216H4.18476L3.79683 48.7276L3.50588 48.5337L3.21492 48.1457L3.11793 47.8548L3.21492 47.5638L3.40889 47.4668L4.37873 46.8849L4.5727 46.6909L4.86365 46.109L5.05762 45.1392V44.7513L4.86365 44.5573L4.18476 43.9754L3.79683 43.4905L3.60285 43.1995L3.69984 42.9086L3.79683 42.6176L3.9908 42.5206L6.02746 42.3266L6.60937 42.2297L6.90033 42.0357L7.0943 41.6478L7.28826 40.9689V40.5809L7.19129 40.29L6.90033 39.8051L6.51238 39.4171L6.02746 39.1262L4.18476 38.5443L3.89381 38.4473L3.69984 38.2533L3.9908 37.9623L5.15461 37.3805L7.77318 36.1197L8.93699 35.3438L9.80986 34.277L12.0405 30.7855L12.4284 30.3976L13.2043 29.6217L13.5922 29.4277L14.0772 29.2338L14.7561 29.1368H15.241L15.9199 29.3307L16.3078 29.4277L17.5686 29.2338L17.9565 29.1368L18.4415 28.8458L19.3143 27.876L19.7023 27.488L20.2842 26.5182L20.4781 26.3242L22.4178 24.8695L22.9028 24.4815L23.1937 24.0936L23.5816 23.2207L24.0666 22.4448L24.3575 22.0569L26.8791 20.2142L27.1701 19.9233L27.364 19.4383L27.461 18.9534V18.3715V18.0805L27.558 17.7896L29.8856 15.9469L30.3706 15.365L30.6615 14.7831V14.4921L30.8555 14.1042L31.1464 13.7162L31.7283 13.2313L31.9223 12.8434L32.1163 12.3585V11.6796L32.2133 11.2916L32.4072 11.0007L32.6982 10.9037L33.2801 11.0007L34.5409 11.4856L34.8318 11.5826L35.1228 11.4856L35.4138 11.2916L35.6077 11.0007V10.6127L35.5107 9.6429V8.96401L35.7047 8.3821L35.9956 7.99417L39.6811 6.44241L40.7479 5.47257L41.0388 5.37559H41.4268L42.4936 5.86051L43.5604 6.44241L44.2393 6.63639H44.6273L45.1122 6.44241L45.5971 6.05448L45.8881 5.76352L46.276 5.2786L47.1488 4.50272L47.5368 4.21178L48.6036 3.72686L49.7674 3.4359L50.2524 3.14495L50.3494 2.85399L50.6403 1.88415L50.8343 1.30225L51.2222 0.914303L51.6101 0.720337H52.386L52.774 0.914303L53.0649 1.10827L53.3559 1.78717L53.4528 2.27209V2.66003V3.4359L53.7438 3.72686L54.0347 4.0178L56.6533 4.59971V4.59971Z" fill="#FFE300"/>
</svg>
