<svg width="114" height="149" viewBox="0 0 114 149" fill="none" xmlns="http://www.w3.org/2000/svg">
<path d="M63.2028 3.37047L67.5671 10.1594L68.44 11.8081L69.4098 14.5237L69.6038 15.1056L69.9917 15.8815V16.2694L69.8947 16.5604L69.6038 17.0453L69.5068 17.7242V18.0151L69.6038 18.597L69.7008 18.888L69.8947 19.4699L70.0887 21.0216L70.1857 21.9915L70.2827 22.2824L70.3797 22.5734L70.6706 22.8643L71.7374 23.2523L72.0284 23.6402L72.2224 24.2221L72.4163 24.998L72.6103 25.8709V26.5497L72.5133 27.2286L72.3193 27.8106L72.1254 28.0045L71.3495 28.6834L71.0586 29.1683L70.9616 29.7502V29.9442L71.3495 31.011L71.4465 31.399V32.0779L71.3495 32.7567L71.2525 33.4356L71.4465 34.0176L71.7374 34.5025L72.0284 34.6964H72.5133L72.8043 34.5995L73.6771 33.9206L74.259 33.7266H74.453L75.5198 34.2115L77.1686 34.5025L77.4595 34.7934L77.6535 35.0844L77.9444 35.6663L78.0414 36.0542L78.1384 36.5392V37.218L78.2354 37.7999L78.5264 38.2849V38.8668V39.1577L78.1384 39.5456L77.9444 39.7396L77.4595 39.9336L77.1686 39.8366L76.5867 39.7396L75.0349 38.8668L74.356 38.7698H73.7741L73.4832 38.9638L73.3862 39.1577L73.2892 39.4487V40.0306L73.4832 40.5155L74.0651 41.0004L75.8108 41.7763L76.2957 42.0672L76.5867 42.6492L76.7806 43.716L76.9746 44.3949L77.7505 45.6557L78.5264 46.3346H79.4962L81.7268 45.9466L82.5027 46.0436L85.4122 47.7893L85.8972 48.3712V49.1471L85.5092 50.5049V51.3778L85.8972 52.1536L87.158 54.1903L87.8369 54.7722L88.2248 54.2873L88.5158 53.3174L88.6127 52.3476L88.8067 51.6687L89.0977 51.0868L89.5826 50.5049L90.7464 49.5351L91.3283 49.3411L92.1042 49.4381V50.02L91.6193 50.9898L91.1343 53.0265L90.8434 55.2571L91.0373 56.7119L92.3951 55.2571L93.6559 55.3541L96.5654 56.7119L95.4016 57.8757L92.3951 58.7486L91.8132 60.1064L92.3951 62.143L93.8499 61.6581L96.5654 58.9425L97.3413 58.8456L97.8262 59.0395H97.9232L98.0202 57.8757L97.9232 56.8089L97.8262 56.13L98.0202 55.6451L99.184 55.5481L99.8629 55.7421L100.445 56.13L101.221 56.324L102.094 56.13L102.191 55.7421L102.094 55.1601V54.6752L102.578 54.4813L102.966 54.5782L103.742 54.9662L104.227 55.0631L103.742 56.227L103.548 56.7119L103.063 57.1968L103.742 58.0697L104.809 59.0395L106.07 59.7184L107.04 60.1064L108.398 60.2033L109.27 60.6883L110.919 62.24L112.374 63.1129L112.762 63.4038L113.344 64.6646L113.247 65.1496L112.956 65.3435L112.762 65.9254L112.665 66.6043V66.7983L112.762 66.8953L113.344 67.5742L113.635 68.544L113.441 69.1259L113.15 69.6108V70.0957L111.113 71.6475L110.434 72.3264L109.949 72.9083L109.658 73.2962L109.367 73.9751L109.27 74.3631V74.751L109.367 75.7208L109.949 77.9515L111.404 81.9278L111.501 82.8007L111.21 89.9775L110.822 92.1112L110.628 92.6931L110.337 93.178L110.143 93.469L109.852 93.566H109.173L108.785 93.275L108.204 92.9841L107.137 92.5961L106.458 92.4021L105.391 92.3052L102.966 92.5961L100.736 93.372L98.7961 94.2449L94.6258 97.4453L89.4856 104.234L89.0007 104.525L88.4188 104.816L87.6429 105.204L86.867 105.786L86.4791 106.174L86.2851 106.562L86.0911 107.144V108.211L86.1881 108.793L86.4791 109.568L86.5761 109.859L86.4791 110.247L86.2851 110.441L85.7032 110.538L85.2183 110.829L84.6364 111.217L81.8238 114.515L81.4359 114.806L80.466 115.097L79.8841 115.387L79.0113 115.969L78.6233 116.454L78.3324 116.842V117.133L78.1384 118.588L77.8475 119.17L75.4229 123.825L75.2289 124.407L75.1319 125.086L75.0349 125.668L75.3259 127.22V128.48L75.4229 129.062L75.9078 130.42L76.1017 130.905L76.9746 131.875L77.1686 132.36L77.2656 132.942V134.687L77.4595 135.463L77.9444 136.53L78.0414 136.724L78.1384 137.306V137.985L77.9444 138.664L75.4229 144.289L75.3259 144.58L75.1319 146.422V146.81V147.78L73.3862 148.071L72.4163 147.392L71.1555 145.453L69.3128 142.155L68.6339 141.282L67.8581 140.506L63.4938 138.858L61.748 137.694L60.7782 136.627L60.4872 135.56V134.59L60.0993 133.33L59.3234 132.263L57.9657 131.099L55.832 129.935L56.026 128.965L56.5109 126.153L56.8018 125.183L59.6144 121.013L59.7114 120.625L59.6144 120.334L57.8687 117.715L54.1833 114.03L53.7953 113.545L53.6014 113.157L53.3104 112.381L53.2134 111.896V111.508V111.12L53.4074 110.538L53.6983 110.053L53.9893 109.568L54.2802 108.889L54.4742 108.405L54.3772 108.017L54.2802 107.726L53.2134 105.98L52.2436 103.943L51.8556 103.458L48.3642 100.161L47.2974 99.385L46.7155 98.8031L46.2305 98.2212L45.9396 97.9303L45.5516 97.7363H44.1939H43.9999L43.8059 97.4453L43.7089 96.4755L43.515 95.5057L43.321 95.0207L43.03 94.6328L42.4481 94.1479L42.0602 93.8569L41.6723 93.566L41.4783 93.663L41.2843 93.8569L40.9934 94.6328L40.5085 95.4087L40.2175 95.7966L39.5386 96.2815L39.0537 96.4755L37.7929 96.6695H36.4351L34.7864 96.2815L34.3984 96.0876L34.0105 95.7966L33.3316 95.1177L33.0407 94.6328L32.8467 94.2449L32.7497 93.9539L32.3618 91.5293L32.2648 90.5594V89.8806L32.6527 87.8439L32.7497 87.5529L32.8467 86.8741V86.5831L32.7497 86.0012L32.5557 85.4193L32.4588 84.5464L32.5557 84.0615L32.6527 83.2856V82.8977V82.3158L32.4588 82.0248L32.1678 81.8309H31.8768L31.3919 81.9278L28.7733 83.6735L27.7065 84.1585L25.3789 84.5464L24.2151 85.3223L23.3422 86.2921L23.1482 86.4861L22.6633 86.7771L22.1784 86.971H21.7905L21.4025 86.8741L20.8206 86.5831L20.5297 86.3891L20.3357 86.0982L20.2387 85.8072L20.3357 85.1283L20.4327 84.5464L20.6266 83.9645L20.8206 83.2856L20.7236 82.8007L20.6266 82.3158L20.2387 81.4429L20.0447 81.055L19.5598 80.4731L19.1719 80.1821L18.687 79.9882L18.0081 79.8912L17.5231 79.6972L17.0382 79.4062L14.0317 76.8846L13.7408 76.4967L13.5468 76.1088L13.4498 75.5269L13.6438 74.46V73.9751L13.4498 73.2962L13.2558 73.0053L12.9649 72.8113L12.383 72.6173L11.7041 72.5203H11.0252L10.4433 72.6173L9.66741 72.9083H9.18249L8.79455 72.8113L7.8247 72.0354L4.43025 67.9621L2.39358 66.9922L0.162933 66.4103L2.49056 57.3908L2.39358 56.7119L2.29659 55.839L2.10262 55.2571L1.81167 54.7722L1.22976 53.9963L1.03579 53.6084V53.2205V52.9295L1.22976 52.3476L2.49056 46.3346L2.78151 45.6557L3.65437 45.0738L4.81819 44.0069L5.01215 43.813L5.982 42.9401L6.36994 42.2612L6.75788 41.2914L8.11565 37.0241L8.30963 36.7331L8.79455 36.0542L9.76439 35.2783L10.6373 34.6964L11.2192 34.5025L12.092 34.4055L17.4262 35.1813L20.1417 34.9874L20.5297 34.8904L21.0146 34.5995L22.1784 33.5326L22.5663 33.3386H22.8573L23.5362 33.4356L25.4759 34.2115L25.8638 34.1145L26.5427 33.8236L28.9673 32.0779L29.4522 31.8839H29.7432L30.4221 31.9809L32.7497 32.7567H33.1376H33.7195L36.2411 31.5929L36.8231 31.496L38.1808 31.5929L39.4416 31.302L39.9265 31.108L42.2542 29.7502L44.3878 28.8774L44.9697 28.7804H45.2607L45.9396 28.8774L46.1336 28.9744L46.5215 29.0713L47.0064 28.9744L48.0732 28.5864L48.5582 28.1985L48.9461 27.9075L49.2371 27.3256V26.7437L49.1401 26.4527L48.0732 25.095L47.6853 24.5131L47.0064 24.901L46.0366 24.804L44.7758 24.4161L44.3878 24.0281L44.2908 22.0885V21.7005L44.3878 21.4096L44.7758 20.5367L44.8728 20.1488L44.9697 19.8578L44.8728 19.5669L44.5818 19.1789L44.0969 18.888L43.8059 18.791L43.515 18.888L43.224 18.985L42.0602 20.0518L41.5753 20.3427H41.3813H41.0904L40.7994 20.2458L40.5085 19.7608L40.4115 19.4699V19.082L40.5085 18.5L40.7024 18.2091L40.8964 18.0151L41.9632 17.6272L42.5451 17.5302H43.7089L44.4848 17.3362L45.0667 17.0453L45.4547 16.6573L45.9396 15.8815L47.6853 14.0388L47.9763 13.6508L48.0732 13.3599L47.9763 13.0689L47.6853 12.681L46.0366 11.6141L45.8426 11.4202L45.9396 10.9352L46.2305 10.0624L47.8793 7.44383L48.1702 6.86192L48.2672 6.18302L48.0732 5.6011L47.8793 5.01921L47.4913 4.34032L47.3943 4.04936L47.4913 3.56444L47.6853 3.07952L48.1702 2.10967L48.5582 1.62475L48.8491 1.3338L49.0431 1.23682H49.431L51.2737 1.72174H51.9526L56.026 0.654907H56.6079L57.2868 0.848873L57.7717 1.04285L58.2566 1.3338L59.5174 2.40063L59.7114 2.5946L60.0993 2.88555H60.3903L60.8752 2.78856L61.3601 2.98254L61.845 3.27348L62.4269 3.37047H63.2028V3.37047Z" fill="#FFE300"/>
</svg>
