<svg width="225" height="124" viewBox="0 0 225 124" fill="none" xmlns="http://www.w3.org/2000/svg">
<path d="M224.823 32.7723L223.465 34.9059L223.174 35.8758L223.078 36.2637L222.98 36.5546L222.787 36.9426L222.302 37.3305L221.914 38.0094L221.623 38.3973L221.138 38.6883L220.75 39.3672L220.362 40.725L220.071 41.2099L219.78 41.4039L219.489 41.5009L219.004 41.2099V40.434L218.713 39.8521V39.6582L218.616 38.6883L218.519 38.4943H218.325L218.131 38.7853L217.743 39.3672L217.452 39.7551L217.064 39.8521L216.968 39.6582L216.87 39.3672L217.064 38.3004V38.0094L216.87 37.8155L216.676 37.6215L215.998 37.5245H215.707L215.222 37.9124L214.252 39.2702L213.864 39.4642L213.573 39.5612H213.282L212.991 39.3672L212.797 39.1732L212.7 38.9792L212.506 38.1064L212.312 37.9124L212.118 37.7185L211.536 37.5245H211.148L210.857 37.6215L208.724 39.4642H208.433H208.045L207.851 39.2702L207.56 38.7853L207.366 38.5913H207.172H206.881L206.59 38.7853L206.202 39.1732L205.426 40.434L205.329 40.9189L205.62 41.7918L205.911 42.1798L206.105 42.3737L206.59 42.6647L206.784 42.8586L206.978 43.3435L207.269 44.1194L207.657 44.5074L207.851 44.6044L210.857 45.1862L211.148 45.2832L212.312 46.1561L212.894 46.2531L216.095 46.4471L216.289 46.641L216.58 47.1259L216.676 47.7078L216.774 47.9018L217.064 47.9988L219.198 48.4837L219.489 48.6777L219.586 48.8717L219.489 49.1626L219.101 49.5505L218.422 50.1325L217.937 50.3264L217.549 50.4234L216.968 50.5204L216.676 50.7144L214.737 52.751L214.252 53.042L208.627 55.8545L208.142 56.1455L206.687 57.6973L206.299 57.8912H206.008L205.911 57.5033L205.717 57.4063L201.159 59.249L199.607 60.2188L199.413 60.5098L199.219 60.8007V61.4796L199.316 62.1585L199.413 62.5465L199.607 62.6434H200.092L200.286 62.7404V62.9344L200.189 63.5163V63.9043L200.383 64.3892L201.547 67.1047V67.3957L201.45 67.6866L201.062 67.9776L200.868 68.2686L200.771 68.7535L200.868 69.4324L200.965 69.7233L201.159 69.8203L201.644 70.1113L201.741 70.5962V71.2751L202.129 72.9238L202.226 77.0941L202.323 77.773L202.517 78.1609L202.711 78.3549L203.39 78.5489L203.584 78.7429L203.681 78.9368L203.778 79.5188L203.196 83.3011L203.099 83.6891L202.808 83.98L202.129 84.174L201.741 84.271H201.353L201.062 84.368L200.771 84.5619L200.189 85.7258L199.995 85.9197L197.862 87.9564L197.377 88.5383L197.086 88.8292L196.795 88.9262L196.116 89.0232H195.534L195.146 88.6353L194.661 88.0534L194.467 87.9564H194.176L193.982 88.1504L193.788 88.6353L193.497 89.1202L191.267 91.5448L191.17 91.8358L190.685 92.9996L190.297 94.2604L190.103 94.4544L189.909 94.6483L189.618 94.4544L189.424 94.2604L189.327 93.9694L189.133 93.1935V92.6117L189.23 92.3207L189.521 91.6418V91.4478L189.133 89.2172L188.939 88.8292H188.745L188.454 88.9262L188.26 89.1202L187.969 90.575L187.775 91.5448L187.581 92.2237L187.678 92.8056V93.3875L187.775 93.9694L187.678 94.6483L187.387 95.6181L187.193 95.9091L186.805 96.1031L185.545 96.491L183.508 96.297L183.12 96.394L182.732 96.685L181.956 97.2669L181.471 97.7518L181.083 98.2367L180.598 99.2066L180.21 99.7885L179.629 100.176L179.144 100.273L178.756 100.564L178.562 100.758L177.98 102.892L177.398 105.608L176.525 104.929L176.331 104.735V104.444V103.474L176.234 102.989L176.04 102.601L175.07 101.437L174.876 101.049L174.682 100.467L174.585 99.9824L174.391 99.4006L174.197 99.3036H173.906L172.743 100.079L172.452 100.176L171.094 99.8855H170.512L169.833 100.079L169.445 100.273L169.251 100.564L169.154 100.855L169.057 101.437L169.154 102.019L169.348 102.795V103.183L169.154 103.377L168.766 103.668L167.117 103.959L166.924 104.153L166.827 104.444L166.439 105.317L166.342 105.511L166.051 105.608H165.663L165.081 105.317L164.79 105.026L164.596 104.832L164.014 103.959L163.82 103.765H163.529L162.462 104.153L160.232 104.541L159.553 104.929L159.165 105.22L158.971 105.414L158.68 105.899L158.486 106.48L158.389 107.159L158.486 107.741L158.777 108.129L159.068 108.226L159.941 108.42L160.135 108.517L160.232 108.711V109.39L160.135 109.972L159.941 110.166H159.747L158.292 110.36L157.71 110.554L157.516 110.651L157.322 111.136L157.225 111.427L157.419 111.912L157.807 112.59L157.904 113.172L157.807 113.851V114.142L157.904 114.433L158.389 115.015V115.209L158.292 115.403L158.098 115.597L157.031 115.791L156.837 115.888L156.74 116.179L156.643 116.858V117.149V118.409L156.546 118.603L156.449 118.894H156.158L146.848 120.446L146.363 120.349L142.774 119.088L142.58 118.894L141.902 118.797L141.32 118.894L140.738 119.185L140.447 119.282L140.253 119.185L139.283 118.216L137.828 117.343L137.246 117.149L136.373 116.955L134.337 117.246L133.949 117.44L133.658 117.634L133.367 118.022L132.203 119.961L131.524 121.416L130.845 122.289L130.554 122.677L130.263 122.774L129.778 122.968L129.197 123.065L128.809 122.968L128.227 122.774L127.16 122.192L126.675 121.901L126.481 121.513L126.287 121.028L125.802 120.155L125.414 119.67L125.22 119.573L123.959 118.894L123.378 118.313L122.99 118.119L121.05 117.828L120.468 117.925L120.08 118.119L119.886 118.991L119.692 119.185L119.401 119.282H114.746H114.358L114.067 119.088L113.873 118.7L113.776 118.313V117.925L113.873 117.246V116.664L113.291 115.791L113.194 115.209V114.918L113.485 114.433L114.358 112.978L114.649 112.493V112.202L114.552 111.621L114.358 111.136L113.194 109.681L113 109.487L112.806 109.002L112.709 108.129L112.515 107.644L112.224 107.256L111.933 107.159L111.642 107.062L110.285 107.353L109.994 107.256L109.315 106.674L108.636 105.802L106.987 102.892L106.211 101.534L106.114 101.049L106.308 100.952L108.442 99.9824L109.024 99.4975L109.412 99.1096L109.509 98.8186L109.606 98.1397V97.5578L109.315 96.782L108.927 95.4242L108.83 95.2302L108.539 95.0363L108.054 94.9393L105.92 95.4242L105.629 95.3272L105.241 95.2302L104.757 94.8423L104.369 94.7453L103.981 94.6483L103.302 94.7453L102.817 94.5513L102.526 94.3574L101.75 93.4845L101.556 93.3875L101.168 93.2905L100.295 93.6785L100.004 93.8724L99.8103 94.0664L99.7133 94.3574V94.6483V95.5212V95.8121L99.2284 96.1031L98.4525 96.2001H98.1616L97.8706 96.1031L97.6767 95.8121L97.4827 95.6181H97.1917L96.8038 95.9091L96.6098 96.2001L96.5128 96.588L96.4158 97.5578L96.3189 98.1397L96.1249 98.3337L95.9309 98.4307H95.543L95.2521 98.3337L94.9611 98.0428V97.5578L95.2521 96.879L95.446 96.297L95.64 94.5513L95.543 93.9694L95.349 93.5815L94.9611 93.2905L91.9546 93.5815L91.2757 93.7754L90.7907 93.9694L90.5968 94.1634L90.4028 94.2604L90.0149 94.1634L89.6269 93.8724L89.336 93.6785L89.142 93.0966L88.9481 92.9026L88.7541 92.8056L87.8812 93.1935L87.0084 93.8724H86.5234L81.5772 93.1935L80.9953 92.9026L80.7044 92.7086L80.5104 92.3207L80.4134 92.0297V91.7388V90.478L80.3164 90.0901L80.1225 89.8961L78.8617 89.6051L78.4737 89.3142L78.2798 89.1202V88.8292L78.0858 86.6956L77.9888 86.1137L77.6009 86.0167L77.116 85.8227L76.2431 85.7258L75.3702 85.4348L71.4908 85.1438L70.3271 85.2408L68.4843 85.9197L67.8055 86.3077L67.3205 86.7926L67.2235 87.4715L67.0296 88.0534L66.8356 88.2474L66.4477 88.4413L64.7019 89.0232L64.314 89.3142L64.0231 89.7021L63.8291 89.8961L63.4412 90.187L63.0532 90.284L62.6653 90.187L61.8894 89.8961L61.6954 89.6051L61.5015 89.3142V88.7323L61.4045 88.4413L61.0165 88.0534L60.7256 87.9564L60.4346 87.8594L60.0467 87.9564L59.5618 88.3443L59.3678 88.5383L59.1738 88.8292L58.7859 89.8961L58.5919 90.0901H58.301L57.7191 89.8961L57.5251 89.6051L57.3311 89.3142L57.2342 88.7323L56.7492 88.5383L56.0703 88.4413H54.4216L52.8699 88.1504L52.2879 88.2474L49.7663 89.1202L49.0874 89.5081L48.6025 89.7991L48.5056 89.9931L48.3116 90.672L48.0206 91.0599L47.7297 91.2538H47.1478L45.1111 90.7689L42.6865 89.8961L42.2985 89.7991H41.8136L41.3287 89.7021H33.085L32.7941 89.9931L32.4061 91.4478L32.1152 91.9327L31.7272 92.0297L30.1755 91.9327L18.9253 91.3508L16.9856 90.381L15.9188 88.8292L15.1429 86.8895L14.27 85.1438L13.3972 85.4348L12.7183 85.9197L12.2334 86.0167H11.9424L11.6515 85.7258L10.9726 85.0468L10.5846 84.9499L10.2937 85.0468L10.1967 85.2408L9.80875 85.7258L8.64496 87.9564L8.35399 88.2474L8.06304 88.4413H7.7721L7.57812 88.3443L7.28718 88.1504L6.31734 86.8895L5.34749 86.1137L5.05652 86.0167L4.76558 85.9197H4.5716L3.69875 86.3077L2.34097 86.5016L2.24398 85.9197L2.53492 85.2408L2.82589 84.8529L2.92288 84.4649L3.01984 84.174L2.7289 83.4951L2.92288 82.7192L2.82589 82.4283L2.34097 82.2343L0.983194 81.8464L0.498271 81.5554L0.401281 81.3615L0.304291 81.1675L0.595232 80.5856L1.56508 79.1308L1.95304 78.5489L2.34097 77.3851L2.43796 76.9972V76.3183L2.53492 75.6394L2.43796 74.8635L2.53492 74.4756L3.01984 73.7967L4.76558 72.1479L5.92938 70.6932L6.22035 70.2082L6.80226 69.2384L7.19019 68.8505L8.16003 67.9776L8.45098 67.8806H8.9359L9.71179 68.0746L9.90574 68.3655L10.0027 68.6565L9.90574 69.3354L10.0027 69.6263L10.3907 70.3052L10.4877 70.5962L10.7786 71.954L11.0696 72.4389L11.1666 72.6329L11.5545 72.4389L12.1364 71.954L13.3002 70.4992L14.0761 69.1414L14.27 68.8505L14.658 68.6565L16.5007 68.3655L17.1796 67.9776L18.5373 66.1349L20.1861 66.3289L20.865 66.0379L22.2228 64.5831L23.7745 63.4193L24.3564 63.1284L24.8413 63.0314L25.1323 63.1284L25.3263 63.3223L25.6172 63.8073L25.9082 64.0012L26.2961 64.1952L27.072 64.3892H27.4599H27.6539L28.1388 63.7103L35.1217 60.0249L35.3157 59.443L35.4127 58.4731L35.5096 57.9882L35.7036 57.6003L36.0915 57.1153L36.3825 56.8244L36.6734 56.7274L37.9342 56.6304L38.9041 56.8244L39.195 56.9214L39.389 57.1153L39.68 57.6003L39.777 57.7942L40.1649 58.1822H40.4558L44.3352 57.7942L44.9171 57.5033L45.2081 57.2123L45.402 56.6304V55.9515V54.3028L45.3051 54.1088L45.2081 53.9148L44.9171 53.7209L43.8503 53.236L43.4624 52.848L43.6563 52.4601L44.1413 51.7812L46.1779 50.0355L46.5659 49.5505L46.6628 49.2596L47.2447 46.932V46.738L47.1478 46.2531V45.9621L46.8568 45.4772L46.9538 45.0893L47.4387 44.5074L48.6995 43.5375L50.3483 41.9858L52.094 41.0159L52.6759 40.8219H53.0638L53.7427 41.0159L54.5186 40.9189L54.9065 41.0159L55.3914 41.2099L55.7794 41.4039H56.1673L56.8462 41.3069L57.3311 41.4039L57.5251 41.5009L57.816 41.9858L58.01 42.1798L58.398 42.2767L59.0769 42.1798L61.0165 41.6948H61.5015L62.0834 41.8888L64.7989 41.6948L65.3808 41.7918L66.2537 42.1798L67.6115 42.2767L69.1632 42.7616L70.2301 43.3435L70.812 43.8285L71.0059 44.0225H71.6848H72.1697H74.3034L75.1763 43.7315L77.7948 42.1798L78.1828 41.9858L80.1225 41.8888L80.8014 41.9858L81.9652 42.4707H82.2561L83.226 42.3737L83.9049 42.4707L84.6807 42.7616L84.8747 42.9556L85.1657 43.2466L85.5536 44.0225L85.7476 44.2164L85.9415 44.3134L86.2325 44.2164L86.7174 43.6345L87.1053 43.5375H87.7842L89.045 43.1496L90.1118 42.6647L91.8576 42.1798L92.5364 41.6948L92.9244 41.3069L93.3124 40.0461L93.6033 39.1732V38.6883L93.7973 38.2034L93.8943 37.8155L94.4761 37.2335L95.8339 36.0697L96.2219 35.6818L96.4158 35.2939L96.6098 34.324L96.7068 33.8391V32.2873L96.5128 30.7356V29.6687L96.6098 29.0869L96.8038 28.6019L97.2887 28.02L97.7736 27.826L98.2586 27.923L99.9073 28.5049L103.108 28.6019L103.593 28.311L103.884 27.923L104.078 27.3411L104.466 26.7592L104.853 26.4683L105.144 26.3713H106.987L107.375 26.4683L111.642 28.02L113.291 29.1838L113.776 29.7657L113.97 30.1537L114.261 31.0265L114.552 32.3843L114.746 32.7723L115.037 33.1602L115.716 33.2572L116.201 33.0632L116.492 32.7723L116.783 32.2873L117.461 31.7054L117.849 31.2205L118.14 30.6386L118.528 30.2507L119.304 29.7657L121.632 28.9899L121.923 28.7959L122.893 27.826L123.184 27.7291H123.474L123.959 28.02L124.056 28.408L124.25 28.6019L124.541 28.6989L126.093 28.408H126.481L126.675 28.8929L126.966 29.0869L127.354 29.1838H128.324L128.712 28.9899L129.003 28.6989L129.1 28.408L129.488 27.0502L129.585 26.3713L129.682 26.0803L129.488 25.7894L129.003 25.2075L128.906 25.0135L129.003 24.7226L129.197 24.1406L129.488 23.7527L129.778 23.4617L131.718 22.201L132.106 21.813L132.785 20.5522L133.27 19.7763L134.143 18.1276L134.337 17.9336L134.725 17.5457L135.113 17.4487L135.404 17.5457L135.986 17.7397L136.761 17.9336L137.052 17.8367L137.246 17.7397V17.4487L137.052 16.5758L137.149 16.3819L137.343 16.0909L138.022 15.412L138.604 15.2181L139.38 14.5392L139.574 14.4422L139.865 14.5392L140.156 14.6362L140.253 14.9271V15.2181L140.156 15.8L140.253 16.0909L140.35 16.2849L140.835 16.5758L141.029 16.7698L141.126 17.0608L141.223 17.6427L141.417 17.8367L141.611 18.0306L142.192 18.2246L143.065 18.4186H143.744L144.132 18.3216L144.423 18.2246L145.102 17.5457L145.587 17.1578L145.878 17.0608L146.072 17.1578L146.169 17.4487L146.266 17.7397L146.169 19.7763V20.0673L146.266 20.2613L146.654 21.0371L148.69 23.8497L149.078 24.5286L149.272 25.3044L149.369 26.8562L149.466 27.4381L149.66 27.6321L150.048 27.7291H150.824L151.212 27.5351L151.406 27.3411L151.503 26.6622L151.406 26.3713L151.6 25.6924L151.988 25.3044L152.279 25.2075L152.57 25.3044L153.055 25.5954L153.734 26.0803L154.025 26.2743L154.413 26.3713H155.091H155.576L155.867 26.1773L156.837 25.4014L157.322 24.7226L157.613 24.2376L157.904 23.5587L158.098 23.2678L158.486 22.8798L158.777 22.7829L159.165 22.8798L159.747 23.0738L161.104 24.0437L161.783 24.6256L162.559 24.9165H163.432L163.82 24.8195L164.111 24.5286L164.305 24.1406L164.693 23.7527L167.117 21.716L167.505 21.3281L167.699 20.9401V20.2613L167.602 20.0673L167.408 19.9703L166.439 19.6794L166.245 19.4854L166.051 19.2914L164.79 15.703L164.693 15.412V14.8301V12.5995L164.596 11.7266L164.208 9.78693L163.82 8.72013L163.529 8.33217L163.141 7.84724L162.559 7.36232L162.171 6.97439V6.68345V6.39248L163.432 2.90106L163.529 2.61009L164.111 0.282471L177.495 6.8774L183.12 11.1447L183.508 11.5327L183.896 11.9206L184.866 13.4724L185.254 14.4422L185.835 15.412L186.029 15.703L186.417 15.994L191.461 16.4789L191.655 16.5758L191.849 17.3517L192.139 17.6427L192.527 17.8367L193.788 18.2246L194.079 18.5155L194.176 18.8065L194.079 19.0974L193.885 19.2914L193.594 19.3884L192.818 19.5824L192.624 19.6794V19.9703V20.8432V21.1341L192.43 21.3281L192.139 21.716L191.655 22.007L191.558 22.201L191.849 22.4919L192.624 23.1708L192.818 23.3648L193.788 24.6256L193.982 25.1105L194.176 25.3044L195.146 25.9833L195.437 26.1773L195.631 26.5653L195.825 26.7592H196.019L196.504 26.4683L196.989 25.5954H197.571L198.346 25.7894L199.995 26.5653L200.577 27.0502L200.965 27.4381L201.353 27.7291L203.681 28.6989L204.166 29.1838L204.456 29.4748L204.65 29.7657L204.941 29.8627L205.523 29.6687L205.911 29.4748L206.105 29.2808L206.687 28.214L207.075 28.117H207.56L209.5 29.0869L209.888 29.4748L210.47 30.0567L210.664 30.2507L211.051 31.2205L211.245 31.8024V32.2873L211.439 32.4813H211.633L212.021 32.1903L212.215 31.8994L212.312 31.5115L212.506 30.0567L212.797 29.4748L213.088 29.2808L213.67 29.1838L214.64 29.0869L215.125 28.8929L215.513 28.6989L215.61 28.408L217.258 28.117L218.81 29.6687L219.78 29.9597L221.623 30.0567L222.496 30.1537L223.368 30.6386L223.756 31.1235L224.823 32.7723V32.7723Z" fill="#FFE300"/>
</svg>
