<svg width="224" height="141" viewBox="0 0 224 141" fill="none" xmlns="http://www.w3.org/2000/svg">
<path d="M134.656 39.2162L136.014 38.3434L138.245 42.9016L153.665 65.7899L161.715 71.4151L163.655 71.609L173.159 68.8934L174.323 68.1176L175.778 66.5659L175.972 65.7899L176.069 65.1111L176.263 64.6262L177.038 64.4322L177.329 64.1412L178.202 62.9774L178.396 62.6865L178.59 61.2317L179.075 59.8739L179.754 58.7101L180.627 58.1282L181.888 58.3222L182.082 59.001L181.597 60.1649L181.306 61.6196L181.694 62.4925L182.663 63.2684L186.737 65.693L188.774 66.4688L190.81 65.9839L192.362 63.9473L193.041 61.6196L193.235 61.3287L194.787 60.3588L195.853 59.195L196.92 58.8071L203.127 58.9041L203.903 58.4191L204.776 57.7402L205.649 57.9342L206.037 58.9041L205.649 60.2619H206.328L206.813 59.8739L207.298 59.389L207.879 59.195L208.849 59.389L210.595 60.5528L211.662 60.8438L214.862 60.0679L215.929 60.2619L217.287 62.1045L218.16 62.8804L219.033 62.6865L220.002 61.6196L220.875 61.5227L221.748 62.0076L222.524 62.8804L223.494 65.499L223.882 67.3417L223.397 68.1176L221.651 68.6025H221.069L220.39 68.5055L218.839 67.6327L217.578 67.4387L216.511 67.6327L215.832 68.5055L215.541 69.9603L215.735 70.5422L216.123 70.8331L216.22 71.2211L215.929 71.803L215.444 72.0939L214.183 72.1909L213.795 72.3849L213.02 73.3548L212.438 74.9065L212.05 76.5552L211.565 81.0165V82.6652L211.856 84.314L213.311 85.9627L213.989 87.1265L213.892 88.2903L213.214 88.9692L209.334 90.424L204.485 90.618L203.903 90.812L203.418 91.1029L203.224 91.5878L202.933 92.8486L202.642 93.2366L201.672 93.5275L196.823 92.4606L193.817 90.521V91.1029L192.168 90.424L190.907 91.5878L190.034 93.3335L189.258 94.2064L185.088 94.0124L181.403 94.6913L180.336 94.1094L179.851 92.4606L179.56 91.6848L177.911 89.7451L177.232 89.0662L173.838 86.9326L169.959 85.3808L167.631 84.9929H165.303L163.073 85.4778L161.133 86.4477L158.223 88.6783L157.739 89.3572L157.641 90.23L157.351 90.812L157.254 91.3938L157.351 92.1697L157.739 92.5577L159.29 93.2366V93.7215L158.514 94.0124L156.769 93.9154L155.993 94.2064L155.314 95.0792L155.217 96.0491L155.605 98.3767L152.986 96.34L152.792 96.631L152.21 97.0189L151.919 97.4069L150.562 96.631L149.592 97.2129L148.428 99.7345L147.458 100.607L145.131 101.092L144.161 101.577L142.803 104.099L141.736 107.396L140.184 109.724L137.857 109.336L137.372 108.56L136.79 107.493L136.208 106.62L135.141 106.232L133.298 106.135L132.716 106.232L132.135 106.523L131.747 106.911L131.359 107.299L130.971 107.687L130.001 107.881L128.158 107.493L127.382 107.978L126.606 108.366L122.824 107.687L120.884 108.463L117.102 110.985L115.065 111.858L110.798 112.827L109.052 113.603L107.694 115.058L107.598 114.573H107.404L105.27 117.58L104.979 118.162L104.397 118.84L102.554 122.041L100.518 127.472L99.9357 128.442L99.5478 128.636L98.287 128.442H97.5111H96.9292H96.7353L96.4443 128.733V129.218L96.3473 129.509L95.1835 131.351L94.5046 131.933L91.983 132.418L91.3042 133.291L90.8192 134.455L90.1403 135.716L89.4614 136.298L87.7157 137.558L86.9399 137.752L85.679 137.946L79.957 140.662L78.7931 140.856L77.6293 140.662L74.2349 139.304H73.556L72.4892 139.692L71.8103 139.789L68.3188 139.692L67.6399 139.595L69.5796 139.013L69.6766 138.043L70.6464 137.558L74.2349 137.073L73.7499 135.231L71.7133 129.897L70.2585 129.509L69.7736 127.666L67.6399 127.86L66.7671 125.726L68.8038 122.526L66.5731 119.325L62.0149 119.713L61.336 115.252L65.5063 112.73L64.7304 109.918L61.6269 107.978L59.6872 107.784L59.1053 105.263L60.657 104.778L61.239 103.808L61.5299 102.547L61.7239 100.995V99.2496L61.142 96.34L61.045 95.0792L60.851 94.5943L59.8812 92.6546L59.6872 91.9757L59.5902 90.036L58.7174 86.9326L57.3596 85.1868L53.6742 82.7622L50.6677 80.0467L49.7948 79.6588L47.5641 79.9497L45.5275 80.7256L43.6848 81.8894L42.424 82.1803L41.8421 81.5014L41.3572 80.4346L40.1934 79.8527L37.7687 79.0768L36.9929 78.3009L35.1502 75.9733L33.7923 75.1974L33.3074 74.5185L32.7255 73.3548L32.2406 73.0638L31.2708 72.6759L30.7859 72.3849L27.1974 69.2814L25.2577 68.0206L23.1241 67.0508L15.0744 66.3719L13.9105 66.5659L13.0377 67.1477L11.195 69.2814L10.4191 69.6693H6.53975L5.37592 69.2814L3.53325 68.3116L2.36943 68.1176L0.91466 63.9473L0.623718 62.8804L1.39958 60.8438L2.95131 59.098L9.35232 54.2488L10.4191 53.9579L11.6799 53.8609L12.6498 53.5699L13.5226 53.085L14.2015 52.4061L14.6865 51.9212L15.0744 51.3393L15.4623 50.9513L16.3351 50.8544L16.8201 50.9513L17.8869 51.3393L18.4688 51.4363L19.2447 51.1453L19.3417 50.5634L19.1477 49.8845L19.0508 49.3026L19.2447 48.6237L19.4387 48.1388L19.7296 47.6539L21.3784 45.9081L25.0637 43.4835L37.2838 37.7615L37.9627 37.2766L38.2537 36.3067L37.9627 36.0158L37.4778 35.7248L36.9929 35.3369L37.0898 34.464L37.5748 34.0761L38.0597 34.367L38.9326 35.5308L40.8723 36.6946L42.7149 36.4037L46.6913 33.9791L48.631 33.1062L48.8249 32.6213L50.4737 30.8755L51.3466 30.4876L53.5772 29.0329L54.3531 28.6449L54.741 28.8389L55.7109 29.5178L56.3898 29.7118L56.9717 29.6148L58.2324 29.2269L59.5902 27.5781L60.657 26.8992L61.239 26.6083H61.7239L62.3058 26.7052L62.9847 26.9962L63.3726 27.3841L63.5666 27.8691L63.8575 28.257L64.4395 28.354L65.6033 28.16L65.7002 27.2872L65.6033 25.4444L65.7002 24.0866L66.5731 24.3776L67.446 23.8927L69.2887 23.4078L70.1615 22.9229L69.1917 22.05L68.2218 21.4681L65.1184 20.6922L63.7606 20.7892L63.1787 20.9832L62.7907 21.4681L62.4028 21.759L61.7239 21.2741L62.7907 19.9163L63.1787 19.0435L63.0817 18.5586L62.4028 18.3646V17.6857L62.6938 16.9098L63.0817 16.3279L62.9847 15.746L62.3058 13.0304L62.2088 12.1576L62.7907 11.3817L63.2756 10.5088L63.0817 9.34505L62.2088 7.79327L63.9545 5.9506L64.5364 4.01091L64.0515 1.19834L64.4395 0.616455L65.0213 1.10138L65.4093 1.68326L67.8339 6.14452L68.3188 6.62944L70.7435 8.08421L71.4224 7.50232L71.7133 6.3385V3.71991L73.9439 4.68975L74.2349 5.07771V7.21138L74.0409 7.98725L73.556 8.56913L75.5927 11.0908L76.0776 12.3515L75.0107 12.8365V13.1274L75.1078 13.4184L75.3987 13.9033L75.0107 14.4852L75.8836 14.3882L76.5625 13.8063L77.0474 13.1274L77.5324 12.8365L78.2113 13.1274L78.5992 13.9033L78.7931 14.5822L79.1811 14.8731L79.4721 15.2611L80.3449 15.843L81.2178 16.134L81.6057 15.1641L81.3147 14.2912L80.9268 13.4184V12.7395L81.9936 12.2546L81.7027 11.4787L81.3147 11.3817L80.7328 11.4787L80.151 11.1877L79.1811 10.3149L78.9871 9.82997L79.569 9.53897L82.0906 9.63599L83.1574 10.0239L84.2243 10.7028L86.4549 13.9033L88.2007 14.8731L91.2071 17.5887V18.0737L90.6253 18.7525L89.9464 19.0435H89.1705L88.2007 18.6555L88.4916 19.9163L89.0735 20.9832L90.4313 22.3409L91.1102 21.759L91.983 21.662L92.7589 21.2741L93.0499 19.9163L92.9529 18.3646L92.6619 17.3947L92.08 16.8128L88.9765 14.0973L88.3946 13.9033L88.2976 13.7094L88.2007 13.3214L88.2976 12.9334L88.3946 12.8365H88.6856L89.1705 13.2244L89.8494 13.5154L90.2373 13.7094L90.6253 14.0973L90.8192 14.4852L91.2071 13.9033L93.5348 14.5822L94.4076 15.1641L93.7288 16.0369L94.3107 17.1038L95.0865 16.9098L97.0262 13.9033L97.1232 14.3882L97.0262 15.649L97.2202 16.8128L97.6082 17.2008L98.19 17.4917L98.7719 17.6857L99.2568 17.5887L99.5478 17.2008L99.7418 15.843L99.9357 15.4551H101.003L101.681 16.134L102.942 18.0737L101.875 18.5586L101.488 18.6555L102.36 19.4314L103.524 20.0133L104.203 20.7892L104.009 22.3409L103.621 22.6319L102.457 23.2138L102.166 23.6017L102.069 24.5716L101.584 25.8324L101.488 26.6083L102.942 24.9595V25.6384V26.0263L102.554 26.6083L103.039 26.4143L103.33 26.3173L103.524 26.0263L103.718 25.5414H104.009V27.3841L104.3 27.8691L104.591 27.1901L104.785 25.2505L105.173 23.6987L106.046 22.6319L107.21 22.3409L108.082 22.8259L107.694 23.2138L107.016 24.3776L107.792 26.3173L108.373 27.0932L109.052 26.8022L110.022 25.2505L110.507 24.2806L110.701 23.6017L110.992 23.4078L111.865 23.6987L112.738 23.7957L113.223 22.8259L113.029 22.1469L112.447 21.3711L111.38 20.2073V19.7223L115.259 21.0801L115.841 21.4681L115.938 22.244L116.132 22.6319V23.2138L115.841 24.3776L115.647 24.8626L114.774 26.0263L114.386 26.6083L113.902 26.8992L113.417 27.2872L112.641 27.4811L111.962 27.5781L111.477 28.063L111.283 29.8087L110.798 30.2937L110.119 30.5846L109.731 31.3605L109.44 32.2334L109.149 32.9123L108.567 33.4941L107.016 34.561V35.0459L109.343 34.561L111.477 33.4941L117.005 28.354L117.878 27.8691L120.108 27.3841L120.981 26.7052L122.436 24.9595L122.727 26.0263L122.824 26.8992L122.727 27.6751L122.339 28.354L121.951 28.257L120.206 28.548L120.108 28.6449L119.333 28.8389L118.751 29.1298L118.266 29.7118L118.072 30.5846L117.878 31.6515L117.199 33.0092L116.908 33.9791L118.363 33.3972L119.721 32.4273L121.078 31.8454L122.436 32.4273L123.212 34.173L122.63 35.8218L121.466 37.3735L120.593 38.7313L121.757 38.3434L122.727 38.5373L124.667 39.2162L125.928 39.0223L127.867 37.8584L129.031 37.6645V38.1494L128.643 38.6343L127.673 39.6041L127.188 40.283L128.643 40.574L129.031 40.768L129.419 41.3499L130.098 42.5137L130.486 42.9986L131.262 43.1926L134.074 42.9986L134.656 43.3866L136.014 46.587L136.596 47.072L137.275 47.3629L137.663 47.8478L137.857 49.0116L138.148 49.9815L139.505 51.2423L139.796 52.2121L140.669 57.4493L140.863 57.6433L141.057 57.9342L140.863 58.7101L140.572 59.195L139.893 59.6799L139.602 59.9709L138.923 60.5528L137.081 60.9407L136.402 61.3287V61.9106L137.178 62.5895L138.633 65.499L139.311 66.2749L142.512 68.7965H142.997L143.579 68.5055L144.549 68.1176L145.324 68.2145L146.294 68.4085L147.07 68.8934L147.458 69.4754L148.525 70.1542L154.635 72.3849L155.12 72.7728L155.799 73.6457L156.672 74.5185L157.545 75.0035L158.417 74.7125L159.193 74.2276L160.357 72.8698L159.581 71.803L158.708 71.4151L157.739 71.2211L156.672 70.7362L156.187 70.1542L155.896 69.4754L155.605 68.8934L155.023 68.6025L154.441 68.5055L154.053 68.2145L142.706 51.8242L140.378 49.2056L140.087 48.5267L138.633 46.587L137.663 44.2594L137.178 43.4835L136.79 43.0956L136.305 42.9016L135.82 42.5137L135.723 41.5438L134.85 40.0891L134.753 39.7981L134.656 39.2162V39.2162Z" fill="#FFE300"/>
</svg>
