<svg width="36" height="56" viewBox="0 0 36 56" fill="none" xmlns="http://www.w3.org/2000/svg">
<path d="M35.6589 8.01121L33.6222 10.3388L32.0704 11.3087L30.8097 13.2484L30.7127 14.5092L31.6825 16.0609L31.1006 17.0308L31.1976 20.1343L34.2041 24.7895L34.3011 26.2443L35.8528 27.4081L34.98 29.1538H32.8463L32.9433 32.5483L30.9066 32.8392L29.2579 31.0935L28.87 32.5483L28.9669 35.0699L27.9001 35.4578L26.3484 34.8759L25.1845 35.1668L24.8936 34.003L22.9539 34.6819L23.6328 36.0397L23.0509 36.7186L24.6026 40.8889L25.5725 43.9924L24.7966 46.708L23.7298 46.805L24.1177 49.0356L25.2815 52.0421L24.6996 52.915L25.1845 54.2728L21.8871 55.9215L21.6931 52.0421L20.9172 49.4235L19.4625 48.9386L19.1715 44.8653H17.8137L18.3956 41.1799L16.9409 39.9191L15.971 40.307L15.874 38.9492L14.9042 38.4643L14.7102 36.9126L14.3223 34.9729L13.4494 35.1668H12.4796L12.0917 33.2272L12.5766 31.5784L11.3158 29.3478L9.66704 27.893L8.21228 26.1473L7.53341 22.8498L6.66052 22.2679L5.49673 22.9468L3.16911 22.2679L2.39321 24.9835L1.52036 24.7895L0.938449 25.6624L0.356537 24.5955L0.647508 22.4619L0.744498 21.0071L1.32638 19.7463L1.22942 18.2915L1.13243 16.9338L1.8113 16.1579L2.10227 14.6061L1.8113 12.9574L2.10227 11.5026L3.26607 10.4358L4.3329 9.46597V7.91422L3.84798 6.55644L4.81782 5.97453L5.78767 7.52628L6.07864 5.87755L4.91481 3.84087L8.30927 3.45294V1.31927H13.6434L13.9344 3.74388L15.1952 4.03484L15.971 6.94437L17.4258 8.39914L18.4926 10.1449L19.8504 10.9207L19.3655 8.98105L20.0444 8.20517L25.1845 8.69009L26.0574 6.36247L27.8031 5.68357L28.9669 4.61675L28.87 2.19214L30.0338 0.834351L32.9433 2.09515L35.2709 3.35595L35.6589 8.01121V8.01121Z"
      fill="#FFE300" stroke="#fff"/>
</svg>
