<svg width="155" height="196" viewBox="0 0 155 196" fill="none" xmlns="http://www.w3.org/2000/svg">
<path d="M69.2383 21.8573L69.3353 22.5362L69.2383 22.8271L69.1413 23.0211L68.9473 23.215H68.6564L67.5896 23.1181L67.2986 23.215L67.1046 23.409L67.0076 23.797L67.1046 24.2819L67.7835 25.9306L67.8805 26.5125L67.9775 27.1914L67.8805 27.8703L66.9107 32.6225L66.8137 33.3984L66.7167 38.6356L66.9107 41.1572L67.0076 41.5451L67.1046 41.7391L67.3956 41.933H67.9775L68.2684 41.7391L68.7534 41.3511L68.9473 41.1572H69.2383L69.9172 41.5451L70.4991 42.03L71.178 42.224H71.6629H71.9539L72.4388 42.321L72.9237 42.6119L74.2815 43.8727L74.5724 44.2607L74.7664 44.7456L74.9604 45.6184L75.0573 46.2973V46.9762L74.7664 48.431L74.4755 49.8858L74.3785 50.2737V50.9526L74.4755 51.5345L74.5724 51.8255L74.9604 52.1164L75.4453 52.4073L78.3548 53.4742L78.8398 53.7651L80.5855 55.1229L81.0704 55.6078L81.2644 55.9958V56.1898L80.9734 58.0324L80.8764 58.7113L80.4885 59.6812L80.0036 60.845L79.2277 62.2028L79.0337 62.6877V63.0756L79.2277 63.2696L79.5186 63.4636H80.1005L81.6523 62.9787L82.0402 63.0756L82.5252 63.2696L83.1071 63.8515L83.398 64.2395L83.7859 64.7244L83.9799 64.9183L84.2709 65.0153L84.7558 64.9183L85.0468 64.7244L85.3377 64.5304L85.7256 63.6575L85.9196 63.5606L86.2105 63.4636L88.7321 64.1425L89.4111 64.2395L89.799 64.1425L90.5748 63.3666L91.1568 63.1726H91.8357L94.7452 63.3666H95.3271L95.909 63.1726L96.2 63.0756L96.7819 62.5907L97.2668 62.2998H97.5577L97.9457 62.3967L98.1396 62.6877L98.3336 63.1726L98.8185 63.8515L99.2065 64.3364L99.3034 64.6274L99.2065 64.9183L99.0125 65.5972V65.8882L99.2065 66.1791L99.4974 66.3731L100.273 66.4701L101.049 66.5671L101.437 66.6641L101.631 66.858V67.246V68.0218L101.825 68.3128L103.086 69.3796L103.765 70.1555L104.153 70.6404L104.347 71.1253L104.541 71.6103L104.832 72.7741L104.929 73.6469V74.3258L104.832 74.7138L104.638 75.2957L104.25 75.7806L104.056 75.9746L103.862 76.0716L103.28 75.9746L103.086 76.0716L102.892 76.3625L102.795 77.0414L102.698 77.3324L102.795 77.6233L103.086 78.1082L104.638 79.66L104.929 79.8539L105.219 80.0479L106.286 79.9509L106.674 80.0479L106.965 80.2419L107.159 80.6298L107.256 81.0178L107.159 82.1816L107.353 82.6665L107.644 83.1514L107.838 83.3454L108.129 83.4424L108.517 83.5394H109.099L109.584 83.7333L110.069 84.1213L110.36 84.2182L110.748 84.4122L111.33 84.2182L111.62 84.1213L111.911 83.9273H112.687L113.754 84.0243L117.924 85.0911L118.506 84.6062L119.088 83.9273L119.476 83.6363L119.961 83.5394L123.259 84.3152H123.55L124.034 84.1213L124.519 83.7333L124.713 83.6363L125.004 83.5394L125.78 83.6363H126.071L126.265 83.4424L126.459 83.2484L127.041 82.5695L127.429 82.2786L127.72 82.1816L128.302 82.0846L128.593 81.9876L128.787 81.7936L129.078 81.3087L129.466 80.9208L129.951 80.6298L130.532 80.5328L132.666 80.7268H133.054L133.248 80.6298L133.636 80.1449L134.315 79.1751L134.509 78.9811L134.994 78.7871L135.188 78.5931V78.3992V77.8173V77.5263L135.285 77.2354L135.576 76.8474L135.673 76.5565L135.77 75.6836L135.867 75.3927L136.352 75.1017L137.418 74.7138L138.582 74.6168L139.067 74.8108L139.649 75.1987L141.201 76.7504L141.88 77.2354L143.819 79.8539L144.304 80.4359L144.789 80.8238L145.08 80.9208L145.759 81.0178H147.99L148.281 81.3087L148.572 81.7936L148.669 82.9574L148.572 84.1213L148.475 84.7032L148.281 84.8971L147.99 85.0911L146.826 84.8971L146.535 84.9941L146.341 85.0911L145.759 85.964L145.468 86.4489L145.371 86.7398V87.1278L145.565 87.6127L146.826 88.6795L147.02 88.8735L147.214 89.1645L147.311 89.7464V90.5222L147.408 91.1041L147.602 91.5891L147.893 91.88L148.281 92.171L149.056 92.5589L149.541 92.6559H149.929L150.608 92.5589L151.19 92.6559L151.481 92.8499L151.578 93.0438V93.4318L151.481 93.7227L150.705 94.4986L150.414 94.8865L150.705 95.3714L150.996 95.7594L154.294 97.6991L152.936 101.384L152.063 102.645L151.869 102.936L151.772 103.13L151.869 103.518L152.16 104.003L152.257 104.294L151.966 104.973L150.511 107.107L149.832 106.816L149.347 106.525L148.863 106.234L148.475 106.04H147.796H147.505L147.02 106.234L146.729 106.428L146.535 106.719L145.953 107.398L145.662 107.882L145.468 108.27L145.371 108.949V109.531L145.565 109.919L146.341 110.986L146.535 111.471V112.053L146.438 112.344L146.147 112.926L145.759 113.411L144.692 114.574L144.013 114.865L143.334 114.962H142.946L142.462 114.671L142.171 114.768L141.977 115.253L141.686 116.029L141.395 116.611L141.104 116.902L139.358 118.26L138.97 118.745L138.679 119.133L138.776 119.424L139.164 120.49L139.261 121.072V121.751L139.552 122.915L139.843 123.982L140.037 124.467L139.94 125.146L139.649 125.437L139.164 125.631L137.127 126.309L136.836 126.406L136.642 126.6L136.448 126.988L136.352 127.182L136.545 128.346V129.025V129.704L136.448 130.383L136.158 130.965L135.673 132.129L134.315 133.971L134.121 134.456L134.218 135.329L134.024 136.008L133.927 136.202L132.957 137.172L132.375 138.142L131.793 139.305L131.599 139.693L131.114 139.887L126.071 138.917L125.78 138.723L125.683 138.53L125.586 138.239L125.683 136.493L125.586 136.008L125.392 135.717L125.101 135.62H124.81L124.616 135.814L124.422 136.202L124.131 137.754L124.034 138.045L123.744 138.53L123.453 138.723L123.065 138.82L122.386 138.917L121.998 138.82L121.707 138.627L121.222 138.239H121.028L120.737 138.336L120.446 138.82L120.252 139.208L120.155 139.984L120.058 140.275L119.767 140.469L119.476 140.275L119.088 139.693L118.7 139.208L118.409 138.723V138.045L118.215 137.56L117.634 136.978L117.343 136.493L117.246 136.202L117.149 135.329L116.955 135.135L116.761 135.038L116.179 134.941L115.791 135.038L114.821 135.329L114.239 135.426H112.299L111.717 135.523L111.136 135.717L106.965 138.627L105.123 138.82L104.832 139.014L104.444 139.305L104.056 139.79L103.571 140.857L102.892 141.73L102.698 142.021V142.215L102.795 142.506L102.989 142.7L103.668 143.185L103.765 143.379L103.668 143.961L103.086 145.221L102.892 145.609V146.288L102.989 146.482L103.474 146.87L103.571 147.064L103.668 147.355V147.646L103.183 150.653L103.086 150.944L102.31 152.204L102.213 152.495V152.786V152.98L102.504 153.756V154.047L102.407 154.726L101.825 155.793L101.146 157.635L100.952 157.926L100.37 158.508L100.079 158.896L99.9823 159.187V160.157L100.079 160.739L100.273 160.933L100.467 161.03L101.146 161.224L101.34 161.418L101.534 161.612L101.631 161.903V162.485L101.534 163.455L101.437 164.036L101.146 164.327L99.4974 165.491L99.0125 165.976L98.7216 166.364L97.8487 168.595L97.5577 168.983L97.2668 169.468L94.9391 171.019L94.6482 171.31L94.3573 171.795L92.9995 173.056L92.4176 173.638L91.9327 174.414L91.7387 174.608L90.7688 175.384L90.1869 176.062L88.9261 178.39L88.7321 179.069V179.36V180.33V180.621L88.5382 181.009L88.1502 181.397L87.4714 181.203L87.0834 181.009L86.8895 180.718L86.5985 180.233L86.4045 180.136H86.0166L85.5317 180.524L84.9498 181.106L84.6588 181.203L84.0769 181.3L83.2041 180.912L82.9131 180.815L82.4282 181.106L82.1372 181.397L81.5553 182.076L81.3613 182.269L79.6156 182.754L78.6458 183.433H78.3548H78.0639L77.7729 183.239L77.5789 182.948L76.5121 181.106L76.1242 180.718H75.8332H75.3483L74.5724 181.009L73.8935 180.912L73.5056 180.815L73.1177 180.427L72.9237 180.33H72.6327L72.4388 180.621L71.7599 182.076L71.4689 182.56L71.275 182.657L70.984 182.754L69.4323 181.882L69.2383 181.785H68.9473L68.3654 182.366L68.0745 182.56L66.3287 183.142H65.9408L65.5529 182.754L65.068 181.979L64.486 181.397L64.0011 181.106L63.7102 181.009H63.3222L62.9343 181.203L62.3524 181.494L62.1584 181.882L61.9644 182.173L61.7705 182.851V183.53V184.5L61.6735 184.791L61.3826 185.761L60.3157 190.222L60.2187 190.513L59.9278 190.707H59.4429L58.958 190.416L58.667 190.028V189.737V189.058L58.57 188.864L58.1821 188.573L48.7746 186.634L48.4836 186.44L48.2897 186.246L48.1927 186.052V185.761L48.2897 185.373L48.5806 184.888L49.1625 183.918L49.2595 183.627V183.433L49.0655 183.239L47.9017 182.754H47.6108L47.3198 182.851L46.7379 183.53L46.35 184.015L45.5741 184.403L45.1862 184.791L44.9922 185.082V185.276L45.1862 185.664L45.4771 186.343L45.6711 186.828V187.119L45.3801 187.216L44.8952 187.119L44.7012 187.022L44.1193 186.731L43.8284 186.634L42.2766 186.537L41.8887 186.44L41.5008 186.343L41.1128 186.537L40.7249 187.022L40.143 187.895L39.755 188.089L39.2701 188.186H37.4274L36.9425 188.38L35.7787 189.252L35.0998 189.543L34.8088 190.028L34.5179 190.901L34.4209 191.289L33.936 192.065L33.548 192.453L32.7722 193.229L32.4812 193.617V193.908L32.3842 194.199L32.5782 195.071L32.3842 195.362L31.9963 195.556L30.6385 195.459L27.438 195.847L26.5651 195.459L25.4983 194.684L25.1104 194.199L24.9164 193.811L24.8194 193.229L24.9164 192.938L25.2074 192.744L25.5953 192.55L25.6923 192.259L25.2074 191.774L23.1707 191.192L22.6858 190.028L22.1039 189.737L21.231 189.834H20.5521L20.1642 189.64L19.9702 189.446L19.8732 189.058L19.4853 188.283L18.5154 186.828L17.8365 185.179L17.5456 184.888L17.3516 184.597L17.1577 184.5L15.6059 184.306L15.024 184.112L14.2481 183.724L13.9572 183.336L13.7632 183.045V182.366L13.5692 181.882L13.3753 181.3L12.5994 179.748L12.5024 178.972L12.5994 178.39L12.7934 178.002L13.1813 177.614L15.7999 175.869L15.9938 175.675L16.2848 175.093V174.414V173.347L16.0908 172.668L14.927 170.146L14.7331 169.662V169.371L14.83 169.08L15.121 168.789L15.5089 168.595L15.8968 168.304L16.0908 167.916L16.1878 166.946V166.364L16.0908 165.976L15.8968 165.685L13.7632 164.618L13.4722 164.424L13.0843 164.036L12.6964 163.455L12.5024 162.97L12.4054 162.582L12.3084 161.709V161.03L12.4054 160.351L12.5024 160.06L13.0843 158.993L13.2783 158.217L13.3753 157.635L13.2783 157.344L13.1813 157.054L12.6964 156.763L12.4054 156.569L9.68985 156.181L9.88383 154.92L10.3688 154.532L11.1446 154.144L11.3386 153.756L11.5325 153.368L11.6295 152.98V152.301V151.816L11.5325 151.525L11.4356 151.331H10.8537L9.59286 151.525H8.91399L8.23508 151.428V151.041L8.62302 150.556L8.91399 150.071L9.30192 149.295L9.59286 148.325L9.78684 147.258L9.88383 146.676L9.78684 146.191L9.4959 145.609L9.39891 145.221L9.20493 144.543L9.30192 144.155L9.39891 143.864L9.88383 143.573L10.0778 143.476H10.3688L11.0476 143.573L11.4356 143.379L11.7265 143.088L12.0175 142.506L12.3084 142.312L12.5994 142.215L13.0843 142.312L13.5692 142.215L15.5089 140.76L17.2547 139.984L17.6426 139.693L18.2245 139.014L18.5154 138.917L19.2913 138.627L19.5823 138.433L19.9702 138.045L20.8431 136.881L21.231 136.008L21.522 135.62L21.7159 135.426L23.1707 134.65L23.5586 134.359L24.8194 133.001L25.1104 132.516L25.2074 132.032L25.1104 131.45L22.0069 126.406L21.8129 125.728V125.146L22.0069 124.855L22.2978 124.467L22.4918 123.982L21.7159 120.878L21.619 120.102V119.618L21.7159 119.23L21.9099 118.939L22.2008 118.842L23.9466 118.357L24.3345 118.163L24.7224 117.775L25.1104 116.902V116.514L25.0134 116.126L24.7224 115.641V114.574V113.992L24.5285 113.605L24.3345 113.411L23.5586 112.926L23.1707 112.635L23.0737 112.344L22.8797 111.859L22.7827 111.568L22.8797 109.725L22.7827 108.755L23.0737 105.458V104.682L22.8797 104.294L22.2008 104.003L22.0069 103.906L21.619 103.518L21.134 102.645L20.5521 101.094L20.1642 100.609L19.9702 100.415L19.2913 100.318H18.6124L18.4184 100.124L18.1275 99.6388L17.9335 98.378L17.2547 96.5353L16.9637 94.2076L16.7697 93.8197L16.1878 92.9468L15.5089 92.074L15.121 91.686L14.83 91.5891L14.5391 91.4921L12.2115 91.5891H11.9205L9.88383 92.4619L9.59286 92.5589H9.30192L8.91399 92.268L8.62302 91.686L8.52605 91.2981L8.72001 91.0072L9.88383 90.9102L10.1748 90.8132L10.4657 90.6192L10.7567 90.0373V89.7464L10.5627 89.5524L9.68985 89.0675L9.4959 88.7765V88.4856L9.59286 88.1946L9.78684 88.0976H10.0778L11.0476 88.2916H11.3386L11.5325 88.1946L11.7265 88.0006L12.0175 87.4187L12.5024 85.77L12.5994 85.0911L12.5024 84.8971L12.2115 84.4122L11.6295 84.1213L11.3386 83.8303L11.1446 83.1514V82.7635L11.3386 82.5695L11.9205 82.4725L12.2115 82.3755L12.5024 81.8906L12.9873 80.3389L13.2783 79.369L13.1813 79.0781L13.0843 78.7871L12.1145 78.1082L11.7265 77.6233L11.4356 77.1384V76.8474L11.5325 76.4595L12.0175 75.2957L12.5994 74.4228L14.0541 72.0952L14.5391 70.9314L14.927 70.4465L16.5757 69.5736L16.8667 69.2826L17.1577 68.8947L17.4486 68.1188L17.5456 67.6339V67.246L16.7697 64.3364L16.5757 63.0756L16.3818 62.2998L16.1878 62.0088L15.7999 61.6209L15.218 61.4269L14.5391 61.3299L12.5024 61.5239H12.3084L12.0175 61.3299L11.9205 60.942V60.651L12.9873 54.638L12.8904 54.0561L12.7934 53.6682L12.6964 53.4742L11.4356 52.0194L8.42906 47.2672L8.23508 47.0732L7.94414 46.9762H7.65317L7.36223 46.7823L7.07129 46.2973L6.78032 45.1335L6.87731 44.6486L7.07129 44.3576H8.817L9.10794 44.4546L9.39891 44.5516L10.0778 45.1335L10.2718 45.2305H10.5627L10.7567 44.6486V44.0667L10.5627 42.127V41.5451L10.6597 40.5753L10.7567 40.1873L11.0476 39.6054L11.7265 38.5386L12.0175 37.9567V37.5687V37.1808L11.9205 36.9868L11.6295 36.4049L11.2416 36.017L11.0476 35.823L10.5627 35.5321L9.20493 35.1441L9.01098 34.9502L8.72001 34.7562L8.62302 34.4652L8.52605 33.8833L8.33207 33.3984L8.13809 33.1075L7.84715 32.7195L6.1984 31.1678L5.22856 30.4889L4.64668 30.2949H4.35571H4.06477L3.96778 30.4889L2.80395 32.3316L2.70699 32.5256L2.51301 32.6225L2.31903 32.2346L2.12508 31.6527L1.83411 30.4889L1.25222 26.0276L0.282379 22.3422V21.9542L0.573321 21.8573L1.25222 21.7603L1.83411 21.6633L2.80395 21.0814L4.4527 19.8206L5.1316 19.1417L5.81047 18.2688L6.39239 17.105L6.48938 16.4261L6.58637 15.4563L6.78032 12.2558L6.68333 11.5769V11.3829L6.48938 11.092L6.2954 11.189L5.81047 11.4799L5.61652 11.5769L5.32555 11.4799L5.03461 11.092L4.64668 10.3161L6.10144 9.05532L7.36223 8.66739L9.68985 9.63723H10.7567L11.5325 8.18246L12.3084 6.14579L12.8904 5.07896L13.5692 4.69102L15.024 4.59404L16.1878 4.01213L17.0607 3.13927L17.8365 1.97546L18.9034 0.908634L19.9702 0.520694L21.231 0.326721L22.3948 0.423712L23.2677 1.1026L24.1405 2.65435L24.6254 4.01213L25.3043 4.88499L30.2506 5.75785L31.2204 5.4669L31.7053 4.88499L32.5782 3.23625L33.2571 2.75133L33.839 2.84832L34.7118 3.43023L35.3907 3.33324L38.6882 1.58752L39.852 1.29657L47.4168 1.1026L48.9685 1.49054L50.4233 2.55737L52.46 5.36992L53.2358 6.14579L55.9514 7.50357L56.6303 8.18246L56.9213 8.76437L57.1152 9.34627V10.0252V10.898L57.0183 11.5769L56.6303 13.3226L56.4364 13.4196L56.8243 14.3895L58.473 16.5231L59.1519 17.105L60.0248 17.493H61.5765L62.3524 17.6869L63.2253 18.3658L64.3891 20.2085L65.2619 20.4995L65.9408 20.4025L66.7167 20.5965L67.3956 20.9844L67.9775 21.6633L68.3654 22.5362L68.9473 22.3422L69.2383 21.8573V21.8573ZM84.6588 78.0112L84.2709 73.356L81.9432 72.0952L79.0337 70.8344L77.8699 72.1922L77.9669 74.6168L76.8031 75.6836L75.0573 76.3625L74.1845 78.6901L69.0443 78.2052L68.3654 78.9811L68.8503 80.9208L67.4926 80.1449L66.4257 78.3992L64.971 76.9444L64.1951 74.0349L62.9343 73.7439L62.6433 71.3193H57.3092V73.453L53.9147 73.8409L55.0786 75.8776L54.7876 77.5263L53.8178 75.9746L52.8479 76.5565L53.3328 77.9143V79.466L52.266 80.4359L51.1022 81.5027L50.8112 82.9574L51.1022 84.6062L50.8112 86.1579L50.1324 86.9338L50.2294 88.2916L50.3263 89.7464L49.7444 91.0072L49.6474 92.4619L49.3565 94.5956L49.9384 95.6624L50.5203 94.7896L51.3931 94.9835L52.169 92.268L54.4967 92.9468L55.6605 92.268L56.5333 92.8499L57.2122 96.1473L58.667 97.893L60.3157 99.3478L61.5765 101.578L61.0916 103.227L61.4795 105.167H62.4494L63.3222 104.973L63.7102 106.913L63.9041 108.464L64.874 108.949L64.971 110.307L65.9408 109.919L67.3956 111.18L66.8137 114.865H68.1715L68.4624 118.939L69.9172 119.424L70.693 122.042L70.887 125.922L74.1845 124.273L73.6996 122.915L74.2815 122.042L73.1177 119.036L72.7297 116.805L73.7966 116.708L74.5724 113.992L73.6026 110.889L72.0508 106.719L72.6327 106.04L71.9539 104.682L73.8935 104.003L74.1845 105.167L75.3483 104.876L76.9001 105.458L77.9669 105.07L77.8699 102.548L78.2578 101.094L79.9066 102.839L81.9432 102.548L81.8462 99.1539H83.9799L84.8528 97.4081L83.301 96.2443L83.2041 94.7896L80.1975 90.1343L80.1005 87.0308L80.6825 86.061L79.7126 84.5092L79.8096 83.2484L81.0704 81.3087L82.6221 80.3389L84.6588 78.0112V78.0112Z" fill="#FFE300"/>
</svg>
