<svg width="125" height="186" viewBox="0 0 125 186" fill="none" xmlns="http://www.w3.org/2000/svg">
<path d="M64.5803 181.336L64.6773 180.657L65.6471 176.487L65.5501 175.323L65.0652 175.032L64.7742 174.838L64.5803 174.45L64.2893 173.868V173.189L64.4833 170.571L64.2893 169.795L64.0953 169.31L59.0521 168.146L55.2698 168.243L54.7849 168.049L54.106 167.661L52.7482 166.4L52.1663 165.818L51.8753 165.334L52.0693 164.655L52.4572 163.782L52.9421 163.103L53.0392 162.715L53.1361 162.327L53.0392 161.551L52.8452 161.163L52.6512 160.969L49.5477 159.127L42.7588 156.508L41.692 155.829L41.401 155.441L41.207 155.15L41.401 154.18L41.498 153.501L41.5949 153.21L41.401 152.726L40.5281 150.786L40.3342 150.01L40.1402 149.234L39.9463 148.458L39.5583 147.779L39.3643 147.488L39.0734 147.391L33.7392 147.973L32.8663 147.779L32.1875 147.488L31.8965 147.197L31.7026 146.906L31.4116 145.84L31.1206 144.87L30.9267 144.288V143.803L31.1206 143.609L31.4116 143.415L33.8362 143.027L34.2242 142.833L34.6121 142.445L34.806 141.863L34.9031 141.475L34.7091 141.087L34.0302 139.536L33.4483 138.76L32.3814 137.887L31.9935 137.499L31.7995 137.208L31.6056 136.238L31.3146 135.656L30.7327 134.589L30.3448 134.201L30.0538 134.105L29.8599 134.298L29.5689 134.686L29.084 135.074H28.793L28.502 134.977L27.8232 134.589L27.5322 134.492H27.2413L26.7563 134.395L26.3684 134.105L25.5925 133.62L25.3016 133.232L25.2046 132.844V132.262V131.68L25.3016 130.613L25.4956 129.934L25.7865 129.255L25.8835 128.673L25.7865 127.898L25.5925 127.607L25.3016 127.51L24.5257 127.316L23.8468 127.025L23.2649 126.54L23.0709 126.249L22.877 125.958L22.974 125.279L23.3619 124.309L23.4589 124.018V123.533L23.3619 123.048L22.683 121.303L22.586 121.012V120.624L22.683 119.945V119.557L22.4891 118.296L22.2951 116.259V115.968L22.4891 115.387L22.683 114.999L22.974 114.611L24.2348 113.544L25.1076 112.38L25.3016 111.701L25.3986 111.216L25.3016 110.925L25.0106 110.828H24.7197L23.6528 111.119L23.4589 111.022L23.2649 110.634V109.955L23.4589 109.276L23.5559 109.083L24.2348 108.113L24.5257 107.531L24.8167 106.949L24.9137 106.561L24.8167 105.979L24.6227 105.106L24.1377 104.233L23.9438 103.651V103.166L24.0408 102.779V102.294L23.9438 101.906L23.7498 101.712L23.0709 101.615L22.78 101.518L22.0041 101.324L21.5192 101.033L21.3252 100.742V100.354V99.1901L21.2282 98.6082L21.0343 97.8323L20.4524 95.8926L20.2584 95.0198L18.1248 94.3409L12.0147 93.953L11.7238 93.856L11.3359 93.662L10.8509 93.0801L10.463 92.8861L9.78407 92.6922L9.49312 92.4982L9.39616 92.3042V92.0133L9.68711 91.3344L9.78407 91.1404L9.97805 90.9464L10.269 90.8494L10.9479 90.9464L11.1419 90.8494L11.2388 90.5585V90.0736L11.3359 89.7826H11.6268L12.4996 89.6856L12.6936 89.5887L12.8876 89.3947L13.0816 89.2007V88.8128V88.5218L11.5298 84.7394L11.2388 83.7696L11.1419 83.0907L11.3359 82.7997L11.9177 82.2178L12.2087 81.7329L12.3057 81.054V79.8902V79.2113L12.6936 77.0777V76.6897L12.4996 76.4958L12.3057 76.3988L10.075 76.3018L9.78407 76.3988L9.59009 76.4958L8.13532 77.8535L7.9414 77.9505L7.6504 78.0475L7.16547 77.9505L5.71071 76.9807L3.2861 76.0108L2.8982 75.6229L2.70421 75.3319V74.944L2.99516 73.9742L3.2861 73.3922L3.48008 73.2953L4.93484 73.1983L5.22579 73.1013L5.41977 72.9073V72.4224L5.12883 72.2284L4.83788 72.0345L3.86804 71.9375L3.5771 71.8405L3.2861 71.7435L2.80118 71.0646L2.51023 70.6767L1.83133 70.0948L1.34641 69.8038H0.764526L2.02531 68.64L3.48008 67.5732L4.15898 66.7973L5.03186 65.5365L5.12883 64.9546V64.4697V64.1787L4.83788 63.7908L4.54694 63.5968L3.965 63.3059L3.09218 63.2089L2.80118 63.1119L2.60725 62.433V61.4632L2.8982 57.2929L2.80118 56.7109L2.70421 56.226L2.51023 55.6441L2.41327 55.4501L1.83133 54.7713L1.63741 54.4803L1.44343 53.9954L1.54039 53.7044L1.63741 53.4135L2.31625 52.4436L2.70421 52.1527L3.5771 51.9587L3.86804 51.7647L4.15898 51.3768L4.44992 50.6009L4.6439 49.2431L4.93484 47.9823L5.12883 47.6914L5.32281 47.4974L6.48663 46.7215L6.68055 46.4306L6.97155 45.9457L7.06851 45.6547L6.97155 45.0728L6.38961 43.4241V43.0361L6.97155 42.6482V42.3572V42.1633L6.48663 41.4844L6.38961 41.2904L6.00171 40.1266V39.6417L6.09867 39.2537L6.29265 39.0598L6.77757 38.8658L6.97155 38.5748L7.26249 38.1869L7.74742 36.7321L7.9414 36.3442L8.52328 35.5683L8.91124 35.0834L9.0082 34.6955V34.1136L8.91124 33.7256V32.6588L9.0082 30.3312V30.0402L8.91124 29.7493L8.52328 29.3613L8.3293 29.2643H8.03836H7.74742L6.29265 29.8462H6.09867L5.80773 29.6523L5.71071 29.1674V28.8764L5.80773 28.5855L6.48663 27.5186L7.06851 26.8397L7.26249 26.7427L7.55344 26.6458L8.81422 26.9367L9.20218 26.8397L9.68711 25.5789L9.88109 25.385L10.172 24.9L10.9479 24.5121L11.1419 24.3181L11.3359 24.0272L11.4328 23.7362L11.3359 23.5423L9.0082 21.7965L8.81422 21.3116L8.91124 20.9237L9.20218 20.5357L10.172 20.0508L11.2388 19.7599L12.4027 19.6629L12.6936 19.5659L12.9845 19.4689L13.2755 19.178V18.887L13.1785 18.693L12.1117 18.0141L11.7238 17.6262L11.3359 16.9473L10.463 14.9106L10.269 14.1348L10.172 13.6498L12.4996 12.1951L13.1785 11.9041L13.7605 12.0981L14.7303 12.68L15.3122 12.874L17.8338 11.0313L18.1248 7.44284L17.7368 3.56347L18.3187 1.04187L19.1916 0.8479L22.586 1.13886L24.0408 0.8479L25.0106 1.04187L25.7865 1.91474L27.4352 6.76396L28.1141 7.7338L29.181 8.21872L31.5086 8.41269L32.4784 8.80062L33.7392 9.67349L35.6789 10.4494L39.5583 9.67349L42.1769 10.1584L42.7588 9.96443L43.2437 9.67349L44.5045 9.18857H44.6015L45.0864 10.8373L45.1834 12.1951L45.4743 12.874L45.8623 13.2619L49.0628 15.6865L54.6878 17.2383L56.5306 18.984L57.8884 21.0207L59.2461 22.4754L64.3863 22.1845L65.2592 21.8935L66.326 21.0207L67.9747 18.4991L68.9446 17.4322L70.9813 16.6564L72.436 17.9172L75.4425 25.6759L76.6064 27.4216L78.2551 28.3915L80.1948 28.8764L82.3284 28.3915L84.4621 27.4216L86.4988 26.9367L88.4385 28.2945L89.4083 28.7794L92.6088 29.0704L93.2877 29.9432L93.8696 31.8829L94.7425 35.3744L96.1002 38.2839L97.749 39.3507L99.5917 39.9326L101.822 40.9995L104.538 43.618L105.702 44.1999H107.156L108.805 43.909L110.357 43.2301L111.715 42.4542L114.915 39.1568L116.273 38.6718L117.243 38.7688L122.577 40.1266L123.353 40.9995L123.062 42.7452L122.286 43.909L120.249 45.0728L119.28 46.0427L118.213 48.7582L118.504 51.3768L119.667 53.8014L121.801 57.0989L124.323 60.1054L124.905 61.3662L124.808 62.8209L124.032 65.6335L123.935 68.64L123.547 69.4159L122.286 70.0948L121.219 70.9676L119.473 73.7802L118.407 74.944L115.206 77.1747L113.751 78.6294L112.588 80.5691L112.394 81.7329L112.2 84.0605L112.006 84.9334L111.327 85.3213L110.551 85.4183L108.902 85.1274H107.253L102.889 86.6791L100.174 86.4851L99.2037 87.164L98.8158 91.2374L99.5917 92.3042L100.658 92.9831L101.628 93.953L102.307 95.4077L102.792 96.5715L103.374 97.3474L104.635 97.9293L108.902 98.8992L110.745 98.6082L111.424 98.7052L112.006 99.1901L112.976 100.548L113.654 100.839L114.818 100.257L115.788 98.9962L116.855 98.0263L118.213 98.1233L119.182 99.4811V101.13L118.407 102.682L117.437 104.039L115.012 105.979L112.879 106.27L106.866 103.845L105.702 103.942L104.538 104.524L103.374 105.688L102.986 106.658L102.598 107.531L102.21 108.307L100.852 108.792L100.368 109.47L97.0701 120.43L96.5851 122.466L98.6218 122.369L99.6886 121.981L106.09 122.757L107.544 123.533L108.514 124.988L108.999 127.122V127.704L109.29 128.77L109.096 129.449L108.611 129.546H108.126L107.835 129.643L108.029 130.904L108.514 131.486L109.096 131.971L110.745 135.656L111.327 137.79L111.715 138.857L112.297 139.536L111.036 140.796L110.163 141.96L106.478 145.064L110.163 147.391L111.23 147.294L114.042 146.228L115.206 146.519L115.982 147.876L115.885 149.428L115.109 150.883L114.236 152.047L111.618 153.986L110.648 155.15L107.932 160.29L107.253 161.842L107.156 163.685L107.932 166.206V166.982L107.738 167.079L107.447 166.982L104.441 167.564L103.859 167.952L103.471 168.631L103.568 169.116L103.956 169.504L104.538 170.474L105.314 172.219L105.411 172.995L105.314 174.256L105.12 174.838L104.538 176.099L104.344 176.778L104.441 177.36L104.635 178.426V179.008L104.247 181.239L103.374 183.276L102.016 184.633L100.271 185.021L94.9364 183.567L93.2877 183.47L89.9902 184.051L88.4385 183.858L87.1776 183.373L84.85 184.051H83.6862L82.7164 183.664L80.8736 182.403L79.8068 182.209L71.9511 182.985L69.8175 183.567L68.7506 183.664L67.6838 183.373L64.7742 181.336H64.5803V181.336Z" fill="#FFE300"/>
</svg>
