<svg width="151" height="161" viewBox="0 0 151 161" fill="none" xmlns="http://www.w3.org/2000/svg">
<path d="M130.309 30.3542L130.697 31.2271L131.473 31.615L132.539 31.712L133.218 31.615L133.703 31.4211L135.158 30.5482L135.74 30.4512L136.031 30.3542L136.419 30.4512L137.001 30.6452L137.486 30.9361L137.68 31.3241L137.874 31.906L138.067 32.9728L138.164 33.6517L138.067 34.1366L137.874 34.6216L137.486 35.1065L135.934 36.6582L135.837 36.8522V37.2401L136.031 37.822L137.098 38.9859L137.292 39.4708V39.8587L136.904 41.8954L136.807 43.3501L136.904 44.417L137.292 46.4536L137.777 47.1325L142.82 51.5938L146.699 54.0184V54.6003L146.796 55.0853L146.99 55.3762L147.281 55.7642L147.475 55.9581L148.639 56.734L148.93 57.2189L149.124 57.7038L149.318 57.9948L149.9 58.8677L150.191 59.3526L150.288 59.9345L150.191 60.2254L149.9 60.5164L149.415 60.6134L148.639 60.7104L148.348 60.9043L148.057 61.1953L147.766 61.8742V62.2621V62.65L148.057 63.135L148.154 63.7169L148.251 64.2988L148.154 64.5897L147.863 65.0747L147.572 65.3656L147.087 65.7535L146.214 66.2385L145.632 66.3355L144.856 66.4324L144.565 66.5294L143.499 67.2083L143.208 67.4023L142.044 67.6932L140.104 68.7601L139.813 68.8571L135.837 69.6329L135.352 69.8269L134.77 70.0209L132.248 70.3118L131.957 70.4088L131.667 70.6998L131.473 71.2817L131.182 72.7364V73.4153V73.7063L131.57 74.4821L132.442 75.8399L132.636 76.1309L132.733 76.7128V77.0037L132.636 77.6826L132.345 77.9736L132.054 78.3615L130.891 79.0404L130.503 79.1374L130.018 79.2344L129.436 79.1374L129.145 79.0404L128.66 78.4585H128.369L128.078 78.6525L127.787 78.9434L126.623 81.271L126.332 82.1439L125.944 83.0168L124.49 85.8293L124.199 86.1203L114.888 91.3574L114.403 91.5514H113.918L113.627 91.4544H112.949L112.658 91.6484L112.367 92.1333L112.076 94.7519L111.882 95.8187L111.203 97.3705H110.427L109.845 97.2735L109.36 96.9825L108.875 96.7886L108.39 96.8855H108.099L107.711 96.5946L107.517 96.4006L106.257 95.3338L105.772 95.0428L105.287 94.8489L104.608 94.6549H104.026L99.9526 95.7217H99.2737L97.431 95.2368H97.0431L96.8491 95.3338L96.5582 95.6247L96.1702 96.1097L95.6853 97.0795L95.4913 97.5644L95.3944 98.0494L95.4913 98.3403L95.8793 99.0192L96.0733 99.6011L96.2672 100.183L96.1702 100.862L95.8793 101.444L94.2305 104.062L93.9396 104.935L93.8426 105.42L94.0366 105.614L95.6853 106.681L95.9763 107.069L96.0733 107.36L95.9763 107.651L95.6853 108.039L93.9396 109.881L93.4547 110.657L93.0667 111.045L92.4848 111.336L91.709 111.53H90.5451L89.9632 111.627L88.8964 112.015L88.7024 112.209L88.5085 112.5L88.4115 113.082V113.47L88.5085 113.761L88.7994 114.246L89.0904 114.343H89.3813H89.5753L90.0602 114.052L91.224 112.985L91.515 112.888L91.8059 112.791L92.0969 112.888L92.5818 113.179L92.8728 113.567L92.9697 113.858L92.8728 114.149L92.7758 114.537L92.3878 115.41L92.2909 115.701V116.088L92.3878 118.028L92.7758 118.416L94.0366 118.804L95.0064 118.901L95.6853 118.513L96.0733 119.095L97.1401 120.453L97.2371 120.744V121.326L96.9461 121.908L96.5582 122.198L96.0733 122.586L95.0064 122.974L94.5215 123.071L94.1336 122.974L93.9396 122.877L93.2607 122.78H92.9697L92.3878 122.877L90.2542 123.75L87.9266 125.108L87.4416 125.302L86.1808 125.593L84.8231 125.496L84.2411 125.593L81.7196 126.757H81.1376H80.7497L78.4221 125.981L77.7432 125.884H77.4522L76.9673 126.078L74.5427 127.824L73.8638 128.115L73.4759 128.211L71.5362 127.436L70.8573 127.339H70.5663L70.1784 127.533L69.0146 128.599L68.5297 128.89L68.1417 128.987L65.4262 129.181L60.092 128.405L59.2192 128.502L58.6373 128.696L57.7644 129.278L56.7946 130.054L56.3096 130.733L56.1157 131.024L54.7579 135.291L54.37 136.261L53.982 136.94L53.0122 137.813L52.8182 138.007L51.6544 139.074L50.7815 139.656L50.4906 140.335L49.2298 146.348L49.0358 146.93V147.22V147.608L49.2298 147.996L49.8117 148.772L50.1026 149.257L50.2966 149.839L50.3936 150.712L50.4906 151.391L48.1629 160.41L46.9021 159.828L46.3202 159.731L43.5077 160.119L42.4409 160.022L40.8891 159.731L40.3072 159.537L39.8223 159.247L39.7253 159.053L39.5313 158.568L39.4343 158.277V157.792V157.404L39.2404 157.016L38.7555 156.531L38.3675 156.434L38.0766 156.531L37.8826 156.725L37.1067 157.792L36.8158 157.986L36.4278 158.18H36.1369L35.8459 157.792L35.7489 157.307V156.337L35.555 155.658H35.361H35.167L34.6821 156.24L34.1002 156.337L33.4213 156.434L30.8997 156.143L30.4148 156.046L29.9299 155.658L29.5419 155.367L29.251 154.979L28.1842 153.04L26.9234 149.839L26.5354 149.16L25.9535 148.675L25.5656 148.384L25.1776 148.287L23.7229 148.578L21.4922 149.257L21.0073 149.548L20.6194 149.645H20.2314H19.3586L18.9706 149.548L18.5827 149.354L18.1948 148.675L18.0008 148.093L17.8068 147.705L17.5159 147.22L15.5762 145.669L14.2184 144.02L13.9274 143.632L13.7335 143.05L13.6365 142.177V141.886V140.819L13.8305 140.238L14.3154 139.171L14.2184 138.492L13.2486 137.328L12.2787 136.746V136.552L11.4058 135L11.1149 134.225L11.2119 133.158L11.6968 131.509V130.83L11.0179 130.054L8.5933 128.696L7.62346 127.921L6.0717 125.884L4.32598 124.623L4.61694 124.526L3.74408 123.944L3.06519 124.817L2.77424 125.011L2.48328 124.623L2.77424 123.556L3.64709 121.811L4.32598 118.901L5.29583 116.379L5.4898 115.216L4.71392 107.651L4.51995 106.293L4.229 105.711L3.06519 104.45L2.3863 103.384L2.19233 102.899L1.99836 101.929L1.70741 98.4373L1.31947 97.2735L0.25264 94.267L1.61042 91.0665L5.68377 85.5384L6.65361 82.9198L7.04155 82.2409L7.62346 81.659L8.78727 81.465L9.36918 81.1741L10.242 80.3012L13.5395 74.2882L14.1214 73.6093L14.5093 73.3183L15.4792 72.9304L15.9641 72.5424L16.2551 71.9606L16.643 70.2148L16.934 69.5359L19.1646 67.2083L24.9837 58.6737L27.1173 56.2491L29.154 54.7943L30.7057 52.2727L43.0228 38.8889L45.4474 36.9492L48.3569 34.7185L49.9087 33.4577L54.176 28.8995L54.8549 27.7357L55.6307 25.408L56.2127 24.1472L56.8915 23.4683L57.8614 22.9834L59.7041 22.4015L69.4025 22.3045L72.2151 21.1407L73.3789 18.3282L73.6699 17.4553L73.7668 16.2915L73.6699 14.7397L73.8638 13.6729L77.2583 11.8302L78.3251 10.7634L79.004 9.79354V9.59957L78.713 9.4056L78.4221 8.24179L77.8402 4.26543L79.101 2.13177V2.03478L79.4889 1.45288L79.9738 1.06494L80.6527 0.870972H81.4286L82.1075 1.2589L82.3984 2.81066L82.8834 3.19859L83.6592 3.48955L84.1442 4.07146L84.4351 4.94431L84.92 5.52623L85.5989 5.81718L86.5688 6.20511L87.1507 6.69004V6.10812L88.1205 5.91416L88.6054 5.6232L89.1874 5.42924L90.5451 5.23527L90.7391 5.13828L91.224 4.75035L91.515 4.26543L91.8059 3.87749L91.9999 3.7805H92.4848L92.9697 4.07146L93.6486 4.55638L94.6185 5.52623L94.9094 6.10812V6.49607V6.78703V7.17496L95.0064 7.36892L96.5582 8.92068L96.8491 9.11465L97.2371 9.21164L97.819 9.11465L98.7888 8.82369L99.0798 8.72672L99.6617 8.92068L100.147 9.21164L101.698 11.0543L101.989 11.5393L102.183 12.1212L102.086 12.8001L101.989 13.091L101.698 13.5759L101.31 13.9639L100.825 14.1578L98.1099 14.8367L97.625 15.1277L97.528 15.3216L97.431 15.6126L97.528 15.9036L97.819 16.2915L100.05 18.1342L100.341 18.5221L100.438 19.0071V19.395L100.341 19.9769L100.244 20.3648L100.341 20.6558L100.535 20.8498L100.922 21.0437L101.698 20.9467L102.086 20.8498L102.377 20.5588L102.571 20.0739V19.104V18.7161L102.765 18.4252L102.959 18.2312H103.25L103.541 18.4252L103.832 18.8131L104.026 19.104L104.317 19.6859L104.608 19.9769L104.996 20.0739L106.742 20.1709L107.032 20.2679L107.323 20.3648L107.517 20.7528V21.1407L107.614 21.7226L108.002 22.1106L110.233 23.4683L110.718 24.0502L111.009 24.5352L110.912 25.2141L111.009 25.505L111.106 25.796L111.494 26.0869L112.076 26.2809L114.791 26.4749H115.567L116.052 26.2809L116.537 25.9899L117.022 25.796L117.604 25.602L118.768 25.311L122.162 25.893L122.841 25.796L123.229 25.505L123.132 24.5352V24.2442L123.326 24.0502L123.811 24.1472L124.49 24.5352L126.041 25.505L127.108 26.0869L128.757 25.796H129.339L129.533 25.9899L129.824 26.1839L130.115 26.4749L130.406 27.0568L130.503 27.9296L130.309 30.3542V30.3542Z" fill="#FFE300"/>
</svg>
