<svg width="158" height="143" viewBox="0 0 158 143" fill="none" xmlns="http://www.w3.org/2000/svg">
<path d="M88.8729 134.855L86.9333 137.959L84.5086 136.892L83.2479 136.601L82.084 136.504L81.3082 136.989L80.4353 137.862L80.1443 138.25L79.9504 138.832L79.8534 139.607L79.9504 142.032L78.6896 138.735L78.3017 138.25L77.5258 137.959L71.2218 131.558L70.3489 129.715L72.0946 131.17L73.5494 132.625L74.3253 133.109L83.7328 132.334L85.5755 132.915L88.582 134.758L88.8729 134.855V134.855ZM152.398 20.6075L152.98 21.0924L152.883 21.5774L152.592 22.3532L152.204 23.808V24.2929L152.301 24.5839L152.592 24.7778H153.174L153.465 24.6808L153.852 24.7778L154.24 24.9718L154.725 25.7477L154.919 26.2326V26.5236L154.531 27.0085L154.434 27.2994L154.337 27.6874L154.24 29.5301L154.143 29.918L153.95 30.403L153.756 31.4698V35.8341V36.416L153.95 36.8039L154.337 37.0949L154.628 37.3858L154.919 37.8707L155.21 38.9376L155.113 39.3255L154.919 39.6165L152.592 39.8104L150.555 40.3923L150.264 40.4893L149.876 40.8773L149.585 41.0712L149.682 41.5562L149.973 42.332L150.846 43.8838L151.234 44.8536L151.525 45.7265L151.622 46.5023V46.9873L151.428 47.3752L151.137 47.7632L150.555 48.442L150.167 49.0239L150.07 49.6059V49.9938L150.167 50.1878L150.361 50.3817L150.749 50.5757L155.307 51.2546L155.21 51.9335L155.113 52.9033L155.21 53.4852L155.307 53.9702L155.598 54.4551L156.374 55.134L156.665 55.4249L156.859 55.9098V56.2008L156.471 57.0737V57.3646V57.8495L156.859 58.6254L157.053 59.2073L157.247 59.5952V60.2741L157.053 60.8561L156.956 61.5349V61.9229L157.053 62.5048L157.441 63.3777V63.9595L157.344 64.2505L157.15 64.4445L156.665 64.6384L155.598 64.7354L155.016 64.5415L154.919 64.3475L154.822 64.1535L154.531 63.0867L153.95 61.9229L153.852 61.7289L153.659 61.6319L153.465 61.7289L153.368 62.2138L153.174 62.8927L152.98 63.2807L152.204 64.4445L151.913 65.1234V65.3174L152.107 65.8023L152.398 66.1902L152.786 66.5781L153.368 66.7721H155.21L155.404 66.8691L155.695 66.9661L155.792 67.16L156.956 69.7786L157.15 70.5545V71.0394V71.5243L156.956 72.2032L156.471 73.658L156.18 74.6278L156.083 75.3067V75.8886L156.277 76.3736L156.568 77.1494L157.732 79.1861L157.829 79.4771V79.671L157.538 80.3499L157.344 80.9318L157.247 81.2228L156.956 81.4167H156.568L156.277 81.3198L155.598 80.9318L155.307 80.8349L155.016 80.9318L154.628 81.1258L153.077 82.9685L152.786 83.1625L152.398 83.3564L151.622 83.4534H150.361L150.264 83.3564L149.682 82.6776L149.488 82.5806L149.197 82.6776L148.906 83.0655L148.421 84.4233L147.064 87.4298L146.094 88.6906L145.9 89.2725L145.997 89.7574L146.094 90.3393L146.191 91.1152L146.288 91.3092L146.482 91.5031H146.773L147.549 91.4062L148.13 91.5031L151.234 93.3458L153.659 95.6735L153.756 95.9644V96.1584L153.562 96.7403L153.174 97.4192L152.204 98.486L152.01 98.777L151.913 99.1649V99.6498L151.816 99.7468L150.361 98.777L150.07 98.486L149.779 98.0981L149.488 97.7101L149.1 97.4192L148.615 97.6132L148.033 98.0981L147.84 98.486L147.742 98.8739L147.84 99.7468V100.329L148.033 100.814L148.421 101.202L148.615 101.299H150.555L150.943 101.493L151.234 101.88L151.331 102.074L151.04 102.462L150.458 102.753L148.324 103.335L147.549 103.723L146.385 105.081L145.9 105.275L140.663 106.148L140.372 106.245L140.081 106.633V106.924L140.178 107.215L140.372 107.409L140.76 107.603L141.148 107.797L142.408 107.894L145.318 107.603L145.706 107.7L146.191 107.991L146.482 108.087L146.967 107.991L147.161 108.087L147.355 108.281L146.773 108.669L145.9 109.154L141.729 110.609L141.245 110.9L140.954 110.997L138.335 110.9L135.425 111.288H134.844L134.456 111.094L134.262 110.9L133.971 110.512L133.583 109.833L133.292 109.445L133.001 109.348L131.837 108.96L131.546 108.766L131.158 108.475L130.77 108.378H128.637L128.055 108.281L127.667 108.087L127.473 107.991L126.988 107.894L126.794 107.797L126.406 107.409L126.212 107.312H125.921L125.727 107.409L125.63 107.797V108.96V109.251L125.436 109.93L125.145 110.318L124.854 110.512L124.466 110.609L122.527 110.803L122.042 110.706L121.654 110.512L121.363 109.736L121.169 109.542L120.975 109.445H120.684L119.52 109.542L117.677 110.027L117.289 110.221L116.901 110.706L116.707 111.094L116.029 113.034L115.932 113.228L115.641 113.422L115.253 113.519L113.798 113.422L110.694 112.258H110.113L109.434 112.355L109.046 112.549L108.755 112.743L108.27 113.131L108.076 113.519L107.979 113.907L107.397 115.361L106.912 116.331L106.718 116.622L106.427 117.01L106.039 117.301L105.069 117.689L103.421 118.174H102.839L102.16 117.98L101.287 117.398L100.705 117.301L100.317 117.398L99.8322 117.495L98.9593 118.174L98.4744 118.659L97.6986 118.95L94.983 118.853L94.886 119.241L94.692 118.756L94.1101 117.689L93.6252 116.331L93.3343 113.131L94.4011 110.609L95.8558 108.378L96.9227 105.663L97.2136 104.111L97.1166 102.85L96.5347 102.074L93.9161 101.59L93.3343 100.911L93.5282 99.9408L95.08 97.5162L95.5649 96.6433L95.2739 96.0614L93.8192 95.8674L91.3946 96.3524L90.4247 96.2554L89.5518 95.2855L91.1036 91.9881L91.2976 90.0484L90.5217 88.0117L89.7458 87.3328L89.0669 87.1388L88.485 86.8479L88.0971 85.5871L87.9031 84.1323V83.2595L87.7092 82.6776L86.9333 81.8047L83.8298 80.3499L83.2479 79.3801L83.5388 77.7313L83.4418 77.1494L82.9569 76.9555L82.7629 77.2464L81.9871 78.6042L81.7931 79.0891L82.084 79.962L82.9569 80.9318L84.0237 81.6107L86.3514 82.1926L86.9333 83.1625V87.7207L87.1272 88.2057L88.485 88.4966L88.8729 88.8846L89.0669 89.1755L89.3579 89.3695L90.0368 89.9514L89.6489 91.3092L88.8729 92.6669L88.485 93.1519L88.0971 96.7403L89.7458 97.5162L92.1704 97.1282L93.9161 97.4192L92.3644 99.2619L91.6855 100.523L91.3946 101.783L91.8795 103.141L92.8493 103.432L94.0132 103.044L95.08 102.365L95.3709 104.014L94.789 106.342L93.8192 108.475L92.6554 109.348L91.3946 109.736L90.2307 110.9L89.5518 112.646V114.682L91.5886 117.398L91.7825 117.98L91.3946 121.471L91.5886 122.732L91.7825 123.411L91.8795 123.896L91.3946 124.866L91.0066 125.351L89.8428 126.224L89.1639 126.515L86.8363 126.999L84.5086 126.611L79.2715 124.575L76.071 124.866L75.1982 125.448L74.7132 126.515L74.2283 127.387L72.9675 127.581L72.5796 127.387L71.8037 126.611L71.3188 126.515L70.155 126.611L69.5731 126.515L69.1851 126.224L68.8942 125.157L69.4761 123.799L72.3856 118.756L73.1615 117.107V116.331L73.8404 115.749L76.265 112.064L75.6831 111.094L75.1982 111.482L74.8102 112.646L74.4223 113.616L74.0343 113.907L73.0645 114.391L72.5796 114.682L72.2886 115.07L71.2218 116.719V117.01L71.0278 117.204L70.3489 117.398L69.67 117.01L68.9911 116.331L68.2153 114.391L67.6334 113.422L66.7605 113.034L67.3424 115.07L67.4394 115.555L67.5364 116.719L67.9243 117.107L68.4093 117.398L70.058 118.756L70.252 119.338L69.864 120.404L68.8942 121.956L68.7972 122.247L67.9243 122.926L66.0816 125.836L65.4028 126.515L64.4329 126.708L62.0083 128.066L61.2324 128.648L60.4565 128.26L59.0018 128.066L58.3229 127.581L57.9349 128.163L56.8681 127.484L53.1827 126.515L52.4068 122.15V120.695L52.5038 120.308L52.6978 119.823L52.6008 119.338V118.853L52.3098 118.077L51.9219 111.87L51.8249 111.094L50.8551 110.318L50.0792 109.93L49.6913 109.445L49.1094 108.087L48.7214 107.409L48.4305 107.021L46.1028 105.469L45.8119 104.887L45.327 103.917L44.8421 102.268V101.493L44.939 101.105H45.133L47.8485 100.911L48.2365 100.62L48.8184 99.6498L49.0124 99.4559L49.2064 99.3589H49.7882L49.9822 99.4559L50.3701 99.7468L50.5641 99.8438L51.34 99.6498L54.6375 99.3589H54.9284L55.1224 99.1649L55.4133 98.486L55.6073 98.1951L55.8013 98.0981L56.8681 97.5162L57.1591 97.2252L57.45 96.2554L57.741 95.0916L58.0319 94.6066L58.3229 94.2187L58.6138 93.9278L58.9048 93.4428L59.0018 92.9579V92.376V91.6001L59.5837 90.2423L59.4867 89.6604L59.3897 89.3695L59.1957 89.1755L59.0018 89.0785L58.0319 88.9815L57.741 88.8846L57.547 88.6906L57.353 88.3026L57.256 87.7207L56.8681 87.0419L56.7711 86.8479L56.1892 86.266L55.8013 85.6841L55.5103 84.9082L55.3164 84.5203L55.1224 84.3263H54.5405L54.0556 84.5203L53.3767 84.8112L52.8917 84.9082L52.4068 84.7142L51.8249 84.2293L51.34 83.9383L50.0792 83.6474L49.7882 83.5504L49.5943 83.2595L49.4003 82.9685L49.3033 82.3866V81.7077L49.4003 81.0288L49.5943 80.8349L50.0792 80.6409L50.5641 80.4469L51.0491 80.2529L51.243 80.059L52.0189 79.2831L52.1159 78.9921L52.3098 78.4102L52.2128 77.7313L52.1159 77.2464L51.7279 76.3736L51.34 75.9856L51.146 75.8886L46.8787 76.8585L45.23 77.5374H44.939L44.6481 77.4404L44.0662 76.3736L43.8722 76.1796H43.6782L41.5446 76.0826L38.5381 75.5007L37.8592 74.4339L36.9863 72.3972L34.4647 64.7354L34.1738 63.4746L34.8526 61.7289L35.1436 60.4681L35.3376 59.6922L35.4346 58.9164L35.3376 58.3345L35.4346 57.8495L35.8225 57.5586L36.0165 57.3646L36.2104 56.7827V56.0068L36.0165 54.3581L35.7255 53.8732L34.9496 53.0003L34.3677 51.9335L34.0768 51.4486L33.6888 51.1576L31.8461 51.0606L31.5552 50.9636V50.6727L31.6522 50.4787L31.8461 49.9938V49.4119L31.7492 47.9571L31.5552 47.4722L31.2642 47.1812L28.2577 47.8602L28.0637 48.0541L27.8698 48.2481V48.636L27.5788 49.8968L27.2879 50.4787L26.9969 50.8666H26.706L26.415 50.6727L26.221 50.3817L25.9301 49.7998L25.6391 48.3451L25.4452 48.0541L25.1542 47.8602L23.2145 47.7632H22.9236L22.5356 47.5692L21.8567 46.9873L21.5658 46.8903H21.2748L20.9839 46.9873L20.499 47.5692L19.6261 48.1511L19.1412 48.442H18.9472H18.6563L18.3653 48.2481L17.9774 47.7632L17.6864 47.6662H17.3954L14.9708 48.1511L14.6799 48.0541L14.001 47.2782L13.807 47.0843L12.5462 46.4054L11.9643 46.0174L11.6734 45.3386L11.4794 44.5627L11.0915 43.5928L10.9945 42.9139L11.0915 42.332L11.4794 41.5562L11.5764 41.2652L11.6734 40.8773V40.2953L11.2854 39.7134L10.6065 39.2285L9.92767 38.4527L9.73369 38.1617V37.7737L9.83068 37.4828L10.0246 37.2888L10.5095 36.7069L10.7035 36.513L10.8975 36.125V35.7371L10.6065 34.5733L10.3156 34.1853L10.0246 33.9914L8.66685 33.4094L8.08494 33.0215L7.21209 32.2457L6.82415 31.5667L6.72716 30.8879L5.36939 22.2562L5.2724 21.9653L5.07845 21.6744L4.1086 20.4135L3.52669 19.6377L3.13876 19.1528L2.94478 19.0558L1.587 18.6678L1.19907 18.4739L1.00509 17.9889V17.2131L1.10208 16.6312L1.49001 15.9522L1.587 15.3704L1.49001 15.0794L1.587 14.0126L1.49001 13.6246L1.39302 13.3337L0.714147 12.8488L0.617157 12.6548L0.714147 12.4608L1.29603 11.8789L3.13876 11.103L4.01161 11.2L4.20556 11.103L4.49653 10.7151L4.69048 10.5211H4.98146H5.2724L5.85431 10.7151L6.14525 10.6181L6.33923 10.4242L6.43622 10.0362V9.64826L6.14525 9.35732L5.46638 8.96939L5.2724 8.77541L5.17541 8.38748V6.93271L6.72716 7.0297L7.11509 6.93271L7.40607 6.44779L7.794 4.99302L8.08494 4.70208H16.3286L16.8135 4.79904H17.2985L17.6864 4.89603L20.111 5.76888L22.1477 6.25381H22.7296L23.0206 6.05986L23.3115 5.67192L23.5055 4.99302L23.6024 4.79904L24.0874 4.5081L24.7663 4.12017L27.2879 3.24731L27.8698 3.15032L29.4215 3.44126H31.0703L31.7492 3.53825L32.2341 3.73223L32.331 4.31412L32.525 4.60509L32.719 4.89603L33.3009 5.09001H33.5919L33.7858 4.89603L34.1738 3.8292L34.3677 3.53825L34.5617 3.34427L35.0466 2.95634L35.4346 2.85935L35.7255 2.95634L36.0165 3.05333L36.4044 3.44126L36.5014 3.73223V4.31412L36.6953 4.60509L36.8893 4.89603L37.6652 5.187L38.0531 5.28396L38.4411 5.187L38.829 4.89603L39.023 4.70208L39.3139 4.31412L39.7019 4.02318L41.4476 3.44126L41.8355 3.24731L42.0295 3.05333L42.2235 2.47142L42.3205 1.79255L42.8054 1.30762L43.4842 0.919662L45.327 0.240789L46.4908 0.143799L50.3701 0.43474L51.243 0.725711L52.1159 0.822702L52.6008 1.01665L52.9887 1.11364L53.0857 1.69556L53.2797 3.8292V4.12017L53.4737 4.31412L53.8616 4.60509L55.1224 4.89603L55.3164 5.09001L55.4133 5.47794V6.73873V7.0297L55.5103 7.32064L55.7043 7.70857L55.9953 7.90255L56.5771 8.1935L61.5234 8.8724H62.0083L62.8811 8.1935L63.754 7.80556L63.948 7.90255L64.1419 8.09653L64.3359 8.67842L64.6268 8.8724L65.0148 9.16334L65.4028 9.26033L65.5967 9.16334L65.7907 8.96939L66.2756 8.77541L66.9545 8.58146L69.961 8.29049L70.3489 8.58146L70.5429 8.96939L70.6399 9.5513L70.4459 11.297L70.252 11.8789L69.961 12.5578V13.0427L70.252 13.3337L70.5429 13.4307H70.9308L71.1248 13.3337L71.3188 13.1397L71.4157 12.5578L71.5128 11.588L71.6097 11.2L71.8037 10.9091L72.1917 10.6181H72.4826L72.6766 10.8121L72.8705 11.103L73.1615 11.2H73.4525L74.2283 11.103L74.7132 10.8121V10.5211V9.64826V9.35732L74.8102 9.06638L75.0042 8.8724L75.2951 8.67842L76.168 8.29049L76.556 8.38748L76.7499 8.48447L77.5258 9.35732L77.8168 9.5513L78.3017 9.74525L78.9806 9.64826L79.3685 9.74525L79.7564 9.84224L80.2414 10.2302L80.6293 10.3272L80.9203 10.4242L83.0539 9.93923L83.5388 10.0362L83.8298 10.2302L83.9268 10.4242L84.3147 11.7819L84.6057 12.5578V13.1397L84.5086 13.8186L84.4117 14.1096L84.0237 14.4975L83.4418 14.9824L81.3082 15.9522L81.1142 16.0492L81.2112 16.5342L81.9871 17.8919L83.6358 20.8015L84.3147 21.6744L84.9936 22.2562L85.2846 22.3532L86.6423 22.0623L86.9333 22.1593L87.2243 22.2562L87.5152 22.6442L87.7092 23.1291L87.8061 24.002L88.0001 24.4869L88.1941 24.6808L89.3579 26.1356L89.5518 26.6205L89.6489 27.2025V27.4934L89.3579 27.9783L88.485 29.4331L88.1941 29.918V30.209L88.2911 30.7909L88.8729 31.6637V32.2457L88.776 32.9245V33.3125L88.8729 33.7004L89.0669 34.0884L89.3579 34.2823H89.7458H94.4011L94.692 34.1853L94.886 33.9914L95.08 33.1185L95.4679 32.9245L96.0498 32.8276L97.9895 33.1185L98.3775 33.3125L98.9593 33.8944L100.22 34.5733L100.414 34.6703L100.802 35.1552L101.287 36.028L101.481 36.513L101.675 36.9009L102.16 37.1919L103.227 37.7737L103.809 37.9677L104.197 38.0647L104.778 37.9677L105.263 37.7737L105.554 37.6768L105.845 37.2888L106.524 36.416L107.203 34.9612L108.367 33.0215L108.658 32.6336L108.949 32.4396L109.337 32.2457L111.373 31.9547L112.246 32.1487L112.828 32.3426L114.283 33.2155L115.253 34.1853L115.447 34.2823L115.738 34.1853L116.32 33.8944L116.901 33.7974L117.58 33.8944L117.774 34.0884L121.363 35.3491L121.848 35.4461L131.158 33.8944H131.449L131.546 33.6034L131.643 33.4094V32.1487V31.8577L131.74 31.1788L131.837 30.8879L132.031 30.7909L133.098 30.5969L133.292 30.403L133.389 30.209V30.015L132.904 29.4331L132.807 29.1421V28.8512L132.904 28.1723L132.807 27.5904L132.419 26.9115L132.225 26.4266L132.322 26.1356L132.516 25.6507L132.71 25.5537L133.292 25.3598L134.747 25.1658H134.941L135.135 24.9718L135.232 24.3899V23.711L135.135 23.5171L134.941 23.4201L134.068 23.2261L133.777 23.1291L133.486 22.7412L133.389 22.1593L133.486 21.4804L133.68 20.8985L133.971 20.4135L134.165 20.2196L134.553 19.9286L135.232 19.5407L137.462 19.1528L138.529 18.7648H138.82L139.014 18.9588L139.596 19.8316L139.79 20.0256L140.081 20.3165L140.663 20.6075H141.051L141.342 20.5105L141.439 20.3165L141.826 19.4437L141.923 19.1528L142.117 18.9588L143.766 18.6678L144.154 18.3769L144.348 18.1829V17.795L144.154 17.0191L144.057 16.4372L144.154 15.8553L144.251 15.5643L144.445 15.2734L144.833 15.0794L145.512 14.8854H146.094L147.452 15.1764L147.742 15.0794L148.906 14.3035H149.197L149.391 14.4005L149.585 14.9824L149.682 15.4673L149.876 16.0492L150.07 16.4372L151.04 17.601L151.234 17.9889L151.331 18.4739V19.4437V19.7347L151.525 19.9286L152.398 20.6075V20.6075Z" fill="#FFE300"/>
</svg>
