<svg width="168" height="237" viewBox="0 0 168 237" fill="none" xmlns="http://www.w3.org/2000/svg">
<path d="M87.0868 206.169L82.9165 207.915L85.632 206.46L86.7959 205.587L87.1838 204.811L87.4747 204.132L88.1536 203.841L89.0265 203.744L89.7054 203.453L90.5782 202.774L92.13 201.029L93.0029 200.253L101.441 192.494L104.156 191.039L92.5179 202.193L87.0868 206.169V206.169ZM113.176 7.93272V9.38749L113.273 9.77542L113.467 9.9694L114.145 10.3573L114.436 10.6483V11.0362L114.339 11.4242L114.145 11.6181L113.855 11.7151L113.273 11.5212H112.982H112.691L112.497 11.7151L112.206 12.103L112.012 12.2L111.139 12.103L109.296 12.8789L108.714 13.4608L108.617 13.6548L108.714 13.8488L109.393 14.3337L109.49 14.6246L109.587 15.0126L109.49 16.0794L109.587 16.3704L109.49 16.9523L109.102 17.6312L109.005 18.2131V18.9889L109.199 19.4739L109.587 19.6678L110.945 20.0558L111.139 20.1528L111.527 20.6377L112.109 21.4135L113.079 22.6744L113.273 22.9653L113.37 23.2562L114.727 31.8879L114.824 32.5668L115.212 33.2457L116.085 34.0215L116.667 34.4095L118.025 34.9914L118.316 35.1854L118.607 35.5733L118.898 36.7371V37.125L118.704 37.513L118.51 37.707L118.025 38.2888L117.831 38.4828L117.734 38.7738V39.1617L117.928 39.4527L118.607 40.2285L119.286 40.7134L119.674 41.2954V41.8773L119.577 42.2652L119.48 42.5562L119.092 43.332L118.995 43.9139L119.092 44.5928L119.48 45.5627L119.674 46.3386L119.965 47.0174L120.546 47.4054L121.807 48.0843L122.001 48.2782L122.68 49.0541L122.971 49.1511L125.396 48.6662H125.687L125.978 48.7632L126.365 49.2481L126.656 49.442H126.947H127.141L127.626 49.1511L128.499 48.5692L128.984 47.9873L129.275 47.8903H129.566L129.857 47.9873L130.536 48.5692L130.924 48.7632H131.215L133.154 48.8602L133.445 49.0541L133.639 49.3451L133.93 50.7998L134.221 51.3817L134.415 51.6727L134.706 51.8667H134.997L135.288 51.4787L135.579 50.8968L135.87 49.636V49.2481L136.064 49.0541L136.258 48.8602L139.264 48.1813L139.555 48.4722L139.749 48.9571L139.846 50.4119V50.9938L139.652 51.4787L139.555 51.6727V51.9636L139.846 52.0606L141.689 52.1576L142.077 52.4486L142.368 52.9335L142.95 54.0003L143.726 54.8732L144.017 55.3581L144.211 57.0068V57.7827L144.017 58.3646L143.823 58.5586L143.435 58.8495L143.338 59.3345L143.435 59.9164L143.338 60.6922L143.144 61.4681L142.853 62.7289L142.174 64.4746L142.465 65.7354L144.987 73.3972L145.859 75.4339L146.538 76.5007L149.545 77.0826L151.678 77.1796H151.872L152.066 77.3736L152.648 78.4404L152.939 78.5374H153.23L154.879 77.8585L159.146 76.8887L159.34 76.9856L159.728 77.3736L160.116 78.2464L160.213 78.7314L160.31 79.4103L160.116 79.9921L160.019 80.2831L159.243 81.059L159.049 81.253L158.564 81.4469L158.079 81.6409L157.594 81.8349L157.401 82.0288L157.304 82.7077V83.3866L157.401 83.9685L157.594 84.2595L157.788 84.5504L158.079 84.6474L159.34 84.9383L159.825 85.2293L160.407 85.7142L160.892 85.9082L161.377 85.8112L162.056 85.5203L162.541 85.3263H163.123L163.317 85.5203L163.511 85.9082L163.801 86.6841L164.189 87.266L164.771 87.8479L164.868 88.0419L165.256 88.7207L165.353 89.3026L165.547 89.6906L165.741 89.8846L166.032 89.9816L167.002 90.0785L167.196 90.1755L167.39 90.3695L167.487 90.6604L167.584 91.2423L167.002 92.6001V93.376V93.9579L166.905 94.4428L166.614 94.9278L166.323 95.2187L166.032 95.6066L165.741 96.0916L165.45 97.2554L165.159 98.2252L164.868 98.5162L163.801 99.0981L163.608 99.1951L163.414 99.486L163.123 100.165L162.929 100.359H162.638L159.34 100.65L158.564 100.844L158.37 100.747L157.982 100.456L157.788 100.359H157.207L157.013 100.456L156.819 100.65L156.237 101.62L155.849 101.911L153.133 102.105H152.939L152.842 102.493V103.268L153.327 104.917L153.812 105.887L154.103 106.469L156.431 108.021L156.722 108.409L157.11 109.087L157.691 110.445L158.079 110.93L158.855 111.318L159.825 112.094L159.922 112.87L160.31 119.077L160.601 119.853V120.338L160.698 120.823L160.504 121.308L160.407 121.695V123.15L161.183 127.515H159.631L156.916 128.387L154.006 128.775L151.775 129.551L150.612 129.648L150.127 130.036L148.866 131.103L148.478 131.006L147.799 130.715L147.12 131.006L143.92 133.237L143.338 133.431L141.01 132.946L140.525 132.849L139.846 133.431L138.295 135.661L137.907 136.34L138.101 137.407L139.07 139.347L139.361 140.898H139.652L140.04 141.286L140.234 141.771L139.846 142.159L139.458 143.032L138.973 145.36L138.876 145.651L136.646 148.657L135.773 149.433L132.863 149.239L132.379 149.724L132.669 150.112L133.93 150.985L134.318 151.664V152.44L134.027 153.215L132.476 156.319L128.693 161.653L127.626 163.884L126.85 164.951L125.978 165.435L125.493 166.114L124.426 169.121L123.941 170.188L117.346 176.589L111.43 184.541L108.423 187.548L104.835 190.36L104.932 189.294L104.641 185.026L104.253 184.832L103.768 185.317L103.38 186.093L103.089 186.966L102.895 189.003L102.798 189.585L102.604 190.069V190.457L102.507 190.748L102.022 190.845L101.634 190.36L101.344 190.263L101.15 190.554L100.665 190.845L98.24 188.809L96.8822 188.227L95.7184 188.906L95.3305 190.36L95.1365 192.3L94.8456 194.046L94.3606 193.173L93.7787 192.494V191.912L94.1667 191.039L93.8757 190.651L93.4878 190.845L93.0029 191.912V193.173L93.1968 194.24L93.6818 195.016L94.1667 195.598L93.7787 197.731L93.4878 196.955L93.0998 196.47L91.936 195.598L91.839 195.307V194.919V194.725L91.3541 194.531L91.0632 194.725L90.7722 195.404L90.6752 195.598H89.4144L87.9597 195.889L86.7959 196.664L86.4079 198.216L86.8929 199.283L87.5717 199.768L89.0265 200.253L89.8024 201.126L90.1903 201.708L89.8993 201.999L88.9295 202.386L88.0566 203.065L87.1838 203.55L86.117 202.968L85.923 203.55L85.826 203.647V203.938L86.117 204.52L85.2441 205.005L83.7893 205.49L83.1104 206.169L83.2074 204.132L82.6255 202.096L81.5587 200.447L80.3949 199.865L80.4919 199.283L80.2009 195.598L80.4919 194.337L80.8798 193.755L80.9768 193.27L80.5889 192.494L80.2979 192.009L79.91 191.718L78.8431 190.845L78.4552 190.457L78.2612 189.779L77.9703 189.875L77.7763 190.263L77.5823 190.845L77.7763 191.33L78.5522 192.397L78.7461 192.688L78.5522 193.367L77.4853 194.725L77.1944 195.598V196.761L77.2914 197.44L77.5823 197.925L77.9703 198.798L76.1276 200.253L75.7396 203.259L75.9336 206.945L75.3517 210.436L76.7095 211.115L77.4853 211.309L78.5522 211.406L79.522 211.212L80.2979 210.727L81.6557 209.272L80.9768 210.145L79.2311 212.958L78.5522 213.54L77.9703 213.831L77.6793 214.607L77.3884 215.285L77.0974 215.673L76.2246 215.964V216.643L77.0974 218.389L77.4853 218.971L78.1643 219.359L78.7461 219.262L78.9401 218.583L78.8431 217.71L78.9401 216.934L79.813 216.643V218.486L80.007 218.777H80.2979L80.5889 218.486V218.195L80.9768 218.292H81.4617L81.7527 218.583L82.0436 219.844L82.3346 218.68L82.6255 217.419L83.0135 216.837L83.8863 217.71L84.2743 218.971V220.426L83.8863 221.492L82.8195 221.395L83.5954 222.268L83.9833 223.723L84.1773 225.372L84.2743 228.572V229.251L84.0803 229.93L83.5954 230.997L83.4984 231.579L82.9165 233.422L82.8195 234.197V234.876V235.07L81.7527 236.04L80.8798 236.622L79.91 236.816L79.1341 236.622L79.425 236.137L79.522 235.555L79.425 234.973L79.1341 234.488L79.813 232.258L79.522 229.348L78.6492 226.73L77.4853 225.566L76.8064 225.275L74.2849 222.947L66.8171 220.232L62.7437 219.844L62.1618 219.65L61.5799 219.359L60.998 219.262L60.5131 219.553L60.2221 219.941L59.8342 220.426L59.3492 220.717L58.8643 220.911H57.7005L56.8277 220.717L55.9548 220.814L54.791 221.395L54.0151 222.074L53.5302 222.656L53.3362 223.238L53.0453 223.432L51.7845 223.529L51.2996 223.723L50.5237 224.499L49.6508 224.984L47.4202 225.566L44.7046 227.893L43.9287 228.281H42.7649L42.28 228.378L41.8921 228.669L41.6011 229.348L41.4071 230.803L41.2132 231.385L39.9524 231.87L38.8856 231.191L38.0127 230.221L37.3338 229.736L36.073 229.542L34.7152 228.572L33.8424 228.281L32.3876 228.572V229.736L32.4846 230.803L30.9328 231.579L30.8358 232.161L30.9328 232.937L31.2238 233.422L31.6117 233.809L33.1635 234.488L32.4846 235.167L31.8057 235.458L30.157 235.555L28.1203 235.846L21.0404 234.197L16.5791 231.87L11.8269 230.609L9.88719 229.542L9.01434 229.251L7.75355 228.475L6.68672 226.536L5.13496 222.462L5.42593 220.911L4.3591 219.456L2.80734 218.583L1.44956 218.777L0.77066 217.904L0.867651 217.322L1.25558 216.352L1.64351 215.479L4.55305 213.249L8.33546 213.54L12.4088 214.607L15.8032 214.8L16.9671 214.219L17.258 213.346L16.8701 210.727L16.7731 210.436L17.161 209.757L17.452 209.466L18.8098 208.787L18.1309 207.818L17.8399 206.751L17.7429 205.684L17.452 204.617L16.7731 203.841L15.9972 203.356L15.5123 202.774L15.8032 201.902L17.0641 200.059L17.6459 199.38L18.6158 198.798L20.1675 198.313L20.4585 197.731L20.1675 196.276L20.9434 194.822L24.6288 194.434L25.9866 193.658L26.1806 192.882L26.0836 192.106L25.9866 191.427V190.942L26.3745 190.554L27.9263 190.263L28.9931 189.682L29.672 189.003L30.06 188.033V186.481L29.866 185.123L29.0901 182.505L29.1871 181.147L29.769 180.08L30.7388 179.401L40.0494 176.977L41.4071 176.298L41.5041 174.843L40.5343 171.448L40.4373 169.509L40.8252 168.345L42.6679 166.211L43.9287 164.175L44.5106 162.332L44.2197 160.586L41.1162 157.58L40.1463 156.319V155.349L40.5343 154.185L40.8252 152.827L40.7283 151.567L39.8554 147.881L39.3705 145.069L39.7584 142.838L40.8252 141.092L44.8016 138.377L47.7111 137.31L52.4634 134.594H53.6272L54.5 135.758L54.791 137.407L54.888 144.002L54.791 144.875L54.4031 145.651L53.9181 146.426L53.5302 147.105L53.6272 147.978L54.5 148.754L55.6639 147.978L57.6035 145.845L58.2824 145.554L58.6704 145.748L58.9613 145.554L59.2523 144.584L59.3492 143.905L59.0583 142.353L59.2523 141.383L60.2221 139.735L60.901 140.026L62.1618 142.741L63.1317 144.196L63.8105 144.099L66.1382 140.51L67.205 139.444L68.2718 138.765L69.5326 138.959L69.8236 139.444L69.9206 140.026L69.8236 140.51L69.2417 141.674L69.1447 142.256L69.2417 142.838L69.5326 143.42L70.3085 143.808L72.0542 144.099L72.8301 144.39L73.509 145.069L74.2849 146.814L75.0607 147.784L75.8366 148.269L76.8064 148.366L77.6793 148.075L78.3582 147.299L78.7461 146.039L78.5522 144.099L78.8431 143.614H80.3949L81.4617 143.226L82.0436 142.062V139.832L82.7225 141.092L85.535 143.711L86.6989 145.554L86.9898 146.136V146.911V148.366L87.0868 148.948L88.1536 150.112L89.2205 149.918L91.2571 148.172L92.13 147.59L93.0029 147.493L99.4038 147.784L101.731 147.396L103.186 146.039L104.447 143.614L103.768 143.129L102.895 143.032L102.119 143.129L101.537 143.614L100.665 142.547L98.143 140.607L98.531 139.929L97.9491 138.571L97.5611 138.086L97.1732 137.698H96.7852L96.2033 138.086L95.8154 138.28L95.6214 138.086L95.3305 137.31L95.2335 137.116L92.9059 136.146L92.13 135.176L91.936 133.431L92.9059 133.334L94.0697 133.14L94.7486 131.394L94.5546 130.715L93.8757 129.066L93.6818 128.29L93.7787 127.224L93.9727 126.545L94.1667 125.769L94.4576 124.896L94.8456 120.047L94.7486 118.592L94.5546 118.01L93.9727 116.846L93.7787 116.264L93.6818 115.585V113.84L93.5848 113.355L93.0029 113.064L92.4209 113.258L91.936 113.646L91.4511 113.549L91.2571 113.161L90.7722 111.706L90.5782 111.124L89.0265 109.863L87.4747 109.669L85.923 109.863L84.1773 109.572L83.2074 108.797L81.9466 106.76L81.0738 105.887L80.2979 105.596L78.5522 105.402L77.6793 105.111L77.1944 104.723L76.3215 103.753L75.8366 103.462L74.4788 103.656L74.1879 103.559L73.703 102.687L73.8 101.62L74.0909 100.359L74.4788 97.4493L75.0607 96.5765L75.6427 95.8976L76.1276 94.8308L76.0306 93.57L75.6427 92.5032L75.0607 91.6303L74.2849 91.1453L73.315 91.2423L72.7331 92.2122L72.2482 93.182L71.6663 93.6669L71.1814 93.182L69.5326 90.0785L69.3387 89.5936L69.4357 89.3996L69.5326 89.1087L70.9874 89.0117L72.1512 88.6238L72.9271 87.7509L73.315 85.7142L72.7331 81.6409L72.9271 79.8952L74.2849 79.2163L74.8668 77.8585V76.0158L74.2849 74.1731L73.606 72.8153L72.7331 71.9424L71.6663 71.6515L70.5994 71.5545L69.5326 71.6515L68.9507 72.9123L68.7568 74.0761L68.3688 75.2399L67.399 76.1128L66.5261 76.4037L65.7502 76.3067L64.8774 75.9188L64.1985 75.2399L63.4226 74.0761L63.3256 72.9123L63.2286 71.7485L63.0347 70.4877L62.2588 69.5178L61.4829 69.1299L60.6101 68.9359L59.8342 68.548L59.4462 67.6751L59.1553 66.7053L58.8643 65.8324L57.2156 64.7656L56.2458 63.1169L55.4699 62.6319L54.597 63.1169L54.0151 63.8927L53.5302 64.3777L52.5603 63.6018L52.0754 62.8259L51.2026 60.4013L50.7176 59.3345L50.0388 56.134L50.7176 54.0973L52.0754 52.2546L53.5302 49.83L54.0151 46.8235V44.0109L54.3061 41.4893L55.8578 39.4527L56.5367 38.3858L56.3428 37.513L55.6639 36.9311L53.8212 36.2522L53.2392 35.7673V34.8944L53.7242 33.4396L54.4031 32.5668L55.3729 31.4999L56.2458 30.3361L56.3428 29.2693L55.8578 28.8814L53.7242 28.2025L52.9483 27.6205L52.5603 26.4568L52.0754 23.7412L51.6875 22.4804L51.0086 21.4135L50.3297 20.8316L49.6508 20.5407L48.681 20.4437L47.0322 21.3166L44.6076 24.4201L42.6679 24.808L41.0192 24.1291L39.1765 22.6744L37.4308 20.7347L36.267 18.795L37.2368 18.0191L41.7951 15.9824L42.9589 15.2066L43.5408 14.3337L44.2197 13.5578L44.7046 13.1699L45.5775 12.685L46.1594 12.2L46.3533 12.0061L46.4503 11.7151L46.3533 11.1332L45.9654 9.09654V8.61162V8.32065L46.1594 8.02971L46.3533 7.93272L47.9051 7.25382L48.39 7.15686H48.681L49.2629 7.35081L49.5538 7.54479L50.0388 7.93272L51.0086 8.80557L51.6875 9.2905L51.8815 9.48448L52.3664 10.0664L52.8513 10.3573L55.6639 11.5212L56.6337 12.0061L56.9246 12.103L61.8709 11.9091L67.011 9.77542H67.8839L68.3688 10.1633L70.4055 11.4242L71.0844 11.6181L75.1577 11.9091L78.1643 11.6181L78.6492 11.4242L78.9401 11.3272L79.2311 11.4242L79.716 11.6181H80.007L80.2009 11.4242L81.0738 8.80557L81.1707 8.32065V7.93272L80.8798 7.4478L79.813 5.99303L79.522 5.50811L79.425 5.31413L79.522 4.9262L79.716 4.63526L80.3949 4.24732L80.8798 4.34428L81.2677 4.44127L81.7527 4.34428L82.2376 4.24732L85.3411 2.50159L86.6989 2.30763L87.5717 1.91967H87.7657L88.0566 2.01666L88.3476 2.11365L89.3175 2.88952L90.2873 4.15033L90.5782 4.34428L90.7722 4.44127H91.0632L91.3541 4.24732L91.6451 3.95635L92.8089 1.72572L93.1968 1.2408L93.2938 1.04682L93.5848 0.949829L93.9727 1.04682L94.6516 1.72572L94.9425 2.01666H95.2335L95.7184 1.91967L96.3973 1.43475L97.2702 1.14381L98.143 2.88952L98.9189 4.82921L99.9857 6.38096L101.925 7.35081L113.176 7.93272V7.93272ZM104.35 147.396L103.671 148.657L103.574 149.239L103.38 149.724L103.283 150.209L103.38 151.082L103.574 151.567L104.156 152.827L107.745 156.901L108.714 157.386L109.878 157.58L113.661 159.131L115.697 160.78L117.055 162.817L120.158 169.412L120.546 169.994L121.225 170.188L121.613 169.994L122.971 168.733L123.165 168.345L123.359 167.957L123.747 167.375L124.135 166.793L124.329 165.92V165.338L124.135 165.144L123.747 164.854L123.165 164.369L120.062 161.362L119.577 160.392L119.674 159.713L119.868 158.647V157.968L119.674 157.192L119.577 156.707L119.286 156.319L118.801 155.834L115.6 153.991L115.115 152.924V151.373L114.921 149.821L114.63 148.366L114.048 147.396L113.758 149.239L113.564 151.179L113.273 152.343L112.206 152.149L111.333 151.276L110.46 149.918L109.975 148.269L110.363 146.814L110.072 146.33L109.684 145.942L109.102 145.651H108.52L104.35 147.396V147.396Z" fill="#FFE300"/>
</svg>
