<svg width="184" height="150" viewBox="0 0 184 150" fill="none" xmlns="http://www.w3.org/2000/svg">
<path d="M152.971 33.8652L153.456 35.029V39.5873L153.359 40.7511L153.262 41.43L152.874 41.9149L150.449 44.2425L149.964 45.0184L149.382 45.8913V46.0852L150.158 48.3159L150.255 48.6068L150.546 50.9345L150.837 51.4194L151.128 51.7103L151.322 51.9043L151.904 52.9711L152.098 53.2621L152.389 53.3591L153.456 53.65L153.941 54.038L154.426 54.6199L154.813 55.0078L155.395 55.2988L156.074 55.3957H158.305L158.693 55.5897L159.081 55.7837L159.76 56.8505L160.051 57.1415L163.445 58.7902L164.027 58.8872L164.609 58.7902L165.288 58.3053L165.87 58.1113L166.161 58.2083L166.452 58.3053L166.839 58.4992L167.712 59.3721L168.1 60.051L168.197 60.6329L168.294 61.3118L168.1 63.6394V64.9002L168.197 65.2881L168.488 66.6459L168.779 67.1309L168.973 67.5188L169.167 67.7128L170.234 68.4886L170.428 68.7796L170.525 69.0705L170.622 70.1374L170.719 70.7193L170.913 71.0102L171.301 71.1072L172.756 71.3982L172.95 71.6891L173.047 71.9801V72.368L173.241 72.659L173.531 72.7559L176.247 73.6288L176.926 73.7258H177.217L177.411 73.5318L177.508 73.2409L177.702 72.562L177.896 72.368L178.09 72.174L178.381 72.0771H180.029L180.417 72.174L180.611 72.465L180.708 72.659L180.902 73.8228V74.1137L180.708 74.2107L180.223 74.5017L180.126 74.6956L180.029 75.1806L180.223 75.7625L180.417 76.2474L182.842 80.8057L183.23 81.9695L183.424 82.6484L182.939 82.9393L181.775 83.1333H179.254L178.963 83.2303L178.866 83.4242L178.963 84.0061L179.157 84.2971L180.223 84.879L181.096 85.8488L182.26 86.5277L182.842 87.1096L183.036 87.5946L182.939 87.9825L182.842 88.0795L182.551 88.1765L181.678 88.2735L181.387 88.3704L181.193 88.5644L180.902 89.0493L180.708 89.2433H180.417L177.314 88.4674L177.023 88.3704L176.732 88.4674L176.247 88.6614L175.374 88.8554L175.18 89.0493L175.083 89.2433L174.792 89.9222L174.695 90.3101V90.892L174.889 91.377L175.277 92.1528L175.374 92.7347L175.665 93.0257L176.344 93.4136L176.732 93.7046L176.829 93.9955V94.2865L176.635 94.6744V95.0624L177.217 95.8383L177.314 96.2262L177.217 96.6141L175.859 98.4568L174.501 100.687L172.853 102.53L171.98 103.209L169.167 104.664L168.003 104.858L162.766 104.373L162.378 104.276L161.796 103.985L161.214 103.5L160.729 102.821L160.245 102.53L159.954 102.433L159.663 102.53L159.178 102.724L156.462 105.731L155.977 106.507L155.589 107.282L155.395 108.058V108.543V108.834L155.492 109.125L156.559 110.968L156.753 111.453L156.947 112.326L157.238 113.295L157.335 114.265L157.238 114.847L157.044 115.332L155.395 114.265L154.813 113.974L154.232 113.78H153.941L153.553 113.877L153.262 114.071L152.777 114.556L152.583 115.041L152.292 116.108L152.001 116.69L151.71 116.787L151.419 116.981L150.74 116.884L150.449 116.787L150.255 116.496L150.158 116.302L150.255 116.011L150.449 115.817L150.837 115.429L150.934 115.235V114.944L150.837 114.75L150.643 114.556L149.091 113.974H148.8L148.509 114.071L148.025 114.459L147.637 114.556L146.279 114.459L145.988 114.556L145.503 114.75L145.115 115.041L144.533 115.623L144.048 116.302L143.66 116.593L143.175 116.787L138.811 118.145L136.968 118.436L127.27 122.703L126.688 122.412H126.397L126.106 122.509L125.912 122.897V123.188L126.009 123.77L125.912 124.449L125.815 124.74L125.136 125.709L124.36 126.485L123.003 127.649L122.809 127.843L122.615 128.328L122.712 128.813L123.1 128.91H123.681L123.875 129.007L123.972 129.201V129.492L123.681 129.783L123.294 129.977H122.615L121.645 130.365L121.063 130.85L120.772 131.141L120.384 131.722L119.608 134.05L119.123 135.117L118.929 135.796L118.832 136.863V137.445L119.026 137.929L120.578 139.481L120.772 139.675L120.966 140.16L121.16 141.906L121.063 142.197L120.772 142.488L120.19 142.876L119.123 144.039L119.026 144.33L118.929 144.621V145.203L119.026 145.494L119.22 145.688L119.899 146.173L119.996 146.464L120.093 146.658L119.996 146.949L119.608 147.337L118.444 148.501L116.893 149.568L116.214 149.471L114.565 147.337L112.916 146.464L110.104 145.979L109.134 145.591L108.843 145.3L108.164 144.718L107.873 144.524H107.485L106.709 144.621L106.321 144.524L100.308 140.257L99.8233 139.772L98.7565 138.123L98.3685 137.639L97.4956 137.154L96.6228 137.057L94.7801 136.96L93.8102 136.669L92.2585 135.117L90.6098 135.408L90.5128 135.699L90.1248 135.893L89.6399 136.087L88.6701 136.184L88.0882 136.281L87.7972 136.475L87.5063 137.057L87.3123 138.511L87.2153 138.899L87.0213 139.19L86.6334 139.481H86.4395L86.2455 139.287V138.802L86.0515 138.22L85.6636 137.251L85.4696 137.057L84.8877 136.475L84.4998 136.087L82.5601 135.117H82.0752L81.6872 135.214L81.1053 136.281L80.9113 136.475L80.5234 136.669L79.9415 136.863L79.6505 136.766L79.4566 136.475L79.1656 136.184L78.6807 135.699L76.3531 134.729L75.9651 134.438L75.5772 134.05L74.9953 133.565L73.3466 132.789L72.5707 132.595H71.9888L71.5038 133.468L71.0189 133.759H70.8249L70.631 133.565L70.437 133.177L70.1461 132.983L69.1762 132.304L68.9823 132.11L68.7883 131.625L67.8184 130.365L67.6245 130.171L66.8486 129.492L66.5576 129.201L66.6546 129.007L67.1395 128.716L67.4305 128.328L67.6245 128.134V127.843V126.97V126.679L67.8184 126.582L68.5943 126.388L68.8852 126.291L69.0792 126.097L69.1762 125.806L69.0792 125.515L68.7883 125.225L67.5275 124.837L67.1395 124.643L66.8486 124.352L66.6546 123.576L66.4606 123.479L61.4175 122.994L61.0295 122.703L60.8355 122.412L60.2537 121.442L59.8657 120.472L58.8959 118.921L58.508 118.533L58.12 118.145L52.4949 113.877L39.1111 107.282L39.305 103.403V102.045L39.208 101.366L36.9774 95.4503L36.6865 94.9654L34.5528 92.1528L34.2619 91.7649L33.6799 90.989L33.195 90.0192L33.098 89.5343V89.1463L35.2317 85.5579L35.3287 85.3639L35.8136 84.976L36.9774 84.2971L37.0744 84.1031L37.2683 83.7152L37.4623 83.2303L37.5593 82.3574V81.7755V81.3876L37.1714 79.9328L36.7834 79.3509L35.4256 78.2841L35.1347 78.0901L34.9407 77.7022L34.6498 77.1202L34.5528 76.7323L34.4558 74.3077L34.2619 73.8228L33.9709 73.4348L28.1518 71.2042L27.8608 70.9132L27.4729 70.6223L27.279 69.9434L27.3759 67.7128V67.2278L27.279 66.355L27.1819 65.8701L26.988 65.5791L25.2423 64.1243L24.9513 64.0273L24.7573 64.1243L24.2724 64.3183L23.7875 64.4153L23.4965 64.1243L23.3026 63.7364L22.9147 63.1545L22.1388 62.3786L21.9448 62.1847L21.6539 62.0877H21.4599L21.169 62.1847L20.684 62.4756H20.393H20.1991L19.7142 62.1847L18.7443 60.9239L16.8047 57.4324L16.5137 56.6565L16.3197 55.9777L16.4167 55.6867L16.6107 55.4927L16.8047 55.2988L17.0956 55.2018L17.3865 55.2988L17.8715 55.4927H18.0654L18.4533 55.2988L18.6473 55.0078L18.7443 54.5229L18.6473 53.0681V52.2922L19.1322 50.5465V50.0616L19.2293 49.5767L19.1322 48.8008L18.9383 48.4129L18.7443 48.1219L17.4835 47.346L17.2896 47.1521L16.9016 46.5702L14.477 41.7209L14.1861 41.624H13.8951L13.1192 41.9149H12.8283H12.5373L11.2765 41.333L10.8886 41.139L10.5007 40.8481L10.3067 40.4601L9.23983 36.6777L9.14287 36.1928L9.33685 35.9989L11.1795 35.4169L11.3735 35.126L11.5675 34.6411L11.4705 33.6712L11.3735 33.2833L11.2765 32.9923L10.8886 32.6044L10.6946 32.5074H10.4037L9.91873 32.7984L9.62779 33.1863L9.14287 33.4773L8.65794 33.7682H8.367L8.07606 33.5742L7.10622 32.1195L6.81522 31.9255L6.23333 31.6346L5.06951 31.4406L4.77857 31.2466L4.39061 30.8587L4.19669 30.3738L4.0027 29.7919L3.90568 29.4039L3.71176 29.113L3.51778 28.919L2.74192 27.9491L2.45092 27.0763L2.15998 26.4944L1.86904 26.2034H1.57809H1.09317L0.51123 26.1065L1.966 23.9728L2.257 23.2939L2.15998 23.003L1.86904 22.518L1.77208 22.1301L1.86904 21.9361L2.06302 21.6452L2.93584 20.3844L4.29365 16.699H7.49412L7.78506 16.7959L8.17302 17.1839L8.46396 17.2809H8.75491L9.23983 17.0869L9.82177 16.699L10.4037 16.0201L11.4705 14.1774L11.8584 13.7894L12.2464 13.4015L15.6408 11.8497L16.9986 11.7528L17.3865 11.8497L17.5805 12.0437L18.0654 12.6256L18.4533 13.1105L18.6473 13.2075L18.9383 13.1105L20.587 11.9467L20.975 11.8497H21.7508H22.1388L22.4297 11.9467L22.7207 12.3347L22.9147 12.9166L23.1086 13.7894L23.3026 14.2744L23.5936 14.7593L23.7875 15.0502L25.0483 15.4382L30.4794 15.6321L32.6131 15.2442H33.098L33.389 15.4382L33.5829 15.9231L33.8739 16.0201H35.8136L40.3719 13.4985L41.2447 13.3045L43.1844 13.1105L43.6693 12.9166L43.9603 12.7226L44.2512 12.4316L44.5422 11.6558L44.8331 10.7829L45.1241 10.395L45.4151 10.007L46.6758 9.23115L47.5487 8.94021L47.8397 8.74623L48.1306 8.45529L48.4216 7.48545L48.7125 7.0975L49.0034 6.70957L49.6823 6.32162L50.9431 5.73972L51.719 4.76988L53.7557 0.793512L55.7923 1.95732L60.9326 2.63622L61.5144 2.53923L61.7084 2.34527L61.9994 1.76336L62.0963 1.4724L62.4843 1.08447L63.0662 0.696536L64.5209 0.211614L65.2969 0.114624L65.7818 0.211614L65.9757 0.40558L66.4606 0.793512L66.9456 1.08447L68.4003 1.76336L68.7883 1.95732L85.0816 5.35178L89.155 7.19449L89.7369 7.29146H90.1248L90.6098 6.61258L92.1615 6.22465L94.3922 6.12765L95.1681 5.8367L95.653 5.54576V5.2548L95.459 5.06084L93.8102 4.09099L93.7133 3.70304L93.8102 3.41209L94.1012 3.02416L96.9138 1.76336L98.7565 1.27843L99.2414 1.37542L99.5323 1.4724L100.114 2.44224L100.89 3.21812L102.636 4.67289L106.709 6.5156H107.097L107.388 6.41861L107.485 6.12765L107.388 5.2548L107.485 4.96384L107.679 4.76988L107.97 4.47892L108.455 4.28496L108.843 4.38193L110.007 4.67289L110.298 4.57591L110.492 4.38193V3.994L110.395 3.41209L110.492 3.12115L110.686 2.92717L111.849 2.63622L112.237 2.53923L112.528 2.24828L113.013 1.95732L114.177 1.76336L114.662 1.4724L114.953 1.18146L115.05 0.793512L115.244 0.502556H115.632L117.377 1.18146L117.571 1.37542L117.765 1.56939V1.86035L117.571 3.60607L117.668 7.87338V8.45529L117.862 8.94021L118.056 9.52211L119.317 11.2678L121.16 13.4015L123.488 15.4382L123.875 15.8261L124.166 16.311L124.36 16.7959L124.457 17.3779L124.36 17.9598L123.875 18.8326L123.681 19.5115L123.584 20.0934L123.778 22.324L123.875 22.906L123.972 23.1969L124.263 23.5848L124.651 23.9728L124.942 24.0698L125.136 23.9728L125.524 23.3909L125.815 23.1969L126.397 23.003L126.785 23.0999L127.076 23.2939L127.367 23.7788V24.0698L127.464 24.6517V24.9426L127.658 25.2336L128.143 25.7185L128.337 26.0095V26.3004L128.531 26.6883L128.822 27.1733L130.761 28.628L131.149 29.016L131.343 29.5009L131.44 30.0828V30.7617L131.246 31.4406L130.858 31.9255L130.373 32.1195L129.21 32.3134L129.016 32.4104L128.822 32.7014L128.725 33.7682V34.1562L128.822 34.6411L129.307 35.223L129.5 35.5139V35.9019V36.5808L129.598 37.0657H129.888H130.082L130.858 36.3868L131.149 36.1928L132.119 35.8049L132.992 35.7079L138.229 36.4838L140.169 36.3868L140.363 36.2898L140.751 35.9019L140.945 35.6109L141.139 35.029L141.236 34.2531L141.43 33.9622L141.624 33.6712L142.012 33.4773H142.302L142.69 33.6712L143.466 34.3501L143.854 34.5441H144.145L145.115 34.0592L146.473 32.8954L147.928 32.7014L152.971 33.8652V33.8652Z" fill="#FFE300"/>
</svg>
