<svg width="143" height="165" viewBox="0 0 143 165" fill="none" xmlns="http://www.w3.org/2000/svg">
<path d="M140.063 38.5206L138.318 38.8115L137.057 39.4904L136.475 39.6844L135.99 39.9753L135.796 40.0723L135.602 40.6542L135.408 41.4301L135.214 43.0788L135.311 43.7577L135.408 44.2427L136.281 45.1155L136.572 45.6004L136.766 46.0854V46.4733L136.669 46.7643L136.572 47.0552H136.184H135.893L135.699 46.8612L133.565 45.0185L133.177 44.5336L132.886 43.6608L132.595 43.1758L132.207 42.7879L132.014 42.6909L131.723 42.5939L131.432 42.6909L131.335 42.8849L131.141 43.5638L130.559 47.3462V48.413L130.656 49.1889L131.529 49.9647L131.82 50.4497V50.8376L131.723 51.3225L131.335 52.0984L131.044 52.7773L130.462 53.3592L129.977 53.6502L126.97 54.329L126.776 54.523L126.679 54.717L126.776 55.1049L128.522 58.7903L128.619 59.1783L128.716 59.6632V60.0511L128.619 60.536L128.425 61.1179L128.037 62.0878L127.746 62.4757L127.455 62.7667L126.194 63.5426L126 63.7365L125.71 64.2215L125.031 66.3551L124.74 66.84L124.546 67.228L124.158 67.6159L123.673 68.1978L123.576 68.4888L123.479 68.9737L123.382 69.5556L123.285 71.4953L123.091 72.0772L122.8 72.7561L122.315 73.435L121.733 74.0169L121.539 74.2108L121.345 74.5988L120.666 76.1505L120.375 76.6355L120.181 76.9264L118.921 77.5083L116.787 77.9932L116.302 78.2842L116.108 78.4782L115.914 78.8661L115.429 80.6118L115.041 80.9998L114.944 81.3877L115.332 82.1636L115.914 83.2304L116.011 83.6183V84.1033L116.108 84.8791L116.302 85.2671L116.496 85.558L116.884 85.946L116.981 86.2369L117.078 86.5279L116.787 87.0128L116.593 87.3037L116.011 87.4977L115.914 87.7887L116.108 88.2736L116.302 88.5645L116.981 89.4374L117.175 90.0193L117.272 90.6012L117.175 91.4741L116.399 95.5474L116.302 96.0323V96.6142L116.399 97.5841L116.496 98.069L116.787 98.7479L117.272 99.7177L118.339 101.366L118.727 102.142L118.921 103.015L118.824 103.597L118.63 104.47L117.369 107.67L116.981 108.446L115.914 109.804L115.72 110.192L115.138 111.744L114.847 112.617L114.653 113.102V113.49L114.944 114.168L115.138 114.556L115.429 114.75L116.496 115.332L116.884 115.72L116.981 116.108L116.593 117.369L114.653 119.6L112.035 119.018L111.744 118.727L111.453 118.436V117.66V117.272L111.356 116.787L111.065 116.108L110.774 115.914L110.386 115.72H109.61L109.222 115.914L108.834 116.302L108.64 116.884L108.349 117.854L108.252 118.145L107.767 118.436L106.604 118.727L105.537 119.212L105.149 119.503L104.276 120.278L103.888 120.763L103.597 121.054L103.112 121.442L102.627 121.636H102.239L101.56 121.442L100.494 120.86L99.4267 120.375H99.0388L98.7479 120.472L97.681 121.442L93.9956 122.994L93.7047 123.382L93.5107 123.964V124.643L93.6077 125.613V126.001L93.4137 126.291L93.1228 126.485L92.8318 126.582L92.5408 126.485L91.2801 126.001L90.6981 125.904L90.4072 126.001L90.2132 126.291L90.1162 126.679V127.358L89.9223 127.843L89.7283 128.231L89.1464 128.716L88.8554 129.104L88.6615 129.492V129.783L88.3705 130.365L87.8856 130.947L85.558 132.789L85.461 133.08V133.371V133.953L85.364 134.438L85.17 134.923L84.8791 135.214L82.3575 137.057L82.0665 137.445L81.5816 138.221L81.1937 139.093L80.9027 139.481L80.4178 139.869L78.4781 141.324L78.2841 141.518L77.7022 142.488L77.3143 142.876L76.4414 143.846L75.9565 144.137L75.5686 144.234L74.3078 144.428L73.9198 144.331L73.2409 144.137H72.756L72.0771 144.234L71.5922 144.428L71.2043 144.622L70.4284 145.397L70.0405 145.785L67.8098 149.277L66.937 150.344L65.7731 151.119L63.1546 152.38L62.9606 149.859L62.8636 149.471L62.4757 149.083L62.0877 148.792L61.6028 148.404L61.5058 148.016V147.531L61.6028 146.949L61.8938 146.367L62.0877 145.785L62.6696 145.106L62.8636 144.816L63.0576 144.234L62.9606 143.846L62.8636 143.555L62.5727 143.167L62.2817 143.07L62.0877 143.167L61.5058 143.846L61.1179 144.137L59.5661 144.816H59.2752H58.8873L58.4993 144.719L55.1049 143.07L54.426 142.876H53.8441L53.2622 143.07L51.8074 143.846H51.3225L50.5466 143.652L48.9948 143.07L48.3159 142.973L47.831 142.876L46.4733 143.943L41.527 149.374L41.1391 149.665L40.3632 150.053L34.1562 150.635L33.1864 150.829L32.7015 151.119L31.9256 151.895L31.6346 152.186L31.0527 152.477H30.7618L30.4708 152.38L30.0829 151.798L29.7919 151.604H29.501L29.307 151.701L28.1432 152.865L27.8522 153.059L27.3673 153.35L27.0764 153.253L26.2035 152.671L24.8457 152.283L23.6819 151.798L22.3241 151.41L21.7422 151.313L21.2573 151.507L21.0633 151.992L20.7724 153.35L20.6754 154.029L20.7724 154.611L21.1603 154.999L21.7422 155.581L21.9362 155.775L22.0332 155.969V156.26L21.6452 157.036L21.5483 157.326L21.3543 157.714L21.0633 158.102L19.5116 159.072L19.3176 159.266L19.1236 159.945L19.2206 160.915V161.206V161.982L19.0267 162.758H18.8327L18.4447 162.37L18.1538 162.176L17.3779 161.982L17.087 162.079L16.893 162.37L16.796 162.758L16.699 164.018L12.8197 161.594L7.77645 157.133L7.29153 156.454L6.9036 154.417L6.80661 153.35L6.9036 151.895L7.29153 149.859V149.471L7.09757 148.986L6.03075 147.822L5.83676 147.24V146.852L5.93375 146.658L7.48551 145.106L7.87344 144.622L8.06741 144.137L8.1644 143.652L8.06741 142.973L7.87344 141.906L7.67948 141.324L7.48551 140.936L7.00059 140.645L6.41868 140.451L6.03075 140.354L5.73979 140.451L5.15788 140.548L3.70311 141.421L3.21819 141.615L2.5393 141.712L1.47247 141.615L0.696601 141.227L0.308655 140.354L3.50914 137.348L4.67295 135.99L5.25487 135.02L5.73979 134.729L6.22471 134.535L6.70963 134.438L7.38852 134.05L7.77645 133.565L7.87344 133.177V132.789L7.77645 132.498L7.67948 132.208L7.38852 132.111L6.41868 131.917L6.12772 131.82L5.93375 131.626L4.57598 129.201L4.09106 128.522L3.31518 127.746L2.34533 127.164L2.15137 126.873L1.95739 126.679L1.86041 126.291L1.95739 126.001L2.15137 125.904H2.44231L3.50914 126.001H3.8001L4.09106 125.904L4.28502 125.807L4.67295 125.419L5.0609 124.837L5.93375 123.188L6.03075 122.994L5.93375 122.8L5.35184 122.218L3.8001 121.054L3.60613 120.763L3.31518 120.375L3.41215 119.987L3.50914 119.697L4.09106 118.921L4.382 118.727L4.67295 118.63H4.86692L7.38852 119.309L11.4619 119.697L11.9468 119.6L12.3347 119.406L12.9166 118.921L13.2076 118.533L13.3046 118.048V117.757V117.078V116.69L13.0136 115.914L12.3347 114.653L12.2377 114.265L12.3347 113.683L12.5287 113.49L12.8197 113.296L16.602 113.877L16.99 113.78L17.4749 113.587L17.5719 113.393L17.4749 113.102L17.2809 112.908L16.1171 112.132L15.9232 111.938L15.8262 111.55L15.9232 110.968L16.3111 110.386L16.5051 109.998V109.61L16.2141 108.737V108.446V108.058L16.5051 107.961L16.602 108.058L17.4749 108.834L18.1538 109.222L19.2206 109.707L20.5784 109.998H21.0633L21.5483 109.804L23.197 108.834L25.0397 108.155L27.0764 106.992L28.2402 106.119L29.307 105.537H32.1196L32.7984 105.731L33.0894 105.828L33.8653 106.604L34.9321 107.864L35.1261 108.155V108.446L35.0291 108.931L35.2231 109.125L35.417 109.319L37.5507 109.61L38.1326 109.901L38.5205 110.289L39.6843 111.453L40.0723 111.841L40.4602 111.938L40.8482 112.035L41.3331 111.938L41.624 111.841L41.818 111.55L42.3029 108.737L42.4969 108.446L42.7878 107.767L43.1758 107.38L43.5637 106.701L43.6607 106.119V105.44V104.761L43.3698 103.112L43.5637 99.2328L43.6607 98.9419L43.9517 98.263L44.2426 97.972L44.5336 97.7781L44.7275 97.6811L47.1521 95.7414L47.5401 95.4504L47.831 95.3534H48.5099L49.4798 95.6444L49.9647 95.5474L50.2556 95.4504L50.4496 95.2565L50.8376 94.6746V94.4806L50.6436 94.0926L50.3526 93.8987L49.0918 93.2198L48.8979 93.1228L48.8009 92.7349L48.9948 92.153L49.6737 91.0861L51.0315 89.8253L51.2255 89.5344L51.4194 88.8555V88.1766L51.3225 87.8857L51.2255 87.6917L50.9345 87.4007L50.7406 87.1098L50.5466 86.8188L49.6737 86.1399L49.4798 85.946L49.2858 85.655V85.2671L49.4798 84.6852L49.7707 84.3942L50.0617 84.1033L53.8441 83.6183L54.329 83.4244L54.7169 83.2304L55.4928 82.6485L55.6868 82.2606L55.7837 81.8726L55.6868 81.2907L55.5898 80.2239L55.3958 79.642L54.9109 78.9631V78.6721L54.8139 77.9932L54.6199 77.5083L53.7471 75.9566L52.8742 74.9867L52.3893 74.5988L51.9044 74.3078L51.3225 74.4048L50.7406 74.5018L50.6436 74.5988L50.0617 75.0837L49.8677 75.1807H49.5768L48.219 74.5988L47.928 74.4048L47.7341 74.2108V73.7259L48.025 71.3983L48.122 70.9134L48.3159 70.7194L52.0984 69.9435L52.5833 69.5556L53.1652 68.9737L53.6501 68.1008L53.941 67.5189V67.034L54.038 66.0642V65.6762L53.8441 65.0943L53.6501 64.9003L50.9345 62.1848L46.8612 60.1481L46.4733 59.6632L46.1823 59.1783L45.1155 57.9175L43.5637 56.6567L43.1758 56.2687L43.0788 55.9778V55.6868L42.9818 55.0079L42.7878 54.523L42.4969 54.2321L41.527 53.7471L40.9451 53.4562L40.6542 52.9713L40.3632 52.4863L40.2662 52.1954L40.3632 51.5165L40.5572 50.6436L41.0421 48.7039V47.9281L40.9451 47.7341L40.7512 47.8311L39.9753 48.607L39.4904 48.8009L39.1024 48.8979H38.4235L38.1326 48.8009L37.5507 48.51L37.2597 48.0251L37.0658 47.5401L36.8718 47.3462H36.5808L36.3869 47.4431L36.1929 47.6371L35.9989 47.9281L35.611 48.607L35.417 48.8979L35.0291 49.2859L34.8351 49.4798L34.5442 49.5768H34.2532H33.9623L32.7984 49.0919L32.1196 48.9949L31.4407 49.0919L30.8588 49.1889L30.2769 49.3828L29.598 49.8678L29.404 50.0617L29.113 50.6436L28.8221 51.5165L28.6281 51.8074L28.4341 52.0014L28.2402 52.0984L27.7553 52.0014L27.5613 51.9044L27.1733 51.4195L26.8824 50.9346L26.7854 50.6436L26.6884 49.9647L27.0764 46.7643V46.4733L26.9794 45.4065V44.7276L27.0764 43.5638L27.2703 42.109L27.3673 41.3331V41.0422L27.2703 40.3633L26.6884 38.0357L26.4945 37.2598V36.8718L26.5914 35.5141L26.6884 35.0291L26.7854 34.6412L27.0764 34.1563L27.4643 33.7683L28.4341 32.8955L28.7251 32.5075L29.21 31.6347L29.307 31.0528V30.6648L29.0161 30.0829L28.6281 29.792L27.6583 29.501L27.3673 29.3071L27.2703 29.1131L27.0764 28.1432L26.8824 27.9493L26.6884 28.0463L26.1065 28.1432H25.7186L25.0397 28.0463L24.5548 27.7553L24.2638 27.2704L24.1668 26.5915V25.5247L24.0698 23.7789V22.3242L24.3608 20.5785L24.4578 19.7056L24.6518 19.1237L25.0397 18.2508L27.6583 14.4684L29.598 12.8197L29.9859 12.4318L30.6648 11.3649L31.2467 10.2981L31.3437 9.81319L31.4407 9.42526V9.03732L31.3437 8.45541L30.9557 7.58255L30.8588 7.09763L30.7618 6.51572V5.93381L30.8588 5.44889L30.9557 5.15794L31.1497 4.86699L31.5376 4.57603L32.3135 4.09111L32.5075 3.89714L32.4105 3.70317L32.1196 3.60619L27.2703 3.31523L26.5914 2.9273L26.3005 1.37555L33.6713 1.47253L38.1326 0.59967L49.6737 2.73333L53.3591 2.63635L55.0079 3.02428L58.4023 6.12778L60.0511 6.80667L72.5621 7.2916L73.144 7.67953V8.26144L73.047 9.03732L73.144 9.91018L73.8229 10.88L74.5987 11.268L86.4308 11.6559L96.5172 16.1172L100.106 16.6991L105.537 14.8564L110.192 14.9534L112.423 15.5353L113.877 16.3111L114.265 17.6689L114.071 19.5116V21.8393L114.459 23.585L115.235 24.2639L116.302 24.4578L117.66 24.2639L119.212 24.6518L119.115 26.1066L118.242 28.0463L117.951 29.501L118.727 30.1799L119.89 29.9859L122.024 29.3071L125.225 29.889L126.291 29.792L127.455 29.2101L129.007 27.5613L129.977 26.9794L131.82 27.0764L137.639 29.404L140.645 29.501L141.518 29.9859L142.197 31.8287L141.809 33.9623L139.966 38.3266L140.063 38.5206V38.5206Z" fill="#FFE300"/>
</svg>
