<svg width="27" height="35" viewBox="0 0 27 35" fill="none" xmlns="http://www.w3.org/2000/svg">
<path d="M19.6399 34.5951L19.155 34.4981L15.1787 32.5584L14.4027 31.8795L14.1118 30.4248L13.8209 29.7459L12.1721 27.6122L11.5902 27.1273L10.6204 27.2242L9.45655 27.5152L8.29273 27.6122L7.32288 26.8363L6.64398 26.1574L0.824914 22.0841L0.437012 21.1142V20.2414L0.630992 20.4353L2.27968 20.1444L2.66764 19.8534L3.92843 18.9806L4.41335 18.8836H5.57717H6.15906L6.54702 18.5927L7.32288 18.3017H10.0384L11.2023 17.8168L10.4264 17.5258L8.68069 17.2348L8.19577 16.7499L8.09875 15.6831L8.58367 14.7133L9.26257 13.9374L9.74749 13.1615L9.94147 11.9007L9.84451 11.1248L9.26257 9.57311L8.97163 7.43944L8.68069 6.37258L8.19577 5.40274L8.68069 5.01483L8.77765 4.72389L8.97163 4.33593L9.35959 2.7842L9.84451 1.4264L10.5234 0.456554L11.1053 0.262573L11.6872 2.7842L13.6269 2.97813L16.7304 4.91781L17.5062 7.73039L13.3359 10.252L14.0148 14.7133L18.5731 14.3253L20.8037 17.5258L18.767 20.7263L19.6399 22.8599L21.7736 22.666L22.2585 24.5087L23.7133 24.8966L25.7499 30.2308L26.2348 32.0735L22.6464 32.5584L21.6766 33.0433L21.5796 34.0131L19.6399 34.5951V34.5951Z" fill="#FFE300"/>
</svg>
