<svg width="149" height="195" viewBox="0 0 149 195" fill="none" xmlns="http://www.w3.org/2000/svg">
<path d="M148.062 174.184L147.965 174.669L147.771 175.348L147.48 175.93L147.286 176.124L146.898 176.221L146.413 176.318L145.54 176.415L144.571 176.221L142.825 175.736L142.437 175.833L141.855 175.93L141.079 176.318L139.43 176.512L137.782 176.124L137.491 176.318V176.706L137.588 176.9L137.976 177.385L138.17 177.579L138.073 177.772L137.879 177.869L137.394 177.772L133.708 175.445L133.126 175.154L132.835 175.057H132.545L132.254 175.251L131.963 175.445L131.866 175.93V176.318V177.579V177.966L131.769 178.257L131.575 178.451L131.284 178.548H130.896L130.508 178.354L129.247 177.579L128.956 177.482L128.568 177.579L128.083 177.772L127.404 178.451L127.307 178.839V179.13L127.598 179.518V179.712L127.501 179.906L127.21 180.1H126.919L125.271 179.712L125.077 179.809L124.786 180.003L124.398 180.585L124.301 180.876L124.204 181.264L124.495 182.04L124.592 182.622L124.495 182.913L124.301 183.107L123.816 183.301L121.973 183.689L121.294 183.592L120.906 183.495L120.615 183.301L119.549 182.719L118.87 182.622L118.191 182.525L117.706 182.719L117.318 183.01L116.736 183.786L116.445 184.27L116.251 184.658L116.057 185.434L115.863 185.628L115.669 185.725L115.281 185.628L114.505 185.046L114.117 185.143L113.633 185.531L112.857 186.501L112.76 186.986V187.374L112.857 187.859L112.663 188.441L112.469 188.732L112.178 188.829L111.693 188.635L111.111 188.344L110.432 187.762L110.044 187.374L109.753 186.986H109.559L109.268 187.18L108.783 188.344L108.589 189.12L107.91 189.799L105.971 190.865L100.928 189.702L99.4728 189.896L98.115 191.059L97.1452 191.544H96.8543L96.4663 191.35L95.6904 190.671L95.3025 190.477H95.0115L94.6236 190.671L94.4296 190.962L94.2357 191.253L94.1386 192.029L93.9447 192.611L93.7507 192.902L93.3628 193.29L93.1688 193.387L91.2291 193.484L85.992 192.708L85.1191 192.805L84.1493 193.193L83.8583 193.387L83.0825 194.066H82.8885H82.5975L82.5005 193.581V192.902V192.514L82.3066 192.223L81.8217 191.641L81.7247 191.156V190.768L81.8217 189.702L82.0156 189.411L82.2096 189.314L83.3734 189.12L83.8583 188.926L84.2463 188.441L84.4402 187.762V187.083L84.3432 186.501L84.1493 186.016L83.7614 185.628L81.8217 184.173L81.5307 183.689L81.3367 183.301V183.01L81.1428 182.719L80.6578 182.234L80.4639 181.943V181.652L80.3669 181.07V180.779L80.0759 180.294L79.785 180.1L79.3971 180.003L78.8151 180.197L78.5242 180.391L78.1362 180.973L77.9423 181.07L77.6513 180.973L77.2634 180.585L76.9725 180.197L76.8754 179.906L76.7785 179.324L76.5845 177.094L76.6815 176.512L76.8754 175.833L77.3604 174.96L77.4574 174.378L77.3604 173.796L77.1664 173.311L76.8754 172.826L76.4875 172.438L74.1599 170.402L72.3172 168.268L71.0564 166.522L70.8624 165.94L70.6685 165.455V164.874L70.5714 160.606L70.7654 158.861V158.57L70.5714 158.376L70.3775 158.182L68.6318 157.503H68.2439L68.0499 157.794L67.9529 158.182L67.6619 158.473L67.177 158.764L66.0132 158.958L65.5282 159.248L65.2373 159.539L64.8494 159.636L63.6856 159.927L63.4916 160.121L63.3946 160.412L63.4916 160.994V161.382L63.2976 161.576L63.0067 161.673L61.8428 161.382L61.4549 161.285L60.97 161.479L60.679 161.77L60.4851 161.964L60.3881 162.255L60.4851 163.128L60.3881 163.419L60.0971 163.516H59.7092L55.6359 161.673L53.8901 160.218L53.1143 159.442L52.5324 158.473L52.2414 158.376L51.7565 158.279L49.9138 158.764L47.1012 160.024L46.8103 160.412L46.7133 160.703L46.8103 161.091L48.459 162.061L48.653 162.255V162.546L48.1681 162.837L47.3922 163.128L45.1615 163.225L43.6098 163.613L43.1249 164.292H42.7369L42.155 164.195L38.0817 162.352L21.7883 158.958L21.4003 158.764L19.9456 158.085L19.4607 157.794L18.9757 157.406L18.7818 157.212L18.2969 157.115L17.521 157.212L16.0662 157.697L15.4843 158.085L15.0964 158.473L14.9994 158.764L14.7085 159.345L14.5145 159.539L13.9326 159.636L8.79237 158.958L6.75572 157.794L8.59845 152.46L9.08337 150.52L9.18033 149.453V149.065L8.98635 148.095L8.88939 147.513L8.98635 147.222L9.18033 146.931L9.76221 146.64L10.1502 146.253L10.2471 145.865L10.3442 145.574V144.216L10.5381 143.343L10.7321 142.761L11.0231 142.373L11.411 142.082L11.8959 141.694L12.2838 141.112L12.4778 140.53V139.949L12.2838 139.561L11.9929 139.367L11.6049 139.173L10.926 138.591L10.3442 138.009L10.2471 137.621L10.0532 136.942V136.069V134.517L10.1502 133.645L11.411 128.795L11.6049 128.31L11.7989 128.019L11.9929 127.922L12.2838 127.729L12.6717 127.535L13.1567 126.759L13.2537 126.177L13.3506 125.692V124.722V122.782L13.5446 121.909L13.4477 121.425L13.2537 121.134L12.1868 120.164L11.9929 119.873L11.7989 119.485V118.806L11.8959 118.612L12.7688 117.642L13.3506 117.06L14.1265 115.508L14.6114 114.539L14.5145 114.151L14.3205 113.957L13.7386 113.666L13.0597 113.472H12.7688L12.5748 113.666L11.508 116.09L11.314 116.284L11.12 116.478H10.8291L8.0165 115.896L6.85268 115.315L6.36776 114.927L5.88284 114.442L5.78587 114.151L5.88284 113.86L6.65876 113.375L6.9497 112.987L7.04666 112.599L6.9497 112.308L6.85268 112.114L6.65876 111.92H6.36776L5.30095 112.211L4.62205 112.114L2.5854 111.144L0.548693 110.562L0.257751 110.271L0.354771 109.786L1.61556 107.556L1.71252 107.265L1.9065 106.683L1.80954 106.295L1.71252 105.81L1.42158 105.034V103.87L1.51854 103.385L1.71252 103.094L4.52509 102.125L5.01001 101.64L5.10697 101.058L5.20399 100.476L5.10697 99.5061V99.0211L5.30095 98.6332L6.75572 97.8573L7.04666 97.6634L7.24064 97.2754L7.3376 96.9845L7.24064 96.6935L6.9497 95.6267V95.1418L7.14368 94.8508L7.43462 94.1719V93.978L7.24064 93.687L6.56174 93.1051L6.36776 92.8141L6.17384 92.3292V91.8443L6.2708 91.3594L6.46478 90.5835V90.1956V89.8076L6.2708 89.6137L6.07682 89.4197L5.88284 89.3227H5.20399H4.91299L4.71907 89.1287L4.52509 88.7408L4.33111 88.1589L3.84619 87.1891L3.55524 86.7041V86.2192V85.9283L3.94315 85.1524L4.33111 84.6675L4.62205 84.5705L5.20399 84.7644L5.39791 84.9584L5.59189 85.2494L5.97985 86.3162L6.2708 86.8011L6.46478 86.9951L7.14368 87.1891H7.82252L8.88939 86.9951L9.47127 86.7041L9.66525 86.5102L9.85923 86.2192L10.0532 85.7343V84.7644L9.95619 84.0855V83.6006L10.0532 83.2127L10.4411 82.6308V82.2429L10.0532 81.8549L9.76221 81.467L9.56829 80.8851L9.27729 79.5273L9.37431 78.8484L9.47127 78.4605L9.95619 78.1695L10.2471 77.9755L10.5381 77.4906V77.1027V76.7147L10.0532 74.969V74.775H10.2471L11.8959 75.6479L12.3808 75.8419L12.5748 75.7449L13.3506 74.6781L13.5446 74.2901L13.3506 73.8052L13.1567 73.6112L12.0899 72.6414L11.7989 72.2535L11.7019 71.6715L11.6049 70.6047L11.7019 70.1198L11.9929 69.8288L12.8657 69.5379L13.1567 69.3439L13.2537 69.053V68.859L13.0597 68.568L12.6717 68.1801L12.3808 67.9861L12.1868 67.5982L11.9929 64.1068L11.8959 63.7188L11.7019 63.4279L11.411 63.3309L11.12 63.1369L10.926 62.846L10.7321 62.0701L10.8291 61.1002L11.7019 59.9364V58.9666L8.79237 56.0571L8.40447 55.4751L8.0165 54.7963L7.43462 52.8566L7.14368 52.1777L6.85268 50.335L7.3376 48.2983L8.30745 46.6496L8.98635 45.9707L10.0532 45.2918L10.5381 43.934L11.12 42.7702L12.4778 42.3823V41.7034L12.0899 40.6365L13.1567 40.3456L15.5813 40.5395L16.1632 40.1516L18.1029 38.5029L18.8788 38.2119L20.1396 38.018L23.1461 36.9511L23.728 35.9813L23.631 35.0114L22.7581 33.5567L22.4672 33.3627V33.1687L23.1461 32.3929L23.437 31.9079L23.534 31.423V31.0351V28.2225L23.631 27.6406L23.8249 27.3497L24.116 27.2527H24.3099L24.6009 27.6406L24.8918 28.2225L25.0858 28.3195L25.3767 28.4165L26.0556 28.5135L27.3164 28.3195L28.4802 28.0286L28.7712 27.8346L29.0621 27.4467L29.4501 26.4768L29.5471 25.9919L29.644 25.507V25.119L29.5471 24.9251L29.2561 24.8281L27.6074 24.6341L27.3164 24.5371L27.1224 24.3432L26.8315 23.5673L26.6375 23.3733L26.0556 22.6944L25.0858 21.3366L23.8249 20.0758L23.534 19.8819L21.2064 19.106L21.0124 18.912L20.8185 18.1361L20.5275 13.9658L20.8185 12.899L22.2732 11.4442L22.7581 10.5714L22.9521 9.98946L23.0491 8.34072L23.1461 7.66183L23.437 7.07993L24.116 6.0131L24.2129 5.43119L24.4069 4.07341L24.7948 2.61864L24.9888 2.13372L25.1828 2.32769L25.9586 2.71563L26.9285 2.61864L27.7043 2.03674L28.4802 1.45483L29.2561 0.969908L30.3229 2.42467L29.935 5.81913L30.9049 7.17691L32.0686 7.07993L35.7541 3.39452L40.4093 1.16388L42.8339 0.678955L45.3555 0.775939L46.6163 1.26086L47.2952 2.13372L47.6831 3.29753L48.556 4.84928L49.6228 5.91611L51.8535 7.2739L52.8233 8.72866L54.1811 11.7352L54.957 12.705L58.3514 15.0326L59.2243 16.0025L60.1941 17.4573L60.679 18.4271L60.97 19.3L61.1639 20.1728V21.1427L60.1941 23.0824V23.5673L60.3881 25.022L60.5821 27.9316L60.873 29.5803L61.4549 31.1321L62.6187 32.9748L62.8127 34.5265L62.3278 35.7873V36.5632H65.0433L66.1102 37.3391L68.1468 39.9576L68.4378 40.2486L69.1167 40.7335L69.4076 41.1215L69.6016 41.5094L69.7956 42.6732V42.9642L70.3775 43.1581L71.4443 42.6732H72.0262L72.9961 43.3521L74.7418 45.3888L75.8086 46.0677L77.8453 48.2013L79.3 51.6928L79.3971 55.2812L77.3604 57.7058L76.3905 57.8998H73.19L64.0735 60.1304L61.9399 61.2942L61.4549 63.3309L62.0368 64.2037L63.9765 64.7857L64.6554 65.2706L64.9464 65.8525L65.1403 67.6952L65.4313 68.4711L65.8192 69.15L68.0499 71.7685L68.7288 72.9323L69.2137 74.4841L69.3107 76.3268L69.2137 77.1997L68.7288 78.7514L68.5348 79.6243L68.6318 80.4971L68.8257 81.273L69.0197 81.9519L68.8257 82.8248L68.4378 83.3097L67.177 83.6006L66.983 84.0855L67.177 84.8614L67.6619 85.5403L68.7288 86.6071L69.6016 87.0921L70.4745 87.48L71.3473 87.674H72.2202L73.287 87.0921L73.7719 90.0016L72.4142 92.8141L70.2805 95.1418L67.177 97.2754L71.0564 99.0211L72.3172 99.2151L73.287 98.8272L75.2267 97.0815L77.1664 96.5965L79.1061 96.9845L82.9854 98.3423L84.7312 99.0211L88.2226 98.3423L89.8714 98.6332L90.6472 99.4091L90.9382 100.573L91.1322 101.931L91.714 103.191L92.49 103.967L93.4598 104.258L97.3392 104.549L101.122 103.676L105.486 101.834L108.007 100.282L108.783 100.185L109.85 100.67L110.82 101.349L111.887 101.155L112.954 100.67L114.02 100.476L115.087 100.864L115.766 101.737L116.154 102.998L117.512 110.853L118.579 113.666L120.131 115.121L121.973 115.315L125.562 114.442L127.404 114.539L128.471 114.927L129.441 115.508L129.926 116.478L129.538 117.933L128.762 118.612L125.853 119.291L126.047 120.164V122.491L126.143 123.364L126.628 123.946L127.889 124.237L128.568 124.722L129.247 125.789V126.759L129.15 127.826L129.247 129.183L129.635 130.25L130.702 131.705L131.187 132.772L131.284 134.033L131.09 135.002L131.187 135.875L131.963 136.651L133.32 137.427L133.902 138.009L134.387 138.882L134.872 141.209L134.678 143.343L134.775 145.186L136.036 146.834L131.866 148.677L131.09 149.744L131.187 150.811L133.708 160.994L134.872 163.128L136.618 163.904L137.782 164.098L138.945 164.486L139.915 165.261L140.691 166.716L141.079 168.656L141.176 170.208L141.467 171.469L142.631 172.826L143.698 173.602L144.765 174.184L145.928 174.475L146.995 174.572L148.062 174.184V174.184Z" fill="#FFE300"/>
</svg>
