<svg width="91" height="146" viewBox="0 0 91 146" fill="none" xmlns="http://www.w3.org/2000/svg">
<path d="M82.1546 10.3805L80.9908 10.9624L80.6999 11.2533L80.8938 11.4473L81.1848 11.5443L83.0275 12.1262L83.5124 12.4171L83.9004 12.8051L84.1913 13.29L84.2883 13.5809V13.9689L84.0943 14.6478L83.9004 15.0357L83.6094 15.2297L83.0275 15.3266L80.9908 15.5206L80.7969 15.6176L80.6999 15.9086L80.6029 16.1995L80.7969 16.4905L81.1848 16.9754L81.8637 17.5573L82.0577 17.7513V18.1392L81.8637 19.1091L81.5727 19.6909L81.3788 19.8849L80.4089 20.4668L80.215 20.5638L80.118 20.8548L80.215 21.1457L80.5059 21.5337L80.7969 21.7276L81.1848 21.9216H81.8637L82.1546 22.1156L82.2516 22.5035L82.1546 23.1824L82.0577 23.5703L81.8637 23.8613L78.7602 24.8311L78.3723 25.2191L77.9843 25.607L77.6934 25.9949L77.7903 26.6738L78.2753 28.0316L78.4692 28.9045L78.5662 29.5834L78.3723 30.1653L77.9843 31.1351V31.5231L78.0813 31.911L78.3723 32.4929L78.6632 32.7838L79.3421 33.3658L79.73 33.7537L80.021 34.2386V34.7235V35.2085L79.924 36.1783L79.73 37.1481L79.633 37.5361V37.924L79.924 38.6029L80.3119 39.2818L81.5727 40.2517L81.8637 40.7366L82.0577 41.2215L82.1546 41.5124L82.2516 42.0944V42.8702L82.1546 44.519L82.0577 45.1979L81.8637 45.6828L81.2818 46.2647L80.8938 46.7496L80.6999 47.2345L80.6029 47.5255V47.9134L80.6999 48.3983L80.9908 48.9803L81.3788 49.5622L82.8335 50.823L83.2215 51.2109V51.5988V52.0838L83.0275 52.7626L82.8335 53.1506L82.6396 53.4415L82.0577 54.0234L81.6697 54.4114L81.4758 54.9933L81.3788 55.6722L81.1848 57.8058L80.9908 58.7757L80.7969 59.0666L80.5059 59.5516L79.0511 60.3274L78.6632 60.6184L78.4692 61.0063L77.6934 62.849L77.5964 63.3339V63.7219L77.6934 64.2068L77.9843 65.1767L78.9542 67.2133L79.4391 68.6681L79.924 70.8987L80.118 71.3837L80.3119 71.6746L81.6697 72.6444L81.8637 72.8384L81.9607 73.1294V73.6143V74.4871L82.0577 75.263L82.4456 76.8148V77.2997V77.6877L82.2516 78.6575L82.1546 79.1424L82.2516 79.5303L82.4456 80.1123L82.8335 80.7911L83.4154 81.664L83.5124 81.955V82.3429L83.3185 82.9248L83.0275 83.6037L82.9305 83.9916V84.4766V85.3494L82.8335 85.7373L82.6396 86.0283L81.8637 86.3193L81.3788 86.5132L80.9908 86.9012L80.7969 87.1921L80.6999 87.4831L80.6029 87.871V88.5499V89.3258L80.3119 90.5866V91.0715V91.4594L80.6029 92.1383L80.7969 92.4293L81.3788 93.1082L81.4758 93.3991L81.5727 93.6901L81.4758 94.078L81.0878 94.9509V95.3388L80.9908 96.0177V96.4056L81.0878 96.8906L81.9607 98.7333L82.0577 99.3152V99.7031L81.8637 100.285L81.7667 100.673L81.4758 100.964L80.9908 101.449L80.6029 101.934L80.3119 102.419V102.807L80.4089 103.389L80.7969 104.261L81.3788 105.231L81.4758 105.716V105.813L81.1848 106.395L80.5059 106.589L80.3119 106.783V107.074L80.6029 107.753L80.6999 108.238L80.6029 108.626L80.4089 108.82L79.924 109.111L79.73 109.305L79.827 109.693L80.215 110.371L80.4089 110.662L80.5059 111.147V111.826L80.4089 112.311L80.021 113.184V113.475V113.766L80.118 113.96H80.5059L81.2818 113.766L81.4758 113.96L81.5727 114.251V114.639L81.3788 115.706L81.1848 118.324V118.712L81.2818 119.1L82.0577 120.264L82.4456 120.652L83.5124 121.04L83.8034 121.234V121.428L83.7064 121.719L83.4154 121.913L82.8335 122.01L82.6396 122.107L82.5426 122.3L82.4456 122.882L82.0577 123.561L81.8637 123.852L81.9607 124.143L82.0577 124.531L82.7366 125.307L83.0275 125.695L83.1245 125.986L83.0275 126.471L82.8335 127.053L82.7366 127.635V129.283L82.6396 129.962L82.3486 130.835L82.2516 131.514L82.3486 131.902L82.6396 132.387L83.3185 132.969L83.7064 133.163L84.1913 133.26L84.4823 133.357L84.7732 133.454L84.8702 133.648L84.7732 134.424V134.714L84.9672 135.102L85.4521 135.393L85.7431 135.49L85.937 135.296L86.325 134.908L86.4219 134.811L86.6159 134.908V135.781L86.5189 136.266L86.131 137.042L86.034 137.333V137.624L86.131 138.012L86.5189 138.4L86.9069 138.594L87.9737 139.273L88.2647 139.467L88.7496 139.952L89.4285 140.34L89.6224 140.534L89.4285 140.921L89.2345 141.018L88.7496 141.212L88.6526 141.503L88.8466 142.182L89.2345 143.249L90.1074 145.189L88.6526 145.674L87.1978 145.577L85.4521 144.898L84.0943 144.122L83.4154 143.831L82.4456 143.734L79.3421 144.413L77.6934 143.346L77.4024 141.018L77.4994 138.691L76.8205 137.721L75.2687 137.527L75.1718 137.915V139.079L75.3657 139.952L75.7537 140.824L76.6265 142.085L75.9476 143.152L74.9778 143.249L73.911 142.667L73.0381 141.891L72.4562 140.728V139.758L72.9411 137.139V136.169L72.7472 135.005L72.2622 134.52L71.3894 134.908L71.1954 135.393L71.0014 136.654L70.7105 137.139H70.2256L68.8678 136.557L68.1889 137.139L67.51 138.691L66.6371 139.37L65.7643 139.467L64.8914 139.37L62.2728 138.4V138.109V137.43L62.0789 136.945L61.012 135.49L60.0422 134.714L59.3633 133.454L58.5874 132.775L57.1327 133.745L56.7447 134.424L56.6477 135.199L56.3568 135.781L55.7749 135.975L55.193 135.587L54.805 133.648L54.3201 133.163L51.9925 132.969L50.8287 132.581L50.1498 132.096V131.611L50.4407 131.126L50.6347 130.544L50.3437 129.574L49.7619 128.895L49.6649 128.798V128.604L49.7619 127.926L49.9558 127.344L50.2468 127.15L50.3437 126.665L49.7619 125.404L49.3739 125.113L47.9191 124.24L46.2704 122.688L45.3976 122.203L44.0398 122.107L43.0699 121.719L41.8091 121.04L40.7423 120.07L40.0634 119.197L40.5483 118.712L40.7423 118.227L41.2272 117.063L40.7423 116.966L39.9664 116.578L39.5785 116.481L39.0936 116.675V117.16L39.1905 117.742L39.0936 118.13L38.2207 118.324L37.4448 118.13L36.8629 117.742L36.184 117.548L35.0202 117.645L34.8262 118.13L34.9232 118.809L35.0202 119.876L34.9232 121.04H34.8262L34.3413 120.846L33.5654 120.943L30.8499 123.658L29.3951 124.143L28.8132 122.107L29.3951 120.749L32.4016 119.876L33.5654 118.712L30.6559 117.354L29.3951 117.257L28.0373 118.712L27.8434 117.257L28.1343 115.027L28.6192 112.99L29.1042 112.02V111.438L28.3283 111.341L27.7464 111.535L26.5826 112.505L26.0976 113.087L25.8067 113.669L25.6127 114.348L25.5157 115.318L25.2248 116.287L24.8368 116.772L24.158 116.19L22.8972 114.154L22.5092 113.378V112.505L22.8972 111.147V110.371L22.4122 109.789L19.5027 108.044L18.7268 107.947L16.4962 108.335H15.5263L14.7505 107.656L13.9746 106.395L13.7806 105.716L13.5867 104.649L13.2957 104.067L12.8108 103.776L11.0651 103.001L10.4832 102.516L10.2892 102.031V101.449L10.3862 101.158L10.4832 100.964L10.7741 100.77H11.356L12.0349 100.867L13.5867 101.74L14.1686 101.837L14.4595 101.934L14.9444 101.74L15.1384 101.546L15.5263 101.158V100.867V100.285L15.2354 99.8001L15.1384 99.2182V98.5393L15.0414 98.0544L14.9444 97.6664L14.6535 97.0845L14.4595 96.7936L14.1686 96.5026L12.5198 96.2117L11.453 95.7267H11.259L10.6771 95.9207L9.80426 96.5996L9.51332 96.6966H9.02839L8.73744 96.5026L8.44648 96.0177L8.25251 95.4358L8.34949 94.7569L8.44648 94.078V93.3991L8.34949 93.0112L7.96156 91.9443V91.7504L8.05855 91.1685L8.34949 90.6836L9.12537 90.0047L9.31933 89.8107L9.51332 89.2288L9.61029 88.5499V87.871L9.41632 86.9981L9.22236 86.2223L9.02839 85.6404L8.73744 85.2524L7.6706 84.8645L7.37965 84.5735L7.28267 84.2826L7.18568 83.9916L7.0887 83.0218L6.89472 81.47L6.70076 80.8881L6.60378 80.5972L6.50679 80.0153V79.7243L6.60378 79.0454L6.89472 78.5605L6.99171 78.2695V77.8816L6.60378 77.1057L6.4098 76.5238L5.43996 73.8083L4.5671 72.1595L0.202805 65.3706L0.881693 63.8189L1.07566 62.752L1.36661 60.1335L1.65757 59.6485L1.94853 59.4546H2.62742L2.91837 59.5516H3.40329L3.88822 59.3576L13.1987 54.1204L13.4897 53.8295L14.9444 51.0169L15.3324 50.1441L15.6233 49.2712L16.7871 46.9436L17.0781 46.6526L17.369 46.4587H17.66L18.1449 47.0406L18.4359 47.1375L19.0178 47.2345L19.5027 47.1375L19.8906 47.0406L21.0545 46.3617L21.3454 45.9737L21.6364 45.6828L21.7333 45.0039V44.7129L21.6364 44.131L21.4424 43.8401L20.5695 42.4823L20.1816 41.7064V41.4155V40.7366L20.4725 39.2818L20.6665 38.6999L20.9575 38.4089L21.2484 38.312L23.77 38.021L24.3519 37.827L24.8368 37.6331L28.8132 36.8572L29.1042 36.7602L31.0439 35.6934L32.2077 35.4024L32.4986 35.2085L33.5654 34.5296L33.8564 34.4326L34.6323 34.3356L35.2142 34.2386L36.087 33.7537L36.572 33.3658L36.8629 33.0748L37.1539 32.5899L37.2509 32.2989L37.1539 31.717L37.0569 31.1351L36.7659 30.6502V30.2623V29.8743L37.0569 29.1954L37.3478 28.9045L37.6388 28.7105L38.4147 28.6135L38.8996 28.5165L39.1905 28.2256L39.2875 27.9346L39.1905 27.3527L38.8996 26.8678L38.3177 25.9949L38.1237 25.704L37.9297 25.2191L37.6388 24.7342L36.475 23.9583L36.281 23.7643L35.9901 23.3764L35.7961 23.0854L35.6991 22.6005V22.0186L35.7961 20.7578L35.8931 20.3699L36.087 20.0789L36.378 19.9819L37.1539 20.1759L37.4448 20.3699L37.8328 20.7578H38.0267L38.2207 19.9819V19.206V18.9151L38.1237 17.9452L38.3177 17.2663L38.5117 17.0724L40.0634 16.1025L40.3543 15.7146L40.5483 15.3266L40.6453 15.0357L41.0333 14.2598V13.9689L40.9363 13.7749L40.7423 13.5809L40.1604 12.999L39.7725 12.6111L39.6755 12.0292L39.7725 11.3503L40.0634 9.99251L40.2574 9.50758L40.7423 9.31362L41.3242 9.41061L42.682 9.79854L43.8458 10.2835L45.2036 10.6714L46.0764 11.2533L46.3674 11.3503L46.8523 11.0593L47.1433 10.8654L48.3071 9.70156L48.501 9.60457H48.792L49.0829 9.79854L49.4709 10.3805L49.7619 10.4774H50.0528L50.6347 10.1865L50.9257 9.89553L51.7015 9.11965L52.1865 8.8287L53.1563 8.63473L59.3633 8.05282L60.1392 7.66489L60.5271 7.37393L65.4733 1.94281L66.8311 0.875977L67.316 0.972967L67.9949 1.06994L69.5467 1.65185L70.3225 1.84582H70.8075L72.2622 1.06994L72.8441 0.875977H73.426L74.1049 1.06994L77.4994 2.71867L77.8873 2.81567H78.2753H78.5662L80.118 2.13678L80.5059 1.84582L81.0878 1.16693L81.2818 1.06994L81.5727 1.16693L81.8637 1.55486L81.9607 1.84582L82.0577 2.23375L81.8637 2.81567L81.6697 3.10662L81.0878 3.78551L80.8938 4.36742L80.6029 4.94932L80.5059 5.53123V6.01615L80.6029 6.40409L81.0878 6.79203L81.4758 7.08297L81.8637 7.47092L81.9607 7.85885L82.1546 10.3805V10.3805Z" fill="#FFE300"/>
</svg>
