<svg width="146" height="155" viewBox="0 0 146 155" fill="none" xmlns="http://www.w3.org/2000/svg">
<path d="M111.69 20.1808L114.405 20.5688L114.696 20.7627L115.181 21.0537L115.278 21.3446L115.375 21.6356L115.278 22.2175L115.084 22.9934L114.502 24.0602L114.405 24.3511L114.308 25.03V25.7089L114.405 26.5818L114.502 26.9697L114.696 27.4546L115.084 28.0366L115.472 28.4245L115.763 28.6185L117.897 29.6853L118.091 29.9762L118.188 30.3642V30.9461L118.091 31.9159L117.897 32.3039L117.509 32.5948L117.121 32.7888L116.83 33.0797L116.733 33.3707V33.6617L116.927 34.1466L118.091 36.6682L118.285 37.3471V38.4139V39.0928L117.994 39.6747L117.8 39.8687L115.181 41.6144L114.793 42.0023L114.599 42.3902L114.502 42.9721L114.599 43.748L115.375 45.2998L115.569 45.8817L115.763 46.3666V47.0455L115.957 47.3364L116.248 47.7244L117.024 48.1123L117.606 48.3063L119.158 48.5003L119.352 48.5973L119.546 48.8882L119.837 49.1791L120.515 50.8279L121.485 52.2827L121.873 53.0585L121.97 53.4465L122.164 53.6404L122.552 53.8344H123.231L124.104 53.7374L124.686 54.0284L125.171 55.1922L123.91 56.55V57.2289L124.201 57.3259L124.977 57.8108L125.268 58.0047L125.559 58.2957L125.85 58.7806L125.947 59.1686V59.5565L125.559 60.1384L125.365 60.5263V60.9143L125.462 61.3022L125.559 61.7871L125.753 62.66L125.656 63.0479L125.559 63.2419L124.492 63.8238L124.298 64.0178L123.91 64.4057V64.7936L124.007 66.1514L123.91 66.5394L123.716 66.8303L122.746 67.2182L120.903 68.3821L120.418 68.673L119.837 69.6429L119.643 70.1278L119.546 70.6127V71.1946L119.74 71.8735L120.128 72.3584L120.612 72.6494L120.903 72.7464H122.552L123.134 72.9403L123.522 73.3283L123.813 73.9102L123.91 74.7831L123.813 75.171L123.619 75.3649H123.328L123.037 75.5589L122.746 75.8499L122.358 77.0137L122.164 77.4016L121.873 77.8865V78.1775L121.97 78.3715L123.037 78.9534L123.813 79.6323L124.007 79.7292H124.88L125.171 79.8262L125.656 80.1172L126.044 80.5051L126.335 81.184L126.529 81.8629V82.2508L126.335 82.5418L125.753 83.0267L125.559 83.2207L125.365 83.6086V83.9966L125.462 84.6754L125.753 85.3543L126.141 85.7423L127.498 86.0332L127.692 86.2272L127.983 86.9061L128.953 91.9493L129.147 92.6282L129.438 92.7252L131.378 93.0161L132.832 92.9191L133.123 93.0161L133.511 93.2101L133.996 93.889L134.287 94.1799L134.675 94.4709L134.966 94.5679L135.16 94.7618L135.451 95.0528L135.354 95.3437L135.257 95.5377L135.063 95.7317L134.19 96.2166L133.899 96.5076L133.802 96.8955L133.705 97.6713V98.0593L133.802 98.4472L134.19 98.8352L134.578 99.2231L136.324 100.484L138.652 101.454L139.039 101.648L139.136 101.939L139.233 102.23V104.557L139.33 105.236L139.427 105.624L139.912 106.594L140.494 107.467L141.464 108.728L142.24 110.376L142.531 111.443V111.831V112.51L142.337 112.898L142.046 113.286L141.755 113.674L141.561 113.771H141.173L141.076 114.062L140.979 114.547L140.785 114.935L140.494 115.42L140.3 115.613L139.33 116.486L139.233 116.68L139.136 116.971L139.039 117.553L139.136 117.844L139.33 118.038H139.524L140.009 117.941L142.531 116.874L143.113 116.68H143.695L144.18 116.874L144.665 117.359L145.537 118.135L144.18 119.978L143.501 120.366L141.658 120.657L141.27 120.851L141.076 121.142L140.3 122.499L139.136 123.954L138.555 124.439L138.167 124.633L138.07 124.439L137.779 123.954L137.488 122.596L137.391 122.305L137.003 121.627L136.906 121.336L137.003 120.657L136.906 120.366L136.712 120.075L135.936 119.881H135.451L135.16 119.978L134.19 120.851L133.802 121.239L133.22 122.208L132.929 122.693L131.766 124.148L130.02 125.797L129.535 126.476L129.438 126.864L129.535 127.64L129.438 128.318V128.997L129.341 129.385L128.953 130.549L128.565 131.131L127.595 132.586L127.304 133.168L127.401 133.362L127.498 133.556L127.983 133.847L129.341 134.234L129.826 134.428L129.923 134.719L129.729 135.495L130.02 136.174L129.923 136.465L129.826 136.853L129.535 137.241L129.244 137.92L129.341 138.502L126.238 140.248L125.753 140.344L125.268 140.441L124.88 140.344L124.395 140.248L123.716 140.635L123.522 140.926L123.425 141.314L123.522 141.508L123.813 141.993L124.88 143.448L125.171 143.933V144.321L125.074 144.806L124.201 147.424L124.007 147.618H123.716L123.231 147.424L122.94 147.327L122.649 147.424L122.164 147.618L119.158 147.909L115.084 147.618L114.405 147.424L112.369 146.164L111.884 145.776H111.011L105.871 147.909L100.925 148.103L100.634 148.006L99.6638 147.521L96.8513 146.358L96.3663 146.067L95.8814 145.485L95.6874 145.291L95.0086 144.806L94.0387 143.933L93.5538 143.545L93.2628 143.351L92.6809 143.157H92.39L91.9051 143.254L90.3533 143.933L90.1593 144.03L89.9654 144.321V144.612V145.097L90.3533 147.133L90.4503 147.715L90.3533 148.006L90.1593 148.2L89.5774 148.685L88.7046 149.17L88.2197 149.558L87.5407 150.334L86.9588 151.207L85.795 151.983L81.2368 154.019L80.2669 154.795L79.976 154.213L79.1031 153.437L78.7152 152.856L78.6182 152.371L78.4242 150.334L77.5514 148.2L77.4544 147.618V147.133L77.2604 146.552L76.9695 145.873L75.4177 144.903L73.478 144.515H69.7926L64.8464 142.381H63.1007L61.9369 142.866L60.967 145.776L60.5791 147.521V148.879L60.2881 149.655H59.8032L58.7364 148.879L58.0575 148.2L56.5057 145.097L57.3786 144.03L57.4756 142.866L56.9907 141.702L56.1178 141.12L54.857 141.314L54.1781 142.284L53.5962 143.545L52.8203 144.418L51.6565 144.709L51.0746 144.03L50.9776 142.866L51.3656 141.799L52.1414 140.732L52.9173 140.248L53.4992 139.472L53.8871 137.823L53.7902 136.368L53.2083 135.689L52.3354 135.592L49.8138 135.883L48.941 136.465L48.0681 137.144L46.9043 137.823L45.6435 138.114L44.7706 137.823L44.1887 136.95L43.9947 135.398L43.6068 134.041L42.7339 134.137L41.0852 135.592L40.2124 135.786H39.0485L38.2727 135.204L39.3395 132.004L39.0485 130.549L38.0787 129.482L37.0119 128.997L32.2596 128.415L30.029 127.543L28.8652 125.7L28.4772 125.312L26.7315 122.693L25.9556 121.82L22.4642 119.299L20.7185 118.426L14.0266 118.523L12.9597 117.941L12.7657 115.807L11.602 115.71L10.2441 116.583L9.56527 116.777H7.4316L6.84969 116.001L5.68589 110.667L4.91 108.243L3.8432 106.206L2.29144 104.751L0.254761 103.975L1.41859 99.611L1.80652 97.5744L1.90351 95.7317V95.3437L1.70953 94.9558L1.61254 94.0829V93.3071L1.70953 93.0161L2.00047 92.9191H2.58238H2.87335L3.16429 92.6282V92.3372V92.0463L2.87335 91.5613L2.58238 91.0764L2.19445 90.0096L2.00047 88.9428L1.80652 84.4815L1.70953 83.8996L1.51555 82.7358L1.12761 81.378L0.545702 80.4081L0.351751 79.5353L0.254761 79.1474L0.351751 78.7594L0.545702 78.5654L1.03062 78.2745L1.3216 78.0805L1.61254 77.6926L1.70953 77.3046V77.0137L1.61254 76.8197L1.12761 76.0438L0.933664 75.6559L0.739683 74.88V74.4921L0.836673 74.1041L1.12761 73.8132L1.41859 72.7464L1.51555 72.3584L1.70953 72.0675L2.09746 71.8735L2.67937 71.2916L3.0673 71.0006L3.45524 70.6127L3.74621 69.9338L3.94016 69.061L4.23113 68.576L4.42508 68.3821L5.29796 67.9941L5.5889 67.6062L5.68589 67.2182V66.5394L5.78289 66.2484L5.97684 65.7635L6.17082 65.1816L6.55875 64.1148L6.94668 63.7268L7.23765 63.4359H8.49844L10.8261 63.8238L11.117 63.7268L11.505 63.4359L12.6688 61.3022L13.0567 60.9143L13.3477 60.7203L14.7054 61.0113L15.4813 61.3992L16.3542 61.9811L16.9361 62.369L17.227 62.466L18.1969 62.563L18.7788 62.854L19.8456 63.6298L20.3306 63.9208L20.9124 64.2117L21.4943 64.3087L22.0763 64.2117L22.3672 63.9208L23.434 62.563L23.822 62.1751L25.0828 61.5932L26.8285 61.4962L27.2164 61.3992L27.7983 61.1082L27.9923 60.8173L28.0893 60.4293L27.9923 60.2354L27.7983 59.6535L27.7013 59.0716L27.6044 58.4897V57.8108V57.1319L27.5074 56.55L27.2164 56.065L26.6345 55.1922L26.3436 54.7073L26.2466 53.9314L26.3436 53.3495L26.5375 52.8646L26.8285 52.3796L27.2164 51.7977L27.4104 51.4098V51.0219L27.1195 50.343L26.4406 49.4701L26.2466 49.2761L26.0526 48.7912V48.0153L26.1496 47.2395V46.8515L26.0526 46.6576L25.8586 46.4636L25.6647 46.2696L24.7918 46.0757L24.3069 45.7847L24.1129 45.2028L24.0159 44.3299L23.919 44.039L23.725 43.4571L23.531 43.1661L23.434 42.6812L23.531 42.2933L23.725 42.0023L25.3737 41.4204L25.6647 41.2264L25.7617 40.9355V40.6445L25.3737 39.5777L25.1798 39.0928L24.8888 38.6078L24.6949 38.4139H21.3974L20.7185 38.3169L20.4275 38.1229L20.2336 37.929L20.0396 37.638L19.9426 37.0561L20.0396 36.6682L20.1366 36.3772L20.3306 36.1832L21.0094 35.6983L21.3004 35.4074V35.2134L21.2034 34.9225L21.0094 34.7285L19.4577 33.5647L19.3607 33.1767L19.2637 32.6918V31.431L19.4577 30.8491L19.6516 30.4612L19.8456 30.3642L20.4275 30.2672L20.7185 30.3642L21.2034 30.6551H21.5913L21.9793 30.3642L22.4642 29.6853L22.5612 29.2004V28.8124L22.3672 28.6185L21.7853 28.0366L21.5913 27.7456L21.4943 27.4546V27.1637L21.6883 26.8727L22.1732 26.1939L23.822 22.8964L24.0159 22.3145L24.1129 21.8296V21.5386L23.919 20.9567L23.725 20.4718L23.337 20.0838L22.9491 19.6959L22.4642 19.4049L21.1064 18.726L20.9124 18.5321L20.7185 18.2411L20.6215 17.8532V17.4653L20.7185 17.1743L21.3004 16.1075L21.3974 15.8165L21.5913 15.7195H21.8823L23.2401 16.0105H23.531L24.0159 15.7195L24.5009 15.3316L24.8888 14.8467L25.2767 14.2648V13.9738L25.0828 13.6829L24.1129 13.004L23.919 12.81L24.0159 12.713L24.2099 12.616L25.2767 12.519L25.9556 12.3251L26.9255 11.0643L31.6777 10.4824L35.3631 11.0643L37.1088 10.8703L41.6671 9.60951L46.9043 9.41555L47.3892 9.22158L48.359 8.73666H48.844L49.4259 8.83363L51.9475 10.0944H52.4324H53.0143L54.0811 9.99744L54.954 9.7065L55.4389 9.22158L56.4087 7.37887L56.6027 7.1849L57.1846 7.08791L61.9369 7.1849L62.4218 7.28189L63.7796 8.05776L64.0705 8.34871L64.4585 8.73666L64.6524 8.83363L65.8162 8.63967L66.5921 8.34871L67.562 7.76681L67.8529 7.66982H68.1439L72.2172 8.34871L72.7021 8.25174L72.9931 8.05776L73.284 7.57283L73.672 6.40902L74.3509 5.05125L74.7388 4.6633L75.4177 4.17838L76.6785 3.69346L77.1634 3.40252L77.5514 3.01457L77.8423 2.52965L78.1332 1.94775L78.2302 1.26885L78.5212 1.07488L78.9091 0.977905L82.3036 1.46283L82.5945 1.5598L82.8855 1.75377L82.9825 2.04472L82.7885 2.62664L82.8855 3.01457L83.1765 3.49949L84.0493 4.37236L84.3403 4.85728L84.4372 5.14822L84.2433 5.9241L84.3403 6.21506L84.5342 7.08791V7.37887V8.05776V8.34871L84.6312 8.73666L85.5041 10.6763L85.989 11.3552L86.28 11.7432L87.8317 12.907L87.9287 13.1979V13.4889L85.4071 16.7864L85.1161 17.2713L84.9222 17.8532V18.2411L85.2131 18.4351L86.183 19.211L86.4739 19.5989L86.5709 19.9868L86.6679 20.5688L86.7649 20.8597L87.4438 21.9265L87.5407 22.2175V22.4115L87.3468 22.9934L86.7649 23.5753L86.6679 23.7692L86.5709 24.0602L86.7649 24.5451L87.3468 24.9331L87.8317 25.127L88.9955 25.418L91.0322 25.224L94.8146 25.9029L100.537 25.5149L101.603 25.6119H101.894L102.185 25.5149L102.282 25.127V24.3511L102.476 23.6723L102.864 23.3813L103.543 23.1873L105.774 22.8964L106.744 22.9934L107.229 22.7994L107.714 22.5084L109.459 20.8597L109.847 20.3748L110.429 20.0838L111.69 20.1808Z" fill="#FFE300"/>
</svg>
