<svg width="135" height="143" viewBox="0 0 135 143" fill="none" xmlns="http://www.w3.org/2000/svg">
<path d="M105.301 3.37572L105.591 4.92747L106.27 5.31541L111.12 5.60636L111.411 5.70335L111.508 5.89731L111.314 6.09128L110.538 6.57621L110.15 6.86716L109.956 7.15811L109.859 7.44906L109.762 7.93399V8.51589L109.859 9.0978L109.956 9.58272L110.344 10.4556L110.441 11.0375V11.4254L110.344 11.8134L110.247 12.2983L109.665 13.3651L108.986 14.4319L108.598 14.8199L106.658 16.4686L104.04 20.251L103.652 21.1239L103.458 21.7058L103.361 22.5786L103.07 24.3244V25.7791L103.167 27.5248V28.5917L103.264 29.2706L103.555 29.7555L104.04 30.0464L104.719 30.1434H105.107L105.688 30.0464L105.882 29.9495L106.076 30.1434L106.27 31.1133L106.367 31.3072L106.658 31.5012L107.628 31.7922L108.016 32.0831L108.307 32.665V33.0529L108.21 33.6349L107.725 34.5077L107.434 34.8957L106.464 35.7685L106.076 36.1565L105.785 36.6414L105.688 37.0293L105.591 37.5142L105.494 38.872V39.26L105.688 40.0358L106.27 42.3635L106.367 43.0423V43.3333L106.27 44.1092L106.076 45.5639L105.979 46.7278V47.4066L106.076 48.4735V48.7644L105.688 51.9649L105.785 52.6438L105.882 52.9348L106.173 53.4197L106.561 53.9046L106.755 54.0016L107.24 54.0986L107.434 54.0016L107.628 53.8076L107.822 53.5167L108.113 52.6438L108.404 52.0619L108.598 51.8679L109.277 51.383L109.859 51.189L110.441 51.0921L111.12 50.9951L111.798 51.0921L112.962 51.577H113.253H113.544L113.835 51.48L114.029 51.286L114.417 50.8981L114.611 50.6071L114.999 49.9282L115.193 49.6373L115.387 49.4433L115.581 49.3463H115.872L116.066 49.5403L116.26 50.0252L116.551 50.5101L117.133 50.8011L117.424 50.8981H118.102L118.49 50.8011L118.975 50.6071L119.751 49.8313L119.945 49.7343L120.042 49.9282V50.7041L119.557 52.6438L119.363 53.5167L119.266 54.1956L119.363 54.4865L119.654 54.9714L119.945 55.4564L120.527 55.7473L121.497 56.2322L121.788 56.5232L121.982 57.0081L122.079 57.687V57.978L122.176 58.2689L122.564 58.6568L124.115 59.9176L125.182 61.1784L125.473 61.6634L125.861 62.1483L129.935 64.185L132.65 66.9005L132.844 67.0945L133.038 67.6764V68.0643L132.941 69.0342V69.5191L132.65 70.101L132.165 70.9739L131.583 71.5558L131.098 71.9437L127.316 72.7196L127.122 72.9136L127.025 73.3985L126.734 75.7261V76.211L126.928 76.405L127.219 76.599L128.577 77.1809H128.868L129.062 77.0839L129.644 76.599L129.741 76.502L130.322 76.405L130.904 76.308L131.389 76.599L131.874 76.9869L132.747 77.9567L133.62 79.5085L133.814 79.9934L133.911 80.6723V80.9633L134.396 81.6422L134.59 82.2241L134.687 83.2909L134.784 83.8728L134.687 84.2607L134.493 84.6487L133.717 85.2306L133.329 85.4245L132.844 85.6185L129.062 86.1034L128.771 86.3944L128.48 86.6853L128.286 87.2673V87.6552L128.48 87.9461L128.674 88.1401L129.547 88.819L129.741 89.1099L129.935 89.4009L130.226 89.6919L130.322 89.8858L130.419 90.1768V90.8557L130.226 91.5346L130.032 91.8255L128.674 93.0863L127.995 94.1531L127.801 94.735L127.898 95.123L128.092 95.22L129.353 95.8989L129.644 96.0928L129.838 96.4808V96.6747L129.45 97.2566L129.256 97.4506L128.965 97.5476L128.48 97.6446L127.51 97.3536H126.831L126.54 97.4506L126.152 97.7416L123.728 99.6812L123.534 99.7782L123.243 99.9722L122.952 100.263L122.661 100.942L122.564 101.233L122.37 105.112L122.661 106.761V107.44V108.119L122.564 108.701L122.176 109.38L121.788 109.768L121.497 110.447L121.303 110.737L120.818 113.55L120.624 113.841L120.333 113.938L119.848 114.035L119.46 113.938L119.072 113.841L118.684 113.453L117.521 112.289L117.133 111.901L116.551 111.61L114.417 111.319L114.223 111.125L114.029 110.931L114.126 110.447V110.156L113.932 109.865L112.865 108.604L112.089 107.828L111.798 107.731L111.12 107.537H108.307L107.24 108.119L106.076 108.992L104.04 110.156L102.197 110.834L100.548 111.804L100.063 111.998H99.5784L98.2207 111.707L97.1538 111.222L96.4749 110.834L95.6021 110.059L95.5051 109.962L95.2141 110.059V110.447V110.737L95.5051 111.61V111.998L95.3111 112.386L94.9232 112.968L94.8262 113.55L94.9232 113.938L95.1172 114.132L96.281 114.908L96.4749 115.102L96.5719 115.393L96.4749 115.587L95.99 115.781L95.6021 115.878L91.8197 115.296L91.5287 115.49L91.3348 115.684L91.2378 116.266L91.3348 116.654L92.0137 117.914L92.3046 118.69V119.078V119.757V120.048L92.2076 120.533L91.9167 120.921L91.3348 121.406L90.9468 121.6L90.4619 121.697L86.3886 121.309L83.867 120.63H83.673L83.382 120.727L83.0911 120.921L82.5092 121.697L82.4122 121.988L82.3152 122.376L82.6062 122.764L82.8001 123.054L84.3519 124.218L84.9338 124.8L85.0308 124.994L84.9338 125.188L84.0609 126.837L83.673 127.419L83.2851 127.807L83.0911 127.904L82.8001 128.001H82.5092L81.4423 127.904H81.1514L80.9574 128.001L80.8604 128.292L80.9574 128.68L81.1514 128.874L81.3454 129.165L82.3152 129.746L83.0911 130.522L83.576 131.201L84.9338 133.626L85.1278 133.82L85.4187 133.917L86.3886 134.111L86.6795 134.208L86.7765 134.499L86.8735 134.79V135.178L86.7765 135.565L86.3886 136.05L85.7097 136.438L85.2247 136.535L84.7398 136.729L84.2549 137.02L83.673 137.99L82.5092 139.348L79.3087 142.354L79.5027 139.93L79.4057 139.057L79.1147 138.475L78.8238 138.184L78.5328 137.99L78.3388 137.796H77.7569L76.1082 138.087L75.0414 137.505L73.4896 136.535L72.8107 136.147L72.3258 136.05L72.1318 136.244V136.535L72.2288 137.505L71.8409 137.796L71.162 137.893L67.7675 137.311L66.6037 137.602L66.0218 137.796L65.5369 137.99L65.052 138.281L64.5671 138.475H63.7912L61.0756 138.281L60.4937 138.087L60.1058 137.796L60.0088 137.505L59.9118 137.214L60.0088 136.535L59.7178 136.05L59.2329 135.468L57.0023 134.111L56.6143 133.723L56.5173 133.141V132.753L56.3234 132.365L56.0324 132.268L55.7415 132.171L53.9958 132.074L53.6078 131.977L53.3169 131.686L53.0259 131.104L52.8319 130.813L52.541 130.425L52.25 130.231H51.9591L51.7651 130.425L51.5712 130.716V131.104V132.074L51.3772 132.559L51.0862 132.85L50.6983 132.947L49.9224 133.044L49.5345 132.85L49.3405 132.656L49.2435 132.365L49.3405 131.977L49.4375 131.395V131.007L49.3405 130.522L49.0496 130.134L46.8189 128.292L46.528 127.904L46.431 127.613L46.528 127.322L46.6249 127.128L47.1099 126.837L49.8254 126.158L50.3104 125.964L50.6983 125.576L50.9892 125.091L51.0862 124.8L51.1832 124.121L50.9892 123.539L50.6983 123.054L49.1465 121.212L48.6616 120.921L48.0797 120.727L47.7888 120.824L46.8189 121.115L46.237 121.212L45.8491 121.115L45.5581 120.921L44.0064 119.369L43.9094 119.175V118.787V118.496V118.108L43.6184 117.526L42.6486 116.557L41.9697 116.072L41.4848 115.781H40.9998L40.8059 115.878L40.5149 116.266L40.224 116.751L39.739 117.138L39.5451 117.235L38.1873 117.429L37.6054 117.623L37.1205 117.914L36.1506 118.108V118.69L35.5687 118.205L34.5989 117.817L33.92 117.526L33.4351 116.944L33.1441 116.072L32.6592 115.49L31.8833 115.199L31.3984 114.811L31.1074 113.259L30.4285 112.871H29.6527L28.9738 113.065L28.4889 113.453L28.1009 114.035L26.7431 110.737L26.2582 108.992L26.6462 107.052L25.1914 106.664L23.7366 105.791L22.9607 104.433L23.6396 102.979V102.494L22.1849 102.3L20.8271 101.718L20.0512 100.651L19.9542 99.0024L20.6331 97.5476L21.8939 96.5777L23.3487 96.3838L24.8034 97.1597L25.8703 96.6747H27.616L29.2647 96.3838L29.9436 94.832L29.2647 93.7652L24.8034 91.3406L21.118 87.9461L20.3422 86.5884L20.0512 85.5215L19.9542 84.7456L19.8572 84.0668L19.2753 83.0969L18.5964 82.709L17.9176 82.418L17.5296 82.0301L17.7236 81.3512V80.8663L17.1417 77.2779L16.6568 76.114L15.202 73.8834L14.4261 72.2347L14.6201 71.4588L15.4929 70.9739L14.911 69.907L12.3894 67.2885L9.67388 65.6397L8.41308 64.088L5.50354 57.59L4.5337 57.0081H3.46687L2.69099 56.5232L2.30306 54.6805L2.59401 53.5167L3.36989 52.2559L4.33973 51.286L5.30958 50.8981L4.92164 49.7343L5.01862 48.8614L5.40656 48.2795L5.98847 47.9886L5.60053 46.9217L3.36989 43.7212L3.27291 43.1393L4.14576 41.3936L3.36989 40.9087L2.40005 40.5208L1.52718 39.9388L1.23623 38.775L1.13925 38.1931L1.62417 38.5811L2.10909 38.3871L2.30306 37.0293L2.20607 36.1565L0.751306 31.9861L0.460358 31.3072V30.6283L1.13925 29.4645L1.62417 28.8826L2.30306 28.5917L7.54022 27.2339H8.80102L12.5834 28.3977L13.9412 28.4947L16.0748 29.3675L17.5296 31.2103L19.0814 32.665L21.215 32.2771L29.2647 25.0032L35.3747 20.8329L36.8295 18.6993L38.1873 13.0742L38.9632 11.3284L40.9029 8.41891L42.0667 7.25509L43.2305 6.77017L56.6143 5.70335L59.9118 6.57621H60.9786L76.1082 4.1516L80.9574 1.53302L83.382 0.757141H85.8066L94.8262 3.18175L105.301 3.37572V3.37572Z" fill="#FFE300"/>
</svg>
