<svg width="135" height="98" viewBox="0 0 135 98" fill="none" xmlns="http://www.w3.org/2000/svg">
<path d="M39.2787 6.74613L40.2485 7.32805L41.2184 8.49184L41.3154 9.17074L40.8304 10.2376L40.6365 10.8195V11.8863V12.1773L40.7335 13.0501L40.9274 13.632L41.2184 14.02L42.5762 15.6687L44.5159 17.2204L44.8068 17.7054L45.0008 18.0933L45.1947 18.6752L45.5827 19.3541L45.9706 19.5481L46.3586 19.6451H47.2314H47.6194L48.0073 19.5481L48.4922 19.2571L50.7229 18.5782L52.1776 18.2873L52.5656 18.3843L52.9535 18.6752L53.5354 19.1601L53.9233 19.839L55.1841 23.0395L56.251 24.9792L56.5419 25.3671L56.9299 25.6581L57.4148 26.046L57.8997 26.143L60.4213 26.434L61.1002 26.337L61.6821 26.24L62.167 25.6581H62.361H62.555L62.7489 26.337V27.3068L62.8459 27.7917L63.1369 28.1797H63.4278L63.8158 27.9857L64.1067 27.7917L64.8826 26.7249L65.0765 26.531L65.3675 26.434L65.7554 26.531L66.2404 27.0159L66.4343 27.4038V27.7917V28.2767L66.5313 28.5676L66.7253 29.0526L66.8223 29.2465L67.3072 29.5375L67.8891 29.7314L69.4408 30.0224L70.5077 30.1194L73.3202 29.7314L73.9021 29.8284L75.1629 30.4103L77.3936 30.9922L79.4302 31.9621L82.8247 36.0354L83.7945 36.8113L84.1825 36.9083H84.6674L85.4433 36.6173L86.0252 36.5203H86.7041L87.383 36.6173L87.9649 36.8113L88.2558 37.0053L88.4498 37.2962L88.6438 37.9751V38.46L88.4498 39.5269L88.5468 40.1088L88.7408 40.4967L89.0317 40.8846L92.0382 43.4062L92.5231 43.6972L93.0081 43.8912L93.687 43.9881L94.1719 44.1821L94.5598 44.4731L95.0447 45.055L95.2387 45.4429L95.6266 46.3158L95.7236 46.8007L95.8206 47.2856L95.6266 47.9645L95.4327 48.5464L95.3357 49.1283L95.2387 49.8072L95.3357 50.0982L95.5297 50.3891L95.8206 50.5831L96.4025 50.874L96.7905 50.971H97.1784L97.6633 50.7771L98.1482 50.4861L98.3422 50.2921L99.2151 49.3223L100.379 48.5464L102.707 48.1585L103.773 47.6735L106.392 45.9278L106.877 45.8308H107.168L107.459 46.0248L107.653 46.3158V46.8977V47.2856L107.556 48.0615L107.459 48.5464L107.556 49.4193L107.75 50.0012L107.847 50.5831V50.874L107.75 51.5529L107.653 51.8439L107.265 53.8806V54.5594L107.362 55.5293L107.75 57.9539L107.847 58.2449L108.041 58.6328L108.332 59.1177L109.01 59.7966L109.398 60.0876L109.786 60.2815L111.435 60.6695H112.793L114.054 60.4755L114.539 60.2815L115.218 59.7966L115.508 59.4087L115.993 58.6328L116.284 57.8569L116.478 57.663L116.672 57.566L117.06 57.8569L117.448 58.1479L118.03 58.6328L118.321 59.0207L118.515 59.5057L118.709 60.4755L118.806 61.4453L119 61.7363H119.194H120.552L120.94 61.9303L121.231 62.2212L121.715 62.8031L122.297 63.385L123.364 64.1609L126.856 67.4584L127.244 67.9433L128.213 69.98L129.28 71.7257L129.377 72.0166L129.474 72.4046L129.28 72.8895L128.989 73.5684L128.698 74.0533L128.407 74.5382L128.213 75.1202V75.5081V75.896L128.31 76.3809L128.601 77.1568L128.795 77.5448L129.183 78.0297L132.869 81.7151L134.614 84.3337L134.711 84.6246L134.614 85.0125L131.802 89.1829L131.511 90.1527L131.026 92.9653L130.832 93.9351L130.444 93.6442L129.377 93.3532L126.371 93.4502L123.267 92.6743L122.2 92.7713L121.037 93.3532L118.903 95.1959L116.284 95.2929L112.696 97.1356H111.532L108.332 95.8748L108.235 95.9718L107.265 95.7778L105.325 93.8381L104.258 93.3532L101.64 92.6743L100.767 91.9954L99.0211 91.8984L93.59 94.1291H92.5231L92.1352 92.9653L89.3227 90.3467L88.4498 89.8618L84.6674 90.0557L83.5036 89.8618L81.273 89.1829L77.7815 88.795L76.8117 88.407L74.775 88.795L74.1931 88.9889L73.6112 89.4738L73.4172 89.9588L73.1263 90.4437L72.8353 90.8316L72.4474 91.1226L71.2836 91.2196L67.7921 89.4738L67.5981 89.3768L67.1132 89.5708L66.7253 89.6678L66.2404 89.5708L65.8524 89.4738L64.6886 88.0191L62.167 85.7884L59.9364 83.1698L58.9665 82.491L55.2811 81.1332L54.0203 81.0362L52.9535 81.5211L51.8867 83.1698L50.6259 86.9522L49.947 88.31L47.6194 90.0557L46.8435 90.2497L45.9706 89.9588L45.0978 89.4738L44.2249 88.8919L43.2551 88.407L42.4792 88.504L41.9943 89.4738L42.4792 91.0256L41.9943 92.1894L41.1214 92.7713L39.9576 93.1593L38.0179 91.5105L37.533 90.5407L38.5028 89.4738L38.5998 88.213L38.8908 87.4372L39.0847 86.5643L38.7938 85.1095L38.2119 83.9457L37.533 83.0729L35.8842 81.5211L33.9445 80.4543L33.7506 80.0664L32.8777 79.4845L32.0049 79.7754L31.035 80.3573L30.0652 80.7452H26.1858L25.5069 81.1332L25.4099 81.0362L25.119 80.7452L24.1491 78.8055L23.3732 76.2839L22.6944 74.6352L18.718 69.3981L18.2331 69.2041H18.0391L16.9723 69.786H16.1964L15.3235 69.689L14.2567 69.2041H13.8688L13.5778 69.3011L13.1899 69.689L12.8019 69.786L12.414 69.689L12.0261 69.3011L9.40749 65.2277L8.82558 63.579V62.5122L8.92257 61.5423V60.7664L8.53463 60.0876L8.14669 59.9906L6.69193 60.0876V58.8268L7.4678 56.4021L5.52811 55.4323L3.68541 55.1414L1.93969 55.8203L1.45477 56.4991H1.2608L0 56.2082L0.0969845 50.3891L0.678891 49.1283L0.87286 47.8675L0.193969 44.5701L0.290953 42.9213L1.16381 41.5635L4.65525 38.751L4.94621 38.1691L5.52811 36.8113L5.91605 36.2294L6.59494 35.8415L8.04971 35.3565L8.63161 34.9686L9.50447 33.8048L10.1834 32.253L10.5713 30.5073L10.4743 28.7616L10.6683 27.6948L11.0562 27.2099L11.5411 26.7249L12.0261 26.046L12.414 25.1732L12.511 24.5913L12.414 21.8757L12.317 21.1968V20.5179L12.705 19.5481L13.1899 18.7722L14.4507 17.7054L14.9356 17.0265L15.1296 16.4446L15.0326 15.4747L15.1296 14.9898L15.8085 13.535L16.9723 10.1406L17.9421 9.3647L19.9788 9.07375L20.8517 8.39485L20.7547 7.03708L21.0456 5.09739L21.4336 3.25469L21.8215 1.89691L22.9853 0.830078L24.0521 1.12102L26.0888 3.35168L27.3496 4.22453L28.5134 4.41851L29.6772 4.32152L31.6169 4.41851L32.8777 4.03055L33.4596 4.12754L33.9445 4.61246L34.9144 6.06723L35.5933 6.26121L36.4661 6.74613L37.7269 7.81297L38.7938 8.29789L39.3757 6.94008L39.2787 6.74613V6.74613Z" fill="#FFE300"/>
</svg>
