<svg width="163" height="149" viewBox="0 0 163 149" fill="none" xmlns="http://www.w3.org/2000/svg">
<path d="M127.487 23.4032L127.584 26.7006L127.875 27.5735L128.457 27.8644L129.136 27.9614H129.718L131.076 27.7675H131.464L131.658 27.8644L131.755 28.0584L131.852 28.6403L131.949 29.8041L132.046 30.289L133.597 33.5865L134.276 35.6232L134.664 36.1081L134.955 36.3991L136.313 36.69L136.701 36.884L136.798 37.0779V37.2719L136.604 37.4659L136.119 37.6599L135.634 37.8538L135.343 37.9508L135.246 38.2418V38.9207L135.44 39.3086L135.634 39.5995L135.828 39.7935L136.798 39.9875L136.992 40.1815V40.4724L136.798 41.4422L136.701 41.9272L136.798 42.4121L136.992 42.7031L137.186 42.8L137.768 42.7031L139.416 42.0242L139.998 42.4121L140.871 43.188L143.005 45.5156L143.878 46.3885L144.557 46.7764L144.751 46.5824L145.139 46.2915L146.496 45.1277H146.884L147.272 45.2247L149.6 46.6794L149.988 47.0674L151.443 48.9101L155.613 52.5954L155.807 52.7894L156.874 54.4382L157.165 54.7291H157.456L157.844 54.4382L157.94 53.9533L158.134 53.7593L158.425 53.6623L160.656 54.0502H161.626L162.014 54.1472L162.111 54.3412V54.6321L161.917 54.9231L161.141 56.4748L160.947 57.0567V57.7356V58.0266L160.365 59.0934L160.171 59.7723L160.074 60.0633V60.6452V61.324L160.268 62.0029L160.171 62.2939L159.88 62.6818L159.492 62.9728L159.007 63.0698L158.91 62.9728L158.716 62.4879L158.328 61.809L157.747 61.2271L157.553 61.1301L157.068 60.9361H156.583L156.389 61.0331L156.001 61.324L155.613 61.712L155.419 62.2939L155.225 62.9728L154.934 63.5547L154.449 64.3306L154.255 64.9125V65.2034V66.0763V66.3672L154.158 66.6582L153.964 66.8522L153.77 67.0461L151.83 67.725H150.667L149.697 67.628L149.018 67.4341L148.436 66.8522H148.242L147.66 66.7552H147.369L146.884 66.2703L146.399 66.3672L145.914 66.5612L145.72 66.8522L145.623 67.1431V68.016L145.914 68.6949L146.69 70.3436L146.787 70.8285L146.884 71.3135L147.078 73.3501L146.981 73.932L146.593 74.223L146.108 74.4169L143.296 74.6109L143.005 74.7079L142.714 74.8049L142.52 75.0958L142.714 75.5808L143.005 75.9687L144.266 77.3265L144.751 77.6174L147.078 78.5873L148.048 79.1692L148.242 79.3632L148.533 79.7511L149.309 81.1089L149.794 81.9817L150.376 84.4064L150.57 84.8913L150.861 85.1822L152.703 86.734L152.897 86.831H153.091L153.479 86.1521L153.867 85.8611L154.255 85.9581L155.128 86.928L156.001 87.5098L156.195 87.7038L156.583 88.1887L156.777 88.4797L156.68 88.7707L156.486 88.9646L155.904 89.5465L155.516 89.9344L155.322 90.4194L156.389 92.2621L156.486 92.747L156.389 93.1349L155.613 93.7169L155.128 93.9108H154.934L154.643 93.8138L153.867 93.4259H153.576L152.994 93.8138L152.8 94.0078L151.249 95.4626L151.055 95.6565L150.764 96.1415L150.667 96.5294L150.764 97.1113L152.315 100.118L151.83 100.215L151.249 100.506L149.406 101.961L148.824 102.348L146.981 103.027L144.169 105.84L142.423 106.034L142.908 107.974L142.132 109.719L141.065 111.465L140.58 113.405L140.192 115.441L139.223 117.575L137.865 118.836L136.507 118.448V117.866H136.895L137.962 118.351L139.029 116.217L139.61 113.405V112.047L139.223 111.659L137.283 109.331L136.41 108.846L134.664 108.265L133.985 107.683L133.015 108.265L132.046 108.168L130.591 107.683L129.718 107.974L129.136 108.555L128.651 109.137L128.263 109.331H124.675L122.444 110.689L119.826 111.271L118.08 112.047L116.528 113.308L112.843 117.187L111.873 118.933L111.485 121.163H111.097V120.097L110.903 119.806L110.418 120.097L109.836 120.291L109.739 120.969L109.448 120.194L109.642 119.903L109.739 119.418L109.642 119.03L108.963 118.448L108.478 117.575L108.188 117.187L107.8 116.896L106.733 116.411H105.763L103.823 116.896L99.9438 116.314L92.573 117.672H91.3122L84.2323 121.648L82.6806 123.006L78.4133 128.049L76.6676 129.698L70.2666 132.899L69.2967 133.674L68.4239 134.644L66.7751 136.972L65.9993 137.748L64.0596 139.106L63.2837 139.881L58.1435 148.319L57.8526 148.707L57.0767 148.222L58.5315 145.7L60.4712 143.664L61.247 142.403L61.441 140.463L60.5681 141.433L59.5983 142.209L58.5315 142.306L57.2707 141.239L56.7858 139.493L57.0767 137.457L58.1435 134.45L57.7556 134.256L56.8827 134.159L56.3008 133.965L55.9129 133.771L55.234 133.093L54.3612 132.511L53.6823 131.444L53.1973 130.086L53.0034 128.631L51.8395 130.086L52.2275 131.638L53.1973 133.093L53.6823 134.256L53.8762 135.226L54.1672 135.808L54.3612 136.487L54.1672 137.651L53.6823 138.524L51.8395 140.463L48.7361 145.313L48.5421 145.604L46.6024 145.216L46.1175 144.731L46.0205 143.276V142.985L45.7295 141.433V140.851L45.8265 140.269L46.1175 139.396V139.009V138.621L44.7597 132.996L44.4687 132.317L44.0808 132.026H42.626L42.0441 131.735L41.1712 131.25L40.7833 131.153L40.0075 130.668L38.8437 129.601L38.4557 129.504L35.9341 129.795L35.2552 129.698L35.0612 129.601L34.9643 129.407V128.34L35.0612 128.049L35.4492 127.758L35.6432 127.467L35.7401 127.176V126.692L35.5462 126.498L35.2552 126.304L32.7336 126.11L30.8909 126.207L30.406 126.11L30.1151 125.916L29.9211 125.722L29.6301 124.849L28.3693 122.812L27.9814 122.133V121.551L28.0783 121.066L28.3693 120.582L28.9512 120L29.0482 119.709L29.1452 119.127L29.0482 118.351L28.8543 117.575L28.5633 116.896L28.2723 116.605L27.8844 116.411L26.7206 116.217L26.3326 116.12L25.9447 115.926L24.9749 115.15L24.6839 115.053L24.199 115.247H23.8111L23.3261 115.053L23.0352 114.859L22.9382 114.569L22.8412 113.696L22.9382 113.114L23.2291 112.726L23.4231 112.532L23.908 112.435L25.3628 112.338L25.8477 112.241L26.0417 112.047L26.3326 111.562L26.6236 111.077L27.0115 110.786L27.4965 110.592L27.6904 110.495L28.0783 110.01L28.3693 109.04L28.5633 108.555L28.9512 108.071L29.1452 107.586V105.743L29.3392 105.161L29.4362 105.064L29.7271 104.87L30.212 104.773L31.6668 104.191L31.8608 103.997L31.9577 103.609V103.027L31.6668 101.767L31.4728 101.282L31.2789 100.797L30.8909 100.506L30.6 100.409L30.018 100.312L29.6301 100.215L29.2422 99.9239L28.9512 99.4389L28.3693 96.9173L28.1754 96.4324L27.9814 96.1415L27.6904 96.0445L25.1688 95.1716L24.6839 94.8807L24.005 94.3957L23.5201 94.1048L22.1623 93.8138L21.8714 93.6199L21.6774 93.3289L21.5804 93.1349L21.4834 91.9711L21.2894 91.1953L21.0955 90.8073L20.9985 90.5164L20.7076 90.3224L20.0287 90.2254L19.5437 89.9344L19.3498 89.7405L19.2528 89.4495L19.1558 88.9646L19.0588 86.249L18.186 82.5637L17.992 82.1757L17.7011 81.9817L17.0222 81.7878L16.5372 81.4968L16.3433 81.2058L16.2463 80.9149V80.333L15.9553 79.2662V78.6843L15.8583 77.8114L16.0523 76.1627V75.5808L15.5674 73.4471V72.8652L15.6644 72.5742L15.7614 72.3803L16.0523 72.0893L16.1493 71.8954L16.2463 71.5074V70.9255L16.1493 70.6346L16.0523 70.3436L15.2765 69.7617L14.8885 69.3738L14.7915 69.0828L14.6945 68.5009L14.7915 67.822L14.8885 67.1431L15.2765 66.7552L16.0523 66.4642L16.3433 66.1733L16.4402 65.7853L16.2463 65.3974L15.8583 65.3004L12.1729 65.6883L11.688 65.8823L11.494 66.0763L11.3971 66.3672L11.3001 66.9492L11.2031 67.2401L10.7182 67.919L10.4272 68.5009L10.3302 68.6949L9.84529 68.8888L9.26341 68.6949L8.48754 68.3069L8.19654 68.2099L7.42068 68.3069L7.2267 68.4039L6.64482 68.8888L6.1599 69.0828H5.86895H5.57801L5.19005 68.8888L5.09309 68.6949L4.99607 68.4039L4.89911 67.1431L4.80209 66.5612L4.22021 65.2034L1.50466 56.2809L0.146851 52.4985L6.35388 50.4618L13.1428 49.007L20.5136 45.5156L21.0955 45.3216L23.8111 45.8065L28.3693 47.7462L33.8974 48.8131L37.3889 49.007L37.8738 48.9101L38.3587 48.3281L38.6497 47.7462L38.7466 47.4553L39.1346 45.8065V45.2247L38.8437 44.7397L38.5527 44.3518L37.4858 43.4789L37.2919 43.285V43.091L37.3889 42.5091L38.1647 40.4724L38.5527 39.1146L38.9406 36.787L39.3286 35.5262L39.9105 31.7438V31.1619L39.7165 31.0649L39.4255 30.8709L38.1647 30.677L37.1949 30.483L36.904 30.289L36.8069 30.0951V29.8041L37.0009 28.7373V28.4463L36.8069 27.6705V27.3795V26.9916L37.0009 26.5066L37.4858 25.6338L37.6798 25.2459V24.7609L37.5829 24.47L37.2919 24.082L33.1215 21.5604L32.7336 21.1725L32.5397 20.6876V20.1057L32.7336 19.3298L32.9276 18.7479L33.2186 18.36L34.6733 17.0992L34.9643 16.9052L37.2919 16.4203L37.8738 16.1293L38.1647 15.8384L38.3587 15.4504L38.4557 14.7715L38.3587 14.4806L38.2617 13.9957L37.9708 13.5107L37.6798 13.4138L35.7401 12.9288L35.1583 12.6379L34.8673 12.25L34.5763 11.765V11.4741V10.7952L34.3823 10.3103L34.1884 10.2133L33.8974 10.1163H33.3155L33.1215 10.0193L32.9276 9.92231L32.8306 9.63137V9.24343L33.0246 8.75851L33.3155 8.56453L33.9944 8.07961L34.1884 7.78867L34.2854 7.59469L34.3823 5.655L34.4794 5.17008L34.6733 4.68515L34.5763 4.39421L34.2854 3.71531L34.0914 2.93945L33.9944 2.55152L34.0914 2.16355L34.2854 1.38769L34.5763 1.19371L34.8673 0.999759H35.4492L35.7401 1.09675L35.9341 1.2907V1.48468V2.45453V3.03644L36.0311 3.61832L36.2251 4.10324L36.419 4.29722L36.71 4.39421H39.8135L41.1712 3.52136L43.014 1.9696L43.7898 1.48468L44.3718 1.2907L44.9537 1.38769H45.4386L46.4084 1.2907L46.8933 0.999759L47.1843 0.805778L48.3481 0.514837H49.221L49.8029 0.611827L51.2576 1.2907H51.7426L52.2275 1.19371L53.1004 0.902769L56.0099 0.417847H56.4948L57.6586 0.805778L61.1501 2.55152L69.5877 4.00628L70.3636 4.4912H70.8485L71.3334 4.39421L72.2063 4.10324L72.7882 3.71531L73.952 2.45453L74.8248 1.77562L75.3098 1.48468L77.5404 0.902769L79.0922 0.708788L79.6741 0.805778L80.256 0.999759L80.6439 1.38769L81.0319 2.06659L81.7108 2.84246L82.1957 3.1334L84.8142 3.71531L85.1052 3.8123L85.4931 4.20023L86.269 5.46105L86.7539 5.55801L87.3359 5.46105L90.2454 4.29722L93.4459 3.52136H94.0277L94.4157 3.61832L94.6097 3.71531L94.8037 3.90929L94.9976 4.10324V4.39421V4.68515L94.8037 5.75199L94.7066 6.13992L94.8037 6.72183L95.0946 7.40074V7.69168V8.37058L95.1916 8.56453L95.4825 8.75851H96.0645L96.5494 8.66152L98.2951 7.40074L98.683 7.30375L98.974 7.40074L99.168 7.88566L99.0709 8.1766L98.78 8.75851L98.1011 9.53438L97.8102 10.0193L97.7132 10.3103V10.5042L98.0041 10.7952L98.78 10.9891L99.0709 11.0861L99.2649 11.1831L99.5559 11.668L99.6529 12.25L99.7498 13.3168V13.7047L99.6529 14.5776L99.7498 14.7715L100.429 15.0625L100.623 15.2564L100.817 15.5474L101.205 15.8384L102.756 15.7414H102.853V16.0323L102.756 16.5173L102.659 17.0992L102.853 17.875V18.166V18.457L102.465 19.3298L101.98 20.6876L101.884 21.0755L101.593 21.4635L101.302 21.5604L101.011 21.4635L100.623 21.0755L100.429 20.8816H99.9438L99.8468 20.9786L99.7498 21.2695L99.8468 21.8514L99.9438 22.0454L100.429 22.3363L100.623 22.5303L100.72 23.1122L100.817 23.3062L101.302 23.5001L101.496 23.6941L101.884 24.082H102.271L104.696 23.8881L105.181 23.6941L105.375 23.5001L105.666 22.9182L105.86 22.5303L106.248 22.0454L106.636 21.9484L106.927 21.8514H107.509L107.703 22.0454L107.8 22.5303L107.994 24.276L108.09 24.47L108.575 24.6639L109.836 24.7609L110.127 24.9549L110.321 25.0519L110.903 25.6338L111.291 25.7308L111.97 25.8278H113.134L113.619 25.7308L114.007 25.4398L114.394 24.8579L114.588 24.47L115.17 23.985L115.655 23.7911L115.946 23.6941L116.528 23.7911L116.916 24.179L117.207 24.567L117.401 24.7609L117.595 24.8579L127.487 23.4032V23.4032Z" fill="#FFE300"/>
</svg>
