<?xml version="1.0" encoding="UTF-8"?>
<svg width="136px" height="56px" viewBox="0 0 136 56" version="1.1" xmlns="http://www.w3.org/2000/svg" xmlns:xlink="http://www.w3.org/1999/xlink">
    <!-- Generator: Sketch 52.5 (67469) - http://www.bohemiancoding.com/sketch -->
    <title>google-play</title>
    <desc>Created with Sketch.</desc>
    <defs>
        <filter x="-16.7%" y="-50.0%" width="133.3%" height="200.0%" filterUnits="objectBoundingBox" id="filter-1">
            <feOffset dx="0" dy="2" in="SourceAlpha" result="shadowOffsetOuter1"></feOffset>
            <feGaussianBlur stdDeviation="4" in="shadowOffsetOuter1" result="shadowBlurOuter1"></feGaussianBlur>
            <feColorMatrix values="0 0 0 0 0   0 0 0 0 0   0 0 0 0 0  0 0 0 0.5 0" type="matrix" in="shadowBlurOuter1" result="shadowMatrixOuter1"></feColorMatrix>
            <feMerge>
                <feMergeNode in="shadowMatrixOuter1"></feMergeNode>
                <feMergeNode in="SourceGraphic"></feMergeNode>
            </feMerge>
        </filter>
        <linearGradient x1="90.4722222%" y1="4.7247619%" x2="-39.3027778%" y2="71.4661905%" id="linearGradient-2">
            <stop stop-color="#00A0FF" offset="0%"></stop>
            <stop stop-color="#00A1FF" offset="0.657445%"></stop>
            <stop stop-color="#00BEFF" offset="26.01%"></stop>
            <stop stop-color="#00D2FF" offset="51.22%"></stop>
            <stop stop-color="#00DFFF" offset="76.04%"></stop>
            <stop stop-color="#00E3FF" offset="100%"></stop>
        </linearGradient>
        <linearGradient x1="107.36%" y1="50.2366197%" x2="-130.378824%" y2="50.2366197%" id="linearGradient-3">
            <stop stop-color="#FFE000" offset="0%"></stop>
            <stop stop-color="#FFBD00" offset="40.87%"></stop>
            <stop stop-color="#FFA500" offset="77.54%"></stop>
            <stop stop-color="#FF9C00" offset="100%"></stop>
        </linearGradient>
        <linearGradient x1="86.2841727%" y1="17.8752349%" x2="-50.452518%" y2="193.635124%" id="linearGradient-4">
            <stop stop-color="#FF3A44" offset="0%"></stop>
            <stop stop-color="#C31162" offset="100%"></stop>
        </linearGradient>
        <linearGradient x1="-19.1820144%" y1="-54.8705572%" x2="41.8769784%" y2="24.7858195%" id="linearGradient-5">
            <stop stop-color="#32A071" offset="0%"></stop>
            <stop stop-color="#2DA771" offset="6.85%"></stop>
            <stop stop-color="#15CF74" offset="47.62%"></stop>
            <stop stop-color="#06E775" offset="80.09%"></stop>
            <stop stop-color="#00F076" offset="100%"></stop>
        </linearGradient>
    </defs>
    <g id="Landing-page" stroke="none" stroke-width="1" fill="none" fill-rule="evenodd">
        <g id="Landing-page-01-Copy" transform="translate(-641.000000, -2757.000000)">
            <g id="google-play" filter="url(#filter-1)" transform="translate(649.000000, 2763.000000)">
                <g id="Group" fill="#000000">
                    <path d="M115.2,40 L4.4,40 C2,40 0,37.8 0,35 L0,5 C0,2.2 2,0 4.4,0 L115.2,0 C117.7,0 119.6,2.2 119.6,5 L119.6,35 C119.7,37.8 117.7,40 115.2,40 Z" id="Path"></path>
                </g>
                <g id="Group" transform="translate(30.000000, 6.000000)" fill="#FFFFFF" stroke="#FFFFFF" stroke-width="0.2">
                    <path d="M6.5,3.8 C6.5,4.6 6.3,5.3 5.8,5.8 C5.2,6.4 4.5,6.7 3.6,6.7 C2.7,6.7 2,6.4 1.4,5.8 C0.8,5.2 0.5,4.5 0.5,3.6 C0.5,2.7 0.8,2 1.4,1.4 C2,0.8 2.7,0.5 3.6,0.5 C4,0.5 4.4,0.6 4.8,0.8 C5.2,1 5.5,1.2 5.7,1.5 L5.2,2 C4.8,1.5 4.3,1.3 3.6,1.3 C3,1.3 2.4,1.5 2,2 C1.5,2.4 1.3,3 1.3,3.7 C1.3,4.4 1.5,5 2,5.4 C2.5,5.8 3,6.1 3.6,6.1 C4.3,6.1 4.8,5.9 5.3,5.4 C5.6,5.1 5.8,4.7 5.8,4.2 L3.6,4.2 L3.6,3.4 L6.5,3.4 C6.5,3.5 6.5,3.7 6.5,3.8 Z" id="Path"></path>
                    <polygon id="Path" points="11.1 1.3 8.4 1.3 8.4 3.2 10.9 3.2 10.9 3.9 8.4 3.9 8.4 5.8 11.1 5.8 11.1 6.6 7.6 6.6 7.6 0.6 11.1 0.6"></polygon>
                    <polygon id="Path" points="14.4 6.6 13.6 6.6 13.6 1.3 11.9 1.3 11.9 0.6 16.1 0.6 16.1 1.3 14.4 1.3"></polygon>
                    <polygon id="Path" points="19 6.6 19 0.6 19.8 0.6 19.8 6.6"></polygon>
                    <polygon id="Path" points="23.2 6.6 22.4 6.6 22.4 1.3 20.7 1.3 20.7 0.6 24.8 0.6 24.8 1.3 23.1 1.3 23.1 6.6"></polygon>
                    <path d="M32.7,5.8 C32.1,6.4 31.4,6.7 30.5,6.7 C29.6,6.7 28.9,6.4 28.3,5.8 C27.7,5.2 27.4,4.5 27.4,3.6 C27.4,2.7 27.7,2 28.3,1.4 C28.9,0.8 29.6,0.5 30.5,0.5 C31.4,0.5 32.1,0.8 32.7,1.4 C33.3,2 33.6,2.7 33.6,3.6 C33.6,4.5 33.3,5.2 32.7,5.8 Z M28.9,5.3 C29.3,5.7 29.9,6 30.5,6 C31.1,6 31.7,5.8 32.1,5.3 C32.5,4.9 32.8,4.3 32.8,3.6 C32.8,2.9 32.6,2.3 32.1,1.9 C31.7,1.5 31.1,1.2 30.5,1.2 C29.9,1.2 29.3,1.4 28.9,1.9 C28.5,2.3 28.2,2.9 28.2,3.6 C28.2,4.3 28.4,4.9 28.9,5.3 Z" id="Shape" fill-rule="nonzero"></path>
                    <polygon id="Path" points="34.7 6.6 34.7 0.6 35.6 0.6 38.5 5.3 38.5 5.3 38.5 4.1 38.5 0.6 39.3 0.6 39.3 6.6 38.5 6.6 35.4 1.7 35.4 1.7 35.4 2.9 35.4 6.6 34.7 6.6"></polygon>
                </g>
                <path d="M57.2,21.4 C54.8,21.4 52.9,23.2 52.9,25.7 C52.9,28.1 54.8,30 57.2,30 C59.6,30 61.5,28.2 61.5,25.7 C61.5,23.1 59.6,21.4 57.2,21.4 Z M57.2,28.2 C55.9,28.2 54.8,27.1 54.8,25.6 C54.8,24.1 55.9,23 57.2,23 C58.5,23 59.6,24 59.6,25.6 C59.6,27.1 58.5,28.2 57.2,28.2 Z M47.9,21.4 C45.5,21.4 43.6,23.2 43.6,25.7 C43.6,28.1 45.5,30 47.9,30 C50.3,30 52.2,28.2 52.2,25.7 C52.2,23.1 50.3,21.4 47.9,21.4 Z M47.9,28.2 C46.6,28.2 45.5,27.1 45.5,25.6 C45.5,24.1 46.6,23 47.9,23 C49.2,23 50.3,24 50.3,25.6 C50.3,27.1 49.2,28.2 47.9,28.2 Z M36.8,22.7 L36.8,24.5 L41.1,24.5 C41,25.5 40.6,26.3 40.1,26.8 C39.5,27.4 38.5,28.1 36.8,28.1 C34.1,28.1 32.1,26 32.1,23.3 C32.1,20.6 34.2,18.5 36.8,18.5 C38.2,18.5 39.3,19.1 40.1,19.8 L41.4,18.5 C40.3,17.5 38.9,16.7 36.9,16.7 C33.3,16.7 30.2,19.7 30.2,23.3 C30.2,26.9 33.3,29.9 36.9,29.9 C38.9,29.9 40.3,29.3 41.5,28 C42.7,26.8 43.1,25.1 43.1,23.8 C43.1,23.4 43.1,23 43,22.7 L36.8,22.7 Z M82.2,24.1 C81.8,23.1 80.8,21.4 78.6,21.4 C76.4,21.4 74.6,23.1 74.6,25.7 C74.6,28.1 76.4,30 78.8,30 C80.7,30 81.9,28.8 82.3,28.1 L80.9,27.1 C80.4,27.8 79.8,28.3 78.8,28.3 C77.8,28.3 77.2,27.9 76.7,27 L82.4,24.6 L82.2,24.1 Z M76.4,25.5 C76.4,23.9 77.7,23 78.6,23 C79.3,23 80,23.4 80.2,23.9 L76.4,25.5 Z M71.7,29.6 L73.6,29.6 L73.6,17.1 L71.7,17.1 L71.7,29.6 Z M68.7,22.3 C68.2,21.8 67.4,21.3 66.4,21.3 C64.3,21.3 62.3,23.2 62.3,25.6 C62.3,28 64.2,29.8 66.4,29.8 C67.4,29.8 68.2,29.3 68.6,28.8 L68.7,28.8 L68.7,29.4 C68.7,31 67.8,31.9 66.4,31.9 C65.3,31.9 64.5,31.1 64.3,30.4 L62.7,31.1 C63.2,32.2 64.4,33.6 66.5,33.6 C68.7,33.6 70.5,32.3 70.5,29.2 L70.5,21.6 L68.7,21.6 C68.7,21.6 68.7,22.3 68.7,22.3 Z M66.5,28.2 C65.2,28.2 64.1,27.1 64.1,25.6 C64.1,24.1 65.2,23 66.5,23 C67.8,23 68.8,24.1 68.8,25.6 C68.8,27.1 67.8,28.2 66.5,28.2 Z M90.9,17.1 L86.4,17.1 L86.4,29.6 L88.3,29.6 L88.3,24.9 L90.9,24.9 C93,24.9 95,23.4 95,21 C95,18.6 93,17.1 90.9,17.1 Z M91,23.1 L88.3,23.1 L88.3,18.8 L91,18.8 C92.4,18.8 93.2,20 93.2,20.9 C93.1,22 92.3,23.1 91,23.1 Z M102.5,21.3 C101.1,21.3 99.7,21.9 99.2,23.2 L100.9,23.9 C101.3,23.2 101.9,23 102.6,23 C103.6,23 104.5,23.6 104.6,24.6 L104.6,24.7 C104.3,24.5 103.5,24.2 102.7,24.2 C100.9,24.2 99.1,25.2 99.1,27 C99.1,28.7 100.6,29.8 102.2,29.8 C103.5,29.8 104.1,29.2 104.6,28.6 L104.7,28.6 L104.7,29.6 L106.5,29.6 L106.5,24.8 C106.3,22.6 104.6,21.3 102.5,21.3 Z M102.3,28.2 C101.7,28.2 100.8,27.9 100.8,27.1 C100.8,26.1 101.9,25.8 102.8,25.8 C103.6,25.8 104,26 104.5,26.2 C104.3,27.4 103.3,28.2 102.3,28.2 Z M112.8,21.6 L110.7,27 L110.6,27 L108.4,21.6 L106.4,21.6 L109.7,29.2 L107.8,33.4 L109.7,33.4 L114.8,21.6 L112.8,21.6 Z M96,29.6 L97.9,29.6 L97.9,17.1 L96,17.1 L96,29.6 Z" id="Shape" fill="#FFFFFF" fill-rule="nonzero"></path>
                <g id="Group" transform="translate(6.000000, 9.000000)">
                    <path d="M0.5,0.6 C0.2,0.9 0.2,1.3 0.2,1.8 L0.2,20.3 C0.2,20.8 0.4,21.2 0.6,21.5 L0.7,21.6 L11,11.1 L11,11 L11,10.9 L0.5,0.6 Z" id="Path" fill="url(#linearGradient-2)"></path>
                    <path d="M14.3,14.6 L10.9,11.2 L10.9,11 L10.9,10.9 L14.3,7.5 L14.4,7.6 L18.5,9.9 C19.7,10.6 19.7,11.7 18.5,12.3 L14.3,14.6 Z" id="Path" fill="url(#linearGradient-3)"></path>
                    <path d="M14.4,14.5 L10.9,11 L0.5,21.5 C0.9,21.9 1.5,21.9 2.3,21.6 L14.4,14.5" id="Path" fill="url(#linearGradient-4)"></path>
                    <path d="M14.4,7.5 L2.2,0.6 C1.5,0.2 0.9,0.3 0.5,0.7 L10.9,11 L14.4,7.5 Z" id="Path" fill="url(#linearGradient-5)"></path>
                </g>
            </g>
        </g>
    </g>
</svg>