<?xml version="1.0" encoding="UTF-8"?>
<svg width="190px" height="191px" viewBox="0 0 190 191" version="1.1" xmlns="http://www.w3.org/2000/svg" xmlns:xlink="http://www.w3.org/1999/xlink">
    <!-- Generator: Sketch 52.5 (67469) - http://www.bohemiancoding.com/sketch -->
    <title>Community icon</title>
    <desc>Created with Sketch.</desc>
    <defs>
        <linearGradient x1="50%" y1="119.714079%" x2="50%" y2="8.77402086%" id="linearGradient-1">
            <stop stop-color="#C1A3FF" offset="0%"></stop>
            <stop stop-color="#A888FF" offset="69.0476122%"></stop>
            <stop stop-color="#8D6AFF" offset="100%"></stop>
        </linearGradient>
        <path d="M28.6561562,6.11111111 L75.2327327,6.11111111 C88.8090418,6.11111111 99.8148148,17.0444044 99.8148148,30.5313051 L99.8148148,80.228542 C99.8148148,93.7154428 88.8090418,104.648736 75.2327327,104.648736 L28.6561562,104.648736 C15.0798471,104.648736 4.07407407,93.7154428 4.07407407,80.228542 L4.07407407,30.5313051 C4.07407407,17.0444044 15.0798471,6.11111111 28.6561562,6.11111111 Z" id="path-2"></path>
        <filter x="-14.1%" y="-13.7%" width="128.2%" height="127.4%" filterUnits="objectBoundingBox" id="filter-3">
            <feOffset dx="0" dy="0" in="SourceAlpha" result="shadowOffsetOuter1"></feOffset>
            <feGaussianBlur stdDeviation="4.5" in="shadowOffsetOuter1" result="shadowBlurOuter1"></feGaussianBlur>
            <feColorMatrix values="0 0 0 0 0.701960784   0 0 0 0 0.725490196   0 0 0 0 0.784313725  0 0 0 0.34057971 0" type="matrix" in="shadowBlurOuter1"></feColorMatrix>
        </filter>
        <polygon id="path-4" points="6.64175749e-15 0 102.821869 0 102.821869 13.5291934 102.821869 38.5582011 6.64175749e-15 38.5582011 3.32087875e-15 13.6983083"></polygon>
        <linearGradient x1="46.2354449%" y1="58.3773624%" x2="33.1865385%" y2="-72.6170445%" id="linearGradient-6">
            <stop stop-color="#C1A3FF" offset="0%"></stop>
            <stop stop-color="#A888FF" offset="63.244677%"></stop>
            <stop stop-color="#8D6AFF" offset="100%"></stop>
        </linearGradient>
        <linearGradient x1="50%" y1="86.8421053%" x2="17.1052632%" y2="0%" id="linearGradient-7">
            <stop stop-color="#28CAC3" offset="0%"></stop>
            <stop stop-color="#00DCD7" offset="100%"></stop>
        </linearGradient>
        <circle id="path-8" cx="17.7248677" cy="17.7248677" r="17.7248677"></circle>
        <filter x="-19.7%" y="-14.1%" width="139.5%" height="139.5%" filterUnits="objectBoundingBox" id="filter-9">
            <feOffset dx="0" dy="2" in="SourceAlpha" result="shadowOffsetOuter1"></feOffset>
            <feGaussianBlur stdDeviation="2" in="shadowOffsetOuter1" result="shadowBlurOuter1"></feGaussianBlur>
            <feColorMatrix values="0 0 0 0 0   0 0 0 0 0   0 0 0 0 0  0 0 0 0.217079937 0" type="matrix" in="shadowBlurOuter1"></feColorMatrix>
        </filter>
        <linearGradient x1="100%" y1="100%" x2="50%" y2="-16.648771%" id="linearGradient-10">
            <stop stop-color="#C1A3FF" offset="0%"></stop>
            <stop stop-color="#A888FF" offset="63.244677%"></stop>
            <stop stop-color="#8D6AFF" offset="100%"></stop>
        </linearGradient>
        <linearGradient x1="26.9074942%" y1="0%" x2="48.90625%" y2="100%" id="linearGradient-11">
            <stop stop-color="#79BEFF" offset="0%"></stop>
            <stop stop-color="#2CB0FE" offset="100%"></stop>
        </linearGradient>
        <circle id="path-12" cx="12.5454545" cy="12.5454545" r="12.5454545"></circle>
        <filter x="-53.8%" y="-53.8%" width="207.6%" height="207.6%" filterUnits="objectBoundingBox" id="filter-13">
            <feOffset dx="0" dy="0" in="SourceAlpha" result="shadowOffsetOuter1"></feOffset>
            <feGaussianBlur stdDeviation="4.5" in="shadowOffsetOuter1" result="shadowBlurOuter1"></feGaussianBlur>
            <feColorMatrix values="0 0 0 0 0   0 0 0 0 0   0 0 0 0 0  0 0 0 0.13 0" type="matrix" in="shadowBlurOuter1"></feColorMatrix>
        </filter>
        <radialGradient cx="69.4334547%" cy="92.2722694%" fx="69.4334547%" fy="92.2722694%" r="78.6119804%" gradientTransform="translate(0.694335,0.922723),rotate(-113.685298),scale(1.000000,2.374040),translate(-0.694335,-0.922723)" id="radialGradient-14">
            <stop stop-color="#00ABA7" offset="0%"></stop>
            <stop stop-color="#00DCD7" offset="100%"></stop>
        </radialGradient>
        <circle id="path-15" cx="122.84375" cy="169.84375" r="7.84375"></circle>
        <filter x="-25.5%" y="-25.5%" width="163.7%" height="163.7%" filterUnits="objectBoundingBox" id="filter-16">
            <feOffset dx="1" dy="1" in="SourceAlpha" result="shadowOffsetOuter1"></feOffset>
            <feGaussianBlur stdDeviation="1.5" in="shadowOffsetOuter1" result="shadowBlurOuter1"></feGaussianBlur>
            <feColorMatrix values="0 0 0 0 0   0 0 0 0 0   0 0 0 0 0  0 0 0 0.2 0" type="matrix" in="shadowBlurOuter1"></feColorMatrix>
        </filter>
        <radialGradient cx="33.7995652%" cy="0%" fx="33.7995652%" fy="0%" r="105.347023%" id="radialGradient-17">
            <stop stop-color="#9FD1FF" offset="0%"></stop>
            <stop stop-color="#2CB0FE" offset="100%"></stop>
        </radialGradient>
        <circle id="path-18" cx="105.133928" cy="177.133928" r="4.1339285"></circle>
        <filter x="-48.4%" y="-48.4%" width="221.0%" height="221.0%" filterUnits="objectBoundingBox" id="filter-19">
            <feOffset dx="1" dy="1" in="SourceAlpha" result="shadowOffsetOuter1"></feOffset>
            <feGaussianBlur stdDeviation="1.5" in="shadowOffsetOuter1" result="shadowBlurOuter1"></feGaussianBlur>
            <feColorMatrix values="0 0 0 0 0   0 0 0 0 0   0 0 0 0 0  0 0 0 0.2 0" type="matrix" in="shadowBlurOuter1"></feColorMatrix>
        </filter>
        <rect id="path-20" x="2.84217094e-14" y="2.30926389e-14" width="51.8807947" height="27.8807947" rx="3"></rect>
        <filter x="-26.0%" y="-48.4%" width="152.0%" height="196.8%" filterUnits="objectBoundingBox" id="filter-21">
            <feOffset dx="0" dy="0" in="SourceAlpha" result="shadowOffsetOuter1"></feOffset>
            <feGaussianBlur stdDeviation="4.5" in="shadowOffsetOuter1" result="shadowBlurOuter1"></feGaussianBlur>
            <feColorMatrix values="0 0 0 0 0   0 0 0 0 0   0 0 0 0 0  0 0 0 0.13 0" type="matrix" in="shadowBlurOuter1"></feColorMatrix>
        </filter>
        <path d="M6.09375,0 C2.7336376,0 0,2.75992257 0,6.15234375 C0,7.23823242 0.28416773,8.30582101 0.821754624,9.2396589 C0.947080676,9.45737653 1.08717474,9.66953823 1.23821269,9.87027414 L5.82898278,15 L6.35848613,15 L10.9492873,9.87030552 C11.1002942,9.66953823 11.2403882,9.45740792 11.3657454,9.23969029 C11.9033323,8.30582101 12.1875,7.23823242 12.1875,6.15234375 C12.1875,2.75992257 9.4538624,0 6.09375,0 Z M6.09375,8.19266183 C4.9794332,8.19266183 4.07286352,7.27737514 4.07286352,6.15234375 C4.07286352,5.02731236 4.9794332,4.11202567 6.09375,4.11202567 C7.2080668,4.11202567 8.11463648,5.02731236 8.11463648,6.15234375 C8.11463648,7.27737514 7.2080668,8.19266183 6.09375,8.19266183 Z" id="path-22"></path>
        <filter x="-110.8%" y="-90.0%" width="321.5%" height="280.0%" filterUnits="objectBoundingBox" id="filter-23">
            <feOffset dx="0" dy="0" in="SourceAlpha" result="shadowOffsetOuter1"></feOffset>
            <feGaussianBlur stdDeviation="4.5" in="shadowOffsetOuter1" result="shadowBlurOuter1"></feGaussianBlur>
            <feColorMatrix values="0 0 0 0 0   0 0 0 0 0   0 0 0 0 0  0 0 0 0.217079937 0" type="matrix" in="shadowBlurOuter1"></feColorMatrix>
        </filter>
    </defs>
    <g id="Landing-page" stroke="none" stroke-width="1" fill="none" fill-rule="evenodd">
        <g id="Landing-page-01-Copy" transform="translate(-175.000000, -1036.000000)">
            <g id="Community-icon" transform="translate(180.000000, 1042.000000)">
                <g id="Group-7" transform="translate(19.000000, 36.000000)">
                    <ellipse id="Oval" fill-opacity="0.07" fill="#000000" cx="68.5277778" cy="103.888889" rx="56.5277778" ry="6.11111111"></ellipse>
                    <g id="Group-4" transform="translate(17.092593, 0.000000)">
                        <g id="Path" fill-rule="nonzero">
                            <use fill="black" fill-opacity="1" filter="url(#filter-3)" xlink:href="#path-2"></use>
                            <use fill="url(#linearGradient-1)" xlink:href="#path-2"></use>
                        </g>
                        <g id="Group" transform="translate(0.000000, 0.856849)">
                            <mask id="mask-5" fill="white">
                                <use xlink:href="#path-4"></use>
                            </mask>
                            <use id="Rectangle-Copy" fill-opacity="0" fill="#FFFFFF" transform="translate(51.410935, 19.279101) scale(1, -1) translate(-51.410935, -19.279101) " xlink:href="#path-4"></use>
                            <path d="M29.2915013,5.09259259 L74.5973876,5.09259259 C88.0524796,5.09259259 99.8148148,16.0258859 99.8148148,29.5127866 L99.8148148,79.2100235 C99.8148148,92.6969243 88.0524796,103.630218 74.5973876,103.630218 L28.4366733,103.630218 C14.9815813,103.630218 4.07407407,92.6969243 4.07407407,79.2100235 L4.07407407,29.5127866 C4.07407407,16.0258859 15.8364093,5.09259259 29.2915013,5.09259259 Z" id="Path" fill="url(#linearGradient-6)" fill-rule="nonzero" mask="url(#mask-5)"></path>
                        </g>
                        <g id="Group-2" transform="translate(32.560259, 0.000000)" fill="url(#linearGradient-7)">
                            <rect id="Rectangle" x="0" y="0" width="6.8547913" height="16.2801293" rx="3.42739565"></rect>
                            <rect id="Rectangle-Copy-3" x="31.7034098" y="0" width="6.8547913" height="16.2801293" rx="3.42739565"></rect>
                        </g>
                        <g id="Group-3" transform="translate(23.991770, 52.267784)" fill="#FFFFFF">
                            <circle id="Oval" cx="7.06900353" cy="7.06900353" r="7.06900353"></circle>
                            <circle id="Oval-Copy" fill-opacity="0.449190444" cx="28.2760141" cy="7.06900353" r="7.06900353"></circle>
                            <circle id="Oval-Copy-2" fill-opacity="0.449190444" cx="49.4830247" cy="7.06900353" r="7.06900353"></circle>
                            <circle id="Oval-Copy-5" fill-opacity="0.449190444" cx="7.06900353" cy="27.1621105" r="7.06900353"></circle>
                            <circle id="Oval-Copy-4" fill-opacity="0.449190444" cx="28.2760141" cy="27.1621105" r="7.06900353"></circle>
                            <circle id="Oval-Copy-3" fill-opacity="0.449190444" cx="49.4830247" cy="27.1621105" r="7.06900353"></circle>
                        </g>
                    </g>
                    <g id="Group-5" transform="translate(0.774074, 77.470370)">
                        <g id="Group-20">
                            <g id="Oval-Copy">
                                <use fill="black" fill-opacity="1" filter="url(#filter-9)" xlink:href="#path-8"></use>
                                <use fill="#28CAC3" fill-rule="evenodd" xlink:href="#path-8"></use>
                            </g>
                            <polygon id="Path-3" fill="#FFFFFF" fill-rule="nonzero" points="16.5907121 18.9532621 23.2927214 11.1527387 26.456067 13.870604 17.0335163 24.8375876 10.1085435 18.8759727 12.8295206 15.7153035"></polygon>
                        </g>
                    </g>
                </g>
                <g id="Group-21" transform="translate(120.000000, 3.000000)">
                    <g id="Group-6" transform="translate(18.636364, 11.909091)">
                        <circle id="Oval" fill="url(#linearGradient-10)" fill-rule="nonzero" cx="12.5454545" cy="12.5454545" r="12.5454545"></circle>
                        <path d="M10.6893759,10.6988614 C10.0705438,10.1728793 9.67792208,9.38878402 9.67792208,8.51298701 C9.67792208,6.92929256 10.9617601,5.64545455 12.5454545,5.64545455 C14.129149,5.64545455 15.412987,6.92929256 15.412987,8.51298701 C15.412987,9.38878402 15.0203653,10.1728793 14.4015332,10.6988614 C16.2542136,11.5185223 17.5636364,13.528841 17.5636364,15.8788447 C17.5636364,16.4302429 17.4915466,16.9629399 17.3572644,17.4659429 L7.74243696,17.4985097 C7.60251174,16.9859535 7.52727273,16.4421582 7.52727273,15.8788447 C7.52727273,13.528841 8.83669553,11.5185223 10.6893759,10.6988614 Z" id="Combined-Shape" fill="#FFFFFF"></path>
                    </g>
                    <g id="Group-6-Copy">
                        <g id="Oval">
                            <use fill="black" fill-opacity="1" filter="url(#filter-13)" xlink:href="#path-12"></use>
                            <use fill="url(#linearGradient-11)" fill-rule="evenodd" xlink:href="#path-12"></use>
                        </g>
                        <path d="M10.6893759,10.6988614 C10.0705438,10.1728793 9.67792208,9.38878402 9.67792208,8.51298701 C9.67792208,6.92929256 10.9617601,5.64545455 12.5454545,5.64545455 C14.129149,5.64545455 15.412987,6.92929256 15.412987,8.51298701 C15.412987,9.38878402 15.0203653,10.1728793 14.4015332,10.6988614 C16.2542136,11.5185223 17.5636364,13.528841 17.5636364,15.8788447 C17.5636364,16.4302429 17.4915466,16.9629399 17.3572644,17.4659429 L7.74243696,17.4985097 C7.60251174,16.9859535 7.52727273,16.4421582 7.52727273,15.8788447 C7.52727273,13.528841 8.83669553,11.5185223 10.6893759,10.6988614 Z" id="Combined-Shape" fill="#FFFFFF"></path>
                    </g>
                </g>
                <g id="Oval-Copy-17">
                    <use fill="black" fill-opacity="1" filter="url(#filter-16)" xlink:href="#path-15"></use>
                    <use fill="url(#radialGradient-14)" fill-rule="evenodd" xlink:href="#path-15"></use>
                </g>
                <g id="Oval-Copy-18">
                    <use fill="black" fill-opacity="1" filter="url(#filter-19)" xlink:href="#path-18"></use>
                    <use fill="url(#radialGradient-17)" fill-rule="evenodd" xlink:href="#path-18"></use>
                </g>
                <g id="Group-19" transform="translate(124.000000, 65.000000)">
                    <g id="Rectangle-Copy-5">
                        <use fill="black" fill-opacity="1" filter="url(#filter-21)" xlink:href="#path-20"></use>
                        <use fill="url(#linearGradient-11)" fill-rule="evenodd" xlink:href="#path-20"></use>
                    </g>
                    <g id="Group-18" transform="translate(7.000000, 6.000000)">
                        <g id="Group-17" transform="translate(18.000000, 2.000000)" fill="#FFFFFF" fill-opacity="0.449190444">
                            <rect id="Rectangle-Copy-8" x="0" y="5.32907052e-15" width="21" height="4.090909" rx="2.0454545"></rect>
                            <rect id="Rectangle-Copy-20" x="-2.43360887e-13" y="7" width="13.8051948" height="4.090909" rx="2.0454545"></rect>
                        </g>
                        <g id="LocationShape">
                            <use fill="black" fill-opacity="1" filter="url(#filter-23)" xlink:href="#path-22"></use>
                            <use fill="#FFFFFF" fill-rule="evenodd" xlink:href="#path-22"></use>
                        </g>
                    </g>
                </g>
                <path d="M2.23613013,108.914802 C0.772877085,102.512687 -4.54747351e-13,95.8475471 -4.54747351e-13,89.0018786 C-4.54747351e-13,39.84811 39.8466979,0 88.9991306,0 C101.302446,0 113.022644,2.4964982 123.680828,7.01054569" id="Path" stroke="#E8ECEC" stroke-width="9" stroke-linecap="round" stroke-dasharray="1,20.8700008392334"></path>
            </g>
        </g>
    </g>
</svg>