<?xml version="1.0" encoding="UTF-8"?>
<svg width="155px" height="173px" viewBox="0 0 155 173" version="1.1" xmlns="http://www.w3.org/2000/svg" xmlns:xlink="http://www.w3.org/1999/xlink">
    <!-- Generator: Sketch 52.5 (67469) - http://www.bohemiancoding.com/sketch -->
    <title>Companies icon</title>
    <desc>Created with Sketch.</desc>
    <defs>
        <linearGradient x1="11.200552%" y1="0%" x2="73.9211694%" y2="100%" id="linearGradient-1">
            <stop stop-color="#C1A3FF" offset="0%"></stop>
            <stop stop-color="#8D6AFF" offset="100%"></stop>
        </linearGradient>
        <rect id="path-2" x="0" y="0" width="123.112583" height="78.8470412" rx="3"></rect>
        <filter x="-15.0%" y="-22.2%" width="134.9%" height="154.5%" filterUnits="objectBoundingBox" id="filter-3">
            <feOffset dx="3" dy="4" in="SourceAlpha" result="shadowOffsetOuter1"></feOffset>
            <feGaussianBlur stdDeviation="6.5" in="shadowOffsetOuter1" result="shadowBlurOuter1"></feGaussianBlur>
            <feColorMatrix values="0 0 0 0 0   0 0 0 0 0   0 0 0 0 0  0 0 0 0.13841712 0" type="matrix" in="shadowBlurOuter1"></feColorMatrix>
        </filter>
        <path d="M10.8907285,21.781457 C4.87594522,21.781457 -3.55271368e-15,16.9055117 -3.55271368e-15,10.8907285 C-3.55271368e-15,4.87594522 4.87594522,-1.77635684e-15 10.8907285,-1.77635684e-15 C16.9055117,-1.77635684e-15 21.781457,4.87594522 21.781457,10.8907285 C21.781457,16.9055117 16.9055117,21.781457 10.8907285,21.781457 Z M9.27946374,9.28769814 C7.67114905,9.99924699 6.53443709,11.7444078 6.53443709,13.7844497 C6.53443709,14.2734629 6.59975219,14.7455325 6.72122149,15.1904833 L15.067868,15.162212 C15.1844387,14.7255543 15.2470199,14.2631193 15.2470199,13.7844497 C15.2470199,11.7444078 14.1103079,9.99924699 12.5019932,9.28769814 C13.0392023,8.83109224 13.3800378,8.15041792 13.3800378,7.39013718 C13.3800378,6.01532958 12.2655361,4.90082781 10.8907285,4.90082781 C9.51592088,4.90082781 8.40141911,6.01532958 8.40141911,7.39013718 C8.40141911,8.15041792 8.74225466,8.83109224 9.27946374,9.28769814 Z" id="path-4"></path>
        <filter x="-62.0%" y="-62.0%" width="224.0%" height="224.0%" filterUnits="objectBoundingBox" id="filter-5">
            <feOffset dx="0" dy="0" in="SourceAlpha" result="shadowOffsetOuter1"></feOffset>
            <feGaussianBlur stdDeviation="4.5" in="shadowOffsetOuter1" result="shadowBlurOuter1"></feGaussianBlur>
            <feColorMatrix values="0 0 0 0 0   0 0 0 0 0   0 0 0 0 0  0 0 0 0.13 0" type="matrix" in="shadowBlurOuter1"></feColorMatrix>
        </filter>
        <path d="M10.8907285,21.781457 C4.87594522,21.781457 -3.55271368e-15,16.9055117 -3.55271368e-15,10.8907285 C-3.55271368e-15,4.87594522 4.87594522,-1.77635684e-15 10.8907285,-1.77635684e-15 C16.9055117,-1.77635684e-15 21.781457,4.87594522 21.781457,10.8907285 C21.781457,16.9055117 16.9055117,21.781457 10.8907285,21.781457 Z M9.27946374,9.28769814 C7.67114905,9.99924699 6.53443709,11.7444078 6.53443709,13.7844497 C6.53443709,14.2734629 6.59975219,14.7455325 6.72122149,15.1904833 L15.067868,15.162212 C15.1844387,14.7255543 15.2470199,14.2631193 15.2470199,13.7844497 C15.2470199,11.7444078 14.1103079,9.99924699 12.5019932,9.28769814 C13.0392023,8.83109224 13.3800378,8.15041792 13.3800378,7.39013718 C13.3800378,6.01532958 12.2655361,4.90082781 10.8907285,4.90082781 C9.51592088,4.90082781 8.40141911,6.01532958 8.40141911,7.39013718 C8.40141911,8.15041792 8.74225466,8.83109224 9.27946374,9.28769814 Z" id="path-6"></path>
        <filter x="-62.0%" y="-62.0%" width="224.0%" height="224.0%" filterUnits="objectBoundingBox" id="filter-7">
            <feOffset dx="0" dy="0" in="SourceAlpha" result="shadowOffsetOuter1"></feOffset>
            <feGaussianBlur stdDeviation="4.5" in="shadowOffsetOuter1" result="shadowBlurOuter1"></feGaussianBlur>
            <feColorMatrix values="0 0 0 0 0   0 0 0 0 0   0 0 0 0 0  0 0 0 0.13 0" type="matrix" in="shadowBlurOuter1"></feColorMatrix>
        </filter>
        <circle id="path-8" cx="10.8907285" cy="10.8907285" r="10.8907285"></circle>
        <filter x="-62.0%" y="-62.0%" width="224.0%" height="224.0%" filterUnits="objectBoundingBox" id="filter-9">
            <feOffset dx="0" dy="0" in="SourceAlpha" result="shadowOffsetOuter1"></feOffset>
            <feGaussianBlur stdDeviation="4.5" in="shadowOffsetOuter1" result="shadowBlurOuter1"></feGaussianBlur>
            <feColorMatrix values="0 0 0 0 0   0 0 0 0 0   0 0 0 0 0  0 0 0 0.13 0" type="matrix" in="shadowBlurOuter1"></feColorMatrix>
        </filter>
        <path d="M10.8907285,21.781457 C4.87594522,21.781457 -7.10542736e-15,16.9055117 -7.10542736e-15,10.8907285 C-7.10542736e-15,4.87594522 4.87594522,-3.55271368e-15 10.8907285,-3.55271368e-15 C16.9055117,-3.55271368e-15 21.781457,4.87594522 21.781457,10.8907285 C21.781457,16.9055117 16.9055117,21.781457 10.8907285,21.781457 Z M9.27946374,9.28769814 C7.67114905,9.99924699 6.53443709,11.7444078 6.53443709,13.7844497 C6.53443709,14.2734629 6.59975219,14.7455325 6.72122149,15.1904833 L15.067868,15.162212 C15.1844387,14.7255543 15.2470199,14.2631193 15.2470199,13.7844497 C15.2470199,11.7444078 14.1103079,9.99924699 12.5019932,9.28769814 C13.0392023,8.83109224 13.3800378,8.15041792 13.3800378,7.39013718 C13.3800378,6.01532958 12.2655361,4.90082781 10.8907285,4.90082781 C9.51592088,4.90082781 8.40141911,6.01532958 8.40141911,7.39013718 C8.40141911,8.15041792 8.74225466,8.83109224 9.27946374,9.28769814 Z" id="path-10"></path>
        <filter x="-84.9%" y="-80.3%" width="297.4%" height="297.4%" filterUnits="objectBoundingBox" id="filter-11">
            <feOffset dx="3" dy="4" in="SourceAlpha" result="shadowOffsetOuter1"></feOffset>
            <feGaussianBlur stdDeviation="6.5" in="shadowOffsetOuter1" result="shadowBlurOuter1"></feGaussianBlur>
            <feColorMatrix values="0 0 0 0 0   0 0 0 0 0   0 0 0 0 0  0 0 0 0.13841712 0" type="matrix" in="shadowBlurOuter1"></feColorMatrix>
        </filter>
        <path d="M10.8907285,21.781457 C4.87594522,21.781457 -7.10542736e-15,16.9055117 -7.10542736e-15,10.8907285 C-7.10542736e-15,4.87594522 4.87594522,-3.55271368e-15 10.8907285,-3.55271368e-15 C16.9055117,-3.55271368e-15 21.781457,4.87594522 21.781457,10.8907285 C21.781457,16.9055117 16.9055117,21.781457 10.8907285,21.781457 Z M9.27946374,9.28769814 C7.67114905,9.99924699 6.53443709,11.7444078 6.53443709,13.7844497 C6.53443709,14.2734629 6.59975219,14.7455325 6.72122149,15.1904833 L15.067868,15.162212 C15.1844387,14.7255543 15.2470199,14.2631193 15.2470199,13.7844497 C15.2470199,11.7444078 14.1103079,9.99924699 12.5019932,9.28769814 C13.0392023,8.83109224 13.3800378,8.15041792 13.3800378,7.39013718 C13.3800378,6.01532958 12.2655361,4.90082781 10.8907285,4.90082781 C9.51592088,4.90082781 8.40141911,6.01532958 8.40141911,7.39013718 C8.40141911,8.15041792 8.74225466,8.83109224 9.27946374,9.28769814 Z" id="path-12"></path>
        <filter x="-84.9%" y="-80.3%" width="297.4%" height="297.4%" filterUnits="objectBoundingBox" id="filter-13">
            <feOffset dx="3" dy="4" in="SourceAlpha" result="shadowOffsetOuter1"></feOffset>
            <feGaussianBlur stdDeviation="6.5" in="shadowOffsetOuter1" result="shadowBlurOuter1"></feGaussianBlur>
            <feColorMatrix values="0 0 0 0 0   0 0 0 0 0   0 0 0 0 0  0 0 0 0.13841712 0" type="matrix" in="shadowBlurOuter1"></feColorMatrix>
        </filter>
        <linearGradient x1="26.9074942%" y1="0%" x2="48.90625%" y2="100%" id="linearGradient-14">
            <stop stop-color="#79BEFF" offset="0%"></stop>
            <stop stop-color="#2CB0FE" offset="100%"></stop>
        </linearGradient>
        <rect id="path-15" x="0" y="0" width="37.8807947" height="37.8807947" rx="3"></rect>
        <filter x="-35.6%" y="-35.6%" width="171.3%" height="171.3%" filterUnits="objectBoundingBox" id="filter-16">
            <feOffset dx="0" dy="0" in="SourceAlpha" result="shadowOffsetOuter1"></feOffset>
            <feGaussianBlur stdDeviation="4.5" in="shadowOffsetOuter1" result="shadowBlurOuter1"></feGaussianBlur>
            <feColorMatrix values="0 0 0 0 0   0 0 0 0 0   0 0 0 0 0  0 0 0 0.13 0" type="matrix" in="shadowBlurOuter1"></feColorMatrix>
        </filter>
        <circle id="path-17" cx="15" cy="15" r="15"></circle>
        <filter x="-23.3%" y="-16.7%" width="146.7%" height="146.7%" filterUnits="objectBoundingBox" id="filter-18">
            <feOffset dx="0" dy="2" in="SourceAlpha" result="shadowOffsetOuter1"></feOffset>
            <feGaussianBlur stdDeviation="2" in="shadowOffsetOuter1" result="shadowBlurOuter1"></feGaussianBlur>
            <feColorMatrix values="0 0 0 0 0   0 0 0 0 0   0 0 0 0 0  0 0 0 0.217079937 0" type="matrix" in="shadowBlurOuter1"></feColorMatrix>
        </filter>
        <circle id="path-19" cx="7.1345781" cy="7.05601469" r="6.83603714"></circle>
        <filter x="-51.2%" y="-36.6%" width="202.4%" height="202.4%" filterUnits="objectBoundingBox" id="filter-20">
            <feOffset dx="0" dy="2" in="SourceAlpha" result="shadowOffsetOuter1"></feOffset>
            <feGaussianBlur stdDeviation="2" in="shadowOffsetOuter1" result="shadowBlurOuter1"></feGaussianBlur>
            <feColorMatrix values="0 0 0 0 0   0 0 0 0 0   0 0 0 0 0  0 0 0 0.217079937 0" type="matrix" in="shadowBlurOuter1"></feColorMatrix>
        </filter>
        <circle id="path-21" cx="7.1345781" cy="7.05601469" r="6.83603714"></circle>
        <filter x="-51.2%" y="-36.6%" width="202.4%" height="202.4%" filterUnits="objectBoundingBox" id="filter-22">
            <feOffset dx="0" dy="2" in="SourceAlpha" result="shadowOffsetOuter1"></feOffset>
            <feGaussianBlur stdDeviation="2" in="shadowOffsetOuter1" result="shadowBlurOuter1"></feGaussianBlur>
            <feColorMatrix values="0 0 0 0 0   0 0 0 0 0   0 0 0 0 0  0 0 0 0.217079937 0" type="matrix" in="shadowBlurOuter1"></feColorMatrix>
        </filter>
        <circle id="path-23" cx="7.1345781" cy="7.05601469" r="6.83603714"></circle>
        <filter x="-51.2%" y="-36.6%" width="202.4%" height="202.4%" filterUnits="objectBoundingBox" id="filter-24">
            <feOffset dx="0" dy="2" in="SourceAlpha" result="shadowOffsetOuter1"></feOffset>
            <feGaussianBlur stdDeviation="2" in="shadowOffsetOuter1" result="shadowBlurOuter1"></feGaussianBlur>
            <feColorMatrix values="0 0 0 0 0   0 0 0 0 0   0 0 0 0 0  0 0 0 0.217079937 0" type="matrix" in="shadowBlurOuter1"></feColorMatrix>
        </filter>
        <circle id="path-25" cx="7.1345781" cy="7.05601469" r="6.83603714"></circle>
        <filter x="-51.2%" y="-36.6%" width="202.4%" height="202.4%" filterUnits="objectBoundingBox" id="filter-26">
            <feOffset dx="0" dy="2" in="SourceAlpha" result="shadowOffsetOuter1"></feOffset>
            <feGaussianBlur stdDeviation="2" in="shadowOffsetOuter1" result="shadowBlurOuter1"></feGaussianBlur>
            <feColorMatrix values="0 0 0 0 0   0 0 0 0 0   0 0 0 0 0  0 0 0 0.217079937 0" type="matrix" in="shadowBlurOuter1"></feColorMatrix>
        </filter>
        <circle id="path-27" cx="7.1345781" cy="7.05601469" r="6.83603714"></circle>
        <filter x="-51.2%" y="-36.6%" width="202.4%" height="202.4%" filterUnits="objectBoundingBox" id="filter-28">
            <feOffset dx="0" dy="2" in="SourceAlpha" result="shadowOffsetOuter1"></feOffset>
            <feGaussianBlur stdDeviation="2" in="shadowOffsetOuter1" result="shadowBlurOuter1"></feGaussianBlur>
            <feColorMatrix values="0 0 0 0 0   0 0 0 0 0   0 0 0 0 0  0 0 0 0.217079937 0" type="matrix" in="shadowBlurOuter1"></feColorMatrix>
        </filter>
    </defs>
    <g id="Landing-page" stroke="none" stroke-width="1" fill="none" fill-rule="evenodd">
        <g id="Landing-page-01-Copy" transform="translate(-581.000000, -1052.000000)">
            <g id="Companies-icon" transform="translate(585.000000, 1054.000000)">
                <g id="Group-10" transform="translate(9.000000, 13.000000)">
                    <g id="Rectangle-Copy-4">
                        <use fill="black" fill-opacity="1" filter="url(#filter-3)" xlink:href="#path-2"></use>
                        <use fill="url(#linearGradient-1)" fill-rule="evenodd" xlink:href="#path-2"></use>
                    </g>
                    <g id="Group-6-Copy-2" transform="translate(11.364238, 11.364238)">
                        <g id="Combined-Shape">
                            <use fill="black" fill-opacity="1" filter="url(#filter-5)" xlink:href="#path-4"></use>
                            <use fill="#FFFFFF" fill-rule="evenodd" xlink:href="#path-4"></use>
                        </g>
                    </g>
                    <g id="Group-6-Copy-3" transform="translate(11.364238, 38.827815)">
                        <g id="Combined-Shape">
                            <use fill="black" fill-opacity="1" filter="url(#filter-7)" xlink:href="#path-6"></use>
                            <use fill="#FFFFFF" fill-rule="evenodd" xlink:href="#path-6"></use>
                        </g>
                    </g>
                    <g id="Group-6-Copy-4" transform="translate(11.364238, 66.291391)">
                        <g id="Combined-Shape">
                            <use fill="black" fill-opacity="1" filter="url(#filter-9)" xlink:href="#path-8"></use>
                            <use fill="#FFFFFF" fill-rule="evenodd" xlink:href="#path-8"></use>
                        </g>
                        <path d="M9.27946374,9.28769814 C8.74225466,8.83109224 8.40141911,8.15041792 8.40141911,7.39013718 C8.40141911,6.01532958 9.51592088,4.90082781 10.8907285,4.90082781 C12.2655361,4.90082781 13.3800378,6.01532958 13.3800378,7.39013718 C13.3800378,8.15041792 13.0392023,8.83109224 12.5019932,9.28769814 C14.1103079,9.99924699 15.2470199,11.7444078 15.2470199,13.7844497 C15.2470199,14.2631193 15.1844387,14.7255543 15.067868,15.162212 L6.72122149,15.1904833 C6.59975219,14.7455325 6.53443709,14.2734629 6.53443709,13.7844497 C6.53443709,11.7444078 7.67114905,9.99924699 9.27946374,9.28769814 Z" id="Combined-Shape" fill="#9E7FF5"></path>
                    </g>
                    <g id="Group-9" transform="translate(11.364238, 92.807947)">
                        <g id="Combined-Shape">
                            <use fill="black" fill-opacity="1" filter="url(#filter-11)" xlink:href="#path-10"></use>
                            <use fill="url(#linearGradient-1)" fill-rule="evenodd" xlink:href="#path-10"></use>
                        </g>
                        <rect id="Rectangle-Copy-24" fill="#E8ECEC" x="29.3576159" y="3.78807947" width="53.0331126" height="5.68211921" rx="2.8410596"></rect>
                        <rect id="Rectangle-Copy-22" fill-opacity="0.449190444" fill="#FFFFFF" x="29.3576159" y="10.6616108" width="53.0331126" height="5.68211921" rx="2.8410596"></rect>
                        <rect id="Rectangle-Copy-25" fill="#E8ECEC" x="29.3576159" y="13.2582781" width="35.0397351" height="5.68211921" rx="2.8410596"></rect>
                    </g>
                    <g id="Group-9-Copy-2" transform="translate(11.364238, 119.324503)">
                        <g id="Combined-Shape">
                            <use fill="black" fill-opacity="1" filter="url(#filter-13)" xlink:href="#path-12"></use>
                            <use fill="url(#linearGradient-1)" fill-rule="evenodd" xlink:href="#path-12"></use>
                        </g>
                        <rect id="Rectangle-Copy-24" fill="#E8ECEC" x="29.3576159" y="3.78807947" width="53.0331126" height="5.68211921" rx="2.8410596"></rect>
                        <rect id="Rectangle-Copy-22" fill-opacity="0.449190444" fill="#FFFFFF" x="29.3576159" y="10.6616108" width="53.0331126" height="5.68211921" rx="2.8410596"></rect>
                        <rect id="Rectangle-Copy-25" fill="#E8ECEC" x="29.3576159" y="13.2582781" width="35.0397351" height="5.68211921" rx="2.8410596"></rect>
                    </g>
                    <g id="Group-8" transform="translate(94.701987, 59.662252)">
                        <g id="Rectangle-Copy-5">
                            <use fill="black" fill-opacity="1" filter="url(#filter-16)" xlink:href="#path-15"></use>
                            <use fill="url(#linearGradient-14)" fill-rule="evenodd" xlink:href="#path-15"></use>
                        </g>
                        <g id="growth" transform="translate(9.470199, 8.523179)" fill="#FFFFFF">
                            <path d="M8.54625733,9.7683193 C8.54625733,9.19231858 8.07937107,8.72543232 7.50337035,8.72543232 L6.41951591,8.72543232 C5.84351519,8.72543232 5.37662893,9.19231858 5.37662893,9.7683193 L5.37662893,17.0329491 C5.37662893,17.6089498 5.84351519,18.0758361 6.41951591,18.0758361 L7.50337035,18.0758361 C8.07937107,18.0758361 8.54625733,17.6089498 8.54625733,17.0329491 L8.54625733,9.7683193 Z" id="Path"></path>
                            <path d="M3.16962841,12.5474642 C3.16962841,11.9277226 2.6672423,11.4253365 2.04750071,11.4253365 L1.1221277,11.4253365 C0.502386102,11.4253365 0,11.9277226 0,12.5474642 L0,17.1971506 C0,17.8168921 0.502386102,18.3192782 1.1221277,18.3192782 L2.04750071,18.3192782 C2.6672423,18.3192782 3.16962841,17.8168921 3.16962841,17.1971506 L3.16962841,12.5474642 Z" id="Path"></path>
                            <path d="M13.9228863,6.99489445 C13.9228863,6.41889373 13.456,5.95200746 12.8799993,5.95200746 L11.7961448,5.95200746 C11.2201441,5.95200746 10.7532579,6.41889373 10.7532579,6.99489445 L10.7532579,17.0329491 C10.7532579,17.6089498 11.2201441,18.0758361 11.7961448,18.0758361 L12.8799993,18.0758361 C13.456,18.0758361 13.9228863,17.6089498 13.9228863,17.0329491 L13.9228863,6.99489445 Z" id="Path"></path>
                            <path d="M20.3918976,2.99181225 L18.3587394,0.383683519 C18.1832213,0.15848142 17.933613,0.0293190628 17.6739412,0.0293190628 C17.4142694,0.0293190628 17.1646612,0.15848142 16.989143,0.383683519 L14.9559849,2.99173301 C14.781576,3.21542954 14.7387861,3.4609965 14.8386294,3.66535829 C14.9474269,3.88818317 15.2086042,4.02114908 15.5369777,4.02114908 L16.0849272,4.02265465 L16.0849272,17.0626644 C16.0849272,17.6377142 16.5533983,18.0758361 17.1284482,18.0758361 L18.2195927,18.0758361 C18.7946426,18.0758361 19.2545557,17.6377142 19.2545557,17.0626644 L19.2545557,4.01362121 L19.8059125,4.02122832 C20.1349992,4.02122832 20.3984745,3.88818317 20.507272,3.66543753 C20.6071153,3.4609965 20.5663064,3.21550878 20.3918976,2.99181225 Z" id="Path"></path>
                        </g>
                    </g>
                    <rect id="Rectangle-Copy-12" fill-opacity="0.449190444" fill="#FFFFFF" x="40.7218543" y="14.205298" width="53.0331126" height="5.68211921" rx="2.8410596"></rect>
                    <rect id="Rectangle-Copy-17" fill-opacity="0.449190444" fill="#FFFFFF" x="40.7218543" y="23.6754967" width="35.0397351" height="5.68211921" rx="2.8410596"></rect>
                    <rect id="Rectangle-Copy-19" fill-opacity="0.449190444" fill="#FFFFFF" x="40.7218543" y="41.6688742" width="53.0331126" height="5.68211921" rx="2.8410596"></rect>
                    <rect id="Rectangle-Copy-18" fill-opacity="0.449190444" fill="#FFFFFF" x="40.7218543" y="51.1390728" width="35.0397351" height="5.68211921" rx="2.8410596"></rect>
                    <rect id="Rectangle-Copy-21" fill-opacity="0.449190444" fill="#FFFFFF" x="40.7218543" y="68.1854305" width="41.6688742" height="5.68211921" rx="2.8410596"></rect>
                    <rect id="Rectangle-Copy-23" fill-opacity="0.449190444" fill="#FFFFFF" x="40.7218543" y="112.939756" width="35.0397351" height="5.68211921" rx="2.8410596"></rect>
                </g>
                <g id="Group-11" transform="translate(113.000000, 0.000000)">
                    <g id="Oval-Copy">
                        <use fill="black" fill-opacity="1" filter="url(#filter-18)" xlink:href="#path-17"></use>
                        <use fill="#28CAC3" fill-rule="evenodd" xlink:href="#path-17"></use>
                    </g>
                    <g id="Gear" transform="translate(7.500000, 7.500000)" fill="#FFFFFF" fill-rule="nonzero">
                        <path d="M15,7.0587012 L15,8.2352344 C15,8.7245801 14.60701,9.1175684 14.11765,9.1175684 L13.00151,9.1175684 C12.83935,9.6673242 12.59777,10.1840625 12.28962,10.6514063 L12.92475,11.2865039 C13.27102,11.632793 13.27102,12.1906055 12.92475,12.5341992 L12.09473,13.3671387 C11.7482,13.7107324 11.19012,13.7107324 10.84652,13.3671387 L10.09059,12.6138867 C9.69223,12.8146875 9.26865,12.9711621 8.82357,13.0758691 L8.82357,14.1174023 C8.82357,14.606748 8.42764,15 7.94122,15 L6.76467,15 C6.27827,15 5.88232,14.606748 5.88232,14.1174023 L5.88232,13.0015137 C5.40129,12.8584277 4.95058,12.6552246 4.53262,12.4023633 L3.71361,13.2186621 C3.37001,13.5649512 2.81193,13.5649512 2.4654,13.2186621 L1.63271,12.3886816 C1.28911,12.0423926 1.28911,11.484082 1.63271,11.1404883 L2.48734,10.2857812 C2.28414,9.9201563 2.11905,9.527168 2.00092,9.1175684 L0.88208,9.1175684 C0.39569,9.1175684 0,8.7245801 0,8.2352344 L0,7.0587012 C0,6.5722852 0.39569,6.1763672 0.88208,6.1763672 L1.92416,6.1763672 C2.02831,5.7310547 2.18508,5.3079785 2.38858,4.9091016 L1.4869,4.0076953 C1.1406,3.6641016 1.1406,3.1033301 1.4869,2.7597363 L2.31985,1.9294629 C2.66345,1.5832031 3.22127,1.5832031 3.5678,1.9294629 L4.34843,2.7100781 C4.81844,2.4024316 5.3325,2.1603223 5.88226,2.0008594 L5.88226,0.882334 C5.88226,0.3956543 6.27821,0 6.76461,0 L7.94116,0 C8.42755,0 8.82351,0.3956543 8.82351,0.882334 L8.82351,1.9241309 C9.34025,2.0478809 9.8323,2.237373 10.28594,2.4875684 L10.99221,1.7813379 C11.33874,1.4377441 11.89656,1.4377441 12.24016,1.7813379 L13.07311,2.6140137 C13.41671,2.9576074 13.41671,3.5156543 13.07311,3.8619434 L12.40229,4.5327539 C12.70748,5.0358105 12.93838,5.5882324 13.07581,6.1763672 L14.11759,6.1763672 C14.60701,6.1763672 15,6.5722852 15,7.0587012 Z M10.5717,7.5731965 C10.5717,5.9176722 9.22593,4.5719485 7.573,4.5719485 C5.91773,4.5719485 4.5717,5.9176722 4.5717,7.5731965 C4.5717,9.2261312 5.91773,10.5715987 7.573,10.5715987 C9.22593,10.5715702 10.5717,9.2261027 10.5717,7.5731965 Z"></path>
                    </g>
                </g>
                <g id="Group-12" transform="translate(0.000000, 29.000000)">
                    <g id="Oval-Copy">
                        <use fill="black" fill-opacity="1" filter="url(#filter-20)" xlink:href="#path-19"></use>
                        <use fill="#28CAC3" fill-rule="evenodd" xlink:href="#path-19"></use>
                    </g>
                    <polygon id="Path-3" fill="#FFFFFF" fill-rule="nonzero" points="6.69716272 7.52977559 9.2819597 4.52130929 10.5019828 5.56952178 6.86794119 9.79921245 4.19715278 7.49996703 5.24656545 6.28097614"></polygon>
                </g>
                <g id="Group-12-Copy" transform="translate(0.000000, 55.000000)">
                    <g id="Oval-Copy">
                        <use fill="black" fill-opacity="1" filter="url(#filter-22)" xlink:href="#path-21"></use>
                        <use fill="#28CAC3" fill-rule="evenodd" xlink:href="#path-21"></use>
                    </g>
                    <polygon id="Path-3" fill="#FFFFFF" fill-rule="nonzero" points="6.69716272 7.52977559 9.2819597 4.52130929 10.5019828 5.56952178 6.86794119 9.79921245 4.19715278 7.49996703 5.24656545 6.28097614"></polygon>
                </g>
                <g id="Group-12-Copy-2" transform="translate(0.000000, 82.000000)">
                    <g id="Oval-Copy">
                        <use fill="black" fill-opacity="1" filter="url(#filter-24)" xlink:href="#path-23"></use>
                        <use fill="#28CAC3" fill-rule="evenodd" xlink:href="#path-23"></use>
                    </g>
                    <polygon id="Path-3" fill="#FFFFFF" fill-rule="nonzero" points="6.69716272 7.52977559 9.2819597 4.52130929 10.5019828 5.56952178 6.86794119 9.79921245 4.19715278 7.49996703 5.24656545 6.28097614"></polygon>
                </g>
                <g id="Group-12-Copy-3" transform="translate(0.000000, 108.000000)">
                    <g id="Oval-Copy">
                        <use fill="black" fill-opacity="1" filter="url(#filter-26)" xlink:href="#path-25"></use>
                        <use fill="#28CAC3" fill-rule="evenodd" xlink:href="#path-25"></use>
                    </g>
                    <polygon id="Path-3" fill="#FFFFFF" fill-rule="nonzero" points="6.69716272 7.52977559 9.2819597 4.52130929 10.5019828 5.56952178 6.86794119 9.79921245 4.19715278 7.49996703 5.24656545 6.28097614"></polygon>
                </g>
                <g id="Group-12-Copy-4" transform="translate(0.000000, 135.000000)">
                    <g id="Oval-Copy">
                        <use fill="black" fill-opacity="1" filter="url(#filter-28)" xlink:href="#path-27"></use>
                        <use fill="#28CAC3" fill-rule="evenodd" xlink:href="#path-27"></use>
                    </g>
                    <polygon id="Path-3" fill="#FFFFFF" fill-rule="nonzero" points="6.69716272 7.52977559 9.2819597 4.52130929 10.5019828 5.56952178 6.86794119 9.79921245 4.19715278 7.49996703 5.24656545 6.28097614"></polygon>
                </g>
            </g>
        </g>
    </g>
</svg>