<?xml version="1.0" encoding="UTF-8"?>
<svg width="86px" height="18px" viewBox="0 0 86 18" version="1.1" xmlns="http://www.w3.org/2000/svg" xmlns:xlink="http://www.w3.org/1999/xlink">
    <!-- Generator: Sketch 52.5 (67469) - http://www.bohemiancoding.com/sketch -->
    <title>JBLX Logo</title>
    <desc>Created with Sketch.</desc>
    <defs>
        <linearGradient x1="29.7251912%" y1="84.8061896%" x2="72.0415117%" y2="30.0769929%" id="linearGradient-1">
            <stop stop-color="#8D6AFF" offset="0%"></stop>
            <stop stop-color="#40A8E9" offset="54.7484646%"></stop>
            <stop stop-color="#00DCD7" offset="100%"></stop>
        </linearGradient>
    </defs>
    <g id="Landing-page" stroke="none" stroke-width="1" fill="none" fill-rule="evenodd">
        <g id="Landing-page-01-Copy" transform="translate(-78.000000, -53.000000)">
            <g id="JBLX-Logo" transform="translate(28.000000, 44.000000)">
                <path d="M57.5171346,10 L61.6515587,10 C61.5200088,10.8233918 61.501216,11.3847953 61.501216,13.0128655
                L61.501216,20.8163743 C61.501216,22.3508772 61.0877736,23.5298246 60.2045103,24.4093567 C59.2460756,25.3824561
                57.7238558,25.9251462 55.8821579,25.9251462 C53.8337387,25.9251462 52.2927261,25.3450292 51.2403272,24.1847953
                C50.695335,23.5859649 50.4322352,23.1181287 50,21.9953216 L53.6646031,20.7415205 C54.0592527,22.2011696
                54.6230378,22.7251462 55.8257793,22.7251462 C57.0848994,22.7251462 57.6674773,22.1076023
                57.6674773,20.8163743 L57.6674773,13.0315789 C57.6674773,11.4409357 57.6298917,10.8608187
                57.5171346,10 Z M69.5069644,26 C65.7296042,26 63.3241212,23.6046784 63.3241212,19.8432749
                C63.3241212,16.1005848 65.7296042,13.7239766 69.5257572,13.7239766 C73.3219102,13.7239766
                75.7273933,16.1005848 75.7273933,19.805848 C75.7273933,23.5298246 73.2467389,26 69.5069644,26 Z
                M69.5445501,16.5309942 C67.8907805,16.5309942 66.913553,17.7660819 66.913553,19.8245614
                C66.913553,21.9017544 67.8907805,23.1555556 69.5257572,23.1555556 C71.160734,23.1555556
                72.1003759,21.9391813 72.1003759,19.8619883 C72.1003759,17.7660819 71.1419412,16.5309942
                69.5445501,16.5309942 Z M82.9438426,26 C79.1664824,26 76.7609993,23.6046784
                76.7609993,19.8432749 C76.7609993,16.1005848 79.1664824,13.7239766 82.9626354,13.7239766
                C86.7587884,13.7239766 89.1642715,16.1005848 89.1642715,19.805848 C89.1642715,23.5298246
                86.6836171,26 82.9438426,26 Z M82.9814283,16.5309942 C81.3276586,16.5309942 80.3504311,17.7660819
                80.3504311,19.8245614 C80.3504311,21.9017544 81.3276586,23.1555556 82.9626354,23.1555556
                C84.5976122,23.1555556 85.537254,21.9391813 85.537254,19.8619883 C85.537254,17.7660819
                84.5788194,16.5309942 82.9814283,16.5309942 Z M94.3698872,25.5695906 L90.6864913,25.5695906
                C90.7992483,24.671345 90.836834,23.8853801 90.836834,22.6315789 L90.836834,12.9380117
                C90.836834,11.5719298 90.7992483,10.8982456 90.6864913,10 L94.5014371,10 C94.4074729,10.8982456
                94.3698872,11.5719298 94.3698872,12.9380117 L94.3698872,14.5099415 C94.3698872,14.7906433
                94.3698872,14.9590643 94.3510944,15.2210526 C95.4598718,14.2479532 96.6626133,13.8175439
                98.2224187,13.8175439 C101.642715,13.8175439 103.634756,15.9883041 103.634756,19.6935673
                C103.634756,21.6959064 103.052178,23.3052632 101.962193,24.4467836 C100.984966,25.419883
                99.7070528,25.9064327 98.0532832,25.9064327 C96.4934778,25.9064327 95.5726288,25.5883041
                94.3510944,24.5777778 C94.3510944,24.6339181 94.3698872,24.877193 94.3698872,24.9707602
                L94.3698872,25.5695906 Z M99.9889454,19.7309942 C99.9889454,17.8222222 98.992925,16.6619883
                97.3391554,16.6619883 C95.6290073,16.6619883 94.4074729,17.9719298 94.4074729,19.7871345
                C94.4074729,21.6397661 95.6478001,23.0432749 97.2639841,23.0432749 C98.8989609,23.0432749
                99.9889454,21.7146199 99.9889454,19.7309942 Z M105.194561,10 L109.009507,10 L109.009507,12.8070175
                L105.194561,12.8070175 L105.194561,10 Z M105.138183,14.154386 L109.065885,14.154386
                C108.953128,14.9216374 108.915543,15.6701754 108.915543,16.980117 L108.915543,22.7438596
                C108.915543,23.754386 108.971921,24.7649123 109.065885,25.5695906 L105.138183,25.5695906
                C105.25094,24.6526316 105.288525,23.9415205 105.288525,22.7438596 L105.288525,16.980117
                C105.288525,15.7637427 105.25094,14.9964912 105.138183,14.154386 Z M111.057926,10
                L114.985629,10 C114.872872,10.7859649 114.835286,11.5532164 114.835286,12.825731
                L114.835286,22.7438596 C114.835286,23.8666667 114.872872,24.5777778 114.985629,25.5695906 L111.057926,25.5695906
                C111.170683,24.7274854 111.208269,24.0912281 111.208269,22.7438596 L111.208269,12.825731 C111.208269,11.497076
                111.170683,10.7111111 111.057926,10 Z M117.015255,10 L120.830201,10 L120.830201,12.8070175 L117.015255,12.8070175
                L117.015255,10 Z M116.958877,14.154386 L120.88658,14.154386 C120.773823,14.9216374 120.736237,15.6701754
                120.736237,16.980117 L120.736237,22.7438596 C120.736237,23.754386 120.792616,24.7649123 120.88658,25.5695906
                L116.958877,25.5695906 C117.071634,24.6526316 117.10922,23.9415205 117.10922,22.7438596 L117.10922,16.980117
                 C117.10922,15.7637427 117.071634,14.9964912 116.958877,14.154386 Z M135,25.5695906 L130.640062,25.5695906
                 C130.395755,25.0081871 130.038691,24.3906433 129.70042,23.8666667 L128.535264,22.0701754 L127.351315,23.922807
                 C127.05063,24.3719298 126.731152,24.9707602 126.449259,25.5695906 L122.051736,25.5695906 C122.540349,25.0081871
                 123.085342,24.3157895 123.442405,23.8105263 L126.486845,19.5438596 L123.799469,15.8011696 C123.705505,15.6701754
                 123.27327,15.1087719 122.521556,14.154386 L126.768738,14.154386 C127.069423,14.8842105 127.219766,15.1649123
                 127.614415,15.7450292 L128.554057,17.148538 L129.474906,15.7450292 C129.888348,15.1274854 130.151448,14.6409357
                 130.339377,14.154386 L134.548972,14.154386 C134.173115,14.6035088 133.590537,15.3707602 133.271059,15.8011696
                 L130.602476,19.5438596 L133.60933,23.7730994 C133.985187,24.297076 134.379836,24.8023392 135,25.5695906 Z"
                      id="Joobilix-Copy" fill="#5f677e" fill-rule="nonzero"></path>
            </g>
        </g>
    </g>
</svg>