<?xml version="1.0" encoding="UTF-8"?>
<svg width="37px" height="34px" viewBox="0 0 37 34" version="1.1" xmlns="http://www.w3.org/2000/svg" xmlns:xlink="http://www.w3.org/1999/xlink">
    <!-- Generator: Sketch 52.5 (67469) - http://www.bohemiancoding.com/sketch -->
    <title>JBLX Logo</title>
    <desc>Created with Sketch.</desc>
    <defs>
        <linearGradient x1="29.7251912%" y1="84.8061896%" x2="72.0415117%" y2="30.0769929%" id="linearGradient-1">
            <stop stop-color="#8D6AFF" offset="0%"></stop>
            <stop stop-color="#40A8E9" offset="54.7484646%"></stop>
            <stop stop-color="#00DCD7" offset="100%"></stop>
        </linearGradient>
    </defs>
    <g id="Landing-page" stroke="none" stroke-width="1" fill="none" fill-rule="evenodd">
        <g id="Landing-page-01-Copy" transform="translate(-78.000000, -53.000000)">
            <g id="JBLX-Logo" transform="translate(78.000000, 53.000000)">
                <path d="M15.6977716,16.9896767 C14.9141075,17.2156666 14.0957299,16.7632053 13.8698741,15.9790762
                C13.6440183,15.1949471 14.0962112,14.3760839 14.8798753,14.1500941 C19.8311818,12.7222566
                23.6308974,12.9851802 28.5441436,15.6894257 C35.0797362,19.2858791 38.8101596,26.2789682
                36.1158363,30.5941772 C33.8984466,34.1448193 28.2855698,34.5002577 22.5492262,31.9901737
                C21.8019933,31.6632029 21.4611464,30.7920291 21.7879234,30.0443528 C22.1147004,29.2966765
                22.9853575,28.9556273 23.7325905,29.2825983 C28.2925516,31.277926 32.3673759,31.0198856
                33.6111386,29.0282842 C35.2006784,26.4824888 32.3634004,21.163699 27.1208072,18.2787668
                C22.9349083,15.9748523 19.9363712,15.7673668 15.6977716,16.9896767 Z M17.1006841,24.2652421
                C17.7000345,24.81867 17.7375282,25.7534698 17.1844284,26.3531759 C16.6313287,26.952882
                15.6970832,26.9903979 15.0977328,26.43697 C11.5098892,23.1240288 9.78997968,19.7586499
                9.48707418,14.3222916 C9.07189776,6.87096494 13.0228233,0 18.1081288,0 C22.2594535,0
                25.5172705,4.50091016 26.458864,10.6297348 C26.5827804,11.4363055 26.0297674,12.190674
                25.223675,12.3146639 C24.4175825,12.4386538 23.6636614,11.8853127 23.5397451,11.0787419
                C22.7923878,6.21419958 20.4334537,2.9551613 18.1081288,2.9551613 C15.1077897,2.9551613
                12.1028821,8.18092799 12.4359038,14.1577924 C12.6940615,18.7910458 14.0539359,21.4519373
                17.1006841,24.2652421 Z M22.4466089,20.3064679 C22.6665201,19.5206489 23.4814477,19.0619957
                24.2668007,19.2820373 C25.0521537,19.5020789 25.510535,20.31749 25.2906239,21.103309
                C24.0465966,25.5486519 21.8579742,28.5698558 17.3568543,31.2966476 C10.9767621,35.1617266
                3.05853922,34.8976292 0.67084603,30.4054783 C-1.32553473,26.6488088 1.28685744,21.508032
                6.47729273,17.78281 C7.14000135,17.3071781 8.06258012,17.4591525 8.53793002,18.1222544
                C9.01327991,18.7853563 8.86139558,19.7084824 8.19868696,20.1841144 C4.06078388,23.1539246 2.15508432,26.9040414 3.2784645,29.0179508 C4.68710284,31.6681306 10.7095837,31.868999 15.8272374,28.7687092 C19.6648866,26.4438499 21.3989468,24.0501297 22.4466089,20.3064679 Z" id="Combined-Shape" fill="url(#linearGradient-1)"></path>
            </g>
        </g>
    </g>
</svg>