<svg xmlns="http://www.w3.org/2000/svg" viewBox="0 0 316.82 60.23"><defs><style>.cls-1{fill:#ffe400;}.cls-2{fill:#000008;}.cls-3{fill:#181716;}</style></defs><title>00Ресурс 1</title><g id="Слой_2" data-name="Слой 2"><g id="Layer_1" data-name="Layer 1"><path class="cls-1" d="M9.41,11.58H0V48.65H9.41a18.54,18.54,0,0,0,0-37.07"/><path class="cls-2" d="M9.41.47H0V11.58H9.41a18.54,18.54,0,0,1,0,37.07H0V59.76H9.41c16.36,0,30-12,30-29.65C39.41,12.23,25.77.47,9.41.47m24,48.18V59.76H44.53V48.65ZM144.58,30.11,166.37,8.33V.47h-8.22L132.67,25.94V.47H33.47V11.58H54.36V59.76H66V11.58H87a29.54,29.54,0,0,0-6.14,18.53c0,17.65,13.63,29.65,30,29.65h21.8V34.28l25.48,25.48h16.08ZM121,48.65H110.87A18.55,18.55,0,0,1,93.14,35.49h16.45V24.73H93.14a18.55,18.55,0,0,1,17.73-13.15H121Z"/><path class="cls-3" d="M216.88,6l-.13-2.6H208.4v7.34l9.62,0v2H208.4V20.3h9.23l.26-2.92,2,.13-.13,4.91H203.21l-.13-2,2.6-.1V3.22L203,3.12l.13-1.82h13.52L219,1.17V6Z"/><path class="cls-3" d="M222.57,22.42l-.13-2,1.95-.1V8.22l-1.92-.1.1-1.95H227v6.92h8.64V7.83L234,7.73V6.17h6V8.12l-1.78.1V20.5l2,.1-.13,1.82h-4.42V15H227v5.75l1.69.06-.1,1.6Z"/><path class="cls-3" d="M245.21,14.78c.2,4.13,2.34,6.11,5.69,6.11a6.22,6.22,0,0,0,4.87-2.14L257,20.08a7.32,7.32,0,0,1-6.18,2.79c-5,0-8.22-3-8.22-8.61s3.09-8.54,7.77-8.54c4.35,0,6.79,2.3,6.79,7.05a5.48,5.48,0,0,1-.39,2Zm0-1.79h9.51s0-.42,0-.74c0-3.06-1.47-4.61-4.39-4.61C247.23,7.64,245.54,9.62,245.25,13Z"/><path class="cls-3" d="M259.41,30.54l-.13-1.95,2-.1V8.22l-1.92-.1.1-1.95h4.09L263.73,8a6.59,6.59,0,0,1,5.43-2.27c4.41,0,7.31,2.69,7.31,7.79,0,5.33-2.64,9.36-7.67,9.36-3.48,0-5-1.56-5-1.56v7.31l1.95.1-.13,1.82ZM263.83,10v9.42a5.62,5.62,0,0,0,4.09,1.46c4.13,0,5.85-2.93,5.85-7.31s-2-5.85-5.52-5.85A5.17,5.17,0,0,0,263.83,10Z"/><path class="cls-3" d="M279,22.42l-.13-2,2-.1V8.22l-1.91-.1L279,6.17h10L290.86,6l0,5.59h-2l-.17-3.41h-5.26V20.5l2.08.1-.13,1.82Z"/><path class="cls-3" d="M292.94,22.42l-.13-2,1.95-.1V8.22l-1.92-.1.1-1.95h4.42V20.5l1.95.1-.13,1.82ZM296.06,3a1.79,1.79,0,0,1-1.17-.36,1.36,1.36,0,0,1-.46-1.1,1.47,1.47,0,0,1,.46-1.14A1.86,1.86,0,0,1,296,0a2,2,0,0,1,1.17.36,1.59,1.59,0,0,1,.46,1.14,1.58,1.58,0,0,1-.46,1.13A1.84,1.84,0,0,1,296.06,3Z"/><path class="cls-3" d="M312.27,22.42V16.18h-4l-2.63,4.87-1,1.37h-3.64l-.13-2,2.53-.07,2.6-4.64c-2.3-.78-4.06-2.57-4.06-4.84,0-3.22,2.31-4.75,6.86-4.75h7.92V8.12l-1.78.1V20.5l1.95.1-.13,1.82Zm-3.71-8h3.71V8H309c-3.09,0-4.58.81-4.58,3S306.13,14.46,308.56,14.42Z"/><path class="cls-3" d="M201.44,55.45l-.13-2,1.95-.1V41.25l-1.92-.09.1-1.95h8c4.8,0,6.2,1.49,6.2,4,0,1.94-1.49,3-2.89,3.67,1.92.45,3.61,1.52,3.61,3.54,0,2.76-1.63,5-7,5Zm8.55-9s3.18-.32,3.18-2.89c0-1.62-.84-2.57-3.74-2.57h-3.7v5.46Zm-4.26,1.33v5.88h3.57c3.81,0,4.52-1.75,4.52-3.41,0-1.46-1.17-2.47-4.06-2.47Z"/><path class="cls-3" d="M227.11,60.23,227,53.47h2.47c1.72-3.31,2.3-6.95,2.4-12.15l-2.7-.1.1-2H242.7V53.47h2.6l-.16,6.76h-2l-.26-4.78H229.12l-.23,4.78Zm4.67-6.76h8.35V41.19h-6.2C233.86,46.19,233.34,50,231.78,53.47Z"/><path class="cls-3" d="M247.05,55.45l-.13-2,2-.1V41.25L247,41.16l.09-1.95h4.42V53.53l1.95.1-.13,1.82ZM250.21,36a1.78,1.78,0,0,1-1.17-.36,1.36,1.36,0,0,1-.46-1.1,1.5,1.5,0,0,1,.46-1.14,1.92,1.92,0,0,1,1.13-.35,2.1,2.1,0,0,1,1.17.35,1.64,1.64,0,0,1,0,2.28A1.9,1.9,0,0,1,250.21,36Zm6.53-.16a1.39,1.39,0,0,1-1-.33,1.26,1.26,0,0,1-.42-1,1.36,1.36,0,0,1,.42-1,1.62,1.62,0,0,1,1-.32,1.71,1.71,0,0,1,1,.32,1.48,1.48,0,0,1,.42,1,1.37,1.37,0,0,1-.42,1A1.46,1.46,0,0,1,256.74,35.83Zm-.43,19.62-.13-2,1.95-.1V41.25l-1.91-.09.09-1.95h4.42V53.53l1.95.1-.13,1.82Zm6-19.62a1.37,1.37,0,0,1-.94-.33,1.26,1.26,0,0,1-.42-1,1.36,1.36,0,0,1,.42-1,1.59,1.59,0,0,1,.94-.32,1.74,1.74,0,0,1,1,.32,1.53,1.53,0,0,1,.42,1,1.41,1.41,0,0,1-.42,1A1.49,1.49,0,0,1,262.29,35.83Z"/></g></g></svg>