<svg width="163" height="177" viewBox="0 0 163 177" fill="none" xmlns="http://www.w3.org/2000/svg">
    <path d="M156.989 3.13366L156.795 3.61858L156.407 5.07335L156.213 6.43113L156.116 7.01303L155.437 8.07986L155.146 8.66177L155.049 9.34066L154.952 10.9894L154.758 11.5713L154.273 12.4442L152.818 13.8989L152.528 14.9658L152.818 19.1361L153.012 19.912L153.206 20.1059L155.534 20.8818L155.825 21.0758L157.086 22.3366L158.056 23.6944L158.638 24.3732L158.832 24.5672L159.122 25.3431L159.316 25.5371L159.607 25.634L161.256 25.828L161.547 25.925L161.644 26.119V26.5069L161.547 26.9918L161.45 27.4767L161.062 28.4466L160.771 28.8345L160.48 29.0285L159.316 29.3195L158.056 29.5134L157.377 29.4164L157.086 29.3195L156.892 29.2225L156.601 28.6406L156.31 28.2526H156.116L155.825 28.3496L155.631 28.6406L155.534 29.2225V32.035V32.423L155.437 32.9079L155.146 33.3928L154.467 34.1687V34.3626L154.758 34.5566L155.631 36.0114L155.728 36.9812L155.146 37.9511L152.14 39.0179L150.879 39.2119L150.103 39.5028L148.163 41.1516L147.581 41.5395L145.157 41.3455L144.09 41.6365L144.478 42.7033V43.3822L143.12 43.7701L142.538 44.9339L142.053 46.2917L140.986 46.9706L140.307 47.6495L139.338 49.2982L138.853 51.3349L139.144 53.1776L139.435 53.8565L140.017 55.7962L140.405 56.4751L140.792 57.057L143.702 59.9665V60.9364L142.829 62.1002L142.732 63.07L142.926 63.8459L143.12 64.1369L143.411 64.3308L143.702 64.4278L143.896 64.7188L143.993 65.1067L144.187 68.5981L144.381 68.9861L144.672 69.1801L145.06 69.568L145.254 69.8589V70.0529L145.157 70.3439L144.866 70.5378L143.993 70.8288L143.702 71.1197L143.605 71.6047L143.702 72.6715L143.799 73.2534L144.09 73.6413L145.157 74.6112L145.351 74.8051L145.545 75.2901L145.351 75.678L144.575 76.7448L144.381 76.8418L143.896 76.6479L142.247 75.775H142.053V75.969L142.538 77.7147V78.1026V78.4906L142.247 78.9755L141.956 79.1694L141.471 79.4604L141.374 79.8483L141.277 80.5272L141.568 81.885L141.762 82.4669L142.053 82.8549L142.441 83.2428V83.6307L142.053 84.2126L141.956 84.6006V85.0855L142.053 85.7644V86.7342L141.859 87.2192L141.665 87.5101L141.471 87.7041L140.889 87.995L139.823 88.189H139.144L138.465 87.995L138.271 87.8011L137.98 87.3161L137.592 86.2493L137.398 85.9584L137.204 85.7644L136.622 85.5704L136.331 85.6674L135.943 86.1523L135.555 86.9282V87.2192V87.7041L135.846 88.189L136.331 89.1588L136.525 89.7407L136.719 90.1287L136.913 90.3227H137.204H137.883L138.077 90.4196L138.271 90.6136L138.465 90.8076V91.1955V91.5835L138.271 92.3593L138.174 92.8442V93.3292L138.368 93.8141L138.562 94.105L139.241 94.687L139.435 94.9779V95.1719L139.144 95.8508L138.95 96.1417V96.6266L139.241 97.6935L139.338 97.9844L139.241 98.2754L139.047 98.6633L138.756 98.8573L137.301 99.6332L137.107 100.021V100.506L137.204 101.476L137.107 102.058L137.01 102.64L136.525 103.125L133.713 104.094L133.519 104.385L133.422 104.87V106.034L133.713 106.81L133.81 107.295L133.907 107.683L133.713 108.265L133.616 108.556L132.355 110.786L132.258 111.271L132.549 111.562L134.585 112.144L136.622 113.114L137.301 113.211L138.368 112.92H138.659L138.853 113.114L138.95 113.308L139.047 113.599L138.95 113.987L138.659 114.375L137.883 114.86L137.786 115.151L137.883 115.442L138.368 115.927L138.853 116.314L140.017 116.896L142.829 117.478H143.12L143.314 117.284L143.508 117.09L144.575 114.666L144.769 114.472H145.06L145.739 114.666L146.321 114.957L146.515 115.151L146.611 115.539L146.127 116.508L145.351 118.06L144.769 118.642L143.896 119.612L143.799 119.806V120.485L143.993 120.873L144.187 121.164L145.254 122.134L145.448 122.424L145.545 122.909L145.351 123.782V125.722V126.692L145.254 127.177L145.157 127.759L144.672 128.535L144.284 128.728L143.993 128.922L143.799 129.019L143.605 129.31L143.411 129.795L142.15 134.645L142.053 135.517V137.069V137.942L142.247 138.621L142.344 139.009L142.926 139.591L143.605 140.173L143.993 140.367L144.284 140.561L144.478 140.949V141.53L144.284 142.112L143.896 142.694L143.411 143.082L143.023 143.373L142.732 143.761L142.538 144.343L142.344 145.216V146.574L142.247 146.865L142.15 147.253L141.762 147.64L141.18 147.931L140.986 148.222L140.889 148.513L140.986 149.095L141.18 150.065V150.453L141.083 151.52L140.598 153.46L138.756 158.794L136.719 162.77L135.943 163.74L134.682 164.322L134.003 164.71L133.713 165.098L133.422 165.486L133.131 166.455L132.84 166.746L132.549 166.94L131.676 167.231L130.415 168.007L130.124 168.395L129.833 168.783L129.542 169.656L129.251 170.432L128.96 170.723L128.669 170.917L128.184 171.111L126.245 171.305L125.372 171.499L120.814 174.02H118.874L118.583 173.923L118.389 173.438L118.098 173.244H117.613L115.479 173.632L110.048 173.438L108.788 173.05L108.594 172.759L108.303 172.274L108.109 171.79L107.915 170.917L107.721 170.335L107.43 169.947L107.139 169.85H106.751H105.975L105.587 169.947L103.938 171.111L103.647 171.208L103.453 171.111L103.066 170.626L102.581 170.044L102.387 169.85L101.999 169.753L100.641 169.85L97.2464 171.402L96.8585 171.79L96.4706 172.178L95.4037 174.02L94.8218 174.699L94.2399 175.087L93.755 175.281H93.464L93.1731 175.184L92.7851 174.796L92.4942 174.699H89.2937L85.9962 172.759L85.7053 172.371L85.4143 171.887L85.7053 171.499L86.4811 170.723L86.5782 170.432V170.044L86.4811 169.85L86.1902 169.656L85.6083 169.559L84.9294 169.656H84.5415L84.0565 169.559L83.2807 169.171L82.8928 168.88L82.6018 168.589L82.4078 168.104L82.3108 167.522V166.746L82.2139 166.164L82.0199 165.874L81.8259 165.68L80.5651 164.613L80.3711 164.128V163.74L80.4681 163.449L80.7591 162.964L81.341 162.091L81.535 161.994L81.8259 161.897L82.9897 162.091L83.2807 161.897L83.4746 161.703L83.5716 161.121L83.6686 159.957L83.5716 158.794L83.2807 158.309L82.9897 158.018H80.7591L80.0802 157.921L79.7892 157.824L79.3043 157.436L78.8194 156.854L76.8797 154.235L76.2008 153.75L74.6491 152.199L74.0671 151.811L73.5822 151.617L72.4184 151.714L71.3516 152.102L70.8667 152.393L70.7697 152.684L70.6727 153.557L70.5757 153.847L70.2848 154.235L70.1878 154.526V154.817V155.399V155.593L69.9938 155.787L69.5089 155.981L69.3149 156.175L68.636 157.145L68.2481 157.63L68.0541 157.727H67.6662L65.5325 157.533L64.9506 157.63L64.4657 157.921L64.0778 158.309L63.7868 158.794L63.5928 158.988L63.3019 159.085L62.72 159.182L62.429 159.279L62.0411 159.57L61.4592 160.248L61.2652 160.442L61.0713 160.636H60.7803L60.0044 160.539L59.7135 160.636L59.5195 160.733L59.0346 161.121L58.5496 161.315H58.2587L54.9612 160.539L54.4763 160.636L54.0884 160.927L53.5064 161.606L52.9246 162.091L48.7542 161.024L47.6874 160.927H46.9115L46.6206 161.121L46.3296 161.218L45.7477 161.412L45.3598 161.218L45.0688 161.121L44.5839 160.733L44.099 160.539H43.5171L43.1291 160.442L42.8382 160.345L42.6442 160.151L42.3533 159.667L42.1593 159.182L42.2563 158.018L42.1593 157.63L41.9653 157.242L41.6744 157.048L41.2864 156.951L40.2196 157.048L39.9286 156.854L39.6377 156.66L38.0859 155.108L37.795 154.623L37.698 154.332L37.795 154.041L37.892 153.363L38.0859 153.072L38.2799 152.975L38.8618 153.072L39.0558 152.975L39.2497 152.781L39.6377 152.296L39.8317 151.714L39.9286 151.326V150.647L39.8317 149.774L39.5407 148.61L39.3467 148.125L39.1528 147.64L38.7648 147.156L38.0859 146.38L36.8251 145.313L36.6312 145.022V144.246V143.858L36.4372 143.664L36.0493 143.567L35.2734 143.47L34.4975 143.373L34.2066 143.179L34.0126 142.888V142.597L34.2066 141.918L34.3035 141.627L34.2066 141.336L33.8186 140.852L33.3337 140.173L33.1397 139.688L32.9458 139.397L32.5578 139.3H32.2669L31.782 139.591L31.2001 140.076L30.9091 140.173L30.3272 140.367H29.7453L26.8358 140.173H26.1569L25.5749 140.367L24.7991 141.142L24.4111 141.239L23.7322 141.142L21.2106 140.464L20.9197 140.561L20.7257 140.658L20.3378 141.53L20.0468 141.724L19.7559 141.918L19.271 142.015L18.98 141.918L18.786 141.724L18.3981 141.239L18.1072 140.852L17.5252 140.27L17.0403 140.076L16.6524 139.979L15.1006 140.464H14.5187L14.2278 140.27L14.0338 140.076V139.688L14.2278 139.203L15.0036 137.845L15.4886 136.681L15.8765 135.711L15.9735 135.032L16.2645 133.19V132.996L16.0705 132.608L15.5856 132.123L13.8398 130.765L13.3549 130.474L10.4454 129.407L9.96047 129.116L9.57251 128.825L9.47555 128.535L9.37856 127.953V127.274L9.47555 126.886L9.76649 125.431L10.0574 123.976V123.297L9.96047 122.618L9.76649 121.746L9.57251 121.261L9.28157 120.873L7.92379 119.612L7.43887 119.321L6.95395 119.224H6.66298H6.17806L5.49918 119.03L4.91727 118.545L4.23837 118.157H3.94743L3.75345 118.351L3.26852 118.739L2.97758 118.933H2.39567L2.10473 118.739L2.00774 118.545L1.91075 118.157L1.7168 115.636L1.81376 110.398L1.91075 109.623L2.88059 104.87L2.97758 104.191L2.88059 103.513L2.7836 102.931L2.10473 101.282L2.00774 100.797L2.10473 100.409L2.29868 100.215L2.58965 100.118L3.65649 100.215H3.94743L4.14141 100.021L4.23837 99.8271L4.33536 99.5362L4.23837 98.8573V98.7603L4.33536 96.7236L4.43235 96.5297L5.40219 94.8809L5.49918 93.6201L7.1479 92.4563L8.69966 90.8076L8.40872 88.383L9.08759 88.092L8.99063 87.7041L8.60267 87.2192L8.40872 86.7342L7.8268 84.3096L7.63282 83.7277L6.95395 83.2428L6.37204 83.1458L5.98411 82.9518L5.79012 81.982L5.88711 80.8182L6.27505 80.2363L6.85696 80.0423L7.63282 80.2363V79.5574L7.05094 79.3634L6.46903 78.9755L5.98411 78.2966L5.79012 77.2298L6.0811 76.5509L5.88711 75.872L5.3052 75.2901L4.62633 74.8051L5.11125 74.4172L5.40219 74.0293L5.79012 73.0594L4.91727 72.6715L3.07457 72.0896L2.49266 71.3137V70.7318L3.17156 70.2469L3.55949 70.1499V69.568L3.07457 69.277L2.10473 68.4042V67.7253L3.65649 66.3675L4.33536 66.0765L4.14141 65.2037L3.94743 64.8158L4.23837 64.6218L4.62633 63.9429L5.01426 63.6519L4.72329 62.3911L5.3052 60.5484L5.01426 59.3846L5.69313 59.1907H7.34188L7.92379 58.8997L8.31173 58.0268V56.96L8.50571 55.9902L9.08759 55.3113V54.7294L8.69966 54.6324L7.63282 54.0505L8.21473 53.3716L9.47555 52.5957L10.4454 51.5289L10.3484 50.1711L9.96047 49.3952V49.0073L10.1544 48.8133L10.5424 48.1344L11.7062 46.5827L11.8032 46.2917L12.1911 46.0978L12.3851 45.5159L12.773 44.9339L13.8398 44.352L14.0338 43.5762V42.8003L14.2278 42.2184L14.7127 42.1214L16.2645 42.2184L16.7494 42.0244L17.2343 41.4425L17.9132 40.4727V39.8908L17.6222 39.5028L17.5252 38.9209V38.63L19.077 38.048L19.8529 37.5631L20.4348 36.9812L21.1137 36.3993L21.5986 35.6234V34.8476L21.6956 34.3626L22.0835 33.7807L22.5684 33.4898L22.8594 33.2958L23.1503 33.4898L23.5383 33.9747L24.9931 33.8777L25.381 32.7139L24.8961 31.5501L23.3443 31.3561L23.5383 30.9682L23.8292 30.0953L24.0232 29.6104L23.7322 28.1556L24.6051 27.2828L25.9629 26.7979L33.2367 26.4099L35.3704 26.6039L36.6312 27.3798L39.1528 29.5134L40.4136 29.9983L41.6744 29.4164L42.5472 27.9617L43.3231 26.216L44.4869 24.8582L48.6572 23.0155H53.6035L63.011 24.8582L69.121 24.5672L72.4184 24.2763L74.1642 24.5672L75.4249 25.828L75.7159 27.1858L75.8129 28.8345L76.0068 30.1923L76.9767 30.7742L77.8496 30.5802L80.7591 29.1255L82.6988 28.9315L85.8993 29.8044H86.9661L94.3369 26.3129L96.6645 24.3732L98.3132 20.9788L98.8952 15.7416L99.3801 14.1899L99.962 13.608L100.641 13.22L101.223 12.7351L101.514 11.6683L101.32 10.9894L100.253 9.14669L100.059 8.17685L100.738 5.17033L102.968 4.68541L107.624 6.43113L110.145 5.65525L120.717 11.2803H122.365L125.566 10.4075H127.118L127.991 10.7954L129.639 12.1532L130.609 12.2502L131.579 11.7653L137.107 6.72208L138.077 6.23716L138.562 6.33414L139.241 6.72208L139.726 6.52811L140.211 6.14017L140.792 4.87938L141.374 4.58842L142.344 4.20049L143.023 3.5216L144.478 1.77588L145.351 1.19397L146.03 1L151.267 2.06683L154.758 1.96984L155.728 2.16381L156.989 3.13366V3.13366Z" fill="#FFE300" stroke="white" stroke-width="2" stroke-linecap="round" stroke-linejoin="round"/>
</svg>
