<svg width="170" height="120" viewBox="0 0 170 120" fill="none" xmlns="http://www.w3.org/2000/svg">
<path d="M53.2115 57.3296C52.6828 60.3615 51.9275 63.2418 51.0967 66.1979C50.2658 69.1541 49.3595 72.0344 48.2266 74.8389C48.7553 71.807 49.5105 68.9267 50.3414 65.9706C51.1722 63.0902 52.0785 60.1341 53.2115 57.3296Z" fill="#F9DD4A"/>
<path d="M59.1028 69.6088C56.1572 68.6992 53.3626 67.5622 50.5681 66.4253C47.7735 65.2125 44.979 63.9997 42.3354 62.5596C45.2811 63.4691 48.0756 64.6061 50.8702 65.7431C53.6648 66.9558 56.3838 68.1686 59.1028 69.6088Z" fill="#F9DD4A"/>
<path d="M57.2903 63.8481C55.1755 64.9093 52.9851 65.6673 50.7948 66.4253C48.6045 67.1833 46.3386 67.8654 44.0728 68.3202C46.1876 67.2591 48.3779 66.5011 50.5682 65.7431C52.7586 64.9851 55.0244 64.3029 57.2903 63.8481Z" fill="#F9DD4A"/>
<path d="M48.2266 59.6792C49.3595 61.7257 50.1903 63.7723 51.0211 65.8946C51.8519 68.017 52.6072 70.1393 53.1359 72.4132C52.003 70.3667 51.1722 68.3202 50.3414 66.1978C49.5105 64.0755 48.7553 61.9531 48.2266 59.6792Z" fill="#F9DD4A"/>
<path d="M89.7672 12.0786C89.3896 13.822 89.0119 15.5653 88.5588 17.3087C88.1056 19.052 87.6524 20.7954 87.1992 22.4629C86.6705 24.2063 86.2174 25.8738 85.6131 27.6172L84.7823 30.1943C84.4802 31.0281 84.1781 31.8619 83.876 32.6956C84.027 31.7861 84.2536 30.9523 84.4047 30.0427L85.0089 27.4656C85.4621 25.7222 85.9153 23.9789 86.3684 22.3113C86.8971 20.568 87.3503 18.9004 87.9545 17.1571C88.5588 15.4895 89.0875 13.7462 89.7672 12.0786Z" fill="#F9DD4A"/>
<path d="M96.6406 26.5559C94.9034 26.0253 93.2418 25.4189 91.5801 24.7368C89.9185 24.1304 88.2569 23.4482 86.5952 22.766C84.9336 22.0838 83.3475 21.4017 81.6859 20.6437L79.269 19.5067C78.4382 19.1277 77.6829 18.7487 76.8521 18.2939C77.6829 18.5971 78.5137 18.9003 79.42 19.1277L81.9125 20.0373C83.5741 20.6437 85.2357 21.3259 86.8974 22.008C88.559 22.6902 90.1451 23.3724 91.8067 24.1304C93.4684 24.9642 95.0545 25.7221 96.6406 26.5559Z" fill="#F9DD4A"/>
<path d="M94.5259 19.8101C92.0334 20.947 89.4654 21.9324 86.8975 22.7662C84.3295 23.6 81.686 24.4337 79.0425 25.0401C81.5349 23.9031 84.1029 22.9178 86.6709 22.084C89.2389 21.1744 91.8824 20.3406 94.5259 19.8101Z" fill="#F9DD4A"/>
<path d="M83.876 14.8833C85.16 17.3088 86.1418 19.7344 87.1237 22.2357C88.1056 24.737 89.0119 27.2384 89.6917 29.8913C88.4077 27.4658 87.4258 25.0402 86.444 22.5389C85.4621 20.0376 84.5557 17.5362 83.876 14.8833Z" fill="#F9DD4A"/>
<path d="M130.855 32.5439C130.478 34.8937 129.873 37.2434 129.269 39.5173C128.589 41.7913 127.91 44.0652 126.928 46.2634C127.305 43.9136 127.91 41.5639 128.514 39.29C129.194 37.016 129.949 34.7421 130.855 32.5439Z" fill="#F9DD4A"/>
<path d="M135.462 42.1705C133.196 41.5641 130.931 40.6545 128.74 39.7449C126.55 38.8353 124.435 37.85 122.32 36.6372C124.586 37.2436 126.852 38.1532 129.042 39.0627C131.233 39.9723 133.423 40.9577 135.462 42.1705Z" fill="#F9DD4A"/>
<path d="M134.103 37.6982C132.517 38.532 130.78 39.2142 129.042 39.8206C127.305 40.427 125.568 40.8818 123.755 41.1849C125.341 40.3512 127.079 39.669 128.816 39.0626C130.553 38.4562 132.29 37.9256 134.103 37.6982Z" fill="#F9DD4A"/>
<path d="M127.003 34.439C127.909 35.9549 128.665 37.6225 129.269 39.29C129.873 40.9576 130.477 42.6251 130.855 44.4443C129.949 42.9283 129.193 41.2608 128.589 39.5932C127.909 37.8499 127.381 36.1823 127.003 34.439Z" fill="#F9DD4A"/>
<path d="M110.991 37.3191V37.0159V36.8643C110.991 36.8643 110.915 36.8643 110.915 36.7885C110.84 36.7885 110.915 36.7127 110.915 36.7127V36.1821C110.915 35.8031 110.991 35.4241 110.991 35.1209C111.066 34.3629 111.142 33.6808 111.293 32.9986C111.52 31.5584 111.897 30.1183 112.275 28.7539C113.181 25.9494 114.465 23.3722 116.202 20.9467C117.864 18.597 119.979 16.4746 122.396 14.8071C123.604 13.9733 124.888 13.2153 126.248 12.7605C126.927 12.5332 127.683 12.3058 128.438 12.23C129.193 12.1542 130.024 12.23 130.779 12.7605C131.912 13.8975 133.045 15.1103 133.498 16.7778C133.725 17.6116 133.725 18.5212 133.498 19.2792C133.272 20.1129 132.743 20.7951 132.214 21.4015C131.912 21.7047 131.61 22.0079 131.233 22.1595C130.855 22.3869 130.326 22.4627 129.873 22.3869C129.42 22.3111 128.967 22.0837 128.665 21.7805C128.363 21.4773 128.136 21.0983 127.909 20.7193C127.154 19.2034 126.927 17.5358 127.079 15.9441C127.154 15.1103 127.305 14.3523 127.683 13.5943C127.985 12.8363 128.589 12.1542 129.193 11.6994C130.402 10.6382 131.837 9.88023 133.347 9.27384C134.858 8.66746 136.369 8.28847 137.955 8.06108C139.541 7.83368 141.127 7.75789 142.713 8.13687L142.637 8.44007C141.127 8.06108 139.541 8.13687 138.03 8.36427C136.52 8.59166 135.009 9.04645 133.574 9.65283C132.139 10.2592 130.779 11.0172 129.647 12.0026C129.042 12.5332 128.589 13.0637 128.287 13.7459C127.985 14.4281 127.834 15.1861 127.758 15.9441C127.683 17.46 127.909 19.0518 128.589 20.3403C128.967 20.9467 129.495 21.5531 130.1 21.6289C130.704 21.7047 131.384 21.3257 131.837 20.7951C132.366 20.2645 132.743 19.6582 132.97 18.9002C133.196 18.218 133.196 17.46 132.97 16.7778C132.592 15.3377 131.535 14.1249 130.477 13.0637C130.024 12.6847 129.344 12.6089 128.665 12.6847C127.985 12.7605 127.305 12.9121 126.625 13.1395C125.341 13.5943 124.057 14.2765 122.849 15.1103C120.508 16.702 118.468 18.7486 116.807 21.0983C115.145 23.3722 113.785 25.9494 112.804 28.6781C112.35 30.0425 111.973 31.4068 111.746 32.847C111.595 33.5292 111.52 34.2871 111.444 34.9693C111.369 35.3483 111.369 35.6515 111.369 36.0305V36.5611V36.6369H111.293V36.7885L110.991 37.3191Z" fill="#A4E8A0"/>
<path d="M54.571 53.6157V53.3125V53.1609H54.4955C54.4199 53.1609 54.4955 53.0851 54.4955 53.0851V52.5545C54.4955 52.1755 54.4199 51.8723 54.4199 51.4934C54.3444 50.8112 54.2689 50.0532 54.1178 49.371C53.8912 47.9309 53.5136 46.5665 53.0604 45.2021C52.1541 42.4734 50.7946 39.8963 49.0574 37.6224C47.3958 35.3484 45.3565 33.3019 43.0151 31.6343C41.8066 30.8005 40.5982 30.1184 39.2387 29.6636C38.5589 29.4362 37.8792 29.2846 37.1994 29.2088C36.5196 29.133 35.8399 29.2846 35.3867 29.5878C34.3293 30.6489 33.2719 31.8617 32.8943 33.3019C32.6677 33.9841 32.6677 34.742 32.8943 35.4242C33.1208 36.1064 33.4985 36.7128 34.0272 37.3192C34.5559 37.8497 35.1601 38.2287 35.7643 38.1529C36.3686 38.0771 36.8973 37.4708 37.2749 36.8644C37.9547 35.5758 38.2568 33.9841 38.1057 32.4681C38.0302 31.7101 37.8792 30.9521 37.577 30.27C37.2749 29.5878 36.8218 29.0572 36.2175 28.5266C35.0846 27.5412 33.6495 26.7833 32.29 26.1769C30.855 25.5705 29.3444 25.1157 27.8338 24.8883C26.3233 24.6609 24.7372 24.5851 23.2266 24.9641L23 24.5851C24.5861 24.2061 26.1722 24.2819 27.7583 24.5093C29.3444 24.7367 30.855 25.1915 32.3656 25.7221C33.8006 26.3285 35.2356 27.0864 36.5196 28.1476C37.1239 28.6782 37.7281 29.2846 38.0302 30.0426C38.4079 30.8005 38.5589 31.6343 38.6344 32.3923C38.7855 33.9841 38.5589 35.6516 37.8036 37.1676C37.577 37.5466 37.3505 37.9255 37.0483 38.2287C36.7462 38.5319 36.2931 38.7593 35.8399 38.8351C35.3867 38.9109 34.858 38.7593 34.4804 38.6077C34.1027 38.3803 33.7251 38.1529 33.4985 37.8497C32.8943 37.2434 32.4411 36.4854 32.2145 35.7274C31.9879 34.8936 31.9879 33.9841 32.2145 33.2261C32.6677 31.5585 33.8006 30.27 34.9335 29.2088C35.6133 28.6782 36.5196 28.6024 37.2749 28.6782C38.0302 28.754 38.7855 28.9056 39.4653 29.2088C40.8248 29.7394 42.1843 30.4216 43.3172 31.2553C45.7341 32.9229 47.7734 35.0452 49.5106 37.395C51.1722 39.7447 52.5317 42.3976 53.4381 45.2021C53.8912 46.5665 54.1934 48.0067 54.4199 49.4468C54.571 50.129 54.6465 50.887 54.7221 51.5692C54.7221 51.9481 54.7976 52.3271 54.7976 52.6303V53.1609V53.2367C54.7976 53.2367 54.7221 53.2367 54.7221 53.3125V53.4641L54.571 53.6157Z" fill="#A4E8A0"/>
<path d="M133.045 82.8737C137.091 82.8737 140.371 79.582 140.371 75.5213C140.371 71.4607 137.091 68.1689 133.045 68.1689C128.999 68.1689 125.719 71.4607 125.719 75.5213C125.719 79.582 128.999 82.8737 133.045 82.8737Z" stroke="#A4E8A0" stroke-miterlimit="10"/>
<path d="M110.538 80.6848L94.677 98.8005C94.6014 98.9521 94.5259 99.1037 94.6014 99.4069V100.165V101.605V104.485V110.246V111.686C94.6014 111.913 94.6014 112.217 94.4504 112.52C94.2993 112.823 94.0727 112.975 93.8461 113.126L91.5048 114.87L86.8975 118.281L85.7646 119.114L85.4625 119.342C85.3869 119.417 85.2359 119.493 85.1603 119.569C84.8582 119.721 84.5561 119.796 84.254 119.645C83.9519 119.569 83.6498 119.417 83.4987 119.114C83.2721 118.887 83.2721 118.508 83.2721 118.281V116.84V111.08V105.319V102.439V100.999V100.241V100.089C83.2721 100.013 83.2721 100.013 83.2721 99.9374C83.2721 99.8616 83.1966 99.7858 83.1966 99.71V99.7858C80.8552 96.6781 78.5138 93.5704 76.1724 90.3869C73.831 87.2034 71.5652 84.0957 69.2993 80.9122V80.8364H69.3748C71.7918 83.8683 74.2842 86.976 76.6256 90.0079C79.0425 93.1156 81.4594 96.1475 83.8008 99.2553C83.8764 99.4069 83.9519 99.5584 83.9519 99.71C83.9519 99.7858 83.9519 99.8616 83.9519 99.9374V100.089V100.847V102.287V105.167V110.928V116.689V118.129C83.9519 118.508 84.1029 118.811 84.4806 118.887C84.6316 118.963 84.7827 118.887 84.9338 118.811C85.0093 118.811 85.0848 118.735 85.1603 118.66L85.4625 118.432L86.5954 117.598L91.2782 114.187L93.6196 112.52C94.0727 112.217 94.1483 112.065 94.1483 111.535V110.094V104.334V101.453V100.013V99.2553C94.1483 99.0279 94.1483 98.7247 94.2993 98.4215L110.538 80.6848C110.462 80.609 110.462 80.609 110.538 80.6848C110.538 80.609 110.538 80.609 110.538 80.6848Z" fill="#2E3748"/>
<path d="M110.613 79.927C110.613 77.3499 101.323 75.2275 89.7675 75.2275C78.2116 75.2275 68.9971 77.3499 68.9971 79.927C68.9971 80.2302 69.1481 80.5334 69.3747 80.7608H69.2992L83.4231 99.4071C83.4986 99.5586 83.5741 99.7102 83.5741 99.9376V118.281C83.5741 119.115 84.4805 119.569 85.1602 119.114L93.9215 112.672C94.1481 112.444 94.2992 112.141 94.2992 111.838V99.1039C94.2992 98.9523 94.3747 98.7249 94.4502 98.5733L110.462 80.6092H110.387C110.538 80.3818 110.613 80.1544 110.613 79.927Z" fill="#F9DD4A"/>
<path d="M110.689 79.9269C110.689 80.3816 110.387 80.8364 110.009 81.1396C109.631 81.4428 109.254 81.6702 108.801 81.8976C107.97 82.2766 107.063 82.5798 106.233 82.883C104.495 83.4136 102.683 83.7168 100.795 84.0199C97.1691 84.5505 93.4682 84.7779 89.7673 84.8537C86.0664 84.8537 82.3655 84.7021 78.7401 84.1715C76.9275 83.9441 75.1148 83.5652 73.3021 83.1104C72.3957 82.883 71.4894 82.5798 70.6586 82.125C70.2054 81.8976 69.8278 81.6702 69.4501 81.367C69.0725 81.0638 68.6948 80.609 68.6948 80.0027C68.6948 79.3963 69.0725 78.9415 69.4501 78.5625C69.8278 78.2593 70.2809 77.9561 70.6586 77.8045C71.4894 77.3497 72.3957 77.0465 73.3021 76.8191C75.1148 76.2886 76.9275 75.9854 78.7401 75.6822C82.441 75.1516 86.142 75 89.7673 75C93.4682 75.0758 97.1691 75.3032 100.795 75.9096C102.607 76.2128 104.42 76.5918 106.233 77.1223C107.139 77.4255 107.97 77.6529 108.801 78.1077C109.178 78.3351 109.631 78.5625 109.933 78.8657C110.387 79.0173 110.689 79.3963 110.689 79.9269ZM110.613 79.9269C110.613 79.4721 110.311 79.0931 109.933 78.7899C109.556 78.4867 109.178 78.2593 108.801 78.1077C107.97 77.7287 107.139 77.4255 106.233 77.1981C104.495 76.7434 102.607 76.4402 100.795 76.2128C97.1691 75.8338 93.4682 75.6822 89.8429 75.6822C86.1419 75.6822 82.5166 75.9096 78.8912 76.3644C77.0785 76.5918 75.2658 76.8949 73.5287 77.4255C72.6223 77.6529 71.7915 77.9561 70.9607 78.3351C70.583 78.5625 70.2054 78.7141 69.8278 79.0173C69.5256 79.3205 69.2991 79.6237 69.2991 79.9269C69.2991 80.2301 69.5256 80.609 69.8278 80.8364C70.1299 81.1396 70.5075 81.367 70.9607 81.5186C71.7915 81.8976 72.6223 82.2008 73.5287 82.504C75.2658 83.0346 77.0785 83.3378 78.8912 83.641C82.5166 84.1715 86.2175 84.3989 89.8429 84.3989C93.5438 84.3989 97.1691 84.2473 100.87 83.7926C102.683 83.5652 104.495 83.262 106.308 82.7314C107.214 82.504 108.045 82.2008 108.876 81.746C109.254 81.5186 109.707 81.2912 110.009 80.988C110.311 80.7606 110.613 80.3816 110.613 79.9269Z" fill="#2E3748"/>
<path d="M99.3595 89.5534C99.3595 89.7808 99.2084 90.0082 99.0573 90.1598C98.9063 90.3114 98.6797 90.463 98.4531 90.5388C97.9999 90.7662 97.6223 90.9178 97.1691 91.0694C96.2628 91.3726 95.3564 91.5242 94.4501 91.6758C92.5619 91.979 90.6737 92.1306 88.861 92.1306C86.9728 92.1306 85.0845 92.1306 83.1963 91.8274C82.29 91.6758 81.3081 91.4484 80.4018 91.1452C79.9486 90.9936 79.4954 90.7662 79.1178 90.5388C78.8912 90.3872 78.7401 90.2356 78.5135 90.084C78.3625 89.9324 78.2114 89.6292 78.2114 89.4019C78.2114 89.4019 78.2114 89.4019 78.287 89.4019C78.3625 89.8566 78.8157 90.084 79.2688 90.2356C79.722 90.3872 80.0996 90.5388 80.5528 90.6146C81.4592 90.842 82.3655 90.9936 83.2719 91.0694C85.0845 91.2968 86.9728 91.4484 88.7854 91.5242C90.6737 91.5242 92.4863 91.5242 94.3746 91.2968C95.2809 91.221 96.1873 91.0694 97.0936 90.842C97.5468 90.6904 97.9999 90.6146 98.3776 90.3872C98.7552 90.1598 99.2839 89.9324 99.2839 89.4777H99.3595C99.2839 89.4777 99.2839 89.4777 99.3595 89.5534C99.3595 89.4777 99.3595 89.4777 99.3595 89.5534Z" fill="#2E3748"/>
<path d="M124.479 56.1004C124.479 60.2173 122.428 63.7852 119.146 65.8436C118.326 66.3926 117.506 66.8042 116.548 67.0787C115.454 67.4904 114.224 67.6276 112.856 67.6276C111.489 67.6276 110.122 67.3532 108.891 66.9415C104.515 65.2947 100.413 60.9034 101.37 56.1004C103.558 45.8083 106.566 44.5732 112.856 44.5732C117.232 44.5732 120.787 45.1222 122.975 50.7485C123.796 52.3953 124.479 54.1792 124.479 56.1004Z" fill="#F9DD4A"/>
<path d="M107.934 52.8073C108.617 46.7692 115.318 44.1619 119.146 48.416C119.146 48.416 119.146 48.416 119.146 48.5532C122.155 51.9839 123.522 51.435 129.812 47.1809C133.504 44.7108 136.376 42.9268 140.068 43.613C143.486 44.1619 145.264 46.3575 146.358 48.6904C148.546 53.7679 145.811 59.6687 140.888 60.7665C139.931 60.9038 139.111 61.041 138.427 60.9038C136.513 60.6293 135.829 59.8059 133.504 62.0016C129.675 65.844 126.257 69.4119 121.471 66.9418C119.967 66.1184 118.463 65.4323 116.822 64.7461C108.344 61.4527 107.934 57.0614 107.934 57.0614C107.797 55.5518 107.797 54.0423 107.934 52.8073Z" fill="#373949"/>
<path d="M116.548 67.0796C115.454 67.4913 114.224 67.6285 112.856 67.6285C111.489 67.6285 110.122 67.354 108.891 66.9424V62.1394C105.336 61.1788 105.199 56.6502 105.609 53.494C105.746 52.2589 106.293 51.0239 107.113 50.2005C107.797 49.3771 108.754 48.8282 109.711 48.5538C110.122 48.4165 110.532 48.4165 110.942 48.2793C111.626 48.2793 112.173 48.2793 112.856 48.4165C112.993 48.4165 113.267 48.5538 113.403 48.691H113.54C115.044 49.5144 115.865 51.4356 116.275 53.3568C116.275 53.494 116.275 53.494 116.275 53.6312C116.412 54.1801 116.412 54.729 116.548 55.1407V55.278L116.412 58.0225L116.548 64.6095V67.0796Z" fill="#C18987"/>
<path d="M109.028 62.1398C109.028 62.1398 110.669 62.6887 112.993 61.1792C112.993 61.1792 111.626 63.9238 109.028 64.7471V62.1398Z" fill="#AD7777"/>
<path d="M116.138 54.3171C116.138 54.866 116.412 55.4149 116.959 55.4149C117.369 55.4149 117.779 55.0032 117.779 54.3171C117.779 53.7681 117.506 53.2192 116.959 53.2192C116.548 53.2192 116.138 53.7681 116.138 54.3171Z" fill="#BE9791"/>
<path d="M116.958 54.3173C116.958 54.4549 116.958 54.4549 117.095 54.4549C117.232 54.4549 117.232 54.4549 117.232 54.3173C117.232 54.1797 117.232 54.1797 117.095 54.1797C116.958 54.1797 116.958 54.3173 116.958 54.3173Z" fill="#A37975"/>
<path d="M109.028 62.1398C109.712 62.1398 110.395 61.8653 110.942 61.7281C111.626 61.5909 112.173 61.3164 112.993 61.1792C112.72 61.4537 112.446 61.7281 112.173 62.0026C111.899 62.277 111.489 62.4143 111.216 62.4143C110.805 62.5515 110.532 62.5515 110.122 62.5515C109.712 62.5515 109.301 62.4143 109.028 62.1398Z" fill="#383A4A"/>
<path d="M116.138 54.3171C116.138 54.866 116.412 55.4149 116.959 55.4149C117.369 55.4149 117.779 55.0032 117.779 54.3171C117.779 53.7681 117.506 53.2192 116.959 53.2192C116.548 53.2192 116.138 53.7681 116.138 54.3171Z" fill="#C18987"/>
<path d="M116.685 54.0425C116.685 54.0425 117.232 53.9052 117.232 54.3169C117.232 54.7286 116.822 54.5914 116.822 54.5914" stroke="#B57A77" stroke-width="0.4282" stroke-miterlimit="10" stroke-linecap="round"/>
<path d="M111.215 56.9238C110.942 57.7472 110.122 58.4333 109.301 58.4333C108.891 58.4333 108.481 58.2961 108.07 58.0217C107.934 57.8844 107.797 57.7472 107.524 57.61L107.113 57.1983C107.797 57.61 108.481 58.1589 109.301 58.1589C109.985 58.1589 110.669 57.61 111.215 56.9238Z" fill="#373949"/>
<path d="M109.438 51.9844C109.028 52.945 108.481 53.7683 107.934 54.4545V54.3173C108.207 54.5917 108.344 55.0034 108.617 55.2779C108.344 55.0034 108.07 54.7289 107.66 54.4545L107.523 54.3173V54.18C108.207 53.4939 108.754 52.8077 109.438 51.9844Z" fill="#373949"/>
<path d="M111.078 53.2191C111.078 53.4936 110.941 53.9053 110.941 54.1797C110.941 54.4542 111.078 54.8659 111.215 54.8659C111.352 55.0031 111.762 54.8659 111.899 54.5914C112.172 54.317 112.309 54.1797 112.582 53.9053H112.719V54.0425C112.582 54.317 112.309 54.5914 112.035 54.8659C111.762 55.1403 111.488 55.4148 110.941 55.1403C110.531 54.8659 110.531 54.4542 110.531 54.1797C110.531 53.768 110.668 53.4936 110.668 53.2191C110.941 53.0819 110.941 53.0819 111.078 53.2191C111.078 53.0819 111.078 53.0819 111.078 53.2191Z" fill="#373949"/>
<path d="M106.703 52.1211C106.703 52.3956 106.566 52.67 106.566 53.0817C106.566 53.3561 106.566 53.7678 106.703 53.7678C106.84 53.7678 107.113 53.6306 107.25 53.3562C107.387 53.0817 107.66 52.9445 107.797 52.67H107.934V52.8072C107.797 53.0817 107.66 53.3561 107.387 53.6306C107.113 53.9051 106.977 54.1795 106.43 54.0423C106.019 53.7678 106.156 53.3561 106.156 53.0817C106.156 52.8072 106.293 52.3956 106.43 52.1211C106.566 52.1211 106.703 52.1211 106.703 52.1211C106.84 52.1211 106.703 52.1211 106.703 52.1211Z" fill="#373949"/>
<path d="M116.548 46.6316C116.548 46.6316 109.575 51.709 107.113 50.1995C107.113 50.1995 109.575 44.5731 116.548 46.6316Z" fill="#373949"/>
<path d="M112.856 48.4154C112.856 48.4154 114.361 52.2578 116.412 53.3556L119.01 51.5716C119.147 50.8855 115.728 47.0431 112.856 48.4154Z" fill="#373949"/>
<path d="M68.1484 14.8492C67.769 22.0834 62.9633 28.1754 56.0077 29.4446C55.1224 29.5715 54.2372 29.6984 53.2255 29.6984C50.3167 29.6984 47.7874 28.9369 45.5111 27.5408C42.7288 25.764 39.5672 23.7334 38.429 20.5604C37.7967 19.0374 38.429 16.626 38.429 14.8492C38.429 10.661 40.1995 6.85348 42.8553 4.18824C43.4876 3.55366 44.2464 2.91908 45.0052 2.41141C46.1434 1.64991 47.408 1.01533 48.7992 0.634582C50.1903 0.253833 51.5814 0 53.099 0C61.4457 0 68.7807 3.80749 68.1484 14.8492Z" fill="#F9DD4A"/>
<path d="M46.1441 20.5616L34.8887 19.5463C34.8887 19.5463 37.1651 17.1349 37.9238 14.3427C38.5562 12.312 36.2798 8.88531 37.5445 6.60081C38.6826 4.44324 42.0972 4.9509 44.1207 3.68174C45.3853 2.92024 46.0176 0.381914 47.5352 0.254998C49.0528 0.128082 50.3175 1.77799 51.4557 2.03183C52.7203 2.28566 54.2379 1.77799 54.9967 2.28566C58.4113 4.1894 58.5377 7.48923 58.5377 7.48923L46.1441 20.5616Z" fill="#EF886C"/>
<path d="M56.0079 23.9871L56.1343 29.4445C55.2491 29.5714 54.3638 29.6983 53.3521 29.6983C50.4434 29.6983 47.9141 28.9368 45.6377 27.5408L45.7642 20.5604V18.4028L45.5112 14.5953V14.3415C45.6377 13.7069 45.6377 12.9454 45.7642 12.1839C45.7642 12.057 45.7642 11.9301 45.8906 11.8031C46.3965 9.1379 47.5347 6.47265 49.6846 5.45732C49.6846 5.45732 49.8111 5.45732 49.8111 5.33041C50.064 5.20349 50.3169 5.07657 50.5699 5.07657C51.4551 4.82274 52.3404 4.69582 53.2256 4.82274C55.2491 5.07657 57.1461 5.96499 58.5372 7.48798C59.6754 8.75714 60.4342 10.2801 60.5606 12.057C61.0665 16.3721 60.94 22.591 56.0079 23.9871Z" fill="#E09F9B"/>
<path d="M56.0088 23.9874C56.0088 23.9874 53.7324 24.8758 50.4443 22.7183C50.4443 22.7183 52.2149 26.3988 56.0088 27.7949V23.9874Z" fill="#CA7D7A"/>
<path d="M46.1436 13.1998C46.1436 14.0882 45.6377 14.7227 45.0054 14.7227C44.373 14.7227 43.8672 14.0882 43.8672 13.1998C43.8672 12.3113 44.373 11.6768 45.0054 11.6768C45.6377 11.6768 46.1436 12.3113 46.1436 13.1998Z" fill="#BE9791"/>
<path d="M45.0054 13.1991C45.0054 13.3261 44.8789 13.453 44.7524 13.453C44.626 13.453 44.4995 13.3261 44.4995 13.1991C44.4995 13.0722 44.626 12.9453 44.7524 12.9453C45.0054 13.0722 45.0054 13.0722 45.0054 13.1991Z" fill="#A37975"/>
<path d="M56.0088 23.9874C55.6294 24.2413 55.1236 24.3682 54.6177 24.3682C54.1118 24.3682 53.606 24.3682 53.1001 24.2413C52.5943 24.1143 52.0884 23.8605 51.709 23.6067L51.0767 23.2259C50.9502 23.099 50.6973 22.8452 50.5708 22.7183C51.5825 22.9721 52.4678 23.3528 53.353 23.6067C53.8589 23.7336 54.2383 23.8605 54.7442 23.9874C54.9971 23.9874 55.503 23.9874 56.0088 23.9874Z" fill="#383A4A"/>
<path d="M46.1436 13.1998C46.1436 14.0882 45.6377 14.7227 45.0054 14.7227C44.373 14.7227 43.8672 14.0882 43.8672 13.1998C43.8672 12.3113 44.373 11.6768 45.0054 11.6768C45.6377 11.6768 46.1436 12.3113 46.1436 13.1998Z" fill="#E09F9B"/>
<path d="M45.3858 12.8183C45.3858 12.8183 44.7534 12.6914 44.627 13.199C44.627 13.7067 45.2593 13.7067 45.2593 13.7067" stroke="#B57A77" stroke-width="0.4282" stroke-miterlimit="10" stroke-linecap="round"/>
<path d="M52.9736 16.7529C53.606 17.6413 54.6177 18.4028 55.6294 18.4028C56.1353 18.4028 56.6411 18.149 57.147 18.0221C57.6529 17.7683 58.0323 17.3875 58.5381 17.1337L57.9058 17.7683C57.6529 17.8952 57.3999 18.149 57.2735 18.2759C56.7676 18.5298 56.2617 18.7836 55.6294 18.7836C54.9971 18.7836 54.3648 18.5298 53.9854 18.149C53.606 17.7683 53.2266 17.2606 52.9736 16.7529Z" fill="#373949"/>
<path d="M55.3765 10.0269C56.2617 11.0422 57.0205 12.1844 57.7793 13.3267V13.4536C57.3999 13.8343 57.0205 14.2151 56.6411 14.5958C56.8941 14.0882 57.2734 13.7074 57.6528 13.1998V13.3267C56.7676 12.3113 56.0088 11.1691 55.3765 10.0269Z" fill="#373949"/>
<path d="M53.3526 11.4224C53.479 11.8031 53.6055 12.3108 53.6055 12.8184C53.6055 13.3261 53.6055 13.8338 53.0996 14.2145C52.5938 14.4684 52.0879 14.0876 51.7085 13.8338C51.3291 13.453 51.0762 13.1992 50.8232 12.6915V12.5646H50.9497C51.2026 12.9454 51.4556 13.3261 51.835 13.5799C52.2144 13.8338 52.5938 14.0876 52.8467 13.9607C53.2261 13.8338 53.2261 13.3261 53.3526 12.9454C53.3526 12.5646 53.3526 12.0569 53.2261 11.6762C53.0996 11.4224 53.2261 11.4224 53.3526 11.4224C53.3526 11.4224 53.2261 11.4224 53.3526 11.4224Z" fill="#373949"/>
<path d="M59.2964 10.1538C59.4229 10.5345 59.5493 11.0422 59.5493 11.4229C59.5493 11.6768 59.5493 11.8037 59.5493 12.0575C59.5493 12.3114 59.4229 12.5652 59.1699 12.6921C58.917 12.819 58.6641 12.6921 58.4111 12.5652C58.1582 12.4383 58.0317 12.3114 57.9053 12.0575C57.6523 11.6768 57.3994 11.296 57.1465 10.9153V10.7884H57.2729C57.5259 11.1691 57.7788 11.4229 58.0317 11.8037C58.2847 12.0575 58.6641 12.4383 58.917 12.3114C59.1699 12.1844 59.1699 11.6768 59.1699 11.296C59.1699 10.9153 59.0435 10.4076 59.0435 10.0269C59.0435 10.1538 59.1699 10.0269 59.2964 10.1538C59.2964 10.0269 59.1699 10.0269 59.2964 10.1538Z" fill="#373949"/>
<path d="M45.5112 2.53791C45.5112 2.53791 55.2491 9.64523 58.6637 7.36074C58.5372 7.48765 55.1226 -0.254247 45.5112 2.53791Z" fill="#EF886C"/>
<path d="M50.5709 4.94984C50.5709 4.94984 48.5475 10.2803 45.6388 11.8033L42.0977 9.39191C41.9713 8.37658 46.6505 3.0461 50.5709 4.94984Z" fill="#EF886C"/>
<path d="M49.5586 19.6723C51.0952 19.6723 52.3409 18.479 52.3409 17.007C52.3409 15.5351 51.0952 14.3418 49.5586 14.3418C48.022 14.3418 46.7764 15.5351 46.7764 17.007C46.7764 18.479 48.022 19.6723 49.5586 19.6723Z" fill="#EBBDBC"/>
<path d="M60.561 12.311C59.6758 12.8187 59.1699 13.5802 59.1699 14.5955C59.1699 15.6109 59.8022 16.4993 60.6875 17.0069C60.6875 17.0069 60.814 16.1185 60.814 14.5955C60.6875 13.1994 60.561 12.311 60.561 12.311Z" fill="#EBBDBC"/>
<path d="M75.7308 59.168C75.7308 64.9085 73.1026 68.6321 68.0009 70.649C67.2279 70.9593 66.6095 71.1145 65.8365 71.2696C64.9089 71.4248 64.1359 71.5799 63.2083 71.5799C60.7348 71.5799 58.4158 70.9593 56.406 69.7181C52.3865 67.3909 49.7583 63.0467 49.7583 58.082C49.7583 51.4105 51.9227 47.3767 57.3336 45.9803C59.3434 45.5149 61.1986 44.584 63.2083 44.584C65.9911 44.584 68.4647 45.3597 70.4745 46.7561C74.3394 49.0833 75.7308 54.3584 75.7308 59.168Z" fill="#A4E8A0"/>
<path d="M68.1552 68.1655V70.4927C67.3822 70.803 66.7638 70.9582 65.9909 71.1133C65.0633 71.2685 64.2903 71.4236 63.3627 71.4236C60.8891 71.4236 58.5701 70.803 56.5604 69.5618L56.715 61.8044L56.4058 57.6153V57.305C56.5604 56.5293 56.5604 55.7535 56.715 54.9778C57.3334 51.8748 58.5701 48.7718 60.8891 47.5306C62.2805 46.91 63.5173 46.7549 64.9087 46.7549C66.9184 46.91 68.7736 47.8409 70.165 49.0821C71.711 50.4785 72.9478 52.6506 73.1024 54.9778C73.7208 59.7874 73.5662 66.614 68.1552 68.1655Z" fill="#E0BEBD"/>
<path d="M68.1556 70.6478C67.3826 70.9581 66.7642 71.1132 65.9912 71.2684C63.3631 69.5617 62.1263 66.9242 61.9717 66.769C63.2085 67.5448 64.1361 68.0102 65.0636 68.1654C65.2182 68.1654 65.2182 68.1654 65.3728 68.1654C66.7642 68.4757 67.6918 68.3205 68.001 68.1654H68.1556V70.6478Z" fill="#D6AAAA"/>
<path d="M57.179 56.2188C57.179 57.1497 56.7152 57.9255 55.9422 57.9255C55.1692 57.9255 54.7054 57.1497 54.5508 56.2188C54.5508 55.288 55.0146 54.5122 55.7876 54.5122C56.5606 54.5122 57.179 55.288 57.179 56.2188Z" fill="#BE9791"/>
<path d="M55.9434 56.2186C55.9434 56.3741 55.7884 56.3741 55.7884 56.3741C55.6333 56.3741 55.6333 56.2186 55.6333 56.2186C55.6333 56.063 55.7884 56.063 55.7884 56.063C55.7884 56.063 55.9434 56.063 55.9434 56.2186Z" fill="#A37975"/>
<path d="M68.1558 68.1654C67.692 68.4757 67.0736 68.6308 66.6098 68.6308C65.9914 68.6308 65.5276 68.6308 64.9092 68.4757C64.2908 68.3205 63.827 68.0102 63.3632 67.8551C62.8994 67.5448 62.4357 67.2345 62.1265 66.769C63.2087 67.0793 64.1362 67.3896 65.2184 67.6999C65.6822 67.8551 66.146 68.0102 66.7644 68.0102C67.0736 68.1654 67.5374 68.1654 68.1558 68.1654Z" fill="#383A4A"/>
<path d="M57.179 56.2188C57.179 57.1497 56.7152 57.9255 55.9422 57.9255C55.1692 57.9255 54.7054 57.1497 54.5508 56.2188C54.5508 55.288 55.0146 54.5122 55.7876 54.5122C56.5606 54.5122 57.179 55.288 57.179 56.2188Z" fill="#E0BEBD"/>
<path d="M56.251 55.7536C56.251 55.7536 55.478 55.5984 55.478 56.219C55.478 56.8396 56.0964 56.6844 56.0964 56.6844" stroke="#B57A77" stroke-width="0.4282" stroke-miterlimit="10" stroke-linecap="round"/>
<path d="M64.7539 60.0977C65.5269 61.1837 66.6091 61.9594 67.6913 61.9594C68.3097 61.9594 68.9281 61.8043 69.3919 61.494C70.0103 61.1837 70.474 60.8734 70.9378 60.408L70.3194 61.1837C70.0102 61.3388 69.8556 61.6491 69.5465 61.8043C68.9281 62.1146 68.3097 62.4249 67.6913 62.4249C67.0729 62.4249 66.2999 62.1146 65.8361 61.8043C65.3723 61.3388 65.0631 60.7183 64.7539 60.0977Z" fill="#373949"/>
<path d="M67.5366 52.6509C68.6188 53.7369 69.3918 54.9781 70.1648 56.3745V56.5296L70.0102 56.6848C69.5464 57.1502 69.0826 57.6157 68.6188 58.0811C68.928 57.6157 69.3918 56.9951 69.701 56.5296V56.6848C68.928 55.2884 68.155 54.0472 67.5366 52.6509Z" fill="#373949"/>
<path d="M65.063 54.3576C65.2176 54.823 65.3722 55.2885 65.3722 55.9091C65.3722 56.3745 65.3722 57.1503 64.7538 57.4606C64.1354 57.7709 63.5171 57.3054 63.2079 56.9951C62.7441 56.6848 62.4349 56.2194 62.2803 55.7539V55.5988H62.4349C62.7441 56.0642 63.0533 56.3745 63.3625 56.6848C63.6717 56.9951 64.1355 57.3054 64.5992 57.1503C64.9084 56.9951 65.063 56.5297 65.063 56.0642C65.063 55.5988 65.063 55.1333 64.9084 54.5127C64.9084 54.3576 64.9084 54.2024 65.063 54.3576C65.063 54.2024 65.063 54.2024 65.063 54.3576Z" fill="#373949"/>
<path d="M71.7116 52.8058C71.8662 53.2712 72.0208 53.7367 72.0208 54.2021C72.0208 54.5124 72.0208 54.6676 72.0208 54.9778C72.0208 55.2881 71.8662 55.5984 71.557 55.7536C71.2478 55.9087 70.9386 55.7536 70.784 55.5984C70.6294 55.4433 70.4748 55.2881 70.1656 55.133C69.8564 54.8227 69.5472 54.3573 69.3926 53.8918V53.7367H69.5472C69.8564 54.047 70.011 54.5124 70.3202 54.8227C70.6294 55.133 71.0932 55.4433 71.2478 55.4433C71.557 55.2882 71.557 54.8227 71.557 54.3573C71.557 53.8918 71.4024 53.4264 71.4024 52.9609C71.557 52.8058 71.557 52.6506 71.7116 52.8058C71.7116 52.8058 71.7116 52.6506 71.7116 52.8058Z" fill="#373949"/>
<path d="M68.7739 44.893C71.2475 45.5136 72.4843 50.3233 66.7642 50.013C60.1165 49.7027 60.1165 47.3754 59.9619 51.7196C59.8073 56.0638 56.8699 54.9777 56.8699 54.9777C56.8699 54.9777 50.686 40.5489 68.7739 44.893Z" fill="#EADB9D"/>
<path d="M99.2289 36.1198C98.7106 38.1139 98.4514 40.0212 97.1556 41.3217C95.8597 42.6222 94.1319 43.4892 92.2313 43.6626C92.0585 43.6626 91.8857 43.6626 91.7129 43.6626C91.4537 43.6626 91.1946 43.6626 91.0218 43.6626C87.2206 43.3158 84.5425 41.4951 84.5425 36.0331C84.5425 31.8716 85.7519 27.3632 91.7129 28.577C95.7733 29.3573 100.266 32.045 99.2289 36.1198Z" fill="#A4E8A0"/>
<path d="M97.0688 38.6338L97.1552 41.3215C95.8594 42.6219 94.1315 43.4889 92.2309 43.6623C92.0582 43.6623 91.8854 43.6623 91.7126 43.6623C91.4534 43.6623 91.1943 43.6623 91.0215 43.6623V42.0151C88.0842 41.1481 87.9978 37.5067 88.257 34.9058C88.5161 32.5649 90.3304 30.7442 92.6629 30.5708C93.354 30.4841 94.1315 30.5708 94.8227 30.9176C96.4641 31.7846 97.0688 34.2989 97.328 36.2062L97.0688 38.6338Z" fill="#C18987"/>
<path d="M94.8227 41.5815C94.7363 41.6682 93.6996 42.7953 92.1445 43.6623C91.9717 43.6623 91.799 43.6623 91.6262 43.6623C91.367 43.6623 91.1078 43.6623 90.9351 43.6623V42.015C90.9351 42.015 92.9221 42.1884 94.8227 41.5815Z" fill="#AD7777"/>
<path d="M96.8101 35.5125C96.8101 36.0327 97.0692 36.4662 97.5012 36.4662C97.8468 36.4662 98.1923 36.1194 98.1923 35.5992C98.1923 35.079 97.9331 34.6455 97.5012 34.6455C97.1556 34.6455 96.8101 35.079 96.8101 35.5125Z" fill="#BE9791"/>
<path d="M97.5015 35.5995C97.5015 35.6864 97.5881 35.6864 97.5881 35.6864C97.6748 35.6864 97.6748 35.5995 97.6748 35.5995C97.6748 35.5126 97.5881 35.5126 97.5881 35.5126C97.5881 35.4256 97.5015 35.5126 97.5015 35.5995Z" fill="#A37975"/>
<path d="M90.9351 42.0152C91.2806 42.0152 91.5398 42.0152 91.799 41.9285C92.0581 41.8418 92.3173 41.8418 92.5765 41.7551C93.0948 41.5817 93.6132 41.4083 94.2179 41.2349C94.0451 41.495 93.786 41.6684 93.5268 41.8418C93.2676 42.0152 93.0085 42.1018 92.6629 42.1885C92.4037 42.2752 92.0581 42.3619 91.7126 42.2752C91.5398 42.2752 91.1942 42.1885 90.9351 42.0152Z" fill="#383A4A"/>
<path d="M96.8101 35.5125C96.8101 36.0327 97.0692 36.4662 97.5012 36.4662C97.8468 36.4662 98.1923 36.1194 98.1923 35.5992C98.1923 35.079 97.9331 34.6455 97.5012 34.6455C97.1556 34.6455 96.8101 35.079 96.8101 35.5125Z" fill="#C18987"/>
<path d="M97.3281 35.3397C97.3281 35.3397 97.7601 35.253 97.7601 35.5998C97.7601 35.9466 97.4145 35.8599 97.4145 35.8599" stroke="#B57A77" stroke-width="0.4282" stroke-miterlimit="10" stroke-linecap="round"/>
<path d="M92.7496 37.6807C92.4904 37.7674 92.2313 38.0275 91.8857 38.1142C91.6265 38.2876 91.281 38.3743 91.0218 38.461C90.6762 38.5477 90.3307 38.5477 90.0715 38.461C89.7259 38.3743 89.5532 38.0275 89.3804 37.7674C89.5532 38.0275 89.8123 38.2009 90.0715 38.2876C90.3307 38.3743 90.6762 38.2876 90.9354 38.2009C91.1946 38.1142 91.5401 38.0275 91.7993 37.8541C92.1449 37.8541 92.4041 37.6807 92.7496 37.6807Z" fill="#373949"/>
<path d="M91.4535 33.606C91.108 34.3862 90.676 34.9931 90.1576 35.6867V35.6C90.3304 35.8601 90.5896 36.1202 90.7624 36.467C90.5032 36.2069 90.244 36.0335 90.0713 35.7734L89.9849 35.6867V35.6C90.5032 34.9064 90.9352 34.2128 91.4535 33.606Z" fill="#373949"/>
<path d="M92.6634 34.5594C92.577 34.8195 92.577 35.0796 92.577 35.3397C92.577 35.5998 92.6634 35.8599 92.8362 35.9466C93.009 36.0333 93.2682 35.9466 93.441 35.7732C93.6137 35.5998 93.7865 35.4264 93.9593 35.1663H94.0457V35.253C93.8729 35.5131 93.7001 35.6865 93.5274 35.9466C93.3546 36.12 93.009 36.3801 92.6634 36.2067C92.3179 36.0333 92.3179 35.6865 92.3179 35.4264C92.3179 35.1663 92.4043 34.9062 92.4907 34.6461C92.577 34.4727 92.577 34.4727 92.6634 34.5594C92.6634 34.5594 92.6634 34.4727 92.6634 34.5594Z" fill="#373949"/>
<path d="M89.121 33.7794C89.0346 34.0395 89.0346 34.2996 89.0346 34.5597C89.0346 34.8198 89.0346 35.0799 89.2074 35.1666C89.3802 35.2533 89.5529 35.0799 89.7257 34.8198C89.8985 34.6464 90.0713 34.3863 90.1577 34.2129H90.2441V34.2996C90.1577 34.5597 89.9849 34.7331 89.8121 34.9932C89.7257 35.0799 89.6393 35.1666 89.5529 35.2533C89.4665 35.34 89.2938 35.4267 89.121 35.34C88.9482 35.2533 88.8618 35.0799 88.8618 34.9932C88.8618 34.8198 88.8618 34.7331 88.8618 34.5597C88.8618 34.2996 88.9482 34.0395 89.0346 33.7794C89.0346 33.6927 89.0346 33.6927 89.121 33.7794C89.121 33.6927 89.121 33.6927 89.121 33.7794Z" fill="#373949"/>
<path d="M89.5534 28.8374C88.9487 29.0108 89.467 30.3112 89.467 30.9181C89.467 31.4383 88.9487 31.7851 89.5534 32.0452C89.899 32.2186 91.5404 31.8718 92.1451 31.8718C93.3546 31.7851 93.7866 32.0452 94.3049 31.9585C95.2552 31.6984 95.3416 31.6984 95.428 33.1723C95.5144 34.2994 95.9463 34.8196 96.2919 34.9063C96.7239 35.0797 97.0694 34.9063 97.0694 34.9063C97.0694 34.9063 97.2422 33.9526 97.5878 32.8255C97.7605 32.2186 99.4884 32.0452 97.2422 30.658C96.7239 30.3112 96.2919 28.8374 95.428 28.4906C94.6505 28.2305 93.7866 29.0108 92.4907 29.1842C91.9724 29.3576 90.2445 28.664 89.5534 28.8374Z" fill="#373949"/>
<path d="M88.6028 39.2413C88.7756 39.5881 89.3803 40.1949 90.417 40.1949C91.4537 40.1949 92.6632 39.7615 93.3543 39.4147C94.0454 39.0679 94.2182 38.7211 94.6502 37.7674C95.0821 36.8137 95.1685 36.3802 95.3413 35.9467C95.5141 35.5132 95.946 34.5595 96.1188 34.2127C96.2916 33.8659 96.6372 33.8659 96.6372 34.2127C96.6372 34.5595 96.2052 35.86 96.5508 36.2935C96.81 36.727 96.378 37.7674 96.2916 38.461C96.2052 39.2413 95.946 40.5417 95.3413 41.0619C94.6502 41.5821 94.0454 41.6688 93.2679 42.189C92.6632 42.6225 91.9721 42.8826 91.3673 42.7092C90.7626 42.5358 90.3306 42.9693 89.5531 42.1023C88.7756 41.2353 88.0845 41.1486 88.1709 40.1949C88.2573 39.5881 88.0845 36.9004 88.0845 37.3339C88.1709 37.9408 88.3436 38.9812 88.6028 39.2413Z" fill="#373949"/>
</svg>
