<svg width="170" height="120" viewBox="0 0 170 120" fill="none" xmlns="http://www.w3.org/2000/svg">
<path d="M24.3456 93.758C24.3456 97.8211 26.37 101.342 29.6089 103.374C30.4186 103.916 31.2284 104.322 32.1731 104.593C33.2527 104.999 34.4673 105.135 35.8169 105.135C37.1664 105.135 38.516 104.864 39.7306 104.458C44.0492 102.832 48.0979 98.4983 47.1532 93.758C44.9939 83.6003 42.0248 82.3813 35.8169 82.3813C31.4983 82.3813 27.9894 82.9231 25.8301 88.476C25.0204 90.1012 24.3456 91.8619 24.3456 93.758Z" fill="#F9DD4A"/>
<path d="M40.6752 90.5076C40.0004 84.5483 33.3875 81.9751 29.6088 86.1736C29.6088 86.1736 29.6088 86.1736 29.6088 86.309C26.6397 89.6949 25.2902 89.1532 19.0822 84.9547C15.4384 82.5168 12.6043 80.7561 8.96052 81.4333C5.58662 81.975 3.83221 84.142 2.75256 86.4445C0.593273 91.4556 3.29239 97.2794 8.1508 98.3629C9.09549 98.4983 9.90521 98.6338 10.58 98.4983C12.4694 98.2275 13.1442 97.4148 15.4384 99.5818C19.2172 103.374 22.5911 106.895 27.3145 104.458C28.799 103.645 30.2835 102.968 31.903 102.291C40.2703 99.0401 40.6752 94.7061 40.6752 94.7061C40.8101 93.2163 40.8101 91.7265 40.6752 90.5076Z" fill="#373949"/>
<path d="M32.1732 104.593C33.2529 105 34.4675 105.135 35.817 105.135C37.1666 105.135 38.5161 104.864 39.7307 104.458V99.7177C43.2396 98.7696 43.3745 94.3002 42.9697 91.1852C42.8347 89.9662 42.2949 88.7473 41.4852 87.9347C40.8104 87.1221 39.8657 86.5803 38.921 86.3095C38.5161 86.174 38.1113 86.174 37.7064 86.0386C37.0316 86.0386 36.4918 86.0386 35.817 86.174C35.6821 86.174 35.4121 86.3095 35.2772 86.4449H35.1422C33.6577 87.2575 32.848 89.1536 32.4431 91.0497C32.4431 91.1852 32.4431 91.1852 32.4431 91.3206C32.3082 91.8624 32.3082 92.4041 32.1732 92.8104V92.9459L32.3082 95.6546L32.1732 102.156V104.593Z" fill="#C18987"/>
<path d="M39.5952 99.7176C39.5952 99.7176 37.9757 100.259 35.6815 98.7695C35.6815 98.7695 37.0311 101.478 39.5952 102.291V99.7176Z" fill="#AD7777"/>
<path d="M32.5776 91.9975C32.5776 92.5393 32.3077 93.081 31.7679 93.081C31.363 93.081 30.9582 92.6747 30.9582 91.9975C30.9582 91.4558 31.2281 90.9141 31.7679 90.9141C32.1728 90.9141 32.5776 91.4558 32.5776 91.9975Z" fill="#BE9791"/>
<path d="M31.7686 91.9976C31.7686 92.1334 31.7686 92.1334 31.6332 92.1334C31.4978 92.1334 31.4978 92.1334 31.4978 91.9976C31.4978 91.8618 31.4978 91.8618 31.6332 91.8618C31.7686 91.8618 31.7686 91.9976 31.7686 91.9976Z" fill="#A37975"/>
<path d="M39.5952 99.7176C38.9204 99.7176 38.2457 99.4467 37.7058 99.3113C37.0311 99.1758 36.4912 98.905 35.6815 98.7695C35.9514 99.0404 36.2213 99.3113 36.4912 99.5822C36.7611 99.853 37.166 99.9885 37.4359 99.9885C37.8408 100.124 38.1107 100.124 38.5156 100.124C38.9204 100.124 39.3253 99.9885 39.5952 99.7176Z" fill="#383A4A"/>
<path d="M32.5776 91.9975C32.5776 92.5393 32.3077 93.081 31.7679 93.081C31.363 93.081 30.9582 92.6747 30.9582 91.9975C30.9582 91.4558 31.2281 90.9141 31.7679 90.9141C32.1728 90.9141 32.5776 91.4558 32.5776 91.9975Z" fill="#C18987"/>
<path d="M32.0386 91.7267C32.0386 91.7267 31.4988 91.5913 31.4988 91.9976C31.4988 92.4039 31.9036 92.2685 31.9036 92.2685" stroke="#B57A77" stroke-width="0.4282" stroke-miterlimit="10" stroke-linecap="round"/>
<path d="M37.4367 94.5698C37.7066 95.3824 38.5163 96.0596 39.3261 96.0596C39.7309 96.0596 40.1358 95.9242 40.5407 95.6533C40.6756 95.5179 40.8106 95.3824 41.0805 95.247L41.4854 94.8407C40.8106 95.247 40.1358 95.7887 39.3261 95.7887C38.6513 95.7887 37.9765 95.247 37.4367 94.5698Z" fill="#373949"/>
<path d="M39.1907 89.6948C39.5956 90.6429 40.1354 91.4555 40.6752 92.1327V91.9972C40.4053 92.2681 40.2703 92.6744 40.0004 92.9453C40.2703 92.6744 40.5403 92.4036 40.9451 92.1327L41.0801 91.9972V91.8618C40.4053 91.1846 39.8655 90.5074 39.1907 89.6948Z" fill="#373949"/>
<path d="M37.572 90.9141C37.572 91.185 37.7069 91.5913 37.7069 91.8621C37.7069 92.133 37.572 92.5393 37.437 92.5393C37.3021 92.6748 36.8972 92.5393 36.7623 92.2684C36.4923 91.9976 36.3574 91.8621 36.0875 91.5913H35.9525V91.7267C36.0875 91.9976 36.3574 92.2684 36.6273 92.5393C36.8972 92.8102 37.1671 93.0811 37.7069 92.8102C38.1118 92.5393 38.1118 92.133 38.1118 91.8621C38.1118 91.4558 37.9769 91.185 37.9769 90.9141C37.7069 90.7786 37.7069 90.7786 37.572 90.9141C37.572 90.7786 37.572 90.7786 37.572 90.9141Z" fill="#373949"/>
<path d="M41.8898 89.8306C41.8898 90.1014 42.0247 90.3723 42.0247 90.7786C42.0247 91.0495 42.0247 91.4558 41.8898 91.4558C41.7548 91.4558 41.4849 91.3204 41.3499 91.0495C41.215 90.7786 40.9451 90.6432 40.8101 90.3723H40.6752V90.5078C40.8101 90.7786 40.9451 91.0495 41.215 91.3204C41.4849 91.5912 41.6198 91.8621 42.1597 91.7267C42.5645 91.4558 42.4296 91.0495 42.4296 90.7786C42.4296 90.5077 42.2946 90.1014 42.1597 89.8306C42.0247 89.8306 41.8898 89.8306 41.8898 89.8306C41.7548 89.8306 41.8898 89.8306 41.8898 89.8306Z" fill="#373949"/>
<path d="M32.1734 84.4123C32.1734 84.4123 39.0561 89.4234 41.4854 87.9336C41.4854 87.9336 39.0561 82.3807 32.1734 84.4123Z" fill="#373949"/>
<path d="M35.8169 86.1728C35.8169 86.1728 34.3324 89.965 32.308 91.0485L29.7439 89.2878C29.6089 88.6106 32.9828 84.8184 35.8169 86.1728Z" fill="#373949"/>
<path d="M142.2 55.3511C142.2 61.0167 144.793 64.6917 149.829 66.6823C150.592 66.9885 151.202 67.1416 151.965 67.2948C152.88 67.4479 153.643 67.601 154.559 67.601C157 67.601 159.289 66.9885 161.272 65.7635C165.239 63.4667 167.833 59.1792 167.833 54.2793C167.833 47.695 165.697 43.7137 160.357 42.3356C158.373 41.8763 156.542 40.9575 154.559 40.9575C151.812 40.9575 149.371 41.7231 147.387 43.1012C143.573 45.3981 142.2 50.6043 142.2 55.3511Z" fill="#A4E8A0"/>
<path d="M149.676 64.2312V66.528C150.439 66.8343 151.05 66.9874 151.813 67.1405C152.728 67.2936 153.491 67.4467 154.406 67.4467C156.848 67.4467 159.136 66.8343 161.12 65.6093L160.967 57.9531L161.272 53.8187V53.5125C161.12 52.7469 161.12 51.9813 160.967 51.2157C160.357 48.1532 159.136 45.0907 156.848 43.8657C155.474 43.2532 154.254 43.1001 152.881 43.1001C150.897 43.2532 149.066 44.172 147.693 45.397C146.167 46.7751 144.946 48.9188 144.794 51.2157C144.184 55.9625 144.336 62.6999 149.676 64.2312Z" fill="#E0BEBD"/>
<path d="M149.676 66.6811C150.439 66.9874 151.049 67.1405 151.812 67.2936C154.406 65.6092 155.627 63.0062 155.779 62.853C154.559 63.6186 153.643 64.078 152.728 64.2311C152.575 64.2311 152.575 64.2311 152.423 64.2311C151.049 64.5374 150.134 64.3843 149.829 64.2311H149.676V66.6811Z" fill="#D6AAAA"/>
<path d="M160.509 52.4402C160.509 53.359 160.967 54.1246 161.73 54.1246C162.493 54.1246 162.95 53.359 163.103 52.4402C163.103 51.5215 162.645 50.7559 161.882 50.7559C161.119 50.7559 160.509 51.5215 160.509 52.4402Z" fill="#BE9791"/>
<path d="M161.729 52.4402C161.729 52.5937 161.882 52.5937 161.882 52.5937C162.035 52.5937 162.035 52.4402 162.035 52.4402C162.035 52.2866 161.882 52.2866 161.882 52.2866C161.882 52.2866 161.729 52.2866 161.729 52.4402Z" fill="#A37975"/>
<path d="M149.676 64.2311C150.134 64.5374 150.744 64.6905 151.202 64.6905C151.812 64.6905 152.27 64.6905 152.88 64.5374C153.49 64.3843 153.948 64.078 154.406 63.9249C154.864 63.6187 155.321 63.3124 155.626 62.853C154.558 63.1593 153.643 63.4655 152.575 63.7718C152.117 63.9249 151.659 64.078 151.049 64.078C150.744 64.2311 150.286 64.2311 149.676 64.2311Z" fill="#383A4A"/>
<path d="M160.509 52.4402C160.509 53.359 160.967 54.1246 161.73 54.1246C162.493 54.1246 162.95 53.359 163.103 52.4402C163.103 51.5215 162.645 50.7559 161.882 50.7559C161.119 50.7559 160.509 51.5215 160.509 52.4402Z" fill="#E0BEBD"/>
<path d="M161.425 51.9809C161.425 51.9809 162.188 51.8278 162.188 52.4402C162.188 53.0527 161.578 52.8996 161.578 52.8996" stroke="#B57A77" stroke-width="0.4282" stroke-miterlimit="10" stroke-linecap="round"/>
<path d="M153.033 56.2686C152.27 57.3404 151.202 58.106 150.134 58.106C149.523 58.106 148.913 57.9529 148.455 57.6467C147.845 57.3404 147.387 57.0342 146.93 56.5748L147.54 57.3404C147.845 57.4935 147.998 57.7998 148.303 57.9529C148.913 58.2592 149.523 58.5654 150.134 58.5654C150.744 58.5654 151.507 58.2592 151.965 57.9529C152.422 57.4935 152.728 56.881 153.033 56.2686Z" fill="#373949"/>
<path d="M150.287 48.9185C149.219 49.9903 148.456 51.2153 147.693 52.5934V52.7465L147.845 52.8997C148.303 53.359 148.761 53.8184 149.219 54.2778C148.913 53.8184 148.456 53.2059 148.15 52.7465V52.8997C148.913 51.5216 149.676 50.2966 150.287 48.9185Z" fill="#373949"/>
<path d="M152.728 50.6036C152.576 51.063 152.423 51.5224 152.423 52.1348C152.423 52.5942 152.423 53.3598 153.033 53.6661C153.644 53.9723 154.254 53.513 154.559 53.2067C155.017 52.9005 155.322 52.4411 155.475 51.9817V51.8286H155.322C155.017 52.288 154.712 52.5942 154.407 52.9005C154.101 53.2067 153.644 53.513 153.186 53.3598C152.881 53.2067 152.728 52.7473 152.728 52.288C152.728 51.8286 152.728 51.3692 152.881 50.7567C152.881 50.6036 152.881 50.4505 152.728 50.6036C152.728 50.4505 152.728 50.4505 152.728 50.6036Z" fill="#373949"/>
<path d="M146.167 49.0715C146.014 49.5308 145.862 49.9902 145.862 50.4496C145.862 50.7558 145.862 50.9089 145.862 51.2152C145.862 51.5214 146.014 51.8277 146.319 51.9808C146.625 52.1339 146.93 51.9808 147.082 51.8277C147.235 51.6746 147.388 51.5214 147.693 51.3683C147.998 51.0621 148.303 50.6027 148.456 50.1433V49.9902H148.303C147.998 50.2965 147.845 50.7558 147.54 51.0621C147.235 51.3683 146.777 51.6746 146.625 51.6746C146.319 51.5214 146.319 51.0621 146.319 50.6027C146.319 50.1433 146.472 49.684 146.472 49.2246C146.319 49.0715 146.319 48.9183 146.167 49.0715C146.167 49.0715 146.167 48.9183 146.167 49.0715Z" fill="#373949"/>
<path d="M149.066 41.2623C146.625 41.8748 145.404 46.6216 151.05 46.3154C157.611 46.0091 157.611 43.7123 157.763 47.9997C157.916 52.2872 160.815 51.2153 160.815 51.2153C160.815 51.2153 166.918 36.9748 149.066 41.2623Z" fill="#EADB9D"/>
<path d="M55.2505 88C55.2505 81.5107 60.5111 76.25 67.0005 76.25H111C117.49 76.25 122.75 81.5107 122.75 88V94C122.75 100.489 117.49 105.75 111 105.75H55.2505V88Z" fill="white" stroke="#E6EEF9" stroke-width="0.5"/>
<path d="M24.3456 28.613C24.3456 32.6761 26.37 36.1975 29.6089 38.229C30.4186 38.7708 31.2284 39.1771 32.1731 39.448C33.2527 39.8543 34.4673 39.9897 35.8169 39.9897C37.1664 39.9897 38.516 39.7188 39.7306 39.3125C44.0492 37.6873 48.0979 33.3533 47.1532 28.613C44.9939 18.4553 42.0248 17.2363 35.8169 17.2363C31.4983 17.2363 27.9894 17.7781 25.8301 23.331C25.0204 24.9562 24.3456 26.7169 24.3456 28.613Z" fill="#F9DD4A"/>
<path d="M40.6752 25.3625C40.0004 19.4033 33.3875 16.83 29.6088 21.0286C29.6088 21.0286 29.6088 21.0286 29.6088 21.164C26.6397 24.5499 25.2902 24.0082 19.0822 19.8096C15.4384 17.3718 12.6043 15.6111 8.96052 16.2883C5.58662 16.83 3.83221 18.997 2.75256 21.2994C0.593273 26.3106 3.29239 32.1344 8.1508 33.2179C9.09549 33.3533 9.90521 33.4888 10.58 33.3533C12.4694 33.0824 13.1442 32.2698 15.4384 34.4368C19.2172 38.229 22.5911 41.7504 27.3145 39.3125C28.799 38.4999 30.2835 37.8227 31.903 37.1455C40.2703 33.8951 40.6752 29.5611 40.6752 29.5611C40.8101 28.0713 40.8101 26.5815 40.6752 25.3625Z" fill="#373949"/>
<path d="M32.1732 39.4484C33.2529 39.8547 34.4675 39.9901 35.817 39.9901C37.1666 39.9901 38.5161 39.7193 39.7307 39.313V34.5727C43.2396 33.6246 43.3745 29.1552 42.9697 26.0402C42.8347 24.8212 42.2949 23.6023 41.4852 22.7897C40.8104 21.9771 39.8657 21.4353 38.921 21.1644C38.5161 21.029 38.1113 21.029 37.7064 20.8936C37.0316 20.8936 36.4918 20.8936 35.817 21.029C35.6821 21.029 35.4121 21.1644 35.2772 21.2999H35.1422C33.6577 22.1125 32.848 24.0086 32.4431 25.9047C32.4431 26.0402 32.4431 26.0402 32.4431 26.1756C32.3082 26.7173 32.3082 27.2591 32.1732 27.6654V27.8008L32.3082 30.5096L32.1732 37.0105V39.4484Z" fill="#C18987"/>
<path d="M39.5952 34.5726C39.5952 34.5726 37.9757 35.1143 35.6815 33.6245C35.6815 33.6245 37.0311 36.3332 39.5952 37.1459V34.5726Z" fill="#AD7777"/>
<path d="M32.5776 26.8525C32.5776 27.3943 32.3077 27.936 31.7679 27.936C31.363 27.936 30.9582 27.5297 30.9582 26.8525C30.9582 26.3108 31.2281 25.769 31.7679 25.769C32.1728 25.769 32.5776 26.3108 32.5776 26.8525Z" fill="#BE9791"/>
<path d="M31.7686 26.8531C31.7686 26.9889 31.7686 26.9889 31.6332 26.9889C31.4978 26.9889 31.4978 26.9889 31.4978 26.8531C31.4978 26.7173 31.4978 26.7173 31.6332 26.7173C31.7686 26.7173 31.7686 26.8531 31.7686 26.8531Z" fill="#A37975"/>
<path d="M39.5952 34.5726C38.9204 34.5726 38.2457 34.3017 37.7058 34.1663C37.0311 34.0308 36.4912 33.7599 35.6815 33.6245C35.9514 33.8954 36.2213 34.1663 36.4912 34.4371C36.7611 34.708 37.166 34.8434 37.4359 34.8434C37.8408 34.9789 38.1107 34.9789 38.5156 34.9789C38.9204 34.9789 39.3253 34.8435 39.5952 34.5726Z" fill="#383A4A"/>
<path d="M32.5776 26.8525C32.5776 27.3943 32.3077 27.936 31.7679 27.936C31.363 27.936 30.9582 27.5297 30.9582 26.8525C30.9582 26.3108 31.2281 25.769 31.7679 25.769C32.1728 25.769 32.5776 26.3108 32.5776 26.8525Z" fill="#C18987"/>
<path d="M32.0386 26.5817C32.0386 26.5817 31.4988 26.4463 31.4988 26.8526C31.4988 27.2589 31.9036 27.1235 31.9036 27.1235" stroke="#B57A77" stroke-width="0.4282" stroke-miterlimit="10" stroke-linecap="round"/>
<path d="M37.4367 29.4248C37.7066 30.2374 38.5163 30.9146 39.3261 30.9146C39.7309 30.9146 40.1358 30.7792 40.5407 30.5083C40.6756 30.3729 40.8106 30.2374 41.0805 30.102L41.4854 29.6957C40.8106 30.102 40.1358 30.6437 39.3261 30.6437C38.6513 30.6437 37.9765 30.102 37.4367 29.4248Z" fill="#373949"/>
<path d="M39.1907 24.5508C39.5956 25.4988 40.1354 26.3115 40.6752 26.9886V26.8532C40.4053 27.1241 40.2703 27.5304 40.0004 27.8013C40.2703 27.5304 40.5403 27.2595 40.9451 26.9886L41.0801 26.8532V26.7178C40.4053 26.0406 39.8655 25.3634 39.1907 24.5508Z" fill="#373949"/>
<path d="M37.572 25.7691C37.572 26.0399 37.7069 26.4462 37.7069 26.7171C37.7069 26.988 37.572 27.3943 37.437 27.3943C37.3021 27.5297 36.8972 27.3943 36.7623 27.1234C36.4923 26.8526 36.3574 26.7171 36.0875 26.4462H35.9525V26.5817C36.0875 26.8526 36.3574 27.1234 36.6273 27.3943C36.8972 27.6652 37.1671 27.936 37.7069 27.6652C38.1118 27.3943 38.1118 26.988 38.1118 26.7171C38.1118 26.3108 37.9769 26.0399 37.9769 25.7691C37.7069 25.6336 37.7069 25.6336 37.572 25.7691C37.572 25.6336 37.572 25.6336 37.572 25.7691Z" fill="#373949"/>
<path d="M41.8898 24.6855C41.8898 24.9564 42.0247 25.2273 42.0247 25.6336C42.0247 25.9045 42.0247 26.3108 41.8898 26.3108C41.7548 26.3108 41.4849 26.1754 41.3499 25.9045C41.215 25.6336 40.9451 25.4982 40.8101 25.2273H40.6752V25.3627C40.8101 25.6336 40.9451 25.9045 41.215 26.1753C41.4849 26.4462 41.6198 26.7171 42.1597 26.5817C42.5645 26.3108 42.4296 25.9045 42.4296 25.6336C42.4296 25.3627 42.2946 24.9564 42.1597 24.6855C42.0247 24.6855 41.8898 24.6855 41.8898 24.6855C41.7548 24.6855 41.8898 24.6855 41.8898 24.6855Z" fill="#373949"/>
<path d="M32.1734 19.2673C32.1734 19.2673 39.0561 24.2784 41.4854 22.7886C41.4854 22.7886 39.0561 17.2357 32.1734 19.2673Z" fill="#373949"/>
<path d="M35.8169 21.0277C35.8169 21.0277 34.3324 24.82 32.308 25.9035L29.7439 24.1428C29.6089 23.4656 32.9828 19.6734 35.8169 21.0277Z" fill="#373949"/>
<path d="M55.2505 25C55.2505 18.5107 60.5111 13.25 67.0005 13.25H69.5005C75.1614 13.25 79.7505 17.8391 79.7505 23.5C79.7505 29.1609 75.1614 33.75 69.5005 33.75H55.2505V25Z" fill="white" stroke="#E6EEF9" stroke-width="0.5"/>
<path d="M63.2069 27.3937C63.2069 27.3937 62.681 29.3368 61.8464 30.1714L68.1058 30.1714C68.1058 30.1714 72.8425 22.0767 72.8797 21.3737C72.9287 20.7541 71.0084 23.052 70.7579 23.3258C70.949 22.9923 72.3466 20.3603 72.3963 19.3833C72.4695 18.5731 69.6425 22.0378 69.6425 22.0378C71.4371 17.3925 71.5436 17.6666 71.4371 17.3925C71.2005 16.7965 68.6573 21.0717 68.3587 21.6076C68.55 21.155 69.8175 18.2012 69.426 17.7123C68.9988 17.2114 65.3927 23.3564 65.3927 23.3564C65.3927 23.3564 65.1465 21.7237 63.8277 20.9241C63.507 20.6974 63.0427 20.8995 62.8519 21.1138C64.0857 22.6402 63.2069 27.3937 63.2069 27.3937Z" fill="#C18987"/>
<path d="M131.75 54C131.75 47.5107 126.49 42.25 120 42.25H73.5005C67.8396 42.25 63.2505 46.8391 63.2505 52.5C63.2505 58.1609 67.8396 62.75 73.5005 62.75H131.75V54Z" fill="white" stroke="#E6EEF9" stroke-width="0.5"/>
<path d="M73.322 55.0813C73.0584 54.6354 72.9215 53.9432 72.9806 53.3197C73.0397 52.6961 73.2551 52.14 73.5044 51.7726C74.0444 50.9765 74.6915 50.5589 75.3704 50.3925C76.6906 49.9959 77.9894 50.2866 79.2427 50.7634C79.8683 51.0331 80.4921 51.3653 81.0723 51.8211C81.3417 52.0797 81.6506 52.3395 81.8765 52.7217C81.9894 52.9129 82.1023 53.104 82.2133 53.3576C82.2847 53.61 82.3937 53.926 82.3405 54.3621C82.2931 54.6108 82.1704 54.7321 82.0478 54.8533C81.927 54.9121 81.8459 54.9721 81.7271 54.9684C81.5292 54.9622 81.3708 54.9573 81.1748 54.8886C80.8224 54.7525 80.5511 54.5565 80.2421 54.2967C79.9332 54.0369 79.6638 53.7783 79.438 53.3961C79.2121 53.0138 78.9862 52.6315 78.8454 52.0643C78.774 51.8119 78.7442 51.4983 78.7955 51.1247C78.8448 50.8136 78.9733 50.5049 79.0979 50.3212C79.3887 49.8925 79.7509 49.7162 80.0715 49.6011C80.7128 49.371 81.3858 49.392 82.0193 49.4117C83.2843 49.5138 84.5415 49.8657 85.7968 50.28C87.0105 50.7557 88.2618 51.295 89.4301 51.9568C90.0123 52.3502 90.5964 52.6811 91.1312 53.3232C91.2085 53.3881 91.2838 53.5155 91.3175 53.7042C91.3552 53.7679 91.3493 53.9553 91.3454 54.0803C91.3019 54.204 91.2604 54.2652 91.2189 54.3265C91.015 54.5077 90.8567 54.5028 90.6964 54.5603C90.3777 54.6129 90.0213 54.6018 89.7066 54.5294C89.0789 54.3222 88.4176 53.9264 88.0093 53.0381C87.8983 52.7845 87.8269 52.5322 87.8347 52.2823C87.8049 51.9687 87.8523 51.72 87.9016 51.4088C88.0756 50.914 88.3644 50.5478 88.6493 50.3065C89.2588 49.8252 89.8605 49.5939 90.4998 49.4262C91.1391 49.2585 91.7765 49.1534 92.4138 49.0482C94.9633 48.6274 97.5011 48.5815 100.023 49.0355C102.547 49.4269 105.018 50.2544 107.45 51.0807C109.919 51.9707 112.348 52.8595 114.777 53.7483C112.306 52.9208 109.877 52.032 107.406 51.2044C104.935 50.3769 102.462 49.6118 99.9759 49.2841C97.4518 48.8927 94.9516 49.0023 92.4021 49.423C91.1651 49.6971 89.8546 49.7813 88.7564 50.6851C88.5111 50.9276 88.2638 51.2325 88.1333 51.6037C88.0029 51.9748 88.0684 52.4146 88.2151 52.7944C88.548 53.5552 89.1302 53.9486 89.7202 54.0921C90.035 54.1645 90.3121 54.1731 90.6308 54.1205C90.7911 54.063 90.9495 54.0679 91.0326 53.9455C91.0741 53.8842 91.0306 54.0079 91.0326 53.9455C91.0345 53.883 90.9573 53.818 90.9196 53.7543C90.4601 53.2397 89.8384 52.8451 89.2938 52.5154C88.1255 51.8536 86.9138 51.3155 85.6981 50.9023C84.4824 50.4892 83.2252 50.1373 81.9979 50.099C81.3644 50.0792 80.7705 50.0607 80.1689 50.2921C79.8878 50.4084 79.6048 50.5871 79.3991 50.8309C79.2329 51.0758 79.1816 51.4494 79.2887 51.828C79.5029 52.5851 79.9981 53.2259 80.4992 53.6793C80.7705 53.8754 81.0418 54.0715 81.317 54.1426C81.4734 54.21 81.5922 54.2137 81.7109 54.2174C81.7901 54.2199 81.8317 54.1587 81.8712 54.1599C81.9108 54.1611 81.9128 54.0987 81.9128 54.0987C81.9147 54.0362 81.9186 53.9112 81.8453 53.7213C81.7719 53.5314 81.6967 53.404 81.5837 53.2129C81.3559 52.8931 81.1262 52.6358 80.8549 52.4397C80.3142 51.9851 79.7301 51.6542 79.142 51.4482C77.9679 50.9738 76.7049 50.8093 75.5054 51.1471C74.9057 51.316 74.3397 51.6736 73.962 52.3497C73.7938 52.6571 73.6238 53.027 73.6121 53.4019C73.5608 53.7755 73.6283 54.1528 73.8185 54.4089C73.9314 54.6001 73.9217 54.9124 73.797 55.0962C73.5932 55.2774 73.3953 55.2712 73.322 55.0813Z" fill="#ADC9EE"/>
<path d="M63.7388 89.4674C63.4151 89.0195 63.2438 88.3263 63.3115 87.703C63.3791 87.0797 63.6376 86.525 63.9384 86.1592C64.5902 85.3665 65.3748 84.9532 66.1998 84.7914C67.8036 84.4037 69.386 84.7032 70.9143 85.1886C71.6775 85.4626 72.4387 85.799 73.1479 86.2589C73.4774 86.5193 73.8551 86.7813 74.1325 87.1651C74.2712 87.3571 74.4099 87.549 74.5467 87.8034C74.6353 88.0563 74.7701 88.3732 74.7083 88.809C74.6523 89.0574 74.5039 89.1779 74.3554 89.2983C74.2089 89.3563 74.1106 89.4157 73.966 89.4112C73.7251 89.4037 73.5323 89.3977 73.2933 89.3277C72.8636 89.1892 72.5321 88.9913 72.1544 88.7293C71.7767 88.4674 71.4472 88.207 71.1698 87.8231C70.8923 87.4392 70.6149 87.0554 70.4397 86.4871C70.3511 86.2342 70.3127 85.9203 70.3725 85.5469C70.4305 85.2361 70.5848 84.9282 70.7352 84.7453C71.0861 84.3185 71.5256 84.1446 71.915 84.0317C72.6938 83.8058 73.513 83.8314 74.284 83.8554C75.824 83.966 77.3562 84.3265 78.8865 84.7495C80.3666 85.2334 81.893 85.7813 83.3191 86.4512C84.0302 86.8486 84.7433 87.1835 85.3984 87.8293C85.4928 87.8948 85.5853 88.0228 85.6276 88.2117C85.6739 88.2757 85.668 88.4631 85.6641 88.5881C85.6121 88.7115 85.5619 88.7725 85.5118 88.8334C85.265 89.0133 85.0723 89.0073 84.8776 89.0638C84.4901 89.1143 84.0565 89.1007 83.6729 89.0262C82.9078 88.8147 82.1003 88.4143 81.5975 87.5231C81.4607 87.2687 81.3722 87.0158 81.38 86.7659C81.3415 86.452 81.3975 86.2036 81.4554 85.8927C81.6638 85.3989 82.0127 85.0346 82.3578 84.7952C83.0962 84.318 83.8268 84.0906 84.6036 83.9273C85.3805 83.7639 86.1554 83.663 86.9302 83.5621C90.0297 83.1585 93.1176 83.1298 96.1898 83.6009C99.264 84.0095 102.276 84.8539 105.241 85.6968C108.251 86.6037 111.213 87.5091 114.175 88.4145C111.163 87.5701 108.201 86.6647 105.188 85.8203C102.176 84.9758 99.1618 84.1939 96.1338 83.8493C93.0597 83.4407 90.0181 83.5334 86.9185 83.937C85.415 84.2027 83.821 84.2781 82.4907 85.1746C82.1938 85.4155 81.895 85.7188 81.7387 86.0892C81.5825 86.4595 81.6652 86.8999 81.8462 87.2807C82.2565 88.044 82.9676 88.4414 83.6865 88.5889C84.0701 88.6634 84.4074 88.6739 84.7948 88.6235C84.9895 88.567 85.1823 88.573 85.2826 88.4511C85.3327 88.3901 85.2806 88.5136 85.2826 88.4511C85.2845 88.3886 85.1901 88.3231 85.1438 88.2591C84.5812 87.7413 83.8219 87.3424 83.157 87.0089C81.7309 86.3391 80.2527 85.7927 78.7706 85.3712C77.2885 84.9498 75.7563 84.5893 74.2625 84.5427C73.4915 84.5186 72.7687 84.496 72.0382 84.7234C71.697 84.8378 71.3538 85.0147 71.1051 85.2571C70.9045 85.501 70.8447 85.8743 70.9775 86.2537C71.2433 87.0124 71.8502 87.6567 72.463 88.1136C72.7945 88.3116 73.1259 88.5095 73.4613 88.5825C73.6521 88.651 73.7966 88.6555 73.9412 88.66C74.0376 88.663 74.0877 88.6021 74.1359 88.6036C74.1841 88.6051 74.186 88.5426 74.186 88.5426C74.188 88.4801 74.1919 88.3552 74.1013 88.1647C74.0108 87.9743 73.9183 87.8463 73.7796 87.6544C73.5002 87.333 73.2189 87.0741 72.8875 86.8761C72.2265 86.4178 71.5134 86.0828 70.7965 85.8728C69.3645 85.3904 67.8264 85.2173 66.3692 85.5471C65.6405 85.712 64.9542 86.0658 64.4991 86.7395C64.2966 87.0458 64.0922 87.4147 64.0805 87.7895C64.0206 88.1629 64.1053 88.5407 64.3385 88.7982C64.4772 88.9901 64.4674 89.3025 64.317 89.4854C64.0702 89.6653 63.8293 89.6578 63.7388 89.4674Z" fill="#ADC9EE"/>
<path d="M63.6402 97.5987C63.4356 97.3156 63.3273 96.8773 63.37 96.4833C63.4128 96.0892 63.5762 95.7385 63.7664 95.5072C64.1785 95.0061 64.6745 94.7448 65.1961 94.6425C66.21 94.3973 67.2105 94.5867 68.1767 94.8936C68.6592 95.0668 69.1405 95.2795 69.5888 95.5703C69.7971 95.7349 70.0359 95.9005 70.2113 96.1432C70.299 96.2646 70.3867 96.3859 70.4732 96.5467C70.5292 96.7066 70.6144 96.907 70.5753 97.1825C70.54 97.3396 70.4461 97.4157 70.3522 97.4919C70.2596 97.5285 70.1975 97.5661 70.1061 97.5632C69.9537 97.5585 69.8319 97.5547 69.6808 97.5104C69.4091 97.4229 69.1995 97.2977 68.9607 97.1321C68.7219 96.9665 68.5136 96.8019 68.3382 96.5592C68.1628 96.3165 67.9874 96.0738 67.8766 95.7145C67.8206 95.5546 67.7963 95.3562 67.8342 95.1201C67.8708 94.9236 67.9684 94.729 68.0635 94.6133C68.2853 94.3435 68.5632 94.2335 68.8094 94.1622C69.3018 94.0194 69.8196 94.0355 70.3071 94.0507C71.2807 94.1207 72.2494 94.3486 73.2169 94.616C74.1527 94.9219 75.1177 95.2683 76.0193 95.6918C76.4689 95.9431 76.9197 96.1548 77.3339 96.5631C77.3936 96.6045 77.452 96.6854 77.4788 96.8049C77.508 96.8453 77.5043 96.9638 77.5019 97.0428C77.4689 97.1209 77.4373 97.1594 77.4056 97.1979C77.2495 97.3117 77.1277 97.3079 77.0046 97.3436C76.7596 97.3755 76.4855 97.3669 76.243 97.3198C75.7592 97.1861 75.2487 96.933 74.9309 96.3695C74.8444 96.2087 74.7884 96.0488 74.7933 95.8908C74.769 95.6924 74.8044 95.5353 74.841 95.3388C74.9727 95.0266 75.1934 94.7962 75.4116 94.6449C75.8784 94.3432 76.3403 94.1994 76.8314 94.0962C77.3225 93.9929 77.8124 93.9291 78.3023 93.8653C80.2619 93.6101 82.2141 93.592 84.1564 93.8898C86.1 94.1481 88.0045 94.682 89.8785 95.2149C91.7818 95.7883 93.6546 96.3607 95.5273 96.9331C93.6229 96.3992 91.7501 95.8268 89.8456 95.293C87.9411 94.7591 86.0354 94.2647 84.1211 94.0468C82.1775 93.7885 80.2545 93.8471 78.2949 94.1023C77.3444 94.2703 76.3366 94.3179 75.4956 94.8848C75.3079 95.037 75.1189 95.2288 75.0201 95.463C74.9213 95.6971 74.9737 95.9755 75.0881 96.2163C75.3475 96.6988 75.7971 96.9501 76.2516 97.0433C76.4941 97.0904 76.7073 97.0971 76.9523 97.0652C77.0754 97.0295 77.1972 97.0333 77.2606 96.9562C77.2923 96.9177 77.2594 96.9957 77.2606 96.9562C77.2619 96.9167 77.2022 96.8753 77.1729 96.8349C76.8172 96.5075 76.3372 96.2553 75.9168 96.0445C75.0152 95.621 74.0807 95.2755 73.1436 95.0091C72.2066 94.7426 71.2379 94.5147 70.2935 94.4852C69.8061 94.47 69.3491 94.4558 68.8872 94.5995C68.6715 94.6718 68.4546 94.7837 68.2973 94.9369C68.1705 95.0911 68.1327 95.3271 68.2167 95.567C68.3847 96.0467 68.7684 96.454 69.1558 96.7429C69.3654 96.868 69.5749 96.9932 69.787 97.0393C69.9076 97.0826 69.999 97.0855 70.0904 97.0883C70.1513 97.0902 70.183 97.0517 70.2135 97.0526C70.2439 97.0536 70.2452 97.0141 70.2452 97.0141C70.2464 96.9746 70.2489 96.8956 70.1916 96.7752C70.1344 96.6548 70.0759 96.5739 69.9882 96.4525C69.8116 96.2493 69.6337 96.0856 69.4242 95.9605C69.0063 95.6707 68.5555 95.4589 68.1022 95.3262C67.1969 95.0212 66.2245 94.9118 65.3032 95.1202C64.8425 95.2245 64.4086 95.4482 64.1209 95.8741C63.9929 96.0678 63.8636 96.301 63.8562 96.538C63.8184 96.774 63.8719 97.0129 64.0193 97.1756C64.107 97.297 64.1009 97.4945 64.0058 97.6101C63.8497 97.7239 63.6974 97.7191 63.6402 97.5987Z" fill="#ADC9EE"/>
</svg>
