<svg width="170" height="120" viewBox="0 0 170 120" fill="none" xmlns="http://www.w3.org/2000/svg">
<path d="M125.129 55.7456V55.3879V55.209C125.129 55.209 125.04 55.209 125.04 55.1196C124.95 55.1196 125.04 55.0301 125.04 55.0301V54.4041C125.04 53.9569 125.129 53.5097 125.129 53.152C125.218 52.2576 125.307 51.4527 125.486 50.6478C125.754 48.9485 126.2 47.2492 126.646 45.6394C127.717 42.3303 129.235 39.2895 131.287 36.4276C133.251 33.6551 135.75 31.1509 138.606 29.1833C140.034 28.1995 141.551 27.3052 143.158 26.7686C143.961 26.5003 144.854 26.232 145.746 26.1425C146.639 26.0531 147.621 26.1425 148.513 26.7686C149.852 28.1101 151.191 29.5411 151.726 31.5086C151.994 32.4924 151.994 33.5657 151.726 34.46C151.458 35.4438 150.834 36.2487 150.209 36.9642C149.852 37.3219 149.495 37.6797 149.049 37.8585C148.602 38.1269 147.978 38.2163 147.442 38.1269C146.907 38.0374 146.371 37.7691 146.014 37.4114C145.657 37.0536 145.389 36.6065 145.121 36.1593C144.229 34.3706 143.961 32.403 144.14 30.5249C144.229 29.5411 144.407 28.6467 144.854 27.7524C145.211 26.858 145.925 26.0531 146.639 25.5165C148.067 24.2644 149.763 23.37 151.548 22.6546C153.333 21.9391 155.118 21.4919 156.992 21.2236C158.866 20.9553 160.741 20.8658 162.615 21.313L162.526 21.6708C160.741 21.2236 158.866 21.313 157.081 21.5813C155.296 21.8496 153.511 22.3862 151.815 23.1017C150.12 23.8172 148.513 24.7116 147.174 25.8742C146.46 26.5003 145.925 27.1263 145.568 27.9312C145.211 28.7362 145.032 29.6305 144.943 30.5249C144.854 32.3136 145.121 34.1917 145.925 35.7121C146.371 36.4276 146.996 37.1431 147.71 37.2325C148.424 37.3219 149.227 36.8748 149.763 36.2487C150.387 35.6227 150.834 34.9072 151.101 34.0128C151.369 33.2079 151.369 32.3136 151.101 31.5086C150.655 29.8094 149.406 28.3784 148.156 27.1263C147.621 26.6791 146.817 26.5897 146.014 26.6791C145.211 26.7686 144.407 26.9474 143.604 27.2158C142.087 27.7524 140.57 28.5573 139.142 29.5411C136.375 31.4192 133.965 33.834 132.001 36.6065C130.038 39.2895 128.431 42.3303 127.271 45.55C126.735 47.1598 126.289 48.7696 126.021 50.4689C125.843 51.2738 125.754 52.1682 125.664 52.9731C125.575 53.4203 125.575 53.778 125.575 54.2252V54.8512V54.9407H125.486V55.1196L125.129 55.7456Z" fill="#A4E8A0"/>
<path d="M13.9837 3.64745L14.2994 3.58434L14.4986 3.56983L14.5327 3.48716C14.5669 3.4045 14.5327 3.48717 14.6494 3.43858L15.2468 3.39503C15.645 3.366 16.1258 3.37103 16.524 3.342C17.403 3.31801 18.2479 3.37669 19.0927 3.43536C20.7825 3.5527 22.5205 3.78676 24.1903 4.18616C27.564 4.9023 30.8154 6.14848 33.7794 7.85655C36.7434 9.56463 39.5026 11.7687 41.6928 14.4151C42.7879 15.7383 43.8488 17.1441 44.5257 18.7784C44.8642 19.5955 45.2026 20.4127 45.3419 21.2443C45.4813 22.076 45.5181 23.1556 44.9776 23.9968C43.7998 25.4456 42.4229 26.9089 40.5567 27.6863C39.6236 28.075 38.628 28.1476 37.5356 27.9867C36.5599 27.7772 35.6042 27.2857 34.8817 26.697C34.5375 26.3613 34.1108 25.9915 33.8833 25.6073C33.5732 25.1889 33.414 24.6393 33.4538 24.0752C33.4937 23.5111 33.6986 23.0151 34.0684 22.5873C34.4382 22.1594 34.774 21.8143 35.158 21.5859C36.845 20.5409 38.7737 20.0796 40.6483 19.983C41.6098 19.9931 42.5372 20.0859 43.4788 20.378C44.4203 20.6701 45.2253 21.2929 45.9137 21.9643C47.2904 23.307 48.283 24.8782 49.2416 26.5321C50.0834 28.2345 50.7262 29.9514 51.2182 31.7996C51.6277 33.6138 51.9205 35.4765 51.616 37.3827L51.2519 37.3291C51.5223 35.5055 51.2294 33.6428 50.7858 31.9113C50.3422 30.1799 49.6169 28.4288 48.7409 26.8091C47.8648 25.1893 46.8381 23.7008 45.5438 22.3921C44.8555 21.7208 44.1813 21.2488 43.3222 20.9907C42.4632 20.7326 41.5358 20.6399 40.6568 20.6639C38.8988 20.7119 37.0526 21.2072 35.5989 22.155C34.9133 22.6459 34.2419 23.3363 34.2504 24.0171C34.2247 24.7806 34.7139 25.4665 35.4705 25.9726C36.1106 26.5272 36.9355 26.868 37.7946 27.126C38.6053 27.2673 39.5184 27.1607 40.3007 26.9032C41.9336 26.223 43.2423 24.925 44.3859 23.5589C44.7074 23.0143 44.7672 22.1681 44.7104 21.3705C44.5711 20.5389 44.281 19.8385 43.9425 19.0213C43.2315 17.4697 42.3355 16.132 41.2404 14.8088C39.0986 12.2792 36.4561 10.0265 33.5746 8.35252C30.7272 6.59586 27.4758 5.34968 24.2187 4.58496C22.549 4.18556 20.9275 3.9029 19.2378 3.78556C18.3929 3.72689 17.5481 3.66821 16.669 3.6922C16.2708 3.72124 15.7901 3.7162 15.4259 3.66257L14.8285 3.70611C14.8285 3.70611 14.7944 3.78877 14.7461 3.67204L14.6977 3.55531L14.4986 3.56983L13.9837 3.64745Z" fill="#A4E8A0"/>
<path d="M99.1734 25.2295C98.5487 28.8069 97.6561 32.2054 96.6744 35.6934C95.6926 39.1814 94.6215 42.5799 93.2827 45.889C93.9075 42.3116 94.8 38.9131 95.7818 35.4251C96.8529 32.0266 97.9239 28.628 99.1734 25.2295Z" fill="#EE724A"/>
<path d="M106.136 39.8077C102.655 38.7345 99.3526 37.393 96.0503 36.0514C92.748 34.6205 89.4456 33.1895 86.3218 31.4902C89.8026 32.5635 93.105 33.905 96.4073 35.2465C99.7096 36.588 103.012 38.019 106.136 39.8077Z" fill="#EE724A"/>
<path d="M104.083 33.0103C101.584 34.2623 98.9956 35.1567 96.4073 36.0511C93.819 36.9454 91.1414 37.7503 88.4639 38.2869C90.9629 37.0348 93.5513 36.1405 96.1396 35.2461C98.7279 34.3518 101.316 33.5469 104.083 33.0103Z" fill="#EE724A"/>
<path d="M93.3726 28.0918C94.7114 30.5065 95.6931 32.9213 96.6749 35.4255C97.6567 37.9297 98.5492 40.4339 99.174 43.1169C97.8352 40.7022 96.8534 38.2874 95.8716 35.7832C94.8898 33.279 93.9973 30.6854 93.3726 28.0918Z" fill="#EE724A"/>
<path d="M77.3921 63C76.6722 76.641 67.5531 88.1282 54.3543 90.5214C52.6745 90.7607 50.9947 91 49.0749 91C43.5554 91 38.7559 89.5641 34.4363 86.9316C29.1568 83.5812 23.1574 79.7521 20.9976 73.7692C19.7978 70.8974 20.9976 66.3504 20.9976 63C20.9976 55.1026 24.3573 47.9231 29.3968 42.8974C30.5967 41.7009 32.0365 40.5043 33.4764 39.547C35.6362 38.1111 38.036 36.9145 40.6757 36.1966C43.3154 35.4786 45.9552 35 48.8349 35C64.6733 35 78.592 42.1795 77.3921 63Z" fill="#F9DD4A"/>
<path d="M73.9954 110.386C73.7947 114.859 70.7744 118.652 66.3609 119.477C65.7989 119.56 65.237 119.644 64.594 119.65C62.7454 119.666 61.1336 119.21 59.6791 118.36C57.9009 117.278 55.8802 116.041 55.1391 114.086C54.7287 113.149 55.1171 111.654 55.1072 110.556C55.0838 107.967 56.1878 105.604 57.8608 103.941C58.2592 103.545 58.7379 103.149 59.2173 102.831C59.9364 102.353 60.7366 101.954 61.6186 101.71C62.5006 101.467 63.3833 101.302 64.3478 101.294C69.6526 101.246 74.3356 103.557 73.9954 110.386Z" fill="#EF886C"/>
<path d="M53.2533 90.8736L61.0239 83.7304C61.0239 83.7304 75.0374 67.3936 75.4039 65.7638C75.7648 64.3338 70.3586 68.9461 69.6639 69.4872C70.2435 68.783 74.5596 63.1812 75.0644 60.9152C75.5577 59.0488 67.5665 66.0305 67.5665 66.0305C73.6118 55.8763 73.7519 56.56 73.6118 55.8763C73.2952 54.3878 65.6456 63.3786 64.734 64.5137C65.3615 63.5309 69.5012 57.1243 68.7796 55.8248C67.9794 54.4832 57.0998 67.4256 57.0998 67.4256C57.0998 67.4256 57.1729 63.5081 54.4057 61.1131C53.7455 60.4552 52.5787 60.7434 52.0471 61.1689C54.3269 65.2304 50.381 76.0018 50.381 76.0018C50.381 76.0018 48.1979 84.0094 42.191 91.4451L48.4779 91.4451L53.2533 90.8736Z" fill="#D79793"/>
<path d="M27.4353 67.5296L7.52266 59.9521C7.52266 59.9521 12.8965 56.6627 15.7109 51.9023C17.9039 48.481 15.5343 41.0124 19.0059 37.4439C22.1826 34.0452 28.1208 36.7118 32.4476 35.399C35.1355 34.637 37.5897 30.2802 40.4103 30.8158C43.2309 31.3513 44.678 35.0328 46.6139 36.0776C48.7793 37.1865 51.7958 37.0205 52.9123 38.3407C58.132 43.5799 56.6636 49.7246 56.6636 49.7246L27.4353 67.5296Z" fill="#EF886C"/>
<path d="M44.0411 78.8194L41.2509 90.3019C39.5887 90.0855 37.5701 89.3511 36.1072 88.5873C32.4263 87.065 26.9276 83.7032 23.5244 80.0275L27.2828 67.4501L28.3739 63.5428L29.8428 56.5202L29.9712 56.0605C30.5204 54.975 30.9055 53.596 31.5189 52.2807C31.583 52.0509 31.6472 51.8211 31.9397 51.655C34.2007 47.0834 37.6031 42.8305 41.9974 42.0755C41.9974 42.0755 42.2257 42.1393 42.2899 41.9094C42.8107 41.8071 43.3314 41.7048 43.788 41.8323C45.5144 41.8188 47.1766 42.0352 48.7104 42.7113C52.2346 44.191 55.2097 46.7561 56.9506 50.2154C58.3634 53.0875 58.9629 56.2281 58.2927 59.5096C57.0236 67.5791 53.6504 78.7775 44.0411 78.8194Z" fill="#E09F9B"/>
<path d="M31.1941 54.0601C30.7437 55.673 29.5036 56.5686 28.3556 56.248C27.2076 55.9274 26.611 54.5189 27.0614 52.906C27.5118 51.2932 28.7519 50.3976 29.8998 50.7181C31.0478 51.0387 31.6445 52.4472 31.1941 54.0601Z" fill="#BE9791"/>
<path d="M29.1281 53.4824C29.0637 53.7128 28.7698 53.8791 28.5402 53.815C28.3106 53.7509 28.1454 53.4564 28.2097 53.226C28.274 52.9955 28.568 52.8293 28.7976 52.8934C29.1924 53.252 29.1924 53.252 29.1281 53.4824Z" fill="#A37975"/>
<path d="M31.1941 54.0601C30.7437 55.673 29.5036 56.5686 28.3556 56.248C27.2076 55.9274 26.611 54.5189 27.0614 52.906C27.5118 51.2932 28.7519 50.3976 29.8998 50.7181C31.0478 51.0387 31.6445 52.4472 31.1941 54.0601Z" fill="#E09F9B"/>
<path d="M30.0115 52.9845C30.0115 52.9845 28.9279 52.4335 28.4409 53.2911C28.1836 54.2127 29.3315 54.5333 29.3315 54.5333" stroke="#B57A77" stroke-width="0.4282" stroke-miterlimit="10" stroke-linecap="round"/>
<path d="M41.7925 63.9736C42.49 65.9071 43.9407 67.8025 45.7775 68.3154C46.6959 68.5718 47.7429 68.3675 48.7256 68.3935C49.7727 68.1891 50.6545 67.6903 51.7015 67.4859L50.2319 68.3174C49.7083 68.4196 49.1205 68.7522 48.8265 68.9184C47.7795 69.1228 46.7324 69.3272 45.5845 69.0066C44.4365 68.686 43.4172 67.9046 42.9215 67.0211C42.4257 66.1375 41.9943 65.0235 41.7925 63.9736Z" fill="#373949"/>
<path d="M49.5649 52.981C50.6574 55.273 51.4558 57.7314 52.2543 60.1898L52.19 60.4202C51.3082 60.9191 50.4263 61.418 49.5445 61.9169C50.2611 61.1235 51.1429 60.6246 52.089 59.8953L52.0247 60.1257C50.9323 57.8336 50.1338 55.3752 49.5649 52.981Z" fill="#373949"/>
<path d="M45.1832 54.4888C45.2198 55.2442 45.192 56.2299 44.9346 57.1516C44.6772 58.0732 44.4199 58.9949 43.3085 59.4297C42.2614 59.634 41.5361 58.6863 40.976 58.0332C40.4802 57.1496 40.1497 56.5605 39.9479 55.5107L40.0122 55.2802L40.2418 55.3444C40.508 56.1638 40.7741 56.9833 41.3342 57.6365C41.8943 58.2896 42.4544 58.9428 42.978 58.8406C43.7311 58.8025 43.9884 57.8809 44.4111 57.2538C44.6041 56.5625 44.8615 55.6409 44.8249 54.8855C44.724 54.3606 44.9536 54.4247 45.1832 54.4888C45.1832 54.4888 44.9536 54.4247 45.1832 54.4888Z" fill="#373949"/>
<path d="M56.6166 55.1983C56.6531 55.9536 56.6254 56.9394 56.4323 57.6306C56.3036 58.0915 56.2393 58.3219 56.1106 58.7827C55.9819 59.2435 55.6236 59.6402 55.1001 59.7424C54.5766 59.8446 54.1818 59.4859 53.7869 59.1273C53.3921 58.7687 53.2268 58.4741 53.1259 57.9492C52.8597 57.1297 52.5936 56.3103 52.3274 55.4908L52.3918 55.2604L52.6214 55.3245C52.8875 56.144 53.218 56.733 53.4842 57.5525C53.8147 58.1415 54.3104 59.0251 54.834 58.9229C55.3575 58.8208 55.6149 57.8991 55.8079 57.2079C56.0009 56.5166 56.0287 55.5309 56.2217 54.8396C56.1574 55.0701 56.4513 54.9038 56.6166 55.1983C56.6809 54.9679 56.4513 54.9038 56.6166 55.1983Z" fill="#373949"/>
<path d="M36.0301 34.3653C36.0301 34.3653 49.4334 52.4457 56.6295 49.8467C56.3409 50.0222 54.3844 33.8582 36.0301 34.3653Z" fill="#EF886C"/>
<path d="M43.7184 40.8325C43.7184 40.8325 37.3303 49.5039 31.2669 50.7979L26.0527 44.612C26.3387 42.7004 37.5563 35.3777 43.7184 40.8325Z" fill="#EF886C"/>
<path d="M34.1123 67.5429C36.9019 68.3219 39.7683 66.787 40.5146 64.1147C41.2608 61.4424 39.6043 58.6446 36.8147 57.8656C34.0251 57.0866 31.1587 58.6214 30.4125 61.2937C29.6662 63.966 31.3227 66.7639 34.1123 67.5429Z" fill="#EBBDBC"/>
<path d="M144.001 88.8952C142.412 95.0086 141.617 100.856 137.645 104.843C133.672 108.83 128.375 111.488 122.548 112.02C122.018 112.02 121.488 112.02 120.959 112.02C120.164 112.02 119.369 112.02 118.84 112.02C107.186 110.957 98.9756 105.375 98.9756 88.6294C98.9756 75.871 102.684 62.0494 120.959 65.7706C133.407 68.1628 147.179 76.4026 144.001 88.8952Z" fill="#A4E8A0"/>
<path d="M137.379 96.6028L137.644 104.843C133.671 108.83 128.374 111.488 122.547 112.019C122.017 112.019 121.487 112.019 120.958 112.019C120.163 112.019 119.369 112.019 118.839 112.019V106.969C109.834 104.311 109.569 93.1474 110.364 85.1735C111.158 77.9969 116.72 72.4151 123.871 71.8835C125.99 71.6177 128.374 71.8835 130.493 72.9467C135.525 75.6047 137.379 83.3129 138.173 89.1604L137.379 96.6028Z" fill="#C18987"/>
<path d="M130.492 105.64C130.227 105.906 127.049 109.361 122.282 112.019C121.752 112.019 121.222 112.019 120.693 112.019C119.898 112.019 119.103 112.019 118.574 112.019V106.969C118.574 106.969 124.665 107.501 130.492 105.64Z" fill="#AD7777"/>
<path d="M136.585 87.0335C136.585 88.6283 137.38 89.9573 138.704 89.9573C139.764 89.9573 140.823 88.8941 140.823 87.2993C140.823 85.7045 140.029 84.3755 138.704 84.3755C137.645 84.3755 136.585 85.7045 136.585 87.0335Z" fill="#BE9791"/>
<path d="M138.705 87.2998C138.705 87.5663 138.971 87.5663 138.971 87.5663C139.236 87.5663 139.236 87.2998 139.236 87.2998C139.236 87.0332 138.971 87.0332 138.971 87.0332C138.971 86.7667 138.705 87.0332 138.705 87.2998Z" fill="#A37975"/>
<path d="M118.574 106.969C119.633 106.969 120.428 106.969 121.222 106.703C122.017 106.437 122.811 106.437 123.606 106.171C125.195 105.64 126.784 105.108 128.638 104.577C128.109 105.374 127.314 105.906 126.519 106.437C125.725 106.969 124.93 107.235 123.871 107.5C123.076 107.766 122.017 108.032 120.957 107.766C120.428 107.766 119.368 107.5 118.574 106.969Z" fill="#383A4A"/>
<path d="M136.585 87.0335C136.585 88.6283 137.38 89.9573 138.704 89.9573C139.764 89.9573 140.823 88.8941 140.823 87.2993C140.823 85.7045 140.029 84.3755 138.704 84.3755C137.645 84.3755 136.585 85.7045 136.585 87.0335Z" fill="#C18987"/>
<path d="M138.173 86.5037C138.173 86.5037 139.498 86.2379 139.498 87.3011C139.498 88.3643 138.438 88.0984 138.438 88.0984" stroke="#B57A77" stroke-width="0.4282" stroke-miterlimit="10" stroke-linecap="round"/>
<path d="M124.137 93.6812C123.342 93.947 122.547 94.7443 121.488 95.0101C120.693 95.5417 119.634 95.8076 118.839 96.0733C117.78 96.3391 116.721 96.3391 115.926 96.0733C114.867 95.8076 114.337 94.7444 113.807 93.947C114.337 94.7444 115.131 95.2759 115.926 95.5417C116.721 95.8075 117.78 95.5418 118.575 95.276C119.369 95.0102 120.429 94.7444 121.223 94.2128C122.283 94.2128 123.077 93.6812 124.137 93.6812Z" fill="#373949"/>
<path d="M120.164 81.189C119.104 83.5812 117.78 85.4418 116.191 87.5681V87.3024C116.721 88.0998 117.515 88.8971 118.045 89.9603C117.25 89.1629 116.456 88.6314 115.926 87.834L115.661 87.5681V87.3024C117.25 85.176 118.575 83.0496 120.164 81.189Z" fill="#373949"/>
<path d="M123.873 84.1111C123.608 84.9085 123.608 85.7059 123.608 86.5033C123.608 87.3007 123.873 88.0981 124.403 88.3639C124.932 88.6297 125.727 88.3639 126.257 87.8323C126.786 87.3007 127.316 86.7691 127.846 85.9717H128.111V86.2375C127.581 87.0349 127.051 87.5665 126.521 88.3639C125.992 88.8955 124.932 89.6929 123.873 89.1613C122.813 88.6297 122.813 87.5665 122.813 86.7691C122.813 85.9717 123.078 85.1743 123.343 84.3769C123.608 83.8453 123.608 83.8453 123.873 84.1111C123.873 84.1111 123.873 83.8453 123.873 84.1111Z" fill="#373949"/>
<path d="M113.012 81.7203C112.747 82.5177 112.747 83.3152 112.747 84.1126C112.747 84.91 112.747 85.7074 113.277 85.9732C113.807 86.239 114.337 85.7074 114.866 84.91C115.396 84.3784 115.926 83.5809 116.191 83.0493H116.455V83.3152C116.191 84.1126 115.661 84.6442 115.131 85.4416C114.866 85.7074 114.601 85.9732 114.337 86.239C114.072 86.5048 113.542 86.7706 113.012 86.5048C112.483 86.239 112.218 85.7074 112.218 85.4416C112.218 84.91 112.218 84.6442 112.218 84.1126C112.218 83.3152 112.483 82.5177 112.747 81.7203C112.747 81.4545 112.747 81.4545 113.012 81.7203C113.012 81.4545 113.012 81.4545 113.012 81.7203Z" fill="#373949"/>
<path d="M114.338 66.5687C112.484 67.1003 114.073 71.0873 114.073 72.9479C114.073 74.5427 112.484 75.6059 114.338 76.4032C115.398 76.9348 120.43 75.8717 122.284 75.8717C125.992 75.6059 127.316 76.4033 128.905 76.1375C131.819 75.3401 132.084 75.3401 132.348 79.8587C132.613 83.3141 133.938 84.9089 134.997 85.1747C136.321 85.7063 137.381 85.1747 137.381 85.1747C137.381 85.1747 137.91 82.2509 138.97 78.7955C139.5 76.9349 144.797 76.4033 137.91 72.1505C136.321 71.0873 134.997 66.5687 132.348 65.5055C129.965 64.7081 127.316 67.1003 123.343 67.6319C121.754 68.1635 116.457 66.0371 114.338 66.5687Z" fill="#373949"/>
<path d="M111.424 98.4648C111.953 99.528 113.807 101.389 116.986 101.389C120.164 101.389 123.872 100.06 125.991 98.9964C128.11 97.9332 128.639 96.87 129.964 93.9462C131.288 91.0224 131.553 89.6934 132.082 88.3644C132.612 87.0354 133.936 84.1116 134.466 83.0484C134.996 81.9852 136.055 81.9852 136.055 83.0484C136.055 84.1116 134.731 88.0986 135.79 89.4276C136.585 90.7566 135.261 93.9462 134.996 96.0726C134.731 98.4648 133.936 102.452 132.082 104.047C129.964 105.641 128.11 105.907 125.726 107.502C123.872 108.831 121.753 109.628 119.899 109.097C118.045 108.565 116.721 109.894 114.337 107.236C111.953 104.578 109.834 104.312 110.099 101.389C110.364 99.528 109.834 91.2882 109.834 92.6172C110.099 94.4778 110.629 97.6674 111.424 98.4648Z" fill="#373949"/>
</svg>
