<?xml version="1.0" encoding="utf-8"?>
<!-- Generator: Adobe Illustrator 21.1.0, SVG Export Plug-In . SVG Version: 6.00 Build 0)  -->
<svg version="1.1" id="Layer_1" xmlns="http://www.w3.org/2000/svg" xmlns:xlink="http://www.w3.org/1999/xlink" x="0px" y="0px"
	 viewBox="0 0 283.5 283.5" style="enable-background:new 0 0 283.5 283.5;" xml:space="preserve">
<style type="text/css">
	.st0{fill-rule:evenodd;clip-rule:evenodd;fill:#DDC153;}
</style>
<g>
	<path class="st0" d="M239.5,150.5l2.3-0.2c0.1,0.8,0.4,1.3,0.8,1.7c0.4,0.4,1,0.5,1.7,0.5c0.8,0,1.3-0.2,1.7-0.5
		c0.4-0.3,0.6-0.7,0.6-1.1c0-0.3-0.1-0.5-0.2-0.7c-0.2-0.2-0.4-0.4-0.8-0.5c-0.3-0.1-0.9-0.3-1.9-0.5c-1.3-0.3-2.1-0.7-2.7-1.2
		c-0.7-0.6-1.1-1.4-1.1-2.3c0-0.6,0.2-1.1,0.5-1.7c0.3-0.5,0.8-0.9,1.5-1.2c0.6-0.3,1.4-0.4,2.3-0.4c1.5,0,2.6,0.3,3.3,1
		c0.7,0.6,1.1,1.5,1.2,2.6l-2.4,0.1c-0.1-0.6-0.3-1-0.6-1.3c-0.3-0.3-0.8-0.4-1.5-0.4c-0.7,0-1.2,0.1-1.6,0.4
		c-0.2,0.2-0.4,0.4-0.4,0.7c0,0.3,0.1,0.5,0.4,0.7c0.3,0.2,1,0.5,2.2,0.8c1.1,0.3,2,0.6,2.5,0.8c0.5,0.3,1,0.7,1.3,1.2
		c0.3,0.5,0.5,1.1,0.5,1.9c0,0.7-0.2,1.3-0.6,1.9c-0.4,0.6-0.9,1-1.6,1.3c-0.7,0.3-1.5,0.4-2.5,0.4c-1.5,0-2.6-0.3-3.4-1
		C240.1,152.8,239.6,151.8,239.5,150.5L239.5,150.5z M222.7,154.2v-9.7h-3.5v-2h9.3v2H225v9.7H222.7L222.7,154.2z M200.6,147.5h1.7
		c1.1,0,1.8,0,2.1-0.1c0.3-0.1,0.5-0.3,0.7-0.5c0.2-0.2,0.2-0.5,0.2-0.9c0-0.4-0.1-0.7-0.3-1c-0.2-0.2-0.5-0.4-0.9-0.5
		c-0.2,0-0.8,0-1.7,0h-1.8V147.5L200.6,147.5z M198.3,154.2v-11.7h5c1.2,0,2.2,0.1,2.7,0.3c0.6,0.2,1,0.6,1.4,1.1
		c0.3,0.5,0.5,1.1,0.5,1.8c0,0.9-0.3,1.6-0.8,2.2c-0.5,0.6-1.3,0.9-2.3,1.1c0.5,0.3,0.9,0.6,1.3,1c0.3,0.4,0.8,1,1.3,1.9l1.4,2.3
		h-2.8l-1.7-2.5c-0.6-0.9-1-1.5-1.2-1.7c-0.2-0.2-0.5-0.4-0.7-0.5c-0.2-0.1-0.6-0.1-1.2-0.1h-0.5v4.9H198.3L198.3,154.2z
		 M182.6,149.6l-1.6-4.3l-1.6,4.3H182.6L182.6,149.6z M187,154.2h-2.6l-1-2.7h-4.7l-1,2.7h-2.5l4.5-11.7h2.5L187,154.2L187,154.2z
		 M159.1,144.6v3.3h1.3c0.9,0,1.6-0.1,1.9-0.2c0.3-0.1,0.6-0.3,0.7-0.6c0.2-0.3,0.3-0.6,0.3-0.9c0-0.4-0.1-0.8-0.4-1.1
		c-0.2-0.3-0.6-0.4-0.9-0.5c-0.3-0.1-0.8-0.1-1.7-0.1H159.1L159.1,144.6z M156.7,154.2v-11.7h3.8c1.4,0,2.4,0.1,2.8,0.2
		c0.7,0.2,1.2,0.6,1.7,1.1c0.5,0.6,0.7,1.3,0.7,2.3c0,0.7-0.1,1.3-0.4,1.8c-0.3,0.5-0.6,0.9-1,1.2c-0.4,0.3-0.8,0.5-1.2,0.6
		c-0.6,0.1-1.4,0.2-2.4,0.2h-1.5v4.4H156.7L156.7,154.2z M124.7,147.5h1.7c1.1,0,1.8,0,2.1-0.1c0.3-0.1,0.5-0.3,0.7-0.5
		c0.2-0.2,0.2-0.5,0.2-0.9c0-0.4-0.1-0.7-0.3-1c-0.2-0.2-0.5-0.4-0.9-0.5c-0.2,0-0.8,0-1.7,0h-1.8V147.5L124.7,147.5z M122.3,154.2
		v-11.7h5c1.2,0,2.2,0.1,2.7,0.3c0.6,0.2,1,0.6,1.4,1.1c0.3,0.5,0.5,1.1,0.5,1.8c0,0.9-0.3,1.6-0.8,2.2c-0.5,0.6-1.3,0.9-2.3,1.1
		c0.5,0.3,0.9,0.6,1.3,1c0.3,0.4,0.8,1,1.3,1.9l1.4,2.3H130l-1.7-2.5c-0.6-0.9-1-1.5-1.2-1.7c-0.2-0.2-0.5-0.4-0.7-0.5
		c-0.3-0.1-0.6-0.1-1.2-0.1h-0.5v4.9H122.3L122.3,154.2z M101.4,154.2v-11.7h8.6v2h-6.3v2.6h5.9v2h-5.9v3.2h6.5v2H101.4L101.4,154.2
		z M82,149.2v3.1h2.2c0.8,0,1.4,0,1.6-0.1c0.3-0.1,0.6-0.2,0.9-0.5c0.2-0.2,0.3-0.6,0.3-1c0-0.4-0.1-0.6-0.3-0.9
		c-0.2-0.2-0.4-0.4-0.7-0.5c-0.3-0.1-1-0.2-2.1-0.2H82L82,149.2z M82,144.5v2.7h1.5c0.9,0,1.5,0,1.7,0c0.4,0,0.7-0.2,1-0.4
		c0.2-0.2,0.3-0.5,0.3-0.9c0-0.4-0.1-0.7-0.3-0.9c-0.2-0.2-0.5-0.4-0.9-0.4c-0.2,0-0.9,0-2,0H82L82,144.5z M79.6,142.6h4.7
		c0.9,0,1.6,0,2.1,0.1c0.5,0.1,0.9,0.2,1.2,0.5c0.4,0.2,0.7,0.6,0.9,1c0.2,0.4,0.4,0.9,0.4,1.4c0,0.5-0.1,1-0.4,1.5
		c-0.3,0.5-0.7,0.8-1.2,1c0.7,0.2,1.3,0.6,1.6,1.1c0.4,0.5,0.6,1.1,0.6,1.8c0,0.5-0.1,1-0.4,1.5c-0.2,0.5-0.6,0.9-1,1.2
		c-0.4,0.3-1,0.5-1.6,0.6c-0.4,0-1.3,0.1-2.8,0.1h-4V142.6L79.6,142.6z M60.2,149.2v3.1h2.2c0.8,0,1.4,0,1.6-0.1
		c0.4-0.1,0.6-0.2,0.9-0.5c0.2-0.2,0.3-0.6,0.3-1c0-0.4-0.1-0.6-0.3-0.9c-0.2-0.2-0.4-0.4-0.7-0.5c-0.3-0.1-1-0.2-2.1-0.2H60.2
		L60.2,149.2z M60.2,144.5v2.7h1.5c0.9,0,1.5,0,1.7,0c0.4,0,0.7-0.2,1-0.4c0.2-0.2,0.3-0.5,0.3-0.9c0-0.4-0.1-0.7-0.3-0.9
		c-0.2-0.2-0.5-0.4-0.9-0.4c-0.2,0-0.9,0-2,0H60.2L60.2,144.5z M57.8,142.6h4.7c0.9,0,1.6,0,2.1,0.1c0.5,0.1,0.9,0.2,1.2,0.5
		c0.4,0.2,0.7,0.6,0.9,1c0.2,0.4,0.4,0.9,0.4,1.4c0,0.5-0.1,1-0.4,1.5c-0.3,0.5-0.7,0.8-1.2,1c0.7,0.2,1.3,0.6,1.6,1.1
		c0.4,0.5,0.6,1.1,0.6,1.8c0,0.5-0.1,1-0.4,1.5c-0.2,0.5-0.6,0.9-1,1.2c-0.4,0.3-1,0.5-1.6,0.6c-0.4,0-1.3,0.1-2.8,0.1h-4V142.6
		L57.8,142.6z M36,142.6h2.4v6.3c0,1,0,1.7,0.1,1.9c0.1,0.5,0.3,0.9,0.7,1.1c0.4,0.3,0.9,0.4,1.6,0.4c0.7,0,1.2-0.1,1.5-0.4
		c0.3-0.3,0.5-0.6,0.6-1c0.1-0.4,0.1-1.1,0.1-2v-6.5h2.4v6.1c0,1.4-0.1,2.4-0.2,3c-0.1,0.6-0.4,1.1-0.7,1.5c-0.3,0.4-0.8,0.7-1.4,1
		c-0.6,0.2-1.3,0.4-2.2,0.4c-1.1,0-2-0.1-2.5-0.4c-0.6-0.3-1-0.6-1.4-1c-0.3-0.4-0.6-0.8-0.7-1.3c-0.2-0.7-0.2-1.7-0.2-3V142.6
		L36,142.6z M16.5,147.5h1.7c1.1,0,1.8,0,2.1-0.1c0.3-0.1,0.5-0.3,0.7-0.5c0.2-0.2,0.2-0.5,0.2-0.9c0-0.4-0.1-0.7-0.3-1
		c-0.2-0.2-0.5-0.4-0.9-0.5c-0.2,0-0.8,0-1.7,0h-1.8V147.5L16.5,147.5z M14.2,154.2v-11.7h5c1.2,0,2.2,0.1,2.7,0.3
		c0.6,0.2,1,0.6,1.4,1.1c0.3,0.5,0.5,1.1,0.5,1.8c0,0.9-0.3,1.6-0.8,2.2c-0.5,0.6-1.3,0.9-2.3,1.1c0.5,0.3,0.9,0.6,1.3,1
		c0.3,0.4,0.8,1,1.3,1.9l1.4,2.3h-2.8l-1.7-2.5c-0.6-0.9-1-1.5-1.2-1.7c-0.2-0.2-0.5-0.4-0.7-0.5c-0.2-0.1-0.6-0.1-1.2-0.1h-0.5v4.9
		H14.2L14.2,154.2z M120,96.8H51.9v7.2v3.8v7.5v8.3v8.3v1.3h-1.3H39.3H38v-1.3V87.9v-1.3h1.3h85.9c2,0,3.8,0.2,5.4,0.5
		c1.6,0.4,3,0.9,4.1,1.7c1.1,0.8,1.9,1.8,2.4,3.2c0.5,1.3,0.7,2.7,0.7,4.4v10.3c0,1.6-0.2,3.1-0.7,4.3c-0.5,1.3-1.3,2.3-2.3,3.1
		c-1,0.8-2.4,1.4-4,1.8c-1.6,0.4-3.4,0.5-5.5,0.5h-18l28.2,14.2l4.8,2.4h-5.4h-16.6H118l-0.3-0.1l-34.8-16.6l-0.7-0.3v-0.8v-7.5
		v-1.3h1.3H120c1,0,1.7-0.1,2.3-0.2c0.5-0.1,0.9-0.2,1.1-0.4c0.2-0.1,0.3-0.3,0.4-0.5l0,0c0.1-0.3,0.2-0.7,0.2-1.2V99
		c0-0.5-0.1-0.9-0.2-1.2c-0.1-0.2-0.2-0.4-0.3-0.5c-0.2-0.2-0.6-0.3-1.1-0.4C121.8,96.8,121,96.8,120,96.8L120,96.8z M11,131.8V87.9
		v-1.3h1.3h11.6h1.3l0,1.3l0.1,43.9l0,1.3h-1.3H12.2H11V131.8L11,131.8z M238,97h-71.5v25.3H238V120v-1l1-0.2l11.6-2.6l1.6-0.3v1.6
		v4c0,2.1-0.2,3.9-0.7,5.4c-0.5,1.6-1.2,2.9-2.3,3.8c-1,0.9-2.5,1.5-4.3,1.9c-1.7,0.4-3.9,0.6-6.4,0.6h-72.5c-2.5,0-4.6-0.2-6.3-0.6
		c-1.9-0.4-3.3-1-4.3-1.9c-1-0.9-1.8-2.2-2.3-3.8c-0.4-1.5-0.7-3.3-0.7-5.4V98.3c0-2.1,0.2-3.9,0.7-5.4c0.5-1.6,1.2-2.8,2.3-3.7
		c1-0.9,2.5-1.5,4.3-2c1.7-0.4,3.9-0.6,6.3-0.6h72.5c2.5,0,4.6,0.2,6.3,0.6c1.8,0.4,3.3,1.1,4.3,2c1,0.9,1.8,2.1,2.3,3.7
		c0.5,1.5,0.7,3.3,0.7,5.4v1l-1,0.2l-11.6,2.5l-1.5,0.3v-1.6V97L238,97z M11,138.7h241.2v19.4H11V138.7L11,138.7z"/>
</g>
</svg>
