<?xml version="1.0" encoding="utf-8"?>
<!-- Generator: Adobe Illustrator 21.1.0, SVG Export Plug-In . SVG Version: 6.00 Build 0)  -->
<svg version="1.1" id="Layer_1" xmlns="http://www.w3.org/2000/svg" xmlns:xlink="http://www.w3.org/1999/xlink" x="0px" y="0px"
	 viewBox="0 0 283.5 283.5" style="enable-background:new 0 0 283.5 283.5;" xml:space="preserve">
<style type="text/css">
	.st0{fill:#818183;}
	.st1{fill-rule:evenodd;clip-rule:evenodd;fill:#818183;}
	.st2{fill-rule:evenodd;clip-rule:evenodd;fill:#27B0DF;}
	.st3{fill-rule:evenodd;clip-rule:evenodd;fill:#28B0DE;}
	.st4{fill-rule:evenodd;clip-rule:evenodd;fill:#29B0DE;}
	.st5{fill-rule:evenodd;clip-rule:evenodd;fill:#2AB0DD;}
	.st6{fill-rule:evenodd;clip-rule:evenodd;fill:#2BB0DD;}
	.st7{fill-rule:evenodd;clip-rule:evenodd;fill:#2CB0DC;}
	.st8{fill-rule:evenodd;clip-rule:evenodd;fill:#2DB0DC;}
	.st9{fill-rule:evenodd;clip-rule:evenodd;fill:#2EB1DB;}
	.st10{fill-rule:evenodd;clip-rule:evenodd;fill:#2FB1DB;}
	.st11{fill-rule:evenodd;clip-rule:evenodd;fill:#30B1DA;}
	.st12{fill-rule:evenodd;clip-rule:evenodd;fill:#30B1DB;}
	.st13{fill-rule:evenodd;clip-rule:evenodd;fill:#31B1DB;}
	.st14{fill-rule:evenodd;clip-rule:evenodd;fill:#32B1DB;}
	.st15{fill-rule:evenodd;clip-rule:evenodd;fill:#33B1DA;}
	.st16{fill-rule:evenodd;clip-rule:evenodd;fill:#34B1DA;}
	.st17{fill-rule:evenodd;clip-rule:evenodd;fill:#35B1DA;}
	.st18{fill-rule:evenodd;clip-rule:evenodd;fill:#36B1DA;}
	.st19{fill-rule:evenodd;clip-rule:evenodd;fill:#37B2DA;}
	.st20{fill-rule:evenodd;clip-rule:evenodd;fill:#38B2DA;}
	.st21{fill-rule:evenodd;clip-rule:evenodd;fill:#39B2D9;}
	.st22{fill-rule:evenodd;clip-rule:evenodd;fill:#3AB2D9;}
	.st23{fill-rule:evenodd;clip-rule:evenodd;fill:#3AB2DA;}
	.st24{fill-rule:evenodd;clip-rule:evenodd;fill:#3BB2DA;}
	.st25{fill-rule:evenodd;clip-rule:evenodd;fill:#3CB2DA;}
	.st26{fill-rule:evenodd;clip-rule:evenodd;fill:#3EB3DA;}
	.st27{fill-rule:evenodd;clip-rule:evenodd;fill:#3FB3DA;}
	.st28{fill-rule:evenodd;clip-rule:evenodd;fill:#40B3DA;}
	.st29{fill-rule:evenodd;clip-rule:evenodd;fill:#41B3DA;}
	.st30{fill-rule:evenodd;clip-rule:evenodd;fill:#42B3D9;}
	.st31{fill-rule:evenodd;clip-rule:evenodd;fill:#44B4DA;}
	.st32{fill-rule:evenodd;clip-rule:evenodd;fill:#45B4D9;}
	.st33{fill-rule:evenodd;clip-rule:evenodd;fill:#46B4D9;}
	.st34{fill-rule:evenodd;clip-rule:evenodd;fill:#47B4DA;}
	.st35{fill-rule:evenodd;clip-rule:evenodd;fill:#48B5DA;}
	.st36{fill-rule:evenodd;clip-rule:evenodd;fill:#4AB5DA;}
	.st37{fill-rule:evenodd;clip-rule:evenodd;fill:#4BB5DA;}
	.st38{fill-rule:evenodd;clip-rule:evenodd;fill:#4CB5D9;}
	.st39{fill-rule:evenodd;clip-rule:evenodd;fill:#4DB6DA;}
	.st40{fill-rule:evenodd;clip-rule:evenodd;fill:#4EB6DA;}
	.st41{fill-rule:evenodd;clip-rule:evenodd;fill:#4FB6D9;}
	.st42{fill-rule:evenodd;clip-rule:evenodd;fill:#51B7DA;}
	.st43{fill-rule:evenodd;clip-rule:evenodd;fill:#52B7D9;}
	.st44{fill-rule:evenodd;clip-rule:evenodd;fill:#53B7D9;}
	.st45{fill-rule:evenodd;clip-rule:evenodd;fill:#53B7DA;}
	.st46{fill-rule:evenodd;clip-rule:evenodd;fill:#55B8DA;}
	.st47{fill-rule:evenodd;clip-rule:evenodd;fill:#56B8DA;}
	.st48{fill-rule:evenodd;clip-rule:evenodd;fill:#57B8DA;}
	.st49{fill-rule:evenodd;clip-rule:evenodd;fill:#58B9DA;}
	.st50{fill-rule:evenodd;clip-rule:evenodd;fill:#59B9DB;}
	.st51{fill-rule:evenodd;clip-rule:evenodd;fill:#5AB9DB;}
	.st52{fill-rule:evenodd;clip-rule:evenodd;fill:#5BB9DA;}
	.st53{fill-rule:evenodd;clip-rule:evenodd;fill:#5CBADB;}
	.st54{fill-rule:evenodd;clip-rule:evenodd;fill:#5DBADB;}
	.st55{fill-rule:evenodd;clip-rule:evenodd;fill:#5EBADB;}
	.st56{fill-rule:evenodd;clip-rule:evenodd;fill:#5FBADB;}
	.st57{fill-rule:evenodd;clip-rule:evenodd;fill:#61BBDB;}
	.st58{fill-rule:evenodd;clip-rule:evenodd;fill:#62BBDB;}
	.st59{fill-rule:evenodd;clip-rule:evenodd;fill:#62BBDC;}
	.st60{fill-rule:evenodd;clip-rule:evenodd;fill:#63BCDC;}
	.st61{fill-rule:evenodd;clip-rule:evenodd;fill:#65BCDC;}
	.st62{fill-rule:evenodd;clip-rule:evenodd;fill:#66BCDC;}
	.st63{fill-rule:evenodd;clip-rule:evenodd;fill:#67BDDD;}
	.st64{fill-rule:evenodd;clip-rule:evenodd;fill:#68BDDC;}
	.st65{fill-rule:evenodd;clip-rule:evenodd;fill:#69BDDD;}
	.st66{fill-rule:evenodd;clip-rule:evenodd;fill:#6ABEDC;}
	.st67{fill-rule:evenodd;clip-rule:evenodd;fill:#6BBEDC;}
	.st68{fill-rule:evenodd;clip-rule:evenodd;fill:#6DBFDD;}
	.st69{fill-rule:evenodd;clip-rule:evenodd;fill:#6EBFDC;}
	.st70{fill-rule:evenodd;clip-rule:evenodd;fill:#6FBFDD;}
	.st71{fill-rule:evenodd;clip-rule:evenodd;fill:#6FC0DD;}
	.st72{fill-rule:evenodd;clip-rule:evenodd;fill:#71C0DD;}
	.st73{fill-rule:evenodd;clip-rule:evenodd;fill:#72C0DD;}
	.st74{fill-rule:evenodd;clip-rule:evenodd;fill:#73C1DE;}
	.st75{fill-rule:evenodd;clip-rule:evenodd;fill:#75C1DE;}
	.st76{fill-rule:evenodd;clip-rule:evenodd;fill:#76C2DE;}
	.st77{fill-rule:evenodd;clip-rule:evenodd;fill:#77C2DF;}
	.st78{fill-rule:evenodd;clip-rule:evenodd;fill:#78C2DE;}
	.st79{fill-rule:evenodd;clip-rule:evenodd;fill:#79C3DF;}
	.st80{fill-rule:evenodd;clip-rule:evenodd;fill:#7AC3DF;}
	.st81{fill-rule:evenodd;clip-rule:evenodd;fill:#7BC4DE;}
	.st82{fill-rule:evenodd;clip-rule:evenodd;fill:#7CC4DF;}
	.st83{fill-rule:evenodd;clip-rule:evenodd;fill:#7EC5DF;}
	.st84{fill-rule:evenodd;clip-rule:evenodd;fill:#7FC5DF;}
	.st85{fill-rule:evenodd;clip-rule:evenodd;fill:#80C5DF;}
	.st86{fill-rule:evenodd;clip-rule:evenodd;fill:#81C6E0;}
	.st87{fill-rule:evenodd;clip-rule:evenodd;fill:#83C6DF;}
	.st88{fill-rule:evenodd;clip-rule:evenodd;fill:#84C7E1;}
	.st89{fill-rule:evenodd;clip-rule:evenodd;fill:#85C7E1;}
	.st90{fill-rule:evenodd;clip-rule:evenodd;fill:#86C8E1;}
	.st91{fill-rule:evenodd;clip-rule:evenodd;fill:#87C8E1;}
	.st92{fill-rule:evenodd;clip-rule:evenodd;fill:#88C9E2;}
	.st93{fill-rule:evenodd;clip-rule:evenodd;fill:#89C9E1;}
	.st94{fill-rule:evenodd;clip-rule:evenodd;fill:#8BCAE2;}
	.st95{fill-rule:evenodd;clip-rule:evenodd;fill:#8CCAE2;}
	.st96{fill-rule:evenodd;clip-rule:evenodd;fill:#8DCBE2;}
	.st97{fill-rule:evenodd;clip-rule:evenodd;fill:#8FCBE2;}
	.st98{fill-rule:evenodd;clip-rule:evenodd;fill:#90CCE3;}
	.st99{fill-rule:evenodd;clip-rule:evenodd;fill:#92CDE3;}
	.st100{fill-rule:evenodd;clip-rule:evenodd;fill:#93CDE3;}
	.st101{fill-rule:evenodd;clip-rule:evenodd;fill:#94CDE4;}
	.st102{fill-rule:evenodd;clip-rule:evenodd;fill:#95CEE4;}
	.st103{fill-rule:evenodd;clip-rule:evenodd;fill:#97CFE5;}
	.st104{fill-rule:evenodd;clip-rule:evenodd;fill:#98CFE4;}
	.st105{fill-rule:evenodd;clip-rule:evenodd;fill:#99CFE5;}
	.st106{fill-rule:evenodd;clip-rule:evenodd;fill:#9BD0E5;}
	.st107{fill-rule:evenodd;clip-rule:evenodd;fill:#9CD1E5;}
	.st108{fill-rule:evenodd;clip-rule:evenodd;fill:#9DD1E5;}
	.st109{fill-rule:evenodd;clip-rule:evenodd;fill:#9DD1E6;}
	.st110{fill-rule:evenodd;clip-rule:evenodd;fill:#9FD2E6;}
	.st111{fill-rule:evenodd;clip-rule:evenodd;fill:#A0D2E6;}
	.st112{fill-rule:evenodd;clip-rule:evenodd;fill:#A1D3E6;}
	.st113{fill-rule:evenodd;clip-rule:evenodd;fill:#A3D4E6;}
	.st114{fill-rule:evenodd;clip-rule:evenodd;fill:#A4D4E7;}
	.st115{fill-rule:evenodd;clip-rule:evenodd;fill:#A5D5E8;}
	.st116{fill-rule:evenodd;clip-rule:evenodd;fill:#A6D5E8;}
	.st117{fill-rule:evenodd;clip-rule:evenodd;fill:#A8D6E8;}
	.st118{fill-rule:evenodd;clip-rule:evenodd;fill:#A8D6E9;}
	.st119{fill-rule:evenodd;clip-rule:evenodd;fill:#A9D7E8;}
	.st120{fill-rule:evenodd;clip-rule:evenodd;fill:#AAD7E9;}
	.st121{fill-rule:evenodd;clip-rule:evenodd;fill:#ACD8EA;}
	.st122{fill-rule:evenodd;clip-rule:evenodd;fill:#ADD8E9;}
	.st123{fill-rule:evenodd;clip-rule:evenodd;fill:#AED9E9;}
	.st124{fill-rule:evenodd;clip-rule:evenodd;fill:#AFD9EA;}
	.st125{fill-rule:evenodd;clip-rule:evenodd;fill:#B1DAEA;}
	.st126{fill-rule:evenodd;clip-rule:evenodd;fill:#B2DAEA;}
	.st127{fill-rule:evenodd;clip-rule:evenodd;fill:#B3DBEB;}
	.st128{fill-rule:evenodd;clip-rule:evenodd;fill:#B5DCEC;}
	.st129{fill-rule:evenodd;clip-rule:evenodd;fill:#B6DDEC;}
	.st130{fill-rule:evenodd;clip-rule:evenodd;fill:#B7DDEC;}
	.st131{fill-rule:evenodd;clip-rule:evenodd;fill:#B8DDEC;}
	.st132{fill-rule:evenodd;clip-rule:evenodd;fill:#BADEED;}
	.st133{fill-rule:evenodd;clip-rule:evenodd;fill:#BBDFED;}
	.st134{fill-rule:evenodd;clip-rule:evenodd;fill:#BCDFED;}
	.st135{fill-rule:evenodd;clip-rule:evenodd;fill:#BDE0EE;}
	.st136{fill-rule:evenodd;clip-rule:evenodd;fill:#BFE1EE;}
	.st137{fill-rule:evenodd;clip-rule:evenodd;fill:#C0E1EE;}
	.st138{fill-rule:evenodd;clip-rule:evenodd;fill:#C1E2EF;}
	.st139{fill-rule:evenodd;clip-rule:evenodd;fill:#C3E2EF;}
	.st140{fill-rule:evenodd;clip-rule:evenodd;fill:#C4E3EF;}
	.st141{fill-rule:evenodd;clip-rule:evenodd;fill:#C6E3F0;}
	.st142{fill-rule:evenodd;clip-rule:evenodd;fill:#C6E4EF;}
	.st143{fill-rule:evenodd;clip-rule:evenodd;fill:#C9E5F1;}
	.st144{fill-rule:evenodd;clip-rule:evenodd;fill:#CAE5F2;}
	.st145{fill-rule:evenodd;clip-rule:evenodd;fill:#CAE6F1;}
	.st146{fill-rule:evenodd;clip-rule:evenodd;fill:#CBE6F2;}
	.st147{fill-rule:evenodd;clip-rule:evenodd;fill:#CDE7F2;}
	.st148{fill-rule:evenodd;clip-rule:evenodd;fill:#CEE8F2;}
	.st149{fill-rule:evenodd;clip-rule:evenodd;fill:#CFE8F2;}
	.st150{fill-rule:evenodd;clip-rule:evenodd;fill:#D0E9F3;}
	.st151{fill-rule:evenodd;clip-rule:evenodd;fill:#D2E9F3;}
	.st152{fill-rule:evenodd;clip-rule:evenodd;fill:#D4EAF3;}
	.st153{fill-rule:evenodd;clip-rule:evenodd;fill:#D5EBF3;}
	.st154{fill-rule:evenodd;clip-rule:evenodd;fill:#D7EBF3;}
	.st155{fill-rule:evenodd;clip-rule:evenodd;fill:#D8ECF4;}
	.st156{fill-rule:evenodd;clip-rule:evenodd;fill:#D9EDF5;}
	.st157{fill-rule:evenodd;clip-rule:evenodd;fill:#DAEDF5;}
	.st158{fill-rule:evenodd;clip-rule:evenodd;fill:#DCEEF7;}
	.st159{fill-rule:evenodd;clip-rule:evenodd;fill:#DDEFF8;}
	.st160{fill-rule:evenodd;clip-rule:evenodd;fill:#DEEFF7;}
	.st161{fill-rule:evenodd;clip-rule:evenodd;fill:#DFF0F7;}
	.st162{fill-rule:evenodd;clip-rule:evenodd;fill:#E1F1F7;}
	.st163{fill-rule:evenodd;clip-rule:evenodd;fill:#E3F1F7;}
	.st164{fill-rule:evenodd;clip-rule:evenodd;fill:#E4F2F8;}
	.st165{fill-rule:evenodd;clip-rule:evenodd;fill:#E6F3F7;}
	.st166{fill-rule:evenodd;clip-rule:evenodd;fill:#E8F4F8;}
	.st167{fill-rule:evenodd;clip-rule:evenodd;fill:#E9F4F9;}
	.st168{fill-rule:evenodd;clip-rule:evenodd;fill:#EAF5F8;}
	.st169{fill-rule:evenodd;clip-rule:evenodd;fill:#EDF6F9;}
	.st170{fill-rule:evenodd;clip-rule:evenodd;fill:#EEF7FA;}
	.st171{fill-rule:evenodd;clip-rule:evenodd;fill:#EFF7FB;}
	.st172{fill-rule:evenodd;clip-rule:evenodd;fill:#F1F8FC;}
	.st173{fill-rule:evenodd;clip-rule:evenodd;fill:#F4FAFE;}
	.st174{fill-rule:evenodd;clip-rule:evenodd;fill:#F5FAFD;}
	.st175{fill-rule:evenodd;clip-rule:evenodd;fill:#F7FBFE;}
	.st176{fill-rule:evenodd;clip-rule:evenodd;fill:#F9FCFE;}
	.st177{fill-rule:evenodd;clip-rule:evenodd;fill:#FEFEFF;}
	.st178{fill-rule:evenodd;clip-rule:evenodd;fill:#FFFFFF;}
</style>
<g>
	<path class="st0" d="M104.8,150.7h1.7v-2.6c0.1,0,0.3,0,0.4,0c1.1,0,2.8-0.5,2.8-2.5c0-0.7-0.3-1.3-0.7-1.7
		c-0.5-0.4-1.2-0.6-2.2-0.6c-0.8,0-1.5,0.1-2,0.2V150.7L104.8,150.7z M106.5,144.7c0.1,0,0.3-0.1,0.5-0.1c0.7,0,1.1,0.4,1.1,1
		c0,0.7-0.4,1.1-1.2,1.1c-0.2,0-0.3,0-0.4,0V144.7L106.5,144.7z M116.2,145.3l-0.5,2.6c-0.1,0.3-0.1,0.6-0.2,0.9h0
		c0-0.3-0.1-0.6-0.2-0.9l-0.6-2.6h-1.8l1.7,4.9c0,0.1,0.1,0.2,0.1,0.2c0,0.3-0.7,1-1.4,1.1l0.4,1.4c0.4-0.1,0.9-0.3,1.5-0.8
		c0.6-0.6,1-1.5,1.6-3.1l1.2-3.8H116.2L116.2,145.3z M126,145.3h-1.7v3.3c0,0.5-0.3,0.8-0.7,0.8c-0.5,0-0.7-0.4-0.7-1.1v-2.9h-1.7
		v3.2c0,1.5,0.6,2.3,1.7,2.3c0.8,0,1.3-0.4,1.5-0.8h0l0.1,0.7h1.4c0-0.5,0-1.1,0-1.7V145.3L126,145.3z M134.7,147.4
		c0-1.4-0.6-2.2-1.7-2.2c-0.7,0-1.2,0.4-1.5,0.8h0l-0.1-0.7H130c0,0.5,0,1.1,0,1.7v3.6h1.7v-3.1c0-0.7,0.4-0.9,0.7-0.9
		c0.5,0,0.6,0.4,0.6,1v3.1h1.7V147.4L134.7,147.4z M141.9,145.3l-0.1,0.6h0c-0.2-0.4-0.7-0.7-1.2-0.7c-1.2,0-2.2,1.1-2.2,2.8
		c0,1.4,0.7,2.6,2,2.6c0.5,0,0.9-0.2,1.2-0.6h0v0.3c0,0.8-0.4,1.3-1.2,1.3c-0.5,0-1-0.2-1.3-0.3l-0.3,1.3c0.4,0.2,1.1,0.3,1.7,0.3
		c2.5,0,2.8-1.6,2.8-2.9v-3c0-0.7,0-1.2,0-1.6H141.9L141.9,145.3z M141.6,148.5c0,0.7-0.3,0.9-0.7,0.9c-0.5,0-0.8-0.5-0.8-1.4
		c0-0.9,0.3-1.5,0.9-1.5c0.4,0,0.7,0.3,0.7,0.9V148.5L141.6,148.5z M153.9,143.4h-1.7v2.8h-2.1v-2.8h-1.7v7.3h1.7v-3h2.1v3h1.7
		V143.4L153.9,143.4z M163.3,145.3l-0.4,2.1c-0.1,0.6-0.2,1.2-0.2,1.7h0c-0.1-0.6-0.2-1.1-0.3-1.7l-0.5-2.1h-1.3l-0.5,2.2
		c-0.1,0.5-0.2,1.1-0.3,1.7h0c-0.1-0.6-0.2-1.1-0.2-1.7l-0.3-2.2h-1.7l1.4,5.3h1.5l0.5-1.7c0.1-0.5,0.2-1,0.3-1.7h0
		c0.1,0.6,0.2,1.2,0.3,1.7l0.4,1.7h1.5l1.5-5.3H163.3L163.3,145.3z M172.6,147.5c0-1.2-0.4-2.3-2.2-2.3c-0.9,0-1.6,0.3-2,0.5
		l0.3,1.1c0.3-0.2,0.8-0.4,1.3-0.4c0.7,0,0.9,0.3,0.9,0.7c-1.6,0-2.8,0.6-2.8,2c0,0.9,0.6,1.6,1.6,1.6c0.5,0,1.1-0.2,1.4-0.6h0
		l0.1,0.5h1.5c-0.1-0.3-0.1-0.8-0.1-1.3V147.5L172.6,147.5z M171,148.8c0,0.5-0.4,0.7-0.7,0.7c-0.3,0-0.6-0.2-0.6-0.6
		c0-0.6,0.6-0.8,1.3-0.8V148.8L171,148.8z M183.1,146.5h-2.4v1.3h0.9v1.5c-0.1,0-0.3,0.1-0.5,0.1c-1,0-1.8-0.7-1.8-2.3
		c0-1.7,0.9-2.4,2.1-2.4c0.6,0,1,0.1,1.3,0.2l0.3-1.4c-0.3-0.2-0.9-0.3-1.7-0.3c-2.1,0-3.8,1.3-3.8,3.8c0,1.1,0.3,2.2,1,2.8
		c0.6,0.6,1.4,0.9,2.6,0.9c0.8,0,1.6-0.2,2.1-0.4V146.5L183.1,146.5z M188.7,143H187v7.6h1.7V143L188.7,143z M194.9,145.2
		c-1.5,0-2.5,1-2.5,2.8c0,1.7,1,2.7,2.5,2.7c1.2,0,2.5-0.7,2.5-2.8C197.4,146.4,196.5,145.2,194.9,145.2L194.9,145.2z M195.7,148
		c0,0.9-0.3,1.6-0.8,1.6c-0.6,0-0.8-0.7-0.8-1.6c0-0.7,0.2-1.6,0.8-1.6C195.5,146.4,195.7,147.2,195.7,148L195.7,148z M202.8,145.9
		V143h-1.7v6c0,0.6,0,1.2,0,1.6h1.4l0.1-0.7h0c0.3,0.6,0.8,0.8,1.3,0.8c1.1,0,2.1-1,2.1-2.9c0-1.5-0.7-2.7-1.9-2.7
		C203.6,145.2,203.1,145.5,202.8,145.9L202.8,145.9L202.8,145.9z M202.8,147.5c0-0.6,0.4-0.9,0.7-0.9c0.6,0,0.9,0.6,0.9,1.4
		c0,0.9-0.3,1.5-0.9,1.5c-0.4,0-0.7-0.3-0.7-0.9V147.5L202.8,147.5z M214,147.5c0-1.2-0.4-2.3-2.2-2.3c-0.9,0-1.6,0.3-2,0.5l0.3,1.1
		c0.3-0.2,0.8-0.4,1.3-0.4c0.7,0,0.9,0.3,0.9,0.7c-1.6,0-2.8,0.6-2.8,2c0,0.9,0.6,1.6,1.6,1.6c0.5,0,1.1-0.2,1.4-0.6h0l0.1,0.5h1.5
		c-0.1-0.3-0.1-0.8-0.1-1.3V147.5L214,147.5z M212.4,148.8c0,0.5-0.4,0.7-0.7,0.7c-0.3,0-0.6-0.2-0.6-0.6c0-0.6,0.6-0.8,1.3-0.8
		V148.8L212.4,148.8z M219.7,143H218v7.6h1.7V143L219.7,143z M229.3,149.2c-0.3,0.1-0.7,0.2-1.1,0.2c-1.2,0-1.9-0.8-1.9-2.3
		c0-1.6,0.9-2.4,1.9-2.4c0.5,0,0.8,0.1,1.1,0.2l0.3-1.4c-0.2-0.1-0.7-0.3-1.5-0.3c-1.9,0-3.6,1.2-3.6,3.9c0,2,1.1,3.6,3.4,3.6
		c0.7,0,1.3-0.1,1.5-0.2L229.3,149.2L229.3,149.2z M235.4,145.2c-1.5,0-2.5,1-2.5,2.8c0,1.7,1,2.7,2.5,2.7c1.2,0,2.5-0.7,2.5-2.8
		C237.9,146.4,236.9,145.2,235.4,145.2L235.4,145.2z M236.2,148c0,0.9-0.3,1.6-0.8,1.6c-0.6,0-0.8-0.7-0.8-1.6
		c0-0.7,0.2-1.6,0.8-1.6C236,146.4,236.2,147.2,236.2,148L236.2,148z M242.6,150.8c0.6,0,1-0.4,1-1c0-0.6-0.4-1-1-1
		c-0.5,0-1,0.4-1,1C241.6,150.3,242,150.8,242.6,150.8L242.6,150.8z M247.5,148.9c-0.2,1-0.4,2.1-0.8,3.1l1.1-0.1
		c0.5-0.9,1-2,1.4-3.1L247.5,148.9L247.5,148.9z M258.2,149.3h-2.4v-5.9h-1.7v7.3h4.1V149.3L258.2,149.3z M262,145.3h-0.7v1.2h0.7
		v2.2c0,0.6,0,2,1.7,2c0.4,0,0.8-0.1,1-0.1l0-1.3c-0.1,0-0.2,0-0.4,0c-0.4,0-0.6-0.2-0.6-0.9v-2h1.1v-1.2h-1.1v-1.4l-1.6,0.5V145.3
		L262,145.3z M273.1,143h-1.7v2.7h0c-0.2-0.3-0.6-0.5-1.2-0.5c-1.1,0-2.1,1-2.1,2.8c0,1.6,0.8,2.7,2,2.7c0.6,0,1.1-0.3,1.4-0.8h0
		l0.1,0.7h1.5c0-0.4,0-1,0-1.6V143L273.1,143z M271.5,148.5c0,0.7-0.4,0.9-0.7,0.9c-0.5,0-0.9-0.5-0.9-1.4c0-0.8,0.3-1.5,0.9-1.5
		c0.3,0,0.7,0.2,0.7,1V148.5L271.5,148.5z M278,150.8c0.6,0,1-0.4,1-1c0-0.6-0.4-1-1-1c-0.5,0-1,0.4-1,1
		C277.1,150.3,277.5,150.8,278,150.8L278,150.8z"/>
	<path class="st1" d="M145.8,95.5c6.9,0,12.6,5.7,12.6,12.6v4c0,6.9-5.7,12.6-12.6,12.6h-1v0h-22.3c-2.3,0-4.1-1.9-4.1-4.1
		c0-2.3,1.9-4.1,4.1-4.1h22.3c2.8,0,5.1-2.3,5.1-5.1v-2.2c0-2.8-2.3-5.1-5.1-5.1h-26.6c-2.8,0-5.1,2.3-5.1,5.1v1v6.3v8.3v9.6
		c0,2.3-1.9,4.1-4.1,4.1c-2.3,0-4.1-1.9-4.1-4.1v-24.2h0v-2.1c0-6.9,5.7-12.6,12.6-12.6H145.8L145.8,95.5z"/>
	<path class="st1" d="M174.4,113.1h32.1v-0.6v-13c0-2.3,1.9-4.1,4.1-4.1h0c2.3,0,4.1,1.9,4.1,4.1v13v9.3v13c0,2.3-1.9,4.1-4.1,4.1h0
		c-2.3,0-4.1-1.9-4.1-4.1v-13h-32.1v13c0,2.3-1.9,4.1-4.1,4.1h0c-2.3,0-4.1-1.9-4.1-4.1v-13v-9.3v-13c0-2.3,1.9-4.1,4.1-4.1h0
		c2.3,0,4.1,1.9,4.1,4.1v13V113.1L174.4,113.1z"/>
	<path class="st1" d="M238.5,95.5h34c2.3,0,4.1,1.9,4.1,4.1c0,2.3-1.9,4.1-4.1,4.1h-34c-2.3,0-4.2,1.9-4.2,4.3v0.3v0.5v8.3v6.3v1
		c0,2.8,2.2,5.1,4.9,5.1h25c2.7,0,4.9-2.3,4.9-5.1l0-3.1h-23.2c-2.3,0-4.1-1.9-4.1-4.1c0-2.3,1.9-4.1,4.1-4.1h27.7
		c2.1,0,3.8,1.7,3.8,3.8v3.8v0.7v4c0,6.9-5.5,12.6-12.2,12.6h-27.3c-6.7,0-12.2-5.7-12.2-12.6v-2.1h0v-14.8c0-0.3,0-0.6,0-0.9
		C226.2,100.8,231.8,95.5,238.5,95.5L238.5,95.5z"/>
	<path class="st2" d="M45,75.3c24.1,0,43.7,19.5,43.7,43.7c0,24.1-19.5,43.7-43.7,43.7c-24.1,0-43.7-19.5-43.7-43.7
		C1.4,94.8,20.9,75.3,45,75.3L45,75.3z M35.9,142.5c0.5-7.4,0.6-7.1,4.4-12.7c1.3-2,2.1-4.2,1.9-7.3c-0.3-3.5-2.2-3.1-4.8-4
		c0.4-1.1,1.8-1.1,3.1-2.9c1.1-1.5,1.7-2.4,4.2-2.4c4.2,0,4.9,3.6,6.2,6.8c1.8,4.5,7.1,13.7,14.2,9.9c4.6-2.2,5.7-7.2,5.7-11.7
		c0-14.3-11.6-25.9-25.9-25.9c-14.3,0-25.9,11.6-25.9,25.9C18.9,129.4,26,138.9,35.9,142.5L35.9,142.5z"/>
	<path class="st2" d="M36.2,79.4c17.4,0,31.6,14.1,31.6,31.6c0,17.4-14.1,31.6-31.6,31.6S4.6,128.4,4.6,110.9
		C4.6,93.5,18.7,79.4,36.2,79.4L36.2,79.4z"/>
	<path class="st2" d="M36.2,79.5c17.3,0,31.4,14.1,31.4,31.4c0,17.4-14.1,31.4-31.4,31.4S4.7,128.3,4.7,110.9
		C4.7,93.6,18.8,79.5,36.2,79.5L36.2,79.5z"/>
	<path class="st3" d="M36.2,79.7c17.3,0,31.3,14,31.3,31.3c0,17.3-14,31.3-31.3,31.3c-17.3,0-31.3-14-31.3-31.3
		C4.9,93.7,18.9,79.7,36.2,79.7L36.2,79.7z"/>
	<path class="st3" d="M36.2,79.8c17.2,0,31.1,13.9,31.1,31.1c0,17.2-13.9,31.1-31.1,31.1c-17.2,0-31.1-13.9-31.1-31.1
		C5.1,93.8,19,79.8,36.2,79.8L36.2,79.8z"/>
	<path class="st4" d="M36.2,80c17.1,0,31,13.9,31,31c0,17.1-13.9,31-31,31c-17.1,0-31-13.9-31-31C5.2,93.9,19.1,80,36.2,80L36.2,80z
		"/>
	<path class="st5" d="M36.2,80.1c17,0,30.8,13.8,30.8,30.8c0,17-13.8,30.8-30.8,30.8c-17,0-30.8-13.8-30.8-30.8
		C5.4,93.9,19.2,80.1,36.2,80.1L36.2,80.1z"/>
	<path class="st5" d="M36.2,80.3c16.9,0,30.6,13.7,30.6,30.6s-13.7,30.6-30.6,30.6S5.5,127.9,5.5,110.9S19.2,80.3,36.2,80.3
		L36.2,80.3z"/>
	<path class="st5" d="M36.2,80.5c16.8,0,30.5,13.7,30.5,30.5c0,16.8-13.7,30.5-30.5,30.5S5.7,127.8,5.7,110.9
		C5.7,94.1,19.3,80.5,36.2,80.5L36.2,80.5z"/>
	<path class="st6" d="M36.2,80.6c16.8,0,30.3,13.6,30.3,30.3c0,16.8-13.6,30.3-30.3,30.3c-16.8,0-30.3-13.6-30.3-30.3
		C5.8,94.2,19.4,80.6,36.2,80.6L36.2,80.6z"/>
	<path class="st6" d="M36.2,80.8c16.7,0,30.2,13.5,30.2,30.2c0,16.7-13.5,30.2-30.2,30.2C19.5,141.1,6,127.6,6,110.9
		C6,94.3,19.5,80.8,36.2,80.8L36.2,80.8z"/>
	<path class="st6" d="M36.2,80.9c16.6,0,30,13.4,30,30c0,16.6-13.4,30-30,30c-16.6,0-30-13.4-30-30C6.1,94.4,19.6,80.9,36.2,80.9
		L36.2,80.9z"/>
	<path class="st7" d="M36.2,81.1c16.5,0,29.9,13.4,29.9,29.9c0,16.5-13.4,29.9-29.9,29.9c-16.5,0-29.9-13.4-29.9-29.9
		C6.3,94.4,19.7,81.1,36.2,81.1L36.2,81.1z"/>
	<path class="st7" d="M36.2,81.2c16.4,0,29.7,13.3,29.7,29.7s-13.3,29.7-29.7,29.7S6.4,127.4,6.4,110.9S19.7,81.2,36.2,81.2
		L36.2,81.2z"/>
	<path class="st7" d="M36.2,81.4c16.3,0,29.6,13.2,29.6,29.6s-13.2,29.6-29.6,29.6S6.6,127.3,6.6,110.9S19.8,81.4,36.2,81.4
		L36.2,81.4z"/>
	<path class="st8" d="M36.2,81.5c16.2,0,29.4,13.2,29.4,29.4s-13.2,29.4-29.4,29.4S6.7,127.2,6.7,110.9S19.9,81.5,36.2,81.5
		L36.2,81.5z"/>
	<path class="st8" d="M36.2,81.7c16.2,0,29.3,13.1,29.3,29.3c0,16.2-13.1,29.3-29.3,29.3c-16.2,0-29.3-13.1-29.3-29.3
		C6.9,94.8,20,81.7,36.2,81.7L36.2,81.7z"/>
	<path class="st8" d="M36.2,81.8c16.1,0,29.1,13,29.1,29.1c0,16.1-13,29.1-29.1,29.1c-16.1,0-29.1-13-29.1-29.1
		C7.1,94.9,20.1,81.8,36.2,81.8L36.2,81.8z"/>
	<path class="st9" d="M36.2,82c16,0,29,13,29,29c0,16-13,29-29,29c-16,0-29-13-29-29C7.2,95,20.2,82,36.2,82L36.2,82z"/>
	<path class="st10" d="M36.2,82.1C52.1,82.1,65,95,65,110.9c0,15.9-12.9,28.8-28.8,28.8c-15.9,0-28.8-12.9-28.8-28.8
		C7.4,95,20.3,82.1,36.2,82.1L36.2,82.1z"/>
	<path class="st11" d="M36.2,82.3c15.8,0,28.6,12.8,28.6,28.6S52,139.6,36.2,139.6S7.5,126.8,7.5,110.9S20.3,82.3,36.2,82.3
		L36.2,82.3z"/>
	<path class="st11" d="M36.2,82.5c15.7,0,28.5,12.8,28.5,28.5s-12.8,28.5-28.5,28.5S7.7,126.7,7.7,110.9S20.4,82.5,36.2,82.5
		L36.2,82.5z"/>
	<path class="st12" d="M36.2,82.6c15.6,0,28.3,12.7,28.3,28.3c0,15.6-12.7,28.3-28.3,28.3c-15.6,0-28.3-12.7-28.3-28.3
		C7.8,95.3,20.5,82.6,36.2,82.6L36.2,82.6z"/>
	<path class="st13" d="M36.2,82.8c15.6,0,28.2,12.6,28.2,28.2c0,15.6-12.6,28.2-28.2,28.2C20.6,139.1,8,126.5,8,110.9
		C8,95.4,20.6,82.8,36.2,82.8L36.2,82.8z"/>
	<path class="st14" d="M36.2,82.9c15.5,0,28,12.5,28,28c0,15.5-12.5,28-28,28c-15.5,0-28-12.5-28-28C8.1,95.5,20.7,82.9,36.2,82.9
		L36.2,82.9z"/>
	<path class="st14" d="M36.2,83.1c15.4,0,27.9,12.5,27.9,27.9c0,15.4-12.5,27.9-27.9,27.9c-15.4,0-27.9-12.5-27.9-27.9
		C8.3,95.6,20.8,83.1,36.2,83.1L36.2,83.1z"/>
	<path class="st15" d="M36.2,83.2c15.3,0,27.7,12.4,27.7,27.7c0,15.3-12.4,27.7-27.7,27.7S8.4,126.3,8.4,110.9
		C8.4,95.6,20.9,83.2,36.2,83.2L36.2,83.2z"/>
	<path class="st16" d="M36.2,83.4c15.2,0,27.6,12.3,27.6,27.6s-12.3,27.6-27.6,27.6S8.6,126.2,8.6,110.9S20.9,83.4,36.2,83.4
		L36.2,83.4z"/>
	<path class="st16" d="M36.2,83.5c15.1,0,27.4,12.3,27.4,27.4c0,15.1-12.3,27.4-27.4,27.4S8.7,126.1,8.7,110.9
		C8.7,95.8,21,83.5,36.2,83.5L36.2,83.5z"/>
	<path class="st17" d="M36.2,83.7c15.1,0,27.3,12.2,27.3,27.3c0,15.1-12.2,27.3-27.3,27.3c-15.1,0-27.3-12.2-27.3-27.3
		C8.9,95.9,21.1,83.7,36.2,83.7L36.2,83.7z"/>
	<path class="st18" d="M36.2,83.8c15,0,27.1,12.1,27.1,27.1c0,15-12.1,27.1-27.1,27.1c-15,0-27.1-12.1-27.1-27.1
		C9.1,96,21.2,83.8,36.2,83.8L36.2,83.8z"/>
	<path class="st18" d="M36.2,84c14.9,0,27,12.1,27,27c0,14.9-12.1,27-27,27c-14.9,0-27-12.1-27-27C9.2,96.1,21.3,84,36.2,84L36.2,84
		z"/>
	<path class="st19" d="M36.2,84.1c14.8,0,26.8,12,26.8,26.8c0,14.8-12,26.8-26.8,26.8c-14.8,0-26.8-12-26.8-26.8
		C9.4,96.1,21.4,84.1,36.2,84.1L36.2,84.1z"/>
	<path class="st20" d="M36.2,84.3c14.7,0,26.6,11.9,26.6,26.6c0,14.7-11.9,26.6-26.6,26.6c-14.7,0-26.6-11.9-26.6-26.6
		C9.5,96.2,21.4,84.3,36.2,84.3L36.2,84.3z"/>
	<path class="st20" d="M36.2,84.5c14.6,0,26.5,11.9,26.5,26.5c0,14.6-11.9,26.5-26.5,26.5S9.7,125.6,9.7,110.9
		C9.7,96.3,21.5,84.5,36.2,84.5L36.2,84.5z"/>
	<path class="st21" d="M36.2,84.6c14.5,0,26.3,11.8,26.3,26.3c0,14.5-11.8,26.3-26.3,26.3c-14.5,0-26.3-11.8-26.3-26.3
		C9.8,96.4,21.6,84.6,36.2,84.6L36.2,84.6z"/>
	<path class="st22" d="M36.2,84.8c14.5,0,26.2,11.7,26.2,26.2c0,14.5-11.7,26.2-26.2,26.2c-14.5,0-26.2-11.7-26.2-26.2
		C10,96.5,21.7,84.8,36.2,84.8L36.2,84.8z"/>
	<path class="st23" d="M36.2,84.9c14.4,0,26,11.7,26,26c0,14.4-11.7,26-26,26c-14.4,0-26-11.7-26-26C10.1,96.6,21.8,84.9,36.2,84.9
		L36.2,84.9z"/>
	<path class="st24" d="M36.2,85.1c14.3,0,25.9,11.6,25.9,25.9c0,14.3-11.6,25.9-25.9,25.9c-14.3,0-25.9-11.6-25.9-25.9
		C10.3,96.7,21.9,85.1,36.2,85.1L36.2,85.1z"/>
	<path class="st25" d="M36.2,85.2c14.2,0,25.7,11.5,25.7,25.7c0,14.2-11.5,25.7-25.7,25.7c-14.2,0-25.7-11.5-25.7-25.7
		C10.4,96.7,22,85.2,36.2,85.2L36.2,85.2z"/>
	<path class="st25" d="M36.2,85.4c14.1,0,25.6,11.4,25.6,25.6c0,14.1-11.4,25.6-25.6,25.6c-14.1,0-25.6-11.4-25.6-25.6
		C10.6,96.8,22,85.4,36.2,85.4L36.2,85.4z"/>
	<path class="st26" d="M36.2,85.5c14,0,25.4,11.4,25.4,25.4s-11.4,25.4-25.4,25.4c-14,0-25.4-11.4-25.4-25.4S22.1,85.5,36.2,85.5
		L36.2,85.5z"/>
	<path class="st26" d="M36.2,85.7c13.9,0,25.3,11.3,25.3,25.3c0,13.9-11.3,25.3-25.3,25.3c-13.9,0-25.3-11.3-25.3-25.3
		C10.9,97,22.2,85.7,36.2,85.7L36.2,85.7z"/>
	<path class="st27" d="M36.2,85.8c13.9,0,25.1,11.2,25.1,25.1c0,13.9-11.2,25.1-25.1,25.1c-13.9,0-25.1-11.2-25.1-25.1
		C11.1,97.1,22.3,85.8,36.2,85.8L36.2,85.8z"/>
	<path class="st28" d="M36.2,86c13.8,0,25,11.2,25,25c0,13.8-11.2,25-25,25c-13.8,0-25-11.2-25-25C11.2,97.2,22.4,86,36.2,86
		L36.2,86z"/>
	<path class="st29" d="M36.2,86.2c13.7,0,24.8,11.1,24.8,24.8c0,13.7-11.1,24.8-24.8,24.8c-13.7,0-24.8-11.1-24.8-24.8
		C11.4,97.3,22.5,86.2,36.2,86.2L36.2,86.2z"/>
	<path class="st29" d="M36.2,86.3c13.6,0,24.6,11,24.6,24.6c0,13.6-11,24.6-24.6,24.6c-13.6,0-24.6-11-24.6-24.6
		C11.5,97.3,22.6,86.3,36.2,86.3L36.2,86.3z"/>
	<path class="st30" d="M36.2,86.5c13.5,0,24.5,11,24.5,24.5c0,13.5-11,24.5-24.5,24.5c-13.5,0-24.5-11-24.5-24.5
		C11.7,97.4,22.6,86.5,36.2,86.5L36.2,86.5z"/>
	<path class="st31" d="M36.2,86.6c13.4,0,24.3,10.9,24.3,24.3c0,13.4-10.9,24.3-24.3,24.3s-24.3-10.9-24.3-24.3
		C11.8,97.5,22.7,86.6,36.2,86.6L36.2,86.6z"/>
	<path class="st31" d="M36.2,86.8c13.4,0,24.2,10.8,24.2,24.2c0,13.4-10.8,24.2-24.2,24.2S12,124.3,12,110.9
		C12,97.6,22.8,86.8,36.2,86.8L36.2,86.8z"/>
	<path class="st32" d="M36.2,86.9c13.3,0,24,10.8,24,24c0,13.3-10.8,24-24,24c-13.3,0-24-10.8-24-24C12.1,97.7,22.9,86.9,36.2,86.9
		L36.2,86.9z"/>
	<path class="st33" d="M36.2,87.1c13.2,0,23.9,10.7,23.9,23.9c0,13.2-10.7,23.9-23.9,23.9c-13.2,0-23.9-10.7-23.9-23.9
		C12.3,97.8,23,87.1,36.2,87.1L36.2,87.1z"/>
	<path class="st34" d="M36.2,87.2c13.1,0,23.7,10.6,23.7,23.7c0,13.1-10.6,23.7-23.7,23.7c-13.1,0-23.7-10.6-23.7-23.7
		C12.4,97.8,23.1,87.2,36.2,87.2L36.2,87.2z"/>
	<path class="st35" d="M36.2,87.4c13,0,23.6,10.6,23.6,23.6c0,13-10.6,23.6-23.6,23.6c-13,0-23.6-10.6-23.6-23.6
		C12.6,97.9,23.1,87.4,36.2,87.4L36.2,87.4z"/>
	<path class="st35" d="M36.2,87.5c12.9,0,23.4,10.5,23.4,23.4s-10.5,23.4-23.4,23.4s-23.4-10.5-23.4-23.4S23.2,87.5,36.2,87.5
		L36.2,87.5z"/>
	<path class="st36" d="M36.2,87.7c12.8,0,23.3,10.4,23.3,23.3S49,134.2,36.2,134.2s-23.3-10.4-23.3-23.3S23.3,87.7,36.2,87.7
		L36.2,87.7z"/>
	<path class="st36" d="M36.2,87.8c12.8,0,23.1,10.3,23.1,23.1s-10.3,23.1-23.1,23.1s-23.1-10.3-23.1-23.1S23.4,87.8,36.2,87.8
		L36.2,87.8z"/>
	<path class="st37" d="M36.2,88c12.7,0,22.9,10.3,22.9,22.9c0,12.7-10.3,22.9-22.9,22.9c-12.7,0-22.9-10.3-22.9-22.9
		C13.2,98.3,23.5,88,36.2,88L36.2,88z"/>
	<path class="st38" d="M36.2,88.2c12.6,0,22.8,10.2,22.8,22.8c0,12.6-10.2,22.8-22.8,22.8c-12.6,0-22.8-10.2-22.8-22.8
		C13.4,98.4,23.6,88.2,36.2,88.2L36.2,88.2z"/>
	<path class="st39" d="M36.2,88.3c12.5,0,22.6,10.1,22.6,22.6c0,12.5-10.1,22.6-22.6,22.6c-12.5,0-22.6-10.1-22.6-22.6
		C13.5,98.4,23.7,88.3,36.2,88.3L36.2,88.3z"/>
	<path class="st40" d="M36.2,88.5c12.4,0,22.5,10.1,22.5,22.5c0,12.4-10.1,22.5-22.5,22.5c-12.4,0-22.5-10.1-22.5-22.5
		C13.7,98.5,23.7,88.5,36.2,88.5L36.2,88.5z"/>
	<path class="st41" d="M36.2,88.6c12.3,0,22.3,10,22.3,22.3s-10,22.3-22.3,22.3s-22.3-10-22.3-22.3S23.8,88.6,36.2,88.6L36.2,88.6z"
		/>
	<path class="st41" d="M36.2,88.8c12.2,0,22.2,9.9,22.2,22.2s-9.9,22.2-22.2,22.2S14,123.2,14,110.9S23.9,88.8,36.2,88.8L36.2,88.8z
		"/>
	<path class="st42" d="M36.2,88.9c12.2,0,22,9.9,22,22s-9.9,22-22,22c-12.2,0-22-9.9-22-22S24,88.9,36.2,88.9L36.2,88.9z"/>
	<path class="st43" d="M36.2,89.1c12.1,0,21.9,9.8,21.9,21.9c0,12.1-9.8,21.9-21.9,21.9c-12.1,0-21.9-9.8-21.9-21.9
		C14.3,98.9,24.1,89.1,36.2,89.1L36.2,89.1z"/>
	<path class="st44" d="M36.2,89.2c12,0,21.7,9.7,21.7,21.7c0,12-9.7,21.7-21.7,21.7c-12,0-21.7-9.7-21.7-21.7
		C14.4,99,24.2,89.2,36.2,89.2L36.2,89.2z"/>
	<path class="st45" d="M36.2,89.4c11.9,0,21.6,9.7,21.6,21.6c0,11.9-9.7,21.6-21.6,21.6c-11.9,0-21.6-9.7-21.6-21.6
		C14.6,99,24.3,89.4,36.2,89.4L36.2,89.4z"/>
	<path class="st46" d="M36.2,89.5c11.8,0,21.4,9.6,21.4,21.4c0,11.8-9.6,21.4-21.4,21.4s-21.4-9.6-21.4-21.4
		C14.8,99.1,24.3,89.5,36.2,89.5L36.2,89.5z"/>
	<path class="st47" d="M36.2,89.7c11.7,0,21.3,9.5,21.3,21.3s-9.5,21.3-21.3,21.3s-21.3-9.5-21.3-21.3S24.4,89.7,36.2,89.7
		L36.2,89.7z"/>
	<path class="st48" d="M36.2,89.8c11.7,0,21.1,9.4,21.1,21.1S47.8,132,36.2,132s-21.1-9.4-21.1-21.1S24.5,89.8,36.2,89.8L36.2,89.8z
		"/>
	<path class="st49" d="M36.2,90c11.6,0,20.9,9.4,20.9,20.9c0,11.6-9.4,20.9-20.9,20.9c-11.6,0-20.9-9.4-20.9-20.9
		C15.2,99.4,24.6,90,36.2,90L36.2,90z"/>
	<path class="st50" d="M36.2,90.2c11.5,0,20.8,9.3,20.8,20.8c0,11.5-9.3,20.8-20.8,20.8c-11.5,0-20.8-9.3-20.8-20.8
		C15.4,99.5,24.7,90.2,36.2,90.2L36.2,90.2z"/>
	<path class="st51" d="M36.2,90.3c11.4,0,20.6,9.2,20.6,20.6c0,11.4-9.2,20.6-20.6,20.6c-11.4,0-20.6-9.2-20.6-20.6
		C15.5,99.5,24.8,90.3,36.2,90.3L36.2,90.3z"/>
	<path class="st52" d="M36.2,90.5c11.3,0,20.5,9.2,20.5,20.5c0,11.3-9.2,20.5-20.5,20.5c-11.3,0-20.5-9.2-20.5-20.5
		C15.7,99.6,24.8,90.5,36.2,90.5L36.2,90.5z"/>
	<path class="st53" d="M36.2,90.6c11.2,0,20.3,9.1,20.3,20.3c0,11.2-9.1,20.3-20.3,20.3s-20.3-9.1-20.3-20.3
		C15.8,99.7,24.9,90.6,36.2,90.6L36.2,90.6z"/>
	<path class="st54" d="M36.2,90.8c11.1,0,20.2,9,20.2,20.2c0,11.1-9,20.2-20.2,20.2s-20.2-9-20.2-20.2C16,99.8,25,90.8,36.2,90.8
		L36.2,90.8z"/>
	<path class="st55" d="M36.2,90.9c11.1,0,20,9,20,20s-9,20-20,20c-11.1,0-20-9-20-20S25.1,90.9,36.2,90.9L36.2,90.9z"/>
	<path class="st56" d="M36.2,91.1c11,0,19.9,8.9,19.9,19.9c0,11-8.9,19.9-19.9,19.9c-11,0-19.9-8.9-19.9-19.9
		C16.3,100,25.2,91.1,36.2,91.1L36.2,91.1z"/>
	<path class="st57" d="M36.2,91.2c10.9,0,19.7,8.8,19.7,19.7c0,10.9-8.8,19.7-19.7,19.7c-10.9,0-19.7-8.8-19.7-19.7
		C16.4,100.1,25.3,91.2,36.2,91.2L36.2,91.2z"/>
	<path class="st58" d="M36.2,91.4c10.8,0,19.6,8.8,19.6,19.6c0,10.8-8.8,19.6-19.6,19.6c-10.8,0-19.6-8.8-19.6-19.6
		C16.6,100.1,25.4,91.4,36.2,91.4L36.2,91.4z"/>
	<path class="st59" d="M36.2,91.5c10.7,0,19.4,8.7,19.4,19.4c0,10.7-8.7,19.4-19.4,19.4c-10.7,0-19.4-8.7-19.4-19.4
		C16.8,100.2,25.4,91.5,36.2,91.5L36.2,91.5z"/>
	<path class="st60" d="M36.2,91.7c10.6,0,19.3,8.6,19.3,19.3c0,10.6-8.6,19.3-19.3,19.3c-10.6,0-19.3-8.6-19.3-19.3
		C16.9,100.3,25.5,91.7,36.2,91.7L36.2,91.7z"/>
	<path class="st61" d="M36.2,91.8c10.5,0,19.1,8.6,19.1,19.1c0,10.5-8.6,19.1-19.1,19.1s-19.1-8.6-19.1-19.1
		C17.1,100.4,25.6,91.8,36.2,91.8L36.2,91.8z"/>
	<path class="st62" d="M36.2,92c10.5,0,18.9,8.5,18.9,18.9c0,10.5-8.5,18.9-18.9,18.9c-10.5,0-18.9-8.5-18.9-18.9
		C17.2,100.5,25.7,92,36.2,92L36.2,92z"/>
	<path class="st63" d="M36.2,92.2c10.4,0,18.8,8.4,18.8,18.8c0,10.4-8.4,18.8-18.8,18.8c-10.4,0-18.8-8.4-18.8-18.8
		C17.4,100.6,25.8,92.2,36.2,92.2L36.2,92.2z"/>
	<path class="st64" d="M36.2,92.3c10.3,0,18.6,8.3,18.6,18.6c0,10.3-8.3,18.6-18.6,18.6c-10.3,0-18.6-8.3-18.6-18.6
		C17.5,100.7,25.9,92.3,36.2,92.3L36.2,92.3z"/>
	<path class="st65" d="M36.2,92.5c10.2,0,18.5,8.3,18.5,18.5c0,10.2-8.3,18.5-18.5,18.5c-10.2,0-18.5-8.3-18.5-18.5
		C17.7,100.7,26,92.5,36.2,92.5L36.2,92.5z"/>
	<path class="st66" d="M36.2,92.6c10.1,0,18.3,8.2,18.3,18.3c0,10.1-8.2,18.3-18.3,18.3c-10.1,0-18.3-8.2-18.3-18.3
		C17.8,100.8,26,92.6,36.2,92.6L36.2,92.6z"/>
	<path class="st67" d="M36.2,92.8c10,0,18.2,8.1,18.2,18.2c0,10-8.1,18.2-18.2,18.2c-10,0-18.2-8.1-18.2-18.2
		C18,100.9,26.1,92.8,36.2,92.8L36.2,92.8z"/>
	<path class="st68" d="M36.2,92.9c10,0,18,8.1,18,18s-8.1,18-18,18c-10,0-18-8.1-18-18S26.2,92.9,36.2,92.9L36.2,92.9z"/>
	<path class="st69" d="M36.2,93.1c9.9,0,17.9,8,17.9,17.9c0,9.9-8,17.9-17.9,17.9s-17.9-8-17.9-17.9C18.3,101.1,26.3,93.1,36.2,93.1
		L36.2,93.1z"/>
	<path class="st70" d="M36.2,93.2c9.8,0,17.7,7.9,17.7,17.7c0,9.8-7.9,17.7-17.7,17.7c-9.8,0-17.7-7.9-17.7-17.7
		C18.4,101.2,26.4,93.2,36.2,93.2L36.2,93.2z"/>
	<path class="st71" d="M36.2,93.4c9.7,0,17.6,7.9,17.6,17.6c0,9.7-7.9,17.6-17.6,17.6c-9.7,0-17.6-7.9-17.6-17.6
		C18.6,101.2,26.5,93.4,36.2,93.4L36.2,93.4z"/>
	<path class="st72" d="M36.2,93.5c9.6,0,17.4,7.8,17.4,17.4c0,9.6-7.8,17.4-17.4,17.4c-9.6,0-17.4-7.8-17.4-17.4
		C18.8,101.3,26.5,93.5,36.2,93.5L36.2,93.5z"/>
	<path class="st73" d="M36.2,93.7c9.5,0,17.3,7.7,17.3,17.3c0,9.5-7.7,17.3-17.3,17.3c-9.5,0-17.3-7.7-17.3-17.3
		C18.9,101.4,26.6,93.7,36.2,93.7L36.2,93.7z"/>
	<path class="st74" d="M36.2,93.8c9.4,0,17.1,7.7,17.1,17.1c0,9.4-7.7,17.1-17.1,17.1c-9.4,0-17.1-7.7-17.1-17.1
		C19.1,101.5,26.7,93.8,36.2,93.8L36.2,93.8z"/>
	<path class="st75" d="M36.2,94c9.4,0,16.9,7.6,16.9,16.9s-7.6,16.9-16.9,16.9s-16.9-7.6-16.9-16.9S26.8,94,36.2,94L36.2,94z"/>
	<path class="st76" d="M36.2,94.2c9.3,0,16.8,7.5,16.8,16.8c0,9.3-7.5,16.8-16.8,16.8c-9.3,0-16.8-7.5-16.8-16.8
		C19.4,101.7,26.9,94.2,36.2,94.2L36.2,94.2z"/>
	<path class="st77" d="M36.2,94.3c9.2,0,16.6,7.4,16.6,16.6c0,9.2-7.4,16.6-16.6,16.6c-9.2,0-16.6-7.4-16.6-16.6
		C19.5,101.8,27,94.3,36.2,94.3L36.2,94.3z"/>
	<path class="st78" d="M36.2,94.5c9.1,0,16.5,7.4,16.5,16.5c0,9.1-7.4,16.5-16.5,16.5c-9.1,0-16.5-7.4-16.5-16.5
		C19.7,101.8,27.1,94.5,36.2,94.5L36.2,94.5z"/>
	<path class="st79" d="M36.2,94.6c9,0,16.3,7.3,16.3,16.3c0,9-7.3,16.3-16.3,16.3c-9,0-16.3-7.3-16.3-16.3
		C19.8,101.9,27.1,94.6,36.2,94.6L36.2,94.6z"/>
	<path class="st80" d="M36.2,94.8c8.9,0,16.2,7.2,16.2,16.2c0,8.9-7.2,16.2-16.2,16.2c-8.9,0-16.2-7.2-16.2-16.2
		C20,102,27.2,94.8,36.2,94.8L36.2,94.8z"/>
	<path class="st81" d="M36.2,94.9c8.8,0,16,7.2,16,16s-7.2,16-16,16s-16-7.2-16-16S27.3,94.9,36.2,94.9L36.2,94.9z"/>
	<path class="st82" d="M36.2,95.1c8.8,0,15.9,7.1,15.9,15.9c0,8.8-7.1,15.9-15.9,15.9s-15.9-7.1-15.9-15.9
		C20.3,102.2,27.4,95.1,36.2,95.1L36.2,95.1z"/>
	<path class="st83" d="M36.2,95.2c8.7,0,15.7,7,15.7,15.7c0,8.7-7,15.7-15.7,15.7c-8.7,0-15.7-7-15.7-15.7
		C20.4,102.3,27.5,95.2,36.2,95.2L36.2,95.2z"/>
	<path class="st84" d="M36.2,95.4c8.6,0,15.6,7,15.6,15.6c0,8.6-7,15.6-15.6,15.6c-8.6,0-15.6-7-15.6-15.6
		C20.6,102.4,27.6,95.4,36.2,95.4L36.2,95.4z"/>
	<path class="st85" d="M36.2,95.5c8.5,0,15.4,6.9,15.4,15.4c0,8.5-6.9,15.4-15.4,15.4c-8.5,0-15.4-6.9-15.4-15.4
		C20.8,102.4,27.7,95.5,36.2,95.5L36.2,95.5z"/>
	<path class="st86" d="M36.2,95.7c8.4,0,15.3,6.8,15.3,15.3c0,8.4-6.8,15.3-15.3,15.3c-8.4,0-15.3-6.8-15.3-15.3
		C20.9,102.5,27.7,95.7,36.2,95.7L36.2,95.7z"/>
	<path class="st87" d="M36.2,95.8c8.3,0,15.1,6.8,15.1,15.1S44.5,126,36.2,126s-15.1-6.8-15.1-15.1S27.8,95.8,36.2,95.8L36.2,95.8z"
		/>
	<path class="st88" d="M36.2,96c8.3,0,14.9,6.7,14.9,14.9s-6.7,14.9-14.9,14.9s-14.9-6.7-14.9-14.9S27.9,96,36.2,96L36.2,96z"/>
	<path class="st89" d="M36.2,96.2c8.2,0,14.8,6.6,14.8,14.8s-6.6,14.8-14.8,14.8s-14.8-6.6-14.8-14.8S28,96.2,36.2,96.2L36.2,96.2z"
		/>
	<path class="st90" d="M36.2,96.3c8.1,0,14.6,6.6,14.6,14.6s-6.6,14.6-14.6,14.6c-8.1,0-14.6-6.6-14.6-14.6S28.1,96.3,36.2,96.3
		L36.2,96.3z"/>
	<path class="st91" d="M36.2,96.5c8,0,14.5,6.5,14.5,14.5c0,8-6.5,14.5-14.5,14.5c-8,0-14.5-6.5-14.5-14.5
		C21.7,102.9,28.2,96.5,36.2,96.5L36.2,96.5z"/>
	<path class="st92" d="M36.2,96.6c7.9,0,14.3,6.4,14.3,14.3c0,7.9-6.4,14.3-14.3,14.3c-7.9,0-14.3-6.4-14.3-14.3
		C21.8,103,28.2,96.6,36.2,96.6L36.2,96.6z"/>
	<path class="st93" d="M36.2,96.8c7.8,0,14.2,6.3,14.2,14.2c0,7.8-6.3,14.2-14.2,14.2c-7.8,0-14.2-6.3-14.2-14.2
		C22,103.1,28.3,96.8,36.2,96.8L36.2,96.8z"/>
	<path class="st94" d="M36.2,96.9c7.7,0,14,6.3,14,14s-6.3,14-14,14s-14-6.3-14-14S28.4,96.9,36.2,96.9L36.2,96.9z"/>
	<path class="st94" d="M36.2,97.1c7.7,0,13.9,6.2,13.9,13.9s-6.2,13.9-13.9,13.9s-13.9-6.2-13.9-13.9S28.5,97.1,36.2,97.1L36.2,97.1
		z"/>
	<path class="st95" d="M36.2,97.2c7.6,0,13.7,6.1,13.7,13.7c0,7.6-6.1,13.7-13.7,13.7c-7.6,0-13.7-6.1-13.7-13.7
		C22.4,103.4,28.6,97.2,36.2,97.2L36.2,97.2z"/>
	<path class="st96" d="M36.2,97.4c7.5,0,13.6,6.1,13.6,13.6c0,7.5-6.1,13.6-13.6,13.6c-7.5,0-13.6-6.1-13.6-13.6
		C22.6,103.5,28.7,97.4,36.2,97.4L36.2,97.4z"/>
	<path class="st97" d="M36.2,97.5c7.4,0,13.4,6,13.4,13.4c0,7.4-6,13.4-13.4,13.4c-7.4,0-13.4-6-13.4-13.4
		C22.8,103.5,28.8,97.5,36.2,97.5L36.2,97.5z"/>
	<path class="st98" d="M36.2,97.7c7.3,0,13.3,5.9,13.3,13.3c0,7.3-5.9,13.3-13.3,13.3c-7.3,0-13.3-5.9-13.3-13.3
		C22.9,103.6,28.8,97.7,36.2,97.7L36.2,97.7z"/>
	<path class="st98" d="M36.2,97.8c7.2,0,13.1,5.9,13.1,13.1c0,7.2-5.9,13.1-13.1,13.1c-7.2,0-13.1-5.9-13.1-13.1
		C23.1,103.7,28.9,97.8,36.2,97.8L36.2,97.8z"/>
	<path class="st99" d="M36.2,98c7.1,0,12.9,5.8,12.9,12.9c0,7.1-5.8,12.9-12.9,12.9s-12.9-5.8-12.9-12.9C23.2,103.8,29,98,36.2,98
		L36.2,98z"/>
	<path class="st100" d="M36.2,98.2c7.1,0,12.8,5.7,12.8,12.8c0,7.1-5.7,12.8-12.8,12.8s-12.8-5.7-12.8-12.8
		C23.4,103.9,29.1,98.2,36.2,98.2L36.2,98.2z"/>
	<path class="st101" d="M36.2,98.3c7,0,12.6,5.7,12.6,12.6c0,7-5.7,12.6-12.6,12.6c-7,0-12.6-5.7-12.6-12.6
		C23.5,104,29.2,98.3,36.2,98.3L36.2,98.3z"/>
	<path class="st102" d="M36.2,98.5c6.9,0,12.5,5.6,12.5,12.5c0,6.9-5.6,12.5-12.5,12.5c-6.9,0-12.5-5.6-12.5-12.5
		C23.7,104.1,29.3,98.5,36.2,98.5L36.2,98.5z"/>
	<path class="st103" d="M36.2,98.6c6.8,0,12.3,5.5,12.3,12.3c0,6.8-5.5,12.3-12.3,12.3c-6.8,0-12.3-5.5-12.3-12.3
		C23.8,104.1,29.4,98.6,36.2,98.6L36.2,98.6z"/>
	<path class="st103" d="M36.2,98.8c6.7,0,12.2,5.5,12.2,12.2c0,6.7-5.5,12.2-12.2,12.2c-6.7,0-12.2-5.5-12.2-12.2
		C24,104.2,29.4,98.8,36.2,98.8L36.2,98.8z"/>
	<path class="st104" d="M36.2,98.9c6.6,0,12,5.4,12,12c0,6.6-5.4,12-12,12c-6.6,0-12-5.4-12-12C24.1,104.3,29.5,98.9,36.2,98.9
		L36.2,98.9z"/>
	<path class="st105" d="M36.2,99.1c6.6,0,11.9,5.3,11.9,11.9c0,6.6-5.3,11.9-11.9,11.9s-11.9-5.3-11.9-11.9
		C24.3,104.4,29.6,99.1,36.2,99.1L36.2,99.1z"/>
	<path class="st106" d="M36.2,99.2c6.5,0,11.7,5.2,11.7,11.7c0,6.5-5.2,11.7-11.7,11.7c-6.5,0-11.7-5.2-11.7-11.7
		C24.4,104.5,29.7,99.2,36.2,99.2L36.2,99.2z"/>
	<path class="st107" d="M36.2,99.4c6.4,0,11.6,5.2,11.6,11.6c0,6.4-5.2,11.6-11.6,11.6c-6.4,0-11.6-5.2-11.6-11.6
		C24.6,104.6,29.8,99.4,36.2,99.4L36.2,99.4z"/>
	<path class="st108" d="M36.2,99.5c6.3,0,11.4,5.1,11.4,11.4c0,6.3-5.1,11.4-11.4,11.4c-6.3,0-11.4-5.1-11.4-11.4
		C24.8,104.6,29.9,99.5,36.2,99.5L36.2,99.5z"/>
	<path class="st109" d="M36.2,99.7c6.2,0,11.3,5,11.3,11.3c0,6.2-5,11.3-11.3,11.3c-6.2,0-11.3-5-11.3-11.3
		C24.9,104.7,29.9,99.7,36.2,99.7L36.2,99.7z"/>
	<path class="st110" d="M36.2,99.8c6.1,0,11.1,5,11.1,11.1c0,6.1-5,11.1-11.1,11.1c-6.1,0-11.1-5-11.1-11.1
		C25.1,104.8,30,99.8,36.2,99.8L36.2,99.8z"/>
	<path class="st111" d="M36.2,100c6,0,10.9,4.9,10.9,10.9c0,6-4.9,10.9-10.9,10.9c-6,0-10.9-4.9-10.9-10.9
		C25.2,104.9,30.1,100,36.2,100L36.2,100z"/>
	<path class="st112" d="M36.2,100.2c6,0,10.8,4.8,10.8,10.8c0,6-4.8,10.8-10.8,10.8c-6,0-10.8-4.8-10.8-10.8
		C25.4,105,30.2,100.2,36.2,100.2L36.2,100.2z"/>
	<path class="st113" d="M36.2,100.3c5.9,0,10.6,4.8,10.6,10.6c0,5.9-4.8,10.6-10.6,10.6s-10.6-4.8-10.6-10.6
		C25.5,105.1,30.3,100.3,36.2,100.3L36.2,100.3z"/>
	<path class="st114" d="M36.2,100.5c5.8,0,10.5,4.7,10.5,10.5c0,5.8-4.7,10.5-10.5,10.5c-5.8,0-10.5-4.7-10.5-10.5
		C25.7,105.2,30.4,100.5,36.2,100.5L36.2,100.5z"/>
	<path class="st115" d="M36.2,100.6c5.7,0,10.3,4.6,10.3,10.3c0,5.7-4.6,10.3-10.3,10.3c-5.7,0-10.3-4.6-10.3-10.3
		C25.8,105.2,30.5,100.6,36.2,100.6L36.2,100.6z"/>
	<path class="st116" d="M36.2,100.8c5.6,0,10.2,4.6,10.2,10.2c0,5.6-4.6,10.2-10.2,10.2c-5.6,0-10.2-4.6-10.2-10.2
		C26,105.3,30.5,100.8,36.2,100.8L36.2,100.8z"/>
	<path class="st117" d="M36.2,100.9c5.5,0,10,4.5,10,10c0,5.5-4.5,10-10,10c-5.5,0-10-4.5-10-10C26.1,105.4,30.6,100.9,36.2,100.9
		L36.2,100.9z"/>
	<path class="st118" d="M36.2,101.1c5.4,0,9.9,4.4,9.9,9.9c0,5.4-4.4,9.9-9.9,9.9c-5.4,0-9.9-4.4-9.9-9.9
		C26.3,105.5,30.7,101.1,36.2,101.1L36.2,101.1z"/>
	<path class="st119" d="M36.2,101.2c5.4,0,9.7,4.3,9.7,9.7s-4.3,9.7-9.7,9.7s-9.7-4.3-9.7-9.7S30.8,101.2,36.2,101.2L36.2,101.2z"/>
	<path class="st120" d="M36.2,101.4c5.3,0,9.6,4.3,9.6,9.6s-4.3,9.6-9.6,9.6s-9.6-4.3-9.6-9.6S30.9,101.4,36.2,101.4L36.2,101.4z"/>
	<path class="st121" d="M36.2,101.5c5.2,0,9.4,4.2,9.4,9.4c0,5.2-4.2,9.4-9.4,9.4c-5.2,0-9.4-4.2-9.4-9.4
		C26.8,105.8,31,101.5,36.2,101.5L36.2,101.5z"/>
	<path class="st122" d="M36.2,101.7c5.1,0,9.3,4.1,9.3,9.3c0,5.1-4.1,9.3-9.3,9.3c-5.1,0-9.3-4.1-9.3-9.3
		C26.9,105.8,31.1,101.7,36.2,101.7L36.2,101.7z"/>
	<path class="st123" d="M36.2,101.9c5,0,9.1,4.1,9.1,9.1c0,5-4.1,9.1-9.1,9.1c-5,0-9.1-4.1-9.1-9.1
		C27.1,105.9,31.1,101.9,36.2,101.9L36.2,101.9z"/>
	<path class="st124" d="M36.2,102c4.9,0,8.9,4,8.9,8.9c0,4.9-4,8.9-8.9,8.9c-4.9,0-8.9-4-8.9-8.9C27.2,106,31.2,102,36.2,102
		L36.2,102z"/>
	<path class="st125" d="M36.2,102.2c4.9,0,8.8,3.9,8.8,8.8c0,4.9-3.9,8.8-8.8,8.8c-4.9,0-8.8-3.9-8.8-8.8
		C27.4,106.1,31.3,102.2,36.2,102.2L36.2,102.2z"/>
	<path class="st126" d="M36.2,102.3c4.8,0,8.6,3.9,8.6,8.6c0,4.8-3.9,8.6-8.6,8.6s-8.6-3.9-8.6-8.6
		C27.5,106.2,31.4,102.3,36.2,102.3L36.2,102.3z"/>
	<path class="st127" d="M36.2,102.5c4.7,0,8.5,3.8,8.5,8.5c0,4.7-3.8,8.5-8.5,8.5s-8.5-3.8-8.5-8.5
		C27.7,106.3,31.5,102.5,36.2,102.5L36.2,102.5z"/>
	<path class="st128" d="M36.2,102.6c4.6,0,8.3,3.7,8.3,8.3c0,4.6-3.7,8.3-8.3,8.3c-4.6,0-8.3-3.7-8.3-8.3
		C27.8,106.3,31.6,102.6,36.2,102.6L36.2,102.6z"/>
	<path class="st129" d="M36.2,102.8c4.5,0,8.2,3.7,8.2,8.2c0,4.5-3.7,8.2-8.2,8.2c-4.5,0-8.2-3.7-8.2-8.2
		C28,106.4,31.6,102.8,36.2,102.8L36.2,102.8z"/>
	<path class="st130" d="M36.2,102.9c4.4,0,8,3.6,8,8c0,4.4-3.6,8-8,8c-4.4,0-8-3.6-8-8C28.1,106.5,31.7,102.9,36.2,102.9L36.2,102.9
		z"/>
	<path class="st131" d="M36.2,103.1c4.3,0,7.9,3.5,7.9,7.9c0,4.3-3.5,7.9-7.9,7.9c-4.3,0-7.9-3.5-7.9-7.9
		C28.3,106.6,31.8,103.1,36.2,103.1L36.2,103.1z"/>
	<path class="st132" d="M36.2,103.2c4.3,0,7.7,3.5,7.7,7.7c0,4.3-3.5,7.7-7.7,7.7s-7.7-3.5-7.7-7.7
		C28.4,106.7,31.9,103.2,36.2,103.2L36.2,103.2z"/>
	<path class="st133" d="M36.2,103.4c4.2,0,7.6,3.4,7.6,7.6c0,4.2-3.4,7.6-7.6,7.6s-7.6-3.4-7.6-7.6C28.6,106.8,32,103.4,36.2,103.4
		L36.2,103.4z"/>
	<path class="st134" d="M36.2,103.5c4.1,0,7.4,3.3,7.4,7.4c0,4.1-3.3,7.4-7.4,7.4c-4.1,0-7.4-3.3-7.4-7.4
		C28.8,106.9,32.1,103.5,36.2,103.5L36.2,103.5z"/>
	<path class="st135" d="M36.2,103.7c4,0,7.2,3.2,7.2,7.2c0,4-3.2,7.2-7.2,7.2c-4,0-7.2-3.2-7.2-7.2
		C28.9,106.9,32.2,103.7,36.2,103.7L36.2,103.7z"/>
	<path class="st136" d="M36.2,103.9c3.9,0,7.1,3.2,7.1,7.1c0,3.9-3.2,7.1-7.1,7.1c-3.9,0-7.1-3.2-7.1-7.1
		C29.1,107,32.2,103.9,36.2,103.9L36.2,103.9z"/>
	<path class="st137" d="M36.2,104c3.8,0,6.9,3.1,6.9,6.9c0,3.8-3.1,6.9-6.9,6.9c-3.8,0-6.9-3.1-6.9-6.9
		C29.2,107.1,32.3,104,36.2,104L36.2,104z"/>
	<path class="st138" d="M36.2,104.2c3.7,0,6.8,3,6.8,6.8c0,3.7-3,6.8-6.8,6.8c-3.7,0-6.8-3-6.8-6.8
		C29.4,107.2,32.4,104.2,36.2,104.2L36.2,104.2z"/>
	<path class="st139" d="M36.2,104.3c3.7,0,6.6,3,6.6,6.6c0,3.7-3,6.6-6.6,6.6c-3.7,0-6.6-3-6.6-6.6
		C29.5,107.3,32.5,104.3,36.2,104.3L36.2,104.3z"/>
	<path class="st140" d="M36.2,104.5c3.6,0,6.5,2.9,6.5,6.5c0,3.6-2.9,6.5-6.5,6.5c-3.6,0-6.5-2.9-6.5-6.5
		C29.7,107.4,32.6,104.5,36.2,104.5L36.2,104.5z"/>
	<path class="st141" d="M36.2,104.6c3.5,0,6.3,2.8,6.3,6.3c0,3.5-2.8,6.3-6.3,6.3c-3.5,0-6.3-2.8-6.3-6.3
		C29.8,107.5,32.7,104.6,36.2,104.6L36.2,104.6z"/>
	<path class="st142" d="M36.2,104.8c3.4,0,6.2,2.8,6.2,6.2c0,3.4-2.8,6.2-6.2,6.2c-3.4,0-6.2-2.8-6.2-6.2
		C30,107.5,32.8,104.8,36.2,104.8L36.2,104.8z"/>
	<path class="st143" d="M36.2,104.9c3.3,0,6,2.7,6,6c0,3.3-2.7,6-6,6c-3.3,0-6-2.7-6-6C30.1,107.6,32.8,104.9,36.2,104.9L36.2,104.9
		z"/>
	<path class="st144" d="M36.2,105.1c3.2,0,5.9,2.6,5.9,5.9c0,3.2-2.6,5.9-5.9,5.9c-3.2,0-5.9-2.6-5.9-5.9
		C30.3,107.7,32.9,105.1,36.2,105.1L36.2,105.1z"/>
	<path class="st145" d="M36.2,105.2c3.2,0,5.7,2.6,5.7,5.7c0,3.2-2.6,5.7-5.7,5.7c-3.2,0-5.7-2.6-5.7-5.7
		C30.5,107.8,33,105.2,36.2,105.2L36.2,105.2z"/>
	<path class="st146" d="M36.2,105.4c3.1,0,5.6,2.5,5.6,5.6c0,3.1-2.5,5.6-5.6,5.6c-3.1,0-5.6-2.5-5.6-5.6
		C30.6,107.9,33.1,105.4,36.2,105.4L36.2,105.4z"/>
	<path class="st147" d="M36.2,105.5c3,0,5.4,2.4,5.4,5.4c0,3-2.4,5.4-5.4,5.4c-3,0-5.4-2.4-5.4-5.4C30.8,108,33.2,105.5,36.2,105.5
		L36.2,105.5z"/>
	<path class="st148" d="M36.2,105.7c2.9,0,5.2,2.4,5.2,5.2c0,2.9-2.4,5.2-5.2,5.2c-2.9,0-5.2-2.4-5.2-5.2
		C30.9,108,33.3,105.7,36.2,105.7L36.2,105.7z"/>
	<path class="st149" d="M36.2,105.9c2.8,0,5.1,2.3,5.1,5.1c0,2.8-2.3,5.1-5.1,5.1c-2.8,0-5.1-2.3-5.1-5.1
		C31.1,108.1,33.3,105.9,36.2,105.9L36.2,105.9z"/>
	<path class="st150" d="M36.2,106c2.7,0,4.9,2.2,4.9,4.9c0,2.7-2.2,4.9-4.9,4.9c-2.7,0-4.9-2.2-4.9-4.9
		C31.2,108.2,33.4,106,36.2,106L36.2,106z"/>
	<path class="st151" d="M36.2,106.2c2.6,0,4.8,2.1,4.8,4.8c0,2.6-2.1,4.8-4.8,4.8c-2.6,0-4.8-2.1-4.8-4.8
		C31.4,108.3,33.5,106.2,36.2,106.2L36.2,106.2z"/>
	<path class="st152" d="M36.2,106.3c2.6,0,4.6,2.1,4.6,4.6c0,2.6-2.1,4.6-4.6,4.6c-2.6,0-4.6-2.1-4.6-4.6
		C31.5,108.4,33.6,106.3,36.2,106.3L36.2,106.3z"/>
	<path class="st153" d="M36.2,106.5c2.5,0,4.5,2,4.5,4.5c0,2.5-2,4.5-4.5,4.5c-2.5,0-4.5-2-4.5-4.5
		C31.7,108.5,33.7,106.5,36.2,106.5L36.2,106.5z"/>
	<path class="st154" d="M36.2,106.6c2.4,0,4.3,1.9,4.3,4.3s-1.9,4.3-4.3,4.3c-2.4,0-4.3-1.9-4.3-4.3S33.8,106.6,36.2,106.6
		L36.2,106.6z"/>
	<path class="st155" d="M36.2,106.8c2.3,0,4.2,1.9,4.2,4.2s-1.9,4.2-4.2,4.2c-2.3,0-4.2-1.9-4.2-4.2S33.9,106.8,36.2,106.8
		L36.2,106.8z"/>
	<path class="st156" d="M36.2,106.9c2.2,0,4,1.8,4,4c0,2.2-1.8,4-4,4c-2.2,0-4-1.8-4-4C32.1,108.7,33.9,106.9,36.2,106.9L36.2,106.9
		z"/>
	<path class="st157" d="M36.2,107.1c2.1,0,3.9,1.7,3.9,3.9c0,2.1-1.7,3.9-3.9,3.9c-2.1,0-3.9-1.7-3.9-3.9
		C32.3,108.8,34,107.1,36.2,107.1L36.2,107.1z"/>
	<path class="st158" d="M36.2,107.2c2,0,3.7,1.7,3.7,3.7c0,2-1.7,3.7-3.7,3.7c-2,0-3.7-1.7-3.7-3.7
		C32.5,108.9,34.1,107.2,36.2,107.2L36.2,107.2z"/>
	<path class="st159" d="M36.2,107.4c2,0,3.6,1.6,3.6,3.6c0,2-1.6,3.6-3.6,3.6c-2,0-3.6-1.6-3.6-3.6C32.6,109,34.2,107.4,36.2,107.4
		L36.2,107.4z"/>
	<path class="st160" d="M36.2,107.5c1.9,0,3.4,1.5,3.4,3.4c0,1.9-1.5,3.4-3.4,3.4s-3.4-1.5-3.4-3.4
		C32.8,109.1,34.3,107.5,36.2,107.5L36.2,107.5z"/>
	<path class="st161" d="M36.2,107.7c1.8,0,3.2,1.5,3.2,3.2c0,1.8-1.5,3.2-3.2,3.2s-3.2-1.5-3.2-3.2
		C32.9,109.2,34.4,107.7,36.2,107.7L36.2,107.7z"/>
	<path class="st162" d="M36.2,107.9c1.7,0,3.1,1.4,3.1,3.1c0,1.7-1.4,3.1-3.1,3.1c-1.7,0-3.1-1.4-3.1-3.1
		C33.1,109.2,34.5,107.9,36.2,107.9L36.2,107.9z"/>
	<path class="st163" d="M36.2,108c1.6,0,2.9,1.3,2.9,2.9c0,1.6-1.3,2.9-2.9,2.9c-1.6,0-2.9-1.3-2.9-2.9
		C33.2,109.3,34.5,108,36.2,108L36.2,108z"/>
	<path class="st164" d="M36.2,108.2c1.5,0,2.8,1.2,2.8,2.8c0,1.5-1.2,2.8-2.8,2.8c-1.5,0-2.8-1.2-2.8-2.8
		C33.4,109.4,34.6,108.2,36.2,108.2L36.2,108.2z"/>
	<path class="st165" d="M36.2,108.3c1.5,0,2.6,1.2,2.6,2.6c0,1.5-1.2,2.6-2.6,2.6c-1.5,0-2.6-1.2-2.6-2.6
		C33.5,109.5,34.7,108.3,36.2,108.3L36.2,108.3z"/>
	<path class="st166" d="M36.2,108.5c1.4,0,2.5,1.1,2.5,2.5c0,1.4-1.1,2.5-2.5,2.5c-1.4,0-2.5-1.1-2.5-2.5
		C33.7,109.6,34.8,108.5,36.2,108.5L36.2,108.5z"/>
	<path class="st167" d="M36.2,108.6c1.3,0,2.3,1,2.3,2.3s-1,2.3-2.3,2.3s-2.3-1-2.3-2.3S34.9,108.6,36.2,108.6L36.2,108.6z"/>
	<path class="st168" d="M36.2,108.8c1.2,0,2.2,1,2.2,2.2s-1,2.2-2.2,2.2s-2.2-1-2.2-2.2S35,108.8,36.2,108.8L36.2,108.8z"/>
	<path class="st169" d="M36.2,108.9c1.1,0,2,0.9,2,2c0,1.1-0.9,2-2,2c-1.1,0-2-0.9-2-2C34.1,109.8,35,108.9,36.2,108.9L36.2,108.9z"
		/>
	<path class="st170" d="M36.2,109.1c1,0,1.9,0.8,1.9,1.9c0,1-0.8,1.9-1.9,1.9c-1,0-1.9-0.8-1.9-1.9
		C34.3,109.9,35.1,109.1,36.2,109.1L36.2,109.1z"/>
	<path class="st171" d="M36.2,109.2c0.9,0,1.7,0.8,1.7,1.7c0,0.9-0.8,1.7-1.7,1.7c-0.9,0-1.7-0.8-1.7-1.7
		C34.5,110,35.2,109.2,36.2,109.2L36.2,109.2z"/>
	<path class="st172" d="M36.2,109.4c0.9,0,1.6,0.7,1.6,1.6c0,0.9-0.7,1.6-1.6,1.6c-0.9,0-1.6-0.7-1.6-1.6
		C34.6,110.1,35.3,109.4,36.2,109.4L36.2,109.4z"/>
	<path class="st173" d="M36.2,109.5c0.8,0,1.4,0.6,1.4,1.4c0,0.8-0.6,1.4-1.4,1.4s-1.4-0.6-1.4-1.4
		C34.8,110.2,35.4,109.5,36.2,109.5L36.2,109.5z"/>
	<path class="st174" d="M36.2,109.7c0.7,0,1.2,0.6,1.2,1.2c0,0.7-0.6,1.2-1.2,1.2s-1.2-0.6-1.2-1.2
		C34.9,110.3,35.5,109.7,36.2,109.7L36.2,109.7z"/>
	<path class="st175" d="M36.2,109.9c0.6,0,1.1,0.5,1.1,1.1c0,0.6-0.5,1.1-1.1,1.1c-0.6,0-1.1-0.5-1.1-1.1
		C35.1,110.3,35.6,109.9,36.2,109.9L36.2,109.9z"/>
	<path class="st176" d="M36.2,110c0.5,0,0.9,0.4,0.9,0.9c0,0.5-0.4,0.9-0.9,0.9c-0.5,0-0.9-0.4-0.9-0.9
		C35.2,110.4,35.6,110,36.2,110L36.2,110z"/>
	<path class="st177" d="M36.2,110.2c0.4,0,0.8,0.4,0.8,0.8c0,0.4-0.4,0.8-0.8,0.8c-0.4,0-0.8-0.4-0.8-0.8
		C35.4,110.5,35.7,110.2,36.2,110.2L36.2,110.2z"/>
	<path class="st178" d="M36.2,110.3c0.3,0,0.6,0.3,0.6,0.6c0,0.3-0.3,0.6-0.6,0.6c-0.3,0-0.6-0.3-0.6-0.6
		C35.5,110.6,35.8,110.3,36.2,110.3L36.2,110.3z"/>
	<path class="st178" d="M35.9,142.5c0.5-7.4,0.6-7.1,4.4-12.7c1.3-2,2.1-4.2,1.9-7.3c-0.3-3.5-2.2-3.1-4.8-4
		c0.4-1.1,1.8-1.1,3.1-2.9c1.1-1.5,1.7-2.4,4.2-2.4c4.2,0,4.9,3.6,6.2,6.8c1.8,4.5,7.1,13.7,14.2,9.9c4.6-2.2,5.7-7.2,5.7-11.7
		c0-14.3-11.6-25.9-25.9-25.9c-14.3,0-25.9,11.6-25.9,25.9C18.9,129.4,26,138.9,35.9,142.5L35.9,142.5z"/>
</g>
</svg>
