<?xml version="1.0" encoding="utf-8"?>
<!-- Generator: Adobe Illustrator 22.1.0, SVG Export Plug-In . SVG Version: 6.00 Build 0)  -->
<svg version="1.1" id="Layer_1" xmlns="http://www.w3.org/2000/svg" xmlns:xlink="http://www.w3.org/1999/xlink" x="0px" y="0px"
	 viewBox="0 0 1116.9 331.1" style="enable-background:new 0 0 1116.9 331.1;" xml:space="preserve">
<style type="text/css">
	.st0{fill:#DDC153;}
</style>
<g>
	<path class="st0" d="M1058.1,295.9l10.7-0.9c0.5,3.7,1.9,6,3.7,7.9c1.8,1.9,4.6,2.3,7.9,2.3c3.7,0,6-0.9,7.9-2.3
		c1.9-1.4,2.8-3.2,2.8-5.1c0-1.4-0.5-2.3-0.9-3.2c-0.9-0.9-1.9-1.9-3.7-2.3c-1.4-0.5-4.2-1.4-8.8-2.3c-6-1.4-9.7-3.2-12.5-5.6
		c-3.2-2.8-5.1-6.5-5.1-10.7c0-2.8,0.9-5.1,2.3-7.9c1.4-2.3,3.7-4.2,6.9-5.6c2.8-1.4,6.5-1.9,10.7-1.9c6.9,0,12,1.4,15.3,4.6
		c3.2,2.8,5.1,6.9,5.6,12l-11.1,0.5c-0.5-2.8-1.4-4.6-2.8-6c-1.4-1.4-3.7-1.9-6.9-1.9c-3.2,0-5.6,0.5-7.4,1.9
		c-0.9,0.9-1.9,1.9-1.9,3.2c0,1.4,0.5,2.3,1.9,3.2c1.4,0.9,4.6,2.3,10.2,3.7c5.1,1.4,9.3,2.8,11.6,3.7c2.3,1.4,4.6,3.2,6,5.6
		c1.4,2.4,2.3,5.1,2.3,8.8c0,3.2-0.9,6-2.8,8.8s-4.2,4.6-7.4,6c-3.2,1.4-6.9,1.9-11.6,1.9c-6.9,0-12-1.4-15.7-4.6
		C1060.9,306.6,1058.6,301.9,1058.1,295.9L1058.1,295.9z M980.3,313v-44.9h-16.2v-9.3h43.1v9.3H991V313H980.3L980.3,313z M878,282
		h7.9c5.1,0,8.3,0,9.7-0.5s2.3-1.4,3.2-2.3s0.9-2.3,0.9-4.2c0-1.9-0.5-3.2-1.4-4.6c-0.9-0.9-2.3-1.9-4.2-2.3c-0.9,0-3.7,0-7.9,0H878
		V282L878,282z M867.3,313v-54.1h23.2c5.6,0,10.2,0.5,12.5,1.4c2.8,0.9,4.6,2.8,6.5,5.1c1.4,2.3,2.3,5.1,2.3,8.3
		c0,4.2-1.4,7.4-3.7,10.2s-6,4.2-10.7,5.1c2.3,1.4,4.2,2.8,6,4.6c1.4,1.9,3.7,4.6,6,8.8L916,313h-13l-7.9-11.6
		c-2.8-4.2-4.6-6.9-5.6-7.9s-2.3-1.9-3.2-2.3c-0.9-0.5-2.8-0.5-5.6-0.5h-2.3v22.7h-11.1L867.3,313L867.3,313z M794.6,291.7
		l-7.4-19.9l-7.4,19.9H794.6L794.6,291.7z M815,313h-12l-4.6-12.5h-21.8L772,313h-11.6l20.8-54.2h11.6L815,313L815,313z
		 M685.8,268.6v15.3h6c4.2,0,7.4-0.5,8.8-0.9c1.4-0.5,2.8-1.4,3.2-2.8c0.9-1.4,1.4-2.8,1.4-4.2c0-1.9-0.5-3.7-1.9-5.1
		c-0.9-1.4-2.8-1.9-4.2-2.3c-1.4-0.5-3.7-0.5-7.9-0.5h-5.6v0.5H685.8z M674.7,313v-54.1h17.6c6.5,0,11.1,0.5,13,0.9
		c3.2,0.9,5.6,2.8,7.9,5.1c2.3,2.8,3.2,6,3.2,10.7c0,3.2-0.5,6-1.9,8.3c-1.4,2.3-2.8,4.2-4.6,5.6c-1.9,1.4-3.7,2.3-5.6,2.8
		c-2.8,0.5-6.5,0.9-11.1,0.9h-6.9v20.4h-11.6L674.7,313L674.7,313z M526.5,282h7.9c5.1,0,8.3,0,9.7-0.5s2.3-1.4,3.2-2.3
		s0.9-2.3,0.9-4.2c0-1.9-0.5-3.2-1.4-4.6c-0.9-0.9-2.3-1.9-4.2-2.3c-0.9,0-3.7,0-7.9,0h-8.3L526.5,282L526.5,282z M515.4,313v-54.1
		h23.2c5.6,0,10.2,0.5,12.5,1.4c2.8,0.9,4.6,2.8,6.5,5.1c1.4,2.3,2.3,5.1,2.3,8.3c0,4.2-1.4,7.4-3.7,10.2s-6,4.2-10.7,5.1
		c2.3,1.4,4.2,2.8,6,4.6c1.4,1.9,3.7,4.6,6,8.8L564,313h-13l-7.9-11.6c-2.8-4.2-4.6-6.9-5.6-7.9s-2.3-1.9-3.2-2.3
		c-1.4-0.5-2.8-0.5-5.6-0.5h-2.3v22.7h-11.1L515.4,313L515.4,313z M418.6,313v-54.1h39.8v9.3h-29.2v12h27.3v9.3h-27.3v14.8h30.1v9.3
		h-40.8V313H418.6z M328.8,289.9v14.4H339c3.7,0,6.5,0,7.4-0.5c1.4-0.5,2.8-0.9,4.2-2.3c0.9-0.9,1.4-2.8,1.4-4.6s-0.5-2.8-1.4-4.2
		c-0.9-0.9-1.9-1.9-3.2-2.3c-1.3-0.4-4.6-0.9-9.7-0.9h-8.8v0.4H328.8z M328.8,268.1v12.5h6.9c4.2,0,6.9,0,7.9,0
		c1.9,0,3.2-0.9,4.6-1.9c0.9-0.9,1.4-2.3,1.4-4.2c0-1.9-0.5-3.2-1.4-4.2c-0.9-0.9-2.3-1.9-4.2-1.9c-0.9,0-4.2,0-9.3,0h-6v-0.3H328.8
		z M317.7,259.3h21.8c4.2,0,7.4,0,9.7,0.5c2.3,0.5,4.2,0.9,5.6,2.3c1.9,0.9,3.2,2.8,4.2,4.6c0.9,1.9,1.9,4.2,1.9,6.5
		c0,2.3-0.5,4.6-1.9,6.9c-1.4,2.3-3.2,3.7-5.6,4.6c3.2,0.9,6,2.8,7.4,5.1c1.9,2.3,2.8,5.1,2.8,8.3c0,2.3-0.5,4.6-1.9,6.9
		c-0.9,2.3-2.8,4.2-4.6,5.6c-1.9,1.4-4.6,2.3-7.4,2.8c-1.9,0-6,0.5-13,0.5h-18.5v-54.6H317.7z M227.8,289.9v14.4H238
		c3.7,0,6.5,0,7.4-0.5c1.9-0.5,2.8-0.9,4.2-2.3c0.9-0.9,1.4-2.8,1.4-4.6s-0.5-2.8-1.4-4.2c-0.9-0.9-1.9-1.9-3.2-2.3
		c-1.3-0.4-4.6-0.9-9.7-0.9h-8.8L227.8,289.9L227.8,289.9z M227.8,268.1v12.5h6.9c4.2,0,6.9,0,7.9,0c1.9,0,3.2-0.9,4.6-1.9
		c0.9-0.9,1.4-2.3,1.4-4.2c0-1.9-0.5-3.2-1.4-4.2c-0.9-0.9-2.3-1.9-4.2-1.9c-0.9,0-4.2,0-9.3,0h-6v-0.3H227.8z M216.7,259.3h21.8
		c4.2,0,7.4,0,9.7,0.5c2.3,0.5,4.2,0.9,5.6,2.3c1.9,0.9,3.2,2.8,4.2,4.6s1.9,4.2,1.9,6.5c0,2.3-0.5,4.6-1.9,6.9
		c-1.4,2.3-3.2,3.7-5.6,4.6c3.2,0.9,6,2.8,7.4,5.1c1.9,2.3,2.8,5.1,2.8,8.3c0,2.3-0.5,4.6-1.9,6.9c-0.9,2.3-2.8,4.2-4.6,5.6
		c-1.9,1.4-4.6,2.3-7.4,2.8c-1.9,0-6,0.5-13,0.5h-18.5v-54.6H216.7z M115.8,259.3h11.1v29.2c0,4.6,0,7.9,0.5,8.8
		c0.5,2.3,1.4,4.2,3.2,5.1c1.9,1.4,4.2,1.9,7.4,1.9s5.6-0.5,6.9-1.9c1.4-1.4,2.3-2.8,2.8-4.6c0.5-1.8,0.5-5.1,0.5-9.3v-30.1h11.1
		v28.2c0,6.5-0.5,11.1-0.9,13.9c-0.5,2.8-1.9,5.1-3.2,6.9c-1.4,1.9-3.7,3.2-6.5,4.6c-2.8,0.9-6,1.9-10.2,1.9
		c-5.1,0-9.3-0.5-11.6-1.9c-2.8-1.4-4.6-2.8-6.5-4.6c-1.4-1.9-2.8-3.7-3.2-6c-0.9-3.2-0.9-7.9-0.9-13.9v-28.2H115.8z M25.5,282h7.9
		c5.1,0,8.3,0,9.7-0.5s2.3-1.4,3.2-2.3s0.9-2.3,0.9-4.2c0-1.9-0.5-3.2-1.4-4.6c-0.9-0.9-2.3-1.9-4.2-2.3c-0.9,0-3.7,0-7.9,0h-8.3
		L25.5,282L25.5,282z M14.8,313v-54.1H38c5.6,0,10.2,0.5,12.5,1.4c2.8,0.9,4.6,2.8,6.5,5.1c1.4,2.3,2.3,5.1,2.3,8.3
		c0,4.2-1.4,7.4-3.7,10.2c-2.3,2.8-6,4.2-10.7,5.1c2.3,1.4,4.2,2.8,6,4.6c1.4,1.9,3.7,4.6,6,8.8l6.5,10.7h-13l-7.9-11.6
		c-2.8-4.2-4.6-6.9-5.6-7.9c-0.9-0.9-2.3-1.9-3.2-2.3c-0.9-0.5-2.8-0.5-5.6-0.5h-2.3v22.7h-11V313z M504.8,47.2H189.4v33.3v17.6
		v34.7v38.4v38.4v6h-6h-52.3h-6v-6V6V0h6h397.8c9.3,0,17.6,0.9,25,2.3c7.4,1.9,13.9,4.2,19,7.9s8.8,8.3,11.1,14.8
		c2.3,6,3.2,12.5,3.2,20.4v47.7c0,7.4-0.9,14.4-3.2,19.9c-2.3,6-6,10.7-10.7,14.4c-4.6,3.7-11.1,6.5-18.5,8.3
		c-7.4,1.9-15.7,2.3-25.5,2.3h-83.4l130.6,65.8l22.2,11.1h-25h-76.9h-1.4l-1.4-0.5l-161-76.9l-3.2-1.4v-3.7V97.7v-6h6h169
		c4.6,0,7.9-0.5,10.7-0.9c2.3-0.5,4.2-0.9,5.1-1.9c0.9-0.5,1.4-1.4,1.9-2.3l0,0c0.5-1.4,0.9-3.2,0.9-5.6V57.4c0-2.3-0.5-4.2-0.9-5.6
		c-0.5-0.9-0.9-1.9-1.4-2.3c-0.9-0.9-2.8-1.4-5.1-1.9C513.1,47.2,509.4,47.2,504.8,47.2L504.8,47.2z M0,209.3V6V0h6h53.7h6v6
		l0.5,203.3v6h-6H5.6H0V209.3L0,209.3z M1051.2,48.2H720.1v117.1h331.1v-10.7V150l4.6-0.9l53.7-12l7.4-1.4v7.4v18.5
		c0,9.7-0.9,18.1-3.2,25c-2.3,7.4-5.6,13.4-10.7,17.6c-4.6,4.2-11.6,6.9-19.9,8.8c-7.9,1.9-18.1,2.8-29.6,2.8H717.8
		c-11.6,0-21.3-0.9-29.2-2.8c-8.8-1.9-15.3-4.6-19.9-8.8c-4.6-4.2-8.4-10.2-10.7-17.6c-1.9-6.9-3.2-15.3-3.2-25V54.2
		c0-9.7,0.9-18.1,3.2-25c2.3-7.4,5.6-13,10.7-17.1c4.6-4.2,11.6-6.9,19.9-9.3c7.9-1.9,18.1-2.8,29.2-2.8h335.7
		c11.6,0,21.3,0.9,29.2,2.8c8.3,1.9,15.3,5.1,19.9,9.3s8.3,9.7,10.7,17.1c2.3,6.9,3.2,15.3,3.2,25v4.6l-4.6,0.9l-53.7,11.6l-6.9,1.4
		v-7.4L1051.2,48.2L1051.2,48.2z M0,241.3h1116.9v89.8H0V241.3L0,241.3z"/>
</g>
</svg>
