<?xml version="1.0" encoding="utf-8"?>
<!-- Generator: Adobe Illustrator 22.1.0, SVG Export Plug-In . SVG Version: 6.00 Build 0)  -->
<svg version="1.1" id="Слой_1" xmlns="http://www.w3.org/2000/svg" xmlns:xlink="http://www.w3.org/1999/xlink" x="0px" y="0px"
	 viewBox="0 0 1141.5 171.3" style="enable-background:new 0 0 1141.5 171.3;" xml:space="preserve">
<style type="text/css">
	.st0{fill:#011F4F;}
</style>
<g id="Слой_x0020_1">
	<path class="st0" d="M1083.4,108.5h-25.2h-46.9V72.6h46.9h25.2C1110.1,72.7,1109.6,108.5,1083.4,108.5z M1140.9,142.3L1140.9,142.3
		c-1-12-9.1-17.9-20.7-20.9c12.1-7.3,18.7-14.9,18.7-30.7c0-30.7-16.6-44-52.5-44h-28.2H975v124.2h36.8v-36.3
		c15.1,0,31.2-0.4,46.4-0.4h16.6c6.5,0.4,20.2,0.4,25.2,5.1c5.6,5.1,4.5,20.5,4.5,26.9v4.7h36.8v-4.7
		C1141.4,158.5,1141.9,149.9,1140.9,142.3L1140.9,142.3z M802.4,46.6v124.2h75.1h74.7v-24.3h-74.7h-38.8v-26.9h38.8h71.1V96.5h-71.1
		h-38.8V71.4h38.8h74.7V46.6h-74.7H802.4L802.4,46.6z M739.9,145.2h-3.5L682.5,85l-34.3-38.4h-60v124.2H625V72.6h3.5l54,61.1
		l33.3,37.1h61.1V46.6H740L739.9,145.2L739.9,145.2z M526.5,145.2H523L469,85l-34.8-38.4h-59.5v124.2H411V72.6h3.5l54.5,61.1
		l32.8,37.1h61V46.6h-36.3V145.2L526.5,145.2z M310.6,141c-2,1.7-5,3-8.6,3.4c-4.5,0.8-9.6,1.3-13.6,1.3
		c-14.6,0.4-29.7-0.4-44.9-0.4c-3.5,0-7.1,0-10.1-0.4c-11.6-1.3-16.1-6-16.1-19.6c0-11.1-0.5-23.1,0.5-34.2c0-4.3,1-11.1,4.5-14.1
		c2.5-2.1,7.1-3,11.1-3.8c3,0,5.5-0.4,7.6-0.4c15.6-0.9,32.3,0,47.9,0c5.5,0,9.6,0,13.1,0.9c12.6,2.6,13.6,10.7,13.6,25.6
		c0,8.5,0.5,17.5,0.5,26.1C316.2,130.3,315.7,137.6,310.6,141L310.6,141z M340.9,56.4L340.9,56.4c-8.6-7.7-23.7-9-35.8-9.4l-3-0.4
		c-21.7-0.9-44.9,0-66.6,0h-2c-14.6,0-33.3,1.7-43.4,12c-7.6,7.7-9.1,18.3-9.6,28.2c-0.5,13.6,0.5,27.7,0.5,41.4
		c0,32,17.2,42.7,52.4,42.7h2c14.1,0,28.2,0.4,42.9,0.4c6.6,0,15.1,0,23.7-0.4c8.6,0,16.6-0.9,22.7-2.1
		c24.2-5.5,27.7-21.8,27.7-40.6c0-14.9,0.5-30.7-1-45.7C351,73.5,349,63.3,340.9,56.4L340.9,56.4z M316.2,24.3V0h-17.6H281v24.3
		h17.6H316.2z M247.6,24.3V0H230h-17.7v24.3H230H247.6z M87.2,105.1l1.5-1.3l85.2-57.2h-55L88.6,68.8L55.3,92.3h-19V46.6H0v124.2
		h36.3v-52.5h20.2l32.3,25.2l34.8,27.3H177l-88.3-64.9L87.2,105.1L87.2,105.1z"/>
</g>
</svg>
