<svg width="283.5" height="283.5" xmlns="http://www.w3.org/2000/svg" xmlns:svg="http://www.w3.org/2000/svg">
    <style type="text/css">.st0{fill:#818183;}
        .st1{fill-rule:evenodd;clip-rule:evenodd;fill:#818183;}
        .st2{fill-rule:evenodd;clip-rule:evenodd;fill:#27B0DF;}
        .st3{fill-rule:evenodd;clip-rule:evenodd;fill:#28B0DE;}
        .st4{fill-rule:evenodd;clip-rule:evenodd;fill:#29B0DE;}
        .st5{fill-rule:evenodd;clip-rule:evenodd;fill:#2AB0DD;}
        .st6{fill-rule:evenodd;clip-rule:evenodd;fill:#2BB0DD;}
        .st7{fill-rule:evenodd;clip-rule:evenodd;fill:#2CB0DC;}
        .st8{fill-rule:evenodd;clip-rule:evenodd;fill:#2DB0DC;}
        .st9{fill-rule:evenodd;clip-rule:evenodd;fill:#2EB1DB;}
        .st10{fill-rule:evenodd;clip-rule:evenodd;fill:#2FB1DB;}
        .st11{fill-rule:evenodd;clip-rule:evenodd;fill:#30B1DA;}
        .st12{fill-rule:evenodd;clip-rule:evenodd;fill:#30B1DB;}
        .st13{fill-rule:evenodd;clip-rule:evenodd;fill:#31B1DB;}
        .st14{fill-rule:evenodd;clip-rule:evenodd;fill:#32B1DB;}
        .st15{fill-rule:evenodd;clip-rule:evenodd;fill:#33B1DA;}
        .st16{fill-rule:evenodd;clip-rule:evenodd;fill:#34B1DA;}
        .st17{fill-rule:evenodd;clip-rule:evenodd;fill:#35B1DA;}
        .st18{fill-rule:evenodd;clip-rule:evenodd;fill:#36B1DA;}
        .st19{fill-rule:evenodd;clip-rule:evenodd;fill:#37B2DA;}
        .st20{fill-rule:evenodd;clip-rule:evenodd;fill:#38B2DA;}
        .st21{fill-rule:evenodd;clip-rule:evenodd;fill:#39B2D9;}
        .st22{fill-rule:evenodd;clip-rule:evenodd;fill:#3AB2D9;}
        .st23{fill-rule:evenodd;clip-rule:evenodd;fill:#3AB2DA;}
        .st24{fill-rule:evenodd;clip-rule:evenodd;fill:#3BB2DA;}
        .st25{fill-rule:evenodd;clip-rule:evenodd;fill:#3CB2DA;}
        .st26{fill-rule:evenodd;clip-rule:evenodd;fill:#3EB3DA;}
        .st27{fill-rule:evenodd;clip-rule:evenodd;fill:#3FB3DA;}
        .st28{fill-rule:evenodd;clip-rule:evenodd;fill:#40B3DA;}
        .st29{fill-rule:evenodd;clip-rule:evenodd;fill:#41B3DA;}
        .st30{fill-rule:evenodd;clip-rule:evenodd;fill:#42B3D9;}
        .st31{fill-rule:evenodd;clip-rule:evenodd;fill:#44B4DA;}
        .st32{fill-rule:evenodd;clip-rule:evenodd;fill:#45B4D9;}
        .st33{fill-rule:evenodd;clip-rule:evenodd;fill:#46B4D9;}
        .st34{fill-rule:evenodd;clip-rule:evenodd;fill:#47B4DA;}
        .st35{fill-rule:evenodd;clip-rule:evenodd;fill:#48B5DA;}
        .st36{fill-rule:evenodd;clip-rule:evenodd;fill:#4AB5DA;}
        .st37{fill-rule:evenodd;clip-rule:evenodd;fill:#4BB5DA;}
        .st38{fill-rule:evenodd;clip-rule:evenodd;fill:#4CB5D9;}
        .st39{fill-rule:evenodd;clip-rule:evenodd;fill:#4DB6DA;}
        .st40{fill-rule:evenodd;clip-rule:evenodd;fill:#4EB6DA;}
        .st41{fill-rule:evenodd;clip-rule:evenodd;fill:#4FB6D9;}
        .st42{fill-rule:evenodd;clip-rule:evenodd;fill:#51B7DA;}
        .st43{fill-rule:evenodd;clip-rule:evenodd;fill:#52B7D9;}
        .st44{fill-rule:evenodd;clip-rule:evenodd;fill:#53B7D9;}
        .st45{fill-rule:evenodd;clip-rule:evenodd;fill:#53B7DA;}
        .st46{fill-rule:evenodd;clip-rule:evenodd;fill:#55B8DA;}
        .st47{fill-rule:evenodd;clip-rule:evenodd;fill:#56B8DA;}
        .st48{fill-rule:evenodd;clip-rule:evenodd;fill:#57B8DA;}
        .st49{fill-rule:evenodd;clip-rule:evenodd;fill:#58B9DA;}
        .st50{fill-rule:evenodd;clip-rule:evenodd;fill:#59B9DB;}
        .st51{fill-rule:evenodd;clip-rule:evenodd;fill:#5AB9DB;}
        .st52{fill-rule:evenodd;clip-rule:evenodd;fill:#5BB9DA;}
        .st53{fill-rule:evenodd;clip-rule:evenodd;fill:#5CBADB;}
        .st54{fill-rule:evenodd;clip-rule:evenodd;fill:#5DBADB;}
        .st55{fill-rule:evenodd;clip-rule:evenodd;fill:#5EBADB;}
        .st56{fill-rule:evenodd;clip-rule:evenodd;fill:#5FBADB;}
        .st57{fill-rule:evenodd;clip-rule:evenodd;fill:#61BBDB;}
        .st58{fill-rule:evenodd;clip-rule:evenodd;fill:#62BBDB;}
        .st59{fill-rule:evenodd;clip-rule:evenodd;fill:#62BBDC;}
        .st60{fill-rule:evenodd;clip-rule:evenodd;fill:#63BCDC;}
        .st61{fill-rule:evenodd;clip-rule:evenodd;fill:#65BCDC;}
        .st62{fill-rule:evenodd;clip-rule:evenodd;fill:#66BCDC;}
        .st63{fill-rule:evenodd;clip-rule:evenodd;fill:#67BDDD;}
        .st64{fill-rule:evenodd;clip-rule:evenodd;fill:#68BDDC;}
        .st65{fill-rule:evenodd;clip-rule:evenodd;fill:#69BDDD;}
        .st66{fill-rule:evenodd;clip-rule:evenodd;fill:#6ABEDC;}
        .st67{fill-rule:evenodd;clip-rule:evenodd;fill:#6BBEDC;}
        .st68{fill-rule:evenodd;clip-rule:evenodd;fill:#6DBFDD;}
        .st69{fill-rule:evenodd;clip-rule:evenodd;fill:#6EBFDC;}
        .st70{fill-rule:evenodd;clip-rule:evenodd;fill:#6FBFDD;}
        .st71{fill-rule:evenodd;clip-rule:evenodd;fill:#6FC0DD;}
        .st72{fill-rule:evenodd;clip-rule:evenodd;fill:#71C0DD;}
        .st73{fill-rule:evenodd;clip-rule:evenodd;fill:#72C0DD;}
        .st74{fill-rule:evenodd;clip-rule:evenodd;fill:#73C1DE;}
        .st75{fill-rule:evenodd;clip-rule:evenodd;fill:#75C1DE;}
        .st76{fill-rule:evenodd;clip-rule:evenodd;fill:#76C2DE;}
        .st77{fill-rule:evenodd;clip-rule:evenodd;fill:#77C2DF;}
        .st78{fill-rule:evenodd;clip-rule:evenodd;fill:#78C2DE;}
        .st79{fill-rule:evenodd;clip-rule:evenodd;fill:#79C3DF;}
        .st80{fill-rule:evenodd;clip-rule:evenodd;fill:#7AC3DF;}
        .st81{fill-rule:evenodd;clip-rule:evenodd;fill:#7BC4DE;}
        .st82{fill-rule:evenodd;clip-rule:evenodd;fill:#7CC4DF;}
        .st83{fill-rule:evenodd;clip-rule:evenodd;fill:#7EC5DF;}
        .st84{fill-rule:evenodd;clip-rule:evenodd;fill:#7FC5DF;}
        .st85{fill-rule:evenodd;clip-rule:evenodd;fill:#80C5DF;}
        .st86{fill-rule:evenodd;clip-rule:evenodd;fill:#81C6E0;}
        .st87{fill-rule:evenodd;clip-rule:evenodd;fill:#83C6DF;}
        .st88{fill-rule:evenodd;clip-rule:evenodd;fill:#84C7E1;}
        .st89{fill-rule:evenodd;clip-rule:evenodd;fill:#85C7E1;}
        .st90{fill-rule:evenodd;clip-rule:evenodd;fill:#86C8E1;}
        .st91{fill-rule:evenodd;clip-rule:evenodd;fill:#87C8E1;}
        .st92{fill-rule:evenodd;clip-rule:evenodd;fill:#88C9E2;}
        .st93{fill-rule:evenodd;clip-rule:evenodd;fill:#89C9E1;}
        .st94{fill-rule:evenodd;clip-rule:evenodd;fill:#8BCAE2;}
        .st95{fill-rule:evenodd;clip-rule:evenodd;fill:#8CCAE2;}
        .st96{fill-rule:evenodd;clip-rule:evenodd;fill:#8DCBE2;}
        .st97{fill-rule:evenodd;clip-rule:evenodd;fill:#8FCBE2;}
        .st98{fill-rule:evenodd;clip-rule:evenodd;fill:#90CCE3;}
        .st99{fill-rule:evenodd;clip-rule:evenodd;fill:#92CDE3;}
        .st100{fill-rule:evenodd;clip-rule:evenodd;fill:#93CDE3;}
        .st101{fill-rule:evenodd;clip-rule:evenodd;fill:#94CDE4;}
        .st102{fill-rule:evenodd;clip-rule:evenodd;fill:#95CEE4;}
        .st103{fill-rule:evenodd;clip-rule:evenodd;fill:#97CFE5;}
        .st104{fill-rule:evenodd;clip-rule:evenodd;fill:#98CFE4;}
        .st105{fill-rule:evenodd;clip-rule:evenodd;fill:#99CFE5;}
        .st106{fill-rule:evenodd;clip-rule:evenodd;fill:#9BD0E5;}
        .st107{fill-rule:evenodd;clip-rule:evenodd;fill:#9CD1E5;}
        .st108{fill-rule:evenodd;clip-rule:evenodd;fill:#9DD1E5;}
        .st109{fill-rule:evenodd;clip-rule:evenodd;fill:#9DD1E6;}
        .st110{fill-rule:evenodd;clip-rule:evenodd;fill:#9FD2E6;}
        .st111{fill-rule:evenodd;clip-rule:evenodd;fill:#A0D2E6;}
        .st112{fill-rule:evenodd;clip-rule:evenodd;fill:#A1D3E6;}
        .st113{fill-rule:evenodd;clip-rule:evenodd;fill:#A3D4E6;}
        .st114{fill-rule:evenodd;clip-rule:evenodd;fill:#A4D4E7;}
        .st115{fill-rule:evenodd;clip-rule:evenodd;fill:#A5D5E8;}
        .st116{fill-rule:evenodd;clip-rule:evenodd;fill:#A6D5E8;}
        .st117{fill-rule:evenodd;clip-rule:evenodd;fill:#A8D6E8;}
        .st118{fill-rule:evenodd;clip-rule:evenodd;fill:#A8D6E9;}
        .st119{fill-rule:evenodd;clip-rule:evenodd;fill:#A9D7E8;}
        .st120{fill-rule:evenodd;clip-rule:evenodd;fill:#AAD7E9;}
        .st121{fill-rule:evenodd;clip-rule:evenodd;fill:#ACD8EA;}
        .st122{fill-rule:evenodd;clip-rule:evenodd;fill:#ADD8E9;}
        .st123{fill-rule:evenodd;clip-rule:evenodd;fill:#AED9E9;}
        .st124{fill-rule:evenodd;clip-rule:evenodd;fill:#AFD9EA;}
        .st125{fill-rule:evenodd;clip-rule:evenodd;fill:#B1DAEA;}
        .st126{fill-rule:evenodd;clip-rule:evenodd;fill:#B2DAEA;}
        .st127{fill-rule:evenodd;clip-rule:evenodd;fill:#B3DBEB;}
        .st128{fill-rule:evenodd;clip-rule:evenodd;fill:#B5DCEC;}
        .st129{fill-rule:evenodd;clip-rule:evenodd;fill:#B6DDEC;}
        .st130{fill-rule:evenodd;clip-rule:evenodd;fill:#B7DDEC;}
        .st131{fill-rule:evenodd;clip-rule:evenodd;fill:#B8DDEC;}
        .st132{fill-rule:evenodd;clip-rule:evenodd;fill:#BADEED;}
        .st133{fill-rule:evenodd;clip-rule:evenodd;fill:#BBDFED;}
        .st134{fill-rule:evenodd;clip-rule:evenodd;fill:#BCDFED;}
        .st135{fill-rule:evenodd;clip-rule:evenodd;fill:#BDE0EE;}
        .st136{fill-rule:evenodd;clip-rule:evenodd;fill:#BFE1EE;}
        .st137{fill-rule:evenodd;clip-rule:evenodd;fill:#C0E1EE;}
        .st138{fill-rule:evenodd;clip-rule:evenodd;fill:#C1E2EF;}
        .st139{fill-rule:evenodd;clip-rule:evenodd;fill:#C3E2EF;}
        .st140{fill-rule:evenodd;clip-rule:evenodd;fill:#C4E3EF;}
        .st141{fill-rule:evenodd;clip-rule:evenodd;fill:#C6E3F0;}
        .st142{fill-rule:evenodd;clip-rule:evenodd;fill:#C6E4EF;}
        .st143{fill-rule:evenodd;clip-rule:evenodd;fill:#C9E5F1;}
        .st144{fill-rule:evenodd;clip-rule:evenodd;fill:#CAE5F2;}
        .st145{fill-rule:evenodd;clip-rule:evenodd;fill:#CAE6F1;}
        .st146{fill-rule:evenodd;clip-rule:evenodd;fill:#CBE6F2;}
        .st147{fill-rule:evenodd;clip-rule:evenodd;fill:#CDE7F2;}
        .st148{fill-rule:evenodd;clip-rule:evenodd;fill:#CEE8F2;}
        .st149{fill-rule:evenodd;clip-rule:evenodd;fill:#CFE8F2;}
        .st150{fill-rule:evenodd;clip-rule:evenodd;fill:#D0E9F3;}
        .st151{fill-rule:evenodd;clip-rule:evenodd;fill:#D2E9F3;}
        .st152{fill-rule:evenodd;clip-rule:evenodd;fill:#D4EAF3;}
        .st153{fill-rule:evenodd;clip-rule:evenodd;fill:#D5EBF3;}
        .st154{fill-rule:evenodd;clip-rule:evenodd;fill:#D7EBF3;}
        .st155{fill-rule:evenodd;clip-rule:evenodd;fill:#D8ECF4;}
        .st156{fill-rule:evenodd;clip-rule:evenodd;fill:#D9EDF5;}
        .st157{fill-rule:evenodd;clip-rule:evenodd;fill:#DAEDF5;}
        .st158{fill-rule:evenodd;clip-rule:evenodd;fill:#DCEEF7;}
        .st159{fill-rule:evenodd;clip-rule:evenodd;fill:#DDEFF8;}
        .st160{fill-rule:evenodd;clip-rule:evenodd;fill:#DEEFF7;}
        .st161{fill-rule:evenodd;clip-rule:evenodd;fill:#DFF0F7;}
        .st162{fill-rule:evenodd;clip-rule:evenodd;fill:#E1F1F7;}
        .st163{fill-rule:evenodd;clip-rule:evenodd;fill:#E3F1F7;}
        .st164{fill-rule:evenodd;clip-rule:evenodd;fill:#E4F2F8;}
        .st165{fill-rule:evenodd;clip-rule:evenodd;fill:#E6F3F7;}
        .st166{fill-rule:evenodd;clip-rule:evenodd;fill:#E8F4F8;}
        .st167{fill-rule:evenodd;clip-rule:evenodd;fill:#E9F4F9;}
        .st168{fill-rule:evenodd;clip-rule:evenodd;fill:#EAF5F8;}
        .st169{fill-rule:evenodd;clip-rule:evenodd;fill:#EDF6F9;}
        .st170{fill-rule:evenodd;clip-rule:evenodd;fill:#EEF7FA;}
        .st171{fill-rule:evenodd;clip-rule:evenodd;fill:#EFF7FB;}
        .st172{fill-rule:evenodd;clip-rule:evenodd;fill:#F1F8FC;}
        .st173{fill-rule:evenodd;clip-rule:evenodd;fill:#F4FAFE;}
        .st174{fill-rule:evenodd;clip-rule:evenodd;fill:#F5FAFD;}
        .st175{fill-rule:evenodd;clip-rule:evenodd;fill:#F7FBFE;}
        .st176{fill-rule:evenodd;clip-rule:evenodd;fill:#F9FCFE;}
        .st177{fill-rule:evenodd;clip-rule:evenodd;fill:#FEFEFF;}
        .st178{fill-rule:evenodd;clip-rule:evenodd;fill:#FFFFFF;}</style>
    <g>
        <title>Layer 1</title>
        <g id="svg_1">
            <path id="svg_2" d="m104.8,179.7l1.7,0l0,-2.6c0.1,0 0.3,0 0.4,0c1.1,0 2.8,-0.5 2.8,-2.5c0,-0.7 -0.3,-1.3 -0.7,-1.7c-0.5,-0.4 -1.2,-0.6 -2.2,-0.6c-0.8,0 -1.5,0.1 -2,0.2l0,7.2l0,0zm1.7,-6c0.1,0 0.3,-0.1 0.5,-0.1c0.7,0 1.1,0.4 1.1,1c0,0.7 -0.4,1.1 -1.2,1.1c-0.2,0 -0.3,0 -0.4,0l0,-2l0,0zm9.7,0.6l-0.5,2.6c-0.1,0.3 -0.1,0.6 -0.2,0.9l0,0c0,-0.3 -0.1,-0.6 -0.2,-0.9l-0.6,-2.6l-1.8,0l1.7,4.9c0,0.1 0.1,0.2 0.1,0.2c0,0.3 -0.7,1 -1.4,1.1l0.4,1.4c0.4,-0.1 0.9,-0.3 1.5,-0.8c0.6,-0.6 1,-1.5 1.6,-3.1l1.2,-3.8l-1.8,0l0,0.1zm9.8,0l-1.7,0l0,3.3c0,0.5 -0.3,0.8 -0.7,0.8c-0.5,0 -0.7,-0.4 -0.7,-1.1l0,-2.9l-1.7,0l0,3.2c0,1.5 0.6,2.3 1.7,2.3c0.8,0 1.3,-0.4 1.5,-0.8l0,0l0.1,0.7l1.4,0c0,-0.5 0,-1.1 0,-1.7l0,-3.8l0.1,0zm8.7,2.1c0,-1.4 -0.6,-2.2 -1.7,-2.2c-0.7,0 -1.2,0.4 -1.5,0.8l0,0l-0.1,-0.7l-1.4,0c0,0.5 0,1.1 0,1.7l0,3.6l1.7,0l0,-3.1c0,-0.7 0.4,-0.9 0.7,-0.9c0.5,0 0.6,0.4 0.6,1l0,3.1l1.7,0l0,-3.3l0,0zm7.2,-2.1l-0.1,0.6l0,0c-0.2,-0.4 -0.7,-0.7 -1.2,-0.7c-1.2,0 -2.2,1.1 -2.2,2.8c0,1.4 0.7,2.6 2,2.6c0.5,0 0.9,-0.2 1.2,-0.6l0,0l0,0.3c0,0.8 -0.4,1.3 -1.2,1.3c-0.5,0 -1,-0.2 -1.3,-0.3l-0.3,1.3c0.4,0.2 1.1,0.3 1.7,0.3c2.5,0 2.8,-1.6 2.8,-2.9l0,-3c0,-0.7 0,-1.2 0,-1.6l-1.4,0l0,-0.1zm-0.3,3.2c0,0.7 -0.3,0.9 -0.7,0.9c-0.5,0 -0.8,-0.5 -0.8,-1.4c0,-0.9 0.3,-1.5 0.9,-1.5c0.4,0 0.7,0.3 0.7,0.9l0,1.1l-0.1,0zm12.3,-5.1l-1.7,0l0,2.8l-2.1,0l0,-2.8l-1.7,0l0,7.3l1.7,0l0,-3l2.1,0l0,3l1.7,0l0,-7.3l0,0zm9.4,1.9l-0.4,2.1c-0.1,0.6 -0.2,1.2 -0.2,1.7l0,0c-0.1,-0.6 -0.2,-1.1 -0.3,-1.7l-0.5,-2.1l-1.3,0l-0.5,2.2c-0.1,0.5 -0.2,1.1 -0.3,1.7l0,0c-0.1,-0.6 -0.2,-1.1 -0.2,-1.7l-0.3,-2.2l-1.7,0l1.4,5.3l1.5,0l0.5,-1.7c0.1,-0.5 0.2,-1 0.3,-1.7l0,0c0.1,0.6 0.2,1.2 0.3,1.7l0.4,1.7l1.5,0l1.5,-5.3l-1.7,0l0,0zm9.3,2.2c0,-1.2 -0.4,-2.3 -2.2,-2.3c-0.9,0 -1.6,0.3 -2,0.5l0.3,1.1c0.3,-0.2 0.8,-0.4 1.3,-0.4c0.7,0 0.9,0.3 0.9,0.7c-1.6,0 -2.8,0.6 -2.8,2c0,0.9 0.6,1.6 1.6,1.6c0.5,0 1.1,-0.2 1.4,-0.6l0,0l0.1,0.5l1.5,0c-0.1,-0.3 -0.1,-0.8 -0.1,-1.3l0,-1.8l0,0zm-1.6,1.3c0,0.5 -0.4,0.7 -0.7,0.7c-0.3,0 -0.6,-0.2 -0.6,-0.6c0,-0.6 0.6,-0.8 1.3,-0.8l0,0.7l0,0zm12.1,-2.3l-2.4,0l0,1.3l0.9,0l0,1.5c-0.1,0 -0.3,0.1 -0.5,0.1c-1,0 -1.8,-0.7 -1.8,-2.3c0,-1.7 0.9,-2.4 2.1,-2.4c0.6,0 1,0.1 1.3,0.2l0.3,-1.4c-0.3,-0.2 -0.9,-0.3 -1.7,-0.3c-2.1,0 -3.8,1.3 -3.8,3.8c0,1.1 0.3,2.2 1,2.8c0.6,0.6 1.4,0.9 2.6,0.9c0.8,0 1.6,-0.2 2.1,-0.4l0,-3.8l-0.1,0zm5.6,-3.5l-1.7,0l0,7.6l1.7,0l0,-7.6l0,0zm6.2,2.2c-1.5,0 -2.5,1 -2.5,2.8c0,1.7 1,2.7 2.5,2.7c1.2,0 2.5,-0.7 2.5,-2.8c0,-1.5 -0.9,-2.7 -2.5,-2.7l0,0zm0.8,2.8c0,0.9 -0.3,1.6 -0.8,1.6c-0.6,0 -0.8,-0.7 -0.8,-1.6c0,-0.7 0.2,-1.6 0.8,-1.6c0.6,0 0.8,0.8 0.8,1.6l0,0zm7.1,-2.1l0,-2.9l-1.7,0l0,6c0,0.6 0,1.2 0,1.6l1.4,0l0.1,-0.7l0,0c0.3,0.6 0.8,0.8 1.3,0.8c1.1,0 2.1,-1 2.1,-2.9c0,-1.5 -0.7,-2.7 -1.9,-2.7c-0.5,0.1 -1,0.4 -1.3,0.8l0,0l0,0zm0,1.6c0,-0.6 0.4,-0.9 0.7,-0.9c0.6,0 0.9,0.6 0.9,1.4c0,0.9 -0.3,1.5 -0.9,1.5c-0.4,0 -0.7,-0.3 -0.7,-0.9l0,-1.1l0,0zm11.2,0c0,-1.2 -0.4,-2.3 -2.2,-2.3c-0.9,0 -1.6,0.3 -2,0.5l0.3,1.1c0.3,-0.2 0.8,-0.4 1.3,-0.4c0.7,0 0.9,0.3 0.9,0.7c-1.6,0 -2.8,0.6 -2.8,2c0,0.9 0.6,1.6 1.6,1.6c0.5,0 1.1,-0.2 1.4,-0.6l0,0l0.1,0.5l1.5,0c-0.1,-0.3 -0.1,-0.8 -0.1,-1.3l0,-1.8l0,0zm-1.6,1.3c0,0.5 -0.4,0.7 -0.7,0.7c-0.3,0 -0.6,-0.2 -0.6,-0.6c0,-0.6 0.6,-0.8 1.3,-0.8l0,0.7l0,0zm7.3,-5.8l-1.7,0l0,7.6l1.7,0l0,-7.6l0,0zm9.6,6.2c-0.3,0.1 -0.7,0.2 -1.1,0.2c-1.2,0 -1.9,-0.8 -1.9,-2.3c0,-1.6 0.9,-2.4 1.9,-2.4c0.5,0 0.8,0.1 1.1,0.2l0.3,-1.4c-0.2,-0.1 -0.7,-0.3 -1.5,-0.3c-1.9,0 -3.6,1.2 -3.6,3.9c0,2 1.1,3.6 3.4,3.6c0.7,0 1.3,-0.1 1.5,-0.2l-0.1,-1.3l0,0zm6.1,-4c-1.5,0 -2.5,1 -2.5,2.8c0,1.7 1,2.7 2.5,2.7c1.2,0 2.5,-0.7 2.5,-2.8c0,-1.5 -1,-2.7 -2.5,-2.7l0,0zm0.8,2.8c0,0.9 -0.3,1.6 -0.8,1.6c-0.6,0 -0.8,-0.7 -0.8,-1.6c0,-0.7 0.2,-1.6 0.8,-1.6c0.6,0 0.8,0.8 0.8,1.6l0,0zm6.4,2.8c0.6,0 1,-0.4 1,-1c0,-0.6 -0.4,-1 -1,-1c-0.5,0 -1,0.4 -1,1c0,0.5 0.4,1 1,1l0,0zm4.9,-1.9c-0.2,1 -0.4,2.1 -0.8,3.1l1.1,-0.1c0.5,-0.9 1,-2 1.4,-3.1l-1.7,0.1l0,0zm10.7,0.4l-2.4,0l0,-5.9l-1.7,0l0,7.3l4.1,0l0,-1.4l0,0zm3.8,-4l-0.7,0l0,1.2l0.7,0l0,2.2c0,0.6 0,2 1.7,2c0.4,0 0.8,-0.1 1,-0.1l0,-1.3c-0.1,0 -0.2,0 -0.4,0c-0.4,0 -0.6,-0.2 -0.6,-0.9l0,-2l1.1,0l0,-1.2l-1.1,0l0,-1.4l-1.6,0.5l0,1l-0.1,0zm11.1,-2.3l-1.7,0l0,2.7l0,0c-0.2,-0.3 -0.6,-0.5 -1.2,-0.5c-1.1,0 -2.1,1 -2.1,2.8c0,1.6 0.8,2.7 2,2.7c0.6,0 1.1,-0.3 1.4,-0.8l0,0l0.1,0.7l1.5,0c0,-0.4 0,-1 0,-1.6l0,-6l0,0zm-1.6,5.5c0,0.7 -0.4,0.9 -0.7,0.9c-0.5,0 -0.9,-0.5 -0.9,-1.4c0,-0.8 0.3,-1.5 0.9,-1.5c0.3,0 0.7,0.2 0.7,1l0,1l0,0zm6.5,2.3c0.6,0 1,-0.4 1,-1c0,-0.6 -0.4,-1 -1,-1c-0.5,0 -1,0.4 -1,1c0.1,0.5 0.5,1 1,1l0,0z" class="st0"/>
            <path id="svg_3" d="m145.8,124.5c6.9,0 12.6,5.7 12.6,12.6l0,4c0,6.9 -5.7,12.6 -12.6,12.6l-1,0l0,0l-22.3,0c-2.3,0 -4.1,-1.9 -4.1,-4.1c0,-2.3 1.9,-4.1 4.1,-4.1l22.3,0c2.8,0 5.1,-2.3 5.1,-5.1l0,-2.2c0,-2.8 -2.3,-5.1 -5.1,-5.1l-26.6,0c-2.8,0 -5.1,2.3 -5.1,5.1l0,1l0,6.3l0,8.3l0,9.6c0,2.3 -1.9,4.1 -4.1,4.1c-2.3,0 -4.1,-1.9 -4.1,-4.1l0,-24.2l0,0l0,-2.1c0,-6.9 5.7,-12.6 12.6,-12.6l28.3,0l0,0z" class="st1"/>
            <path id="svg_4" d="m174.4,142.1l32.1,0l0,-0.6l0,-13c0,-2.3 1.9,-4.1 4.1,-4.1l0,0c2.3,0 4.1,1.9 4.1,4.1l0,13l0,9.3l0,13c0,2.3 -1.9,4.1 -4.1,4.1l0,0c-2.3,0 -4.1,-1.9 -4.1,-4.1l0,-13l-32.1,0l0,13c0,2.3 -1.9,4.1 -4.1,4.1l0,0c-2.3,0 -4.1,-1.9 -4.1,-4.1l0,-13l0,-9.3l0,-13c0,-2.3 1.9,-4.1 4.1,-4.1l0,0c2.3,0 4.1,1.9 4.1,4.1l0,13l0,0.6l0,0z" class="st1"/>
            <path id="svg_5" d="m238.5,124.5l34,0c2.3,0 4.1,1.9 4.1,4.1c0,2.3 -1.9,4.1 -4.1,4.1l-34,0c-2.3,0 -4.2,1.9 -4.2,4.3l0,0.3l0,0.5l0,8.3l0,6.3l0,1c0,2.8 2.2,5.1 4.9,5.1l25,0c2.7,0 4.9,-2.3 4.9,-5.1l0,-3.1l-23.2,0c-2.3,0 -4.1,-1.9 -4.1,-4.1c0,-2.3 1.9,-4.1 4.1,-4.1l27.7,0c2.1,0 3.8,1.7 3.8,3.8l0,3.8l0,0.7l0,4c0,6.9 -5.5,12.6 -12.2,12.6l-27.3,0c-6.7,0 -12.2,-5.7 -12.2,-12.6l0,-2.1l0,0l0,-14.8c0,-0.3 0,-0.6 0,-0.9c0.5,-6.8 6.1,-12.1 12.8,-12.1l0,0z" class="st1"/>
            <path id="svg_6" d="m45,104.3c24.1,0 43.7,19.5 43.7,43.7c0,24.1 -19.5,43.7 -43.7,43.7c-24.1,0 -43.7,-19.5 -43.7,-43.7c0.1,-24.2 19.6,-43.7 43.7,-43.7l0,0zm-9.1,67.2c0.5,-7.4 0.6,-7.1 4.4,-12.7c1.3,-2 2.1,-4.2 1.9,-7.3c-0.3,-3.5 -2.2,-3.1 -4.8,-4c0.4,-1.1 1.8,-1.1 3.1,-2.9c1.1,-1.5 1.7,-2.4 4.2,-2.4c4.2,0 4.9,3.6 6.2,6.8c1.8,4.5 7.1,13.7 14.2,9.9c4.6,-2.2 5.7,-7.2 5.7,-11.7c0,-14.3 -11.6,-25.9 -25.9,-25.9c-14.3,0 -25.9,11.6 -25.9,25.9c-0.1,11.2 7,20.7 16.9,24.3l0,0z" class="st2"/>
            <path id="svg_7" d="m36.2,108.4c17.4,0 31.6,14.1 31.6,31.6c0,17.4 -14.1,31.6 -31.6,31.6s-31.6,-14.2 -31.6,-31.7c0,-17.4 14.1,-31.5 31.6,-31.5l0,0z" class="st2"/>
            <path id="svg_8" d="m36.2,108.5c17.3,0 31.4,14.1 31.4,31.4c0,17.4 -14.1,31.4 -31.4,31.4s-31.5,-14 -31.5,-31.4c0,-17.3 14.1,-31.4 31.5,-31.4l0,0z" class="st2"/>
            <path id="svg_9" d="m36.2,108.7c17.3,0 31.3,14 31.3,31.3c0,17.3 -14,31.3 -31.3,31.3c-17.3,0 -31.3,-14 -31.3,-31.3c0,-17.3 14,-31.3 31.3,-31.3l0,0z" class="st3"/>
            <path id="svg_10" d="m36.2,108.8c17.2,0 31.1,13.9 31.1,31.1c0,17.2 -13.9,31.1 -31.1,31.1c-17.2,0 -31.1,-13.9 -31.1,-31.1c0,-17.1 13.9,-31.1 31.1,-31.1l0,0z" class="st3"/>
            <path id="svg_11" d="m36.2,109c17.1,0 31,13.9 31,31c0,17.1 -13.9,31 -31,31c-17.1,0 -31,-13.9 -31,-31c0,-17.1 13.9,-31 31,-31l0,0z" class="st4"/>
            <path id="svg_12" d="m36.2,109.1c17,0 30.8,13.8 30.8,30.8c0,17 -13.8,30.8 -30.8,30.8c-17,0 -30.8,-13.8 -30.8,-30.8c0,-17 13.8,-30.8 30.8,-30.8l0,0z" class="st5"/>
            <path id="svg_13" d="m36.2,109.3c16.9,0 30.6,13.7 30.6,30.6s-13.7,30.6 -30.6,30.6s-30.7,-13.6 -30.7,-30.6s13.7,-30.6 30.7,-30.6l0,0z" class="st5"/>
            <path id="svg_14" d="m36.2,109.5c16.8,0 30.5,13.7 30.5,30.5c0,16.8 -13.7,30.5 -30.5,30.5s-30.5,-13.7 -30.5,-30.6c0,-16.8 13.6,-30.4 30.5,-30.4l0,0z" class="st5"/>
            <path id="svg_15" d="m36.2,109.6c16.8,0 30.3,13.6 30.3,30.3c0,16.8 -13.6,30.3 -30.3,30.3c-16.8,0 -30.3,-13.6 -30.3,-30.3c-0.1,-16.7 13.5,-30.3 30.3,-30.3l0,0z" class="st6"/>
            <path id="svg_16" d="m36.2,109.8c16.7,0 30.2,13.5 30.2,30.2c0,16.7 -13.5,30.2 -30.2,30.2c-16.7,-0.1 -30.2,-13.6 -30.2,-30.3c0,-16.6 13.5,-30.1 30.2,-30.1l0,0z" class="st6"/>
            <path id="svg_17" d="m36.2,109.9c16.6,0 30,13.4 30,30c0,16.6 -13.4,30 -30,30c-16.6,0 -30,-13.4 -30,-30c-0.1,-16.5 13.4,-30 30,-30l0,0z" class="st6"/>
            <path id="svg_18" d="m36.2,110.1c16.5,0 29.9,13.4 29.9,29.9c0,16.5 -13.4,29.9 -29.9,29.9c-16.5,0 -29.9,-13.4 -29.9,-29.9c0,-16.6 13.4,-29.9 29.9,-29.9l0,0z" class="st7"/>
            <path id="svg_19" d="m36.2,110.2c16.4,0 29.7,13.3 29.7,29.7s-13.3,29.7 -29.7,29.7s-29.8,-13.2 -29.8,-29.7s13.3,-29.7 29.8,-29.7l0,0z" class="st7"/>
            <path id="svg_20" d="m36.2,110.4c16.3,0 29.6,13.2 29.6,29.6s-13.2,29.6 -29.6,29.6s-29.6,-13.3 -29.6,-29.7s13.2,-29.5 29.6,-29.5l0,0z" class="st7"/>
            <path id="svg_21" d="m36.2,110.5c16.2,0 29.4,13.2 29.4,29.4s-13.2,29.4 -29.4,29.4s-29.5,-13.1 -29.5,-29.4s13.2,-29.4 29.5,-29.4l0,0z" class="st8"/>
            <path id="svg_22" d="m36.2,110.7c16.2,0 29.3,13.1 29.3,29.3c0,16.2 -13.1,29.3 -29.3,29.3c-16.2,0 -29.3,-13.1 -29.3,-29.3c0,-16.2 13.1,-29.3 29.3,-29.3l0,0z" class="st8"/>
            <path id="svg_23" d="m36.2,110.8c16.1,0 29.1,13 29.1,29.1c0,16.1 -13,29.1 -29.1,29.1c-16.1,0 -29.1,-13 -29.1,-29.1c0,-16 13,-29.1 29.1,-29.1l0,0z" class="st8"/>
            <path id="svg_24" d="m36.2,111c16,0 29,13 29,29c0,16 -13,29 -29,29c-16,0 -29,-13 -29,-29c0,-16 13,-29 29,-29l0,0z" class="st9"/>
            <path id="svg_25" d="m36.2,111.1c15.9,0 28.8,12.9 28.8,28.8c0,15.9 -12.9,28.8 -28.8,28.8c-15.9,0 -28.8,-12.9 -28.8,-28.8c0,-15.9 12.9,-28.8 28.8,-28.8l0,0z" class="st10"/>
            <path id="svg_26" d="m36.2,111.3c15.8,0 28.6,12.8 28.6,28.6s-12.8,28.7 -28.6,28.7s-28.7,-12.8 -28.7,-28.7s12.8,-28.6 28.7,-28.6l0,0z" class="st11"/>
            <path id="svg_27" d="m36.2,111.5c15.7,0 28.5,12.8 28.5,28.5s-12.8,28.5 -28.5,28.5s-28.5,-12.8 -28.5,-28.6s12.7,-28.4 28.5,-28.4l0,0z" class="st11"/>
            <path id="svg_28" d="m36.2,111.6c15.6,0 28.3,12.7 28.3,28.3c0,15.6 -12.7,28.3 -28.3,28.3c-15.6,0 -28.3,-12.7 -28.3,-28.3c-0.1,-15.6 12.6,-28.3 28.3,-28.3l0,0z" class="st12"/>
            <path id="svg_29" d="m36.2,111.8c15.6,0 28.2,12.6 28.2,28.2c0,15.6 -12.6,28.2 -28.2,28.2c-15.6,-0.1 -28.2,-12.7 -28.2,-28.3c0,-15.5 12.6,-28.1 28.2,-28.1l0,0z" class="st13"/>
            <path id="svg_30" d="m36.2,111.9c15.5,0 28,12.5 28,28c0,15.5 -12.5,28 -28,28c-15.5,0 -28,-12.5 -28,-28c-0.1,-15.4 12.5,-28 28,-28l0,0z" class="st14"/>
            <path id="svg_31" d="m36.2,112.1c15.4,0 27.9,12.5 27.9,27.9c0,15.4 -12.5,27.9 -27.9,27.9c-15.4,0 -27.9,-12.5 -27.9,-27.9c0,-15.4 12.5,-27.9 27.9,-27.9l0,0z" class="st14"/>
            <path id="svg_32" d="m36.2,112.2c15.3,0 27.7,12.4 27.7,27.7c0,15.3 -12.4,27.7 -27.7,27.7s-27.8,-12.3 -27.8,-27.7c0,-15.3 12.5,-27.7 27.8,-27.7l0,0z" class="st15"/>
            <path id="svg_33" d="m36.2,112.4c15.2,0 27.6,12.3 27.6,27.6s-12.3,27.6 -27.6,27.6s-27.6,-12.4 -27.6,-27.7s12.3,-27.5 27.6,-27.5l0,0z" class="st16"/>
            <path id="svg_34" d="m36.2,112.5c15.1,0 27.4,12.3 27.4,27.4c0,15.1 -12.3,27.4 -27.4,27.4s-27.5,-12.2 -27.5,-27.4c0,-15.1 12.3,-27.4 27.5,-27.4l0,0z" class="st16"/>
            <path id="svg_35" d="m36.2,112.7c15.1,0 27.3,12.2 27.3,27.3c0,15.1 -12.2,27.3 -27.3,27.3c-15.1,0 -27.3,-12.2 -27.3,-27.3c0,-15.1 12.2,-27.3 27.3,-27.3l0,0z" class="st17"/>
            <path id="svg_36" d="m36.2,112.8c15,0 27.1,12.1 27.1,27.1c0,15 -12.1,27.1 -27.1,27.1c-15,0 -27.1,-12.1 -27.1,-27.1c0,-14.9 12.1,-27.1 27.1,-27.1l0,0z" class="st18"/>
            <path id="svg_37" d="m36.2,113c14.9,0 27,12.1 27,27c0,14.9 -12.1,27 -27,27c-14.9,0 -27,-12.1 -27,-27c0,-14.9 12.1,-27 27,-27l0,0z" class="st18"/>
            <path id="svg_38" d="m36.2,113.1c14.8,0 26.8,12 26.8,26.8c0,14.8 -12,26.8 -26.8,26.8c-14.8,0 -26.8,-12 -26.8,-26.8c0,-14.8 12,-26.8 26.8,-26.8l0,0z" class="st19"/>
            <path id="svg_39" d="m36.2,113.3c14.7,0 26.6,11.9 26.6,26.6c0,14.7 -11.9,26.6 -26.6,26.6c-14.7,0 -26.6,-11.9 -26.6,-26.6c-0.1,-14.7 11.8,-26.6 26.6,-26.6l0,0z" class="st20"/>
            <path id="svg_40" d="m36.2,113.5c14.6,0 26.5,11.9 26.5,26.5c0,14.6 -11.9,26.5 -26.5,26.5s-26.5,-11.9 -26.5,-26.6c0,-14.6 11.8,-26.4 26.5,-26.4l0,0z" class="st20"/>
            <path id="svg_41" d="m36.2,113.6c14.5,0 26.3,11.8 26.3,26.3c0,14.5 -11.8,26.3 -26.3,26.3c-14.5,0 -26.3,-11.8 -26.3,-26.3c-0.1,-14.5 11.7,-26.3 26.3,-26.3l0,0z" class="st21"/>
            <path id="svg_42" d="m36.2,113.8c14.5,0 26.2,11.7 26.2,26.2c0,14.5 -11.7,26.2 -26.2,26.2c-14.5,0 -26.2,-11.7 -26.2,-26.2c0,-14.5 11.7,-26.2 26.2,-26.2l0,0z" class="st22"/>
            <path id="svg_43" d="m36.2,113.9c14.4,0 26,11.7 26,26c0,14.4 -11.7,26 -26,26c-14.4,0 -26,-11.7 -26,-26c-0.1,-14.3 11.6,-26 26,-26l0,0z" class="st23"/>
            <path id="svg_44" d="m36.2,114.1c14.3,0 25.9,11.6 25.9,25.9c0,14.3 -11.6,25.9 -25.9,25.9c-14.3,0 -25.9,-11.6 -25.9,-25.9c0,-14.3 11.6,-25.9 25.9,-25.9l0,0z" class="st24"/>
            <path id="svg_45" d="m36.2,114.2c14.2,0 25.7,11.5 25.7,25.7c0,14.2 -11.5,25.7 -25.7,25.7c-14.2,0 -25.7,-11.5 -25.7,-25.7c-0.1,-14.2 11.5,-25.7 25.7,-25.7l0,0z" class="st25"/>
            <path id="svg_46" d="m36.2,114.4c14.1,0 25.6,11.4 25.6,25.6c0,14.1 -11.4,25.6 -25.6,25.6c-14.1,0 -25.6,-11.4 -25.6,-25.6c0,-14.2 11.4,-25.6 25.6,-25.6l0,0z" class="st25"/>
            <path id="svg_47" d="m36.2,114.5c14,0 25.4,11.4 25.4,25.4s-11.4,25.4 -25.4,25.4c-14,0 -25.4,-11.4 -25.4,-25.4s11.3,-25.4 25.4,-25.4l0,0z" class="st26"/>
            <path id="svg_48" d="m36.2,114.7c13.9,0 25.3,11.3 25.3,25.3c0,13.9 -11.3,25.3 -25.3,25.3c-13.9,0 -25.3,-11.3 -25.3,-25.3c0,-14 11.3,-25.3 25.3,-25.3l0,0z" class="st26"/>
            <path id="svg_49" d="m36.2,114.8c13.9,0 25.1,11.2 25.1,25.1c0,13.9 -11.2,25.1 -25.1,25.1c-13.9,0 -25.1,-11.2 -25.1,-25.1c0,-13.8 11.2,-25.1 25.1,-25.1l0,0z" class="st27"/>
            <path id="svg_50" d="m36.2,115c13.8,0 25,11.2 25,25c0,13.8 -11.2,25 -25,25c-13.8,0 -25,-11.2 -25,-25c0,-13.8 11.2,-25 25,-25l0,0z" class="st28"/>
            <path id="svg_51" d="m36.2,115.2c13.7,0 24.8,11.1 24.8,24.8c0,13.7 -11.1,24.8 -24.8,24.8c-13.7,0 -24.8,-11.1 -24.8,-24.8c0,-13.7 11.1,-24.8 24.8,-24.8l0,0z" class="st29"/>
            <path id="svg_52" d="m36.2,115.3c13.6,0 24.6,11 24.6,24.6c0,13.6 -11,24.6 -24.6,24.6c-13.6,0 -24.6,-11 -24.6,-24.6c-0.1,-13.6 11,-24.6 24.6,-24.6l0,0z" class="st29"/>
            <path id="svg_53" d="m36.2,115.5c13.5,0 24.5,11 24.5,24.5c0,13.5 -11,24.5 -24.5,24.5c-13.5,0 -24.5,-11 -24.5,-24.5c0,-13.6 10.9,-24.5 24.5,-24.5l0,0z" class="st30"/>
            <path id="svg_54" d="m36.2,115.6c13.4,0 24.3,10.9 24.3,24.3c0,13.4 -10.9,24.3 -24.3,24.3s-24.3,-10.9 -24.3,-24.3c-0.1,-13.4 10.8,-24.3 24.3,-24.3l0,0z" class="st31"/>
            <path id="svg_55" d="m36.2,115.8c13.4,0 24.2,10.8 24.2,24.2c0,13.4 -10.8,24.2 -24.2,24.2s-24.2,-10.9 -24.2,-24.3c0,-13.3 10.8,-24.1 24.2,-24.1l0,0z" class="st31"/>
            <path id="svg_56" d="m36.2,115.9c13.3,0 24,10.8 24,24c0,13.3 -10.8,24 -24,24c-13.3,0 -24,-10.8 -24,-24c-0.1,-13.2 10.7,-24 24,-24l0,0z" class="st32"/>
            <path id="svg_57" d="m36.2,116.1c13.2,0 23.9,10.7 23.9,23.9c0,13.2 -10.7,23.9 -23.9,23.9c-13.2,0 -23.9,-10.7 -23.9,-23.9c0,-13.2 10.7,-23.9 23.9,-23.9l0,0z" class="st33"/>
            <path id="svg_58" d="m36.2,116.2c13.1,0 23.7,10.6 23.7,23.7c0,13.1 -10.6,23.7 -23.7,23.7c-13.1,0 -23.7,-10.6 -23.7,-23.7c-0.1,-13.1 10.6,-23.7 23.7,-23.7l0,0z" class="st34"/>
            <path id="svg_59" d="m36.2,116.4c13,0 23.6,10.6 23.6,23.6c0,13 -10.6,23.6 -23.6,23.6c-13,0 -23.6,-10.6 -23.6,-23.6c0,-13.1 10.5,-23.6 23.6,-23.6l0,0z" class="st35"/>
            <path id="svg_60" d="m36.2,116.5c12.9,0 23.4,10.5 23.4,23.4s-10.5,23.4 -23.4,23.4s-23.4,-10.5 -23.4,-23.4s10.4,-23.4 23.4,-23.4l0,0z" class="st35"/>
            <path id="svg_61" d="m36.2,116.7c12.8,0 23.3,10.4 23.3,23.3s-10.5,23.2 -23.3,23.2s-23.3,-10.4 -23.3,-23.3s10.4,-23.2 23.3,-23.2l0,0z" class="st36"/>
            <path id="svg_62" d="m36.2,116.8c12.8,0 23.1,10.3 23.1,23.1s-10.3,23.1 -23.1,23.1s-23.1,-10.3 -23.1,-23.1s10.3,-23.1 23.1,-23.1l0,0z" class="st36"/>
            <path id="svg_63" d="m36.2,117c12.7,0 22.9,10.3 22.9,22.9c0,12.7 -10.3,22.9 -22.9,22.9c-12.7,0 -22.9,-10.3 -22.9,-22.9c-0.1,-12.6 10.2,-22.9 22.9,-22.9l0,0z" class="st37"/>
            <path id="svg_64" d="m36.2,117.2c12.6,0 22.8,10.2 22.8,22.8c0,12.6 -10.2,22.8 -22.8,22.8c-12.6,0 -22.8,-10.2 -22.8,-22.8c0,-12.6 10.2,-22.8 22.8,-22.8l0,0z" class="st38"/>
            <path id="svg_65" d="m36.2,117.3c12.5,0 22.6,10.1 22.6,22.6c0,12.5 -10.1,22.6 -22.6,22.6c-12.5,0 -22.6,-10.1 -22.6,-22.6c-0.1,-12.5 10.1,-22.6 22.6,-22.6l0,0z" class="st39"/>
            <path id="svg_66" d="m36.2,117.5c12.4,0 22.5,10.1 22.5,22.5c0,12.4 -10.1,22.5 -22.5,22.5c-12.4,0 -22.5,-10.1 -22.5,-22.5c0,-12.5 10,-22.5 22.5,-22.5l0,0z" class="st40"/>
            <path id="svg_67" d="m36.2,117.6c12.3,0 22.3,10 22.3,22.3s-10,22.3 -22.3,22.3s-22.3,-10 -22.3,-22.3s9.9,-22.3 22.3,-22.3l0,0z" class="st41"/>
            <path id="svg_68" d="m36.2,117.8c12.2,0 22.2,9.9 22.2,22.2s-9.9,22.2 -22.2,22.2s-22.2,-10 -22.2,-22.3s9.9,-22.1 22.2,-22.1l0,0z" class="st41"/>
            <path id="svg_69" d="m36.2,117.9c12.2,0 22,9.9 22,22s-9.9,22 -22,22c-12.2,0 -22,-9.9 -22,-22s9.8,-22 22,-22l0,0z" class="st42"/>
            <path id="svg_70" d="m36.2,118.1c12.1,0 21.9,9.8 21.9,21.9c0,12.1 -9.8,21.9 -21.9,21.9c-12.1,0 -21.9,-9.8 -21.9,-21.9c0,-12.1 9.8,-21.9 21.9,-21.9l0,0z" class="st43"/>
            <path id="svg_71" d="m36.2,118.2c12,0 21.7,9.7 21.7,21.7c0,12 -9.7,21.7 -21.7,21.7c-12,0 -21.7,-9.7 -21.7,-21.7c-0.1,-11.9 9.7,-21.7 21.7,-21.7l0,0z" class="st44"/>
            <path id="svg_72" d="m36.2,118.4c11.9,0 21.6,9.7 21.6,21.6c0,11.9 -9.7,21.6 -21.6,21.6c-11.9,0 -21.6,-9.7 -21.6,-21.6c0,-12 9.7,-21.6 21.6,-21.6l0,0z" class="st45"/>
            <path id="svg_73" d="m36.2,118.5c11.8,0 21.4,9.6 21.4,21.4c0,11.8 -9.6,21.4 -21.4,21.4s-21.4,-9.6 -21.4,-21.4c0,-11.8 9.5,-21.4 21.4,-21.4l0,0z" class="st46"/>
            <path id="svg_74" d="m36.2,118.7c11.7,0 21.3,9.5 21.3,21.3s-9.5,21.3 -21.3,21.3s-21.3,-9.5 -21.3,-21.3s9.5,-21.3 21.3,-21.3l0,0z" class="st47"/>
            <path id="svg_75" d="m36.2,118.8c11.7,0 21.1,9.4 21.1,21.1s-9.5,21.1 -21.1,21.1s-21.1,-9.4 -21.1,-21.1s9.4,-21.1 21.1,-21.1l0,0z" class="st48"/>
            <path id="svg_76" d="m36.2,119c11.6,0 20.9,9.4 20.9,20.9c0,11.6 -9.4,20.9 -20.9,20.9c-11.6,0 -20.9,-9.4 -20.9,-20.9c-0.1,-11.5 9.3,-20.9 20.9,-20.9l0,0z" class="st49"/>
            <path id="svg_77" d="m36.2,119.2c11.5,0 20.8,9.3 20.8,20.8c0,11.5 -9.3,20.8 -20.8,20.8c-11.5,0 -20.8,-9.3 -20.8,-20.8c0,-11.5 9.3,-20.8 20.8,-20.8l0,0z" class="st50"/>
            <path id="svg_78" d="m36.2,119.3c11.4,0 20.6,9.2 20.6,20.6c0,11.4 -9.2,20.6 -20.6,20.6c-11.4,0 -20.6,-9.2 -20.6,-20.6c-0.1,-11.4 9.2,-20.6 20.6,-20.6l0,0z" class="st51"/>
            <path id="svg_79" d="m36.2,119.5c11.3,0 20.5,9.2 20.5,20.5c0,11.3 -9.2,20.5 -20.5,20.5c-11.3,0 -20.5,-9.2 -20.5,-20.5c0,-11.4 9.1,-20.5 20.5,-20.5l0,0z" class="st52"/>
            <path id="svg_80" d="m36.2,119.6c11.2,0 20.3,9.1 20.3,20.3c0,11.2 -9.1,20.3 -20.3,20.3s-20.3,-9.1 -20.3,-20.3c-0.1,-11.2 9,-20.3 20.3,-20.3l0,0z" class="st53"/>
            <path id="svg_81" d="m36.2,119.8c11.1,0 20.2,9 20.2,20.2c0,11.1 -9,20.2 -20.2,20.2s-20.2,-9 -20.2,-20.2c0,-11.2 9,-20.2 20.2,-20.2l0,0z" class="st54"/>
            <path id="svg_82" d="m36.2,119.9c11.1,0 20,9 20,20s-9,20 -20,20c-11.1,0 -20,-9 -20,-20s8.9,-20 20,-20l0,0z" class="st55"/>
            <path id="svg_83" d="m36.2,120.1c11,0 19.9,8.9 19.9,19.9c0,11 -8.9,19.9 -19.9,19.9c-11,0 -19.9,-8.9 -19.9,-19.9c0,-11 8.9,-19.9 19.9,-19.9l0,0z" class="st56"/>
            <path id="svg_84" d="m36.2,120.2c10.9,0 19.7,8.8 19.7,19.7c0,10.9 -8.8,19.7 -19.7,19.7c-10.9,0 -19.7,-8.8 -19.7,-19.7c-0.1,-10.8 8.8,-19.7 19.7,-19.7l0,0z" class="st57"/>
            <path id="svg_85" d="m36.2,120.4c10.8,0 19.6,8.8 19.6,19.6c0,10.8 -8.8,19.6 -19.6,19.6c-10.8,0 -19.6,-8.8 -19.6,-19.6c0,-10.9 8.8,-19.6 19.6,-19.6l0,0z" class="st58"/>
            <path id="svg_86" d="m36.2,120.5c10.7,0 19.4,8.7 19.4,19.4c0,10.7 -8.7,19.4 -19.4,19.4c-10.7,0 -19.4,-8.7 -19.4,-19.4c0,-10.7 8.6,-19.4 19.4,-19.4l0,0z" class="st59"/>
            <path id="svg_87" d="m36.2,120.7c10.6,0 19.3,8.6 19.3,19.3c0,10.6 -8.6,19.3 -19.3,19.3c-10.6,0 -19.3,-8.6 -19.3,-19.3c0,-10.7 8.6,-19.3 19.3,-19.3l0,0z" class="st60"/>
            <path id="svg_88" d="m36.2,120.8c10.5,0 19.1,8.6 19.1,19.1c0,10.5 -8.6,19.1 -19.1,19.1s-19.1,-8.6 -19.1,-19.1c0,-10.5 8.5,-19.1 19.1,-19.1l0,0z" class="st61"/>
            <path id="svg_89" d="m36.2,121c10.5,0 18.9,8.5 18.9,18.9c0,10.5 -8.5,18.9 -18.9,18.9c-10.5,0 -18.9,-8.5 -18.9,-18.9c-0.1,-10.4 8.4,-18.9 18.9,-18.9l0,0z" class="st62"/>
            <path id="svg_90" d="m36.2,121.2c10.4,0 18.8,8.4 18.8,18.8c0,10.4 -8.4,18.8 -18.8,18.8c-10.4,0 -18.8,-8.4 -18.8,-18.8c0,-10.4 8.4,-18.8 18.8,-18.8l0,0z" class="st63"/>
            <path id="svg_91" d="m36.2,121.3c10.3,0 18.6,8.3 18.6,18.6c0,10.3 -8.3,18.6 -18.6,18.6c-10.3,0 -18.6,-8.3 -18.6,-18.6c-0.1,-10.2 8.3,-18.6 18.6,-18.6l0,0z" class="st64"/>
            <path id="svg_92" d="m36.2,121.5c10.2,0 18.5,8.3 18.5,18.5c0,10.2 -8.3,18.5 -18.5,18.5c-10.2,0 -18.5,-8.3 -18.5,-18.5c0,-10.3 8.3,-18.5 18.5,-18.5l0,0z" class="st65"/>
            <path id="svg_93" d="m36.2,121.6c10.1,0 18.3,8.2 18.3,18.3c0,10.1 -8.2,18.3 -18.3,18.3c-10.1,0 -18.3,-8.2 -18.3,-18.3c-0.1,-10.1 8.1,-18.3 18.3,-18.3l0,0z" class="st66"/>
            <path id="svg_94" d="m36.2,121.8c10,0 18.2,8.1 18.2,18.2c0,10 -8.1,18.2 -18.2,18.2c-10,0 -18.2,-8.1 -18.2,-18.2c0,-10.1 8.1,-18.2 18.2,-18.2l0,0z" class="st67"/>
            <path id="svg_95" d="m36.2,121.9c10,0 18,8.1 18,18s-8.1,18 -18,18c-10,0 -18,-8.1 -18,-18s8,-18 18,-18l0,0z" class="st68"/>
            <path id="svg_96" d="m36.2,122.1c9.9,0 17.9,8 17.9,17.9c0,9.9 -8,17.9 -17.9,17.9s-17.9,-8 -17.9,-17.9c0,-9.9 8,-17.9 17.9,-17.9l0,0z" class="st69"/>
            <path id="svg_97" d="m36.2,122.2c9.8,0 17.7,7.9 17.7,17.7c0,9.8 -7.9,17.7 -17.7,17.7c-9.8,0 -17.7,-7.9 -17.7,-17.7c-0.1,-9.7 7.9,-17.7 17.7,-17.7l0,0z" class="st70"/>
            <path id="svg_98" d="m36.2,122.4c9.7,0 17.6,7.9 17.6,17.6c0,9.7 -7.9,17.6 -17.6,17.6c-9.7,0 -17.6,-7.9 -17.6,-17.6c0,-9.8 7.9,-17.6 17.6,-17.6l0,0z" class="st71"/>
            <path id="svg_99" d="m36.2,122.5c9.6,0 17.4,7.8 17.4,17.4c0,9.6 -7.8,17.4 -17.4,17.4c-9.6,0 -17.4,-7.8 -17.4,-17.4c0,-9.6 7.7,-17.4 17.4,-17.4l0,0z" class="st72"/>
            <path id="svg_100" d="m36.2,122.7c9.5,0 17.3,7.7 17.3,17.3c0,9.5 -7.7,17.3 -17.3,17.3c-9.5,0 -17.3,-7.7 -17.3,-17.3c0,-9.6 7.7,-17.3 17.3,-17.3l0,0z" class="st73"/>
            <path id="svg_101" d="m36.2,122.8c9.4,0 17.1,7.7 17.1,17.1c0,9.4 -7.7,17.1 -17.1,17.1c-9.4,0 -17.1,-7.7 -17.1,-17.1c0,-9.4 7.6,-17.1 17.1,-17.1l0,0z" class="st74"/>
            <path id="svg_102" d="m36.2,123c9.4,0 16.9,7.6 16.9,16.9s-7.6,16.9 -16.9,16.9s-16.9,-7.6 -16.9,-16.9s7.5,-16.9 16.9,-16.9l0,0z" class="st75"/>
            <path id="svg_103" d="m36.2,123.2c9.3,0 16.8,7.5 16.8,16.8c0,9.3 -7.5,16.8 -16.8,16.8c-9.3,0 -16.8,-7.5 -16.8,-16.8c0,-9.3 7.5,-16.8 16.8,-16.8l0,0z" class="st76"/>
            <path id="svg_104" d="m36.2,123.3c9.2,0 16.6,7.4 16.6,16.6c0,9.2 -7.4,16.6 -16.6,16.6c-9.2,0 -16.6,-7.4 -16.6,-16.6c-0.1,-9.1 7.4,-16.6 16.6,-16.6l0,0z" class="st77"/>
            <path id="svg_105" d="m36.2,123.5c9.1,0 16.5,7.4 16.5,16.5c0,9.1 -7.4,16.5 -16.5,16.5c-9.1,0 -16.5,-7.4 -16.5,-16.5c0,-9.2 7.4,-16.5 16.5,-16.5l0,0z" class="st78"/>
            <path id="svg_106" d="m36.2,123.6c9,0 16.3,7.3 16.3,16.3c0,9 -7.3,16.3 -16.3,16.3c-9,0 -16.3,-7.3 -16.3,-16.3c-0.1,-9 7.2,-16.3 16.3,-16.3l0,0z" class="st79"/>
            <path id="svg_107" d="m36.2,123.8c8.9,0 16.2,7.2 16.2,16.2c0,8.9 -7.2,16.2 -16.2,16.2c-8.9,0 -16.2,-7.2 -16.2,-16.2c0,-9 7.2,-16.2 16.2,-16.2l0,0z" class="st80"/>
            <path id="svg_108" d="m36.2,123.9c8.8,0 16,7.2 16,16s-7.2,16 -16,16s-16,-7.2 -16,-16s7.1,-16 16,-16l0,0z" class="st81"/>
            <path id="svg_109" d="m36.2,124.1c8.8,0 15.9,7.1 15.9,15.9c0,8.8 -7.1,15.9 -15.9,15.9s-15.9,-7.1 -15.9,-15.9c0,-8.8 7.1,-15.9 15.9,-15.9l0,0z" class="st82"/>
            <path id="svg_110" d="m36.2,124.2c8.7,0 15.7,7 15.7,15.7c0,8.7 -7,15.7 -15.7,15.7c-8.7,0 -15.7,-7 -15.7,-15.7c-0.1,-8.6 7,-15.7 15.7,-15.7l0,0z" class="st83"/>
            <path id="svg_111" d="m36.2,124.4c8.6,0 15.6,7 15.6,15.6c0,8.6 -7,15.6 -15.6,15.6c-8.6,0 -15.6,-7 -15.6,-15.6c0,-8.6 7,-15.6 15.6,-15.6l0,0z" class="st84"/>
            <path id="svg_112" d="m36.2,124.5c8.5,0 15.4,6.9 15.4,15.4c0,8.5 -6.9,15.4 -15.4,15.4c-8.5,0 -15.4,-6.9 -15.4,-15.4c0,-8.5 6.9,-15.4 15.4,-15.4l0,0z" class="st85"/>
            <path id="svg_113" d="m36.2,124.7c8.4,0 15.3,6.8 15.3,15.3c0,8.4 -6.8,15.3 -15.3,15.3c-8.4,0 -15.3,-6.8 -15.3,-15.3c0,-8.5 6.8,-15.3 15.3,-15.3l0,0z" class="st86"/>
            <path id="svg_114" d="m36.2,124.8c8.3,0 15.1,6.8 15.1,15.1s-6.8,15.1 -15.1,15.1s-15.1,-6.8 -15.1,-15.1s6.7,-15.1 15.1,-15.1l0,0z" class="st87"/>
            <path id="svg_115" d="m36.2,125c8.3,0 14.9,6.7 14.9,14.9s-6.7,14.9 -14.9,14.9s-14.9,-6.7 -14.9,-14.9s6.6,-14.9 14.9,-14.9l0,0z" class="st88"/>
            <path id="svg_116" d="m36.2,125.2c8.2,0 14.8,6.6 14.8,14.8s-6.6,14.8 -14.8,14.8s-14.8,-6.6 -14.8,-14.8s6.6,-14.8 14.8,-14.8l0,0z" class="st89"/>
            <path id="svg_117" d="m36.2,125.3c8.1,0 14.6,6.6 14.6,14.6s-6.6,14.6 -14.6,14.6c-8.1,0 -14.6,-6.6 -14.6,-14.6s6.5,-14.6 14.6,-14.6l0,0z" class="st90"/>
            <path id="svg_118" d="m36.2,125.5c8,0 14.5,6.5 14.5,14.5c0,8 -6.5,14.5 -14.5,14.5c-8,0 -14.5,-6.5 -14.5,-14.5c0,-8.1 6.5,-14.5 14.5,-14.5l0,0z" class="st91"/>
            <path id="svg_119" d="m36.2,125.6c7.9,0 14.3,6.4 14.3,14.3c0,7.9 -6.4,14.3 -14.3,14.3c-7.9,0 -14.3,-6.4 -14.3,-14.3c-0.1,-7.9 6.3,-14.3 14.3,-14.3l0,0z" class="st92"/>
            <path id="svg_120" d="m36.2,125.8c7.8,0 14.2,6.3 14.2,14.2c0,7.8 -6.3,14.2 -14.2,14.2c-7.8,0 -14.2,-6.3 -14.2,-14.2c0,-7.9 6.3,-14.2 14.2,-14.2l0,0z" class="st93"/>
            <path id="svg_121" d="m36.2,125.9c7.7,0 14,6.3 14,14s-6.3,14 -14,14s-14,-6.3 -14,-14s6.2,-14 14,-14l0,0z" class="st94"/>
            <path id="svg_122" d="m36.2,126.1c7.7,0 13.9,6.2 13.9,13.9s-6.2,13.9 -13.9,13.9s-13.9,-6.2 -13.9,-13.9s6.2,-13.9 13.9,-13.9l0,0z" class="st94"/>
            <path id="svg_123" d="m36.2,126.2c7.6,0 13.7,6.1 13.7,13.7c0,7.6 -6.1,13.7 -13.7,13.7c-7.6,0 -13.7,-6.1 -13.7,-13.7c-0.1,-7.5 6.1,-13.7 13.7,-13.7l0,0z" class="st95"/>
            <path id="svg_124" d="m36.2,126.4c7.5,0 13.6,6.1 13.6,13.6c0,7.5 -6.1,13.6 -13.6,13.6c-7.5,0 -13.6,-6.1 -13.6,-13.6c0,-7.5 6.1,-13.6 13.6,-13.6l0,0z" class="st96"/>
            <path id="svg_125" d="m36.2,126.5c7.4,0 13.4,6 13.4,13.4c0,7.4 -6,13.4 -13.4,13.4c-7.4,0 -13.4,-6 -13.4,-13.4c0,-7.4 6,-13.4 13.4,-13.4l0,0z" class="st97"/>
            <path id="svg_126" d="m36.2,126.7c7.3,0 13.3,5.9 13.3,13.3c0,7.3 -5.9,13.3 -13.3,13.3c-7.3,0 -13.3,-5.9 -13.3,-13.3c0,-7.4 5.9,-13.3 13.3,-13.3l0,0z" class="st98"/>
            <path id="svg_127" d="m36.2,126.8c7.2,0 13.1,5.9 13.1,13.1c0,7.2 -5.9,13.1 -13.1,13.1c-7.2,0 -13.1,-5.9 -13.1,-13.1c0,-7.2 5.8,-13.1 13.1,-13.1l0,0z" class="st98"/>
            <path id="svg_128" d="m36.2,127c7.1,0 12.9,5.8 12.9,12.9c0,7.1 -5.8,12.9 -12.9,12.9s-12.9,-5.8 -12.9,-12.9c-0.1,-7.1 5.7,-12.9 12.9,-12.9l0,0z" class="st99"/>
            <path id="svg_129" d="m36.2,127.2c7.1,0 12.8,5.7 12.8,12.8c0,7.1 -5.7,12.8 -12.8,12.8s-12.8,-5.7 -12.8,-12.8c0,-7.1 5.7,-12.8 12.8,-12.8l0,0z" class="st100"/>
            <path id="svg_130" d="m36.2,127.3c7,0 12.6,5.7 12.6,12.6c0,7 -5.7,12.6 -12.6,12.6c-7,0 -12.6,-5.7 -12.6,-12.6c-0.1,-6.9 5.6,-12.6 12.6,-12.6l0,0z" class="st101"/>
            <path id="svg_131" d="m36.2,127.5c6.9,0 12.5,5.6 12.5,12.5c0,6.9 -5.6,12.5 -12.5,12.5c-6.9,0 -12.5,-5.6 -12.5,-12.5c0,-6.9 5.6,-12.5 12.5,-12.5l0,0z" class="st102"/>
            <path id="svg_132" d="m36.2,127.6c6.8,0 12.3,5.5 12.3,12.3c0,6.8 -5.5,12.3 -12.3,12.3c-6.8,0 -12.3,-5.5 -12.3,-12.3c-0.1,-6.8 5.5,-12.3 12.3,-12.3l0,0z" class="st103"/>
            <path id="svg_133" d="m36.2,127.8c6.7,0 12.2,5.5 12.2,12.2c0,6.7 -5.5,12.2 -12.2,12.2c-6.7,0 -12.2,-5.5 -12.2,-12.2c0,-6.8 5.4,-12.2 12.2,-12.2l0,0z" class="st103"/>
            <path id="svg_134" d="m36.2,127.9c6.6,0 12,5.4 12,12c0,6.6 -5.4,12 -12,12c-6.6,0 -12,-5.4 -12,-12c-0.1,-6.6 5.3,-12 12,-12l0,0z" class="st104"/>
            <path id="svg_135" d="m36.2,128.1c6.6,0 11.9,5.3 11.9,11.9c0,6.6 -5.3,11.9 -11.9,11.9s-11.9,-5.3 -11.9,-11.9c0,-6.6 5.3,-11.9 11.9,-11.9l0,0z" class="st105"/>
            <path id="svg_136" d="m36.2,128.2c6.5,0 11.7,5.2 11.7,11.7c0,6.5 -5.2,11.7 -11.7,11.7c-6.5,0 -11.7,-5.2 -11.7,-11.7c-0.1,-6.4 5.2,-11.7 11.7,-11.7l0,0z" class="st106"/>
            <path id="svg_137" d="m36.2,128.4c6.4,0 11.6,5.2 11.6,11.6c0,6.4 -5.2,11.6 -11.6,11.6c-6.4,0 -11.6,-5.2 -11.6,-11.6c0,-6.4 5.2,-11.6 11.6,-11.6l0,0z" class="st107"/>
            <path id="svg_138" d="m36.2,128.5c6.3,0 11.4,5.1 11.4,11.4c0,6.3 -5.1,11.4 -11.4,11.4c-6.3,0 -11.4,-5.1 -11.4,-11.4c0,-6.3 5.1,-11.4 11.4,-11.4l0,0z" class="st108"/>
            <path id="svg_139" d="m36.2,128.7c6.2,0 11.3,5 11.3,11.3c0,6.2 -5,11.3 -11.3,11.3c-6.2,0 -11.3,-5 -11.3,-11.3c0,-6.3 5,-11.3 11.3,-11.3l0,0z" class="st109"/>
            <path id="svg_140" d="m36.2,128.8c6.1,0 11.1,5 11.1,11.1c0,6.1 -5,11.1 -11.1,11.1c-6.1,0 -11.1,-5 -11.1,-11.1c0,-6.1 4.9,-11.1 11.1,-11.1l0,0z" class="st110"/>
            <path id="svg_141" d="m36.2,129c6,0 10.9,4.9 10.9,10.9c0,6 -4.9,10.9 -10.9,10.9c-6,0 -10.9,-4.9 -10.9,-10.9c-0.1,-6 4.8,-10.9 10.9,-10.9l0,0z" class="st111"/>
            <path id="svg_142" d="m36.2,129.2c6,0 10.8,4.8 10.8,10.8c0,6 -4.8,10.8 -10.8,10.8c-6,0 -10.8,-4.8 -10.8,-10.8c0,-6 4.8,-10.8 10.8,-10.8l0,0z" class="st112"/>
            <path id="svg_143" d="m36.2,129.3c5.9,0 10.6,4.8 10.6,10.6c0,5.9 -4.8,10.6 -10.6,10.6s-10.6,-4.8 -10.6,-10.6c-0.1,-5.8 4.7,-10.6 10.6,-10.6l0,0z" class="st113"/>
            <path id="svg_144" d="m36.2,129.5c5.8,0 10.5,4.7 10.5,10.5c0,5.8 -4.7,10.5 -10.5,10.5c-5.8,0 -10.5,-4.7 -10.5,-10.5c0,-5.8 4.7,-10.5 10.5,-10.5l0,0z" class="st114"/>
            <path id="svg_145" d="m36.2,129.6c5.7,0 10.3,4.6 10.3,10.3c0,5.7 -4.6,10.3 -10.3,10.3c-5.7,0 -10.3,-4.6 -10.3,-10.3c-0.1,-5.7 4.6,-10.3 10.3,-10.3l0,0z" class="st115"/>
            <path id="svg_146" d="m36.2,129.8c5.6,0 10.2,4.6 10.2,10.2c0,5.6 -4.6,10.2 -10.2,10.2c-5.6,0 -10.2,-4.6 -10.2,-10.2c0,-5.7 4.5,-10.2 10.2,-10.2l0,0z" class="st116"/>
            <path id="svg_147" d="m36.2,129.9c5.5,0 10,4.5 10,10c0,5.5 -4.5,10 -10,10c-5.5,0 -10,-4.5 -10,-10c-0.1,-5.5 4.4,-10 10,-10l0,0z" class="st117"/>
            <path id="svg_148" d="m36.2,130.1c5.4,0 9.9,4.4 9.9,9.9c0,5.4 -4.4,9.9 -9.9,9.9c-5.4,0 -9.9,-4.4 -9.9,-9.9c0,-5.5 4.4,-9.9 9.9,-9.9l0,0z" class="st118"/>
            <path id="svg_149" d="m36.2,130.2c5.4,0 9.7,4.3 9.7,9.7s-4.3,9.7 -9.7,9.7s-9.7,-4.3 -9.7,-9.7s4.3,-9.7 9.7,-9.7l0,0z" class="st119"/>
            <path id="svg_150" d="m36.2,130.4c5.3,0 9.6,4.3 9.6,9.6s-4.3,9.6 -9.6,9.6s-9.6,-4.3 -9.6,-9.6s4.3,-9.6 9.6,-9.6l0,0z" class="st120"/>
            <path id="svg_151" d="m36.2,130.5c5.2,0 9.4,4.2 9.4,9.4c0,5.2 -4.2,9.4 -9.4,9.4c-5.2,0 -9.4,-4.2 -9.4,-9.4c0,-5.1 4.2,-9.4 9.4,-9.4l0,0z" class="st121"/>
            <path id="svg_152" d="m36.2,130.7c5.1,0 9.3,4.1 9.3,9.3c0,5.1 -4.1,9.3 -9.3,9.3c-5.1,0 -9.3,-4.1 -9.3,-9.3c0,-5.2 4.2,-9.3 9.3,-9.3l0,0z" class="st122"/>
            <path id="svg_153" d="m36.2,130.9c5,0 9.1,4.1 9.1,9.1c0,5 -4.1,9.1 -9.1,9.1c-5,0 -9.1,-4.1 -9.1,-9.1c0,-5.1 4,-9.1 9.1,-9.1l0,0z" class="st123"/>
            <path id="svg_154" d="m36.2,131c4.9,0 8.9,4 8.9,8.9c0,4.9 -4,8.9 -8.9,8.9c-4.9,0 -8.9,-4 -8.9,-8.9c-0.1,-4.9 3.9,-8.9 8.9,-8.9l0,0z" class="st124"/>
            <path id="svg_155" d="m36.2,131.2c4.9,0 8.8,3.9 8.8,8.8c0,4.9 -3.9,8.8 -8.8,8.8c-4.9,0 -8.8,-3.9 -8.8,-8.8c0,-4.9 3.9,-8.8 8.8,-8.8l0,0z" class="st125"/>
            <path id="svg_156" d="m36.2,131.3c4.8,0 8.6,3.9 8.6,8.6c0,4.8 -3.9,8.6 -8.6,8.6s-8.6,-3.9 -8.6,-8.6c-0.1,-4.7 3.8,-8.6 8.6,-8.6l0,0z" class="st126"/>
            <path id="svg_157" d="m36.2,131.5c4.7,0 8.5,3.8 8.5,8.5c0,4.7 -3.8,8.5 -8.5,8.5s-8.5,-3.8 -8.5,-8.5c0,-4.7 3.8,-8.5 8.5,-8.5l0,0z" class="st127"/>
            <path id="svg_158" d="m36.2,131.6c4.6,0 8.3,3.7 8.3,8.3c0,4.6 -3.7,8.3 -8.3,8.3c-4.6,0 -8.3,-3.7 -8.3,-8.3c-0.1,-4.6 3.7,-8.3 8.3,-8.3l0,0z" class="st128"/>
            <path id="svg_159" d="m36.2,131.8c4.5,0 8.2,3.7 8.2,8.2c0,4.5 -3.7,8.2 -8.2,8.2c-4.5,0 -8.2,-3.7 -8.2,-8.2c0,-4.6 3.6,-8.2 8.2,-8.2l0,0z" class="st129"/>
            <path id="svg_160" d="m36.2,131.9c4.4,0 8,3.6 8,8c0,4.4 -3.6,8 -8,8c-4.4,0 -8,-3.6 -8,-8c-0.1,-4.4 3.5,-8 8,-8l0,0z" class="st130"/>
            <path id="svg_161" d="m36.2,132.1c4.3,0 7.9,3.5 7.9,7.9c0,4.3 -3.5,7.9 -7.9,7.9c-4.3,0 -7.9,-3.5 -7.9,-7.9c0,-4.4 3.5,-7.9 7.9,-7.9l0,0z" class="st131"/>
            <path id="svg_162" d="m36.2,132.2c4.3,0 7.7,3.5 7.7,7.7c0,4.3 -3.5,7.7 -7.7,7.7s-7.7,-3.5 -7.7,-7.7c-0.1,-4.2 3.4,-7.7 7.7,-7.7l0,0z" class="st132"/>
            <path id="svg_163" d="m36.2,132.4c4.2,0 7.6,3.4 7.6,7.6c0,4.2 -3.4,7.6 -7.6,7.6s-7.6,-3.4 -7.6,-7.6c0,-4.2 3.4,-7.6 7.6,-7.6l0,0z" class="st133"/>
            <path id="svg_164" d="m36.2,132.5c4.1,0 7.4,3.3 7.4,7.4c0,4.1 -3.3,7.4 -7.4,7.4c-4.1,0 -7.4,-3.3 -7.4,-7.4c0,-4 3.3,-7.4 7.4,-7.4l0,0z" class="st134"/>
            <path id="svg_165" d="m36.2,132.7c4,0 7.2,3.2 7.2,7.2c0,4 -3.2,7.2 -7.2,7.2c-4,0 -7.2,-3.2 -7.2,-7.2c-0.1,-4 3.2,-7.2 7.2,-7.2l0,0z" class="st135"/>
            <path id="svg_166" d="m36.2,132.9c3.9,0 7.1,3.2 7.1,7.1c0,3.9 -3.2,7.1 -7.1,7.1c-3.9,0 -7.1,-3.2 -7.1,-7.1c0,-4 3.1,-7.1 7.1,-7.1l0,0z" class="st136"/>
            <path id="svg_167" d="m36.2,133c3.8,0 6.9,3.1 6.9,6.9c0,3.8 -3.1,6.9 -6.9,6.9c-3.8,0 -6.9,-3.1 -6.9,-6.9c-0.1,-3.8 3,-6.9 6.9,-6.9l0,0z" class="st137"/>
            <path id="svg_168" d="m36.2,133.2c3.7,0 6.8,3 6.8,6.8c0,3.7 -3,6.8 -6.8,6.8c-3.7,0 -6.8,-3 -6.8,-6.8c0,-3.8 3,-6.8 6.8,-6.8l0,0z" class="st138"/>
            <path id="svg_169" d="m36.2,133.3c3.7,0 6.6,3 6.6,6.6c0,3.7 -3,6.6 -6.6,6.6c-3.7,0 -6.6,-3 -6.6,-6.6c-0.1,-3.6 2.9,-6.6 6.6,-6.6l0,0z" class="st139"/>
            <path id="svg_170" d="m36.2,133.5c3.6,0 6.5,2.9 6.5,6.5c0,3.6 -2.9,6.5 -6.5,6.5c-3.6,0 -6.5,-2.9 -6.5,-6.5c0,-3.6 2.9,-6.5 6.5,-6.5l0,0z" class="st140"/>
            <path id="svg_171" d="m36.2,133.6c3.5,0 6.3,2.8 6.3,6.3c0,3.5 -2.8,6.3 -6.3,6.3c-3.5,0 -6.3,-2.8 -6.3,-6.3c-0.1,-3.4 2.8,-6.3 6.3,-6.3l0,0z" class="st141"/>
            <path id="svg_172" d="m36.2,133.8c3.4,0 6.2,2.8 6.2,6.2c0,3.4 -2.8,6.2 -6.2,6.2c-3.4,0 -6.2,-2.8 -6.2,-6.2c0,-3.5 2.8,-6.2 6.2,-6.2l0,0z" class="st142"/>
            <path id="svg_173" d="m36.2,133.9c3.3,0 6,2.7 6,6c0,3.3 -2.7,6 -6,6c-3.3,0 -6,-2.7 -6,-6c-0.1,-3.3 2.6,-6 6,-6l0,0z" class="st143"/>
            <path id="svg_174" d="m36.2,134.1c3.2,0 5.9,2.6 5.9,5.9c0,3.2 -2.6,5.9 -5.9,5.9c-3.2,0 -5.9,-2.6 -5.9,-5.9c0,-3.3 2.6,-5.9 5.9,-5.9l0,0z" class="st144"/>
            <path id="svg_175" d="m36.2,134.2c3.2,0 5.7,2.6 5.7,5.7c0,3.2 -2.6,5.7 -5.7,5.7c-3.2,0 -5.7,-2.6 -5.7,-5.7c0,-3.1 2.5,-5.7 5.7,-5.7l0,0z" class="st145"/>
            <path id="svg_176" d="m36.2,134.4c3.1,0 5.6,2.5 5.6,5.6c0,3.1 -2.5,5.6 -5.6,5.6c-3.1,0 -5.6,-2.5 -5.6,-5.6c0,-3.1 2.5,-5.6 5.6,-5.6l0,0z" class="st146"/>
            <path id="svg_177" d="m36.2,134.5c3,0 5.4,2.4 5.4,5.4c0,3 -2.4,5.4 -5.4,5.4c-3,0 -5.4,-2.4 -5.4,-5.4c0,-2.9 2.4,-5.4 5.4,-5.4l0,0z" class="st147"/>
            <path id="svg_178" d="m36.2,134.7c2.9,0 5.2,2.4 5.2,5.2c0,2.9 -2.4,5.2 -5.2,5.2c-2.9,0 -5.2,-2.4 -5.2,-5.2c-0.1,-2.9 2.3,-5.2 5.2,-5.2l0,0z" class="st148"/>
            <path id="svg_179" d="m36.2,134.9c2.8,0 5.1,2.3 5.1,5.1c0,2.8 -2.3,5.1 -5.1,5.1c-2.8,0 -5.1,-2.3 -5.1,-5.1c0,-2.9 2.2,-5.1 5.1,-5.1l0,0z" class="st149"/>
            <path id="svg_180" d="m36.2,135c2.7,0 4.9,2.2 4.9,4.9c0,2.7 -2.2,4.9 -4.9,4.9c-2.7,0 -4.9,-2.2 -4.9,-4.9c-0.1,-2.7 2.1,-4.9 4.9,-4.9l0,0z" class="st150"/>
            <path id="svg_181" d="m36.2,135.2c2.6,0 4.8,2.1 4.8,4.8c0,2.6 -2.1,4.8 -4.8,4.8c-2.6,0 -4.8,-2.1 -4.8,-4.8c0,-2.7 2.1,-4.8 4.8,-4.8l0,0z" class="st151"/>
            <path id="svg_182" d="m36.2,135.3c2.6,0 4.6,2.1 4.6,4.6c0,2.6 -2.1,4.6 -4.6,4.6c-2.6,0 -4.6,-2.1 -4.6,-4.6c-0.1,-2.5 2,-4.6 4.6,-4.6l0,0z" class="st152"/>
            <path id="svg_183" d="m36.2,135.5c2.5,0 4.5,2 4.5,4.5c0,2.5 -2,4.5 -4.5,4.5c-2.5,0 -4.5,-2 -4.5,-4.5c0,-2.5 2,-4.5 4.5,-4.5l0,0z" class="st153"/>
            <path id="svg_184" d="m36.2,135.6c2.4,0 4.3,1.9 4.3,4.3s-1.9,4.3 -4.3,4.3c-2.4,0 -4.3,-1.9 -4.3,-4.3s1.9,-4.3 4.3,-4.3l0,0z" class="st154"/>
            <path id="svg_185" d="m36.2,135.8c2.3,0 4.2,1.9 4.2,4.2s-1.9,4.2 -4.2,4.2c-2.3,0 -4.2,-1.9 -4.2,-4.2s1.9,-4.2 4.2,-4.2l0,0z" class="st155"/>
            <path id="svg_186" d="m36.2,135.9c2.2,0 4,1.8 4,4c0,2.2 -1.8,4 -4,4c-2.2,0 -4,-1.8 -4,-4c-0.1,-2.2 1.7,-4 4,-4l0,0z" class="st156"/>
            <path id="svg_187" d="m36.2,136.1c2.1,0 3.9,1.7 3.9,3.9c0,2.1 -1.7,3.9 -3.9,3.9c-2.1,0 -3.9,-1.7 -3.9,-3.9c0,-2.2 1.7,-3.9 3.9,-3.9l0,0z" class="st157"/>
            <path id="svg_188" d="m36.2,136.2c2,0 3.7,1.7 3.7,3.7c0,2 -1.7,3.7 -3.7,3.7c-2,0 -3.7,-1.7 -3.7,-3.7c0,-2 1.6,-3.7 3.7,-3.7l0,0z" class="st158"/>
            <path id="svg_189" d="m36.2,136.4c2,0 3.6,1.6 3.6,3.6c0,2 -1.6,3.6 -3.6,3.6c-2,0 -3.6,-1.6 -3.6,-3.6c0,-2 1.6,-3.6 3.6,-3.6l0,0z" class="st159"/>
            <path id="svg_190" d="m36.2,136.5c1.9,0 3.4,1.5 3.4,3.4c0,1.9 -1.5,3.4 -3.4,3.4s-3.4,-1.5 -3.4,-3.4c0,-1.8 1.5,-3.4 3.4,-3.4l0,0z" class="st160"/>
            <path id="svg_191" d="m36.2,136.7c1.8,0 3.2,1.5 3.2,3.2c0,1.8 -1.5,3.2 -3.2,3.2s-3.2,-1.5 -3.2,-3.2c-0.1,-1.7 1.4,-3.2 3.2,-3.2l0,0z" class="st161"/>
            <path id="svg_192" d="m36.2,136.9c1.7,0 3.1,1.4 3.1,3.1c0,1.7 -1.4,3.1 -3.1,3.1c-1.7,0 -3.1,-1.4 -3.1,-3.1c0,-1.8 1.4,-3.1 3.1,-3.1l0,0z" class="st162"/>
            <path id="svg_193" d="m36.2,137c1.6,0 2.9,1.3 2.9,2.9c0,1.6 -1.3,2.9 -2.9,2.9c-1.6,0 -2.9,-1.3 -2.9,-2.9c-0.1,-1.6 1.2,-2.9 2.9,-2.9l0,0z" class="st163"/>
            <path id="svg_194" d="m36.2,137.2c1.5,0 2.8,1.2 2.8,2.8c0,1.5 -1.2,2.8 -2.8,2.8c-1.5,0 -2.8,-1.2 -2.8,-2.8c0,-1.6 1.2,-2.8 2.8,-2.8l0,0z" class="st164"/>
            <path id="svg_195" d="m36.2,137.3c1.5,0 2.6,1.2 2.6,2.6c0,1.5 -1.2,2.6 -2.6,2.6c-1.5,0 -2.6,-1.2 -2.6,-2.6c-0.1,-1.4 1.1,-2.6 2.6,-2.6l0,0z" class="st165"/>
            <path id="svg_196" d="m36.2,137.5c1.4,0 2.5,1.1 2.5,2.5c0,1.4 -1.1,2.5 -2.5,2.5c-1.4,0 -2.5,-1.1 -2.5,-2.5c0,-1.4 1.1,-2.5 2.5,-2.5l0,0z" class="st166"/>
            <path id="svg_197" d="m36.2,137.6c1.3,0 2.3,1 2.3,2.3s-1,2.3 -2.3,2.3s-2.3,-1 -2.3,-2.3s1,-2.3 2.3,-2.3l0,0z" class="st167"/>
            <path id="svg_198" d="m36.2,137.8c1.2,0 2.2,1 2.2,2.2s-1,2.2 -2.2,2.2s-2.2,-1 -2.2,-2.2s1,-2.2 2.2,-2.2l0,0z" class="st168"/>
            <path id="svg_199" d="m36.2,137.9c1.1,0 2,0.9 2,2c0,1.1 -0.9,2 -2,2c-1.1,0 -2,-0.9 -2,-2c-0.1,-1.1 0.8,-2 2,-2l0,0z" class="st169"/>
            <path id="svg_200" d="m36.2,138.1c1,0 1.9,0.8 1.9,1.9c0,1 -0.8,1.9 -1.9,1.9c-1,0 -1.9,-0.8 -1.9,-1.9c0,-1.1 0.8,-1.9 1.9,-1.9l0,0z" class="st170"/>
            <path id="svg_201" d="m36.2,138.2c0.9,0 1.7,0.8 1.7,1.7c0,0.9 -0.8,1.7 -1.7,1.7c-0.9,0 -1.7,-0.8 -1.7,-1.7c0,-0.9 0.7,-1.7 1.7,-1.7l0,0z" class="st171"/>
            <path id="svg_202" d="m36.2,138.4c0.9,0 1.6,0.7 1.6,1.6c0,0.9 -0.7,1.6 -1.6,1.6c-0.9,0 -1.6,-0.7 -1.6,-1.6c0,-0.9 0.7,-1.6 1.6,-1.6l0,0z" class="st172"/>
            <path id="svg_203" d="m36.2,138.5c0.8,0 1.4,0.6 1.4,1.4c0,0.8 -0.6,1.4 -1.4,1.4s-1.4,-0.6 -1.4,-1.4c0,-0.7 0.6,-1.4 1.4,-1.4l0,0z" class="st173"/>
            <path id="svg_204" d="m36.2,138.7c0.7,0 1.2,0.6 1.2,1.2c0,0.7 -0.6,1.2 -1.2,1.2s-1.2,-0.6 -1.2,-1.2c-0.1,-0.6 0.5,-1.2 1.2,-1.2l0,0z" class="st174"/>
            <path id="svg_205" d="m36.2,138.9c0.6,0 1.1,0.5 1.1,1.1c0,0.6 -0.5,1.1 -1.1,1.1c-0.6,0 -1.1,-0.5 -1.1,-1.1c0,-0.7 0.5,-1.1 1.1,-1.1l0,0z" class="st175"/>
            <path id="svg_206" d="m36.2,139c0.5,0 0.9,0.4 0.9,0.9c0,0.5 -0.4,0.9 -0.9,0.9c-0.5,0 -0.9,-0.4 -0.9,-0.9c-0.1,-0.5 0.3,-0.9 0.9,-0.9l0,0z" class="st176"/>
            <path id="svg_207" d="m36.2,139.2c0.4,0 0.8,0.4 0.8,0.8c0,0.4 -0.4,0.8 -0.8,0.8c-0.4,0 -0.8,-0.4 -0.8,-0.8c0,-0.5 0.3,-0.8 0.8,-0.8l0,0z" class="st177"/>
            <path id="svg_208" d="m36.2,139.3c0.3,0 0.6,0.3 0.6,0.6c0,0.3 -0.3,0.6 -0.6,0.6c-0.3,0 -0.6,-0.3 -0.6,-0.6c-0.1,-0.3 0.2,-0.6 0.6,-0.6l0,0z" class="st178"/>
            <path id="svg_209" d="m35.9,171.5c0.5,-7.4 0.6,-7.1 4.4,-12.7c1.3,-2 2.1,-4.2 1.9,-7.3c-0.3,-3.5 -2.2,-3.1 -4.8,-4c0.4,-1.1 1.8,-1.1 3.1,-2.9c1.1,-1.5 1.7,-2.4 4.2,-2.4c4.2,0 4.9,3.6 6.2,6.8c1.8,4.5 7.1,13.7 14.2,9.9c4.6,-2.2 5.7,-7.2 5.7,-11.7c0,-14.3 -11.6,-25.9 -25.9,-25.9c-14.3,0 -25.9,11.6 -25.9,25.9c-0.1,11.2 7,20.7 16.9,24.3l0,0z" class="st178"/>
        </g>
    </g>
</svg>