<?xml version="1.0" encoding="utf-8"?>
<!-- Generator: Adobe Illustrator 22.1.0, SVG Export Plug-In . SVG Version: 6.00 Build 0)  -->
<svg version="1.1" id="Layer_1" xmlns="http://www.w3.org/2000/svg" xmlns:xlink="http://www.w3.org/1999/xlink" x="0px" y="0px"
	 viewBox="0 0 1132.7 344.8" style="enable-background:new 0 0 1132.7 344.8;" xml:space="preserve">
<style type="text/css">
	.st0{fill:#818183;}
	.st1{fill:#27B0DF;}
	.st2{fill:#28B0DE;}
	.st3{fill:#29B0DE;}
	.st4{fill:#2AB0DD;}
	.st5{fill:#2BB0DD;}
	.st6{fill:#2CB0DC;}
	.st7{fill:#2DB0DC;}
	.st8{fill:#2EB1DB;}
	.st9{fill:#2FB1DB;}
	.st10{fill:#30B1DA;}
	.st11{fill:#30B1DB;}
	.st12{fill:#31B1DB;}
	.st13{fill:#32B1DB;}
	.st14{fill:#33B1DA;}
	.st15{fill:#34B1DA;}
	.st16{fill:#35B1DA;}
	.st17{fill:#36B1DA;}
	.st18{fill:#37B2DA;}
	.st19{fill:#38B2DA;}
	.st20{fill:#39B2D9;}
	.st21{fill:#3AB2D9;}
	.st22{fill:#3AB2DA;}
	.st23{fill:#3BB2DA;}
	.st24{fill:#3CB2DA;}
	.st25{fill:#3EB3DA;}
	.st26{fill:#3FB3DA;}
	.st27{fill:#40B3DA;}
	.st28{fill:#41B3DA;}
	.st29{fill:#42B3D9;}
	.st30{fill:#44B4DA;}
	.st31{fill:#45B4D9;}
	.st32{fill:#46B4D9;}
	.st33{fill:#47B4DA;}
	.st34{fill:#48B5DA;}
	.st35{fill:#4AB5DA;}
	.st36{fill:#4BB5DA;}
	.st37{fill:#4CB5D9;}
	.st38{fill:#4DB6DA;}
	.st39{fill:#4EB6DA;}
	.st40{fill:#4FB6D9;}
	.st41{fill:#51B7DA;}
	.st42{fill:#52B7D9;}
	.st43{fill:#53B7D9;}
	.st44{fill:#53B7DA;}
	.st45{fill:#55B8DA;}
	.st46{fill:#56B8DA;}
	.st47{fill:#57B8DA;}
	.st48{fill:#58B9DA;}
	.st49{fill:#59B9DB;}
	.st50{fill:#5AB9DB;}
	.st51{fill:#5BB9DA;}
	.st52{fill:#5CBADB;}
	.st53{fill:#5DBADB;}
	.st54{fill:#5EBADB;}
	.st55{fill:#5FBADB;}
	.st56{fill:#61BBDB;}
	.st57{fill:#62BBDB;}
	.st58{fill:#62BBDC;}
	.st59{fill:#63BCDC;}
	.st60{fill:#65BCDC;}
	.st61{fill:#66BCDC;}
	.st62{fill:#67BDDD;}
	.st63{fill:#68BDDC;}
	.st64{fill:#69BDDD;}
	.st65{fill:#6ABEDC;}
	.st66{fill:#6BBEDC;}
	.st67{fill:#6DBFDD;}
	.st68{fill:#6EBFDC;}
	.st69{fill:#6FBFDD;}
	.st70{fill:#6FC0DD;}
	.st71{fill:#71C0DD;}
	.st72{fill:#72C0DD;}
	.st73{fill:#73C1DE;}
	.st74{fill:#75C1DE;}
	.st75{fill:#76C2DE;}
	.st76{fill:#77C2DF;}
	.st77{fill:#78C2DE;}
	.st78{fill:#79C3DF;}
	.st79{fill:#7AC3DF;}
	.st80{fill:#7BC4DE;}
	.st81{fill:#7CC4DF;}
	.st82{fill:#7EC5DF;}
	.st83{fill:#7FC5DF;}
	.st84{fill:#80C5DF;}
	.st85{fill:#81C6E0;}
	.st86{fill:#83C6DF;}
	.st87{fill:#84C7E1;}
	.st88{fill:#85C7E1;}
	.st89{fill:#86C8E1;}
	.st90{fill:#87C8E1;}
	.st91{fill:#88C9E2;}
	.st92{fill:#89C9E1;}
	.st93{fill:#8BCAE2;}
	.st94{fill:#8CCAE2;}
	.st95{fill:#8DCBE2;}
	.st96{fill:#8FCBE2;}
	.st97{fill:#90CCE3;}
	.st98{fill:#92CDE3;}
	.st99{fill:#93CDE3;}
	.st100{fill:#94CDE4;}
	.st101{fill:#95CEE4;}
	.st102{fill:#97CFE5;}
	.st103{fill:#98CFE4;}
	.st104{fill:#99CFE5;}
	.st105{fill:#9BD0E5;}
	.st106{fill:#9CD1E5;}
	.st107{fill:#9DD1E5;}
	.st108{fill:#9DD1E6;}
	.st109{fill:#9FD2E6;}
	.st110{fill:#A0D2E6;}
	.st111{fill:#A1D3E6;}
	.st112{fill:#A3D4E6;}
	.st113{fill:#A4D4E7;}
	.st114{fill:#A5D5E8;}
	.st115{fill:#A6D5E8;}
	.st116{fill:#A8D6E8;}
	.st117{fill:#A8D6E9;}
	.st118{fill:#A9D7E8;}
	.st119{fill:#AAD7E9;}
	.st120{fill:#ACD8EA;}
	.st121{fill:#ADD8E9;}
	.st122{fill:#AED9E9;}
	.st123{fill:#AFD9EA;}
	.st124{fill:#B1DAEA;}
	.st125{fill:#B2DAEA;}
	.st126{fill:#B3DBEB;}
	.st127{fill:#B5DCEC;}
	.st128{fill:#B6DDEC;}
	.st129{fill:#B7DDEC;}
	.st130{fill:#B8DDEC;}
	.st131{fill:#BADEED;}
	.st132{fill:#BBDFED;}
	.st133{fill:#BCDFED;}
	.st134{fill:#BDE0EE;}
	.st135{fill:#BFE1EE;}
	.st136{fill:#C0E1EE;}
	.st137{fill:#C1E2EF;}
	.st138{fill:#C3E2EF;}
	.st139{fill:#C4E3EF;}
	.st140{fill:#C6E3F0;}
	.st141{fill:#C6E4EF;}
	.st142{fill:#C9E5F1;}
	.st143{fill:#CAE5F2;}
	.st144{fill:#CAE6F1;}
	.st145{fill:#CBE6F2;}
	.st146{fill:#CDE7F2;}
	.st147{fill:#CEE8F2;}
	.st148{fill:#CFE8F2;}
	.st149{fill:#D0E9F3;}
	.st150{fill:#D2E9F3;}
	.st151{fill:#D4EAF3;}
	.st152{fill:#D5EBF3;}
	.st153{fill:#D7EBF3;}
	.st154{fill:#D8ECF4;}
	.st155{fill:#D9EDF5;}
	.st156{fill:#DAEDF5;}
	.st157{fill:#DCEEF7;}
	.st158{fill:#DDEFF8;}
	.st159{fill:#DEEFF7;}
	.st160{fill:#DFF0F7;}
	.st161{fill:#E1F1F7;}
	.st162{fill:#E3F1F7;}
	.st163{fill:#E4F2F8;}
	.st164{fill:#E6F3F7;}
	.st165{fill:#E8F4F8;}
	.st166{fill:#E9F4F9;}
	.st167{fill:#EAF5F8;}
	.st168{fill:#EDF6F9;}
	.st169{fill:#EEF7FA;}
	.st170{fill:#EFF7FB;}
	.st171{fill:#F1F8FC;}
	.st172{fill:#F4FAFE;}
	.st173{fill:#F5FAFD;}
	.st174{fill:#F7FBFE;}
	.st175{fill:#F9FCFE;}
	.st176{fill:#FEFEFF;}
	.st177{fill:#FFFFFF;}
</style>
<g>
	<path class="st0" d="M422.2,297.4h6.9v-10.3c0.4,0,1.2,0,1.6,0c4.5,0,11.4-2,11.4-9.9c0-2.8-1.2-5.1-2.9-6.7c-2-1.6-4.9-2.4-9-2.4
		c-3.3,0-6.1,0.4-8.2,0.8L422.2,297.4L422.2,297.4z M429.1,273.7c0.4,0,1.2-0.4,2-0.4c2.9,0,4.5,1.6,4.5,3.9c0,2.8-1.6,4.3-4.9,4.3
		c-0.8,0-1.2,0-1.6,0V273.7L429.1,273.7z M468.7,276.1l-2,10.3c-0.4,1.2-0.4,2.4-0.8,3.5l0,0c0-1.2-0.4-2.4-0.8-3.5l-2.4-10.3h-7.3
		l6.9,19.3c0,0.4,0.4,0.8,0.4,0.8c0,1.2-2.9,3.9-5.7,4.3l1.6,5.5c1.6-0.4,3.7-1.2,6.1-3.2c2.4-2.4,4.1-5.9,6.5-12.2l4.9-15h-7.4
		V276.1z M508.6,276.1h-6.9v13c0,2-1.2,3.2-2.9,3.2c-2,0-2.9-1.6-2.9-4.3v-11.5H489v12.6c0,5.9,2.4,9.1,6.9,9.1
		c3.3,0,5.3-1.6,6.1-3.2l0,0l0.4,2.8h5.7c0-2,0-4.3,0-6.7v-15C508.1,276.1,508.6,276.1,508.6,276.1z M544.1,284.4
		c0-5.5-2.4-8.7-6.9-8.7c-2.9,0-4.9,1.6-6.1,3.2l0,0l-0.4-2.8H525c0,2,0,4.3,0,6.7V297h6.9v-12.2c0-2.8,1.6-3.5,2.9-3.5
		c2,0,2.4,1.6,2.4,3.9v12.2h6.9L544.1,284.4L544.1,284.4z M573.5,276.1l-0.4,2.4l0,0c-0.8-1.6-2.9-2.8-4.9-2.8c-4.9,0-9,4.3-9,11
		c0,5.5,2.9,10.3,8.2,10.3c2,0,3.7-0.8,4.9-2.4l0,0v1.2c0,3.2-1.6,5.1-4.9,5.1c-2,0-4.1-0.8-5.3-1.2l-1.2,5.1
		c1.6,0.8,4.5,1.2,6.9,1.2c10.2,0,11.4-6.3,11.4-11.4v-11.8c0-2.8,0-4.7,0-6.3h-5.7V276.1z M572.3,288.7c0,2.8-1.2,3.5-2.9,3.5
		c-2,0-3.3-2-3.3-5.5s1.2-5.9,3.7-5.9c1.6,0,2.9,1.2,2.9,3.5v4.3h-0.4V288.7z M622.4,268.6h-6.9v11h-8.6v-11H600v28.8h6.9v-11.8h8.6
		v11.8h6.9V268.6L622.4,268.6z M660.8,276.1l-1.6,8.3c-0.4,2.4-0.8,4.7-0.8,6.7l0,0c-0.4-2.4-0.8-4.3-1.2-6.7l-2-8.3h-5.3l-2,8.7
		c-0.4,2-0.8,4.3-1.2,6.7l0,0c-0.4-2.4-0.8-4.3-0.8-6.7l-1.2-8.7h-6.9l5.7,20.9h6.1l2-6.7c0.4-2,0.8-3.9,1.2-6.7l0,0
		c0.4,2.4,0.8,4.7,1.2,6.7l1.6,6.7h6.1l6.1-20.9H660.8L660.8,276.1z M698.7,284.8c0-4.7-1.6-9.1-9-9.1c-3.7,0-6.5,1.2-8.2,2l1.2,4.3
		c1.2-0.8,3.3-1.6,5.3-1.6c2.9,0,3.7,1.2,3.7,2.8c-6.5,0-11.4,2.4-11.4,7.9c0,3.5,2.4,6.3,6.5,6.3c2,0,4.5-0.8,5.7-2.4l0,0l0.4,2
		h6.1c-0.4-1.2-0.4-3.2-0.4-5.1v-7.1H698.7z M692.2,289.9c0,2-1.6,2.8-2.9,2.8c-1.2,0-2.4-0.8-2.4-2.4c0-2.4,2.4-3.2,5.3-3.2
		L692.2,289.9L692.2,289.9z M741.5,280.8h-9.8v5.1h3.7v5.9c-0.4,0-1.2,0.4-2,0.4c-4.1,0-7.3-2.8-7.3-9.1c0-6.7,3.7-9.5,8.6-9.5
		c2.4,0,4.1,0.4,5.3,0.8l1.2-5.5c-1.2-0.8-3.7-1.2-6.9-1.2c-8.6,0-15.5,5.1-15.5,15c0,4.3,1.2,8.7,4.1,11c2.4,2.4,5.7,3.5,10.6,3.5
		c3.3,0,6.5-0.8,8.6-1.6v-15h-0.6V280.8z M764.4,267h-6.9v30h6.9V267L764.4,267z M789.7,275.7c-6.1,0-10.2,3.9-10.2,11
		c0,6.7,4.1,10.6,10.2,10.6c4.9,0,10.2-2.8,10.2-11C799.9,280.4,796.2,275.7,789.7,275.7L789.7,275.7z M792.9,286.7
		c0,3.5-1.2,6.3-3.3,6.3c-2.4,0-3.3-2.8-3.3-6.3c0-2.8,0.8-6.3,3.3-6.3S792.9,283.6,792.9,286.7L792.9,286.7z M821.9,278.4V267H815
		v23.7c0,2.4,0,4.7,0,6.3h5.7l0.4-2.8l0,0c1.2,2.4,3.3,3.2,5.3,3.2c4.5,0,8.6-3.9,8.6-11.4c0-5.9-2.9-10.6-7.7-10.6
		C825.2,275.7,823.1,276.9,821.9,278.4L821.9,278.4L821.9,278.4z M821.9,284.8c0-2.4,1.6-3.5,2.9-3.5c2.4,0,3.7,2.4,3.7,5.5
		c0,3.5-1.2,5.9-3.7,5.9c-1.6,0-2.9-1.2-2.9-3.5V284.8L821.9,284.8z M867.6,284.8c0-4.7-1.6-9.1-9-9.1c-3.7,0-6.5,1.2-8.2,2l1.2,4.3
		c1.2-0.8,3.3-1.6,5.3-1.6c2.9,0,3.7,1.2,3.7,2.8c-6.5,0-11.4,2.4-11.4,7.9c0,3.5,2.4,6.3,6.5,6.3c2,0,4.5-0.8,5.7-2.4l0,0l0.4,2
		h6.1c-0.4-1.2-0.4-3.2-0.4-5.1v-7.1H867.6z M861,289.9c0,2-1.6,2.8-2.9,2.8c-1.2,0-2.4-0.8-2.4-2.4c0-2.4,2.4-3.2,5.3-3.2
		L861,289.9L861,289.9z M890.8,267h-6.9v30h6.9V267L890.8,267z M930,291.5c-1.2,0.4-2.9,0.8-4.5,0.8c-4.9,0-7.7-3.2-7.7-9.1
		c0-6.3,3.7-9.5,7.7-9.5c2,0,3.3,0.4,4.5,0.8l1.2-5.5c-0.8-0.4-2.9-1.2-6.1-1.2c-7.7,0-14.7,4.7-14.7,15.4c0,7.9,4.5,14.2,13.9,14.2
		c2.9,0,5.3-0.4,6.1-0.8L930,291.5L930,291.5z M954.9,275.7c-6.1,0-10.2,3.9-10.2,11c0,6.7,4.1,10.6,10.2,10.6
		c4.9,0,10.2-2.8,10.2-11C965.1,280.4,961,275.7,954.9,275.7L954.9,275.7z M958.1,286.7c0,3.5-1.2,6.3-3.3,6.3
		c-2.4,0-3.3-2.8-3.3-6.3c0-2.8,0.8-6.3,3.3-6.3C957.3,280.4,958.1,283.6,958.1,286.7L958.1,286.7z M984.2,297.8
		c2.4,0,4.1-1.6,4.1-3.9c0-2.3-1.6-3.9-4.1-3.9c-2,0-4.1,1.6-4.1,3.9C980.2,295.8,981.8,297.8,984.2,297.8L984.2,297.8z
		 M1004.2,290.3c-0.8,3.9-1.6,8.3-3.3,12.2l4.5-0.4c2-3.5,4.1-7.9,5.7-12.2L1004.2,290.3L1004.2,290.3z M1047.9,291.9h-9.8v-23.3
		h-6.9v28.8h16.7L1047.9,291.9L1047.9,291.9z M1063.4,276.1h-2.9v4.7h2.9v8.7c0,2.4,0,7.9,6.9,7.9c1.6,0,3.3-0.4,4.1-0.4v-5.1
		c-0.4,0-0.8,0-1.6,0c-1.6,0-2.4-0.8-2.4-3.5v-7.9h4.5v-4.7h-4.5v-5.5l-6.5,2v3.9h-0.5V276.1z M1108.6,267h-6.9v10.6l0,0
		c-0.8-1.2-2.4-2-4.9-2c-4.5,0-8.6,3.9-8.6,11c0,6.3,3.3,10.6,8.2,10.6c2.4,0,4.5-1.2,5.7-3.2l0,0l0.4,2.8h6.1c0-1.6,0-3.9,0-6.3
		L1108.6,267L1108.6,267z M1102.1,288.7c0,2.8-1.6,3.5-2.9,3.5c-2,0-3.7-2-3.7-5.5c0-3.2,1.2-5.9,3.7-5.9c1.2,0,2.9,0.8,2.9,3.9
		V288.7L1102.1,288.7z M1128.6,297.8c2.4,0,4.1-1.6,4.1-3.9c0-2.3-1.6-3.9-4.1-3.9c-2,0-4.1,1.6-4.1,3.9
		C1125,295.8,1126.6,297.8,1128.6,297.8L1128.6,297.8z"/>
	<path class="st0" d="M589.4,79.7c28.1,0,51.4,22.5,51.4,49.7v15.8c0,27.2-23.2,49.7-51.4,49.7h-4.1l0,0h-91
		c-9.4,0-16.7-7.5-16.7-16.2c0-9.1,7.7-16.2,16.7-16.2h91c11.4,0,20.8-9.1,20.8-20.1v-8.7c0-11-9.4-20.1-20.8-20.1H476.8
		c-11.4,0-20.8,9.1-20.8,20.1v3.9v24.8v32.7V233c0,9.1-7.7,16.2-16.7,16.2c-9.4,0-16.7-7.5-16.7-16.2v-95.4l0,0v-8.3
		c0-27.2,23.2-49.7,51.4-49.7L589.4,79.7L589.4,79.7z"/>
	<path class="st0" d="M706.1,149.1H837v-2.4V95.4c0-9.1,7.7-16.2,16.7-16.2l0,0c9.4,0,16.7,7.5,16.7,16.2v51.3v36.7v51.3
		c0,9.1-7.7,16.2-16.7,16.2l0,0c-9.4,0-16.7-7.5-16.7-16.2v-51.3H706.1v51.3c0,9.1-7.7,16.2-16.7,16.2l0,0
		c-9.4,0-16.7-7.5-16.7-16.2v-51.3v-36.7V95.4c0-9.1,7.7-16.2,16.7-16.2l0,0c9.4,0,16.7,7.5,16.7,16.2v51.3V149.1L706.1,149.1z"/>
	<path class="st0" d="M967.5,79.7h138.7c9.4,0,16.7,7.5,16.7,16.2c0,9.1-7.7,16.2-16.7,16.2H967.5c-9.4,0-17.1,7.5-17.1,17v1.2v2
		V165v24.7v3.9c0,11,9,20.1,20,20.1h102c11,0,20-9.1,20-20.1v-12.2h-94.7c-9.4,0-16.7-7.5-16.7-16.2c0-9.1,7.7-16.2,16.7-16.2h113
		c8.6,0,15.5,6.7,15.5,15v15v2.8v15.8c0,27.2-22.4,49.7-49.8,49.7H965.1c-27.3,0-49.8-22.5-49.8-49.7v-8.3l0,0v-58.4
		c0-1.2,0-2.4,0-3.5C917.3,100.6,940.2,79.7,967.5,79.7L967.5,79.7z"/>
	<path class="st1" d="M178.2,0c98.3,0,178.2,76.9,178.2,172.4c0,95-79.5,172.4-178.2,172.4C79.9,344.7,0,267.8,0,172.3
		C0.4,76.9,79.9,0,178.2,0L178.2,0z M141.1,265c2-29.2,2.4-28,17.9-50.1c5.3-7.9,8.6-16.6,7.7-28.8c-1.2-13.8-9-12.2-19.6-15.8
		c1.6-4.3,7.3-4.3,12.6-11.4c4.5-5.9,6.9-9.5,17.1-9.5c17.1,0,20,14.2,25.3,26.8c7.3,17.7,29,54,57.9,39
		c18.8-8.7,23.2-28.4,23.2-46.1c0-56.4-47.3-102.1-105.6-102.1S72.2,112.8,72.2,169.2C71.8,213.4,100.7,250.8,141.1,265L141.1,265z"
		/>
	<path class="st1" d="M142.4,16.2c71,0,128.9,55.6,128.9,124.6c0,68.6-57.5,124.6-128.9,124.6s-128.9-56-128.9-125
		C13.5,71.8,71,16.2,142.4,16.2L142.4,16.2z"/>
	<path class="st1" d="M142.4,16.6c70.6,0,128.1,55.6,128.1,123.8c0,68.6-57.5,123.8-128.1,123.8S13.9,209,13.9,140.4
		C13.9,72.2,71.4,16.6,142.4,16.6L142.4,16.6z"/>
	<path class="st2" d="M142.4,17.4c70.6,0,127.7,55.2,127.7,123.4s-57.2,123.4-127.7,123.4S14.7,209,14.7,140.8S71.8,17.4,142.4,17.4
		L142.4,17.4z"/>
	<path class="st2" d="M142.4,17.7c70.2,0,126.9,54.8,126.9,122.7s-56.8,122.7-126.9,122.7S15.5,208.2,15.5,140.4
		C15.5,73,72.2,17.7,142.4,17.7L142.4,17.7z"/>
	<path class="st3" d="M142.4,18.5c69.7,0,126.4,54.8,126.4,122.3s-56.7,122.3-126.4,122.3S15.9,208.2,15.9,140.8
		S72.6,18.5,142.4,18.5L142.4,18.5z"/>
	<path class="st4" d="M142.4,18.9c69.3,0,125.6,54.4,125.6,121.5s-56.3,121.5-125.6,121.5S16.7,207.5,16.7,140.4
		C16.7,73.4,73,18.9,142.4,18.9L142.4,18.9z"/>
	<path class="st4" d="M142.4,19.7c68.9,0,124.8,54,124.8,120.7s-55.9,120.7-124.8,120.7S17.1,207.5,17.1,140.4S73,19.7,142.4,19.7
		L142.4,19.7z"/>
	<path class="st4" d="M142.4,20.5c68.5,0,124.4,54,124.4,120.3s-55.9,120.3-124.4,120.3s-124.5-54-124.5-120.7
		C17.9,74.1,73.4,20.5,142.4,20.5L142.4,20.5z"/>
	<path class="st5" d="M142.4,20.9c68.5,0,123.6,53.6,123.6,119.5c0,66.3-55.5,119.5-123.6,119.5c-68.6,0-123.6-53.6-123.6-119.5
		C18.4,74.5,73.8,20.9,142.4,20.9L142.4,20.9z"/>
	<path class="st5" d="M142.4,21.7c68.1,0,123.2,53.2,123.2,119.1s-55.1,119.1-123.2,119.1c-68.2-0.4-123.2-53.6-123.2-119.5
		C19.2,74.9,74.2,21.7,142.4,21.7L142.4,21.7z"/>
	<path class="st5" d="M142.4,22.1c67.7,0,122.4,52.8,122.4,118.3s-54.7,118.3-122.4,118.3S20,205.9,20,140.4
		C19.6,75.3,74.6,22.1,142.4,22.1L142.4,22.1z"/>
	<path class="st6" d="M142.4,22.9c67.3,0,122,52.8,122,117.9s-54.7,117.9-122,117.9s-122-52.8-122-117.9
		C20.4,75.3,75.1,22.9,142.4,22.9L142.4,22.9z"/>
	<path class="st6" d="M142.4,23.3c66.9,0,121.1,52.5,121.1,117.1s-54.3,117.1-121.1,117.1s-121.6-52-121.6-117.1
		S75.1,23.3,142.4,23.3L142.4,23.3z"/>
	<path class="st6" d="M142.4,24.1c66.5,0,120.7,52.1,120.7,116.7s-53.9,116.7-120.7,116.7S21.6,205.1,21.6,140.4
		S75.5,24.1,142.4,24.1L142.4,24.1z"/>
	<path class="st7" d="M142.4,24.5c66.1,0,119.9,52.1,119.9,116s-53.8,116-119.9,116S22,204.7,22,140.4S75.9,24.5,142.4,24.5
		L142.4,24.5z"/>
	<path class="st7" d="M142.4,25.2c66.1,0,119.5,51.7,119.5,115.6s-53.5,115.6-119.5,115.6S22.8,204.7,22.8,140.8
		S76.3,25.2,142.4,25.2L142.4,25.2z"/>
	<path class="st7" d="M142.4,25.6c65.7,0,118.7,51.3,118.7,114.8s-53,114.8-118.7,114.8S23.7,203.9,23.7,140.4
		C23.7,77.3,76.7,25.6,142.4,25.6L142.4,25.6z"/>
	<path class="st8" d="M142.4,26.4c65.3,0,118.3,51.3,118.3,114.4s-53,114.4-118.3,114.4S24.1,203.9,24.1,140.8S77.1,26.4,142.4,26.4
		L142.4,26.4z"/>
	<path class="st9" d="M142.4,26.8c64.9,0,117.5,50.9,117.5,113.6S207.2,254,142.4,254S24.9,203.1,24.9,140.4S77.5,26.8,142.4,26.8
		L142.4,26.8z"/>
	<path class="st10" d="M142.4,27.6c64.4,0,116.7,50.5,116.7,112.8s-52.3,113.2-116.7,113.2S25.3,203.1,25.3,140.4
		S77.5,27.6,142.4,27.6L142.4,27.6z"/>
	<path class="st10" d="M142.4,28.4c64,0,116.2,50.5,116.2,112.4s-52.2,112.4-116.2,112.4S26.1,202.7,26.1,140.4
		S77.9,28.4,142.4,28.4L142.4,28.4z"/>
	<path class="st11" d="M142.4,28.8c63.6,0,115.4,50.1,115.4,111.6S206,252,142.4,252S26.9,201.9,26.9,140.4
		C26.5,78.9,78.3,28.8,142.4,28.8L142.4,28.8z"/>
	<path class="st12" d="M142.4,29.6c63.6,0,115,49.7,115,111.2S206,252,142.4,252c-63.7-0.4-115.1-50.1-115.1-111.6
		C27.3,79.3,78.7,29.6,142.4,29.6L142.4,29.6z"/>
	<path class="st13" d="M142.4,30c63.2,0,114.2,49.3,114.2,110.4s-51,110.4-114.2,110.4S28.1,201.5,28.1,140.4
		C27.7,79.7,79.1,30,142.4,30L142.4,30z"/>
	<path class="st13" d="M142.4,30.8c62.8,0,113.8,49.3,113.8,110s-51,110-113.8,110s-113.8-49.3-113.8-110S79.5,30.8,142.4,30.8
		L142.4,30.8z"/>
	<path class="st14" d="M142.4,31.2c62.4,0,113,48.9,113,109.2s-50.6,109.2-113,109.2S29,201.1,29,140.4
		C29,80.1,79.9,31.2,142.4,31.2L142.4,31.2z"/>
	<path class="st15" d="M142.4,31.9c62,0,112.6,48.5,112.6,108.9s-50.2,108.9-112.6,108.9s-112.6-49-112.6-109.3
		S79.9,31.9,142.4,31.9L142.4,31.9z"/>
	<path class="st15" d="M142.4,32.3c61.6,0,111.8,48.5,111.8,108.1s-50.3,108.1-111.8,108.1S30.2,200.4,30.2,140.4
		C30.2,80.9,80.4,32.3,142.4,32.3L142.4,32.3z"/>
	<path class="st16" d="M142.4,33.1c61.6,0,111.4,48.1,111.4,107.7s-49.9,107.7-111.4,107.7S31,200.4,31,140.8S80.8,33.1,142.4,33.1
		L142.4,33.1z"/>
	<path class="st17" d="M142.4,33.5c61.2,0,110.5,47.7,110.5,106.9s-49.4,106.9-110.5,106.9S31.8,199.6,31.8,140.4
		C31.8,81.6,81.2,33.5,142.4,33.5L142.4,33.5z"/>
	<path class="st17" d="M142.4,34.3c60.8,0,110.1,47.7,110.1,106.5s-49.4,106.5-110.1,106.5S32.2,199.6,32.2,140.8
		S81.6,34.3,142.4,34.3L142.4,34.3z"/>
	<path class="st18" d="M142.4,34.7c60.3,0,109.3,47.3,109.3,105.7s-49,105.7-109.3,105.7S33,198.8,33,140.4S82,34.7,142.4,34.7
		L142.4,34.7z"/>
	<path class="st19" d="M142.4,35.5c60,0,108.5,46.9,108.5,104.9s-48.6,104.9-108.5,104.9S33.9,198.4,33.9,140.4
		C33.4,82.4,82,35.5,142.4,35.5L142.4,35.5z"/>
	<path class="st19" d="M142.4,36.3c59.6,0,108.1,46.9,108.1,104.5s-48.6,104.5-108.1,104.5S34.3,198.4,34.3,140.4
		C34.3,82.8,82.4,36.3,142.4,36.3L142.4,36.3z"/>
	<path class="st20" d="M142.4,36.7c59.1,0,107.3,46.5,107.3,103.7s-48.2,103.7-107.3,103.7S35.1,197.6,35.1,140.4
		C34.7,83.2,82.8,36.7,142.4,36.7L142.4,36.7z"/>
	<path class="st21" d="M142.4,37.5c59.1,0,106.9,46.1,106.9,103.3s-47.8,103.3-106.9,103.3S35.5,198,35.5,140.8
		S83.2,37.5,142.4,37.5L142.4,37.5z"/>
	<path class="st22" d="M142.4,37.9c58.7,0,106.1,46.1,106.1,102.5c0,56.8-47.7,102.5-106.1,102.5c-58.8,0-106.1-46.1-106.1-102.5
		C35.9,84,83.6,37.9,142.4,37.9L142.4,37.9z"/>
	<path class="st23" d="M142.4,38.7c58.3,0,105.6,45.7,105.6,102.1s-47.3,102.1-105.6,102.1S36.7,197.2,36.7,140.8
		S84,38.7,142.4,38.7L142.4,38.7z"/>
	<path class="st24" d="M142.4,39c57.9,0,104.8,45.4,104.8,101.4s-46.9,101.4-104.8,101.4S37.5,196.4,37.5,140.4
		C37.1,84.4,84.4,39,142.4,39L142.4,39z"/>
	<path class="st24" d="M142.4,39.8c57.5,0,104.4,45,104.4,101c0,55.6-46.5,101-104.4,101c-57.5,0-104.4-45-104.4-101
		C37.9,84.8,84.4,39.8,142.4,39.8L142.4,39.8z"/>
	<path class="st25" d="M142.4,40.2c57.1,0,103.6,45,103.6,100.2s-46.5,100.2-103.6,100.2s-103.7-45-103.7-100.2
		S84.8,40.2,142.4,40.2L142.4,40.2z"/>
	<path class="st25" d="M142.4,41c56.7,0,103.2,44.6,103.2,99.8c0,54.8-46.1,99.8-103.2,99.8c-56.7,0-103.2-44.6-103.2-99.8
		S85.2,41,142.4,41L142.4,41z"/>
	<path class="st26" d="M142.4,41.4c56.7,0,102.4,44.2,102.4,99s-45.7,99-102.4,99S40,195.2,40,140.4C40,86,85.7,41.4,142.4,41.4
		L142.4,41.4z"/>
	<path class="st27" d="M142.4,42.2c56.3,0,102,44.2,102,98.6s-45.7,98.6-102,98.6s-102-44.2-102-98.6
		C40.4,86.4,86.1,42.2,142.4,42.2L142.4,42.2z"/>
	<path class="st28" d="M142.4,43c55.9,0,101.2,43.8,101.2,97.8s-45.3,97.8-101.2,97.8S41.2,194.8,41.2,140.8S86.5,43,142.4,43
		L142.4,43z"/>
	<path class="st28" d="M142.4,43.4c55.5,0,100.3,43.4,100.3,97s-44.9,97-100.3,97S42,194,42,140.4C41.6,86.8,86.9,43.4,142.4,43.4
		L142.4,43.4z"/>
	<path class="st29" d="M142.4,44.2c55.1,0,99.9,43.4,99.9,96.6s-44.9,96.6-99.9,96.6s-100-43.4-100-96.6
		C42.4,87.2,86.9,44.2,142.4,44.2L142.4,44.2z"/>
	<path class="st30" d="M142.4,44.6c54.7,0,99.1,43,99.1,95.8s-44.5,95.8-99.1,95.8s-99.1-43-99.1-95.8
		C42.8,87.6,87.3,44.6,142.4,44.6L142.4,44.6z"/>
	<path class="st30" d="M142.4,45.4c54.7,0,98.7,42.6,98.7,95.4s-44.1,95.4-98.7,95.4s-98.7-43-98.7-95.8
		C43.6,87.9,87.7,45.4,142.4,45.4L142.4,45.4z"/>
	<path class="st31" d="M142.4,45.7c54.2,0,97.9,42.6,97.9,94.7c0,52.5-44.1,94.7-97.9,94.7c-54.2,0-97.9-42.6-97.9-94.7
		C44.1,88.3,88.1,45.7,142.4,45.7L142.4,45.7z"/>
	<path class="st32" d="M142.4,46.5c53.8,0,97.5,42.2,97.5,94.3s-43.6,94.3-97.5,94.3s-97.5-42.2-97.5-94.3S88.5,46.5,142.4,46.5
		L142.4,46.5z"/>
	<path class="st33" d="M142.4,46.9c53.4,0,96.7,41.8,96.7,93.5s-43.2,93.5-96.7,93.5s-96.7-41.8-96.7-93.5
		C45.3,88.7,88.9,46.9,142.4,46.9L142.4,46.9z"/>
	<path class="st34" d="M142.4,47.7c53,0,96.3,41.8,96.3,93.1s-43.2,93.1-96.3,93.1s-96.3-41.8-96.3-93.1
		C46.1,89.1,88.9,47.7,142.4,47.7L142.4,47.7z"/>
	<path class="st34" d="M142.4,48.1c52.6,0,95.4,41.4,95.4,92.3s-42.8,92.3-95.4,92.3s-95.5-41.4-95.5-92.3S89.3,48.1,142.4,48.1
		L142.4,48.1z"/>
	<path class="st35" d="M142.4,48.9c52.2,0,95,41,95,91.9s-42.8,91.5-95,91.5s-95-41-95-91.9S89.7,48.9,142.4,48.9L142.4,48.9z"/>
	<path class="st35" d="M142.4,49.3c52.2,0,94.2,40.6,94.2,91.1s-42,91.1-94.2,91.1s-94.3-40.6-94.3-91.1S90.1,49.3,142.4,49.3
		L142.4,49.3z"/>
	<path class="st36" d="M142.4,50.1c51.8,0,93.4,40.6,93.4,90.3c0,50.1-42,90.3-93.4,90.3c-51.8,0-93.4-40.6-93.4-90.3
		C48.5,90.7,90.6,50.1,142.4,50.1L142.4,50.1z"/>
	<path class="st37" d="M142.4,50.9c51.4,0,93,40.2,93,89.9s-41.6,89.9-93,89.9s-93-40.2-93-89.9C49.4,91.1,91,50.9,142.4,50.9
		L142.4,50.9z"/>
	<path class="st38" d="M142.4,51.3c51,0,92.2,39.8,92.2,89.1s-41.2,89.1-92.2,89.1s-92.2-39.8-92.2-89.1
		C49.8,91.1,91.4,51.3,142.4,51.3L142.4,51.3z"/>
	<path class="st39" d="M142.4,52.1c50.6,0,91.8,39.8,91.8,88.7s-41.2,88.7-91.8,88.7s-91.8-39.8-91.8-88.7
		C50.6,91.5,91.4,52.1,142.4,52.1L142.4,52.1z"/>
	<path class="st40" d="M142.4,52.5c50.2,0,91,39.4,91,87.9s-40.8,87.9-91,87.9s-91-39.4-91-87.9S91.8,52.5,142.4,52.5L142.4,52.5z"
		/>
	<path class="st40" d="M142.4,53.2c49.8,0,90.6,39,90.6,87.6s-40.4,87.6-90.6,87.6s-90.6-39.5-90.6-88S92.2,53.2,142.4,53.2
		L142.4,53.2z"/>
	<path class="st41" d="M142.4,53.6c49.8,0,89.7,39,89.7,86.8s-40.4,86.8-89.7,86.8c-49.8,0-89.7-39-89.7-86.8S92.6,53.6,142.4,53.6
		L142.4,53.6z"/>
	<path class="st42" d="M142.4,54.4c49.4,0,89.3,38.7,89.3,86.4s-40,86.4-89.3,86.4S53,188.5,53,140.8S93,54.4,142.4,54.4L142.4,54.4
		z"/>
	<path class="st43" d="M142.4,54.8c48.9,0,88.5,38.3,88.5,85.6S191.3,226,142.4,226s-88.6-38.3-88.6-85.6
		C53.4,93.5,93.4,54.8,142.4,54.8L142.4,54.8z"/>
	<path class="st44" d="M142.4,55.6c48.5,0,88.1,38.3,88.1,85.2S190.9,226,142.4,226s-88.2-38.3-88.2-85.2
		C54.2,93.5,93.8,55.6,142.4,55.6L142.4,55.6z"/>
	<path class="st45" d="M142.4,56c48.1,0,87.3,37.9,87.3,84.4s-39.2,84.4-87.3,84.4s-87.3-37.9-87.3-84.4S93.8,56,142.4,56L142.4,56z
		"/>
	<path class="st46" d="M142.4,56.8c47.7,0,86.9,37.5,86.9,84s-38.7,84-86.9,84s-86.9-37.5-86.9-84S94.2,56.8,142.4,56.8L142.4,56.8z
		"/>
	<path class="st47" d="M142.4,57.2c47.7,0,86.1,37.1,86.1,83.2s-38.8,83.2-86.1,83.2s-86.1-37.1-86.1-83.2S94.6,57.2,142.4,57.2
		L142.4,57.2z"/>
	<path class="st48" d="M142.4,58c47.3,0,85.2,37.1,85.2,82.4c0,45.7-38.3,82.4-85.2,82.4c-47.3,0-85.2-37.1-85.2-82.4
		C56.7,95,95,58,142.4,58L142.4,58z"/>
	<path class="st49" d="M142.4,58.8c46.9,0,84.8,36.7,84.8,82s-37.9,82-84.8,82s-84.8-36.7-84.8-82C57.5,95.4,95.4,58.8,142.4,58.8
		L142.4,58.8z"/>
	<path class="st50" d="M142.4,59.2c46.5,0,84,36.3,84,81.2s-37.5,81.2-84,81.2s-84-36.3-84-81.2C57.9,95.4,95.9,59.2,142.4,59.2
		L142.4,59.2z"/>
	<path class="st51" d="M142.4,59.9c46.1,0,83.6,36.3,83.6,80.9s-37.5,80.9-83.6,80.9s-83.7-36.3-83.7-80.9
		C58.7,95.8,95.9,59.9,142.4,59.9L142.4,59.9z"/>
	<path class="st52" d="M142.4,60.3c45.7,0,82.8,35.9,82.8,80.1s-37.1,80.1-82.8,80.1s-82.8-35.9-82.8-80.1
		C59.1,96.2,96.3,60.3,142.4,60.3L142.4,60.3z"/>
	<path class="st53" d="M142.4,61.1c45.3,0,82.4,35.5,82.4,79.7c0,43.8-36.7,79.7-82.4,79.7S60,185,60,140.8S96.7,61.1,142.4,61.1
		L142.4,61.1z"/>
	<path class="st54" d="M142.4,61.5c45.3,0,81.6,35.5,81.6,78.9s-36.7,78.9-81.6,78.9c-45.3,0-81.6-35.5-81.6-78.9
		S97.1,61.5,142.4,61.5L142.4,61.5z"/>
	<path class="st55" d="M142.4,62.3c44.9,0,81.2,35.1,81.2,78.5s-36.3,78.5-81.2,78.5s-81.2-35.1-81.2-78.5S97.5,62.3,142.4,62.3
		L142.4,62.3z"/>
	<path class="st56" d="M142.4,62.7c44.5,0,80.4,34.7,80.4,77.7s-35.9,77.7-80.4,77.7S62,183.4,62,140.4
		C61.6,97.8,97.9,62.7,142.4,62.7L142.4,62.7z"/>
	<path class="st57" d="M142.4,63.5c44.1,0,79.9,34.7,79.9,77.3s-35.9,77.3-79.9,77.3s-80-34.7-80-77.3
		C62.4,97.8,98.3,63.5,142.4,63.5L142.4,63.5z"/>
	<path class="st58" d="M142.4,63.9c43.6,0,79.1,34.3,79.1,76.5s-35.5,76.5-79.1,76.5s-79.2-34.3-79.2-76.5S98.3,63.9,142.4,63.9
		L142.4,63.9z"/>
	<path class="st59" d="M142.4,64.7c43.2,0,78.7,33.9,78.7,76.1c0,41.8-35.1,76.1-78.7,76.1c-43.2,0-78.7-33.9-78.7-76.1
		C63.6,98.6,98.7,64.7,142.4,64.7L142.4,64.7z"/>
	<path class="st60" d="M142.4,65.1c42.8,0,77.9,33.9,77.9,75.3s-35.1,75.3-77.9,75.3s-78-33.9-78-75.3S99.1,65.1,142.4,65.1
		L142.4,65.1z"/>
	<path class="st61" d="M142.4,65.9c42.8,0,77.1,33.5,77.1,74.5c0,41.4-34.7,74.5-77.1,74.5c-42.8,0-77.1-33.5-77.1-74.5
		C64.9,99.4,99.5,65.9,142.4,65.9L142.4,65.9z"/>
	<path class="st62" d="M142.4,66.7c42.4,0,76.7,33.1,76.7,74.1s-34.3,74.1-76.7,74.1s-76.7-33.1-76.7-74.1S99.9,66.7,142.4,66.7
		L142.4,66.7z"/>
	<path class="st63" d="M142.4,67c42,0,75.9,32.7,75.9,73.4s-33.9,73.4-75.9,73.4S66.5,181,66.5,140.4C66.1,100.2,100.3,67,142.4,67
		L142.4,67z"/>
	<path class="st64" d="M142.4,67.8c41.6,0,75.5,32.7,75.5,73s-33.9,73-75.5,73s-75.5-32.8-75.5-73C66.9,100.2,100.7,67.8,142.4,67.8
		L142.4,67.8z"/>
	<path class="st65" d="M142.4,68.2c41.2,0,74.6,32.3,74.6,72.2s-33.4,72.2-74.6,72.2s-74.7-32.4-74.7-72.2
		C67.3,100.6,100.7,68.2,142.4,68.2L142.4,68.2z"/>
	<path class="st66" d="M142.4,69c40.8,0,74.2,31.9,74.2,71.8c0,39.4-33,71.8-74.2,71.8c-40.8,0-74.2-31.9-74.2-71.8
		S101.2,69,142.4,69L142.4,69z"/>
	<path class="st67" d="M142.4,69.4c40.8,0,73.4,31.9,73.4,71s-33,71-73.4,71c-40.8,0-73.4-31.9-73.4-71S101.6,69.4,142.4,69.4
		L142.4,69.4z"/>
	<path class="st68" d="M142.4,70.2c40.4,0,73,31.6,73,70.6s-32.6,70.6-73,70.6s-73-31.6-73-70.6C69.3,101.8,102,70.2,142.4,70.2
		L142.4,70.2z"/>
	<path class="st69" d="M142.4,70.6c40,0,72.2,31.2,72.2,69.8s-32.2,69.8-72.2,69.8s-72.2-31.1-72.2-69.8
		C69.7,102.1,102.4,70.6,142.4,70.6L142.4,70.6z"/>
	<path class="st70" d="M142.4,71.4c39.6,0,71.8,31.2,71.8,69.4s-32.2,69.4-71.8,69.4s-71.8-31.1-71.8-69.4
		C70.6,102.1,102.8,71.4,142.4,71.4L142.4,71.4z"/>
	<path class="st71" d="M142.4,71.8c39.2,0,71,30.8,71,68.6s-31.9,68.6-71,68.6s-71-30.8-71-68.6C71.4,102.5,102.8,71.8,142.4,71.8
		L142.4,71.8z"/>
	<path class="st72" d="M142.4,72.6c38.7,0,70.6,30.4,70.6,68.2c0,37.5-31.4,68.2-70.6,68.2c-38.7,0-70.6-30.4-70.6-68.2
		C71.8,102.9,103.2,72.6,142.4,72.6L142.4,72.6z"/>
	<path class="st73" d="M142.4,73c38.3,0,69.7,30.4,69.7,67.4s-31.4,67.4-69.7,67.4s-69.8-30.3-69.8-67.4S103.6,73,142.4,73L142.4,73
		z"/>
	<path class="st74" d="M142.4,73.8c38.3,0,68.9,30,68.9,66.7s-31,66.7-68.9,66.7s-68.9-30-68.9-66.7S104,73.8,142.4,73.8L142.4,73.8
		z"/>
	<path class="st75" d="M142.4,74.5c37.9,0,68.5,29.6,68.5,66.3s-30.6,66.3-68.5,66.3s-68.6-29.6-68.6-66.3S104.4,74.5,142.4,74.5
		L142.4,74.5z"/>
	<path class="st76" d="M142.4,74.9c37.5,0,67.7,29.2,67.7,65.5s-30.2,65.5-67.7,65.5s-67.8-29.2-67.8-65.5
		C74.2,104.5,104.8,74.9,142.4,74.9L142.4,74.9z"/>
	<path class="st77" d="M142.4,75.7c37.1,0,67.3,29.2,67.3,65.1s-30.2,65.1-67.3,65.1s-67.3-29.2-67.3-65.1
		C75.1,104.5,105.2,75.7,142.4,75.7L142.4,75.7z"/>
	<path class="st78" d="M142.4,76.1c36.7,0,66.5,28.8,66.5,64.3s-29.8,64.3-66.5,64.3s-66.5-28.8-66.5-64.3
		C75.5,104.9,105.2,76.1,142.4,76.1L142.4,76.1z"/>
	<path class="st79" d="M142.4,76.9c36.3,0,66.1,28.4,66.1,63.9c0,35.1-29.4,63.9-66.1,63.9c-36.3,0-66.1-28.4-66.1-63.9
		S105.6,76.9,142.4,76.9L142.4,76.9z"/>
	<path class="st80" d="M142.4,77.3c35.9,0,65.3,28.4,65.3,63.1s-29.4,63.1-65.3,63.1s-65.3-28.4-65.3-63.1S106.1,77.3,142.4,77.3
		L142.4,77.3z"/>
	<path class="st81" d="M142.4,78.1c35.9,0,64.9,28,64.9,62.7s-29,62.7-64.9,62.7s-64.9-28-64.9-62.7
		C77.5,106.1,106.5,78.1,142.4,78.1L142.4,78.1z"/>
	<path class="st82" d="M142.4,78.5c35.5,0,64,27.6,64,61.9s-28.6,61.9-64,61.9s-64-27.6-64-61.9C77.9,106.5,106.9,78.5,142.4,78.5
		L142.4,78.5z"/>
	<path class="st83" d="M142.4,79.3c35.1,0,63.6,27.6,63.6,61.5s-28.6,61.5-63.6,61.5s-63.7-27.6-63.7-61.5S107.3,79.3,142.4,79.3
		L142.4,79.3z"/>
	<path class="st84" d="M142.4,79.7c34.7,0,62.8,27.2,62.8,60.7s-28.1,60.7-62.8,60.7s-62.9-27.2-62.9-60.7S107.7,79.7,142.4,79.7
		L142.4,79.7z"/>
	<path class="st85" d="M142.4,80.5c34.3,0,62.4,26.8,62.4,60.3c0,33.1-27.7,60.3-62.4,60.3c-34.3,0-62.4-26.8-62.4-60.3
		C79.9,107.3,107.7,80.5,142.4,80.5L142.4,80.5z"/>
	<path class="st86" d="M142.4,80.9c33.9,0,61.6,26.8,61.6,59.6S176.2,200,142.4,200s-61.6-26.9-61.6-59.6S108.1,80.9,142.4,80.9
		L142.4,80.9z"/>
	<path class="st87" d="M142.4,81.6c33.9,0,60.8,26.4,60.8,58.8s-27.3,58.8-60.8,58.8s-60.8-26.5-60.8-58.8S108.5,81.6,142.4,81.6
		L142.4,81.6z"/>
	<path class="st88" d="M142.4,82.4c33.4,0,60.4,26,60.4,58.4s-26.9,58.4-60.4,58.4S82,173.2,82,140.8S108.9,82.4,142.4,82.4
		L142.4,82.4z"/>
	<path class="st89" d="M142.4,82.8c33,0,59.6,26,59.6,57.6S175,198,142.4,198c-33,0-59.6-26-59.6-57.6S109.3,82.8,142.4,82.8
		L142.4,82.8z"/>
	<path class="st90" d="M142.4,83.6c32.6,0,59.1,25.6,59.1,57.2S175,198,142.4,198s-59.2-25.7-59.2-57.2
		C83.2,108.9,109.7,83.6,142.4,83.6L142.4,83.6z"/>
	<path class="st91" d="M142.4,84c32.2,0,58.3,25.2,58.3,56.4s-26.1,56.4-58.3,56.4S84,171.6,84,140.4C83.6,109.2,109.7,84,142.4,84
		L142.4,84z"/>
	<path class="st92" d="M142.4,84.8c31.8,0,57.9,24.8,57.9,56c0,30.8-25.7,56-57.9,56c-31.8,0-57.9-24.8-57.9-56
		S110.1,84.8,142.4,84.8L142.4,84.8z"/>
	<path class="st93" d="M142.4,85.2c31.4,0,57.1,24.8,57.1,55.2s-25.7,55.2-57.1,55.2s-57.2-24.8-57.2-55.2S110.5,85.2,142.4,85.2
		L142.4,85.2z"/>
	<path class="st93" d="M142.4,86c31.4,0,56.7,24.5,56.7,54.8s-25.3,54.8-56.7,54.8s-56.7-24.4-56.7-54.8S110.9,86,142.4,86L142.4,86
		z"/>
	<path class="st94" d="M142.4,86.4c31,0,55.9,24.1,55.9,54s-24.9,54-55.9,54s-55.9-24.1-55.9-54C86.1,110.8,111.4,86.4,142.4,86.4
		L142.4,86.4z"/>
	<path class="st95" d="M142.4,87.2c30.6,0,55.5,24.1,55.5,53.6s-24.9,53.6-55.5,53.6s-55.5-24-55.5-53.6S111.8,87.2,142.4,87.2
		L142.4,87.2z"/>
	<path class="st96" d="M142.4,87.6c30.2,0,54.7,23.7,54.7,52.8s-24.5,52.8-54.7,52.8s-54.7-23.6-54.7-52.8S112.2,87.6,142.4,87.6
		L142.4,87.6z"/>
	<path class="st97" d="M142.4,88.3c29.8,0,54.2,23.3,54.2,52.5c0,28.8-24.1,52.5-54.2,52.5c-29.8,0-54.2-23.3-54.2-52.5
		C88.1,111.6,112.2,88.3,142.4,88.3L142.4,88.3z"/>
	<path class="st97" d="M142.4,88.7c29.4,0,53.4,23.3,53.4,51.7s-24.1,51.7-53.4,51.7s-53.5-23.3-53.5-51.7S112.6,88.7,142.4,88.7
		L142.4,88.7z"/>
	<path class="st98" d="M142.4,89.5c29,0,52.6,22.9,52.6,50.9s-23.7,50.9-52.6,50.9s-52.7-22.9-52.7-50.9
		C89.3,112.4,113,89.5,142.4,89.5L142.4,89.5z"/>
	<path class="st99" d="M142.4,90.3c29,0,52.2,22.5,52.2,50.5s-23.3,50.5-52.2,50.5s-52.3-22.5-52.3-50.5S113.4,90.3,142.4,90.3
		L142.4,90.3z"/>
	<path class="st100" d="M142.4,90.7c28.6,0,51.4,22.5,51.4,49.7c0,27.6-23.2,49.7-51.4,49.7c-28.6,0-51.4-22.5-51.4-49.7
		C90.6,113.2,113.8,90.7,142.4,90.7L142.4,90.7z"/>
	<path class="st101" d="M142.4,91.5c28.1,0,51,22.1,51,49.3s-22.8,49.3-51,49.3s-51-22.1-51-49.3S114.2,91.5,142.4,91.5L142.4,91.5z
		"/>
	<path class="st102" d="M142.4,91.9c27.7,0,50.2,21.7,50.2,48.5s-22.5,48.5-50.2,48.5s-50.2-21.7-50.2-48.5
		C91.8,113.6,114.6,91.9,142.4,91.9L142.4,91.9z"/>
	<path class="st102" d="M142.4,92.7c27.3,0,49.8,21.7,49.8,48.1s-22.5,48.1-49.8,48.1s-49.8-21.7-49.8-48.1
		C92.6,114,114.6,92.7,142.4,92.7L142.4,92.7z"/>
	<path class="st103" d="M142.4,93.1c26.9,0,48.9,21.3,48.9,47.3s-22,47.3-48.9,47.3s-49-21.3-49-47.3C93,114.4,115,93.1,142.4,93.1
		L142.4,93.1z"/>
	<path class="st104" d="M142.4,93.9c26.9,0,48.5,20.9,48.5,46.9s-21.6,46.9-48.5,46.9s-48.6-20.9-48.6-46.9S115.4,93.9,142.4,93.9
		L142.4,93.9z"/>
	<path class="st105" d="M142.4,94.3c26.5,0,47.7,20.5,47.7,46.1s-21.2,46.1-47.7,46.1S94.6,166,94.6,140.4
		C94.2,115.2,115.8,94.3,142.4,94.3L142.4,94.3z"/>
	<path class="st106" d="M142.4,95c26.1,0,47.3,20.5,47.3,45.7s-21.2,45.8-47.3,45.8S95,166,95,140.8S116.2,95,142.4,95L142.4,95z"/>
	<path class="st107" d="M142.4,95.4c25.7,0,46.5,20.1,46.5,45s-20.8,45-46.5,45s-46.5-20.1-46.5-45
		C95.9,115.6,116.7,95.4,142.4,95.4L142.4,95.4z"/>
	<path class="st108" d="M142.4,96.2c25.3,0,46.1,19.7,46.1,44.6c0,24.5-20.4,44.6-46.1,44.6c-25.3,0-46.1-19.7-46.1-44.6
		C96.3,116,116.7,96.2,142.4,96.2L142.4,96.2z"/>
	<path class="st109" d="M142.4,96.6c24.9,0,45.3,19.7,45.3,43.8s-20.5,43.8-45.3,43.8s-45.3-19.7-45.3-43.8S117.1,96.6,142.4,96.6
		L142.4,96.6z"/>
	<path class="st110" d="M142.4,97.4c24.5,0,44.5,19.3,44.5,43s-20,43-44.5,43s-44.5-19.3-44.5-43C97.5,116.7,117.5,97.4,142.4,97.4
		L142.4,97.4z"/>
	<path class="st111" d="M142.4,98.2c24.5,0,44.1,18.9,44.1,42.6s-19.7,42.6-44.1,42.6s-44.1-18.9-44.1-42.6S117.9,98.2,142.4,98.2
		L142.4,98.2z"/>
	<path class="st112" d="M142.4,98.6c24.1,0,43.2,18.9,43.2,41.8c0,23.3-19.6,41.8-43.2,41.8s-43.2-18.9-43.2-41.8
		C98.7,117.5,118.3,98.6,142.4,98.6L142.4,98.6z"/>
	<path class="st113" d="M142.4,99.4c23.7,0,42.8,18.5,42.8,41.4s-19.2,41.4-42.8,41.4s-42.8-18.5-42.8-41.4S118.7,99.4,142.4,99.4
		L142.4,99.4z"/>
	<path class="st114" d="M142.4,99.8c23.2,0,42,18.1,42,40.6s-18.8,40.6-42,40.6s-42-18.1-42-40.6C99.9,117.9,119.1,99.8,142.4,99.8
		L142.4,99.8z"/>
	<path class="st115" d="M142.4,100.6c22.8,0,41.6,18.1,41.6,40.2S165.2,181,142.4,181c-22.9,0-41.7-18.1-41.7-40.2
		C100.7,118.3,119.1,100.6,142.4,100.6L142.4,100.6z"/>
	<path class="st116" d="M142.4,101c22.4,0,40.8,17.7,40.8,39.4s-18.4,39.4-40.8,39.4s-40.8-17.7-40.8-39.4
		C101.2,118.7,119.5,101,142.4,101L142.4,101z"/>
	<path class="st117" d="M142.4,101.8c22,0,40.4,17.4,40.4,39c0,21.3-17.9,39-40.4,39c-22,0-40.4-17.4-40.4-39
		C102,119.1,119.9,101.8,142.4,101.8L142.4,101.8z"/>
	<path class="st118" d="M142.4,102.1c22,0,39.6,17,39.6,38.3s-17.6,38.3-39.6,38.3s-39.6-17-39.6-38.3S120.3,102.1,142.4,102.1
		L142.4,102.1z"/>
	<path class="st119" d="M142.4,102.9c21.6,0,39.2,17,39.2,37.9s-17.6,37.9-39.2,37.9s-39.2-17-39.2-37.9S120.7,102.9,142.4,102.9
		L142.4,102.9z"/>
	<path class="st120" d="M142.4,103.3c21.2,0,38.3,16.6,38.3,37.1s-17.1,37.1-38.3,37.1s-38.3-16.6-38.3-37.1
		C104,120.3,121.1,103.3,142.4,103.3L142.4,103.3z"/>
	<path class="st121" d="M142.4,104.1c20.8,0,37.9,16.2,37.9,36.7c0,20.1-16.7,36.7-37.9,36.7c-20.8,0-37.9-16.2-37.9-36.7
		C104.4,120.3,121.6,104.1,142.4,104.1L142.4,104.1z"/>
	<path class="st122" d="M142.4,104.9c20.4,0,37.1,16.2,37.1,35.9s-16.8,35.9-37.1,35.9s-37.1-16.2-37.1-35.9
		C105.2,120.7,121.6,104.9,142.4,104.9L142.4,104.9z"/>
	<path class="st123" d="M142.4,105.3c20,0,36.3,15.8,36.3,35.1s-16.4,35.1-36.3,35.1s-36.3-15.8-36.3-35.1
		C105.6,121.1,122,105.3,142.4,105.3L142.4,105.3z"/>
	<path class="st124" d="M142.4,106.1c20,0,35.9,15.4,35.9,34.7s-16,34.7-35.9,34.7s-35.9-15.4-35.9-34.7
		C106.5,121.5,122.4,106.1,142.4,106.1L142.4,106.1z"/>
	<path class="st125" d="M142.4,106.5c19.6,0,35.1,15.4,35.1,33.9c0,18.9-15.9,33.9-35.1,33.9s-35.1-15.4-35.1-33.9
		C106.9,121.9,122.8,106.5,142.4,106.5L142.4,106.5z"/>
	<path class="st126" d="M142.4,107.3c19.2,0,34.7,15,34.7,33.5s-15.6,33.5-34.7,33.5s-34.7-15-34.7-33.5S123.2,107.3,142.4,107.3
		L142.4,107.3z"/>
	<path class="st127" d="M142.4,107.7c18.8,0,33.9,14.6,33.9,32.7s-15.1,32.7-33.9,32.7s-33.9-14.6-33.9-32.7
		C108.1,122.3,123.6,107.7,142.4,107.7L142.4,107.7z"/>
	<path class="st128" d="M142.4,108.5c18.4,0,33.4,14.6,33.4,32.3s-15.1,32.3-33.4,32.3S109,158.5,109,140.8
		C108.9,122.7,123.6,108.5,142.4,108.5L142.4,108.5z"/>
	<path class="st129" d="M142.4,108.9c17.9,0,32.6,14.2,32.6,31.6S160.3,172,142.4,172s-32.7-14.2-32.7-31.6
		C109.3,123.1,124,108.9,142.4,108.9L142.4,108.9z"/>
	<path class="st130" d="M142.4,109.6c17.5,0,32.2,13.8,32.2,31.2c0,17-14.3,31.2-32.2,31.2c-17.5,0-32.2-13.8-32.2-31.2
		C110.1,123.4,124.4,109.6,142.4,109.6L142.4,109.6z"/>
	<path class="st131" d="M142.4,110c17.5,0,31.4,13.8,31.4,30.4c0,17-14.3,30.4-31.4,30.4s-31.5-13.8-31.5-30.4
		C110.5,123.8,124.8,110,142.4,110L142.4,110z"/>
	<path class="st132" d="M142.4,110.8c17.1,0,31,13.4,31,30s-13.9,30-31,30s-31-13.4-31-30S125.2,110.8,142.4,110.8L142.4,110.8z"/>
	<path class="st133" d="M142.4,111.2c16.7,0,30.2,13,30.2,29.2s-13.5,29.2-30.2,29.2s-30.2-13-30.2-29.2
		C112.2,124.6,125.6,111.2,142.4,111.2L142.4,111.2z"/>
	<path class="st134" d="M142.4,112c16.3,0,29.3,12.6,29.3,28.4c0,15.8-13,28.4-29.3,28.4S113,156.2,113,140.4
		C112.6,124.6,126,112,142.4,112L142.4,112z"/>
	<path class="st135" d="M142.4,112.8c15.9,0,29,12.6,29,28s-13.1,28-29,28s-29-12.6-29-28C113.4,125,126,112.8,142.4,112.8
		L142.4,112.8z"/>
	<path class="st136" d="M142.4,113.2c15.5,0,28.1,12.2,28.1,27.2s-12.6,27.2-28.1,27.2s-28.1-12.2-28.1-27.2
		C113.8,125.4,126.4,113.2,142.4,113.2L142.4,113.2z"/>
	<path class="st137" d="M142.4,114c15.1,0,27.7,11.8,27.7,26.8c0,14.6-12.2,26.8-27.7,26.8c-15.1,0-27.7-11.8-27.7-26.8
		C114.6,125.8,126.9,114,142.4,114L142.4,114z"/>
	<path class="st138" d="M142.4,114.4c15.1,0,26.9,11.8,26.9,26c0,14.6-12.2,26-26.9,26c-15.1,0-26.9-11.8-26.9-26
		C115,126.2,127.3,114.4,142.4,114.4L142.4,114.4z"/>
	<path class="st139" d="M142.4,115.2c14.7,0,26.5,11.4,26.5,25.6c0,14.2-11.8,25.6-26.5,25.6s-26.6-11.4-26.6-25.6
		S127.7,115.2,142.4,115.2L142.4,115.2z"/>
	<path class="st140" d="M142.4,115.6c14.3,0,25.7,11,25.7,24.8s-11.4,24.8-25.7,24.8s-25.7-11-25.7-24.8
		C116.2,127,128.1,115.6,142.4,115.6L142.4,115.6z"/>
	<path class="st141" d="M142.4,116.3c13.9,0,25.3,11,25.3,24.5c0,13.4-11.4,24.5-25.3,24.5c-13.9,0-25.3-11-25.3-24.5
		C117.1,127,128.5,116.3,142.4,116.3L142.4,116.3z"/>
	<path class="st142" d="M142.4,116.7c13.5,0,24.5,10.6,24.5,23.7s-11,23.7-24.5,23.7s-24.5-10.6-24.5-23.7
		C117.5,127.4,128.5,116.7,142.4,116.7L142.4,116.7z"/>
	<path class="st143" d="M142.4,117.5c13.1,0,24.1,10.3,24.1,23.3c0,12.6-10.6,23.3-24.1,23.3c-13.1,0-24.1-10.3-24.1-23.3
		S128.9,117.5,142.4,117.5L142.4,117.5z"/>
	<path class="st144" d="M142.4,117.9c13.1,0,23.2,10.3,23.2,22.5c0,12.6-10.6,22.5-23.2,22.5c-13.1,0-23.2-10.3-23.2-22.5
		C119.1,128.2,129.3,117.9,142.4,117.9L142.4,117.9z"/>
	<path class="st145" d="M142.4,118.7c12.6,0,22.8,9.9,22.8,22.1s-10.2,22.1-22.8,22.1s-22.8-9.9-22.8-22.1S129.7,118.7,142.4,118.7
		L142.4,118.7z"/>
	<path class="st146" d="M142.4,119.1c12.2,0,22,9.5,22,21.3c0,11.8-9.8,21.3-22,21.3s-22-9.5-22-21.3
		C120.3,129,130.1,119.1,142.4,119.1L142.4,119.1z"/>
	<path class="st147" d="M142.4,119.9c11.8,0,21.2,9.5,21.2,20.5c0,11.4-9.8,20.5-21.2,20.5c-11.8,0-21.2-9.5-21.2-20.5
		C120.7,129,130.5,119.9,142.4,119.9L142.4,119.9z"/>
	<path class="st148" d="M142.4,120.7c11.4,0,20.8,9.1,20.8,20.1s-9.4,20.1-20.8,20.1c-11.4,0-20.8-9.1-20.8-20.1
		C121.6,129.4,130.5,120.7,142.4,120.7L142.4,120.7z"/>
	<path class="st149" d="M142.4,121.1c11,0,20,8.7,20,19.3c0,10.6-9,19.3-20,19.3s-20-8.7-20-19.3C122,129.8,130.9,121.1,142.4,121.1
		L142.4,121.1z"/>
	<path class="st150" d="M142.4,121.9c10.6,0,19.6,8.3,19.6,18.9c0,10.3-8.6,18.9-19.6,18.9c-10.6,0-19.6-8.3-19.6-18.9
		C122.8,130.1,131.3,121.9,142.4,121.9L142.4,121.9z"/>
	<path class="st151" d="M142.4,122.3c10.6,0,18.8,8.3,18.8,18.1c0,10.3-8.6,18.1-18.8,18.1c-10.6,0-18.8-8.3-18.8-18.1
		C123.2,130.5,131.7,122.3,142.4,122.3L142.4,122.3z"/>
	<path class="st152" d="M142.4,123.1c10.2,0,18.4,7.9,18.4,17.7s-8.2,17.7-18.4,17.7s-18.4-7.9-18.4-17.7S132.2,123.1,142.4,123.1
		L142.4,123.1z"/>
	<path class="st153" d="M142.4,123.4c9.8,0,17.5,7.5,17.5,17s-7.7,17-17.5,17s-17.5-7.5-17.5-17S132.6,123.4,142.4,123.4
		L142.4,123.4z"/>
	<path class="st154" d="M142.4,124.2c9.4,0,17.1,7.5,17.1,16.6s-7.7,16.6-17.1,16.6s-17.1-7.5-17.1-16.6S133,124.2,142.4,124.2
		L142.4,124.2z"/>
	<path class="st155" d="M142.4,124.6c9,0,16.3,7.1,16.3,15.8c0,8.7-7.3,15.8-16.3,15.8s-16.3-7.1-16.3-15.8
		C125.6,131.7,133,124.6,142.4,124.6L142.4,124.6z"/>
	<path class="st156" d="M142.4,125.4c8.6,0,15.9,6.7,15.9,15.4c0,8.3-6.9,15.4-15.9,15.4c-8.6,0-15.9-6.7-15.9-15.4
		C126.4,132.1,133.4,125.4,142.4,125.4L142.4,125.4z"/>
	<path class="st157" d="M142.4,125.8c8.2,0,15.1,6.7,15.1,14.6c0,7.9-7,14.6-15.1,14.6c-8.2,0-15.1-6.7-15.1-14.6
		C127.3,132.5,133.8,125.8,142.4,125.8L142.4,125.8z"/>
	<path class="st158" d="M142.4,126.6c8.2,0,14.7,6.3,14.7,14.2c0,7.9-6.6,14.2-14.7,14.2c-8.2,0-14.7-6.3-14.7-14.2
		C127.7,132.9,134.2,126.6,142.4,126.6L142.4,126.6z"/>
	<path class="st159" d="M142.4,127c7.7,0,13.9,5.9,13.9,13.4s-6.1,13.4-13.9,13.4s-13.9-5.9-13.9-13.4
		C128.5,133.3,134.6,127,142.4,127L142.4,127z"/>
	<path class="st160" d="M142.4,127.8c7.3,0,13.1,5.9,13.1,12.6c0,7.1-6.1,12.6-13.1,12.6s-13.1-5.9-13.1-12.6
		C128.9,133.7,135,127.8,142.4,127.8L142.4,127.8z"/>
	<path class="st161" d="M142.4,128.6c6.9,0,12.6,5.5,12.6,12.2s-5.7,12.2-12.6,12.2c-6.9,0-12.6-5.5-12.6-12.2
		C129.7,133.7,135.4,128.6,142.4,128.6L142.4,128.6z"/>
	<path class="st162" d="M142.4,129c6.5,0,11.8,5.1,11.8,11.4c0,6.3-5.3,11.4-11.8,11.4s-11.8-5.1-11.8-11.4
		C130.1,134.1,135.4,129,142.4,129L142.4,129z"/>
	<path class="st163" d="M142.4,129.8c6.1,0,11.4,4.7,11.4,11c0,5.9-4.9,11-11.4,11c-6.1,0-11.4-4.7-11.4-11
		C130.9,134.5,135.8,129.8,142.4,129.8L142.4,129.8z"/>
	<path class="st164" d="M142.4,130.1c6.1,0,10.6,4.7,10.6,10.3c0,5.9-4.9,10.3-10.6,10.3c-6.1,0-10.6-4.7-10.6-10.3
		C131.3,134.9,136.2,130.1,142.4,130.1L142.4,130.1z"/>
	<path class="st165" d="M142.4,130.9c5.7,0,10.2,4.3,10.2,9.9s-4.5,9.9-10.2,9.9s-10.2-4.3-10.2-9.9S136.6,130.9,142.4,130.9
		L142.4,130.9z"/>
	<path class="st166" d="M142.4,131.3c5.3,0,9.4,3.9,9.4,9.1c0,5.2-4.1,9.1-9.4,9.1s-9.4-3.9-9.4-9.1
		C133,135.2,137,131.3,142.4,131.3L142.4,131.3z"/>
	<path class="st167" d="M142.4,132.1c4.9,0,9,3.9,9,8.7s-4.1,8.7-9,8.7s-9-3.9-9-8.7S137.5,132.1,142.4,132.1L142.4,132.1z"/>
	<path class="st168" d="M142.4,132.5c4.5,0,8.2,3.5,8.2,7.9c0,4.4-3.7,7.9-8.2,7.9s-8.2-3.5-8.2-7.9
		C133.8,136.1,137.5,132.5,142.4,132.5L142.4,132.5z"/>
	<path class="st169" d="M142.4,133.3c4.1,0,7.7,3.2,7.7,7.5c0,3.9-3.3,7.5-7.7,7.5c-4.1,0-7.7-3.2-7.7-7.5S137.9,133.3,142.4,133.3
		L142.4,133.3z"/>
	<path class="st170" d="M142.4,133.7c3.7,0,6.9,3.2,6.9,6.7s-3.3,6.7-6.9,6.7c-3.7,0-6.9-3.2-6.9-6.7S138.3,133.7,142.4,133.7
		L142.4,133.7z"/>
	<path class="st171" d="M142.4,134.5c3.7,0,6.5,2.8,6.5,6.3s-2.9,6.3-6.5,6.3s-6.5-2.8-6.5-6.3C135.8,137.2,138.7,134.5,142.4,134.5
		L142.4,134.5z"/>
	<path class="st172" d="M142.4,134.9c3.3,0,5.7,2.4,5.7,5.5c0,3.2-2.4,5.5-5.7,5.5s-5.7-2.4-5.7-5.5
		C136.6,137.6,139.1,134.9,142.4,134.9L142.4,134.9z"/>
	<path class="st173" d="M142.4,135.7c2.9,0,4.9,2.4,4.9,4.7c0,2.8-2.4,4.7-4.9,4.7s-4.9-2.4-4.9-4.7
		C137,138,139.5,135.7,142.4,135.7L142.4,135.7z"/>
	<path class="st174" d="M142.4,136.5c2.4,0,4.5,2,4.5,4.3s-2,4.3-4.5,4.3s-4.5-2-4.5-4.3C137.9,138,139.9,136.5,142.4,136.5
		L142.4,136.5z"/>
	<path class="st175" d="M142.4,136.9c2,0,3.7,1.6,3.7,3.5c0,1.9-1.6,3.5-3.7,3.5s-3.7-1.6-3.7-3.5
		C138.3,138.4,139.9,136.9,142.4,136.9L142.4,136.9z"/>
	<path class="st176" d="M142.4,137.6c1.6,0,3.3,1.6,3.3,3.2c0,1.6-1.6,3.2-3.3,3.2s-3.3-1.6-3.3-3.2
		C139.1,138.8,140.3,137.6,142.4,137.6L142.4,137.6z"/>
	<path class="st177" d="M142.4,138c1.2,0,2.4,1.2,2.4,2.4c0,1.2-1.2,2.4-2.4,2.4s-2.4-1.2-2.4-2.4C139.5,139.2,140.7,138,142.4,138
		L142.4,138z"/>
	<path class="st177" d="M141.1,265c2-29.2,2.4-28,17.9-50.1c5.3-7.9,8.6-16.6,7.7-28.8c-1.2-13.8-9-12.2-19.6-15.8
		c1.6-4.3,7.3-4.3,12.6-11.4c4.5-5.9,6.9-9.5,17.1-9.5c17.1,0,20,14.2,25.3,26.8c7.3,17.7,29,54,57.9,39
		c18.8-8.7,23.2-28.4,23.2-46.1c0-56.4-47.3-102.1-105.6-102.1S72.2,112.8,72.2,169.2C71.8,213.4,100.7,250.8,141.1,265L141.1,265z"
		/>
</g>
</svg>
