<svg width="283.5" height="283.5" xmlns="http://www.w3.org/2000/svg" xmlns:svg="http://www.w3.org/2000/svg">
    <style type="text/css">.st0{fill-rule:evenodd;clip-rule:evenodd;fill:#DDC153;}</style>
    <g>
        <title>Layer 1</title>
        <g stroke="null" id="svg_1">
            <path stroke="null" id="svg_2" d="m250.131436,185.755943l2.36675,-0.21958c0.102902,0.878322 0.411609,1.427273 0.823217,1.866434c0.411609,0.439161 1.029022,0.548951 1.749337,0.548951c0.823217,0 1.337728,-0.21958 1.749337,-0.548951c0.411609,-0.329371 0.617413,-0.768531 0.617413,-1.207692c0,-0.329371 -0.102902,-0.548951 -0.205804,-0.768531c-0.205804,-0.21958 -0.411609,-0.439161 -0.823217,-0.548951c-0.308706,-0.10979 -0.926119,-0.329371 -1.955141,-0.548951c-1.337728,-0.329371 -2.160945,-0.768531 -2.778358,-1.317482c-0.720315,-0.658741 -1.131924,-1.537063 -1.131924,-2.525175c0,-0.658741 0.205804,-1.207692 0.514511,-1.866434c0.308706,-0.548951 0.823217,-0.988112 1.543532,-1.317482c0.617413,-0.329371 1.44063,-0.439161 2.36675,-0.439161c1.543532,0 2.675456,0.329371 3.395771,1.097902c0.720315,0.658741 1.131924,1.646853 1.234826,2.854545l-2.469652,0.10979c-0.102902,-0.658741 -0.308706,-1.097902 -0.617413,-1.427273c-0.308706,-0.329371 -0.823217,-0.439161 -1.543532,-0.439161c-0.720315,0 -1.234826,0.10979 -1.646435,0.439161c-0.205804,0.21958 -0.411609,0.439161 -0.411609,0.768531c0,0.329371 0.102902,0.548951 0.411609,0.768531c0.308706,0.21958 1.029022,0.548951 2.263847,0.878322c1.131924,0.329371 2.058043,0.658741 2.572554,0.878322c0.514511,0.329371 1.029022,0.768531 1.337728,1.317482c0.308706,0.548951 0.514511,1.207692 0.514511,2.086014c0,0.768531 -0.205804,1.427273 -0.617413,2.086014c-0.411609,0.658741 -0.926119,1.097902 -1.646435,1.427273c-0.720315,0.329371 -1.543532,0.439161 -2.572554,0.439161c-1.543532,0 -2.675456,-0.329371 -3.498673,-1.097902c-0.926119,-0.768531 -1.44063,-1.866434 -1.543532,-3.293706l0,0zm-17.287562,4.062238l0,-10.64965l-3.601576,0l0,-2.195804l9.569901,0l0,2.195804l-3.601576,0l0,10.64965l-2.36675,0l0,0zm-22.741377,-7.355944l1.749337,0c1.131924,0 1.852239,0 2.160945,-0.10979c0.308706,-0.10979 0.514511,-0.329371 0.720315,-0.548951c0.205804,-0.21958 0.205804,-0.548951 0.205804,-0.988112c0,-0.439161 -0.102902,-0.768531 -0.308706,-1.097902c-0.205804,-0.21958 -0.514511,-0.439161 -0.926119,-0.548951c-0.205804,0 -0.823217,0 -1.749337,0l-1.852239,0l0,3.293706l0,0zm-2.36675,7.355944l0,-12.845454l5.145108,0c1.234826,0 2.263847,0.10979 2.778358,0.329371c0.617413,0.21958 1.029022,0.658741 1.44063,1.207692c0.308706,0.548951 0.514511,1.207692 0.514511,1.976224c0,0.988112 -0.308706,1.756643 -0.823217,2.415385c-0.514511,0.658741 -1.337728,0.988112 -2.36675,1.207692c0.514511,0.329371 0.926119,0.658741 1.337728,1.097902c0.308706,0.439161 0.823217,1.097902 1.337728,2.086014l1.44063,2.525175l-2.88126,0l-1.749337,-2.744755c-0.617413,-0.988112 -1.029022,-1.646853 -1.234826,-1.866434c-0.205804,-0.21958 -0.514511,-0.439161 -0.720315,-0.548951c-0.205804,-0.10979 -0.617413,-0.10979 -1.234826,-0.10979l-0.514511,0l0,5.37972l-2.469652,0l0,-0.10979zm-16.155639,-5.05035l-1.646435,-4.720979l-1.646435,4.720979l3.292869,0l0,0zm4.527695,5.05035l-2.675456,0l-1.029022,-2.964336l-4.836401,0l-1.029022,2.964336l-2.572554,0l4.630597,-12.845454l2.572554,0l4.939304,12.845454l0,0zm-28.709702,-10.53986l0,3.623077l1.337728,0c0.926119,0 1.646435,-0.10979 1.955141,-0.21958c0.308706,-0.10979 0.617413,-0.329371 0.720315,-0.658741c0.205804,-0.329371 0.308706,-0.658741 0.308706,-0.988112c0,-0.439161 -0.102902,-0.878322 -0.411609,-1.207692c-0.205804,-0.329371 -0.617413,-0.439161 -0.926119,-0.548951c-0.308706,-0.10979 -0.823217,-0.10979 -1.749337,-0.10979l-1.234826,0l0,0.10979zm-2.469652,10.53986l0,-12.845454l3.910282,0c1.44063,0 2.469652,0.10979 2.88126,0.21958c0.720315,0.21958 1.234826,0.658741 1.749337,1.207692c0.514511,0.658741 0.720315,1.427273 0.720315,2.525175c0,0.768531 -0.102902,1.427273 -0.411609,1.976224c-0.308706,0.548951 -0.617413,0.988112 -1.029022,1.317482c-0.411609,0.329371 -0.823217,0.548951 -1.234826,0.658741c-0.617413,0.10979 -1.44063,0.21958 -2.469652,0.21958l-1.543532,0l0,4.830769l-2.572554,0l0,-0.10979zm-32.92869,-7.355944l1.749337,0c1.131924,0 1.852239,0 2.160945,-0.10979c0.308706,-0.10979 0.514511,-0.329371 0.720315,-0.548951c0.205804,-0.21958 0.205804,-0.548951 0.205804,-0.988112c0,-0.439161 -0.102902,-0.768531 -0.308706,-1.097902c-0.205804,-0.21958 -0.514511,-0.439161 -0.926119,-0.548951c-0.205804,0 -0.823217,0 -1.749337,0l-1.852239,0l0,3.293706l0,0zm-2.469652,7.355944l0,-12.845454l5.145108,0c1.234826,0 2.263847,0.10979 2.778358,0.329371c0.617413,0.21958 1.029022,0.658741 1.44063,1.207692c0.308706,0.548951 0.514511,1.207692 0.514511,1.976224c0,0.988112 -0.308706,1.756643 -0.823217,2.415385c-0.514511,0.658741 -1.337728,0.988112 -2.36675,1.207692c0.514511,0.329371 0.926119,0.658741 1.337728,1.097902c0.308706,0.439161 0.823217,1.097902 1.337728,2.086014l1.44063,2.525175l-2.88126,0l-1.749337,-2.744755c-0.617413,-0.988112 -1.029022,-1.646853 -1.234826,-1.866434c-0.205804,-0.21958 -0.514511,-0.439161 -0.720315,-0.548951c-0.308706,-0.10979 -0.617413,-0.10979 -1.234826,-0.10979l-0.514511,0l0,5.37972l-2.469652,0l0,-0.10979zm-21.506551,0l0,-12.845454l8.849586,0l0,2.195804l-6.482836,0l0,2.854545l6.071227,0l0,2.195804l-6.071227,0l0,3.513287l6.68864,0l0,2.195804l-9.05539,0l0,-0.10979zm-19.963019,-5.48951l0,3.403496l2.263847,0c0.823217,0 1.44063,0 1.646435,-0.10979c0.308706,-0.10979 0.617413,-0.21958 0.926119,-0.548951c0.205804,-0.21958 0.308706,-0.658741 0.308706,-1.097902c0,-0.439161 -0.102902,-0.658741 -0.308706,-0.988112c-0.205804,-0.21958 -0.411609,-0.439161 -0.720315,-0.548951c-0.308706,-0.10979 -1.029022,-0.21958 -2.160945,-0.21958l-1.955141,0l0,0.10979zm0,-5.16014l0,2.964336l1.543532,0c0.926119,0 1.543532,0 1.749337,0c0.411609,0 0.720315,-0.21958 1.029022,-0.439161c0.205804,-0.21958 0.308706,-0.548951 0.308706,-0.988112c0,-0.439161 -0.102902,-0.768531 -0.308706,-0.988112c-0.205804,-0.21958 -0.514511,-0.439161 -0.926119,-0.439161c-0.205804,0 -0.926119,0 -2.058043,0l-1.337728,0l0,-0.10979zm-2.469652,-2.086014l4.836401,0c0.926119,0 1.646435,0 2.160945,0.10979c0.514511,0.10979 0.926119,0.21958 1.234826,0.548951c0.411609,0.21958 0.720315,0.658741 0.926119,1.097902c0.205804,0.439161 0.411609,0.988112 0.411609,1.537063c0,0.548951 -0.102902,1.097902 -0.411609,1.646853c-0.308706,0.548951 -0.720315,0.878322 -1.234826,1.097902c0.720315,0.21958 1.337728,0.658741 1.646435,1.207692c0.411609,0.548951 0.617413,1.207692 0.617413,1.976224c0,0.548951 -0.102902,1.097902 -0.411609,1.646853c-0.205804,0.548951 -0.617413,0.988112 -1.029022,1.317482c-0.411609,0.329371 -1.029022,0.548951 -1.646435,0.658741c-0.411609,0 -1.337728,0.10979 -2.88126,0.10979l-4.116086,0l0,-12.955244l-0.102902,0zm-19.963019,7.246154l0,3.403496l2.263847,0c0.823217,0 1.44063,0 1.646435,-0.10979c0.411609,-0.10979 0.617413,-0.21958 0.926119,-0.548951c0.205804,-0.21958 0.308706,-0.658741 0.308706,-1.097902c0,-0.439161 -0.102902,-0.658741 -0.308706,-0.988112c-0.205804,-0.21958 -0.411609,-0.439161 -0.720315,-0.548951c-0.308706,-0.10979 -1.029022,-0.21958 -2.160945,-0.21958l-1.955141,0l0,0.10979zm0,-5.16014l0,2.964336l1.543532,0c0.926119,0 1.543532,0 1.749337,0c0.411609,0 0.720315,-0.21958 1.029022,-0.439161c0.205804,-0.21958 0.308706,-0.548951 0.308706,-0.988112c0,-0.439161 -0.102902,-0.768531 -0.308706,-0.988112c-0.205804,-0.21958 -0.514511,-0.439161 -0.926119,-0.439161c-0.205804,0 -0.926119,0 -2.058043,0l-1.337728,0l0,-0.10979zm-2.469652,-2.086014l4.836401,0c0.926119,0 1.646435,0 2.160945,0.10979c0.514511,0.10979 0.926119,0.21958 1.234826,0.548951c0.411609,0.21958 0.720315,0.658741 0.926119,1.097902c0.205804,0.439161 0.411609,0.988112 0.411609,1.537063c0,0.548951 -0.102902,1.097902 -0.411609,1.646853c-0.308706,0.548951 -0.720315,0.878322 -1.234826,1.097902c0.720315,0.21958 1.337728,0.658741 1.646435,1.207692c0.411609,0.548951 0.617413,1.207692 0.617413,1.976224c0,0.548951 -0.102902,1.097902 -0.411609,1.646853c-0.205804,0.548951 -0.617413,0.988112 -1.029022,1.317482c-0.411609,0.329371 -1.029022,0.548951 -1.646435,0.658741c-0.411609,0 -1.337728,0.10979 -2.88126,0.10979l-4.116086,0l0,-12.955244l-0.102902,0zm-22.43267,0l2.469652,0l0,6.916783c0,1.097902 0,1.866434 0.102902,2.086014c0.102902,0.548951 0.308706,0.988112 0.720315,1.207692c0.411609,0.329371 0.926119,0.439161 1.646435,0.439161c0.720315,0 1.234826,-0.10979 1.543532,-0.439161c0.308706,-0.329371 0.514511,-0.658741 0.617413,-1.097902c0.102902,-0.439161 0.102902,-1.207692 0.102902,-2.195804l0,-7.136363l2.469652,0l0,6.697203c0,1.537063 -0.102902,2.634965 -0.205804,3.293706c-0.102902,0.658741 -0.411609,1.207692 -0.720315,1.646853c-0.308706,0.439161 -0.823217,0.768531 -1.44063,1.097902c-0.617413,0.21958 -1.337728,0.439161 -2.263847,0.439161c-1.131924,0 -2.058043,-0.10979 -2.572554,-0.439161c-0.617413,-0.329371 -1.029022,-0.658741 -1.44063,-1.097902c-0.308706,-0.439161 -0.617413,-0.878322 -0.720315,-1.427273c-0.205804,-0.768531 -0.205804,-1.866434 -0.205804,-3.293706l0,-6.697203l-0.102902,0zm-20.065921,5.37972l1.749337,0c1.131924,0 1.852239,0 2.160945,-0.10979c0.308706,-0.10979 0.514511,-0.329371 0.720315,-0.548951c0.205804,-0.21958 0.205804,-0.548951 0.205804,-0.988112c0,-0.439161 -0.102902,-0.768531 -0.308706,-1.097902c-0.205804,-0.21958 -0.514511,-0.439161 -0.926119,-0.548951c-0.205804,0 -0.823217,0 -1.749337,0l-1.852239,0l0,3.293706l0,0zm-2.36675,7.355944l0,-12.845454l5.145108,0c1.234826,0 2.263847,0.10979 2.778358,0.329371c0.617413,0.21958 1.029022,0.658741 1.44063,1.207692c0.308706,0.548951 0.514511,1.207692 0.514511,1.976224c0,0.988112 -0.308706,1.756643 -0.823217,2.415385c-0.514511,0.658741 -1.337728,0.988112 -2.36675,1.207692c0.514511,0.329371 0.926119,0.658741 1.337728,1.097902c0.308706,0.439161 0.823217,1.097902 1.337728,2.086014l1.44063,2.525175l-2.88126,0l-1.749337,-2.744755c-0.617413,-0.988112 -1.029022,-1.646853 -1.234826,-1.866434c-0.205804,-0.21958 -0.514511,-0.439161 -0.720315,-0.548951c-0.205804,-0.10979 -0.617413,-0.10979 -1.234826,-0.10979l-0.514511,0l0,5.37972l-2.469652,0l0,-0.10979zm108.870483,-63.019579l-70.076369,0l0,7.904895l0,4.172028l0,8.234266l0,9.112587l0,9.112587l0,1.427273l-1.337728,0l-11.627944,0l-1.337728,0l0,-1.427273l0,-48.307691l0,-1.427273l1.337728,0l88.392953,0c2.058043,0 3.910282,0.21958 5.556717,0.548951c1.646435,0.439161 3.087065,0.988112 4.218988,1.866434c1.131924,0.878322 1.955141,1.976224 2.469652,3.513287c0.514511,1.427273 0.720315,2.964336 0.720315,4.830769l0,11.308391c0,1.756643 -0.205804,3.403496 -0.720315,4.720979c-0.514511,1.427273 -1.337728,2.525175 -2.36675,3.403496c-1.029022,0.878322 -2.469652,1.537063 -4.116086,1.976224c-1.646435,0.439161 -3.498673,0.548951 -5.659619,0.548951l-18.522388,0l29.018408,15.590209l4.939304,2.634965l-5.556717,0l-17.081758,0l-0.308706,0l-0.308706,-0.10979l-35.809951,-18.225174l-0.720315,-0.329371l0,-0.878322l0,-8.234266l0,-1.427273l1.337728,0l37.559288,0c1.029022,0 1.749337,-0.10979 2.36675,-0.21958c0.514511,-0.10979 0.926119,-0.21958 1.131924,-0.439161c0.205804,-0.10979 0.308706,-0.329371 0.411609,-0.548951l0,0c0.102902,-0.329371 0.205804,-0.768531 0.205804,-1.317482l0,-5.599301c0,-0.548951 -0.102902,-0.988112 -0.205804,-1.317482c-0.102902,-0.21958 -0.205804,-0.439161 -0.308706,-0.548951c-0.205804,-0.21958 -0.617413,-0.329371 -1.131924,-0.439161c-0.617413,-0.10979 -1.44063,-0.10979 -2.469652,-0.10979l0,0zm-112.163352,38.426572l0,-48.197901l0,-1.427273l1.337728,0l11.93665,0l1.337728,0l0,1.427273l0.102902,48.197901l0,1.427273l-1.337728,0l-12.142455,0l-1.234826,0l0,-1.427273l0,0zm233.587898,-38.206992l-73.575043,0l0,27.776922l73.575043,0l0,-2.525175l0,-1.097902l1.029022,-0.21958l11.93665,-2.854545l1.646435,-0.329371l0,1.756643l0,4.391608c0,2.305594 -0.205804,4.281818 -0.720315,5.928671c-0.514511,1.756643 -1.234826,3.183916 -2.36675,4.172028c-1.029022,0.988112 -2.572554,1.646853 -4.424793,2.086014c-1.749337,0.439161 -4.013184,0.658741 -6.585738,0.658741l-74.604064,0c-2.572554,0 -4.733499,-0.21958 -6.482836,-0.658741c-1.955141,-0.439161 -3.395771,-1.097902 -4.424793,-2.086014c-1.029022,-0.988112 -1.852239,-2.415385 -2.36675,-4.172028c-0.411609,-1.646853 -0.720315,-3.623077 -0.720315,-5.928671l0,-25.471328c0,-2.305594 0.205804,-4.281818 0.720315,-5.928671c0.514511,-1.756643 1.234826,-3.074126 2.36675,-4.062238c1.029022,-0.988112 2.572554,-1.646853 4.424793,-2.195804c1.749337,-0.439161 4.013184,-0.658741 6.482836,-0.658741l74.604064,0c2.572554,0 4.733499,0.21958 6.482836,0.658741c1.852239,0.439161 3.395771,1.207692 4.424793,2.195804c1.029022,0.988112 1.852239,2.305594 2.36675,4.062238c0.514511,1.646853 0.720315,3.623077 0.720315,5.928671l0,1.097902l-1.029022,0.21958l-11.93665,2.744755l-1.543532,0.329371l0,-1.756643l0,-4.062238l0,0zm-233.587898,45.782516l248.200004,0l0,21.2993l-248.200004,0l0,-21.2993l0,0z" class="st0"/>
        </g>
    </g>
</svg>