<?xml version="1.0" encoding="UTF-8"?>
<!DOCTYPE svg PUBLIC "-//W3C//DTD SVG 1.1//EN" "http://www.w3.org/Graphics/SVG/1.1/DTD/svg11.dtd">
<!-- Creator: CorelDRAW X6 -->
<svg xmlns="http://www.w3.org/2000/svg" xml:space="preserve" width="1312.99mm" height="232.792mm" version="1.1" style="shape-rendering:geometricPrecision; text-rendering:geometricPrecision; image-rendering:optimizeQuality; fill-rule:evenodd; clip-rule:evenodd"
viewBox="0 0 2644159 468807"
 xmlns:xlink="http://www.w3.org/1999/xlink">
 <defs>
  <style type="text/css">
   <![CDATA[
    .fil0 {fill:#011F4F}
   ]]>
  </style>
 </defs>
 <g id="Слой_x0020_1">
  <metadata id="CorelCorpID_0Corel-Layer"/>
  <path class="fil0" d="M2509518 297051l-58388 0 -108656 0 0 -98105 108656 0 58388 0c61921,0 60783,98105 0,98105zm133193 92338l0 0c-2353,-32734 -21025,-49073 -47930,-57271 28012,-19850 43265,-40875 43265,-84104 0,-84099 -38558,-120309 -121504,-120309l-65412 0 -192796 0 0 339943 85330 0 0 -99320c35015,0 72363,-1159 107467,-1159l38522 0c15165,1159 46720,1159 58409,14022 12956,14006 10515,56076 10515,73594l0 12863 85294 0 0 -12863c0,-21030 1159,-44372 -1159,-65396zm-783961 -261700l0 339923 174037 0 173018 0 0 -66570 -173018 0 -89933 0 0 -73589 89933 0 164800 0 0 -63100 -164800 0 -89933 0 0 -68898 89933 0 173018 0 0 -67765 -173018 0 -174037 0zm-144882 269840l-8213 0 -124959 -164712 -79490 -105129 -139037 0 0 339923 85278 0 0 -268666 8213 0 125036 167065 77101 101601 141442 0 0 -339923 -85371 0 0 269840zm-494352 0l-8162 0 -125016 -164712 -80613 -105129 -137806 0 0 339923 84104 0 0 -268666 8162 0 126153 167065 75942 101601 141375 0 0 -339923 -84140 0 0 269840zm-499954 -11668c-4665,4629 -11653,8162 -19866,9372 -10494,2297 -22168,3455 -31555,3455 -33857,1195 -68908,-1159 -103918,-1159 -8198,0 -16375,0 -23378,-1138 -26906,-3527 -37363,-16411 -37363,-53738 0,-30386 -1159,-63100 1122,-93460 0,-11673 2384,-30381 10510,-38579 5881,-5824 16375,-8177 25731,-10479 7003,0 12848,-1190 17534,-1190 36205,-2333 74732,0 110973,0 12827,0 22204,0 30345,2348 29207,6987 31576,29228 31576,70062 0,23383 1154,47899 1154,71298 0,14022 -1154,33872 -12863,43208zm70098 -231287l0 0c-19887,-21025 -54897,-24552 -82961,-25690l-7003 -1195c-50196,-2338 -103955,0 -154181,0l-4670 0c-33857,0 -77101,4686 -100458,32734 -17539,20988 -21030,50190 -22168,77096 -1231,37348 1138,75891 1138,113275 0,87631 39737,116818 121488,116818l4670 0c32693,0 65428,1195 99284,1195 15180,0 35031,0 54897,-1195 19866,0 38558,-2332 52580,-5844 56061,-15180 64253,-59552 64253,-110973 0,-40875 1179,-84083 -2348,-124964 -1179,-24536 -5845,-52564 -24521,-71256zm-57193 -87952l0 -66622 -40880 0 -40875 0 0 66622 40875 0 40880 0zm-158872 0l0 -66622 -40860 0 -40891 0 0 66622 40891 0 40860 0zm-371514 221093l3491 -3491 197425 -156535 -127312 0 -70113 60742 -77101 64253 -44351 0 0 -124995 -84120 0 0 339923 84120 0 0 -143656 46720 0 74732 68908 80613 74747 123816 0 -204428 -177544 -3491 -2353z"/>
 </g>
</svg>
