<?xml version="1.0" encoding="UTF-8"?>
<!DOCTYPE svg PUBLIC "-//W3C//DTD SVG 1.1//EN" "http://www.w3.org/Graphics/SVG/1.1/DTD/svg11.dtd">
<!-- Creator: CorelDRAW X8 -->
<svg xmlns="http://www.w3.org/2000/svg" xml:space="preserve" width="42.3332mm" height="42.3332mm" version="1.1" style="shape-rendering:geometricPrecision; text-rendering:geometricPrecision; image-rendering:optimizeQuality; fill-rule:evenodd; clip-rule:evenodd"
viewBox="0 0 4233 4233"
 xmlns:xlink="http://www.w3.org/1999/xlink">
 <defs>
  <style type="text/css">
   <![CDATA[
    .fil1 {fill:#009BC8}
    .fil0 {fill:#FF910A}
   ]]>
  </style>
 </defs>
 <g id="Слой_x0020_1">
  <metadata id="CorelCorpID_0Corel-Layer"/>
  <path class="fil0" d="M2115 349c775,0 1402,240 1402,536 0,295 -627,534 -1402,534 -775,0 -1403,-239 -1403,-534 0,-296 628,-536 1403,-536zm0 272c373,0 675,117 675,264 0,145 -302,264 -675,264 -372,0 -675,-119 -675,-264 0,-147 303,-264 675,-264z"/>
  <path class="fil1" d="M3517 1080c0,7 0,13 0,18 0,296 -627,536 -1402,536 -775,0 -1403,-240 -1403,-536 0,-5 0,-11 2,-18 159,232 726,403 1401,403 676,0 1243,-171 1402,-403zm4 221l0 1909c-44,59 -106,113 -182,163l0 -1914c82,-48 144,-101 182,-158zm-2628 160l0 1914c-75,-49 -136,-103 -181,-162l0 -1908c38,56 100,109 181,156zm328 133l0 1936c-64,-22 -125,-46 -180,-73l0 -1924c55,22 116,43 180,61zm330 72l0 1944 -29 0c-53,-10 -104,-23 -153,-35l0 -1943c58,13 119,24 182,34zm328 36l0 1956c-62,-5 -122,-11 -182,-19l0 -1954c60,8 120,13 182,17zm329 6l0 1958c-31,0 -62,1 -93,1 -30,0 -60,-1 -89,-1l0 -1958c29,0 59,0 89,0 31,0 62,0 93,0zm328 -23l0 1954c-59,8 -120,14 -182,19l0 -1956c62,-4 123,-10 182,-17zm328 -54l0 1944c-58,15 -118,29 -182,40l0 -1949c64,-10 124,-21 182,-35zm329 -100l0 1925c-56,26 -117,50 -182,73l0 -1935c65,-18 126,-40 182,-63zm324 1801c0,5 0,12 0,18 0,295 -627,534 -1402,534 -775,0 -1403,-239 -1403,-534 0,-6 0,-13 2,-18 159,231 726,403 1401,403 676,0 1243,-172 1402,-403z"/>
 </g>
</svg>
