<?xml version="1.0" encoding="UTF-8"?>
<!DOCTYPE svg PUBLIC "-//W3C//DTD SVG 1.1//EN" "http://www.w3.org/Graphics/SVG/1.1/DTD/svg11.dtd">
<!-- Creator: CorelDRAW X8 -->
<svg xmlns="http://www.w3.org/2000/svg" xml:space="preserve" width="14.111mm" height="14.111mm" version="1.1" style="shape-rendering:geometricPrecision; text-rendering:geometricPrecision; image-rendering:optimizeQuality; fill-rule:evenodd; clip-rule:evenodd"
viewBox="0 0 1411 1411"
 xmlns:xlink="http://www.w3.org/1999/xlink">
 <defs>
  <style type="text/css">
   <![CDATA[
    .fil0 {fill:#009BC8}
   ]]>
  </style>
 </defs>
 <g id="Слой_x0020_1">
  <metadata id="CorelCorpID_0Corel-Layer"/>
  <g id="_1929701432592">
   <path class="fil0" d="M874 823c-4,0 -8,3 -9,7 -9,37 -57,76 -159,76 -109,0 -151,-39 -161,-76 -1,-4 -5,-7 -9,-7 -160,4 -274,133 -278,295 0,5 4,9 9,9l877 0c5,0 9,-4 9,-9 -4,-162 -119,-291 -279,-295z"/>
   <path class="fil0" d="M791 298c-2,-1 -3,-1 -5,-2 -11,-3 -22,-6 -34,-8 -15,-3 -31,-4 -46,-4 -18,0 -36,2 -53,5 -104,21 -180,106 -180,284 0,3 0,6 0,9 0,1 0,1 0,2 0,3 0,6 0,9l0 1c0,3 0,6 1,9l0 1c13,116 98,258 198,258 11,0 46,0 58,0 105,0 197,-138 207,-267l0 -1c0,-3 0,-6 0,-10 0,0 0,-1 0,-2 0,-3 0,-6 0,-10 0,-4 0,-7 0,-10 -2,-153 -61,-234 -146,-264z"/>
  </g>
 </g>
</svg>
