<?xml version="1.0" encoding="UTF-8"?>
<!DOCTYPE svg PUBLIC "-//W3C//DTD SVG 1.1//EN" "http://www.w3.org/Graphics/SVG/1.1/DTD/svg11.dtd">
<!-- Creator: CorelDRAW X8 -->
<svg xmlns="http://www.w3.org/2000/svg" xml:space="preserve" width="42.3332mm" height="42.3332mm" version="1.1" style="shape-rendering:geometricPrecision; text-rendering:geometricPrecision; image-rendering:optimizeQuality; fill-rule:evenodd; clip-rule:evenodd"
viewBox="0 0 4233 4233"
 xmlns:xlink="http://www.w3.org/1999/xlink">
 <defs>
  <style type="text/css">
   <![CDATA[
    .fil2 {fill:#009BC8}
    .fil0 {fill:#009BC8;fill-rule:nonzero}
    .fil1 {fill:#FF910A;fill-rule:nonzero}
   ]]>
  </style>
 </defs>
 <g id="Слой_x0020_1">
  <metadata id="CorelCorpID_0Corel-Layer"/>
  <path class="fil0" d="M3261 1947l265 -248c4,-18 6,-34 5,-48 -1,-23 -12,-95 29,-157 32,-47 68,-49 86,-89 15,-32 10,-70 -10,-117l92 -82 14 -83 -32 -84 -19 -28 154 -144 -40 -213 -73 -107 -58 -26 -334 313 20 57 -83 -68 365 -349 0 0 -12 -17 -120 -52 -336 319 -79 -44 322 -315 -65 -28 -4 4 -66 -17 -33 31 10 1 -315 313c-36,-9 -74,-12 -113,-8 -6,0 -13,1 -19,2l-394 368 2 0c278,70 778,459 841,916zm-2381 1511l-86 78 -3 -3c0,-3 -1,-7 -2,-11l-13 10c2,12 -1,23 -9,31 -4,3 -9,6 -15,7 15,3 31,9 47,17 42,21 88,60 128,110 2,2 4,4 6,7 38,49 63,100 73,144 1,3 1,5 2,8 5,21 6,40 5,57l158 -142c-3,-52 -32,-121 -83,-185 -8,-10 -17,-20 -26,-29 -2,1 -3,2 -5,3 -7,3 -12,4 -13,5 -35,7 -58,-15 -90,-46 -20,-19 -42,-41 -73,-61l-1 0zm117 42c-21,-15 -42,-26 -62,-33 13,11 25,23 36,34 23,22 41,39 59,40l0 0 1 0 0 0 0 0 0 0 0 0 1 0 0 0 0 0 0 0 0 0 0 0 0 0 1 0 0 0 0 0 0 0 0 0 0 0 0 0 0 0 0 0 1 0 0 0 0 0 0 0 0 0 0 0 0 0 0 0 0 0 1 0 0 0 0 0 0 0 0 0 0 0 0 0 0 0 0 0 1 0 0 0 0 0 0 0 0 0 0 -1 0 0 0 0 0 0 1 0 0 0 0 0 0 0 0 0 0 0 0 0 0 0 0 0 1 0 0 0 0 0 0 0 0 0 0 0 0 0 0 0 0 0 0 0 0 0 0 0 0 0 0 0 0 0 0 0 0 0 1 0 0 0 0 0 0 0 0 0 0 0 0 0 0 0 0 0 0 0 0 0 0 0 0 0 0 0 0 0 0 0 0 0 0 0 0 0 0 0 0 0 0 0 0 0 0 0 0 0 0 0 0 0 0 0 0 0 0 0 1 0 0 0 0 0 0 0 0 0 0 0 0 0 0 0 0 0 0 0 0 0 0 0 0 0 0 0 0 0 0 0 0 0 0 0 0 0 0 0 0 0 0 0 1 -1 0 0 0 0 0 0 0 0 0 0 0 0 0 0 0 0 0 0 0 0 0 0 0 0 0 0 0 0 0 0 0 0 1 0 0 0 0 0 0 0 0 0 0 0 0 0 0 0 0 0 0 0 0 0 0 0 0 0 1 0 0 0 0 0 0 0 0 0 0 0 0 0 0 0 0 0 0 0 0 0 0 -1 0 0 0 0 1 0 0 0 0 0 0 0 0 0 0 0 0 0 2 -1c4,-2 9,-5 14,-10 8,-9 11,-21 12,-36 0,-19 -5,-40 -12,-59 -8,-18 -18,-34 -28,-44 -4,-3 -8,-6 -12,-6 -1,0 -2,1 -3,1 -4,2 -8,4 -16,3 -27,-2 -41,-33 -53,-59 -2,-5 -4,-10 -7,-15 -4,-8 -9,-15 -15,-23 -24,-29 -61,-51 -97,-63 -35,-11 -69,-13 -90,-3 -2,1 -4,3 -6,4 -3,3 -5,6 -7,9 -2,4 -4,8 -7,13 -2,6 -4,12 -5,17 6,26 25,48 37,67 33,54 80,26 167,83 37,24 60,57 79,84zm-250 -306c3,-3 6,-6 9,-8 45,-37 183,5 227,89 12,23 25,66 50,67 8,1 11,-4 18,-4 38,2 90,120 48,166l-4 6c1,-6 1,-12 2,-18 0,-23 -5,-47 -14,-69 -9,-22 -21,-42 -34,-53 -9,-8 -18,-13 -28,-13 -6,0 -10,1 -14,3 -1,1 -3,1 -4,1 -13,-1 -23,-24 -32,-44 -3,-6 -6,-12 -8,-16 -5,-10 -11,-19 -18,-28 -27,-33 -68,-58 -108,-71 -33,-10 -65,-14 -90,-8zm-307 468c0,0 1,1 1,1l2 -3 -3 2z"/>
  <path class="fil1" d="M396 3281c4,-6 16,-9 26,-7 21,5 34,33 39,44 25,52 69,124 109,168 43,47 80,60 80,92 0,11 -5,27 -16,31 -60,23 -274,-289 -238,-328zm2435 -2620l361 -335 34 8 -19 17 52 5 -341 339 -58 -21 -2 1 -27 -14zm509 173l20 57 -83 -68 365 -349 32 47 -334 313zm-2687 2625c0,2 1,5 2,8 4,13 13,29 27,43l0 0c13,14 29,24 42,28 12,4 23,4 28,-2l1 0c4,-5 5,-13 4,-23l0 0 0 0 0 0 0 0 0 0 -1 0 0 0 0 0 0 0 0 0 0 0 0 0 0 -1 0 0 0 0 0 0 0 0 0 0 0 0 0 0 0 0 0 0 0 0 0 0 0 0 0 -1 0 0 0 0 0 0 0 0 0 0 0 0 0 0 0 0 0 0 0 0 0 0 0 0 0 -1 0 0 0 0 0 0 0 0 0 0 0 0 0 0 0 0 0 0 0 0 0 0 0 -1 0 0 0 0 0 0 0 0 0 0 0 0 -1 0 0 0 0 0 0 0 0 0 0 0 0 -1 0 0 0 0 0 0 0 0 0 0 0 0 0 0 0 0 0 0 0 0c-4,-14 -13,-29 -27,-43l0 -1c-14,-14 -29,-23 -42,-27 -13,-4 -23,-4 -29,2l0 0 0 0 0 0 0 0 0 0 -1 0 0 0 0 1 0 0 0 0 0 0 0 1 0 0 -1 0 0 0 0 0 0 0 0 0 0 1 0 0 0 0 0 0 0 0 0 0 -1 0 0 1 0 0 0 0 0 0 0 0 0 0 0 1 0 0 0 0 0 0 0 0 0 0 0 1 -1 0 0 0 0 0 0 1 0 0 0 0 0 0 0 0 0 0 0 1 0 0 0 0 0 0 0 0 0 1 0 0 0 0 0 0 0 1 -1 0 0 0 0 0 0 1 0 0 0 0 0 0 0 0 0 1 0 0 0 1 0 0 0 0 0 0 0 1 0 0 0 0 0 0 0 0 0 1 0 0 0 0 0 0 0 0 0 1 0 1 0 0 0 0 0 0 0 0 0 1 0 0 0 0 0 0 1 1 0 0 0 0 0 0 0 1 0 0zm106 -76l1 0 1 1 1 0 1 1 1 0 1 1 1 0 1 0 1 1 0 0 1 0 0 0 1 1 1 0 1 0 1 1 1 0 1 0 1 1 1 0 2 0 1 1 1 0 1 0 1 1 1 0 3 1 1 0 1 0 1 1 2 0 1 0 1 0 1 1 2 0 1 0 1 1 2 0 1 0 1 1 1 0 2 1 1 0 2 0 1 1 1 0 2 0 1 1 1 0 2 1 1 0 2 1 1 0 2 0 1 1 2 0 1 1 2 0 1 1 2 0 1 1 2 1 1 0 2 1 1 0 2 1 2 1 1 0 2 1 2 1 1 0 2 1 2 1 1 0 2 1 2 1 1 1 2 1 2 1 2 0 1 1 2 1 2 1 2 1 2 1 1 1 2 1 2 1 2 1 2 1 2 2 2 1 2 1 2 1 2 1 1 2 2 1 2 1 1 1 2 1 1 1 1 1 2 1 1 1 2 1 1 1 2 1 1 1 1 1 2 1 1 1 1 1 2 1 1 1 1 1 2 1 1 1 0 0 1 1 2 1 1 1 1 1 1 1 2 1 1 1 1 1 0 0 1 1 1 1 2 1 1 1 1 1 1 1 0 0 1 1 1 1 1 1 0 0 2 1 1 1 1 1 0 0 1 1 0 0 1 1 0 0 1 1 0 0 1 1 1 1 1 1 1 1 0 0 1 1 0 0 1 1 0 0 1 1 1 1 1 1 1 1 0 0 1 1 0 0 1 1 1 1 1 1 1 1 1 1 1 1 1 1 1 1 1 1 1 1 2 1 1 1 1 1 1 1 1 2 1 1 2 1 1 1 0 0 1 1 0 0 1 1 0 0 1 1 0 0 1 1 0 0 1 1 0 0 2 1 1 1 0 0 1 1 0 0 1 1 0 0 1 1 0 0 1 1 0 0 1 1 0 0 1 1 1 1 0 0 1 1 0 0 1 0 0 0 1 1 0 0 1 1 0 0 1 1 0 0 1 1 0 0 1 0 0 0 1 1 0 0 1 1 0 0 1 0 0 0 1 1 0 0 1 1 0 0 1 0 0 0 1 1 0 0 1 0 0 0 1 1 1 0 0 0 1 1 0 0 1 0 0 0 1 1 0 0 1 0 0 0 1 1 0 0 1 0 0 0 1 0 0 0 1 1 0 0 1 0 0 0 1 0 0 0 1 0 0 0 1 0 0 0 1 1 0 0 1 0 0 0 1 0 0 0 1 0 0 0 1 0 0 0 0 0 1 0 0 0 0 0 0 0 0 0 0 0 0 0 0 0 1 0 0 0 0 0 0 0 0 0 0 0 0 0 0 0 0 0 0 0 1 0 0 0 0 0 0 0 0 0 0 0 0 0 0 0c1,0 2,-1 3,-1l1 0 0 0 0 0 0 0 0 0 0 0 1 0 0 0 0 0 0 0 0 0 0 0 0 0 0 0 0 0 0 0 0 0 0 0 0 0 0 0 0 0 0 0 0 0 1 0 0 0 0 0 0 0 0 0 0 0 0 0 0 0 0 0 0 0 0 0 0 0 0 0 0 0 0 0 0 -1 1 0 0 0 0 0 0 0 0 0 0 0 0 0 0 0 0 0 0 0 0 0 0 0 1 0 0 0 0 0 0 0 0 0 0 0 0 0 0 0 0 0 0 0 0 0 1 0 0 0 0 0 0 0 0 0 0 -1 1 0 0 0 0 0 0 0 0 0 0 0 0 0 0 0 1 0 0 0 0 0 0 0 0 0 0 0 1 -1 0 0 0 0 0 0 0 0 1 0 0 0 0 0 0 0 0 0 0 0 1 0 0 -1 0 0 0 0 0 0 0 0 0 0 0 0 0 0 1 0 0 0 0 0 0 0 0 0 0 0 0 0 0 0 0 -1 1 0 0 0 0 0 0 0 0 0 0 0 0 0 0 0 1 0 0 0 0 0 0 0 0 0 0 -1 0 0 0 0 1 0 0 0 0 0 0 0 1 0 0 -1 0 0 0 0 0 0 0 0 0 0 1 0 0 0 0 0 0 -1 0 0 0 0 0 0 0 0 1 0 0 0 0 0 0 0 0 0 0 -1 1 0 0 0 0 0 0 0 0 0 0 0 0 0 0 0 1 -1 0 0 0 0 0 0 0 0 0 0 0 0 0 0 0 0 1 -1 0 0 0 0 0 0 0 0 1 -1 0 0 0 0 0 0 0 0 0 0 0 0 0 0 0 0 0 0 1 -1 0 0 0 0 0 0 0 0 0 0 1 -1 0 0 0 0 0 0 0 -1 1 0 0 0 0 -1 0 0 0 0 1 -1 0 0 0 0 0 -1 0 0 1 0 0 -1 0 0 0 0 0 0 0 -1 0 0 1 0 0 0 0 -1 0 0 0 0 1 -1 0 0 0 0 0 -1 0 0 0 0 0 0 1 -1 0 0 0 0 0 -1 0 0 0 -1 1 0 0 -1 0 -1 0 0 0 -1 1 0 0 -1 0 0 0 -1 0 0 0 -1 0 0 0 0 1 -1 0 0 0 -1 0 -1 0 0 0 -1 0 0 0 -1 1 -1 0 0 0 -1 0 -1 0 0 0 -1 0 -1 0 0 0 -1 0 -1 0 0 0 -1 0 0 0 -1 0 0 1 -1 0 0 0 0 0 -1 0 -1 0 -1 0 -1 0 -1 0 -1 0 -1 0 -1 0 -1 0 -1 0 -1 -1 -1 0 -1 0 -1 0 -1 0 0 0 -1 0 -1 0 -1 0 -1 0 -1 0 -1 -1 -1 0 0 0 -1 0 -1 0 0 0 -1 0 -1 0 -1 0 0 0 -1 -1 -1 0 0 0 -1 0 -1 0 -1 0 0 -1 -1 0 0 0 -1 0 0 0 -1 0 -1 0 -1 0 0 -1 -1 0 -1 0 -1 0 -1 0 0 -1 -1 0 -1 0 0 0 -1 -1 -1 0 0 0 -1 0 -1 -1 -1 0 -1 0 0 0 -1 0 0 0 -1 -1 -1 0 -1 0 0 0 -1 -1 -1 0 0 0 -1 -1 -1 0 -1 0 0 0 -1 -1 -1 0 0 0 -1 0 -1 -1 -1 0 0 -1 -1 0 -1 0 -1 -1 -1 0 -1 0 0 -1 -1 0 -1 -1 -1 0 -1 0 -1 -1 0 0 -1 -1 -1 0 -1 0 -1 -1 0 0 0 0 -1 -1 -1 0 -1 -1 0 0 -1 -1 -2 0 0 -1 -1 0 -1 -1 -1 0 0 0 -1 -1 -1 0 0 -1 -1 0 -1 -1 0 0 -1 -1 -1 0 0 -1 -1 -1 -1 0 -1 0 0 -1 -1 0 0 -1 -1 0 -1 -1 0 0 -1 -1 0 0 -1 -1 0 0 -1 -1 0 0 -1 -1 0 0 -1 -1 0 0 -1 -1 0 0 -1 0 0 0 0 -1 0 0 0 0 0 0 0 0 -1 0 0 -1 0 0 0 0 0 0 0 0 0 0 0 0 0 0 -1 -1 0 0 0 0 0 0 0 0 0 0 0 0 0 -1 0 0 -1 0 0 0 0 0 0 0 0 0 0 0 0 -1 0 0 0 0 0 0 0 0 0 0 -1 0 0 -1 0 0 0 0 0 0 0 0 0 0 0 0 0 0 0 0 0 -1 0 0 0 0 0 0 0 0 0 0 -1 0 0 0 0 0 0 0 0 -1 0 0 0 0 0 0 0 0 0 0 0 0 0 0 0 0 0 -1 0 0 0 0 0 0 0 0 0 0 0 0 0 -1 -1 0 0 0 0 0 0 0 0 0 0 0 0 0 0 0 0 0 0 0 0 0 0 -1 0 0 0 0 0 0 0 0 0 0 0 0 0 0 0 0 0 0 0 -1 0 0 0 0 0 0 0 0 0 0 0 0 0 0 0 0 0 0 0 0 0 0 0 0 0 0 0 0 0 0 0 -1 0 0 0 0 0 0 0 0 0 0 0 0 0 0 0 0 0 0 0 0 0 0 0 0 0 0 0 0 1 -1 0 0 0 0 0 0 0 0 0 0 0 0 0 0 0 0 0 0 0 -1 0 0 0 0 0 0 0 0 0 0 0 0 0 0 0 0 0 0 0 0 0 0 0 0 0 -1 0 0 0 0 0 0 1 0 0 0 0 0 0 0 0 -1 0 0 0 0 0 0 0 0 0 0 0 0 0 -1 0 0 0 0 0 0 0 0 0 0 0 0 1 -1 0 0 0 0 0 0 0 0 0 0 0 0 0 -1 0 0 0 0 0 0 0 -1 0 0 0 0 0 0 0 0 0 -1 0 0 1 0 0 0 0 0 0 -1 0 0 0 0 0 0 0 0 0 -1 0 0 0 0 0 -1 0 0 0 0 0 0 0 0 0 -1 0 0 0 0 0 0 0 -1 0 0 0 0 0 -1 0 0 0 0 0 0 0 -1 0 0 0 0 0 -1 0 0 0 0 0 -1 0 -1 0 -1 0 -2 0 -1 0 -1 -1 -1 0 -1 0 -1 -1 -2 0 -1 -1 0 0 -1 0 -1 -1 0 0 -1 0 0 0 -1 -1 -1 0 -1 -1 -1 -1 -1 -1 -1 0 0 0 -1 -1 0 0 -1 -1 -1 -1 0 0 -1 -1 -1 0 0 -1 -1 -1 -1 -1 -1 -1 -1 -1 -1 -1 0 -1 -1 -1 -1 -1 -1 -1 -1 -1 0 -2 -1 -1 -1 -1 0 -1 -1 -1 -1 -1 -1 -1 0 -2 -1 -1 -1 -1 0 -1 -1 -2 0 0 -1 -1 0 -1 0 0 -1 -1 0 -2 -1 0 0 0 0 0 0 0 0 0 0 -1 0 0 0 0 0 0 0 0 0 0 0 0 0 -1 0 0 -1 0 0 0 0 0 0 0 0 0 0 0 0 -1 0 0 0 0 0 0 0 0 0 0 0 0 0 0 0 0 0 -1 0 0 -1 0 0 0 0 0 0 0 0 0 0 -1 0 0 0 0 0 0 0 0 0 0 0 0 0 0 0 -1 0 0 0 0 0 0 0 0 -1 0 0 0 0 0 0 0 0 -1 0 0 0 0 0 0 0 0 0 0 0 0 0 0 0 -1 0 0 0 0 0 0 0 0 -1 0 0 0 0 -2 -1 -1 0 -1 -1 -1 0 -1 -1 -2 0 0 0 -1 0 0 -1 0 0 0 0 0 0 -1 0 0 0 0 0 0 0 -1 0 0 0 0 -1 0 0 0 0 -1 0 0 0 0 0 0 0 0 0 0 0 -1 0 0 0 0 -1 0 0 -1 0 0 0 0 0 0 0 0 0 0 0 0 0 0 0 -1 0 0 0 0 0 0 0 0 0 -1 -1 0 0 0 0 0 0 0 0 -1 0 0 0 0 0 0 0 0 0 0 0 -1 0 0 -1 0 0 0 0 0 0 0 0 -1 0 0 0 0 0 0 0 0 0 0 0 0 0 0 0 0 -1 -1 0 0 0 0 0 0 0 0 0 0 0 -1 0 0 0 0 0 0 0 -1 -1 0 0 0 0 0 0 0 0 0 0 -1 0 0 0 0 -1 -1 0 0 0 -1 0 0 0 0 -1 -1 0 0 0 0 0 0 0 -1 0 0 -1 -1 0 0 0 0 0 -1 -1 0 0 0 0 -1 0 0 0 0 0 -1 -1 0 0 0 0 0 0 -1 0 0 -1 0 0 -1 0 0 -1 -1 0 -1 0 0 0 0 0 0 -1 -1 0 0 0 0 0 0 0 -1 0 0 -1 0 0 0 0 -1 -1 0 0 -1 0 -1 -1 0 0 0 0 0 0 -1 -1 0 0 0 0 0 0 -1 0 0 -1 0 0 -1 0 0 0 0 -1 -1 0 0 0 0 0 0 -1 -1 0 0 0 0 0 -1 -1 -1 -2 -2 -1 -1 -1 -1 -1 -2 -1 -1 -2 -1 -1 -1 -1 -2 -1 -1 -2 -1 -1 -2 -1 -1 -2 -1 -3 -2 -1 -2 -1 -1 -2 -1 -1 -1 -2 -1 -1 -1 0 0 -2 -1 0 0 -1 -2 -2 -1 -1 -1 -2 -1 -1 -1 -2 -1 -1 -1 -2 -1 -1 -1 -2 -1 -1 -1 -2 -1 -2 -1 -1 -1 -2 -1 0 0 -1 -1 -2 0 -2 -1 -1 -1 -2 -1 -2 -1 -1 -1 -2 -1 0 0 -1 0 -1 0 -1 -1 -2 -1 -2 -1 -1 0 0 0 -2 -1 -2 -1 -1 -1 -2 0 -2 -1 0 0 -1 -1 0 0 -2 0 -2 -1 0 0 -1 -1 0 0 -2 0 0 0 -2 -1 0 0 -1 0 0 0 -2 -1 0 0 -2 0 0 0 -1 -1 0 0 -2 0 -2 -1 -1 0 0 0 -2 -1 0 0 -3 -1 -3 -1 -2 0 -2 0 0 0 -1 -1 0 0 -2 0 0 0 -2 0 -1 -1 0 0 -2 0 -1 0 0 0 -2 -1 -1 0 -2 0 0 0 -1 0 -2 0 0 0 -2 -1 0 0 -1 0 -2 0 -1 0 0 0 -2 0 0 0 -1 0 0 0 -3 -1 0 0 -1 0 -2 0 -1 0 0 0 -1 0 0 0 0 0 0 0 0 0 0 0 -2 0 0 0 0 0 0 0 -1 0 0 0 0 0 0 0 0 0 0 0 0 0 -1 0 -1 0 0 0 -1 0 -2 0 -1 1 -1 0 -2 0 0 0 -1 0 -1 0 -2 0 -1 0 -1 1 -1 0 -1 0 -2 0 -1 1 -1 0 0 0 -1 0 -1 0 -1 1 -1 0 -2 1 -1 0 -1 0 -1 1 -1 0 -1 1 -1 0 0 0 0 0 0 0 0 0 0 0 0 1 0 0 0 0 -1 0 0 0 0 0 0 0 0 0 0 0 0 0 0 0 0 0 0 0 0 0 0 0 -1 0 0 0 0 0 0 0 0 0 0 0 0 1 0 0 0 0 0 0 0 0 0 0 0 0 0 0 -1 0 0 0 0 0 0 0 0 0 0 0 0 0 0 0 0 0 0 0 0 1 -1 0 0 0 0 0 0 0 0 0 0 0 0 0 0 0 0 0 0 0 0 0 0 0 -1 0 0 0 0 0 0 0 0 1 0 0 0 0 0 0 0 0 0 0 0 0 0 0 -1 0 0 0 0 0 0 0 0 0 0 0 0 0 0 0 0 0 0 0 0 0 0 0 0 1 0 0 0 0 0 0 0 0 0 0 -1 0 0 0 0 0 0 0 0 0 0 0 0 0 0 0 0 0 0 0 0 0 0 1 0 0 -1 0 0 0 0 0 0 0 0 0 0 0 0 0 0 0 0 1 0 0 -1 0 0 0 0 0 0 0 0 0 0 0 0 0 0 0 0 1 0 0 0 0 -1 0 0 0 0 0 0 0 0 0 0 0 0 0 0 0 0 1 0 0 0 0 0 0 0 0 -1 0 0 0 0 0 0 0 0 1 0 0 0 0 0 0 0 0 0 0 0 0 0 0 0 0 0 0 0 0 -1 1 0 0 0 0 0 0 0 0 0 0 0 0 0 0 0 0 0 1 0 0 0 0 0 0 0 0 -1 0 0 0 0 0 0 0 0 0 0 0 0 0 0 0 0 1 0 0 0 0 0 0 0 0 0 0 0 0 0 0 0 0 0 0 0 0 -1 1 0 0 0 0 0 0 0 0 0 0 0 0 0 0 0 0 0 0 0 1 0 0 0 0 0 0 0 0 0 0 0 0 0 0 0 0 -1 0 0 0 0 1 0 0 0 0 0 0 0 0 0 0 0 1 0 0 0 0 0 0 0 0 -1 0 0 0 0 1 0 0 0 0 0 0 0 0 0 1 0 0 0 0 0 0 0 0 0 0 0 0 -1 1 0 0 0 0 0 0 0 0 0 0 0 1 0 0 0 0 0 0 0 1 0 0 -1 0 0 0 0 0 0 0 0 0 0 1 0 0 0 0 0 0 0 0 0 0 0 1 0 0 0 0 -1 0 0 1 0 0 0 0 0 0 0 0 0 0 0 0 0 1 0 0 0 0 0 0 0 0 0 0 0 0 -1 0 0 0 0 1 0 1 0 0 0 1 0 0 -1 1 0 0 0 0 0 0 0 1 -1 1 0 0 0 1 0 0 0 1 0 0 0 0 0 1 -1 0 0 0 0 1 0 0 0 1 0 1 0 0 -1 1 0 0 0 1 0 1 0 1 -1 1 0 0 0 0 0 1 0 1 0 1 -1 1 0 0 0 1 0 0 0 0 0 1 0 1 0 1 0 1 0 1 0 0 -1 1 0 1 0 1 0 1 0 1 0 0 0 1 0 1 0 0 0 1 0 1 0 0 0 1 0 0 0 0 0 0 0 1 0 1 0 3 0 0 0 1 0 1 0 1 0 1 0 0 0 1 0 1 0 1 0 2 0 0 0 1 0 1c3,21 10,41 19,56l1 1 0 1 1 1 1 1 1 1 0 0 0 1 1 1 0 0 1 1 1 1 1 1 0 1 1 1 1 0 0 0 1 1 0 0 1 1 0 0 0 1 1 0 0 0 1 1 0 0 1 1 0 0 1 1 1 0 0 0 0 1 0 0 1 1 0 0 1 0 0 0 1 1 0 0 1 0 1 1 1 0 1 1 0 0 1 1 1 0 1 1 1 0zm844 338c55,-118 37,-262 -27,-407 -74,-164 -206,-330 -358,-463 -151,-133 -320,-232 -467,-264 -289,-62 -386,130 -343,382 2,-2 4,-5 5,-6 5,-6 20,-25 60,-41 23,-10 66,-24 128,-20 22,1 71,6 150,42 36,15 83,45 134,83l2 1 1 1 0 0 2 2 2 1 0 0 1 1 2 1 1 1 1 1 2 1 1 1 0 0 2 2 2 1 0 0 2 1 1 2 1 0 1 1 2 1 2 2 0 0 1 1 3 2 1 1 1 1 2 1 0 0 2 2 2 1 0 0 1 1 2 2 1 1 1 0 2 1 1 2 1 0 1 1 2 2 1 0 1 1 1 1 2 2 0 0 2 1 2 2 0 0 1 1 2 2 1 0 1 1 2 1 1 2 1 0 1 1 2 2 1 0 1 1 1 2 2 1 0 0 2 1 2 2 0 0 1 1 2 2 1 1 1 0 2 2 1 1 0 0 2 2 2 1 1 1 1 1 1 1 2 1 0 1 2 1 2 1 0 1 1 1 2 1 1 1 1 1 1 1 2 2c108,93 168,148 217,280 6,16 13,28 28,40 21,15 54,25 82,15 36,-14 41,-54 59,-51 18,2 34,43 26,77 -11,48 -67,65 -72,66 -55,16 -110,-14 -140,-46 -34,-36 -36,-73 -47,-113 -1,-2 -2,-4 -2,-6l-1 -2 -2 -5 -1 -2 -1 -5 -1 -1c-1,-2 -2,-5 -3,-7l0 -1c-1,-2 -2,-4 -3,-6l-1 -1 -3 -6 -1 -1 -3 -6 -1 -1 0 0 -4 -7 -1 -2 -3 -5 -1 -2 -4 -5 -1 -2c-2,-2 -3,-4 -5,-7l0 0 -1 -1 -4 -5 -2 -3 -3 -4 -2 -3 -4 -6 -1 0 -1 -1 -4 -6 -1 -1 -1 -1 -5 -6 -2 -2 -4 -5 -2 -2 -6 -7 0 0 -6 -7 -3 -2 -4 -5 -2 -2 -5 -5 -3 -2 0 -1 -6 -5 0 -1 -2 -1 -5 -5 -3 -3 -4 -4 -3 -3 -5 -4 -2 -2 -1 -1 -6 -5 -1 -1 -2 -2 -6 -5 -2 -2 -5 -4 -3 -3 -8 -6 -8 -7 -1 -1 -6 -5 -4 -2 -4 -4 -3 -2 -1 -1 -7 -5 -1 -1 -6 -4 -1 -1 -4 -3 -4 -3 -4 -3 -1 -1 -7 -4 -1 -1 -8 -6 0 0 -6 -4 -1 -1 -4 -2 -6 -4 -2 -2 -9 -5 0 0 -7 -5 -1 0 -4 -3 -4 -3 -4 -2 -5 -3 -3 -2 -1 0 -7 -5 -1 0 -6 -4 -1 0 -4 -3 -5 -3 -2 -1 -2 -1 -3 -2 -4 -2 -8 -4 0 0 -5 -2 -3 -2 -5 -3 -3 -1 -5 -3 0 0c-41,-20 -79,-34 -111,-41 -135,-26 -136,20 -138,58l0 0 0 0 0 1 0 1 0 0 0 1 0 0 0 1 0 0 0 1 -1 0 0 1 0 0 0 1 0 0 0 1 0 0 0 1 0 1 0 0 0 0 0 1 0 1 0 0 0 0 0 1 0 1 -1 0 0 0 0 1 0 1 0 0 0 0 0 1 0 0 0 1 0 1 0 0 -1 0 0 1 0 0 0 1 0 0 0 0 0 1 -1 1 0 0 0 0 0 1 0 1 0 0 -1 1 0 1 -1 1 0 0 0 0 0 1 -1 1 0 0 0 0 -1 1 0 1 0 0 -1 1 0 0 0 0 -2 1 0 0 0 1 -1 1 -1 0 0 0 -1 1 0 0 0 0 0 0 -1 0 0 0 -1 1 0 0 0 0 -1 0 0 0 -1 1 0 0 -1 0 0 0 -1 0 0 0 0 1 -1 0 0 0 -1 0 0 0 -1 0 0 0 -1 1 0 0 -1 0 0 0 -1 0 0 0 -1 0 0 0 -1 0 0 0 -1 1 0 0 -2 0 0 0 -1 0 0 0 -1 0 0 0 -1 0 0 0 -1 0 -1 0 0 0 -1 0 -1 0 0 0 -1 0 -1 0 0 0 -1 0 0 0 -1 0 0 0 -1 0 -2 0 0 0 -1 0 -1 0 -1 0 0 0 -1 0 -1 0 0 0 -1 0 -1 0 -2 0 -2 0 0 0 -1 0 0 0 -2 -1 0 0 -1 0 0 0 -1 0 -1 0 -1 0 0 0 -1 0 -1 -1 -1 0 -1 0 0 0 -1 0 -1 0 -1 -1 0 0 0 0 -1 0 -2 0 0 0 -1 -1 -2 0 0 0 -1 0 -1 0 -1 -1 0 0 -1 0 -1 0 -1 0 -1 -1 0 0 -1 0 -1 0 -1 -1 0 0 -1 0 0 0 -2 -1c-3,-1 -6,-2 -9,-3 2,8 5,16 8,24 -1,42 10,94 23,134l27 -13 0 0 44 -22c13,49 68,139 123,207 8,-2 17,-1 27,2 15,5 32,16 47,31l1 1c15,15 25,32 30,48l0 0 0 0 0 1 0 0 0 0 0 0 0 0 0 0 0 0 0 1 0 0 0 0 0 0 0 0 1 1 0 0 0 0 0 0 0 0 0 1 0 0 0 0 0 0 0 0 0 0 0 1 0 0 0 0 0 0 0 0 0 0 0 1 0 0 0 0 0 0 0 0 0 1 1 0 0 0 0 0 0 0 0 0 0 1 0 0 0 0 0 0 0 0 0 0 0 1 0 0 0 0 0 0 0 0 0 0 0 1 0 0 0 0 0 0 0 0 0 1 0 0 0 0 0 0 0 0 0 0 0 0 0 1 0 0 0 0 0 0 0 0 0 1 0 0 0 0 0 0 0 0 0 0 0 1 0 0 0 0 0 0 1 0c0,11 -3,21 -9,27l-1 1 0 0c-9,9 -24,10 -41,5 -5,-2 -10,-4 -16,-7 8,8 15,16 23,24 22,-1 46,6 72,19 42,21 88,60 128,110 2,2 4,4 6,7 11,15 22,30 31,45 38,21 77,39 118,54 6,13 15,28 25,44 32,50 48,58 60,61 34,8 57,-21 117,-60 21,1 43,2 64,2 93,4 157,-33 255,-129zm-846 -124c48,46 100,87 156,122 -1,-2 -3,-4 -5,-7 -38,-47 -81,-83 -120,-103 -11,-5 -21,-9 -31,-12zm889 82l1521 -1490c59,-118 42,-260 -20,-403 -70,-160 -198,-321 -345,-450 -147,-129 -312,-226 -458,-258 -56,-13 -109,-16 -156,-7 -26,13 -60,30 -63,31l-1530 1429c50,-12 110,-11 181,4 153,33 329,136 486,274 157,137 294,310 370,481 55,122 78,243 53,351l-39 38zm-936 -308c-11,-17 -20,-41 -22,-66 -3,-22 -1,-44 8,-65 3,-7 5,-12 8,-17 4,-5 7,-10 13,-15 3,-3 7,-5 11,-7 26,-14 67,-12 109,1 40,13 81,38 108,71 7,9 13,18 18,28 2,4 5,10 8,16 9,20 19,43 32,44 1,0 3,0 4,-1 4,-2 8,-3 14,-3 10,0 19,5 28,13 13,11 25,31 34,53 9,22 14,46 14,69 -1,20 -6,38 -19,52 -7,8 -15,13 -21,16 -7,3 -12,4 -13,5 -35,7 -58,-15 -90,-46 -20,-19 -43,-42 -73,-61 -39,-25 -70,-33 -94,-40 -33,-8 -57,-14 -77,-47zm310 11l0 0 0 0z"/>
  <path class="fil2" d="M751 2944c36,15 83,45 134,83 36,27 75,57 111,89 108,93 168,148 217,280 6,16 13,28 28,40 21,15 54,25 82,15 36,-14 41,-54 59,-51 18,2 34,43 26,77 -11,48 -67,65 -72,66 -55,16 -110,-14 -140,-46 -34,-36 -36,-73 -47,-113 -34,-116 -215,-266 -364,-340 -41,-20 -79,-34 -111,-41 -135,-26 -136,20 -138,58 -1,15 -2,28 -12,36 -13,9 -46,9 -77,-2 -3,-1 -6,-2 -9,-3 -27,-12 -50,-31 -52,-60 -2,-27 12,-50 22,-63 2,-2 4,-5 5,-6 5,-6 20,-25 60,-41 23,-10 66,-24 128,-20 22,1 71,6 150,42zm-81 573c-1,-2 -3,-3 -4,-4l0 -1 0 0c-12,-13 -20,-28 -24,-41 -5,-17 -4,-32 6,-42 4,-4 9,-6 15,-7 -55,-68 -110,-158 -123,-207l-80 40c8,69 148,273 218,306l18 -21c-9,-6 -18,-13 -26,-23zm215 -213c-30,-31 -72,-42 -92,-23 -3,3 -5,6 -7,9l-23 25 -97 106c7,-1 15,0 24,3 7,3 16,6 24,12l0 0 0 0c8,5 16,12 24,19 6,6 11,13 15,19 7,10 12,20 15,30 1,4 2,8 2,11l1 1 99 -89 42 -38 -2 -1c12,-21 2,-56 -25,-84zm28 415c-1,-2 -3,-4 -5,-7 -38,-47 -81,-83 -120,-103 -37,-18 -68,-22 -87,-8l-1 1c-17,14 -21,44 -12,81 9,41 32,88 68,135 1,2 3,4 5,7 38,47 81,83 121,103 36,18 67,22 86,8l1 -1c18,-14 21,-44 13,-81 -10,-41 -33,-88 -69,-135zm-51 40c43,51 63,105 46,119 -18,14 -66,-16 -109,-67 -42,-52 -62,-105 -45,-120 17,-14 66,16 108,68zm-210 -303c0,-7 2,-14 6,-18 6,-5 16,-5 28,-1 13,4 28,13 42,27l0 1c14,14 23,29 27,43 4,12 3,22 -3,28l0 0c-5,6 -16,6 -28,2 -13,-4 -29,-14 -42,-28l0 0c-14,-14 -23,-30 -27,-43 -2,-4 -2,-8 -3,-11zm509 -537c-175,-167 -296,-200 -381,-215 -56,-9 -147,-24 -235,23 -37,19 -67,51 -128,114 -7,8 -13,14 -19,21 -36,41 -57,74 -66,116 -8,35 -3,53 -1,58 11,32 36,35 85,74 12,10 22,19 30,27 4,3 8,7 11,10 23,24 31,38 56,41 26,4 60,-5 73,-26 13,-21 -3,-40 10,-65 9,-15 24,-24 36,-29 5,-1 9,-3 13,-4 14,-4 31,-5 51,-3 63,8 150,51 229,121 26,23 88,77 142,163 16,24 31,51 44,80 1,3 3,6 4,9 18,40 24,67 53,102 6,7 95,114 190,94 23,-5 42,-19 75,-45 8,41 32,72 14,103 -27,45 -97,10 -158,73 -25,25 -29,47 -62,62 -14,7 -28,9 -39,11 -14,2 -25,2 -31,12 -10,16 -1,46 17,63 4,4 8,6 12,9 41,20 103,-28 129,-49 11,-8 17,-14 22,-19 8,-9 12,-14 27,-24 52,-34 86,-16 122,-41 30,-21 38,-56 49,-112 13,-62 83,-316 -374,-754z"/>
 </g>
</svg>
