<?xml version="1.0" encoding="UTF-8"?>
<!DOCTYPE svg PUBLIC "-//W3C//DTD SVG 1.1//EN" "http://www.w3.org/Graphics/SVG/1.1/DTD/svg11.dtd">
<!-- Creator: CorelDRAW X8 -->
<svg xmlns="http://www.w3.org/2000/svg" xml:space="preserve" width="7.0554mm" height="7.0554mm" version="1.1" style="shape-rendering:geometricPrecision; text-rendering:geometricPrecision; image-rendering:optimizeQuality; fill-rule:evenodd; clip-rule:evenodd"
viewBox="0 0 706 706"
 xmlns:xlink="http://www.w3.org/1999/xlink">
 <defs>
  <style type="text/css">
   <![CDATA[
    .fil0 {fill:#009BC8}
   ]]>
  </style>
 </defs>
 <g id="Слой_x0020_1">
  <metadata id="CorelCorpID_0Corel-Layer"/>
  <path class="fil0" d="M353 78l0 0c21,0 37,17 37,38l0 140c0,21 -16,38 -37,38l0 0c-21,0 -38,-17 -38,-38l0 -140c0,-21 17,-38 38,-38zm284 207l0 0c7,20 -4,41 -24,48l-133 43c-20,6 -41,-4 -48,-24l0 0c-6,-20 5,-41 25,-48l133 -43c20,-6 41,5 47,24zm-108 335l0 0c-17,12 -41,8 -53,-8l-82 -114c-13,-17 -9,-40 8,-52l0 0c17,-13 41,-9 53,8l82 113c12,17 9,41 -8,53zm-352 0l0 0c-17,-12 -21,-36 -9,-53l83 -113c12,-17 36,-21 53,-8l0 0c16,12 20,35 8,52l-83 114c-12,16 -35,20 -52,8zm-109 -335l0 0c6,-19 28,-30 48,-24l133 43c20,7 30,28 24,48l0 0c-6,20 -28,31 -47,24l-134 -43c-19,-7 -30,-28 -24,-48z"/>
 </g>
</svg>
