<?xml version="1.0" encoding="UTF-8"?>
<!DOCTYPE svg PUBLIC "-//W3C//DTD SVG 1.1//EN" "http://www.w3.org/Graphics/SVG/1.1/DTD/svg11.dtd">
<!-- Creator: CorelDRAW X8 -->
<svg xmlns="http://www.w3.org/2000/svg" xml:space="preserve" width="14.111mm" height="14.111mm" version="1.1" style="shape-rendering:geometricPrecision; text-rendering:geometricPrecision; image-rendering:optimizeQuality; fill-rule:evenodd; clip-rule:evenodd"
viewBox="0 0 1411 1411"
 xmlns:xlink="http://www.w3.org/1999/xlink">
 <defs>
  <style type="text/css">
   <![CDATA[
    .fil0 {fill:#009BC8}
   ]]>
  </style>
 </defs>
 <g id="Слой_x0020_1">
  <metadata id="CorelCorpID_0Corel-Layer"/>
  <path class="fil0" d="M706 353l0 0c194,0 352,159 352,353l0 0c0,194 -158,352 -352,352l0 0c-194,0 -353,-158 -353,-352l0 0c0,-194 159,-353 353,-353zm0 70l0 0c-78,0 -149,32 -200,83 -51,51 -83,122 -83,200l0 0c0,77 32,148 83,199 51,51 122,83 200,83l0 0c77,0 148,-32 199,-83 51,-51 83,-122 83,-199l0 0c0,-78 -32,-149 -83,-200 -51,-51 -122,-83 -199,-83z"/>
  <path class="fil0" d="M706 564l0 0c77,0 141,64 141,142l0 0c0,77 -64,141 -141,141l0 0c-78,0 -142,-64 -142,-141l0 0c0,-78 64,-142 142,-142z"/>
 </g>
</svg>
