<?xml version="1.0" encoding="UTF-8"?>
<!DOCTYPE svg PUBLIC "-//W3C//DTD SVG 1.1//EN" "http://www.w3.org/Graphics/SVG/1.1/DTD/svg11.dtd">
<!-- Creator: CorelDRAW X8 -->
<svg xmlns="http://www.w3.org/2000/svg" xml:space="preserve" width="7.0554mm" height="7.0554mm" version="1.1" style="shape-rendering:geometricPrecision; text-rendering:geometricPrecision; image-rendering:optimizeQuality; fill-rule:evenodd; clip-rule:evenodd"
viewBox="0 0 706 706"
 xmlns:xlink="http://www.w3.org/1999/xlink">
 <defs>
  <style type="text/css">
   <![CDATA[
    .fil0 {fill:#7D7D7D;fill-rule:nonzero}
   ]]>
  </style>
 </defs>
 <g id="Слой_x0020_1">
  <metadata id="CorelCorpID_0Corel-Layer"/>
  <path class="fil0" d="M595 408c9,19 14,40 14,63 0,78 -63,142 -142,142 -24,0 -47,-6 -67,-17 -14,3 -29,4 -44,4 -136,0 -245,-109 -245,-245 0,-16 1,-33 5,-49 -13,-21 -20,-45 -20,-72 0,-78 64,-141 142,-141 28,0 54,8 76,21 13,-2 27,-3 42,-3 135,0 244,109 244,244 0,19 -2,36 -5,53zm-313 -213c-21,7 -37,18 -47,33 -11,14 -17,31 -17,49 0,20 5,36 16,49 10,13 24,23 42,31 17,7 39,14 64,19 19,4 34,8 45,11 11,4 19,8 26,15 6,6 9,13 9,23 0,12 -5,22 -18,30 -12,9 -29,13 -49,13 -15,0 -27,-2 -36,-6 -8,-4 -15,-10 -20,-16 -5,-7 -10,-15 -14,-25 -4,-9 -9,-16 -14,-21 -6,-5 -14,-7 -22,-7 -10,0 -19,3 -26,9 -6,7 -10,14 -10,23 0,15 5,30 16,45 10,14 24,26 40,35 23,12 53,19 88,19 29,0 55,-5 76,-14 22,-9 39,-21 50,-38 11,-16 17,-34 17,-54 0,-17 -3,-31 -10,-43 -6,-12 -16,-22 -27,-29 -12,-8 -26,-14 -42,-20 -16,-5 -35,-9 -54,-14 -16,-3 -27,-6 -34,-8 -7,-2 -14,-4 -20,-8 -6,-3 -11,-6 -15,-11 -3,-4 -4,-8 -4,-14 0,-9 5,-17 15,-23 10,-7 25,-11 42,-11 19,0 33,3 41,10 9,6 16,15 22,27 5,9 10,15 15,19 5,5 12,7 21,7 10,0 18,-4 25,-11 7,-7 10,-15 10,-23 0,-9 -3,-19 -8,-28 -5,-10 -13,-19 -24,-27 -10,-8 -24,-15 -40,-20 -16,-5 -35,-8 -57,-8 -27,0 -52,4 -72,12z"/>
 </g>
</svg>
