<?xml version="1.0" encoding="UTF-8"?>
<!DOCTYPE svg PUBLIC "-//W3C//DTD SVG 1.1//EN" "http://www.w3.org/Graphics/SVG/1.1/DTD/svg11.dtd">
<!-- Creator: CorelDRAW X8 -->
<svg xmlns="http://www.w3.org/2000/svg" xml:space="preserve" width="17.6388mm" height="17.6388mm" version="1.1" style="shape-rendering:geometricPrecision; text-rendering:geometricPrecision; image-rendering:optimizeQuality; fill-rule:evenodd; clip-rule:evenodd"
viewBox="0 0 1764 1764"
 xmlns:xlink="http://www.w3.org/1999/xlink">
 <defs>
  <style type="text/css">
   <![CDATA[
    .fil0 {fill:#9B9B9B;fill-rule:nonzero}
   ]]>
  </style>
 </defs>
 <g id="Слой_x0020_1">
  <metadata id="CorelCorpID_0Corel-Layer"/>
  <path class="fil0" d="M882 1479c89,-20 195,-99 284,-201 92,-104 165,-231 186,-340 16,-82 15,-219 14,-337 0,-52 -1,-100 0,-138 1,-15 -4,-25 -11,-32 -10,-9 -25,-16 -41,-23 -93,-39 -388,-118 -432,-130 -45,12 -339,91 -432,130 -17,7 -31,14 -41,23 -7,7 -12,17 -12,32 1,35 1,80 1,130 -1,125 -2,278 16,359 26,109 100,233 191,334 88,98 190,174 277,193zm317 -171c-96,110 -213,196 -313,216l-4 1 -4 -1c-98,-20 -211,-102 -306,-208 -96,-107 -174,-238 -201,-355 -20,-85 -19,-241 -18,-369 1,-48 1,-93 0,-128 -1,-30 9,-50 26,-66 14,-14 33,-23 54,-32 103,-42 442,-132 443,-133l6 -1 6 1c1,1 340,91 443,133 21,9 40,18 54,32 17,16 27,36 26,66 -1,38 -1,85 0,136 1,121 2,261 -15,346 -23,118 -100,252 -197,362z"/>
  <path class="fil0" d="M882 1302c55,-14 119,-68 175,-137 59,-72 107,-161 122,-238 11,-58 11,-164 10,-252 0,-36 0,-69 0,-95 0,-9 -2,-15 -6,-19 -5,-5 -14,-10 -24,-15 -58,-26 -241,-81 -277,-91 -36,10 -219,65 -277,91 -10,5 -19,10 -24,15 -4,4 -7,10 -6,19 0,26 0,59 0,95 -1,88 -2,194 10,251 15,78 63,167 122,239 55,69 120,123 175,137zm210 -108c-63,78 -139,138 -205,153l-5 1 -5 -1c-66,-15 -142,-75 -205,-154 -63,-77 -114,-173 -131,-258 -12,-62 -11,-170 -11,-260 1,-35 1,-68 0,-94 0,-22 7,-38 18,-51 11,-11 24,-18 38,-24 67,-31 289,-96 290,-96l6 -2 6 2c1,0 223,65 290,96 14,6 27,13 38,24 11,13 18,29 18,51 -1,26 -1,59 0,94 0,90 1,199 -11,260 -17,85 -68,181 -131,259z"/>
 </g>
</svg>
