<?xml version="1.0" encoding="UTF-8"?>
<!DOCTYPE svg PUBLIC "-//W3C//DTD SVG 1.1//EN" "http://www.w3.org/Graphics/SVG/1.1/DTD/svg11.dtd">
<!-- Creator: CorelDRAW X8 -->
<svg xmlns="http://www.w3.org/2000/svg" xml:space="preserve" width="17.6388mm" height="17.6388mm" version="1.1" style="shape-rendering:geometricPrecision; text-rendering:geometricPrecision; image-rendering:optimizeQuality; fill-rule:evenodd; clip-rule:evenodd"
viewBox="0 0 1764 1764"
 xmlns:xlink="http://www.w3.org/1999/xlink">
 <defs>
  <style type="text/css">
   <![CDATA[
    .fil0 {fill:black;fill-rule:nonzero;fill-opacity:0.501961}
   ]]>
  </style>
 </defs>
 <g id="Слой_x0020_1">
  <metadata id="CorelCorpID_0Corel-Layer"/>
  <path class="fil0" d="M766 803l0 218c29,-2 56,-22 72,-40 33,-37 33,-88 3,-125 -15,-19 -43,-36 -75,-53zm830 611l-289 -280 107 -111 -424 -40 43 436 107 -111 289 279 167 -173zm-224 -281l255 248c19,17 19,46 2,65l-167 173c-18,18 -47,19 -65,1l-256 -247 -75 78c-7,7 -17,12 -27,13 -25,4 -49,-14 -52,-39l-7 -69c-70,27 -147,42 -227,42 -176,0 -336,-71 -451,-186 -115,-116 -187,-275 -187,-451 0,-176 72,-336 187,-451 115,-115 275,-187 451,-187 176,0 335,72 450,187 116,115 187,275 187,451 0,74 -13,145 -36,210l63 6c11,1 21,5 29,13 18,18 19,47 1,65l-75 78zm-397 165l-12 -120c-63,32 -135,50 -210,50 -129,0 -246,-52 -331,-137 -84,-84 -136,-201 -136,-330 0,-129 52,-246 136,-330 85,-85 202,-137 331,-137 129,0 245,52 330,137 84,84 137,201 137,330 0,69 -15,135 -42,194l118 11c24,-64 38,-133 38,-205 0,-161 -65,-306 -171,-411 -105,-105 -250,-170 -410,-170 -161,0 -306,65 -411,170 -105,105 -170,250 -170,411 0,160 65,305 170,411 105,105 250,170 411,170 78,0 153,-16 222,-44zm-18 -181l-12 -127c-1,-4 -1,-8 -1,-11 3,-26 25,-44 51,-42l123 12c29,-56 45,-120 45,-188 0,-114 -46,-216 -120,-290 -74,-75 -177,-121 -290,-121 -114,0 -216,46 -291,121 -74,74 -120,176 -120,290 0,113 46,216 120,290 75,74 177,120 291,120 74,0 144,-19 204,-54zm-230 -578c-25,1 -45,12 -59,27 -13,16 -20,34 -20,56 0,21 7,39 20,55 12,16 32,31 59,45l0 -183zm0 -132l39 0 0 77c20,0 41,2 61,5 14,2 27,5 40,8l-4 48c-33,-9 -61,-15 -97,-11l0 206c54,27 93,54 117,81 23,26 35,57 35,92 0,41 -13,76 -41,105 -27,29 -64,47 -111,54l0 73 -39 0 0 -71 -11 0c-21,0 -42,-3 -63,-7 -6,-1 -12,-2 -17,-4l0 -56c8,3 16,6 24,8 22,7 45,10 67,10l0 -241c-47,-22 -82,-47 -104,-73 -23,-26 -34,-55 -34,-87 0,-36 12,-67 36,-90 24,-24 58,-40 102,-47l0 -80z"/>
 </g>
</svg>
