<?xml version="1.0" encoding="UTF-8"?>
<!DOCTYPE svg PUBLIC "-//W3C//DTD SVG 1.1//EN" "http://www.w3.org/Graphics/SVG/1.1/DTD/svg11.dtd">
<!-- Creator: CorelDRAW X8 -->
<svg xmlns="http://www.w3.org/2000/svg" xml:space="preserve" width="17.6388mm" height="17.6388mm" version="1.1" style="shape-rendering:geometricPrecision; text-rendering:geometricPrecision; image-rendering:optimizeQuality; fill-rule:evenodd; clip-rule:evenodd"
viewBox="0 0 1764 1764"
 xmlns:xlink="http://www.w3.org/1999/xlink">
 <defs>
  <style type="text/css">
   <![CDATA[
    .fil0 {fill:#9F9F9F;fill-rule:nonzero}
   ]]>
  </style>
 </defs>
 <g id="Слой_x0020_1">
  <metadata id="CorelCorpID_0Corel-Layer"/>
  <path class="fil0" d="M392 950l-184 -224 -1 -1 -1 -1c0,0 -32,-47 32,-100 47,-38 301,-292 314,-305 8,-9 47,-51 95,-5 3,3 9,8 16,14 86,-39 253,-42 359,-44 42,-1 75,-1 84,-4 12,-3 21,-11 30,-17 22,-19 39,-33 71,-7 33,25 325,329 340,344 5,5 9,11 12,18 11,30 -8,87 -38,147 -29,56 -68,118 -101,161 -14,19 -28,34 -39,46l44 43c9,8 90,86 18,162 -25,26 -52,34 -78,34 17,18 81,96 15,162l-1 0 0 0c-29,29 -64,35 -97,28 -21,-4 -41,-14 -59,-26 1,22 -6,43 -25,62 -2,2 -4,4 -6,6 -26,22 -54,29 -81,27 -30,-3 -57,-19 -80,-42l-11 -10c-5,14 -14,27 -27,37l-76 58 0 1c-18,14 -40,19 -61,16 -21,-3 -40,-13 -54,-30l0 0 -1 -2c-11,-13 -16,-29 -17,-45 -13,3 -26,4 -38,3 -23,-3 -45,-15 -60,-35 -15,-19 -21,-43 -18,-66 1,-5 2,-9 3,-14 -9,2 -19,2 -29,1 -23,-3 -44,-15 -60,-34 -15,-20 -20,-44 -17,-67 0,-1 0,-2 0,-4 -13,4 -27,5 -40,3 -26,-4 -52,-17 -69,-40 -18,-23 -24,-51 -21,-77 0,-2 1,-5 1,-7 -6,1 -12,1 -18,0 -21,-3 -42,-14 -56,-32l0 0 -1 -1c-15,-19 -20,-42 -17,-64 2,-21 13,-42 31,-56l0 0 2 -1 15 -12zm233 -600c-3,-2 -5,-5 -7,-6 -19,-19 -34,1 -34,1l-1 2 -1 1c-1,1 -267,267 -318,308 -30,26 -25,42 -23,45l184 224 32 -25c19,-15 42,-20 64,-17 22,3 43,14 57,33 11,14 17,31 18,47 19,-9 39,-12 59,-9 27,3 52,17 70,40 17,22 24,50 20,77 -1,9 -3,18 -7,26 5,0 9,1 13,1 23,3 45,15 60,35 7,9 13,20 15,31l55 55c12,6 23,14 32,25l0 1 1 1c5,5 8,11 11,17l49 50c13,5 25,14 34,26 5,6 9,12 11,19l41 41c17,17 36,28 55,29 16,2 34,-3 50,-17 2,-1 3,-2 4,-3 14,-14 15,-33 10,-50 -7,-21 -21,-42 -33,-56 -3,-4 -6,-7 -8,-10l0 0 0 0 -1 0 0 0 -217 -221 29 -29 217 220 0 0 0 0 0 0 0 0 1 1 0 0 0 0 0 0 0 0 1 1 0 0 58 59 1 1c17,17 40,32 63,37 21,4 42,0 60,-17l0 -1c46,-45 -18,-107 -18,-107l-1 0 -58 -59 0 -1c-2,-1 -3,-2 -3,-2l-1 -1 -1 -1 -229 -233 30 -29 228 232c8,6 72,53 116,6 46,-48 -16,-102 -16,-102l-1 -1 -470 -464c-5,-4 -35,-29 -69,-29 -9,1 -21,1 -35,2 -76,6 -188,13 -234,-67 -12,-23 -19,-49 -11,-77l0 0c6,-20 21,-41 48,-60zm294 177l10 -1 1 1 422 416c8,-8 21,-23 35,-42 32,-41 69,-100 97,-155 25,-51 42,-96 36,-114 0,0 0,0 0,0l-1 -1 -1 -1c-1,-1 -305,-317 -336,-342 -6,-5 -12,0 -20,7 -12,9 -25,20 -46,26 -14,3 -48,4 -93,4 -108,2 -281,6 -353,45 -33,18 -48,36 -53,52 -5,15 0,30 7,44 33,58 130,51 196,47 13,-1 24,-2 36,-2 24,-1 46,7 63,16zm64 853l-31 -31c-1,0 -3,0 -4,-1 -10,-1 -21,2 -30,9l-14 10c-1,1 -3,3 -5,4l0 0 -1 1 -61 47c-7,7 -10,15 -11,24 -2,10 1,21 7,30l1 0c7,9 17,15 27,16 10,1 21,-1 30,-8l1 0 76 -59c9,-7 14,-17 16,-27 0,-5 0,-10 -1,-15zm-167 2l61 -47c8,-8 13,-17 14,-28 1,-7 0,-14 -2,-21l-31 -31c-3,-1 -6,-2 -9,-2 -12,-2 -25,1 -36,9l0 0 -85 66c-11,8 -17,20 -19,32 -1,12 2,25 10,36 8,11 20,17 32,19 13,1 26,-2 36,-10l23 -17c2,-2 4,-4 6,-6zm-106 -233l-86 65c-10,8 -17,20 -18,33 -2,12 1,25 9,36 9,10 20,17 33,18 12,2 25,-1 36,-9l85 -66c11,-8 17,-20 19,-32 0,-3 0,-6 0,-10l-34 -33 7 -7c-5,-2 -10,-4 -15,-5 -13,-1 -26,2 -36,10zm-107 -142l-103 79c-14,11 -22,26 -24,42 -2,16 2,33 13,47 10,14 25,22 41,24 17,2 33,-2 47,-13l103 -79c14,-10 22,-25 24,-41 2,-17 -2,-33 -12,-47 -11,-14 -26,-22 -42,-24 -16,-2 -33,2 -47,12zm-121 -74l-79 61 -1 1c-10,7 -16,18 -17,29 -2,12 1,24 8,33l1 1c7,9 18,15 29,17 12,1 24,-2 34,-9l80 -62c10,-8 16,-18 17,-30 2,-11 -1,-23 -9,-33 -7,-10 -18,-16 -29,-17 -12,-2 -24,1 -34,9z"/>
 </g>
</svg>
