<?xml version="1.0" encoding="UTF-8"?>
<!DOCTYPE svg PUBLIC "-//W3C//DTD SVG 1.1//EN" "http://www.w3.org/Graphics/SVG/1.1/DTD/svg11.dtd">
<!-- Creator: CorelDRAW X8 -->
<svg xmlns="http://www.w3.org/2000/svg" xml:space="preserve" width="19.0498mm" height="17.6388mm" version="1.1" style="shape-rendering:geometricPrecision; text-rendering:geometricPrecision; image-rendering:optimizeQuality; fill-rule:evenodd; clip-rule:evenodd"
viewBox="0 0 1905 1764"
 xmlns:xlink="http://www.w3.org/1999/xlink">
 <defs>
  <style type="text/css">
   <![CDATA[
    .fil0 {fill:#9B9B9B;fill-rule:nonzero}
   ]]>
  </style>
 </defs>
 <g id="Слой_x0020_1">
  <metadata id="CorelCorpID_0Corel-Layer"/>
  <path class="fil0" d="M113 328l1185 0c16,0 29,13 29,29l0 385 265 0c17,-1 77,0 138,80 28,37 55,80 76,119 28,52 47,97 47,112 1,26 1,246 1,247l-1 2c0,1 -3,60 -47,60l-119 0c-13,72 -76,126 -152,126 -75,0 -138,-54 -152,-126l-85 0 -52 0 -695 0c-6,33 -22,62 -44,84 -29,29 -69,47 -113,47 -44,0 -84,-18 -113,-47 -23,-22 -38,-51 -44,-84l-124 0c-16,0 -29,-13 -29,-29l0 -976c0,-16 13,-29 29,-29zm1214 472l0 504 56 0c14,-71 77,-125 152,-125 76,0 139,54 152,125l109 0 0 -4c0,-1 0,-231 -1,-245 0,-7 -16,-42 -40,-86 -20,-36 -45,-77 -71,-112 -50,-66 -85,-58 -85,-58l-4 1 -2 0 -266 0zm-450 -244l153 157 20 20 -20 20 -153 157 -41 -40 103 -106 -369 0 0 -58 373 0 -107 -110 41 -40zm-309 256l-108 110 377 0 0 58 -372 0 103 106 -41 40 -154 -157 -19 -20 19 -20 154 -158 41 41zm1036 453c-18,-18 -42,-28 -69,-28 -26,0 -51,10 -68,28 -18,17 -28,42 -28,68 0,27 10,51 28,69l0 0c17,17 41,28 68,28 27,0 51,-11 69,-28 17,-18 28,-42 28,-69 0,-27 -11,-51 -28,-68l0 0zm-1053 39l695 0 23 0 0 -918 -1127 0 0 918 95 0c6,-32 21,-61 44,-84 29,-29 69,-46 113,-46 44,0 84,17 113,46 22,23 38,52 44,84zm-85 -43c-19,-18 -44,-29 -72,-29 -28,0 -54,11 -72,29 -19,19 -30,44 -30,72 0,28 11,54 30,72 18,19 44,30 72,30 28,0 53,-11 72,-30 18,-18 29,-44 29,-72 0,-28 -11,-53 -29,-72z"/>
 </g>
</svg>
