<?xml version="1.0" encoding="UTF-8"?>
<!DOCTYPE svg PUBLIC "-//W3C//DTD SVG 1.1//EN" "http://www.w3.org/Graphics/SVG/1.1/DTD/svg11.dtd">
<!-- Creator: CorelDRAW X8 -->
<svg xmlns="http://www.w3.org/2000/svg" xml:space="preserve" width="56.4444mm" height="42.3332mm" version="1.1" style="shape-rendering:geometricPrecision; text-rendering:geometricPrecision; image-rendering:optimizeQuality; fill-rule:evenodd; clip-rule:evenodd"
viewBox="0 0 5644 4233"
 xmlns:xlink="http://www.w3.org/1999/xlink">
 <defs>
  <style type="text/css">
   <![CDATA[
    .fil1 {fill:#009BC8}
    .fil0 {fill:#FF910A}
   ]]>
  </style>
 </defs>
 <g id="Слой_x0020_1">
  <metadata id="CorelCorpID_0Corel-Layer"/>
  <path class="fil0" d="M2945 543c-96,96 -131,230 -105,353l-253 -1 -106 106 -91 91 554 554 91 -90 106 -107 -1 -253c124,26 257,-9 353,-105 151,-151 151,-396 0,-548 -151,-151 -397,-151 -548,0zm378 378c-57,58 -151,58 -208,0 -58,-57 -58,-150 0,-208 57,-57 151,-57 208,0 57,58 57,151 0,208z"/>
  <g id="_1929695359936">
   <path class="fil1" d="M2483 2060l-17 17 -44 41 -13 13c-12,11 -12,30 -1,42 4,5 -1,11 -7,11 -37,0 -92,-7 -160,-23 -31,-8 -64,-17 -100,-28 -61,-19 -127,-44 -198,-76 -18,-8 -75,-33 -151,-60 -30,-10 -63,-21 -97,-31 -139,-42 -303,-73 -397,-26 -21,10 -39,24 -52,43 -40,56 -28,124 33,203 4,5 8,11 14,17 11,13 30,12 43,0l5 -5 69 -66c2,-2 4,-5 6,-8 5,-11 3,-24 -5,-34 -4,-5 0,-11 7,-11 12,0 26,1 42,3 28,3 63,8 102,17l-125 125c34,10 67,21 97,32 75,26 133,52 150,59 72,32 138,57 199,76 36,11 69,21 100,28l126 -126c35,11 73,22 111,30 20,5 41,9 62,13 123,21 240,16 291,-55 4,-7 8,-14 12,-21 26,-57 7,-124 -59,-200 -11,-13 -31,-11 -43,0z"/>
   <path class="fil1" d="M2161 2382l-16 16 -45 42 -13 13c-12,11 -12,30 -1,42 4,5 -1,11 -7,11 -37,0 -92,-7 -159,-23 -31,-8 -65,-17 -101,-29 -60,-19 -127,-43 -198,-75 -17,-8 -75,-33 -151,-60 -30,-11 -62,-21 -97,-32 -139,-42 -303,-72 -397,-25 -21,10 -39,24 -52,42 -40,57 -28,125 33,203 5,6 9,12 14,18 11,13 31,12 43,0l5 -5 69 -66c3,-2 4,-5 6,-8 5,-11 3,-24 -5,-34 -4,-5 1,-11 7,-11 12,0 26,1 42,2 29,3 63,9 102,18l-125 125c34,10 67,21 97,31 76,27 133,52 151,60 71,32 137,57 198,76 36,11 69,20 100,28l126 -126c36,11 73,22 111,30 20,5 41,9 62,13 124,21 240,16 291,-56 5,-6 8,-13 12,-20 26,-57 7,-124 -59,-200 -11,-13 -31,-12 -43,0z"/>
   <path class="fil1" d="M1839 2704l-16 16 -44 42 -14 12c-12,12 -11,30 -1,43 4,5 -1,11 -7,11 -37,0 -91,-8 -159,-24 -31,-7 -65,-16 -101,-28 -60,-19 -127,-44 -198,-75 -17,-8 -75,-33 -151,-60 -29,-11 -62,-22 -96,-32 -140,-42 -303,-72 -398,-25 -21,10 -39,24 -52,42 -42,61 -27,135 47,221 11,13 31,11 43,0l74 -71c3,-3 5,-5 6,-9 5,-10 3,-24 -5,-33 -4,-5 1,-12 7,-12 12,1 27,2 42,3 29,3 63,9 102,18l-201 201c-41,40 -48,102 -22,150l-112 112c-93,-17 -193,11 -265,83 -118,118 -118,309 0,426 117,118 308,118 425,0 73,-73 101,-174 83,-268l111 -111c49,26 110,19 151,-22l377 -377c173,53 390,93 464,-13 5,-7 9,-14 12,-21 26,-56 7,-123 -59,-199 -11,-13 -30,-12 -43,0zm-1404 893c-44,-44 -50,-112 -20,-163 6,-10 12,-19 20,-27 53,-52 138,-52 190,0 53,53 53,138 0,190 -8,8 -17,15 -26,20 -52,31 -119,25 -164,-20z"/>
   <path class="fil1" d="M2894 1697l-555 -554 -32 -32c-37,-38 -99,-38 -136,0l-71 71 -108 108c0,0 0,0 -1,0 -5,6 -10,13 -14,20 -22,37 -17,85 15,116l123 124 -352 352c34,10 66,21 96,32 76,27 134,52 151,60 71,31 138,56 198,75 36,11 70,21 101,28l177 -177 69 70 55 55c32,31 80,36 116,14 1,0 1,0 2,0 6,-4 13,-9 18,-14l179 -180c38,-37 38,-98 0,-136l-31 -32z"/>
  </g>
  <path class="fil0" d="M2179 3330l436 436c12,12 31,12 43,0l109 -109c12,-12 12,-31 0,-43l-436 -436c-12,-12 -31,-12 -43,0l-109 109c-12,12 -12,31 0,43zm790 -649l295 295c12,12 31,12 43,0l22 -22c12,-12 12,-32 0,-44l-294 -294c-12,-12 -32,-12 -44,0l-22 22c-12,12 -12,31 0,43zm-219 64l450 450c12,12 31,12 43,0l66 -65c12,-12 12,-32 0,-44l-450 -450c-12,-12 -32,-12 -44,0l-65 66c-12,12 -12,31 0,43zm-239 133l556 556c12,12 32,12 44,0l109 -109c12,-12 12,-32 0,-44l-556 -556c-12,-12 -32,-12 -44,0l-109 109c-12,12 -12,32 0,44zm-283 131l708 708c12,12 32,12 44,0l131 -130c12,-12 12,-32 0,-44l-709 -709c-12,-12 -31,-12 -44,0l-130 131c-12,12 -12,32 0,44z"/>
  <path class="fil1" d="M3672 2120l-512 512c-12,12 -12,32 0,44l109 109c12,12 32,12 44,0l512 -512c12,-12 12,-32 0,-44l-109 -109c-12,-12 -32,-12 -44,0zm404 -927l676 676c12,12 32,12 44,0l610 -610c12,-12 12,-32 0,-44l-676 -676c-12,-12 -32,-12 -44,0l-610 610c-12,12 -12,32 0,44zm-120 229l567 567c12,12 32,12 44,0l98 -98c12,-12 12,-32 0,-44l-567 -567c-12,-12 -32,-12 -44,0l-98 98c-12,12 -12,32 0,44zm-164 273l458 458c12,12 32,12 44,0l142 -142c12,-12 12,-32 0,-44l-458 -458c-12,-12 -32,-12 -44,0l-142 142c-12,12 -12,32 0,44zm-130 305l283 283c12,12 32,12 44,0l141 -141c12,-12 12,-32 0,-44l-283 -283c-12,-12 -32,-12 -44,0l-141 141c-12,12 -12,32 0,44z"/>
 </g>
</svg>
