<?xml version="1.0" encoding="UTF-8"?>
<!DOCTYPE svg PUBLIC "-//W3C//DTD SVG 1.1//EN" "http://www.w3.org/Graphics/SVG/1.1/DTD/svg11.dtd">
<!-- Creator: CorelDRAW X8 -->
<svg xmlns="http://www.w3.org/2000/svg" xml:space="preserve" width="17.6388mm" height="17.6388mm" version="1.1" style="shape-rendering:geometricPrecision; text-rendering:geometricPrecision; image-rendering:optimizeQuality; fill-rule:evenodd; clip-rule:evenodd"
viewBox="0 0 1764 1764"
 xmlns:xlink="http://www.w3.org/1999/xlink">
 <defs>
  <style type="text/css">
   <![CDATA[
    .fil1 {fill:#3C4654}
    .fil0 {fill:#E6E6E6}
   ]]>
  </style>
 </defs>
 <g id="Слой_x0020_1">
  <metadata id="CorelCorpID_0Corel-Layer"/>
  <path class="fil0" d="M882 176l0 0c-388,0 -706,318 -706,706l0 0c0,388 318,706 706,706l0 0c388,0 706,-318 706,-706l0 0c0,-388 -318,-706 -706,-706z"/>
  <path class="fil1" d="M882 212l0 0c-184,0 -352,75 -473,197 -122,121 -197,289 -197,473l0 0c0,184 75,352 197,473 121,122 289,197 473,197l0 0c184,0 352,-75 473,-197 122,-121 197,-289 197,-473l0 0c0,-184 -75,-352 -197,-473 -121,-122 -289,-197 -473,-197zm0 -36l0 0c-388,0 -706,318 -706,706l0 0c0,388 318,706 706,706l0 0c388,0 706,-318 706,-706l0 0c0,-388 -318,-706 -706,-706z"/>
 </g>
</svg>
