<?xml version="1.0" encoding="UTF-8"?>
<!DOCTYPE svg PUBLIC "-//W3C//DTD SVG 1.1//EN" "http://www.w3.org/Graphics/SVG/1.1/DTD/svg11.dtd">
<!-- Creator: CorelDRAW X8 -->
<svg xmlns="http://www.w3.org/2000/svg" xml:space="preserve" width="17.6388mm" height="17.6388mm" version="1.1" style="shape-rendering:geometricPrecision; text-rendering:geometricPrecision; image-rendering:optimizeQuality; fill-rule:evenodd; clip-rule:evenodd"
viewBox="0 0 1764 1764"
 xmlns:xlink="http://www.w3.org/1999/xlink">
 <defs>
  <style type="text/css">
   <![CDATA[
    .fil0 {fill:#009BC8}
    .fil1 {fill:#148AFC}
   ]]>
  </style>
 </defs>
 <g id="Слой_x0020_1">
  <metadata id="CorelCorpID_0Corel-Layer"/>
  <path class="fil0" d="M196 269c-19,0 -34,15 -34,33 0,15 9,27 22,32 50,18 120,34 173,49l176 835c-2,19 16,38 35,37l838 0c18,0 34,-16 34,-34 0,-17 -16,-34 -34,-33l-810 0 -29 -134 885 0c15,-1 29,-12 32,-27l118 -502c4,-20 -13,-41 -33,-41l-1122 0 -29 -135c-5,-25 -28,-31 -47,-36l-175 -44zm265 282l1066 0 -102 436 -872 0 -92 -436z" display="inline"/>
  <path class="fil1" d="M765 1287c-72,0 -131,59 -131,130 0,72 59,131 131,131 71,0 130,-59 130,-131 0,-71 -59,-130 -130,-130zm0 67c34,0 63,28 63,63 0,35 -29,64 -63,64 -35,0 -64,-29 -64,-64 0,-35 29,-63 64,-63z" display="inline"/>
  <path class="fil1" d="M1192 1287c-71,0 -130,59 -130,130 0,72 59,131 130,131 72,0 131,-59 131,-131 0,-71 -59,-130 -131,-130zm0 67c35,0 64,28 64,63 0,35 -29,64 -64,64 -34,0 -63,-29 -63,-64 0,-35 29,-63 63,-63z" display="inline"/>
 </g>
</svg>
