<?xml version="1.0" encoding="UTF-8"?>
<!DOCTYPE svg PUBLIC "-//W3C//DTD SVG 1.1//EN" "http://www.w3.org/Graphics/SVG/1.1/DTD/svg11.dtd">
<!-- Creator: CorelDRAW X8 -->
<svg xmlns="http://www.w3.org/2000/svg" xml:space="preserve" width="7.0554mm" height="7.0554mm" version="1.1" style="shape-rendering:geometricPrecision; text-rendering:geometricPrecision; image-rendering:optimizeQuality; fill-rule:evenodd; clip-rule:evenodd"
viewBox="0 0 706 706"
 xmlns:xlink="http://www.w3.org/1999/xlink">
 <defs>
  <style type="text/css">
   <![CDATA[
    .str0 {stroke:#7D7D7D;stroke-width:35.27}
    .fil0 {fill:#7D7D7D}
   ]]>
  </style>
 </defs>
 <g id="Слой_x0020_1">
  <metadata id="CorelCorpID_0Corel-Layer"/>
  <g id="_1929822943984">
   <path class="fil0 str0" d="M353 73c87,0 164,39 216,101l45 -26 -8 57 -7 56 -53 -22 -52 -22 47 -27c-4,-4 -8,-9 -12,-13 -45,-45 -108,-73 -176,-73 -69,0 -131,28 -176,73 -45,45 -73,107 -73,176 0,68 28,131 73,176 45,45 107,72 176,72 68,0 131,-27 176,-72 45,-45 72,-108 72,-176 0,-13 -1,-26 -2,-38l31 0c2,12 3,25 3,38 0,154 -126,280 -280,280 -155,0 -280,-126 -280,-280 0,-155 125,-280 280,-280z"/>
   <path class="fil0 str0" d="M318 219l31 0 0 138c14,5 24,16 29,29l97 0 0 31 -97 0c-6,19 -24,32 -44,32 -26,0 -47,-21 -47,-47 0,-21 13,-38 31,-45l0 -138z"/>
  </g>
 </g>
</svg>
