<?xml version="1.0" encoding="UTF-8"?>
<!DOCTYPE svg PUBLIC "-//W3C//DTD SVG 1.1//EN" "http://www.w3.org/Graphics/SVG/1.1/DTD/svg11.dtd">
<!-- Creator: CorelDRAW X8 -->
<svg xmlns="http://www.w3.org/2000/svg" xml:space="preserve" width="10.5832mm" height="10.5832mm" version="1.1" style="shape-rendering:geometricPrecision; text-rendering:geometricPrecision; image-rendering:optimizeQuality; fill-rule:evenodd; clip-rule:evenodd"
viewBox="0 0 1058 1058"
 xmlns:xlink="http://www.w3.org/1999/xlink">
 <defs>
  <style type="text/css">
   <![CDATA[
    .fil0 {fill:#BEBEBE}
   ]]>
  </style>
 </defs>
 <g id="Слой_x0020_1">
  <metadata id="CorelCorpID_0Corel-Layer"/>
  <path class="fil0" d="M169 141l85 0c16,0 28,13 28,28l0 85c0,16 -12,28 -28,28l-85 0c-15,0 -28,-12 -28,-28l0 -85c0,-15 13,-28 28,-28zm247 635l473 0c16,0 28,13 28,28l0 85c0,16 -12,28 -28,28l-473 0c-15,0 -28,-12 -28,-28l0 -85c0,-15 13,-28 28,-28zm-247 0l85 0c16,0 28,13 28,28l0 85c0,16 -12,28 -28,28l-85 0c-15,0 -28,-12 -28,-28l0 -85c0,-15 13,-28 28,-28zm247 -317l473 0c16,0 28,12 28,28l0 84c0,16 -12,29 -28,29l-473 0c-15,0 -28,-13 -28,-29l0 -84c0,-16 13,-28 28,-28zm-247 0l85 0c16,0 28,12 28,28l0 84c0,16 -12,29 -28,29l-85 0c-15,0 -28,-13 -28,-29l0 -84c0,-16 13,-28 28,-28zm247 -318l473 0c16,0 28,13 28,28l0 85c0,16 -12,28 -28,28l-473 0c-15,0 -28,-12 -28,-28l0 -85c0,-15 13,-28 28,-28z"/>
 </g>
</svg>
