<?xml version="1.0" encoding="UTF-8"?>
<!DOCTYPE svg PUBLIC "-//W3C//DTD SVG 1.1//EN" "http://www.w3.org/Graphics/SVG/1.1/DTD/svg11.dtd">
<!-- Creator: CorelDRAW X8 -->
<svg xmlns="http://www.w3.org/2000/svg" xml:space="preserve" width="10.5832mm" height="10.5832mm" version="1.1" style="shape-rendering:geometricPrecision; text-rendering:geometricPrecision; image-rendering:optimizeQuality; fill-rule:evenodd; clip-rule:evenodd"
viewBox="0 0 1058 1058"
 xmlns:xlink="http://www.w3.org/1999/xlink">
 <defs>
  <style type="text/css">
   <![CDATA[
    .fil0 {fill:#BEBEBE}
   ]]>
  </style>
 </defs>
 <g id="Слой_x0020_1">
  <metadata id="CorelCorpID_0Corel-Layer"/>
  <path class="fil0" d="M183 141l127 0c24,0 43,19 43,42l0 127c0,24 -19,43 -43,43l-127 0c-23,0 -42,-19 -42,-43l0 -127c0,-23 19,-42 42,-42zm565 565l127 0c23,0 42,19 42,42l0 127c0,23 -19,42 -42,42l-127 0c-23,0 -42,-19 -42,-42l0 -127c0,-23 19,-42 42,-42zm-282 0l127 0c23,0 42,19 42,42l0 127c0,23 -19,42 -42,42l-127 0c-24,0 -43,-19 -43,-42l0 -127c0,-23 19,-42 43,-42zm-283 0l127 0c24,0 43,19 43,42l0 127c0,23 -19,42 -43,42l-127 0c-23,0 -42,-19 -42,-42l0 -127c0,-23 19,-42 42,-42zm565 -283l127 0c23,0 42,19 42,43l0 127c0,23 -19,42 -42,42l-127 0c-23,0 -42,-19 -42,-42l0 -127c0,-24 19,-43 42,-43zm-282 0l127 0c23,0 42,19 42,43l0 127c0,23 -19,42 -42,42l-127 0c-24,0 -43,-19 -43,-42l0 -127c0,-24 19,-43 43,-43zm-283 0l127 0c24,0 43,19 43,43l0 127c0,23 -19,42 -43,42l-127 0c-23,0 -42,-19 -42,-42l0 -127c0,-24 19,-43 42,-43zm565 -282l127 0c23,0 42,19 42,42l0 127c0,24 -19,43 -42,43l-127 0c-23,0 -42,-19 -42,-43l0 -127c0,-23 19,-42 42,-42zm-282 0l127 0c23,0 42,19 42,42l0 127c0,24 -19,43 -42,43l-127 0c-24,0 -43,-19 -43,-43l0 -127c0,-23 19,-42 43,-42z"/>
 </g>
</svg>
