<?xml version="1.0" encoding="UTF-8"?>
<!DOCTYPE svg PUBLIC "-//W3C//DTD SVG 1.1//EN" "http://www.w3.org/Graphics/SVG/1.1/DTD/svg11.dtd">
<!-- Creator: CorelDRAW X8 -->
<svg xmlns="http://www.w3.org/2000/svg" xml:space="preserve" width="17.6388mm" height="17.6388mm" version="1.1" style="shape-rendering:geometricPrecision; text-rendering:geometricPrecision; image-rendering:optimizeQuality; fill-rule:evenodd; clip-rule:evenodd"
viewBox="0 0 1764 1764"
 xmlns:xlink="http://www.w3.org/1999/xlink">
 <defs>
  <style type="text/css">
   <![CDATA[
    .fil0 {fill:#23CFCF}
   ]]>
  </style>
 </defs>
 <g id="Слой_x0020_1">
  <metadata id="CorelCorpID_0Corel-Layer"/>
  <path class="fil0" d="M1232 885c2,-2 0,1 2,-4l5 -17c27,-1 46,-3 68,-12l44 -30c-14,-1 -30,3 -54,0l-49 -11c4,-2 10,-2 16,-3 6,-1 11,-2 17,-3 11,-3 19,-5 29,-10l37 -36c-17,6 -32,9 -56,9 -11,1 -52,0 -55,-10 -5,-12 -5,-23 -14,-46 -6,-14 -14,-27 -22,-40 -17,-25 -38,-46 -63,-62l-103 -29c6,-6 31,-11 40,-13 45,-12 41,-29 30,-32 -14,-4 -48,9 -64,14l28 -30c-29,3 -48,17 -70,31l9 -23c-27,10 -76,74 -89,100l-58 127c-5,-2 -39,-37 -65,-53 -23,-13 -53,-28 -79,-40 -63,-29 -108,-47 -172,-70 -4,56 33,87 78,118l-55 7c1,24 19,49 33,61 26,22 40,22 63,31l5 3c-38,6 -27,2 -60,24 1,15 34,47 58,52l55 7c-4,4 -10,6 -14,9 -6,4 -8,6 -12,11 -8,9 -11,19 -7,32l64 29c-3,7 -24,23 -31,28 -38,27 -81,45 -136,48 -38,1 -76,-6 -106,-18 -34,-14 -48,-25 -74,-45 8,13 25,31 36,42 100,106 261,165 430,135 103,-19 169,-54 230,-99 10,-7 33,-28 42,-37 26,-27 49,-56 67,-89 5,-11 22,-45 22,-56l0 0zm-350 -623c343,0 620,277 620,620 0,343 -277,620 -620,620 -343,0 -620,-277 -620,-620 0,-343 277,-620 620,-620l0 0z"/>
 </g>
</svg>
