<?xml version="1.0" encoding="UTF-8"?>
<!DOCTYPE svg PUBLIC "-//W3C//DTD SVG 1.1//EN" "http://www.w3.org/Graphics/SVG/1.1/DTD/svg11.dtd">
<!-- Creator: CorelDRAW X8 -->
<svg xmlns="http://www.w3.org/2000/svg" xml:space="preserve" width="42.3332mm" height="42.3332mm" version="1.1" style="shape-rendering:geometricPrecision; text-rendering:geometricPrecision; image-rendering:optimizeQuality; fill-rule:evenodd; clip-rule:evenodd"
viewBox="0 0 4233 4233"
 xmlns:xlink="http://www.w3.org/1999/xlink">
 <defs>
  <style type="text/css">
   <![CDATA[
    .fil0 {fill:#009BC8}
    .fil1 {fill:#FF910A}
   ]]>
  </style>
 </defs>
 <g id="Слой_x0020_1">
  <metadata id="CorelCorpID_0Corel-Layer"/>
  <path class="fil0" d="M2117 376c396,0 716,177 716,395 0,218 -320,396 -716,396 -396,0 -717,-178 -717,-396 0,-218 321,-395 717,-395zm0 181c214,0 387,96 387,214 0,118 -173,214 -387,214 -214,0 -388,-96 -388,-214 0,-118 174,-214 388,-214z"/>
  <path class="fil0" d="M2853 505c601,154 1018,490 1018,879 0,535 -785,968 -1754,968 -969,0 -1755,-433 -1755,-968 0,-389 417,-725 1018,-879 -82,56 -144,121 -180,193 -94,34 -182,73 -261,117 -275,152 -445,354 -445,569 0,216 170,418 445,570 299,165 715,267 1178,267 462,0 878,-102 1177,-267 275,-152 446,-354 446,-570 0,-215 -171,-417 -446,-569 -79,-44 -167,-83 -261,-117 -35,-72 -97,-137 -180,-193z"/>
  <path class="fil0" d="M3871 2861c0,9 0,19 0,29 0,9 0,18 0,28l0 29 -3 0c-54,508 -817,911 -1751,911 -934,0 -1698,-403 -1752,-911l-3 0 0 -57 0 -1209c232,413 930,740 1755,740 824,0 1521,-319 1754,-731l0 1171z"/>
  <path class="fil1" d="M3044 806c339,136 556,344 556,578 0,409 -664,741 -1483,741 -820,0 -1484,-332 -1484,-741 0,-230 210,-435 539,-571 -31,57 -47,119 -47,182 0,328 441,594 985,594 544,0 985,-266 985,-594 0,-66 -18,-130 -51,-189zm-191 1c44,55 69,116 69,180 0,247 -364,448 -814,448 -449,0 -813,-201 -813,-448 0,-80 38,-156 105,-221 0,2 0,3 0,5 0,17 2,33 5,49 -8,26 -13,52 -13,78 0,226 331,409 740,409 409,0 740,-183 740,-409 0,-31 -6,-62 -19,-91z"/>
 </g>
</svg>
