<?xml version="1.0" encoding="UTF-8"?>
<!DOCTYPE svg PUBLIC "-//W3C//DTD SVG 1.1//EN" "http://www.w3.org/Graphics/SVG/1.1/DTD/svg11.dtd">
<!-- Creator: CorelDRAW X8 -->
<svg xmlns="http://www.w3.org/2000/svg" xml:space="preserve" width="17.6388mm" height="17.6388mm" version="1.1" style="shape-rendering:geometricPrecision; text-rendering:geometricPrecision; image-rendering:optimizeQuality; fill-rule:evenodd; clip-rule:evenodd"
viewBox="0 0 1764 1764"
 xmlns:xlink="http://www.w3.org/1999/xlink">
 <defs>
  <style type="text/css">
   <![CDATA[
    .fil0 {fill:#4AB3F0}
   ]]>
  </style>
 </defs>
 <g id="Слой_x0020_1">
  <metadata id="CorelCorpID_0Corel-Layer"/>
  <path class="fil0" d="M1184 945c52,48 88,87 109,117 10,15 13,29 9,40 -3,12 -11,18 -23,18l-136 6c-19,1 -42,-11 -69,-35 -28,-25 -46,-45 -56,-62 -5,-9 -15,-15 -29,-16 -15,-1 -24,6 -28,21l-4 53c-1,11 -6,19 -12,24 -7,6 -13,9 -18,10 -5,0 -12,1 -23,3 -36,1 -67,-1 -94,-5 -26,-5 -50,-15 -72,-30 -22,-15 -40,-29 -53,-41 -13,-12 -31,-32 -56,-60 -67,-95 -117,-178 -150,-247 -12,-28 -19,-51 -20,-70 5,-6 16,-9 31,-10 15,-2 37,-2 65,-1 29,0 46,1 52,1 13,-2 24,6 32,22 34,77 68,136 101,178 22,21 36,17 43,-10 2,0 4,-33 4,-100 1,-43 -16,-69 -51,-80 8,-22 37,-33 86,-33 12,0 27,1 45,2 17,1 27,2 28,2 41,0 62,17 62,49 0,4 -1,14 -2,30 -2,16 -3,31 -3,45 -1,14 -1,30 -1,45 0,16 2,29 6,40 4,11 9,18 16,21 8,-6 15,-11 22,-16 7,-4 14,-12 21,-23 8,-11 14,-19 18,-25 4,-5 10,-16 18,-31 8,-15 13,-24 15,-28 1,-4 6,-15 14,-32 8,-17 12,-26 12,-26l3 -6c6,-12 10,-19 14,-21 3,-2 12,-3 25,-3l127 0c15,0 24,0 27,1 3,0 7,3 12,9 10,12 1,39 -25,80 -27,41 -53,75 -77,102 -34,38 -39,69 -15,92zm-302 -685c-341,0 -617,278 -617,622 0,344 276,622 617,622 341,0 617,-278 617,-622 0,-344 -276,-622 -617,-622z"/>
 </g>
</svg>
