<?xml version="1.0" encoding="UTF-8"?>
<!DOCTYPE svg PUBLIC "-//W3C//DTD SVG 1.1//EN" "http://www.w3.org/Graphics/SVG/1.1/DTD/svg11.dtd">
<!-- Creator: CorelDRAW X8 -->
<svg xmlns="http://www.w3.org/2000/svg" xml:space="preserve" width="17.6388mm" height="17.6388mm" version="1.1" style="shape-rendering:geometricPrecision; text-rendering:geometricPrecision; image-rendering:optimizeQuality; fill-rule:evenodd; clip-rule:evenodd"
viewBox="0 0 1764 1764"
 xmlns:xlink="http://www.w3.org/1999/xlink">
 <defs>
  <style type="text/css">
   <![CDATA[
    .fil0 {fill:#009BC8}
   ]]>
  </style>
 </defs>
 <g id="Слой_x0020_1">
  <metadata id="CorelCorpID_0Corel-Layer"/>
  <path class="fil0" d="M790 882c2,3 1,18 1,21l0 333 144 0c1,-88 0,-178 0,-265 0,-2 0,-86 1,-87 0,-2 0,-1 0,-2 0,0 92,1 95,0l2 0 12 -122 -109 0c0,-18 0,-36 0,-54 0,-16 0,-37 9,-46l100 -10 0 -121c-19,-1 -42,0 -61,0 -20,0 -40,-1 -59,1 -38,2 -68,13 -90,32 -32,51 -44,7 -44,198l-72 0 0 122 71 0zm92 -617c341,0 617,276 617,617 0,341 -276,617 -617,617 -341,0 -617,-276 -617,-617 0,-341 276,-617 617,-617l0 0z"/>
 </g>
</svg>
