<?xml version="1.0" encoding="UTF-8"?>
<!DOCTYPE svg PUBLIC "-//W3C//DTD SVG 1.1//EN" "http://www.w3.org/Graphics/SVG/1.1/DTD/svg11.dtd">
<!-- Creator: CorelDRAW X8 -->
<svg xmlns="http://www.w3.org/2000/svg" xml:space="preserve" width="17.6388mm" height="17.6388mm" version="1.1" style="shape-rendering:geometricPrecision; text-rendering:geometricPrecision; image-rendering:optimizeQuality; fill-rule:evenodd; clip-rule:evenodd"
viewBox="0 0 1764 1764"
 xmlns:xlink="http://www.w3.org/1999/xlink">
 <defs>
  <style type="text/css">
   <![CDATA[
    .fil0 {fill:#DB4B4B}
   ]]>
  </style>
 </defs>
 <g id="Слой_x0020_1">
  <metadata id="CorelCorpID_0Corel-Layer"/>
  <path class="fil0" d="M882 265c-341,0 -617,276 -617,617 0,341 276,617 617,617 341,0 617,-276 617,-617 0,-341 -276,-617 -617,-617zm-237 1183c-2,0 -5,-1 -7,-2 17,7 35,13 54,18 4,-17 25,-50 35,-69 48,-91 46,-136 76,-232 19,17 21,27 47,42 127,73 308,-12 380,-178 127,-296 -100,-582 -442,-519 -97,17 -161,56 -225,122 -162,171 -62,472 57,476 31,-127 16,-60 -17,-159 -20,-59 -17,-121 6,-175 95,-228 439,-219 506,5 17,58 12,130 -4,189 -36,130 -152,206 -235,151 -99,-65 43,-232 10,-333 -33,-97 -206,-50 -182,129 14,101 26,11 -9,166 -13,57 -27,115 -41,171 -18,75 -13,121 -9,198z"/>
 </g>
</svg>
