<?xml version="1.0" encoding="UTF-8"?>
<!DOCTYPE svg PUBLIC "-//W3C//DTD SVG 1.1//EN" "http://www.w3.org/Graphics/SVG/1.1/DTD/svg11.dtd">
<!-- Creator: CorelDRAW X8 -->
<svg xmlns="http://www.w3.org/2000/svg" xml:space="preserve" width="17.6388mm" height="17.6388mm" version="1.1" style="shape-rendering:geometricPrecision; text-rendering:geometricPrecision; image-rendering:optimizeQuality; fill-rule:evenodd; clip-rule:evenodd"
viewBox="0 0 1764 1764"
 xmlns:xlink="http://www.w3.org/1999/xlink">
 <defs>
  <style type="text/css">
   <![CDATA[
    .fil0 {fill:#E8762A}
   ]]>
  </style>
 </defs>
 <g id="Слой_x0020_1">
  <metadata id="CorelCorpID_0Corel-Layer"/>
  <g id="_1929705956560">
   <path class="fil0" d="M792 767c8,-17 11,-36 11,-55 -1,-48 -16,-91 -53,-123 -17,-16 -38,-25 -61,-23 -31,3 -50,22 -62,48 -12,28 -14,56 -8,86 8,39 25,73 58,98 43,32 94,18 115,-31z"/>
   <path class="fil0" d="M801 987c-33,-16 -68,-21 -104,-16 -36,4 -70,18 -97,43 -43,41 -41,98 4,136 31,25 67,34 106,34 2,0 5,0 7,0 43,-2 82,-14 114,-45 27,-25 39,-56 27,-92 -9,-29 -31,-47 -57,-60z"/>
   <path class="fil0" d="M1274 701c-42,0 -84,0 -126,0 -16,0 -14,-1 -14,15 0,37 0,75 0,112 0,3 0,6 0,9 -9,0 -17,0 -27,0 0,-6 0,-12 0,-18 0,-36 0,-73 1,-109 0,-7 -2,-9 -9,-9 -39,1 -77,1 -116,0 -4,0 -8,0 -12,0 0,-11 0,-22 0,-33 45,0 90,0 136,0 0,-44 0,-87 0,-131 9,0 17,0 26,0 1,4 1,8 1,11 0,37 0,74 0,111 0,7 1,9 8,9 43,0 85,0 127,0 2,0 3,-1 5,-1 0,11 0,23 0,34zm-416 487c-32,21 -68,34 -106,39 -54,8 -107,7 -160,-10 -36,-12 -68,-31 -87,-67 -26,-49 -22,-128 45,-168 35,-20 72,-31 112,-36 21,-2 42,-3 63,-4 2,0 3,-1 5,-1 0,-13 -4,-23 -15,-30 -8,-6 -11,-14 -11,-23 1,-12 1,-23 1,-36 -14,0 -26,1 -38,0 -34,-3 -65,-13 -91,-35 -20,-17 -32,-39 -39,-65 -8,-35 -8,-70 3,-104 13,-39 40,-66 75,-85 40,-21 83,-31 127,-31 59,0 117,0 175,0 2,0 4,0 7,0 0,8 -4,12 -10,13 -12,4 -25,7 -37,10 -11,2 -23,4 -34,6 -3,0 -5,3 -8,5 2,2 3,3 5,4 28,13 43,35 48,65 4,28 6,56 1,84 -4,29 -19,53 -41,73 -12,11 -24,22 -36,32 -1,1 -3,2 -4,3 -21,21 -22,40 -1,60 18,18 38,33 57,50 22,19 40,41 51,68 22,56 7,141 -57,183zm24 -928c-341,0 -617,278 -617,622 0,344 276,622 617,622 341,0 617,-278 617,-622 0,-344 -276,-622 -617,-622z"/>
  </g>
 </g>
</svg>
