<?xml version="1.0" encoding="UTF-8"?>
<!DOCTYPE svg PUBLIC "-//W3C//DTD SVG 1.1//EN" "http://www.w3.org/Graphics/SVG/1.1/DTD/svg11.dtd">
<!-- Creator: CorelDRAW X8 -->
<svg xmlns="http://www.w3.org/2000/svg" xml:space="preserve" width="17.6388mm" height="17.6388mm" version="1.1" style="shape-rendering:geometricPrecision; text-rendering:geometricPrecision; image-rendering:optimizeQuality; fill-rule:evenodd; clip-rule:evenodd"
viewBox="0 0 1764 1764"
 xmlns:xlink="http://www.w3.org/1999/xlink">
 <defs>
  <style type="text/css">
   <![CDATA[
    .fil0 {fill:#5B5BD4}
   ]]>
  </style>
 </defs>
 <g id="Слой_x0020_1">
  <metadata id="CorelCorpID_0Corel-Layer"/>
  <path class="fil0" d="M587 754l138 0 0 417 -138 0 0 -417zm216 0l139 0 0 59c3,-3 0,2 4,-4 19,-26 35,-44 68,-56 65,-23 143,-4 185,59 14,22 29,69 29,104l0 255 -138 0 0 -226c0,-107 -89,-105 -124,-71 -9,10 -24,32 -24,50l0 247 -139 0c0,-47 2,-85 2,-132l0 -255c0,-15 -2,-16 -2,-30zm-224 -124l0 -13c0,-86 154,-85 154,-3l0 19c0,42 -41,62 -86,62 -33,0 -68,-32 -68,-65zm-314 253c0,45 7,100 15,135 16,66 40,132 77,188 5,8 8,15 14,23 62,90 145,160 242,209 58,29 159,61 243,61 130,0 179,-11 287,-57 16,-6 34,-16 49,-25 39,-23 95,-65 128,-97l95 -125c50,-82 84,-193 84,-290 0,-113 -13,-197 -60,-290 -30,-60 -49,-89 -90,-136l-36 -39c-92,-92 -247,-175 -430,-175 -117,0 -257,40 -352,110 -16,12 -29,21 -44,34l-59 57c-28,27 -61,77 -82,111 -29,48 -52,112 -65,167 -9,40 -16,92 -16,139z"/>
 </g>
</svg>
