<?xml version="1.0" encoding="UTF-8"?>
<!DOCTYPE svg PUBLIC "-//W3C//DTD SVG 1.1//EN" "http://www.w3.org/Graphics/SVG/1.1/DTD/svg11.dtd">
<!-- Creator: CorelDRAW X8 -->
<svg xmlns="http://www.w3.org/2000/svg" xml:space="preserve" width="42.3332mm" height="42.3332mm" version="1.1" style="shape-rendering:geometricPrecision; text-rendering:geometricPrecision; image-rendering:optimizeQuality; fill-rule:evenodd; clip-rule:evenodd"
viewBox="0 0 4233 4233"
 xmlns:xlink="http://www.w3.org/1999/xlink">
 <defs>
  <style type="text/css">
   <![CDATA[
    .fil0 {fill:#009BC8}
    .fil1 {fill:#FF910A}
   ]]>
  </style>
 </defs>
 <g id="Слой_x0020_1">
  <metadata id="CorelCorpID_0Corel-Layer"/>
  <path class="fil0" d="M795 1056c260,-289 621,-490 1029,-548 12,70 32,184 60,345 7,39 29,73 63,98 35,26 80,40 118,38 257,-16 516,62 730,218 213,157 364,381 426,631 9,37 36,76 71,101 35,25 74,36 112,31 163,-21 278,-37 348,-46 10,61 17,124 20,187 25,471 -145,909 -437,1233 -292,325 -710,539 -1181,564 -471,24 -909,-145 -1233,-437 -325,-293 -539,-711 -563,-1181 -25,-471 144,-909 437,-1234zm141 369c-24,-28 -65,-31 -93,-7 -27,23 -31,65 -7,92 24,28 66,31 93,7 27,-23 31,-65 7,-92zm452 -189c-24,-28 -66,-31 -93,-7 -28,23 -31,65 -7,93 24,27 65,30 93,6 27,-23 30,-65 7,-92zm107 -487c-36,-3 -68,24 -70,61 -3,36 24,68 60,70 37,3 68,-24 71,-60 2,-37 -25,-68 -61,-71zm259 34c-36,-3 -67,24 -70,61 -3,36 24,68 61,70 36,3 68,-24 70,-61 3,-36 -24,-67 -61,-70zm1647 2034c24,27 66,31 93,7 28,-24 31,-65 7,-93 -24,-28 -65,-31 -93,-7 -27,24 -30,65 -7,93zm-65 -636c37,3 68,-24 71,-60 3,-37 -24,-68 -61,-71 -36,-3 -68,24 -70,61 -3,36 24,67 60,70zm-142 795c24,28 65,31 93,7 27,-23 30,-65 7,-93 -24,-27 -66,-30 -93,-6 -28,23 -31,65 -7,92zm32 -572c36,2 68,-25 71,-61 2,-36 -25,-68 -61,-71 -36,-2 -68,25 -71,61 -2,37 25,68 61,71zm-248 682c23,28 65,31 92,7 28,-24 31,-65 7,-93 -23,-28 -65,-31 -92,-7 -28,24 -31,65 -7,93zm-236 79c24,28 65,31 93,7 27,-24 30,-65 7,-93 -24,-27 -65,-30 -93,-7 -28,24 -31,66 -7,93zm-107 487c36,3 68,-25 70,-61 3,-36 -24,-68 -61,-70 -36,-3 -67,24 -70,60 -3,37 24,68 61,71zm-260 -34c36,3 68,-24 71,-61 2,-36 -25,-68 -61,-70 -36,-3 -68,24 -70,60 -3,37 24,68 60,71zm-230 -75c36,2 68,-25 70,-61 3,-36 -24,-68 -60,-71 -37,-2 -68,25 -71,61 -3,36 24,68 61,71zm-75 -366c269,-1 514,-112 689,-290 174,-176 283,-419 283,-686l0 -6c-2,-269 -113,-514 -290,-689 -176,-174 -420,-282 -687,-282l-5 0c-270,1 -514,112 -689,289 -175,176 -283,420 -283,687l0 6c1,269 112,513 290,689 176,174 420,282 687,282l5 0 0 0zm-148 255c36,3 68,-24 71,-61 2,-36 -25,-68 -61,-70 -36,-3 -68,24 -71,60 -2,37 25,68 61,71zm-481 198c24,27 66,30 93,7 28,-24 31,-66 7,-93 -24,-28 -65,-31 -93,-7 -27,24 -30,65 -7,93zm-159 -208c24,28 65,31 93,7 27,-24 30,-65 7,-93 -24,-27 -65,-30 -93,-7 -28,24 -31,66 -7,93zm-110 -216c24,27 66,31 93,7 28,-24 31,-65 7,-93 -24,-28 -65,-31 -93,-7 -27,24 -30,65 -7,93zm-79 -236c24,28 65,31 93,7 27,-23 31,-65 7,-92 -24,-28 -65,-31 -93,-7 -28,23 -31,65 -7,92zm-41 -1569c24,27 66,30 93,7 28,-24 31,-66 7,-93 -24,-28 -65,-31 -93,-7 -27,24 -30,65 -7,93zm-158 727c36,3 68,-24 70,-60 3,-37 -24,-68 -60,-71 -36,-3 -68,24 -71,61 -2,36 25,68 61,70zm-40 162c3,-36 -24,-68 -61,-70 -36,-3 -68,24 -70,60 -3,37 24,68 60,71 37,3 68,-25 71,-61zm-75 231c2,-37 -25,-68 -61,-71 -36,-3 -68,24 -71,61 -2,36 25,68 61,70 36,3 68,-24 71,-60zm-105 320c36,3 68,-25 71,-61 2,-36 -25,-68 -61,-70 -36,-3 -68,24 -71,60 -2,37 25,68 61,71zm-45 -1171c23,27 65,31 92,7 28,-24 31,-65 7,-93 -23,-28 -65,-31 -92,-7 -28,24 -31,65 -7,93z"/>
  <path class="fil0" d="M1189 2200c0,-240 97,-458 253,-616l0 0c158,-159 377,-258 618,-259l5 0c240,0 458,97 616,253 159,157 258,376 260,618l0 5c0,239 -97,457 -254,615 -157,160 -376,259 -617,260l-5 0c-240,0 -458,-97 -616,-253 -159,-157 -259,-376 -260,-618l0 -5zm876 -716c-57,0 -102,46 -102,102 0,57 45,102 102,102 56,0 102,-45 102,-102 0,-56 -46,-102 -102,-102zm594 661c57,0 102,-46 102,-102 0,-57 -45,-103 -102,-103 -56,0 -102,46 -102,103 0,56 46,102 102,102zm-223 656c56,0 102,-46 102,-102 0,-57 -46,-103 -102,-103 -57,0 -103,46 -103,103 0,56 46,102 103,102zm-371 -221c105,0 200,-43 268,-111 69,-69 111,-164 111,-269 0,-104 -42,-199 -111,-268 -68,-68 -163,-111 -268,-111 -105,0 -200,43 -268,111 -69,69 -112,164 -112,268 0,105 43,200 112,269 68,68 163,111 268,111zm-371 221c56,0 102,-46 102,-102 0,-57 -46,-103 -102,-103 -56,0 -102,46 -102,103 0,56 46,102 102,102zm-223 -656c56,0 102,-46 102,-102 0,-57 -46,-103 -102,-103 -57,0 -103,46 -103,103 0,56 46,102 103,102z"/>
  <path class="fil1" d="M3311 1815c-65,-261 -223,-506 -461,-683 -240,-175 -522,-252 -790,-236 -25,2 -78,-19 -85,-59 -22,-123 -66,-377 -72,-417 -7,-52 48,-87 66,-89 240,-22 477,5 707,84 52,11 104,6 151,-67 19,-25 64,-22 84,-13 94,42 185,91 273,148l0 -1c3,2 6,4 9,6 1,1 2,2 4,3 26,17 52,35 78,54 1,1 2,2 4,3 1,1 3,2 4,3 25,18 50,38 75,58 1,1 2,2 3,3 3,2 6,4 9,6l-1 1c81,67 155,139 222,216 15,17 32,58 14,83 -56,68 -45,119 -19,165 144,196 241,414 291,650 4,17 -13,80 -65,89 -39,7 -296,40 -419,56 -41,6 -76,-39 -82,-63zm-1060 -1283c-43,-31 -104,-22 -135,21 -32,43 -23,104 20,135 43,32 104,23 136,-20 31,-43 22,-104 -21,-136zm1235 1148c43,32 104,22 136,-21 31,-43 22,-103 -21,-135 -43,-32 -104,-22 -135,21 -32,43 -23,103 20,135z"/>
 </g>
</svg>
