<?xml version="1.0" encoding="UTF-8"?>
<!DOCTYPE svg PUBLIC "-//W3C//DTD SVG 1.1//EN" "http://www.w3.org/Graphics/SVG/1.1/DTD/svg11.dtd">
<!-- Creator: CorelDRAW X8 -->
<svg xmlns="http://www.w3.org/2000/svg" xml:space="preserve" width="7.0554mm" height="7.0554mm" version="1.1" style="shape-rendering:geometricPrecision; text-rendering:geometricPrecision; image-rendering:optimizeQuality; fill-rule:evenodd; clip-rule:evenodd"
viewBox="0 0 706 706"
 xmlns:xlink="http://www.w3.org/1999/xlink">
 <defs>
  <style type="text/css">
   <![CDATA[
    .fil0 {fill:white}
   ]]>
  </style>
 </defs>
 <g id="Слой_x0020_1">
  <metadata id="CorelCorpID_0Corel-Layer"/>
  <path class="fil0" d="M353 55c45,0 88,10 126,28 36,17 67,40 93,69l64 -37 -23 172 -159 -68 59 -33c-21,-20 -45,-36 -72,-47 -27,-11 -57,-17 -88,-17 -32,0 -62,6 -89,17 -28,12 -53,29 -75,50 -21,22 -38,47 -50,75 -11,27 -17,57 -17,89 0,31 6,61 17,88 12,28 29,54 50,75 22,22 47,39 75,50 27,12 57,18 89,18 31,0 61,-6 88,-18 28,-11 54,-28 75,-50 22,-21 39,-47 50,-75 12,-27 18,-57 18,-88 0,-6 0,-12 -1,-18l0 0 67 0c0,6 0,12 0,18 0,82 -33,156 -87,210 -54,54 -128,87 -210,87 -82,0 -157,-33 -211,-87 -54,-54 -87,-128 -87,-210 0,-82 33,-157 87,-211 54,-54 129,-87 211,-87zm-35 146l49 0 0 145c4,3 9,6 12,10 4,4 7,8 10,12l103 0 0 67 -103 0c-5,8 -11,14 -18,19 -11,8 -23,12 -37,12 -18,0 -34,-7 -46,-19 -12,-11 -19,-28 -19,-45 0,-14 4,-27 12,-37 5,-8 12,-14 19,-19l0 -145 18 0z"/>
 </g>
</svg>
