<?xml version="1.0" encoding="UTF-8"?>
<!DOCTYPE svg PUBLIC "-//W3C//DTD SVG 1.1//EN" "http://www.w3.org/Graphics/SVG/1.1/DTD/svg11.dtd">
<!-- Creator: CorelDRAW X8 -->
<svg xmlns="http://www.w3.org/2000/svg" xml:space="preserve" width="14.111mm" height="14.111mm" version="1.1" style="shape-rendering:geometricPrecision; text-rendering:geometricPrecision; image-rendering:optimizeQuality; fill-rule:evenodd; clip-rule:evenodd"
viewBox="0 0 1411 1411"
 xmlns:xlink="http://www.w3.org/1999/xlink">
 <defs>
  <style type="text/css">
   <![CDATA[
    .fil0 {fill:white}
   ]]>
  </style>
 </defs>
 <g id="Слой_x0020_1">
  <metadata id="CorelCorpID_0Corel-Layer"/>
  <path class="fil0" d="M706 185c-285,0 -516,233 -516,521 0,287 231,520 516,520 285,0 516,-233 516,-520 0,-288 -231,-521 -516,-521zm181 593c36,34 61,62 75,84 7,11 9,21 6,29 -2,8 -7,13 -16,13l-94 4c-13,1 -29,-7 -48,-25 -19,-18 -32,-33 -38,-45 -4,-6 -11,-10 -21,-11 -10,-1 -16,4 -19,14l-3 39c-1,8 -4,14 -9,18 -4,4 -8,6 -12,6 -3,1 -8,2 -16,3 -25,1 -46,-1 -65,-4 -18,-4 -35,-11 -50,-22 -15,-10 -27,-20 -36,-29 -9,-9 -22,-23 -39,-43 -47,-69 -81,-129 -104,-179 -9,-20 -14,-37 -14,-51 3,-4 10,-6 21,-7 10,-1 25,-1 45,-1 20,1 32,1 36,1 9,-1 17,4 23,16 23,55 47,98 69,129 15,15 25,12 30,-7 2,0 3,-25 3,-73 1,-31 -11,-50 -36,-58 6,-16 26,-24 60,-24 9,0 19,1 31,2 13,1 19,1 20,1 29,0 43,12 43,36 0,3 -1,10 -1,21 -1,12 -2,23 -3,33 0,10 0,21 0,33 0,11 1,21 4,29 3,7 7,12 11,14 6,-4 11,-7 15,-11 5,-3 10,-9 15,-17 5,-8 9,-14 12,-18 3,-4 7,-11 13,-22 6,-11 9,-18 10,-21 1,-2 4,-10 10,-22 6,-13 8,-19 8,-19l3 -4c3,-9 6,-15 9,-16 2,-2 8,-2 18,-2l88 0c10,0 16,0 18,0 2,1 5,3 9,7 6,9 0,28 -18,58 -19,30 -36,54 -53,74 -24,28 -27,50 -10,67z"/>
 </g>
</svg>
