<?xml version="1.0" encoding="UTF-8"?>
<!DOCTYPE svg PUBLIC "-//W3C//DTD SVG 1.1//EN" "http://www.w3.org/Graphics/SVG/1.1/DTD/svg11.dtd">
<!-- Creator: CorelDRAW X8 -->
<svg xmlns="http://www.w3.org/2000/svg" xml:space="preserve" width="14.111mm" height="14.111mm" version="1.1" style="shape-rendering:geometricPrecision; text-rendering:geometricPrecision; image-rendering:optimizeQuality; fill-rule:evenodd; clip-rule:evenodd"
viewBox="0 0 1411 1411"
 xmlns:xlink="http://www.w3.org/1999/xlink">
 <defs>
  <style type="text/css">
   <![CDATA[
    .fil0 {fill:white}
   ]]>
  </style>
 </defs>
 <g id="Слой_x0020_1">
  <metadata id="CorelCorpID_0Corel-Layer"/>
  <path class="fil0" d="M706 189c285,0 516,232 516,517 0,285 -231,516 -516,516 -285,0 -517,-231 -517,-516 0,-285 232,-517 517,-517l0 0zm-63 509c1,1 1,12 1,14l0 227 98 0c1,-59 0,-121 0,-181 0,-1 0,-58 0,-59 0,-1 0,-1 1,-1 0,0 62,0 65,0l1 -1 8 -83 -74 0c-1,-12 0,-25 0,-37 0,-11 -1,-25 6,-31l68 -7 0 -83c-13,-1 -28,0 -41,0 -14,0 -28,-1 -41,0 -26,2 -47,10 -61,22 -22,35 -31,5 -31,136l-49 0 0 84 49 0z"/>
 </g>
</svg>
