<?xml version="1.0" encoding="UTF-8"?>
<!DOCTYPE svg PUBLIC "-//W3C//DTD SVG 1.1//EN" "http://www.w3.org/Graphics/SVG/1.1/DTD/svg11.dtd">
<!-- Creator: CorelDRAW X8 -->
<svg xmlns="http://www.w3.org/2000/svg" xml:space="preserve" width="14.111mm" height="14.111mm" version="1.1" style="shape-rendering:geometricPrecision; text-rendering:geometricPrecision; image-rendering:optimizeQuality; fill-rule:evenodd; clip-rule:evenodd"
viewBox="0 0 1411 1411"
 xmlns:xlink="http://www.w3.org/1999/xlink">
 <defs>
  <style type="text/css">
   <![CDATA[
    .fil0 {fill:white}
   ]]>
  </style>
 </defs>
 <g id="Слой_x0020_1">
  <metadata id="CorelCorpID_0Corel-Layer"/>
  <path class="fil0" d="M706 185c-285,0 -516,233 -516,521 0,287 231,520 516,520 285,0 516,-233 516,-520 0,-288 -231,-521 -516,-521zm309 420c-31,0 -62,0 -93,0 -13,0 -11,-1 -11,10 0,28 0,56 0,84 0,2 0,4 0,7 -7,0 -13,0 -20,0 0,-5 0,-9 0,-14 0,-27 0,-54 0,-81 1,-5 -1,-6 -6,-6 -29,0 -58,0 -87,0 -2,0 -5,0 -8,0 0,-9 0,-17 0,-25 33,0 67,0 101,0 0,-33 0,-65 0,-97 7,0 13,0 20,0 0,2 0,5 0,8 0,27 0,55 0,82 0,5 1,7 6,7 32,0 63,0 95,0 1,0 2,-1 3,-1 0,9 0,17 0,26zm-310 363c-24,16 -50,25 -79,29 -40,6 -80,5 -119,-8 -27,-9 -51,-23 -65,-49 -19,-37 -17,-96 34,-126 26,-15 54,-23 83,-27 16,-1 32,-2 47,-3 2,0 3,0 4,0 0,-10 -3,-18 -11,-23 -6,-5 -8,-10 -8,-17 0,-9 0,-17 0,-27 -10,0 -19,1 -28,0 -25,-2 -48,-10 -68,-26 -15,-13 -24,-29 -29,-48 -6,-26 -6,-52 3,-78 9,-29 29,-49 55,-63 30,-16 62,-23 95,-23 44,-1 87,0 131,0 1,0 3,0 4,0 1,5 -3,8 -7,10 -9,2 -18,4 -28,6 -8,2 -17,3 -25,5 -2,1 -4,2 -6,4 2,1 3,2 4,3 21,9 32,26 36,48 3,21 4,42 1,63 -4,22 -15,40 -31,55 -9,8 -18,16 -27,24 -1,0 -2,1 -3,2 -16,15 -17,29 0,45 13,12 28,24 42,36 16,15 30,31 38,51 16,42 5,105 -43,137zm-49 -318c6,-13 9,-27 9,-42 -2,-35 -13,-67 -40,-91 -13,-12 -28,-19 -46,-17 -23,2 -37,16 -46,36 -9,20 -10,42 -6,63 6,30 19,55 44,74 32,23 69,13 85,-23zm7 163c-25,-12 -51,-15 -77,-11 -28,3 -53,13 -73,32 -32,30 -31,73 3,101 23,19 50,25 79,26 2,0 4,0 5,0 32,-2 62,-11 85,-34 20,-19 29,-42 20,-69 -7,-21 -23,-35 -42,-45z"/>
 </g>
</svg>
