<?xml version="1.0" encoding="UTF-8"?>
<!DOCTYPE svg PUBLIC "-//W3C//DTD SVG 1.1//EN" "http://www.w3.org/Graphics/SVG/1.1/DTD/svg11.dtd">
<!-- Creator: CorelDRAW X8 -->
<svg xmlns="http://www.w3.org/2000/svg" xml:space="preserve" width="14.111mm" height="14.111mm" version="1.1" style="shape-rendering:geometricPrecision; text-rendering:geometricPrecision; image-rendering:optimizeQuality; fill-rule:evenodd; clip-rule:evenodd"
viewBox="0 0 1411 1411"
 xmlns:xlink="http://www.w3.org/1999/xlink">
 <defs>
  <style type="text/css">
   <![CDATA[
    .fil0 {fill:white}
   ]]>
  </style>
 </defs>
 <g id="Слой_x0020_1">
  <metadata id="CorelCorpID_0Corel-Layer"/>
  <path class="fil0" d="M706 176c292,0 529,237 529,530 0,292 -237,529 -529,529 -293,0 -530,-237 -530,-529 0,-293 237,-530 530,-530zm-89 299c39,-2 190,-2 226,3 36,6 58,21 73,43 17,25 19,61 20,95 1,38 1,77 1,116 0,66 8,148 -47,184 -26,17 -59,19 -95,20 -43,2 -188,2 -226,-3 -36,-6 -59,-21 -74,-43 -17,-26 -18,-59 -20,-95 -1,-38 0,-77 0,-115 -1,-67 -9,-148 46,-185 29,-19 58,-17 96,-20zm-193 332c2,43 8,81 29,112 17,25 44,48 82,59 39,10 89,10 131,10 46,0 94,0 140,-1 44,-2 82,-8 113,-29 72,-48 69,-131 69,-213 0,-46 1,-94 -1,-140 -2,-44 -8,-82 -29,-113 -19,-29 -47,-49 -82,-59 -38,-10 -89,-10 -131,-10 -46,0 -93,0 -140,1 -44,2 -82,8 -113,29 -72,49 -68,131 -68,213 0,46 -2,95 0,141zm188 -94c-4,-54 37,-97 86,-101 54,-4 97,37 101,86 4,54 -37,97 -86,101 -54,4 -97,-37 -101,-86zm77 -151c-74,8 -137,74 -127,160 8,74 75,137 160,128 74,-9 138,-76 128,-161 -9,-74 -76,-137 -161,-127zm160 -35c-43,10 -30,75 14,66 16,-3 31,-19 26,-40 -3,-17 -20,-31 -40,-26z"/>
 </g>
</svg>
