<?xml version="1.0" encoding="UTF-8"?>
<!DOCTYPE svg PUBLIC "-//W3C//DTD SVG 1.1//EN" "http://www.w3.org/Graphics/SVG/1.1/DTD/svg11.dtd">
<!-- Creator: CorelDRAW X8 -->
<svg xmlns="http://www.w3.org/2000/svg" xml:space="preserve" width="14.111mm" height="14.111mm" version="1.1" style="shape-rendering:geometricPrecision; text-rendering:geometricPrecision; image-rendering:optimizeQuality; fill-rule:evenodd; clip-rule:evenodd"
viewBox="0 0 1411 1411"
 xmlns:xlink="http://www.w3.org/1999/xlink">
 <defs>
  <style type="text/css">
   <![CDATA[
    .fil0 {fill:#009BC8;fill-rule:nonzero}
   ]]>
  </style>
 </defs>
 <g id="Слой_x0020_1">
  <metadata id="CorelCorpID_0Corel-Layer"/>
  <path class="fil0" d="M649 385c69,0 132,28 178,74 45,45 73,108 73,177 0,64 -24,123 -64,167l164 166c13,14 13,36 -1,50 -14,13 -36,13 -49,0l-168 -170c-38,24 -84,38 -133,38 -69,0 -132,-28 -177,-73 -46,-46 -74,-109 -74,-178 0,-69 28,-132 74,-177l0 0c45,-46 108,-74 177,-74zm128 124c-33,-33 -78,-53 -128,-53 -50,0 -95,20 -128,52l0 1c-32,32 -52,77 -52,127 0,50 20,95 52,128l0 0c33,32 78,53 128,53 49,0 94,-20 126,-51l2 -2c32,-33 53,-78 53,-128 0,-50 -21,-95 -53,-127z"/>
 </g>
</svg>
