<?xml version="1.0" encoding="UTF-8"?>
<!DOCTYPE svg PUBLIC "-//W3C//DTD SVG 1.1//EN" "http://www.w3.org/Graphics/SVG/1.1/DTD/svg11.dtd">
<!-- Creator: CorelDRAW X8 -->
<svg xmlns="http://www.w3.org/2000/svg" xml:space="preserve" width="42.3332mm" height="42.3332mm" version="1.1" style="shape-rendering:geometricPrecision; text-rendering:geometricPrecision; image-rendering:optimizeQuality; fill-rule:evenodd; clip-rule:evenodd"
viewBox="0 0 4233 4233"
 xmlns:xlink="http://www.w3.org/1999/xlink">
 <defs>
  <style type="text/css">
   <![CDATA[
    .fil1 {fill:#009BC8}
    .fil0 {fill:#009BC8;fill-rule:nonzero}
   ]]>
  </style>
 </defs>
 <g id="Слой_x0020_1">
  <metadata id="CorelCorpID_0Corel-Layer"/>
  <g id="_1929695334496">
   <path class="fil0" d="M706 681l0 2857 2844 0 0 -2445 -1459 0 -29 0 -21 -21 -392 -391 -943 0zm-141 2927l0 -2997 0 -70 71 0 1042 -1 29 0 21 20 392 392 1501 0 71 0 0 70 0 2586 0 71 -71 0 -2985 0 -71 0 0 -71z"/>
   <polygon class="fil0" points="636,1438 3621,1438 3621,1579 636,1579 "/>
   <path class="fil1" d="M1947 1544l185 0 0 132 185 0 0 133 -185 0 0 123 185 0 0 132 -185 0 0 133 185 0 0 133 -185 0 0 132 -185 0 0 -132 185 0 0 -133 -185 0 0 -133 185 0 0 -123 -185 0 0 -132 185 0 0 -133 -185 0 0 -132zm0 981l370 0 0 342c0,102 -83,185 -185,185l0 0c-102,0 -185,-83 -185,-185l0 -342zm113 117l143 0 0 186c0,56 -32,101 -71,101l0 0c-40,0 -72,-45 -72,-101l0 -186z"/>
  </g>
 </g>
</svg>
