<?xml version="1.0" encoding="UTF-8"?>
<!DOCTYPE svg PUBLIC "-//W3C//DTD SVG 1.1//EN" "http://www.w3.org/Graphics/SVG/1.1/DTD/svg11.dtd">
<!-- Creator: CorelDRAW X8 -->
<svg xmlns="http://www.w3.org/2000/svg" xml:space="preserve" width="14.111mm" height="14.111mm" version="1.1" style="shape-rendering:geometricPrecision; text-rendering:geometricPrecision; image-rendering:optimizeQuality; fill-rule:evenodd; clip-rule:evenodd"
viewBox="0 0 1411 1411"
 xmlns:xlink="http://www.w3.org/1999/xlink">
 <defs>
  <style type="text/css">
   <![CDATA[
    .fil0 {fill:white}
   ]]>
  </style>
 </defs>
 <g id="Слой_x0020_1">
  <metadata id="CorelCorpID_0Corel-Layer"/>
  <path class="fil0" d="M557 217l684 685 3 343 -343 0 -682 -685c0,0 -115,-135 -5,-245 111,-110 123,-122 123,-122 0,0 122,-74 220,24zm324 882l79 -74 -513 -516 -80 74 514 516zm-577 -579l223 -206 -33 -34c-38,-37 -85,-23 -104,-15l-112 113c-48,47 -1,112 8,123l18 19zm286 -143l-78 72 514 516 79 -73 -515 -515zm563 592l-203 187 205 0 -2 -187zm-674 -490l481 483 -481 -483zm481 483l33 33 -33 -33z"/>
 </g>
</svg>
