<?xml version="1.0" encoding="UTF-8"?>
<!DOCTYPE svg PUBLIC "-//W3C//DTD SVG 1.1//EN" "http://www.w3.org/Graphics/SVG/1.1/DTD/svg11.dtd">
<!-- Creator: CorelDRAW X8 -->
<svg xmlns="http://www.w3.org/2000/svg" xml:space="preserve" width="14.111mm" height="14.111mm" version="1.1" style="shape-rendering:geometricPrecision; text-rendering:geometricPrecision; image-rendering:optimizeQuality; fill-rule:evenodd; clip-rule:evenodd"
viewBox="0 0 1411 1411"
 xmlns:xlink="http://www.w3.org/1999/xlink">
 <defs>
  <style type="text/css">
   <![CDATA[
    .fil0 {fill:white}
   ]]>
  </style>
 </defs>
 <g id="Слой_x0020_1">
  <metadata id="CorelCorpID_0Corel-Layer"/>
  <path class="fil0" d="M706 152c84,0 163,19 235,53 69,33 131,79 181,137l105 -60 -36 274 -255 -108 102 -58 -9 -8c-42,-43 -92,-77 -148,-100 -54,-22 -113,-34 -175,-34 -63,0 -122,12 -176,34 -56,23 -106,57 -148,100 -43,42 -77,92 -100,148 -22,54 -34,113 -34,176 0,62 12,121 34,175 23,56 57,106 100,148 42,43 92,77 148,100 54,22 113,35 176,35 62,0 121,-13 175,-35 56,-23 106,-57 148,-100 43,-42 77,-92 100,-148 22,-54 35,-113 35,-175l95 0c0,152 -62,291 -162,391 -100,100 -239,162 -391,162 -153,0 -292,-62 -392,-162 -100,-100 -162,-239 -162,-391 0,-153 62,-292 162,-392 100,-100 239,-162 392,-162zm-67 279l78 0 0 272c10,5 20,12 28,20 8,8 15,18 20,29l191 0 0 95 -191 0c-8,16 -19,30 -34,40 -18,12 -39,20 -62,20 -30,0 -57,-12 -76,-32 -19,-19 -31,-46 -31,-76 0,-23 7,-44 19,-62 11,-14 24,-26 40,-34l0 -272 18 0z"/>
 </g>
</svg>
