<?xml version="1.0" encoding="UTF-8"?>
<!DOCTYPE svg PUBLIC "-//W3C//DTD SVG 1.1//EN" "http://www.w3.org/Graphics/SVG/1.1/DTD/svg11.dtd">
<!-- Creator: CorelDRAW X8 -->
<svg xmlns="http://www.w3.org/2000/svg" xml:space="preserve" width="7.0554mm" height="7.0554mm" version="1.1" style="shape-rendering:geometricPrecision; text-rendering:geometricPrecision; image-rendering:optimizeQuality; fill-rule:evenodd; clip-rule:evenodd"
viewBox="0 0 706 706"
 xmlns:xlink="http://www.w3.org/1999/xlink">
 <defs>
  <style type="text/css">
   <![CDATA[
    .fil0 {fill:white}
   ]]>
  </style>
 </defs>
 <g id="Слой_x0020_1">
  <metadata id="CorelCorpID_0Corel-Layer"/>
  <path class="fil0" d="M458 427c-2,0 -5,2 -5,4 -6,23 -36,48 -100,48 -68,0 -95,-25 -101,-48 0,-2 -3,-4 -5,-4 -101,2 -173,83 -175,185 0,3 2,5 5,5l551 0c3,0 6,-2 6,-5 -3,-102 -75,-183 -176,-185zm-51 -330c-2,-1 -2,-1 -4,-1 -6,-2 -13,-4 -21,-5 -9,-2 -19,-3 -29,-3 -11,0 -23,1 -33,3 -65,13 -113,67 -113,178 0,2 0,4 0,6 0,1 0,1 0,1 0,2 0,4 0,6l0 0c0,2 0,4 0,6l0 1c8,73 62,162 125,162 6,0 29,0 36,0 66,0 124,-87 130,-168l0 -1c0,-1 0,-3 0,-6 0,0 0,0 0,-1 0,-2 0,-4 0,-6 0,-3 0,-5 0,-7 -1,-96 -38,-146 -91,-165z"/>
 </g>
</svg>
