<?xml version="1.0" encoding="UTF-8"?>
<!DOCTYPE svg PUBLIC "-//W3C//DTD SVG 1.1//EN" "http://www.w3.org/Graphics/SVG/1.1/DTD/svg11.dtd">
<!-- Creator: CorelDRAW X8 -->
<svg xmlns="http://www.w3.org/2000/svg" xml:space="preserve" width="17.6388mm" height="17.6388mm" version="1.1" style="shape-rendering:geometricPrecision; text-rendering:geometricPrecision; image-rendering:optimizeQuality; fill-rule:evenodd; clip-rule:evenodd"
viewBox="0 0 1764 1764"
 xmlns:xlink="http://www.w3.org/1999/xlink">
 <defs>
  <style type="text/css">
   <![CDATA[
    .fil0 {fill:#009BC8}
   ]]>
  </style>
 </defs>
 <g id="Слой_x0020_1">
  <metadata id="CorelCorpID_0Corel-Layer"/>
  <path class="fil0" d="M1094 1030c-5,0 -10,4 -11,9 -12,46 -72,95 -201,95 -137,0 -189,-49 -202,-95 -1,-5 -6,-9 -11,-9 -202,5 -346,166 -351,370 0,6 5,11 11,11l1106 0c6,0 11,-5 11,-11 -5,-204 -150,-365 -352,-370zm29 60c-16,27 -43,52 -82,70 -39,19 -92,31 -159,31 -70,0 -122,-12 -161,-30 -40,-19 -66,-44 -82,-71 -70,8 -131,40 -176,87 -44,47 -73,108 -84,177l1006 0c-11,-69 -41,-130 -85,-176 -45,-48 -106,-80 -177,-88z"/>
  <path class="fil0" d="M968 423l0 0 0 0zm16 -55c-14,-4 -28,-8 -43,-10 -19,-4 -39,-5 -59,-5 -23,0 -45,2 -67,6 -130,26 -227,132 -227,356 0,4 0,8 0,11 0,2 0,2 0,3 0,4 0,7 0,11l0 1c0,4 0,8 2,12l0 1c16,146 124,325 249,325 14,0 59,0 74,0 132,0 249,-174 261,-336l0 -2c0,-3 0,-7 0,-12 0,0 0,-1 0,-3 0,-3 0,-7 0,-12 0,-5 0,-9 0,-13 -2,-192 -78,-293 -184,-331 -3,-1 -4,-1 -6,-2zm-1 2l0 -2 0 2zm-17 53c-12,-4 -24,-7 -35,-9l-1 0c-8,-1 -15,-2 -23,-3 -7,0 -16,-1 -25,-1 -11,0 -20,1 -28,2 -8,0 -18,2 -29,4l0 -1c-53,11 -98,40 -130,89 -31,48 -49,117 -49,211l0 11 0 3 0 11 1 4 0 7c9,68 39,142 81,197 33,43 73,73 111,73l74 0c44,0 89,-31 125,-77 43,-56 72,-130 78,-203l0 -12 0 -3 0 -12 0 -13 1 0c-1,-81 -16,-142 -42,-187 -25,-46 -61,-74 -104,-90l-3 -1 -2 0z"/>
 </g>
</svg>
