<?xml version="1.0" encoding="UTF-8"?>
<!DOCTYPE svg PUBLIC "-//W3C//DTD SVG 1.1//EN" "http://www.w3.org/Graphics/SVG/1.1/DTD/svg11.dtd">
<!-- Creator: CorelDRAW X8 -->
<svg xmlns="http://www.w3.org/2000/svg" xml:space="preserve" width="17.6388mm" height="17.6388mm" version="1.1" style="shape-rendering:geometricPrecision; text-rendering:geometricPrecision; image-rendering:optimizeQuality; fill-rule:evenodd; clip-rule:evenodd"
viewBox="280 350 1200 1070"
 xmlns:xlink="http://www.w3.org/1999/xlink">
 <defs>
  <style type="text/css">
   <![CDATA[
    .fil0 {fill:#009BC8}
   ]]>
  </style>
 </defs>
 <g id="Слой_x0020_1">
  <metadata id="CorelCorpID_0Corel-Layer"/>
  <path class="fil0" d="M314 353c-16,0 -28,12 -28,28 0,12 7,22 18,26 41,14 99,27 143,40l146 691c-1,16 13,31 29,31l694 0c14,0 28,-13 28,-28 0,-15 -14,-28 -28,-28l-671 0 -24 -111 732 0c13,0 25,-9 27,-21l97 -417c4,-16 -10,-33 -26,-33l-929 0 -24 -112c-5,-21 -24,-26 -40,-30l-144 -36zm219 233l883 0 -85 361 -721 0 -77 -361z" display="inline"/>
  <path class="fil0" d="M785 1196c-60,0 -108,48 -108,107 0,60 48,108 108,108 59,0 107,-48 107,-108 0,-59 -48,-107 -107,-107zm0 55c28,0 52,23 52,52 0,29 -24,53 -52,53 -29,0 -53,-24 -53,-53 0,-29 24,-52 53,-52z" display="inline"/>
  <path class="fil0" d="M1139 1196c-60,0 -108,48 -108,107 0,60 48,108 108,108 59,0 108,-48 108,-108 0,-59 -49,-107 -108,-107zm0 55c29,0 52,23 52,52 0,29 -23,53 -52,53 -29,0 -53,-24 -53,-53 0,-29 24,-52 53,-52z" display="inline"/>
 </g>
</svg>
