<?xml version="1.0" encoding="UTF-8"?>
<!DOCTYPE svg PUBLIC "-//W3C//DTD SVG 1.1//EN" "http://www.w3.org/Graphics/SVG/1.1/DTD/svg11.dtd">
<!-- Creator: CorelDRAW X8 -->
<svg xmlns="http://www.w3.org/2000/svg" xml:space="preserve" width="17.6388mm" height="17.6388mm" version="1.1" style="shape-rendering:geometricPrecision; text-rendering:geometricPrecision; image-rendering:optimizeQuality; fill-rule:evenodd; clip-rule:evenodd"
viewBox="280 350 1200 1070"
 xmlns:xlink="http://www.w3.org/1999/xlink">
 <defs>
  <style type="text/css">
   <![CDATA[
    .fil0 {fill:#009BC8;fill-rule:nonzero}
   ]]>
  </style>
 </defs>
 <g id="Слой_x0020_1">
  <metadata id="CorelCorpID_0Corel-Layer"/>
  <path class="fil0" d="M882 353c146,0 278,59 374,155 96,96 155,228 155,374 0,146 -59,278 -155,374 -96,96 -228,155 -374,155 -146,0 -278,-59 -374,-155 -96,-96 -155,-228 -155,-374 0,-146 59,-278 155,-374 96,-96 228,-155 374,-155zm343 186c-88,-88 -209,-142 -343,-142 -134,0 -255,54 -343,142 -88,88 -142,209 -142,343 0,134 54,255 142,343 88,88 209,142 343,142 134,0 255,-54 343,-142 88,-88 142,-209 142,-343 0,-134 -54,-255 -142,-343z"/>
  <path class="fil0" d="M1084 1011c0,41 -16,74 -49,100 -33,27 -79,43 -138,50l0 109 -40 0 0 -107c-31,-1 -64,-4 -100,-11 -37,-6 -65,-14 -87,-23l0 -47c25,11 55,20 90,28 35,8 67,12 97,12l0 -237c-49,-13 -84,-27 -108,-41 -23,-13 -40,-29 -51,-48 -10,-18 -16,-41 -16,-68 0,-38 16,-70 48,-96 31,-27 74,-43 127,-49l0 -89 40 0 0 88c66,3 125,14 176,34l-16 41c-47,-19 -100,-30 -160,-33l0 225c72,21 121,43 147,67 27,24 40,56 40,95zm-55 -2c0,-26 -10,-48 -31,-65 -21,-17 -55,-32 -101,-44l0 219c41,-4 73,-16 97,-35 23,-19 35,-44 35,-75zm-292 -281c0,27 9,49 28,66 19,17 50,31 92,43l0 -210c-40,5 -70,16 -90,35 -20,19 -30,41 -30,66z"/>
 </g>
</svg>
