<?xml version="1.0" encoding="UTF-8"?>
<!DOCTYPE svg PUBLIC "-//W3C//DTD SVG 1.1//EN" "http://www.w3.org/Graphics/SVG/1.1/DTD/svg11.dtd">
<!-- Creator: CorelDRAW X8 -->
<svg xmlns="http://www.w3.org/2000/svg" xml:space="preserve" width="17.6388mm" height="17.6388mm" version="1.1" style="shape-rendering:geometricPrecision; text-rendering:geometricPrecision; image-rendering:optimizeQuality; fill-rule:evenodd; clip-rule:evenodd"
viewBox="280 350 1200 1070"
 xmlns:xlink="http://www.w3.org/1999/xlink">
 <defs>
  <style type="text/css">
   <![CDATA[
    .fil1 {fill:#009BC8}
    .fil0 {fill:#009BC8;fill-rule:nonzero}
   ]]>
  </style>
 </defs>
 <g id="Слой_x0020_1">
  <metadata id="CorelCorpID_0Corel-Layer"/>
  <rect class="fil0" x="353" y="1341" width="1058.33" height="70.56"/>
  <path class="fil0" d="M1068 622l0 280 132 0 67 0 -48 46 -318 306 -19 18 -19 -18 -318 -306 -48 -46 67 0 132 0 0 -280 0 -27 27 0 318 0 27 0 0 27zm-54 307l0 -280 -264 0 0 280 0 26 -27 0 -93 0 252 243 252 -243 -93 0 -27 0 0 -26z"/>
  <rect class="fil1" x="696" y="474" width="371.82" height="52.91"/>
  <rect class="fil1" x="696" y="353" width="371.82" height="52.91"/>
  <rect class="fil1" x="353" y="1235" width="52.92" height="176.39"/>
  <rect class="fil1" x="1358" y="1235" width="52.91" height="176.39"/>
 </g>
</svg>
