<?xml version="1.0" encoding="UTF-8"?>
<!DOCTYPE svg PUBLIC "-//W3C//DTD SVG 1.1//EN" "http://www.w3.org/Graphics/SVG/1.1/DTD/svg11.dtd">
<!-- Creator: CorelDRAW X8 -->
<svg xmlns="http://www.w3.org/2000/svg" xml:space="preserve" width="14.111mm" height="14.111mm" version="1.1" style="shape-rendering:geometricPrecision; text-rendering:geometricPrecision; image-rendering:optimizeQuality; fill-rule:evenodd; clip-rule:evenodd"
viewBox="0 0 1411 1411"
 xmlns:xlink="http://www.w3.org/1999/xlink">
 <defs>
  <style type="text/css">
   <![CDATA[
    .fil0 {fill:#009BC8;fill-rule:nonzero}
   ]]>
  </style>
 </defs>
 <g id="Слой_x0020_1">
  <metadata id="CorelCorpID_0Corel-Layer"/>
  <path class="fil0" d="M1051 197c2,-2 3,-4 5,-5 2,-2 4,-4 7,-5 5,-3 11,-5 19,-5l60 0 -790 1031c-3,5 -8,9 -13,12 -5,2 -11,4 -18,4l-61 0c253,-331 525,-721 791,-1032zm-64 496c67,0 128,30 172,77 43,47 70,111 70,182 0,71 -27,136 -70,182 -44,48 -105,77 -172,77 -68,0 -129,-29 -173,-77 -43,-46 -70,-111 -70,-182 0,-71 27,-135 70,-182 44,-47 105,-77 173,-77zm120 125c-30,-34 -73,-54 -120,-54 -47,0 -90,20 -121,54 -32,34 -51,82 -51,134 0,53 19,101 51,135 31,33 74,54 121,54 47,0 90,-21 120,-54 32,-34 52,-82 52,-135 0,-52 -20,-100 -52,-134zm-683 -634c68,0 129,29 173,77 43,47 70,111 70,182 0,71 -27,135 -70,182 -44,48 -105,77 -173,77 -67,0 -128,-29 -172,-77 -43,-47 -70,-111 -70,-182 0,-71 27,-135 70,-182 44,-48 105,-77 172,-77zm121 125c-31,-34 -73,-55 -121,-55 -47,0 -89,21 -120,55 -32,34 -52,81 -52,134 0,53 20,100 52,134 31,34 73,54 120,54 48,0 90,-20 121,-54 32,-34 51,-81 51,-134 0,-53 -19,-100 -51,-134z"/>
 </g>
</svg>
