<?xml version="1.0" encoding="UTF-8"?>
<!DOCTYPE svg PUBLIC "-//W3C//DTD SVG 1.1//EN" "http://www.w3.org/Graphics/SVG/1.1/DTD/svg11.dtd">
<!-- Creator: CorelDRAW X8 -->
<svg xmlns="http://www.w3.org/2000/svg" xml:space="preserve" width="24.6944mm" height="24.6944mm" version="1.1" style="shape-rendering:geometricPrecision; text-rendering:geometricPrecision; image-rendering:optimizeQuality; fill-rule:evenodd; clip-rule:evenodd"
viewBox="0 0 2469 2469"
 xmlns:xlink="http://www.w3.org/1999/xlink">
 <defs>
  <style type="text/css">
   <![CDATA[
    .fil0 {fill:#24C812;fill-rule:nonzero}
   ]]>
  </style>
 </defs>
 <g id="Слой_x0020_1">
  <metadata id="CorelCorpID_0Corel-Layer"/>
  <path class="fil0" d="M781 962c79,-96 119,-167 132,-226 12,-53 1,-98 -22,-146 -27,-57 -52,-100 -81,-140 -29,-40 -63,-79 -107,-127 -27,-28 -43,-43 -55,-46 -12,-3 -33,3 -69,17l0 0c-91,33 -179,98 -236,187 -47,75 -72,166 -58,269l3 16c47,281 288,659 594,956 302,294 664,508 956,466l11 -2c74,-13 138,-53 190,-108 63,-65 112,-152 146,-241 -14,-40 -44,-82 -83,-122 -50,-52 -115,-99 -180,-133 -57,-30 -112,-36 -168,-17 -60,21 -123,72 -192,153l-28 33 -39 -22c-160,-94 -298,-201 -417,-319 -119,-118 -219,-248 -302,-388l-19 -32 24 -28zm235 -203c-16,68 -55,145 -130,240 74,121 163,233 266,336 104,103 223,197 360,281 70,-76 139,-126 208,-150 84,-29 167,-21 251,23 75,39 149,93 207,153 56,57 98,121 114,183l4 16 -5 16c-40,107 -98,213 -176,294 -67,71 -150,122 -248,139l-14 2c-329,48 -722,-180 -1045,-494 -320,-312 -573,-712 -624,-1015l-3 -18c-19,-130 13,-246 73,-340 70,-110 178,-190 289,-231 56,-20 91,-28 130,-19 38,9 66,33 107,77 47,50 83,91 116,136 32,46 60,94 90,157 33,68 48,134 30,214z"/>
 </g>
</svg>
