<?xml version="1.0" encoding="UTF-8"?>
<!DOCTYPE svg PUBLIC "-//W3C//DTD SVG 1.1//EN" "http://www.w3.org/Graphics/SVG/1.1/DTD/svg11.dtd">
<!-- Creator: CorelDRAW X8 -->
<svg xmlns="http://www.w3.org/2000/svg" xml:space="preserve" width="35.2776mm" height="35.2776mm" version="1.1" style="shape-rendering:geometricPrecision; text-rendering:geometricPrecision; image-rendering:optimizeQuality; fill-rule:evenodd; clip-rule:evenodd"
viewBox="0 0 3528 3528"
 xmlns:xlink="http://www.w3.org/1999/xlink"
 enable-background="new 0 0 20 20">
 <defs>
  <style type="text/css">
   <![CDATA[
    .fil0 {fill:black}
   ]]>
  </style>
 </defs>
 <g id="Слой_x0020_1">
  <metadata id="CorelCorpID_0Corel-Layer"/>
  <polygon class="fil0" points="3038,2445 2801,2683 2801,1764 2505,1764 2505,2683 2268,2445 2060,2653 2653,3246 3246,2653 "/>
  <path class="fil0" d="M282 1616l1334 0 0 -1334 -1334 0 0 1334zm297 -1037l740 0 0 740 -740 0 0 -740z"/>
  <path class="fil0" d="M282 3246l1334 0 0 -1334 -1334 0 0 1334zm297 -1038l740 0 0 741 -740 0 0 -741z"/>
  <rect class="fil0" x="2505" y="282" width="296" height="445"/>
  <rect class="fil0" x="2505" y="1023" width="296" height="445"/>
 </g>
</svg>
