<?xml version="1.0" encoding="UTF-8"?>
<!DOCTYPE svg PUBLIC "-//W3C//DTD SVG 1.1//EN" "http://www.w3.org/Graphics/SVG/1.1/DTD/svg11.dtd">
<!-- Creator: CorelDRAW X8 -->
<svg xmlns="http://www.w3.org/2000/svg" xml:space="preserve" width="42.3332mm" height="42.3332mm" version="1.1" style="shape-rendering:geometricPrecision; text-rendering:geometricPrecision; image-rendering:optimizeQuality; fill-rule:evenodd; clip-rule:evenodd"
viewBox="0 0 4233 4233"
 xmlns:xlink="http://www.w3.org/1999/xlink">
 <defs>
  <style type="text/css">
   <![CDATA[
    .fil0 {fill:#009BC8}
   ]]>
  </style>
 </defs>
 <g id="Слой_x0020_1">
  <metadata id="CorelCorpID_0Corel-Layer"/>
  <path class="fil0" d="M1059 564l1599 0 693 694 0 1404 -2433 0 0 -1957c0,-77 64,-141 141,-141zm556 2659c22,0 41,-3 57,-9 16,-6 30,-14 41,-24 11,-11 20,-23 25,-38 6,-14 9,-30 9,-47 0,-36 -11,-65 -33,-85 -21,-20 -54,-30 -99,-30l-88 0 0 233 88 0zm0 -294c35,0 66,4 92,13 25,8 47,20 64,35 17,15 30,34 38,55 8,22 12,46 12,73 0,26 -4,50 -13,72 -9,22 -22,40 -40,56 -17,16 -38,28 -64,37 -26,9 -55,13 -89,13l-88 0 0 212 -75 0 0 -566 163 0zm780 283c0,43 -7,81 -20,116 -13,35 -32,64 -56,89 -23,25 -52,44 -86,58 -33,13 -70,20 -111,20l-207 0 0 -566 207 0c41,0 78,7 111,21 34,13 63,32 86,57 24,25 43,55 56,90 13,34 20,73 20,115zm-77 0c0,-34 -5,-65 -14,-93 -9,-27 -22,-50 -39,-69 -17,-19 -38,-34 -62,-44 -24,-10 -51,-15 -81,-15l-132 0 0 442 132 0c30,0 57,-5 81,-15 24,-10 45,-25 62,-43 17,-19 30,-42 39,-70 9,-27 14,-58 14,-93zm259 -220l0 197 227 0 0 63 -227 0 0 243 -75 0 0 -566 341 0 0 63 -266 0zm-113 -1168c-100,-107 -205,-263 -279,-416 73,-309 24,-371 8,-392 -17,-22 -42,-34 -69,-34 -12,0 -24,2 -37,6 -31,11 -55,33 -69,65 -39,91 14,246 69,365 -47,187 -125,410 -208,591 -208,95 -319,189 -329,278 -3,33 4,80 62,123 15,12 34,18 53,18 48,0 96,-37 153,-116 41,-57 85,-136 131,-233 147,-64 329,-123 484,-155 87,83 165,125 232,125 49,0 91,-22 122,-65 32,-45 39,-85 21,-119 -21,-41 -73,-61 -159,-61 -51,0 -113,7 -185,20zm185 73c49,0 69,7 75,10 -1,4 -4,12 -12,23 -17,24 -34,27 -47,27 -29,0 -69,-19 -114,-53 37,-5 70,-7 98,-7zm-646 60c56,-133 107,-280 147,-416 62,111 136,218 210,305 -117,27 -242,66 -357,111zm-361 340c4,-30 52,-84 169,-150 -89,164 -137,186 -145,188 -26,-19 -24,-33 -24,-38zm480 -1222c8,12 18,62 0,178 -22,-68 -33,-130 -19,-163 4,-9 8,-12 13,-14 3,-1 5,-1 6,-1zm1120 253l-645 -645 0 645 645 0zm109 1459l0 776c0,78 -63,141 -141,141l-2151 0c-77,0 -141,-63 -141,-141l0 -776 2433 0z"/>
 </g>
</svg>
