<?xml version="1.0" encoding="UTF-8"?>
<!DOCTYPE svg PUBLIC "-//W3C//DTD SVG 1.1//EN" "http://www.w3.org/Graphics/SVG/1.1/DTD/svg11.dtd">
<!-- Creator: CorelDRAW X8 -->
<svg xmlns="http://www.w3.org/2000/svg" xml:space="preserve" width="35.2776mm" height="35.2776mm" version="1.1" style="shape-rendering:geometricPrecision; text-rendering:geometricPrecision; image-rendering:optimizeQuality; fill-rule:evenodd; clip-rule:evenodd"
viewBox="0 0 3528 3528"
 xmlns:xlink="http://www.w3.org/1999/xlink"
 enable-background="new 0 0 100 57.326">
 <defs>
  <style type="text/css">
   <![CDATA[
    .fil0 {fill:#010101}
   ]]>
  </style>
 </defs>
 <g id="Слой_x0020_1">
  <metadata id="CorelCorpID_0Corel-Layer"/>
  <g id="_1929742194160">
   <path class="fil0" d="M2926 1891c-411,-410 -829,-606 -1243,-581 -628,36 -1049,561 -1054,566l-276 -219c21,-26 525,-654 1309,-699 520,-31 1029,199 1513,684l-249 249z"/>
   <path class="fil0" d="M1771 2573c-319,0 -579,-260 -579,-579 0,-319 260,-579 579,-579 319,0 578,260 578,579 0,319 -259,579 -578,579zm0 -805c-125,0 -226,101 -226,226 0,125 101,226 226,226 124,0 226,-101 226,-226 0,-125 -102,-226 -226,-226z"/>
  </g>
  <g id="_1929742194384">
   <rect class="fil0" y="10" width="3528" height="420"/>
   <rect class="fil0" y="3097" width="3528" height="420"/>
  </g>
 </g>
</svg>
