<?xml version="1.0" encoding="UTF-8"?>
<!DOCTYPE svg PUBLIC "-//W3C//DTD SVG 1.1//EN" "http://www.w3.org/Graphics/SVG/1.1/DTD/svg11.dtd">
<!-- Creator: CorelDRAW X8 -->
<svg xmlns="http://www.w3.org/2000/svg" xml:space="preserve" width="35.2776mm" height="35.2776mm" version="1.1" style="shape-rendering:geometricPrecision; text-rendering:geometricPrecision; image-rendering:optimizeQuality; fill-rule:evenodd; clip-rule:evenodd"
viewBox="0 0 3528 3528"
 xmlns:xlink="http://www.w3.org/1999/xlink">
 <defs>
  <style type="text/css">
   <![CDATA[
    .fil0 {fill:black}
   ]]>
  </style>
 </defs>
 <g id="Слой_x0020_1">
  <metadata id="CorelCorpID_0Corel-Layer"/>
  <g id="_1929820752144">
   <path class="fil0" d="M1307 3038l762 381c25,13 50,17 76,17 30,0 63,-8 89,-25 51,-30 80,-85 80,-144l0 -1380 758 -949 110 0c93,0 191,-76 191,-169l0 -508c0,-93 -98,-169 -191,-169l-2836 0c-93,0 -191,76 -191,169l0 508c0,93 98,169 191,169l110 0 758 949 0 999c0,63 38,122 93,152zm-813 -2608l2540 0 0 170 -42 0 -2498 0 0 0 0 -170zm394 508l1752 0 -626 784c-26,29 -38,67 -38,105l0 1165 -424 -212 0 -953c0,-38 -12,-76 -38,-105l-626 -784z"/>
  </g>
 </g>
</svg>
