<?xml version="1.0" encoding="UTF-8"?>
<!DOCTYPE svg PUBLIC "-//W3C//DTD SVG 1.1//EN" "http://www.w3.org/Graphics/SVG/1.1/DTD/svg11.dtd">
<!-- Creator: CorelDRAW X8 -->
<svg xmlns="http://www.w3.org/2000/svg" xml:space="preserve" width="49.3888mm" height="42.3332mm" version="1.1" style="shape-rendering:geometricPrecision; text-rendering:geometricPrecision; image-rendering:optimizeQuality; fill-rule:evenodd; clip-rule:evenodd"
viewBox="0 0 4939 4233"
 xmlns:xlink="http://www.w3.org/1999/xlink">
 <defs>
  <style type="text/css">
   <![CDATA[
    .fil1 {fill:#009BC8}
    .fil0 {fill:#FF910A}
   ]]>
  </style>
 </defs>
 <g id="Слой_x0020_1">
  <metadata id="CorelCorpID_0Corel-Layer"/>
  <path class="fil0" d="M1252 2416c44,12 51,64 51,64l2 -2c24,-29 289,-345 513,-613l-472 876 -130 179c-21,28 -15,67 12,87 28,21 67,15 87,-13l1860 -2542c21,-27 15,-66 -12,-87 -26,-19 -61,-15 -82,7l0 0c-254,269 -733,840 -982,1033 -42,32 -445,520 -847,1011zm1534 -1642c-223,236 -458,501 -649,713 -220,243 -412,620 -591,981l1240 -1694z"/>
  <path class="fil1" d="M255 3712l28 0 0 -70 -108 0c-34,0 -62,-28 -62,-63l0 -89c0,-34 28,-62 62,-62l253 0c89,-111 436,-538 791,-972l33 -40c44,12 51,64 51,64 0,0 6,86 -17,136 -24,50 -587,1011 -702,1023l0 0 0 0c-6,2 -12,3 -19,3l-96 0 0 70 36 0c92,0 167,76 167,169l0 0 -584 0 0 0c0,-93 75,-169 167,-169z"/>
  <path class="fil0" d="M2915 2416c44,12 51,64 51,64l2 -2c24,-29 289,-345 513,-613l-472 876 -130 179c-21,28 -15,67 13,87 27,21 66,15 86,-13l1861 -2542c20,-27 14,-66 -13,-87 -26,-19 -61,-15 -82,7l0 0c-254,269 -733,840 -982,1033 -42,32 -445,520 -847,1011zm1534 -1642c-223,236 -458,501 -649,713 -220,243 -412,620 -591,981l1240 -1694z"/>
  <path class="fil1" d="M1918 3712l28 0 0 -70 -108 0c-34,0 -62,-28 -62,-63l0 -89c0,-34 28,-62 62,-62l253 0c89,-111 436,-538 791,-972l33 -40c44,12 51,64 51,64 0,0 6,86 -17,136 -24,50 -587,1011 -702,1023l0 0 0 0c-6,2 -12,3 -19,3l-96 0 0 70 36 0c92,0 167,76 167,169l0 0 -584 0 0 0c0,-93 76,-169 167,-169z"/>
 </g>
</svg>
