<?xml version="1.0" encoding="UTF-8"?>
<!DOCTYPE svg PUBLIC "-//W3C//DTD SVG 1.1//EN" "http://www.w3.org/Graphics/SVG/1.1/DTD/svg11.dtd">
<!-- Creator: CorelDRAW X7 -->
<svg xmlns="http://www.w3.org/2000/svg" xml:space="preserve" width="0.555551in" height="0.555551in" version="1.1" style="shape-rendering:geometricPrecision; text-rendering:geometricPrecision; image-rendering:optimizeQuality; fill-rule:evenodd; clip-rule:evenodd"
viewBox="0 0 556 556"
 xmlns:xlink="http://www.w3.org/1999/xlink">
 <defs>
  <style type="text/css">
   <![CDATA[
    .fil0 {fill:#333333}
   ]]>
  </style>
 </defs>
 <g id="Слой_x0020_1">
  <metadata id="CorelCorpID_0Corel-Layer"/>
  <path class="fil0" d="M76 125l56 0c6,-24 28,-41 54,-41 26,0 47,17 53,41l240 0 0 28 -240 0c-6,24 -27,41 -53,41 -26,0 -48,-17 -54,-41l-56 0 0 -28zm0 278l137 0c6,-24 28,-42 53,-42 26,0 48,18 54,42l159 0 0 27 -159 0c-6,24 -28,42 -54,42 -25,0 -47,-18 -53,-42l-137 0 0 -27zm210 -6c-5,-5 -12,-8 -20,-8 -7,0 -14,3 -19,8l0 0c-5,5 -8,12 -8,20 0,7 3,14 8,19l0 0c5,5 12,8 19,8 8,0 15,-3 20,-8l0 0c5,-5 8,-12 8,-19 0,-8 -3,-15 -8,-20zm-210 -133l242 0c6,-24 27,-42 53,-42 26,0 48,18 54,42l54 0 0 27 -54 0c-6,24 -28,42 -54,42 -25,0 -47,-18 -53,-42l-242 0 0 -27zm315 -6c-5,-5 -12,-8 -20,-8 -7,0 -14,3 -19,8l0 0c-5,5 -8,12 -8,20 0,7 3,14 8,19l0 0c5,5 12,8 19,8 8,0 15,-3 20,-8l0 0c5,-5 8,-12 8,-19 0,-8 -3,-15 -8,-20zm-186 -139c-5,-5 -12,-8 -19,-8 -8,0 -15,3 -20,8l0 0c-5,5 -8,12 -8,20 0,8 3,14 8,19l0 0c5,5 12,8 20,8 7,0 14,-3 19,-8l0 0c5,-5 8,-11 8,-19 0,-8 -3,-15 -8,-20z"/>
 </g>
</svg>
