<?xml version="1.0" encoding="UTF-8"?>
<!DOCTYPE svg PUBLIC "-//W3C//DTD SVG 1.1//EN" "http://www.w3.org/Graphics/SVG/1.1/DTD/svg11.dtd">
<!-- Creator: CorelDRAW X7 -->
<svg xmlns="http://www.w3.org/2000/svg" xml:space="preserve" width="0.555551in" height="0.555551in" version="1.1" style="shape-rendering:geometricPrecision; text-rendering:geometricPrecision; image-rendering:optimizeQuality; fill-rule:evenodd; clip-rule:evenodd"
viewBox="0 0 556 556"
 xmlns:xlink="http://www.w3.org/1999/xlink">
 <defs>
  <style type="text/css">
   <![CDATA[
    .fil0 {fill:#333333}
   ]]>
  </style>
 </defs>
 <g id="Слой_x0020_1">
  <metadata id="CorelCorpID_0Corel-Layer"/>
  <path class="fil0" d="M174 79c50,0 91,40 91,90 0,50 -41,90 -91,90 -49,0 -90,-40 -90,-90 0,-50 41,-90 90,-90zm160 277l36 38 0 -116 35 0 0 116 36 -38 30 28 -68 74 -15 16 -16 -16 -68 -74 30 -28zm36 -176l35 0 0 52 -35 0 0 -52zm0 -96l35 0 0 52 -35 0 0 -52zm-196 212c50,0 91,41 91,90 0,50 -41,91 -91,91 -49,0 -90,-41 -90,-91 0,-49 41,-90 90,-90zm45 46c-12,-11 -27,-18 -45,-18 -17,0 -32,7 -44,18 -11,12 -18,27 -18,44 0,18 7,33 18,45 12,11 27,18 44,18 18,0 33,-7 45,-18 11,-12 18,-27 18,-45 0,-17 -7,-32 -18,-44zm0 -217c-12,-11 -27,-18 -45,-18 -17,0 -32,7 -44,18 -11,11 -18,27 -18,44 0,17 7,33 18,44 12,12 27,19 44,19 18,0 33,-7 45,-19 11,-11 18,-27 18,-44 0,-17 -7,-33 -18,-44z"/>
 </g>
</svg>
