<?xml version="1.0" encoding="UTF-8"?>
<!DOCTYPE svg PUBLIC "-//W3C//DTD SVG 1.1//EN" "http://www.w3.org/Graphics/SVG/1.1/DTD/svg11.dtd">
<!-- Creator: CorelDRAW X7 -->
<svg xmlns="http://www.w3.org/2000/svg" xml:space="preserve" width="0.555551in" height="0.555551in" version="1.1" style="shape-rendering:geometricPrecision; text-rendering:geometricPrecision; image-rendering:optimizeQuality; fill-rule:evenodd; clip-rule:evenodd"
viewBox="0 0 556 556"
 xmlns:xlink="http://www.w3.org/1999/xlink">
 <defs>
  <style type="text/css">
   <![CDATA[
    .fil0 {fill:#333333}
   ]]>
  </style>
 </defs>
 <g id="Слой_x0020_1">
  <metadata id="CorelCorpID_0Corel-Layer"/>
  <path class="fil0" d="M125 83c23,0 41,19 41,42 0,23 -18,41 -41,41 -24,0 -42,-18 -42,-41 0,-23 18,-42 42,-42zm0 306c23,0 41,19 41,42 0,23 -18,42 -41,42 -24,0 -42,-19 -42,-42 0,-23 18,-42 42,-42zm306 0c23,0 42,19 42,42 0,23 -19,42 -42,42 -23,0 -42,-19 -42,-42 0,-23 19,-42 42,-42zm-153 0c23,0 41,19 41,42 0,23 -18,42 -41,42 -23,0 -42,-19 -42,-42 0,-23 19,-42 42,-42zm-153 -153c23,0 41,19 41,42 0,23 -18,41 -41,41 -24,0 -42,-18 -42,-41 0,-23 18,-42 42,-42zm306 0c23,0 42,19 42,42 0,23 -19,41 -42,41 -23,0 -42,-18 -42,-41 0,-23 19,-42 42,-42zm-153 0c23,0 41,19 41,42 0,23 -18,41 -41,41 -23,0 -42,-18 -42,-41 0,-23 19,-42 42,-42zm153 -153c23,0 42,19 42,42 0,23 -19,41 -42,41 -23,0 -42,-18 -42,-41 0,-23 19,-42 42,-42zm-153 0c23,0 41,19 41,42 0,23 -18,41 -41,41 -23,0 -42,-18 -42,-41 0,-23 19,-42 42,-42z"/>
 </g>
</svg>
