<?xml version="1.0" encoding="UTF-8"?>
<!DOCTYPE svg PUBLIC "-//W3C//DTD SVG 1.1//EN" "http://www.w3.org/Graphics/SVG/1.1/DTD/svg11.dtd">
<!-- Creator: CorelDRAW X8 -->
<svg xmlns="http://www.w3.org/2000/svg" xml:space="preserve" width="21.1666mm" height="21.1666mm" version="1.1" style="shape-rendering:geometricPrecision; text-rendering:geometricPrecision; image-rendering:optimizeQuality; fill-rule:evenodd; clip-rule:evenodd"
viewBox="0 0 2117 2117"
 xmlns:xlink="http://www.w3.org/1999/xlink">
 <defs>
  <style type="text/css">
   <![CDATA[
    .fil0 {fill:#009BC8}
   ]]>
  </style>
 </defs>
 <g id="Слой_x0020_1">
  <metadata id="CorelCorpID_0Corel-Layer"/>
  <path class="fil0" d="M1058 176c487,0 882,395 882,882 0,487 -395,882 -882,882 -487,0 -882,-395 -882,-882 0,-487 395,-882 882,-882zm140 1308l0 -36c-60,-8 -80,-16 -80,-110l0 -472c-64,47 -141,71 -228,110l0 33c99,14 97,17 97,102l0 227c0,94 -23,102 -81,110l0 36 292 0zm-155 -896c45,0 82,37 82,83 0,45 -37,82 -82,82 -46,0 -83,-37 -83,-82 0,-46 37,-83 83,-83zm564 -78c-140,-141 -334,-228 -549,-228 -214,0 -408,87 -548,228 -141,140 -228,334 -228,548 0,215 87,409 228,549 140,141 334,227 548,227 215,0 409,-86 549,-227 141,-140 227,-334 227,-549 0,-214 -86,-408 -227,-548z"/>
 </g>
</svg>
