<?xml version="1.0" encoding="UTF-8"?>
<!DOCTYPE svg PUBLIC "-//W3C//DTD SVG 1.1//EN" "http://www.w3.org/Graphics/SVG/1.1/DTD/svg11.dtd">
<!-- Creator: CorelDRAW X8 -->
<svg xmlns="http://www.w3.org/2000/svg" xml:space="preserve" width="49.3888mm" height="49.3888mm" version="1.1" style="shape-rendering:geometricPrecision; text-rendering:geometricPrecision; image-rendering:optimizeQuality; fill-rule:evenodd; clip-rule:evenodd"
viewBox="0 0 4939 4939"
 xmlns:xlink="http://www.w3.org/1999/xlink">
 <defs>
  <style type="text/css">
   <![CDATA[
    .fil1 {fill:#24C712}
    .fil0 {fill:#24C812;fill-rule:nonzero}
   ]]>
  </style>
 </defs>
 <g id="Слой_x0020_1">
  <metadata id="CorelCorpID_0Corel-Layer"/>
  <path class="fil0" d="M2848 472l836 876 0 332 584 0c172,0 318,146 318,332l0 1526c0,172 -146,332 -318,332l-810 0 0 -730 -1977 0 0 730 -796 0c-186,0 -332,-160 -332,-332l0 -1526c0,-186 146,-332 332,-332l570 0 0 -1208 1593 0 0 0zm637 982c-252,0 -518,0 -783,0l0 -783 -1248 0 0 1407 2031 0 0 -624 0 0zm-133 -199l-451 -451 0 451 451 0z"/>
  <path class="fil1" d="M1693 3339l1553 0 0 1128 -1553 0 0 -1128zm226 199l1114 0 0 159 -1114 0 0 -159zm0 305l1114 0 0 159 -1114 0 0 -159z"/>
 </g>
</svg>
