<?xml version="1.0" encoding="UTF-8"?>
<!DOCTYPE svg PUBLIC "-//W3C//DTD SVG 1.1//EN" "http://www.w3.org/Graphics/SVG/1.1/DTD/svg11.dtd">
<!-- Creator: CorelDRAW X8 -->
<svg xmlns="http://www.w3.org/2000/svg" xml:space="preserve" width="42.3332mm" height="42.3332mm" version="1.1" style="shape-rendering:geometricPrecision; text-rendering:geometricPrecision; image-rendering:optimizeQuality; fill-rule:evenodd; clip-rule:evenodd"
viewBox="0 0 4233 4233"
 xmlns:xlink="http://www.w3.org/1999/xlink">
 <defs>
  <style type="text/css">
   <![CDATA[
    .fil1 {fill:#009BC8}
    .fil0 {fill:#FF910A}
   ]]>
  </style>
 </defs>
 <g id="Слой_x0020_1">
  <metadata id="CorelCorpID_0Corel-Layer"/>
  <path class="fil0" d="M1453 2926l-84 -48c35,20 81,8 102,-28l0 0c20,-35 8,-81 -28,-102l-135 -78c36,21 82,8 102,-27l0 0c21,-36 9,-82 -27,-102l-91 -53c19,-7 35,-21 46,-39l0 0c25,-44 10,-101 -34,-127l-173 -100c-45,-25 -102,-10 -127,34l0 0c-11,19 -14,39 -12,59l-90 -52c-36,-21 -82,-8 -102,27l0 0c-21,36 -8,82 27,102l-135 -78c-36,-20 -81,-8 -102,28l0 0c-21,35 -8,81 27,102l-84 -49c-36,-21 -82,-8 -103,27l0 0c-20,36 -8,82 28,102l921 532c35,21 81,8 102,-27l0 0c20,-36 8,-82 -28,-103z"/>
  <path class="fil1" d="M349 3503l-103 179c-38,65 -15,149 50,186l0 0c65,38 148,15 186,-50l103 -179 39 23c32,19 75,7 93,-25l39 -67 -432 -249 -38 66c-19,33 -8,75 25,94l38 22z"/>
  <path class="fil1" d="M558 2733l-76 -44 -183 317 76 44 183 -317zm95 55l-51 -30 -183 317 51 30 183 -317zm699 333l-937 -541 -232 402 63 233 640 369 234 -61 232 -402z"/>
  <path class="fil1" d="M2322 358l0 0c-40,-23 -91,-9 -114,31l-287 496 -60 -34 -753 1303 266 154 753 -1304 -61 -35 287 -496c23,-40 9,-92 -31,-115zm-521 839l0 0c-15,-9 -34,-3 -42,11l-341 591c-9,14 -4,33 11,42l0 0c15,8 34,3 42,-11l341 -591c9,-15 4,-34 -11,-42zm-445 770l0 0c-14,-8 -33,-3 -42,11l-57 100c-9,15 -4,34 11,42l0 0c15,9 34,3 42,-11l58 -100c8,-14 3,-33 -12,-42z"/>
  <path class="fil0" d="M2780 1307l85 49c-36,-21 -82,-8 -102,27l0 0c-21,36 -9,82 27,102l135 78c-35,-20 -81,-8 -102,28l0 0c-21,35 -8,81 27,102l91 52c-18,8 -35,21 -45,39l0 0c-26,45 -11,102 34,127l173 100c44,26 101,10 126,-34l0 0c11,-18 15,-39 12,-59l90 52c36,21 82,9 103,-27l0 0c20,-36 8,-81 -28,-102l135 78c36,21 82,8 102,-27l0 0c21,-36 9,-82 -27,-102l85 48c35,21 81,9 102,-27l0 0c20,-35 8,-81 -27,-102l-921 -532c-36,-20 -82,-8 -102,28l0 0c-21,35 -9,81 27,102z"/>
  <path class="fil1" d="M3884 730l103 -179c38,-65 15,-149 -49,-186l0 0c-65,-37 -149,-15 -186,50l-104 179 -38 -22c-33,-19 -75,-8 -94,25l-39 66 432 250 39 -67c19,-33 7,-75 -25,-94l-39 -22z"/>
  <path class="fil1" d="M3675 1500l76 44 183 -317 -76 -44 -183 317zm-95 -54l52 29 183 -317 -52 -29 -183 317zm-699 -334l938 542 232 -402 -64 -233 -640 -370 -234 61 -232 402z"/>
  <path class="fil1" d="M1911 3875l0 0c40,23 91,9 114,-30l287 -497 60 35 753 -1304 -266 -153 -752 1303 60 35 -287 497c-23,40 -9,91 31,114zm521 -839l0 0c15,9 34,4 43,-11l341 -590c8,-15 3,-34 -12,-43l0 0c-14,-8 -33,-3 -42,12l-341 590c-8,15 -3,34 11,42zm445 -770l0 0c15,9 34,4 42,-11l58 -99c8,-15 3,-34 -12,-43l0 0c-14,-8 -33,-3 -42,12l-57 99c-9,15 -4,34 11,42z"/>
 </g>
</svg>
