<?xml version="1.0" encoding="UTF-8"?>
<!DOCTYPE svg PUBLIC "-//W3C//DTD SVG 1.1//EN" "http://www.w3.org/Graphics/SVG/1.1/DTD/svg11.dtd">
<!-- Creator: CorelDRAW X8 -->
<svg xmlns="http://www.w3.org/2000/svg" xml:space="preserve" width="70.5554mm" height="49.3888mm" version="1.1" style="shape-rendering:geometricPrecision; text-rendering:geometricPrecision; image-rendering:optimizeQuality; fill-rule:evenodd; clip-rule:evenodd"
viewBox="0 0 7056 4939"
 xmlns:xlink="http://www.w3.org/1999/xlink">
 <defs>
  <style type="text/css">
   <![CDATA[
    .str0 {stroke:black;stroke-width:176.38}
    .str1 {stroke:black;stroke-width:176.38;stroke-linecap:round;stroke-linejoin:round}
    .fil2 {fill:none}
    .fil1 {fill:#009BC8}
    .fil0 {fill:#CDCDCD}
   ]]>
  </style>
 </defs>
 <g id="Слой_x0020_1">
  <metadata id="CorelCorpID_0Corel-Layer"/>
  <path class="fil0" d="M702 2261c137,-96 442,-247 952,-247l4163 0c192,0 446,132 635,176l0 106c-290,7 -372,247 0,247 0,755 106,182 106,635l-212 0c-322,-1381 -1940,-911 -1940,0l-1764 0c0,-463 -538,-967 -1127,-858 -463,85 -711,420 -813,858l-212 0c0,-453 106,120 106,-635 396,0 251,-234 106,-282zm4550 -913c147,12 355,289 424,419l-424 0 0 -419zm-1270 -251c682,-16 869,40 1059,106l0 564 -1059 0 0 -670zm-247 0l0 670 -1552 0c333,-452 1090,-670 1552,-670zm-1869 670c-483,0 -999,107 -1277,311 -330,243 -129,275 -211,600 -70,277 -97,-134 -100,580 0,153 -18,136 147,162 113,17 162,5 382,5 155,0 129,-125 152,-272 117,-749 1257,-851 1449,-23 32,138 3,295 163,295l1905 0c152,0 130,-126 158,-266 170,-850 1308,-763 1450,-36 65,333 -69,302 509,302 162,0 176,-20 176,-154 1,-79 1,-157 2,-236 4,-203 41,-240 -108,-280l0 -741c-46,-11 -620,-207 -654,-228 -155,-93 -372,-936 -1744,-936 -879,0 -1862,115 -2399,917z"/>
  <path class="fil1" d="M1992 2014l3084 0c-5,-86 -17,-170 -35,-252l0 5 -1059 0 0 -670c366,-9 589,4 747,27 -83,-101 -179,-192 -285,-269 -57,-3 -117,-5 -179,-5 -749,0 -1574,84 -2134,605 -79,171 -128,360 -139,559zm3064 351c-359,120 -650,427 -650,813l-1764 0c0,-326 -267,-672 -630,-810 17,102 45,201 82,296 146,94 263,247 314,466 3,13 5,26 7,38 95,99 202,186 319,257l1599 0c108,-65 206,-143 295,-231 1,-12 3,-23 6,-35 49,-247 181,-415 345,-511 35,-91 61,-185 77,-283zm-1321 -1268l0 670 -1552 0c333,-452 1090,-670 1552,-670z"/>
  <path class="fil0" d="M1672 2735c312,0 566,254 566,567 0,313 -254,566 -566,566 -313,0 -567,-253 -567,-566 0,-313 254,-567 567,-567zm0 263c167,0 303,136 303,304 0,168 -136,304 -303,304 -168,0 -304,-136 -304,-304 0,-168 136,-304 304,-304z"/>
  <path class="fil0" d="M5371 2735c312,0 566,254 566,567 0,313 -254,566 -566,566 -313,0 -567,-253 -567,-566 0,-313 254,-567 567,-567zm0 263c167,0 303,136 303,304 0,168 -136,304 -303,304 -168,0 -304,-136 -304,-304 0,-168 136,-304 304,-304z"/>
  <circle class="fil2 str0" cx="3534" cy="2103" r="1781"/>
  <line class="fil2 str1" x1="4810" y1="3346" x2="6191" y2= "4617" />
 </g>
</svg>
