<svg xmlns="http://www.w3.org/2000/svg" xmlns:xlink="http://www.w3.org/1999/xlink" xml:space="preserve" width="6360" height="16310" version="1.1" style="shape-rendering:geometricPrecision; text-rendering:geometricPrecision; image-rendering:optimizeQuality; fill-rule:evenodd; clip-rule:evenodd"><rect id="backgroundrect" width="100%" height="100%" x="0" y="0" fill="none" stroke="none"/>
 <defs>
  <style type="text/css">
   <![CDATA[
    .str2 {stroke:#009BC8;stroke-width:7.62}
    .str0 {stroke:#009BC8;stroke-width:20}
    .str1 {stroke:#FF910A;stroke-width:20}
    .fil0 {fill:#009BC8}
    .fil1 {fill:#FF910A}
   ]]>
  </style>
 </defs>
 
<g class="currentLayer" style=""><title>Layer 1</title><g id="Слой_x0020_1" class="">
  <metadata id="CorelCorpID_0Corel-Layer" transform="translate(-7825.626953125,-5099) "/>
  <path class="fil0 str0" d="M630.373046875,11559 l1685,3 c9,660 0,2239 -3,2807 c-1,193 -157,238 -271,239 l-1162,-3 c-132,10 -261,-106 -260,-236 c3,-547 9,-2114 11,-2811 z" id="svg_1"/>
  <path class="fil0 str0" d="M1478.373046875,14886 c384,0 695,319 695,712 c0,393 -311,712 -695,712 c-384,0 -695,-319 -695,-712 c0,-393 311,-712 695,-712 zm0,281 c238,0 431,193 431,431 c0,238 -193,431 -431,431 c-238,0 -431,-193 -431,-431 c0,-238 193,-431 431,-431 z" id="svg_2"/>
  <polygon class="fil0 str0" points="1140.373046875,14972 1138.373046875,14753 1808.373046875,14755 1808.373046875,14978 " id="svg_3"/>
  <rect class="fil0 str0" x="372.373046875" y="10961" width="2202" height="411" id="svg_4"/>
  <rect class="fil0 str0" x="96.373046875" y="10253" width="2745" height="537" id="svg_5"/>
  <rect class="fil1 str1" x="694.373046875" y="6808" width="1549" height="3398" id="svg_6"/>
  <path class="fil0 str0" d="M2292.373046875,8281 c294,33 468,110 441,271 c-86,511 -1578,450 -1936,478 c-167,13 -169,29 -164,263 c-621,26 -956,-432 52,-543 c496,-55 1609,-42 1608,-241 l-1,-229 z" id="svg_7"/>
  <path class="fil0 str0" d="M2292.373046875,9167 c294,33 468,110 441,271 c-86,511 -1578,450 -1936,478 c-167,13 -169,29 -164,263 c-621,26 -956,-432 52,-543 c496,-55 1609,-42 1608,-241 l-1,-229 z" id="svg_8"/>
  <path class="fil0 str0" d="M2292.373046875,7369 c294,33 468,110 441,271 c-86,511 -1578,450 -1936,478 c-167,13 -169,29 -164,263 c-621,26 -956,-432 52,-543 c496,-55 1609,-42 1608,-241 l-1,-229 z" id="svg_9"/>
  <path class="fil0 str0" d="M2285.373046875,9961 c218,42 347,142 440,262 l-437,-10 l-3,-252 z" id="svg_10"/>
  <rect class="fil1 str1" x="1072.373046875" y="2384" width="793" height="4424" id="svg_11"/>
  <path class="fil0 str0" d="M1023.373046875,6437 l4,322 c-118,0 -305,0 -496,-39 c-254,-53 -493,-160 -526,-286 c-22,-85 19,-200 290,-301 c405,-151 1351,-135 1646,-191 c98,-19 222,-29 204,-30 c-15,-1 -153,4 -227,6 l0,-323 c193,-4 761,63 816,253 c119,416 -1038,441 -1763,482 c-217,12 -488,31 -479,51 c12,24 342,48 531,55 z" id="svg_12"/>
  <path class="fil0 str0" d="M646.373046875,7590 c-218,-17 -427,-69 -524,-131 c-166,-106 -216,-375 482,-521 c331,-69 1058,-111 1337,-140 c343,-37 250,-52 -23,-46 l0,-297 c193,-4 761,38 816,228 c119,416 -1039,426 -1763,482 c-450,35 -759,125 -327,154 c0,106 2,270 2,270 z" id="svg_13"/>
  <rect class="fil0 str0" x="61.373046875" y="1983" width="2655" height="401" id="svg_14"/>
  <path class="fil0 str0" d="M1467.373046875,1424 c384,0 695,-319 695,-712 c0,-393 -311,-712 -695,-712 c-384,0 -695,319 -695,712 c0,393 311,712 695,712 zm0,-281 c238,0 431,-193 431,-431 c0,-238 -193,-431 -431,-431 c-238,0 -431,193 -431,431 c0,238 193,431 431,431 z" id="svg_15"/>
  <polygon class="fil0 str2" points="1128.373046875,1338 860.373046875,1811 2047.373046875,1806 1796.373046875,1332 " id="svg_16"/>
  <path class="fil0 str0" d="M1023.373046875,5557 l4,322 c-118,0 -305,0 -496,-39 c-254,-53 -493,-160 -526,-286 c-22,-85 19,-200 290,-301 c405,-151 1351,-135 1646,-191 c98,-19 222,-29 204,-30 c-15,-1 -153,4 -227,6 l0,-323 c193,-4 761,63 816,253 c119,416 -1038,441 -1763,482 c-217,12 -488,31 -479,51 c12,24 342,48 531,55 z" id="svg_17"/>
  <path class="fil0 str0" d="M1023.373046875,4665 l4,322 c-118,0 -305,0 -496,-39 c-254,-53 -493,-160 -526,-286 c-22,-85 14,-217 290,-301 c419,-128 1357,-124 1646,-191 c98,-23 222,-29 204,-30 c-15,-1 -153,4 -227,6 l0,-323 c193,-4 761,63 816,253 c119,416 -1038,441 -1763,482 c-217,12 -488,31 -479,51 c12,24 342,48 531,55 z" id="svg_18"/>
  <path class="fil0 str0" d="M1023.373046875,3772 l4,322 c-118,0 -305,0 -496,-39 c-254,-53 -493,-160 -526,-286 c-22,-85 19,-200 290,-301 c405,-151 1351,-135 1646,-191 c98,-19 222,-29 204,-30 c-15,-1 -153,4 -227,6 l0,-323 c193,-4 761,63 816,253 c119,416 -1038,441 -1763,482 c-217,12 -488,31 -479,51 c12,24 342,48 531,55 z" id="svg_19"/>
  <path class="fil0 str0" d="M1023.373046875,2892 l4,322 c-118,0 -305,0 -496,-39 c-254,-53 -493,-160 -526,-286 c-22,-85 19,-200 290,-301 c405,-151 1351,-135 1646,-191 c98,-19 222,-29 204,-30 c-15,-1 -153,4 -227,6 l0,-323 c193,-4 734,53 788,243 c119,416 -1011,451 -1736,492 c-217,12 -488,31 -479,51 c12,24 342,48 531,55 z" id="svg_20"/>
  <path class="fil0 str0" d="M4150.373046875,11559 l1685,3 c9,660 0,2239 -3,2807 c-1,193 -157,238 -271,239 l-1162,-3 c-132,10 -261,-106 -260,-236 c3,-547 9,-2114 11,-2811 z" id="svg_21"/>
  <path class="fil0 str0" d="M4998.373046875,14886 c384,0 695,319 695,712 c0,393 -311,712 -695,712 c-384,0 -695,-319 -695,-712 c0,-393 311,-712 695,-712 zm0,281 c238,0 431,193 431,431 c0,238 -193,431 -431,431 c-238,0 -431,-193 -431,-431 c0,-238 193,-431 431,-431 z" id="svg_22"/>
  <polygon class="fil0 str0" points="4659.373046875,14972 4658.373046875,14753 5327.373046875,14755 5327.373046875,14978 " id="svg_23"/>
  <rect class="fil0 str0" x="3891.373046875" y="10961" width="2202" height="411" id="svg_24"/>
  <rect class="fil0 str0" x="3615.373046875" y="10253" width="2745" height="537" id="svg_25"/>
  <rect class="fil1 str1" x="4214.373046875" y="6808" width="1549" height="3398" id="svg_26"/>
  <path class="fil0 str0" d="M5812.373046875,8281 c294,33 468,110 441,271 c-86,511 -1578,450 -1936,478 c-167,13 -169,29 -164,263 c-621,26 -956,-432 52,-543 c496,-55 1609,-42 1608,-241 l-1,-229 z" id="svg_27"/>
  <path class="fil0 str0" d="M5812.373046875,9167 c294,33 468,110 441,271 c-86,511 -1578,450 -1936,478 c-167,13 -169,29 -164,263 c-621,26 -956,-432 52,-543 c496,-55 1609,-42 1608,-241 l-1,-229 z" id="svg_28"/>
  <path class="fil0 str0" d="M5812.373046875,7369 c294,33 468,110 441,271 c-86,511 -1578,450 -1936,478 c-167,13 -169,29 -164,263 c-621,26 -956,-432 52,-543 c496,-55 1609,-42 1608,-241 l-1,-229 z" id="svg_29"/>
  <path class="fil0 str0" d="M5804.373046875,9961 c218,42 347,142 440,262 l-437,-10 l-3,-252 z" id="svg_30"/>
  <rect class="fil1 str1" x="4592.373046875" y="2384" width="793" height="4424" id="svg_31"/>
  <path class="fil0 str0" d="M4543.373046875,6437 l4,322 c-118,0 -305,0 -496,-39 c-254,-53 -493,-160 -526,-286 c-22,-85 19,-200 290,-301 c405,-151 1351,-135 1646,-191 c98,-19 222,-29 204,-30 c-15,-1 -153,4 -227,6 l0,-323 c193,-4 761,63 816,253 c119,416 -1038,441 -1763,482 c-217,12 -488,31 -479,51 c12,24 342,48 531,55 z" id="svg_32"/>
  <path class="fil0 str0" d="M4165.373046875,7590 c-218,-17 -427,-69 -524,-131 c-166,-106 -216,-375 482,-521 c331,-69 1058,-111 1337,-140 c343,-37 250,-52 -23,-46 l0,-297 c193,-4 761,38 816,228 c119,416 -1039,426 -1763,482 c-450,35 -759,125 -327,154 c0,106 2,270 2,270 z" id="svg_33"/>
  <rect class="fil0 str0" x="3581.373046875" y="1983" width="2655" height="401" id="svg_34"/>
  <path class="fil0 str0" d="M4986.373046875,1424 c384,0 695,-319 695,-712 c0,-393 -311,-712 -695,-712 c-384,0 -695,319 -695,712 c0,393 311,712 695,712 zm0,-281 c238,0 431,-193 431,-431 c0,-238 -193,-431 -431,-431 c-238,0 -431,193 -431,431 c0,238 193,431 431,431 z" id="svg_35"/>
  <polygon class="fil0 str2" points="4647.373046875,1338 4379.373046875,1811 5567.373046875,1806 5315.373046875,1332 " id="svg_36"/>
  <path class="fil0 str0" d="M4543.373046875,5557 l4,322 c-118,0 -305,0 -496,-39 c-254,-53 -493,-160 -526,-286 c-22,-85 19,-200 290,-301 c405,-151 1351,-135 1646,-191 c98,-19 222,-29 204,-30 c-15,-1 -153,4 -227,6 l0,-323 c193,-4 761,63 816,253 c119,416 -1038,441 -1763,482 c-217,12 -488,31 -479,51 c12,24 342,48 531,55 z" id="svg_37"/>
  <path class="fil0 str0" d="M4543.373046875,4665 l4,322 c-118,0 -305,0 -496,-39 c-254,-53 -493,-160 -526,-286 c-22,-85 14,-217 290,-301 c419,-128 1357,-124 1646,-191 c98,-23 222,-29 204,-30 c-15,-1 -153,4 -227,6 l0,-323 c193,-4 761,63 816,253 c119,416 -1038,441 -1763,482 c-217,12 -488,31 -479,51 c12,24 342,48 531,55 z" id="svg_38"/>
  <path class="fil0 str0" d="M4543.373046875,3772 l4,322 c-118,0 -305,0 -496,-39 c-254,-53 -493,-160 -526,-286 c-22,-85 19,-200 290,-301 c405,-151 1351,-135 1646,-191 c98,-19 222,-29 204,-30 c-15,-1 -153,4 -227,6 l0,-323 c193,-4 761,63 816,253 c119,416 -1038,441 -1763,482 c-217,12 -488,31 -479,51 c12,24 342,48 531,55 z" id="svg_39"/>
  <path class="fil0 str0" d="M4543.373046875,2892 l4,322 c-118,0 -305,0 -496,-39 c-254,-53 -493,-160 -526,-286 c-22,-85 19,-200 290,-301 c405,-151 1351,-135 1646,-191 c98,-19 222,-29 204,-30 c-15,-1 -153,4 -227,6 l0,-323 c193,-4 734,53 788,243 c119,416 -1011,451 -1736,492 c-217,12 -488,31 -479,51 c12,24 342,48 531,55 z" id="svg_40"/>
 </g></g></svg>