<?xml version="1.0" encoding="utf-8"?>
<!-- Generator: Adobe Illustrator 22.1.0, SVG Export Plug-In . SVG Version: 6.00 Build 0)  -->
<svg version="1.1" xmlns="http://www.w3.org/2000/svg" xmlns:xlink="http://www.w3.org/1999/xlink" x="0px" y="0px"
	 viewBox="0 0 120 120" style="enable-background:new 0 0 120 120;" xml:space="preserve">
<style type="text/css">
	.st0{fill-rule:evenodd;clip-rule:evenodd;fill:#009BC8;stroke:#009BC8;stroke-width:0.5669;stroke-miterlimit:22.9256;}
	.st1{fill-rule:evenodd;clip-rule:evenodd;fill:#FF910A;stroke:#FF910A;stroke-width:0.5669;stroke-miterlimit:22.9256;}
	.st2{fill-rule:evenodd;clip-rule:evenodd;fill:#009BC8;stroke:#009BC8;stroke-width:0.216;stroke-miterlimit:22.9256;}
</style>
<g id="_x31_">
	<g>
		<path class="st0" d="M18.8,77.6l10.1,5.9c-2.2,4-7.8,13.5-9.8,16.9c-0.7,1.2-1.8,0.9-2.5,0.5l-7-4c-0.8-0.4-1.2-1.5-0.8-2.3
			C10.9,91.2,16.3,81.8,18.8,77.6L18.8,77.6z"/>
		<path class="st0" d="M12.3,100.6c2.3,1.3,3.1,4.3,1.7,6.7c-1.4,2.4-4.3,3.2-6.6,1.9c-2.3-1.3-3.1-4.3-1.7-6.7
			C7,100.1,10,99.3,12.3,100.6L12.3,100.6z M11.3,102.3c-1.4-0.8-3.3-0.4-4.1,1.1c-0.8,1.4-0.4,3.3,1.1,4.1c1.4,0.8,3.3,0.4,4.1-1.1
			C13.3,104.9,12.8,103.1,11.3,102.3z"/>
		<polygon class="st0" points="10,99.9 10.8,98.6 14.8,100.9 14,102.3 		"/>
		<rect x="23.8" y="70.6" transform="matrix(0.5 -0.866 0.866 0.5 -55.1191 60.9293)" class="st0" width="2.9" height="15.3"/>
		<rect x="25.6" y="64.8" transform="matrix(0.5 -0.866 0.866 0.5 -50.6381 60.8946)" class="st0" width="3.7" height="19.1"/>
		<rect x="22.6" y="56.8" transform="matrix(0.5 -0.866 0.866 0.5 -36.6501 60.9028)" class="st1" width="23.6" height="10.8"/>
		<path class="st0" d="M40.2,63.7c1.7,1.2,2.4,2.3,1.7,3.2c-2.3,2.8-11-2.8-13.3-3.9c-1.1-0.5-1.1-0.4-1.9,1c-3.8-2-4.3-5.9,2.2-3.1
			c3.2,1.4,9.8,5.3,10.5,4.1L40.2,63.7L40.2,63.7z"/>
		<path class="st0" d="M37.1,69c1.7,1.2,2.4,2.3,1.7,3.2c-2.3,2.8-11-2.8-13.3-3.9c-1.1-0.5-1.1-0.4-1.9,1c-3.8-2-4.3-5.9,2.2-3.1
			c3.2,1.4,9.8,5.3,10.5,4.2L37.1,69z"/>
		<path class="st0" d="M43.3,58.2c1.7,1.2,2.4,2.3,1.7,3.2c-2.3,2.8-11-2.8-13.3-3.9c-1.1-0.5-1.1-0.4-1.9,1c-3.8-2-4.3-5.9,2.2-3.1
			c3.2,1.4,9.8,5.3,10.5,4.2L43.3,58.2z"/>
		<path class="st0" d="M34.3,73.8c1.2,1,1.6,2.1,1.7,3.1l-2.6-1.6L34.3,73.8z"/>
		<rect x="32.6" y="35.9" transform="matrix(0.5 -0.866 0.866 0.5 -9.4894 60.9024)" class="st1" width="30.7" height="5.5"/>
		<path class="st0" d="M38.9,48.2l-1.1,2c-0.7-0.4-1.8-1.1-2.8-2c-1.4-1.2-2.4-2.7-2.2-3.6c0.2-0.6,0.8-1.1,2.8-0.8
			c3,0.5,8.6,3.9,10.6,4.6c0.7,0.2,1.4,0.6,1.3,0.5c-0.1-0.1-0.9-0.5-1.4-0.8l1.1-2c1.2,0.7,4.4,3,4,4.4c-0.7,2.9-7.8-0.9-12.3-3.2
			c-1.4-0.7-3-1.5-3.1-1.4C35.9,46.2,37.8,47.4,38.9,48.2L38.9,48.2z"/>
		<path class="st0" d="M32.6,53.8c-1.2-0.9-2.3-1.9-2.7-2.6c-0.6-1.2,0-3,4.7-1.5c2.2,0.7,6.8,3,8.5,3.8c2.2,1,1.7,0.6,0-0.4l1-1.8
			c1.2,0.7,4.4,2.9,4.1,4.2c-0.7,2.9-7.7-1.1-12.3-3.2c-2.8-1.4-5-1.9-2.5-0.2C33.2,52.8,32.6,53.8,32.6,53.8L32.6,53.8z"/>
		<rect x="54.5" y="14.7" transform="matrix(0.5 -0.866 0.866 0.5 7.2668 60.3418)" class="st0" width="2.8" height="18.4"/>
		<path class="st0" d="M59,19.6c2.3,1.3,5.3,0.5,6.6-1.9c1.4-2.4,0.6-5.4-1.7-6.7c-2.3-1.3-5.3-0.5-6.6,1.9
			C55.9,15.2,56.7,18.3,59,19.6L59,19.6z M60,17.9c-1.4-0.8-1.9-2.7-1.1-4.1c0.8-1.4,2.7-1.9,4.1-1.1c1.4,0.8,1.9,2.7,1.1,4.1
			C63.2,18.2,61.4,18.7,60,17.9z"/>
		<polygon class="st2" points="57.3,17.9 54,19.8 61.2,23.9 61.3,20.2 		"/>
		<path class="st0" d="M42,42.9l-1.1,2c-0.7-0.4-1.8-1.1-2.8-2c-1.4-1.2-2.4-2.7-2.2-3.6c0.2-0.6,0.8-1.1,2.8-0.8
			c3,0.5,8.6,3.9,10.6,4.6c0.7,0.2,1.4,0.6,1.3,0.5c-0.1-0.1-0.9-0.5-1.4-0.8l1.1-2c1.2,0.7,4.4,3,4,4.4c-0.7,2.9-7.8-0.9-12.3-3.2
			c-1.4-0.7-3-1.5-3.1-1.4C38.9,40.9,40.8,42.1,42,42.9L42,42.9z"/>
		<path class="st0" d="M45.1,37.5l-1.1,2c-0.7-0.4-1.8-1.1-2.8-2c-1.4-1.2-2.4-2.7-2.2-3.6c0.2-0.6,0.8-1.2,2.8-0.8
			c3,0.7,8.6,4,10.6,4.6c0.7,0.2,1.4,0.6,1.3,0.5c-0.1-0.1-0.9-0.5-1.4-0.8l1.1-2c1.2,0.7,4.4,3,4,4.4c-0.7,2.9-7.8-0.9-12.3-3.2
			c-1.4-0.7-3-1.5-3.1-1.4C42,35.5,43.9,36.8,45.1,37.5L45.1,37.5z"/>
		<path class="st0" d="M48.2,32.2l-1.1,2c-0.7-0.4-1.8-1.1-2.8-2c-1.4-1.2-2.4-2.7-2.2-3.6c0.2-0.6,0.8-1.1,2.8-0.8
			c3,0.5,8.6,3.9,10.6,4.6c0.7,0.2,1.4,0.6,1.3,0.5c-0.1-0.1-0.9-0.5-1.4-0.8l1.1-2c1.2,0.7,4.4,3,4,4.4c-0.7,2.9-7.8-0.9-12.3-3.2
			c-1.4-0.7-3-1.5-3.1-1.4C45.1,30.1,47,31.4,48.2,32.2L48.2,32.2z"/>
		<path class="st0" d="M51.2,26.9l-1.1,2c-0.7-0.4-1.8-1.1-2.8-2c-1.4-1.2-2.4-2.7-2.2-3.6c0.2-0.6,0.8-1.1,2.8-0.8
			c3,0.5,8.6,3.9,10.6,4.6c0.7,0.2,1.4,0.6,1.3,0.5c-0.1-0.1-0.9-0.5-1.4-0.8l1.1-2c1.2,0.7,4.2,2.9,3.9,4.2
			c-0.7,2.9-7.6-0.8-12.2-3.1c-1.4-0.7-3-1.5-3.1-1.4C48.2,24.8,50.1,26.1,51.2,26.9L51.2,26.9z"/>
	</g>
	<g>
		<path class="st0" d="M67.4,77.8l10.1,5.8c-2.2,4-7.7,13.5-9.7,16.9c-0.7,1.2-1.8,0.9-2.5,0.5l-7-4c-0.8-0.4-1.2-1.5-0.8-2.3
			C59.5,91.4,65,81.9,67.4,77.8L67.4,77.8z"/>
		<path class="st0" d="M61,100.8c2.3,1.3,3.1,4.3,1.7,6.7c-1.3,2.4-4.3,3.2-6.6,1.9c-2.3-1.3-3.1-4.3-1.7-6.7
			C55.7,100.3,58.7,99.4,61,100.8L61,100.8z M60.1,102.4c-1.4-0.8-3.3-0.3-4.1,1.1c-0.8,1.4-0.3,3.3,1.1,4.1
			c1.4,0.8,3.3,0.3,4.1-1.1C62,105.1,61.5,103.2,60.1,102.4z"/>
		<polygon class="st0" points="58.7,100.1 59.4,98.8 63.5,101.1 62.7,102.5 		"/>
		
			<rect x="72.4" y="70.7" transform="matrix(0.496 -0.8684 0.8684 0.496 -30.7933 103.562)" class="st0" width="2.9" height="15.3"/>
		
			<rect x="74.1" y="64.9" transform="matrix(0.496 -0.8684 0.8684 0.496 -26.2945 103.4951)" class="st0" width="3.7" height="19.1"/>
		
			<rect x="71.1" y="56.9" transform="matrix(0.4959 -0.8684 0.8684 0.4959 -12.2503 103.4059)" class="st1" width="23.6" height="10.8"/>
		<path class="st0" d="M88.7,63.7c1.7,1.2,2.5,2.3,1.7,3.2c-2.3,2.8-11.1-2.7-13.3-3.8c-1.1-0.5-1.1-0.4-1.9,1
			c-3.8-2-4.3-5.9,2.2-3.1c3.2,1.4,9.8,5.3,10.5,4.1L88.7,63.7L88.7,63.7z"/>
		<path class="st0" d="M85.6,69.1c1.7,1.2,2.5,2.3,1.7,3.2C85.1,75,76.3,69.5,74,68.4c-1.1-0.5-1.1-0.4-1.9,1
			c-3.8-2-4.3-5.9,2.2-3.1c3.2,1.4,9.8,5.3,10.5,4.1L85.6,69.1z"/>
		<path class="st0" d="M91.8,58.2c1.7,1.2,2.5,2.3,1.7,3.2c-2.3,2.8-11.1-2.7-13.3-3.8c-1.1-0.5-1.1-0.4-1.9,1
			c-3.8-2-4.3-5.9,2.2-3.1c3.2,1.4,9.8,5.3,10.5,4.1L91.8,58.2L91.8,58.2z"/>
		<path class="st0" d="M82.9,73.8c1.2,1,1.6,2.1,1.8,3.1L82,75.3L82.9,73.8z"/>
		
			<rect x="81.1" y="35.9" transform="matrix(0.4959 -0.8684 0.8684 0.4959 15.0196 103.2142)" class="st1" width="30.7" height="5.5"/>
		<path class="st0" d="M87.4,48.2l-1.1,2c-0.7-0.4-1.8-1-2.9-1.9c-1.4-1.2-2.4-2.7-2.2-3.5c0.2-0.6,0.8-1.1,2.8-0.8
			c3,0.5,8.6,3.8,10.6,4.5c0.7,0.2,1.4,0.6,1.3,0.5c-0.1-0.1-0.9-0.5-1.4-0.8l1.1-2c1.2,0.6,4.4,3,4,4.3c-0.7,2.9-7.8-0.9-12.3-3.2
			c-1.4-0.7-3-1.5-3.1-1.3C84.3,46.2,86.2,47.5,87.4,48.2L87.4,48.2z"/>
		<path class="st0" d="M81.1,53.9c-1.3-0.9-2.3-1.9-2.7-2.6c-0.6-1.2,0-3,4.7-1.5c2.2,0.7,6.8,3,8.5,3.8c2.2,1,1.7,0.6,0-0.4l1-1.8
			c1.2,0.6,4.5,2.9,4.1,4.2c-0.7,2.9-7.7-1-12.3-3.2c-2.8-1.3-5-1.8-2.5-0.2C81.7,52.9,81.1,53.9,81.1,53.9L81.1,53.9z"/>
		
			<rect x="102.8" y="14.6" transform="matrix(0.4959 -0.8684 0.8684 0.4959 31.84 102.5341)" class="st0" width="2.8" height="18.4"/>
		<path class="st0" d="M107.3,19.5c2.3,1.3,5.3,0.5,6.6-1.9c1.3-2.4,0.6-5.4-1.7-6.7c-2.3-1.3-5.3-0.5-6.6,1.9
			C104.2,15.2,105,18.2,107.3,19.5L107.3,19.5z M108.3,17.8c-1.4-0.8-1.9-2.6-1.1-4.1c0.8-1.4,2.6-1.9,4.1-1.1
			c1.4,0.8,1.9,2.6,1.1,4.1C111.5,18.2,109.7,18.7,108.3,17.8z"/>
		<polygon class="st2" points="105.6,17.8 102.3,19.8 109.5,23.8 109.6,20.1 		"/>
		<path class="st0" d="M90.4,42.9l-1.1,2c-0.7-0.4-1.8-1-2.9-1.9c-1.4-1.2-2.4-2.7-2.2-3.5c0.2-0.6,0.8-1.1,2.8-0.8
			c3,0.5,8.6,3.8,10.6,4.5c0.7,0.2,1.4,0.6,1.3,0.5c-0.1-0.1-0.9-0.5-1.4-0.8l1.1-2c1.2,0.6,4.4,3,4,4.3C102,48.2,95,44.3,90.4,42
			c-1.4-0.7-3-1.5-3.1-1.3C87.4,40.9,89.3,42.2,90.4,42.9L90.4,42.9z"/>
		<path class="st0" d="M93.5,37.6l-1.1,2c-0.7-0.4-1.8-1-2.9-1.9c-1.4-1.2-2.4-2.7-2.2-3.5c0.2-0.6,0.8-1.3,2.8-0.8
			c3,0.7,8.6,3.9,10.6,4.5c0.7,0.2,1.4,0.6,1.3,0.5c-0.1-0.1-0.9-0.5-1.4-0.8l1.1-2c1.2,0.6,4.4,3,4,4.3c-0.7,2.9-7.8-0.9-12.3-3.2
			c-1.4-0.7-3-1.5-3.1-1.3C90.4,35.5,92.3,36.8,93.5,37.6L93.5,37.6z"/>
		<path class="st0" d="M96.6,32.2l-1.1,2c-0.7-0.4-1.8-1-2.9-1.9c-1.4-1.2-2.4-2.7-2.2-3.5c0.2-0.6,0.8-1.1,2.8-0.8
			c3,0.5,8.6,3.8,10.6,4.5c0.7,0.2,1.4,0.6,1.3,0.5c-0.1-0.1-0.9-0.5-1.4-0.8l1.1-2c1.2,0.6,4.4,3,4,4.3c-0.7,2.9-7.8-0.9-12.3-3.2
			c-1.4-0.7-3-1.5-3.1-1.3C93.5,30.2,95.4,31.4,96.6,32.2L96.6,32.2z"/>
		<path class="st0" d="M99.6,26.9l-1.1,2c-0.7-0.4-1.8-1-2.9-1.9c-1.4-1.2-2.4-2.7-2.2-3.5c0.2-0.6,0.8-1.1,2.8-0.8
			c3,0.5,8.6,3.8,10.6,4.5c0.7,0.2,1.4,0.6,1.3,0.5c-0.1-0.1-0.9-0.5-1.4-0.8l1.1-2c1.2,0.6,4.2,2.9,3.9,4.2
			c-0.7,2.9-7.7-0.8-12.2-3c-1.4-0.7-3-1.5-3.1-1.3C96.6,24.8,98.5,26.1,99.6,26.9L99.6,26.9z"/>
	</g>
</g>
<g id="Øàáëîí_Íàïðàâëÿþùèå">
</g>
</svg>
