<?xml version="1.0" encoding="utf-8"?>
<!-- Generator: Adobe Illustrator 22.1.0, SVG Export Plug-In . SVG Version: 6.00 Build 0)  -->
<svg version="1.1" id="_x31_" xmlns="http://www.w3.org/2000/svg" xmlns:xlink="http://www.w3.org/1999/xlink" x="0px" y="0px"
	 viewBox="0 0 340.2 192" style="enable-background:new 0 0 340.2 192;" xml:space="preserve">
<style type="text/css">
	
		.st0{fill-rule:evenodd;clip-rule:evenodd;fill:#609ABF;stroke:#609ABF;stroke-width:4.5306;stroke-linejoin:round;stroke-miterlimit:22.9256;}
	
		.st1{fill-rule:evenodd;clip-rule:evenodd;fill:#609ABF;stroke:#609ABF;stroke-width:8.5039;stroke-linejoin:round;stroke-miterlimit:22.9256;}
	
		.st2{fill-rule:evenodd;clip-rule:evenodd;fill:none;stroke:#609ABF;stroke-width:4.5306;stroke-linejoin:round;stroke-miterlimit:22.9256;}
	
		.st3{fill-rule:evenodd;clip-rule:evenodd;fill:none;stroke:#609ABF;stroke-width:8.5039;stroke-linejoin:round;stroke-miterlimit:22.9256;}
	.st4{fill-rule:evenodd;clip-rule:evenodd;fill:#609ABF;stroke:#609ABF;stroke-width:1.7016;stroke-miterlimit:22.9256;}
	.st5{fill-rule:evenodd;clip-rule:evenodd;fill:none;stroke:#609ABF;stroke-width:1.7016;stroke-miterlimit:22.9256;}
	.st6{fill-rule:evenodd;clip-rule:evenodd;fill:none;stroke:#609ABF;stroke-width:1.7005;stroke-miterlimit:22.9256;}
	.st7{fill-rule:evenodd;clip-rule:evenodd;fill:#609ABF;stroke:#609ABF;stroke-width:1.7005;stroke-miterlimit:22.9256;}
	.st8{fill-rule:evenodd;clip-rule:evenodd;fill:#609ABF;}
	.st9{fill-rule:evenodd;clip-rule:evenodd;fill:#609ABF;stroke:#609ABF;stroke-width:0.1295;stroke-miterlimit:22.9256;}
	.st10{fill-rule:evenodd;clip-rule:evenodd;fill:#262C6E;}
	.st11{fill-rule:evenodd;clip-rule:evenodd;fill:#FFFFFF;}
	.st12{fill-rule:evenodd;clip-rule:evenodd;fill:#DC8D22;stroke:#DC8D22;stroke-width:0.1295;stroke-miterlimit:22.9256;}
	.st13{fill-rule:evenodd;clip-rule:evenodd;fill:#609ABF;stroke:#DC8D22;stroke-width:0.8504;stroke-miterlimit:22.9256;}
	.st14{fill-rule:evenodd;clip-rule:evenodd;fill:#DC8D22;stroke:#DC8D22;stroke-width:0.7381;stroke-miterlimit:22.9256;}
	
		.st15{fill-rule:evenodd;clip-rule:evenodd;fill:#DC8D22;stroke:#DC8D22;stroke-width:0.8504;stroke-linejoin:round;stroke-miterlimit:22.9256;}
	
		.st16{fill-rule:evenodd;clip-rule:evenodd;fill:#DC8D22;stroke:#DC8D22;stroke-width:0.1295;stroke-linejoin:round;stroke-miterlimit:22.9256;}
	
		.st17{fill-rule:evenodd;clip-rule:evenodd;fill:#DC8D22;stroke:#DC8D22;stroke-width:0.6883;stroke-linejoin:round;stroke-miterlimit:22.9256;}
	
		.st18{fill-rule:evenodd;clip-rule:evenodd;fill:#DC8D22;stroke:#DC8D22;stroke-width:0.6897;stroke-linejoin:round;stroke-miterlimit:22.9256;}
	
		.st19{fill-rule:evenodd;clip-rule:evenodd;fill:#DC8D22;stroke:#DC8D22;stroke-width:0.7682;stroke-linejoin:round;stroke-miterlimit:22.9256;}
	
		.st20{fill-rule:evenodd;clip-rule:evenodd;fill:#DC8D22;stroke:#DC8D22;stroke-width:0.127;stroke-linejoin:round;stroke-miterlimit:22.9256;}
	
		.st21{fill-rule:evenodd;clip-rule:evenodd;fill:#DC8D22;stroke:#DC8D22;stroke-width:0.7654;stroke-linejoin:round;stroke-miterlimit:22.9256;}
	.st22{fill-rule:evenodd;clip-rule:evenodd;fill:#DC8D22;stroke:#DC8D22;stroke-width:0.5669;stroke-miterlimit:22.9256;}
	.st23{fill-rule:evenodd;clip-rule:evenodd;fill:#DC8D22;stroke:#DC8D22;stroke-width:0.216;stroke-miterlimit:22.9256;}
	
		.st24{fill-rule:evenodd;clip-rule:evenodd;fill:none;stroke:#609ABF;stroke-width:8.5039;stroke-linecap:round;stroke-linejoin:round;stroke-miterlimit:22.9256;}
	.st25{fill-rule:evenodd;clip-rule:evenodd;fill:none;stroke:#609ABF;stroke-width:2.8346;stroke-miterlimit:22.9256;}
	.st26{fill-rule:evenodd;clip-rule:evenodd;fill:#609ABF;stroke:#609ABF;stroke-width:0.5669;stroke-miterlimit:22.9256;}
	
		.st27{fill-rule:evenodd;clip-rule:evenodd;fill:none;stroke:#609ABF;stroke-width:2.8346;stroke-linejoin:round;stroke-miterlimit:22.9256;}
	
		.st28{fill-rule:evenodd;clip-rule:evenodd;fill:none;stroke:#609ABF;stroke-width:2.8346;stroke-linecap:round;stroke-linejoin:round;stroke-miterlimit:22.9256;}
	
		.st29{fill-rule:evenodd;clip-rule:evenodd;fill:#609ABF;stroke:#609ABF;stroke-width:2.8346;stroke-linecap:round;stroke-linejoin:round;stroke-miterlimit:22.9256;}
	.st30{fill-rule:evenodd;clip-rule:evenodd;fill:#609ABF;stroke:#609ABF;stroke-width:2.8346;stroke-miterlimit:22.9256;}
</style>
<g>
	<g>
		<path class="st0" d="M115,146.5H9.3v12.7c0,1,0.8,1.8,1.9,1.8h102c1,0,1.9-0.8,1.9-1.8V146.5z"/>
		<path class="st1" d="M62.4,61.1H38.5c-3.7,0-12.8,4.4-12.8,4.4c-1.4,0.7-5.2,2.1-3.8,3.3L33,76.6h29.4V61.1z"/>
		<path class="st2" d="M62.4,61.1H38.5c-3.7,0-12.8,4.4-12.8,4.4c-1.4,0.7-5.2,2.1-3.8,3.3L33,76.6h29.4"/>
		<path class="st1" d="M62.5,133.7h41.8c1.3,0,2.6,0.2,3.8,0.6l8.7,2.9c1.8,0.6,2.7,1,2,2.9l-3.3,6.4l-52.7-0.3H62l-52.7,0.3
			L6,140.1c-0.7-1.9,0.2-2.3,2-2.9l8.7-2.9c1.2-0.4,2.5-0.6,3.8-0.6H62.5L62.5,133.7z"/>
		<path class="st2" d="M62.5,133.7h41.8c1.3,0,2.6,0.2,3.8,0.6l8.7,2.9c1.8,0.6,2.7,1,2,2.9l-3.3,6.4l-52.7-0.3H62l-52.7,0.3
			L6,140.1c-0.7-1.9,0.2-2.3,2-2.9l8.7-2.9c1.2-0.4,2.5-0.6,3.8-0.6H62.5"/>
		<path class="st1" d="M62.5,133.7h43l13.4-10.4c2.6-2.2-0.2-3.7-2-4.7l-8.5-3.8c-1.2-0.7-5.2-1.9-6.5-1.9H23.1
			c-1.3,0-5.3,1.2-6.5,1.9L8,118.6c-1.8,1-4.6,2.4-2,4.7l13.4,10.4H62.5z"/>
		<path class="st2" d="M62.5,133.7h43l13.4-10.4c2.6-2.2-0.2-3.7-2-4.7l-8.5-3.8c-1.2-0.7-5.2-1.9-6.5-1.9H23.1
			c-1.3,0-5.3,1.2-6.5,1.9L8,118.6c-1.8,1-4.6,2.4-2,4.7l13.4,10.4H62.5"/>
		<path class="st1" d="M62.5,112.7h38.1l14.4-10.4c1.8-1.7-3.1-3.5-4.9-4.5c0,0-11.8-5.9-16.6-5.9H31.4c-4.8,0-16.6,5.9-16.6,5.9
			c-1.8,1-6.7,2.8-4.9,4.5l14.4,10.4H62.5z"/>
		<path class="st0" d="M62.5,112.7h38.1l14.4-10.4c1.8-1.7-3.1-3.5-4.9-4.5c0,0-11.8-5.9-16.6-5.9H31.4c-4.8,0-16.6,5.9-16.6,5.9
			c-1.8,1-6.7,2.8-4.9,4.5l14.4,10.4H62.5z"/>
		<path class="st1" d="M62.5,92h34.2l12.9-7.8c1.6-1.2-2.8-2.6-4.4-3.3c0,0-10.6-4.4-14.9-4.4H34.5c-4.3,0-14.9,4.4-14.9,4.4
			c-1.6,0.7-6,2.1-4.4,3.3L28.2,92H62.5z"/>
		<path class="st0" d="M62.5,92h34.2l12.9-7.8c1.6-1.2-2.8-2.6-4.4-3.3c0,0-10.6-4.4-14.9-4.4H34.5c-4.3,0-14.9,4.4-14.9,4.4
			c-1.6,0.7-6,2.1-4.4,3.3L28.2,92H62.5z"/>
		<path class="st1" d="M61.5,61.1h24.9c3.7,0,12.8,4.4,12.8,4.4c1.4,0.7,5.2,2.1,3.8,3.3l-11.1,7.8H61.5V61.1z"/>
		<path class="st2" d="M61.5,61.1h24.9c3.7,0,12.8,4.4,12.8,4.4c1.4,0.7,5.2,2.1,3.8,3.3l-11.1,7.8H61.5"/>
		<path class="st1" d="M64.7,61.1h23.3l9.6-6.4c1.2-1-2.1-2.2-3.3-2.8c0,0-7.9-3.7-11.1-3.7H41.7c-3.2,0-11.1,3.7-11.1,3.7
			c-1.2,0.6-4.5,1.7-3.3,2.8l9.6,6.4H64.7z"/>
		<path class="st1" d="M84.3,48.3c0,0-4.9-2.3-5.7-5.6V31c0,0,0.5-2.8-2.9-2.8H49.1c-3.4,0-2.9,2.8-2.9,2.8v11.6
			c-0.9,3.4-5.7,5.6-5.7,5.6H84.3z"/>
		<path class="st2" d="M84.3,48.3c0,0-4.9-2.3-5.7-5.6V31c0,0,0.5-2.8-2.9-2.8H49.1c-3.4,0-2.9,2.8-2.9,2.8v11.6
			c-0.9,3.4-5.7,5.6-5.7,5.6"/>
		<line class="st3" x1="117.9" y1="119.2" x2="6.9" y2="119.2"/>
		<path class="st1" d="M117.9,119.2c0,0-6.9,0.1-17.3,0.2c-5.2,0-11.3,0.1-17.8,0.1c-6.5,0-13.4,0-20.4,0c-6.9,0-13.9,0-20.4,0
			c-6.5,0-12.6-0.1-17.8-0.1c-10.4-0.1-17.3-0.2-17.3-0.2s6.9-0.1,17.3-0.2c5.2,0,11.3-0.1,17.8-0.1c6.5,0,13.4,0,20.4,0
			c6.9,0,13.9,0,20.4,0c6.5,0,12.6,0.1,17.8,0.1C111,119.2,117.9,119.2,117.9,119.2z"/>
		<line class="st3" x1="114.1" y1="100" x2="10.7" y2="100"/>
		<path class="st1" d="M114.1,100c0,0-6.5,0.1-16.2,0.2c-4.8,0-10.5,0.1-16.6,0.1c-6.1,0-12.5,0-19,0c-6.5,0-12.9,0-19,0
			c-6.1,0-11.7-0.1-16.6-0.1c-9.7-0.1-16.2-0.2-16.2-0.2s6.5-0.1,16.2-0.2c4.8,0,10.5-0.1,16.6-0.1c6.1,0,12.5,0,19,0
			c6.5,0,12.9,0,19,0c6.1,0,11.7,0.1,16.6,0.1C107.7,99.9,114.1,100,114.1,100z"/>
		<line class="st3" x1="108.9" y1="82.7" x2="15.9" y2="82.7"/>
		<path class="st1" d="M108.9,82.7c0,0-5.8,0.1-14.5,0.2C90,82.9,85,83,79.5,83c-5.4,0-11.3,0-17.1,0c-5.8,0-11.6,0-17.1,0
			c-5.4,0-10.5-0.1-14.9-0.1c-8.7-0.1-14.5-0.2-14.5-0.2s5.8-0.1,14.5-0.2c4.4,0,9.4-0.1,14.9-0.1c5.4,0,11.3,0,17.1,0
			c5.8,0,11.6,0,17.1,0c5.4,0,10.5,0.1,14.9,0.1C103.1,82.6,108.9,82.7,108.9,82.7z"/>
		<line class="st3" x1="102.6" y1="67.2" x2="22.3" y2="67.2"/>
		<path class="st1" d="M102.6,67.2c0,0-1.3,0-3.4,0.1c-2.2,0-5.3,0.1-9.1,0.1c-3.8,0-8.2,0.1-12.9,0.1c-4.7,0-9.7,0-14.7,0
			c-5,0-10,0-14.7,0c-4.7,0-9.1-0.1-12.9-0.1c-3.8,0-6.9-0.1-9.1-0.1c-2.2,0-3.4-0.1-3.4-0.1s1.3,0,3.4-0.1c2.2,0,5.3-0.1,9.1-0.1
			c3.8,0,8.2-0.1,12.9-0.1c4.7,0,9.7,0,14.7,0c5,0,10,0,14.7,0c4.7,0,9.1,0.1,12.9,0.1c3.8,0,6.9,0.1,9.1,0.1
			C101.3,67.2,102.6,67.2,102.6,67.2z"/>
		<rect x="55.6" y="113.7" class="st1" width="1.2" height="4.7"/>
		<polygon class="st1" points="55.6,99.1 56.7,99.1 56.8,92.8 55.6,92.8 		"/>
		<rect x="55.6" y="147.5" class="st1" width="1.2" height="12.1"/>
		<rect x="55.6" y="141" class="st1" width="1.2" height="4.6"/>
		<rect x="55.6" y="134.4" class="st1" width="1.2" height="2"/>
		<polygon class="st1" points="55.6,60.2 56.8,60.2 56.8,55.8 55.6,55.8 		"/>
		<rect x="55.6" y="49" class="st1" width="1.2" height="3.4"/>
		<rect x="55.6" y="29.4" class="st1" width="1.2" height="17.5"/>
		<rect x="55.6" y="77.1" class="st1" width="1.2" height="4.9"/>
		<rect x="55.6" y="85.8" class="st1" width="1.2" height="5.3"/>
		<rect x="55.6" y="70" class="st1" width="1.2" height="5.7"/>
		<rect x="55.6" y="61.7" class="st1" width="1.2" height="4.5"/>
		<polygon class="st1" points="34.2,77.1 19.3,82 54.4,82 54.4,77.1 		"/>
		<polygon class="st1" points="38.3,61.7 26.1,66.3 54.5,66.3 54.5,61.7 		"/>
		<polygon class="st1" points="31.5,55.8 37.5,60.2 54.5,60.2 54.5,55.8 		"/>
		<path class="st1" d="M54.5,29.4h-5.8v14c-0.4,2-3.1,3.5-3.1,3.5l8.9,0V29.4z"/>
		<polygon class="st1" points="43.8,49 33.6,52.3 54.5,52.3 54.5,49 		"/>
		<rect x="11.1" y="147.5" class="st1" width="43.3" height="12.1"/>
		<polygon class="st1" points="24.9,113.7 11.5,118.4 54.5,118.4 54.5,113.7 		"/>
		<polygon class="st1" points="30.1,92.8 14.4,99.1 54.4,99.1 54.5,92.8 		"/>
		<path class="st1" d="M79.2,30.1H45.3c-0.6,0-1.2-0.5-1.2-1.1v-0.5c0-0.6,0.5-1.1,1.2-1.1h33.9c0.6,0,1.2,0.5,1.2,1.1V29
			C80.3,29.6,79.8,30.1,79.2,30.1z"/>
		<path class="st0" d="M79.2,30.1H45.3c-0.6,0-1.2-0.5-1.2-1.1v-0.5c0-0.6,0.5-1.1,1.2-1.1h33.9c0.6,0,1.2,0.5,1.2,1.1V29
			C80.3,29.6,79.8,30.1,79.2,30.1z"/>
		<path class="st1" d="M116.4,161.6H7.7c-0.5,0-0.8-0.4-0.8-0.8v-0.5c0-0.4,0.4-0.8,0.8-0.8h108.6c0.5,0,0.8,0.4,0.8,0.8v0.5
			C117.2,161.3,116.8,161.6,116.4,161.6z"/>
		<path class="st0" d="M116.4,161.6H7.7c-0.5,0-0.8-0.4-0.8-0.8v-0.5c0-0.4,0.4-0.8,0.8-0.8h108.6c0.5,0,0.8,0.4,0.8,0.8v0.5
			C117.2,161.3,116.8,161.6,116.4,161.6z"/>
		<path class="st1" d="M85.1,47.8H40c0.5-0.1,0.9-0.2,1.2-0.3c1.8-0.8,1.3-2.4,1.3-2.4h39.7C82.2,45.1,82,47.4,85.1,47.8z"/>
		<path class="st0" d="M85.1,47.8H40c0.5-0.1,0.9-0.2,1.2-0.3c1.8-0.8,1.3-2.4,1.3-2.4h39.7C82.2,45.1,82,47.4,85.1,47.8z"/>
		<path class="st1" d="M91.1,61.8H33.6c0,0,0.8-0.4,0.8-1.1c0-0.7-0.8-1.1-0.8-1.1h57.5c0,0-0.8,0.4-0.8,1.1
			C90.3,61.4,91.1,61.8,91.1,61.8z"/>
		<path class="st0" d="M91.1,61.8H33.6c0,0,0.8-0.4,0.8-1.1c0-0.7-0.8-1.1-0.8-1.1h57.5c0,0-0.8,0.4-0.8,1.1
			C90.3,61.4,91.1,61.8,91.1,61.8z"/>
		<path class="st1" d="M95.3,76.9h-66c0,0,0.8-0.4,0.8-1.1c0-0.7-0.8-1.1-0.8-1.1h66c0,0-0.8,0.4-0.8,1.1
			C94.6,76.5,95.3,76.9,95.3,76.9z"/>
		<path class="st0" d="M95.3,76.9h-66c0,0,0.8-0.4,0.8-1.1c0-0.7-0.8-1.1-0.8-1.1h66c0,0-0.8,0.4-0.8,1.1
			C94.6,76.5,95.3,76.9,95.3,76.9z"/>
		<path class="st1" d="M99.7,93.1H25c0,0,0.8-0.4,0.8-1.1c0-0.7-0.8-1.1-0.8-1.1h74.7c0,0-0.8,0.4-0.8,1.1
			C98.9,92.8,99.7,93.1,99.7,93.1z"/>
		<path class="st0" d="M99.7,93.1H25c0,0,0.8-0.4,0.8-1.1c0-0.7-0.8-1.1-0.8-1.1h74.7c0,0-0.8,0.4-0.8,1.1
			C98.9,92.8,99.7,93.1,99.7,93.1z"/>
		<path class="st1" d="M108.7,134.1H16c0,0,1-0.4,1-1.1c0-0.7-1-1.1-1-1.1h92.6c0,0-1,0.4-1,1.1
			C107.7,133.7,108.7,134.1,108.7,134.1z"/>
		<path class="st0" d="M108.7,134.1H16c0,0,1-0.4,1-1.1c0-0.7-1-1.1-1-1.1h92.6c0,0-1,0.4-1,1.1
			C107.7,133.7,108.7,134.1,108.7,134.1z"/>
		<path class="st1" d="M104.5,112.9H20.2c0,0,0.9-0.4,0.9-1.1c0-0.7-0.9-1.1-0.9-1.1h84.4c0,0-0.9,0.4-0.9,1.1
			C103.7,112.5,104.5,112.9,104.5,112.9z"/>
		<path class="st0" d="M104.5,112.9H20.2c0,0,0.9-0.4,0.9-1.1c0-0.7-0.9-1.1-0.9-1.1h84.4c0,0-0.9,0.4-0.9,1.1
			C103.7,112.5,104.5,112.9,104.5,112.9z"/>
		<path class="st4" d="M115,146.5H9.3v12.7c0,1,0.8,1.8,1.9,1.8h102c1,0,1.9-0.8,1.9-1.8V146.5z"/>
		<path class="st5" d="M62.4,61.1H38.5c-3.7,0-12.8,4.4-12.8,4.4c-1.4,0.7-5.2,2.1-3.8,3.3L33,76.6h29.4"/>
		<path class="st6" d="M62.5,133.7h41.8c1.3,0,2.6,0.2,3.8,0.6l8.7,2.9c1.8,0.6,2.7,1,2,2.9l-3.3,6.4l-52.7-0.3H62l-52.7,0.3
			L6,140.1c-0.7-1.9,0.2-2.3,2-2.9l8.7-2.9c1.2-0.4,2.5-0.6,3.8-0.6H62.5"/>
		<path class="st6" d="M62.5,133.7h43l13.4-10.4c2.6-2.2-0.2-3.7-2-4.7l-8.5-3.8c-1.2-0.7-5.2-1.9-6.5-1.9H23.1
			c-1.3,0-5.3,1.2-6.5,1.9L8,118.6c-1.8,1-4.6,2.4-2,4.7l13.4,10.4H62.5"/>
		<path class="st7" d="M62.5,112.7h38.1l14.4-10.4c1.8-1.7-3.1-3.5-4.9-4.5c0,0-11.8-5.9-16.6-5.9H31.4c-4.8,0-16.6,5.9-16.6,5.9
			c-1.8,1-6.7,2.8-4.9,4.5l14.4,10.4H62.5z"/>
		<path class="st7" d="M62.5,92h34.2l12.9-7.8c1.6-1.2-2.8-2.6-4.4-3.3c0,0-10.6-4.4-14.9-4.4H34.5c-4.3,0-14.9,4.4-14.9,4.4
			c-1.6,0.7-6,2.1-4.4,3.3L28.2,92H62.5z"/>
		<path class="st6" d="M62.5,61.1h23.9c3.7,0,12.8,4.4,12.8,4.4c1.4,0.7,5.2,2.1,3.8,3.3l-11.1,7.8H62.5"/>
		<path class="st7" d="M64.7,61.1h23.3l9.6-6.4c1.2-1-2.1-2.2-3.3-2.8c0,0-7.9-3.7-11.1-3.7H41.7c-3.2,0-11.1,3.7-11.1,3.7
			c-1.2,0.6-4.5,1.7-3.3,2.8l9.6,6.4H64.7z"/>
		<line class="st6" x1="117.9" y1="119.2" x2="6.9" y2="119.2"/>
		<line class="st6" x1="114.1" y1="100" x2="10.7" y2="100"/>
		<line class="st6" x1="108.9" y1="82.7" x2="15.9" y2="82.7"/>
		<line class="st6" x1="102.6" y1="67.2" x2="22.3" y2="67.2"/>
		<path class="st7" d="M115,146.5H9.3v12.7c0,1,0.8,1.8,1.9,1.8h102c1,0,1.9-0.8,1.9-1.8V146.5z"/>
		<path class="st7" d="M115,146.5H9.3v12.7c0,1,0.8,1.8,1.9,1.8h102c1,0,1.9-0.8,1.9-1.8V146.5z"/>
		<path class="st8" d="M62.4,61.1H38.5c-3.7,0-12.8,4.4-12.8,4.4c-1.4,0.7-5.2,2.1-3.8,3.3L33,76.6h29.4V61.1z"/>
		<path class="st8" d="M62.5,133.7h41.8c1.3,0,2.6,0.2,3.8,0.6l8.7,2.9c1.8,0.6,2.7,1,2,2.9l-3.3,6.4l-52.7-0.3H62l-52.7,0.3
			L6,140.1c-0.7-1.9,0.2-2.3,2-2.9l8.7-2.9c1.2-0.4,2.5-0.6,3.8-0.6H62.5L62.5,133.7z"/>
		<path class="st8" d="M62.5,133.7h43l13.4-10.4c2.6-2.2-0.2-3.7-2-4.7l-8.5-3.8c-1.2-0.7-5.2-1.9-6.5-1.9H23.1
			c-1.3,0-5.3,1.2-6.5,1.9L8,118.6c-1.8,1-4.6,2.4-2,4.7l13.4,10.4H62.5z"/>
		<path class="st8" d="M62.5,112.7h38.1l14.4-10.4c1.8-1.7-3.1-3.5-4.9-4.5c0,0-11.8-5.9-16.6-5.9H31.4c-4.8,0-16.6,5.9-16.6,5.9
			c-1.8,1-6.7,2.8-4.9,4.5l14.4,10.4H62.5z"/>
		<path class="st8" d="M62.5,92h34.2l12.9-7.8c1.6-1.2-2.8-2.6-4.4-3.3c0,0-10.6-4.4-14.9-4.4H34.5c-4.3,0-14.9,4.4-14.9,4.4
			c-1.6,0.7-6,2.1-4.4,3.3L28.2,92H62.5z"/>
		<path class="st8" d="M61.5,61.1h24.9c3.7,0,12.8,4.4,12.8,4.4c1.4,0.7,5.2,2.1,3.8,3.3l-11.1,7.8H61.5V61.1z"/>
		<path class="st8" d="M64.7,61.1h23.3l9.6-6.4c1.2-1-2.1-2.2-3.3-2.8c0,0-7.9-3.7-11.1-3.7H41.7c-3.2,0-11.1,3.7-11.1,3.7
			c-1.2,0.6-4.5,1.7-3.3,2.8l9.6,6.4H64.7z"/>
		<path class="st9" d="M84.3,48.3c0,0-4.9-2.3-5.7-5.6V31c0,0,0.5-2.8-2.9-2.8H49.1c-3.4,0-2.9,2.8-2.9,2.8v11.6
			c-0.9,3.4-5.7,5.6-5.7,5.6H84.3z"/>
		<path class="st10" d="M102.6,67.2c0,0-1.3,0-3.4,0.1c-2.2,0-5.3,0.1-9.1,0.1c-3.8,0-8.2,0.1-12.9,0.1c-4.7,0-9.7,0-14.7,0
			c-5,0-10,0-14.7,0c-4.7,0-9.1-0.1-12.9-0.1c-3.8,0-6.9-0.1-9.1-0.1c-2.2,0-3.4-0.1-3.4-0.1s1.3,0,3.4-0.1c2.2,0,5.3-0.1,9.1-0.1
			c3.8,0,8.2-0.1,12.9-0.1c4.7,0,9.7,0,14.7,0c5,0,10,0,14.7,0c4.7,0,9.1,0.1,12.9,0.1c3.8,0,6.9,0.1,9.1,0.1
			C101.3,67.2,102.6,67.2,102.6,67.2z"/>
		<path class="st11" d="M79.2,30.1H45.3c-0.6,0-1.2-0.5-1.2-1.1v-0.5c0-0.6,0.5-1.1,1.2-1.1h33.9c0.6,0,1.2,0.5,1.2,1.1V29
			C80.3,29.6,79.8,30.1,79.2,30.1z"/>
		<path class="st12" d="M79.2,30.1H45.3c-0.6,0-1.2-0.5-1.2-1.1v-0.5c0-0.6,0.5-1.1,1.2-1.1h33.9c0.6,0,1.2,0.5,1.2,1.1V29
			C80.3,29.6,79.8,30.1,79.2,30.1z"/>
		<path class="st11" d="M116.4,161.6H7.7c-0.5,0-0.8-0.4-0.8-0.8v-0.5c0-0.4,0.4-0.8,0.8-0.8h108.6c0.5,0,0.8,0.4,0.8,0.8v0.5
			C117.2,161.3,116.8,161.6,116.4,161.6z"/>
		<path class="st13" d="M116.4,161.6H7.7c-0.5,0-0.8-0.4-0.8-0.8v-0.5c0-0.4,0.4-0.8,0.8-0.8h108.6c0.5,0,0.8,0.4,0.8,0.8v0.5
			C117.2,161.3,116.8,161.6,116.4,161.6z"/>
		<path class="st11" d="M85.1,47.8H40c0.5-0.1,0.9-0.2,1.2-0.3c1.8-0.8,1.3-2.4,1.3-2.4h39.7C82.2,45.1,82,47.4,85.1,47.8z"/>
		<path class="st14" d="M85.6,48.4c-6.8,0-50.1,1.5-44.4-0.9c1.8-0.8,1.3-2.4,1.3-2.4h39.7C82.2,45.1,82.9,47.4,85.6,48.4z"/>
		<path class="st12" d="M91.1,61.8H33.6c0,0,0.8-0.4,0.8-1.1c0-0.7-0.8-1.1-0.8-1.1h57.5c0,0-0.8,0.4-0.8,1.1
			C90.3,61.4,91.1,61.8,91.1,61.8z"/>
		<path class="st15" d="M91.1,61.8H33.6c0,0,0.8-0.4,0.8-1.1c0-0.7-0.8-1.1-0.8-1.1h57.5c0,0-0.8,0.4-0.8,1.1
			C90.3,61.4,91.1,61.8,91.1,61.8z"/>
		<path class="st16" d="M95.3,76.9h-66c0,0,0.8-0.4,0.8-1.1c0-0.7-0.8-1.1-0.8-1.1h66c0,0-0.8,0.4-0.8,1.1
			C94.6,76.5,95.3,76.9,95.3,76.9z"/>
		<path class="st17" d="M95.3,76.9h-66c0,0,0.8-0.4,0.8-1.1c0-0.7-0.8-1.1-0.8-1.1h66c0,0-0.8,0.4-0.8,1.1
			C94.6,76.5,95.3,76.9,95.3,76.9z"/>
		<path class="st16" d="M99.7,93.1H25c0,0,0.8-0.4,0.8-1.1c0-0.7-0.8-1.1-0.8-1.1h74.7c0,0-0.8,0.4-0.8,1.1
			C98.9,92.8,99.7,93.1,99.7,93.1z"/>
		<path class="st17" d="M99.7,93.1H25c0,0,0.8-0.4,0.8-1.1c0-0.7-0.8-1.1-0.8-1.1h74.7c0,0-0.8,0.4-0.8,1.1
			C98.9,92.8,99.7,93.1,99.7,93.1z"/>
		<path class="st16" d="M108.7,134.1H16c0,0,1-0.4,1-1.1c0-0.7-1-1.1-1-1.1h92.6c0,0-1,0.4-1,1.1
			C107.7,133.7,108.7,134.1,108.7,134.1z"/>
		<path class="st18" d="M108.7,134.1H16c0,0,1-0.4,1-1.1c0-0.7-1-1.1-1-1.1h92.6c0,0-1,0.4-1,1.1
			C107.7,133.7,108.7,134.1,108.7,134.1z"/>
		<path class="st16" d="M104.5,112.9H20.2c0,0,0.9-0.4,0.9-1.1c0-0.7-0.9-1.1-0.9-1.1h84.4c0,0-0.9,0.4-0.9,1.1
			C103.7,112.5,104.5,112.9,104.5,112.9z"/>
		<path class="st19" d="M104.5,112.9H20.2c0,0,0.9-0.4,0.9-1.1c0-0.7-0.9-1.1-0.9-1.1h84.4c0,0-0.9,0.4-0.9,1.1
			C103.7,112.5,104.5,112.9,104.5,112.9z"/>
		<polygon class="st20" points="27.7,53.1 34.6,50 40.9,47.3 84.4,47.5 90.5,50.1 97.3,53.2 		"/>
		<polygon class="st21" points="21.1,67.3 33.6,61.7 36.6,61.9 91,61.7 96.5,64 104.7,67.5 		"/>
		<polygon class="st22" points="14.2,82.7 29.4,76.7 36.6,76.9 89.5,77 95.4,76.7 109.9,82.7 		"/>
		<polygon class="st22" points="9.7,100 25,93 33.6,93.4 86.5,93.5 99.5,92.9 114.7,100 		"/>
		<polygon class="st22" points="6.1,119.4 20.5,112.5 30,112.8 83,112.9 104.4,112.6 119,119.3 		"/>
		<polygon class="st22" points="7.3,137.2 17.9,133.1 27.6,133.9 80.6,134 108.3,133.7 118.5,137.2 		"/>
		<rect x="8.7" y="146.5" class="st22" width="107" height="13.1"/>
	</g>
	<g>
		<path class="st23" d="M128,159.5l3.2,1l2.4-0.3l2.4-2.7h0.2l3.8-0.6h0.2l4-0.2l2.3-1.9l0-0.2l3.1-16.2l8.6-25l4.4-9.2l8.9-7.2
			l14.9-5.1l9.9-0.9l10.3,0.9l0.4-0.3l10.8,3.2l8.7,4.6l5.1,5.3l4.5,8.1l3,7.4l2.6,7.4l1.9,7.9l1.2,7.9l0.9,8.8l1.2,4.7l2.7,1l3.8,0
			l0.3,0.2l3.8,1.7l1.3,1.8l3.9-0.1l-0.2,1.8l-3.2,0.7l-5.8,0.4l-8,0.1l-8.7-1.2l-2.6-0.6l-2.4-9.7l-0.9-9.7l-5.8-0.2
			c-0.5,0-1,0-1.5,0l-7.1,1.6l-1.7,1.9l1.4,4.1l1,1.4l-0.6,3.6l-1.9,1.4l-2.7-2l-3.2-2.4l-7.8,0.5l-0.7,0.1l-15.3-0.5l-1.8,2.8
			l-3.2,0.4l-2.4-2.7l1.6-5.1l0.8-2.5l-14.3-4.2l-5.8,19.7l-9.8,1.1l-9.9,0.3l-0.4,0.1l-7.7-0.2l-0.5,0.3l-3.7-1.7V159.5z"/>
		<path class="st24" d="M157.6,137.4c8.7-23.6,7-36.8,30.5-43.4l3.4,2.9c2.6,2.5,8.9,2.9,12.3,0.3l3.4-2.8
			c23.2,6.5,22.8,23.7,29.8,43.8"/>
		<path class="st25" d="M202.7,115.2c2.1,2,2.5,5.7,4.3,10.4c3.2,8.1,7.8,18.8,10.2,26.8c1.2,3.9-3,6.9-5.8,2.1
			c-0.9-1.5-2-1.4-3.5-1.4l-21.4-0.1c-1.3,0.1-1.3-0.1-1.9,1c-0.5,0.8-0.6,1.6-1.3,2c-1.1,0.6-2.3,0.6-3.2,0.4
			c-2.2-0.4-3.3-2.5-1.4-6.4c4.9-10,8.6-20.5,12.5-30.9c1-2.6,1.5-3.8,2.6-4.3C194.6,114.5,201.5,114.1,202.7,115.2z"/>
		<ellipse class="st26" cx="197.3" cy="127.5" rx="5.6" ry="5.4"/>
		<path class="st26" d="M208.9,145.6c0.3,1.7-4.9,1.1-7.6,0.6c-1.7-0.3-1.4-4.8-1.1-7.4c0.1-1.4,1-2.1,1.9-2.5
			c0.6-0.2,1.8-0.8,2.5-0.8C205.8,135.5,208.2,142.2,208.9,145.6z"/>
		<path class="st26" d="M186.5,145.6c-0.3,1.7,4.9,1.1,7.6,0.6c1.7-0.3,1.4-4.8,1.1-7.4c-0.1-1.4-1-2.1-1.9-2.5
			c-0.6-0.2-1.8-0.8-2.5-0.8C189.6,135.4,187.2,142.1,186.5,145.6z"/>
		<path class="st27" d="M180.8,145.4c-17.4-7.3-22.7-8.4-20.4,8.1c1.1,8.1-5.6,9.5-10.9,9.3l-14,0.5c-3.5,0-3.6-0.4-7.5-1.7v-2.1
			c1.9,0.2,3.6,1.2,4.8,0.9c0.4-0.1,2.1-2.5,2.8-2.9c3.4-1.9,11.3,1.1,11.7-6.3c0.8-4.2,1.1-8.3,2-12.2c1.9-7.5,4.7-14.3,7.1-20.7
			c2.1-5.6,3.3-11.2,7.1-15.3c3.7-4,8.4-6.6,14-8.7c9.3-3.5,21-4.5,33.8-1.3c18.6,4.7,22,12.1,28.9,31.2c3.3,9.1,4.3,18.4,5.3,29.6
			c0.8,8.6,8,0.5,12.6,7.4c0.7,1,0.4,0.8,1.5,0.6l2.1-0.4c0.6-0.1,0.5-0.2,0.6,0.3l0.2,1c0.1,0.7,0.2,0.6-0.3,0.7
			c-6.1,1.7-8,0.9-18,1.3c-20.6,1-4.5-20.6-16.3-23c-2.7-0.6-6.4,1.8-13.3,3.7"/>
		<path class="st25" d="M187.7,100.7c-9,2.4-13.3,4.7-16,14c2.1,5.4,11.9,8.2,17.3,9.3c1.1-1.7,1.5-3.9,2.4-5.6
			c0.6-1.1,1-2.9,2.1-3.4c1.6-0.7,3.3-0.4,5.3-0.5c1.5-0.1,3.1,0,4.3,1.2c1,0.9,1.5,2.9,2.1,4.6l1.1,3.5c5.1,0.2,14.8-4,17.8-8.2
			c-4.9-11.8-7.1-10.7-17.2-15.8C202.4,105.3,194.5,107.8,187.7,100.7z"/>
		<path class="st25" d="M219,119.8c-6.8-10.4-4.8-6.8-13.3-13c-4.9,4.7-10.8,6.9-17.1,0.7c-8.6,3.3-10.8,3-14.1,10.9"/>
		<path class="st26" d="M171.7,114.7l1.3,2.2l1.8,0.8l1.2-1.9l1.6-2.9l2.5-1.4l2.2-1.4c0.2,0,0.1,0,0.3-0.1l4.2-1.9l1.3-0.1l1.4,0.3
			l0.2,0l1.5,0.8l1.2,1.1l0.3,0l1.7,0.7l0.3-0.1l3.6,0.2l4.4-1.5l3-2.8l3.4,2.4l0.2,0l4.4,3.3l3.5,4.8l1.6,2.5l2.6-1.7l2.5-2.5
			l-1.1-2.5l-2.2-4.1l-3.1-3.6l-5.2-2.9l-5.6-2.6l-2.1,1.8l-1.9,1.6l-4,1.6l-0.3,0.1l-4.2-0.1l-3-0.7l-2.9-1.9l-1.8-1.5l-5.8,2.3
			l-3.3,1.8l-2.4,2.2l-1.6,2.2L171.7,114.7z"/>
		<path class="st26" d="M187.1,153c0.1,1.7,0.3,3.6,1.9,4.6c1.7,1,5.3,0.2,7.9,0.2c3.3-0.1,5.8,0.7,8-0.3c1.9-0.8,1.9-3.2,1.9-4.4
			L187.1,153z"/>
		<path class="st28" d="M233.6,138.1l-0.9-2c-8.7-3.5-6.2-8.6-9.7-16.7l1-3.8"/>
		<path class="st25" d="M152.8,162.7c12.6-1,13.5-0.6,14.8-12.5c0.3-9.8,5.3-6.3,12.8-3.9"/>
		<path class="st25" d="M236.7,163.5c-10.8-1.3-13-2.3-14.1-5.8c-1.8-6,4-13.5-7.8-12.3"/>
		<path class="st26" d="M157,162.1l4-0.5l4-1.1l1-2.8l0.8-3.7l0.6-4.5c0-0.2,0.1-0.4,0.1-0.5l1-3.5l1.9-2.1l2.5-0.4l-0.4-1
			c-0.3,0.1-0.3,0.1-0.5-0.1l-4.4-1.1c-0.3,0-0.3,0-0.5,0l-3.5-0.4l-0.2,0.2l-2.1,1.8l-0.9,3l-0.3,4c0.2,0.2,0.2,0.1,0.2,0.3
			l0.3,4.7l0.3,0.3v0.1l-0.3,2.7l0,0.2l-1.5,2.8l-1.9,1.8L157,162.1z"/>
		<path class="st26" d="M219.2,144.1l4.2-1.2l0.3-0.1l3.7-1l3.1,1l0.1,0.3l2,2.6l0.5,4.3l0,0.2l-0.1,4.6l0.4,4l1.3,3.9l-1.2,0.4
			l-0.3-0.1l-4.1-0.7l-0.2-0.1l-3.1-0.8l-2.6-2.2c-0.2-0.3,0,0-0.2-0.2l-0.7-2.9l-0.2-4.2v-0.2l0.3-3.1l-0.1-0.1l-0.8-1.9l-3-1.9
			L219.2,144.1z"/>
	</g>
	<g>
		<ellipse class="st22" cx="300.6" cy="123.7" rx="34.7" ry="19.8"/>
		<ellipse class="st25" cx="301.3" cy="112.4" rx="13.3" ry="7.3"/>
		<path class="st25" d="M301.6,107.6c4.5,0,8.2,1.9,8.2,4.4c0,2.4-3.7,4.3-8.2,4.3c-4.5,0-8.2-1.9-8.2-4.3
			C293.4,109.5,297.1,107.6,301.6,107.6z"/>
		<path class="st25" d="M301.5,108.7c4.1,0,7.4,1.7,7.4,3.8c0,2.1-3.3,3.8-7.4,3.8c-4.1,0-7.4-1.7-7.4-3.8
			C294.1,110.4,297.4,108.7,301.5,108.7z"/>
		<ellipse class="st25" cx="300.7" cy="123.9" rx="34.8" ry="19.8"/>
		<ellipse class="st25" cx="300.7" cy="122.8" rx="33" ry="18.7"/>
		<path class="st28" d="M285.7,115.6c-4.8,2.9-7.8,6.6-7.7,11.2c0,1.5,0.5,3.2,1.6,4.8c-0.2,1.5-2.6,2.7-3.3,2.9
			c-1.1-0.9-1.6-1.1-2.6-2.2c-1.7-2-2.6-4.2-2.6-6.1c-0.1-7.1,7-12.7,17.5-15.9c-1.8,1.4-2.8,3-2.8,4.8c0,4.6,7,8.4,15.7,8.4
			c8.7,0,15.7-3.7,15.7-8.4c0-1.9-1.2-3.7-3.3-5.1"/>
		<path class="st29" d="M278,126.9c0,1.5,1.1,3.1,1.6,4.8c0.5,1.6-2.3,3.3-3.3,2.9c-1-0.4-1.6-1.1-2.6-2.2c-1.7-2-2.6-4.2-2.6-6.1
			c-0.1-7.1,7-12.7,17.5-15.9c-1.8,1.4-2.9,3-2.8,4.8C285.7,116.5,277.8,118.3,278,126.9z"/>
		<path class="st30" d="M325.9,124.8c-3.3-3.4-7-4.5-3-7.4c1.1-0.8,2.1-1.9,3-1.9c2.4,0,3.5,0.7,3.9,1.8c0.5,1.1-1-0.4,0.5,7
			c1.5,7.4-7,13.7-16.1,15.6C319.2,137.5,329.6,131.4,325.9,124.8z"/>
		<path class="st25" d="M331.5,114.7c2.2,1.7,3.9,4.2,4.6,7.2c1,4.4-0.3,21.7-0.9,26.4c-4.3,10.7-17.5,18-35,18.2
			c-17.5,0.2-32.8-9.1-34.2-19.9c-0.6-4-0.3-9.3-0.4-14.3c0-2-0.1-3.6-0.2-5.5c-0.1-3.1,0.3-6,1.5-7.6"/>
		<polygon class="st26" points="265.4,127.2 265.8,145 266.9,150.1 266.9,150.3 270.3,155.3 275,159.4 279.2,161.9 279.4,161.9 
			288,165.1 296.9,166.5 306.2,166.2 311.8,165.3 318.4,163.6 325.6,159.8 330.4,155.6 334,150.9 335.3,147.9 335.9,141.6 
			336.5,131.5 336.5,124.9 335.5,124.8 333.9,129.8 330.6,134.1 327.1,136.8 320.8,140 315.4,142 308.6,143.2 302.7,143.7 
			296.8,143.6 291.4,143 285.8,141.8 279.4,139.6 273.5,136.2 268.8,131.8 		"/>
	</g>
</g>
</svg>
