<?xml version="1.0" encoding="utf-8"?>
<!-- Generator: Adobe Illustrator 22.1.0, SVG Export Plug-In . SVG Version: 6.00 Build 0)  -->
<svg version="1.1" id="_x31_" xmlns="http://www.w3.org/2000/svg" xmlns:xlink="http://www.w3.org/1999/xlink" x="0px" y="0px"
	 viewBox="0 0 340.2 340.2" style="enable-background:new 0 0 340.2 340.2;" xml:space="preserve">
<style type="text/css">
	
		.st0{fill-rule:evenodd;clip-rule:evenodd;fill:#609ABF;stroke:#609ABF;stroke-width:4.5306;stroke-linejoin:round;stroke-miterlimit:22.9256;}
	
		.st1{fill-rule:evenodd;clip-rule:evenodd;fill:#609ABF;stroke:#609ABF;stroke-width:8.5039;stroke-linejoin:round;stroke-miterlimit:22.9256;}
	
		.st2{fill-rule:evenodd;clip-rule:evenodd;fill:none;stroke:#609ABF;stroke-width:4.5306;stroke-linejoin:round;stroke-miterlimit:22.9256;}
	
		.st3{fill-rule:evenodd;clip-rule:evenodd;fill:none;stroke:#609ABF;stroke-width:8.5039;stroke-linejoin:round;stroke-miterlimit:22.9256;}
	.st4{fill-rule:evenodd;clip-rule:evenodd;fill:#609ABF;stroke:#609ABF;stroke-width:1.7016;stroke-miterlimit:22.9256;}
	.st5{fill-rule:evenodd;clip-rule:evenodd;fill:none;stroke:#609ABF;stroke-width:1.7016;stroke-miterlimit:22.9256;}
	.st6{fill-rule:evenodd;clip-rule:evenodd;fill:none;stroke:#609ABF;stroke-width:1.7005;stroke-miterlimit:22.9256;}
	.st7{fill-rule:evenodd;clip-rule:evenodd;fill:#609ABF;stroke:#609ABF;stroke-width:1.7005;stroke-miterlimit:22.9256;}
	.st8{fill-rule:evenodd;clip-rule:evenodd;fill:#609ABF;}
	.st9{fill-rule:evenodd;clip-rule:evenodd;fill:#609ABF;stroke:#609ABF;stroke-width:0.1295;stroke-miterlimit:22.9256;}
	.st10{fill-rule:evenodd;clip-rule:evenodd;fill:#262C6E;}
	.st11{fill-rule:evenodd;clip-rule:evenodd;fill:#FFFFFF;}
	.st12{fill-rule:evenodd;clip-rule:evenodd;fill:#DC8D22;stroke:#DC8D22;stroke-width:0.1295;stroke-miterlimit:22.9256;}
	.st13{fill-rule:evenodd;clip-rule:evenodd;fill:#609ABF;stroke:#DC8D22;stroke-width:0.8504;stroke-miterlimit:22.9256;}
	.st14{fill-rule:evenodd;clip-rule:evenodd;fill:#DC8D22;stroke:#DC8D22;stroke-width:0.7381;stroke-miterlimit:22.9256;}
	
		.st15{fill-rule:evenodd;clip-rule:evenodd;fill:#DC8D22;stroke:#DC8D22;stroke-width:0.8504;stroke-linejoin:round;stroke-miterlimit:22.9256;}
	
		.st16{fill-rule:evenodd;clip-rule:evenodd;fill:#DC8D22;stroke:#DC8D22;stroke-width:0.1295;stroke-linejoin:round;stroke-miterlimit:22.9256;}
	
		.st17{fill-rule:evenodd;clip-rule:evenodd;fill:#DC8D22;stroke:#DC8D22;stroke-width:0.6883;stroke-linejoin:round;stroke-miterlimit:22.9256;}
	
		.st18{fill-rule:evenodd;clip-rule:evenodd;fill:#DC8D22;stroke:#DC8D22;stroke-width:0.6897;stroke-linejoin:round;stroke-miterlimit:22.9256;}
	
		.st19{fill-rule:evenodd;clip-rule:evenodd;fill:#DC8D22;stroke:#DC8D22;stroke-width:0.7682;stroke-linejoin:round;stroke-miterlimit:22.9256;}
	
		.st20{fill-rule:evenodd;clip-rule:evenodd;fill:#DC8D22;stroke:#DC8D22;stroke-width:0.127;stroke-linejoin:round;stroke-miterlimit:22.9256;}
	
		.st21{fill-rule:evenodd;clip-rule:evenodd;fill:#DC8D22;stroke:#DC8D22;stroke-width:0.7654;stroke-linejoin:round;stroke-miterlimit:22.9256;}
	.st22{fill-rule:evenodd;clip-rule:evenodd;fill:#DC8D22;stroke:#DC8D22;stroke-width:0.5669;stroke-miterlimit:22.9256;}
	.st23{fill-rule:evenodd;clip-rule:evenodd;fill:#DC8D22;stroke:#DC8D22;stroke-width:0.216;stroke-miterlimit:22.9256;}
	
		.st24{fill-rule:evenodd;clip-rule:evenodd;fill:none;stroke:#609ABF;stroke-width:8.5039;stroke-linecap:round;stroke-linejoin:round;stroke-miterlimit:22.9256;}
	.st25{fill-rule:evenodd;clip-rule:evenodd;fill:none;stroke:#609ABF;stroke-width:2.8346;stroke-miterlimit:22.9256;}
	.st26{fill-rule:evenodd;clip-rule:evenodd;fill:#609ABF;stroke:#609ABF;stroke-width:0.5669;stroke-miterlimit:22.9256;}
	
		.st27{fill-rule:evenodd;clip-rule:evenodd;fill:none;stroke:#609ABF;stroke-width:2.8346;stroke-linejoin:round;stroke-miterlimit:22.9256;}
	
		.st28{fill-rule:evenodd;clip-rule:evenodd;fill:none;stroke:#609ABF;stroke-width:2.8346;stroke-linecap:round;stroke-linejoin:round;stroke-miterlimit:22.9256;}
	
		.st29{fill-rule:evenodd;clip-rule:evenodd;fill:#609ABF;stroke:#609ABF;stroke-width:2.8346;stroke-linecap:round;stroke-linejoin:round;stroke-miterlimit:22.9256;}
	.st30{fill-rule:evenodd;clip-rule:evenodd;fill:#609ABF;stroke:#609ABF;stroke-width:2.8346;stroke-miterlimit:22.9256;}
</style>
<g>
	<g>
		<path class="st0" d="M115,215H9.3v12.7c0,1,0.8,1.8,1.9,1.8h102c1,0,1.9-0.8,1.9-1.8V215z"/>
		<path class="st1" d="M62.4,129.6H38.5c-3.7,0-12.8,4.4-12.8,4.4c-1.4,0.7-5.2,2.1-3.8,3.3l11.1,7.8h29.4V129.6z"/>
		<path class="st2" d="M62.4,129.6H38.5c-3.7,0-12.8,4.4-12.8,4.4c-1.4,0.7-5.2,2.1-3.8,3.3l11.1,7.8h29.4"/>
		<path class="st1" d="M62.5,202.2h41.8c1.3,0,2.6,0.2,3.8,0.6l8.7,2.9c1.8,0.6,2.7,1,2,2.9l-3.3,6.4l-52.7-0.3H62L9.3,215L6,208.6
			c-0.7-1.9,0.2-2.3,2-2.9l8.7-2.9c1.2-0.4,2.5-0.6,3.8-0.6H62.5L62.5,202.2z"/>
		<path class="st2" d="M62.5,202.2h41.8c1.3,0,2.6,0.2,3.8,0.6l8.7,2.9c1.8,0.6,2.7,1,2,2.9l-3.3,6.4l-52.7-0.3H62L9.3,215L6,208.6
			c-0.7-1.9,0.2-2.3,2-2.9l8.7-2.9c1.2-0.4,2.5-0.6,3.8-0.6H62.5"/>
		<path class="st1" d="M62.5,202.2h43l13.4-10.4c2.6-2.2-0.2-3.7-2-4.7l-8.5-3.8c-1.2-0.7-5.2-1.9-6.5-1.9H23.1
			c-1.3,0-5.3,1.2-6.5,1.9L8,187.1c-1.8,1-4.6,2.4-2,4.7l13.4,10.4H62.5z"/>
		<path class="st2" d="M62.5,202.2h43l13.4-10.4c2.6-2.2-0.2-3.7-2-4.7l-8.5-3.8c-1.2-0.7-5.2-1.9-6.5-1.9H23.1
			c-1.3,0-5.3,1.2-6.5,1.9L8,187.1c-1.8,1-4.6,2.4-2,4.7l13.4,10.4H62.5"/>
		<path class="st1" d="M62.5,181.2h38.1l14.4-10.4c1.8-1.7-3.1-3.5-4.9-4.5c0,0-11.8-5.9-16.6-5.9H31.4c-4.8,0-16.6,5.9-16.6,5.9
			c-1.8,1-6.7,2.8-4.9,4.5l14.4,10.4H62.5z"/>
		<path class="st0" d="M62.5,181.2h38.1l14.4-10.4c1.8-1.7-3.1-3.5-4.9-4.5c0,0-11.8-5.9-16.6-5.9H31.4c-4.8,0-16.6,5.9-16.6,5.9
			c-1.8,1-6.7,2.8-4.9,4.5l14.4,10.4H62.5z"/>
		<path class="st1" d="M62.5,160.5h34.2l12.9-7.8c1.6-1.2-2.8-2.6-4.4-3.3c0,0-10.6-4.4-14.9-4.4H34.5c-4.3,0-14.9,4.4-14.9,4.4
			c-1.6,0.7-6,2.1-4.4,3.3l12.9,7.8H62.5z"/>
		<path class="st0" d="M62.5,160.5h34.2l12.9-7.8c1.6-1.2-2.8-2.6-4.4-3.3c0,0-10.6-4.4-14.9-4.4H34.5c-4.3,0-14.9,4.4-14.9,4.4
			c-1.6,0.7-6,2.1-4.4,3.3l12.9,7.8H62.5z"/>
		<path class="st1" d="M61.5,129.6h24.9c3.7,0,12.8,4.4,12.8,4.4c1.4,0.7,5.2,2.1,3.8,3.3l-11.1,7.8H61.5V129.6z"/>
		<path class="st2" d="M61.5,129.6h24.9c3.7,0,12.8,4.4,12.8,4.4c1.4,0.7,5.2,2.1,3.8,3.3l-11.1,7.8H61.5"/>
		<path class="st1" d="M64.7,129.6h23.3l9.6-6.4c1.2-1-2.1-2.2-3.3-2.8c0,0-7.9-3.7-11.1-3.7H41.7c-3.2,0-11.1,3.7-11.1,3.7
			c-1.2,0.6-4.5,1.7-3.3,2.8l9.6,6.4H64.7z"/>
		<path class="st1" d="M84.3,116.8c0,0-4.9-2.3-5.7-5.6V99.5c0,0,0.5-2.8-2.9-2.8H49.1c-3.4,0-2.9,2.8-2.9,2.8v11.6
			c-0.9,3.4-5.7,5.6-5.7,5.6H84.3z"/>
		<path class="st2" d="M84.3,116.8c0,0-4.9-2.3-5.7-5.6V99.5c0,0,0.5-2.8-2.9-2.8H49.1c-3.4,0-2.9,2.8-2.9,2.8v11.6
			c-0.9,3.4-5.7,5.6-5.7,5.6"/>
		<line class="st3" x1="117.9" y1="187.7" x2="6.9" y2="187.7"/>
		<path class="st1" d="M117.9,187.7c0,0-6.9,0.1-17.3,0.2c-5.2,0-11.3,0.1-17.8,0.1c-6.5,0-13.4,0-20.4,0c-6.9,0-13.9,0-20.4,0
			c-6.5,0-12.6-0.1-17.8-0.1c-10.4-0.1-17.3-0.2-17.3-0.2s6.9-0.1,17.3-0.2c5.2,0,11.3-0.1,17.8-0.1c6.5,0,13.4,0,20.4,0
			c6.9,0,13.9,0,20.4,0c6.5,0,12.6,0.1,17.8,0.1C111,187.7,117.9,187.7,117.9,187.7z"/>
		<line class="st3" x1="114.1" y1="168.5" x2="10.7" y2="168.5"/>
		<path class="st1" d="M114.1,168.5c0,0-6.5,0.1-16.2,0.2c-4.8,0-10.5,0.1-16.6,0.1c-6.1,0-12.5,0-19,0c-6.5,0-12.9,0-19,0
			c-6.1,0-11.7-0.1-16.6-0.1c-9.7-0.1-16.2-0.2-16.2-0.2s6.5-0.1,16.2-0.2c4.8,0,10.5-0.1,16.6-0.1c6.1,0,12.5,0,19,0
			c6.5,0,12.9,0,19,0c6.1,0,11.7,0.1,16.6,0.1C107.7,168.4,114.1,168.5,114.1,168.5z"/>
		<line class="st3" x1="108.9" y1="151.2" x2="15.9" y2="151.2"/>
		<path class="st1" d="M108.9,151.2c0,0-5.8,0.1-14.5,0.2c-4.4,0-9.4,0.1-14.9,0.1c-5.4,0-11.3,0-17.1,0c-5.8,0-11.6,0-17.1,0
			c-5.4,0-10.5-0.1-14.9-0.1c-8.7-0.1-14.5-0.2-14.5-0.2s5.8-0.1,14.5-0.2c4.4,0,9.4-0.1,14.9-0.1c5.4,0,11.3,0,17.1,0
			c5.8,0,11.6,0,17.1,0C85,151,90,151,94.4,151C103.1,151.1,108.9,151.2,108.9,151.2z"/>
		<line class="st3" x1="102.6" y1="135.7" x2="22.3" y2="135.7"/>
		<path class="st1" d="M102.6,135.7c0,0-1.3,0-3.4,0.1c-2.2,0-5.3,0.1-9.1,0.1c-3.8,0-8.2,0.1-12.9,0.1c-4.7,0-9.7,0-14.7,0
			c-5,0-10,0-14.7,0c-4.7,0-9.1-0.1-12.9-0.1c-3.8,0-6.9-0.1-9.1-0.1c-2.2,0-3.4-0.1-3.4-0.1s1.3,0,3.4-0.1c2.2,0,5.3-0.1,9.1-0.1
			c3.8,0,8.2-0.1,12.9-0.1c4.7,0,9.7,0,14.7,0c5,0,10,0,14.7,0c4.7,0,9.1,0.1,12.9,0.1c3.8,0,6.9,0.1,9.1,0.1
			C101.3,135.7,102.6,135.7,102.6,135.7z"/>
		<rect x="55.6" y="182.2" class="st1" width="1.2" height="4.7"/>
		<polygon class="st1" points="55.6,167.6 56.7,167.6 56.8,161.3 55.6,161.3 		"/>
		<rect x="55.6" y="216" class="st1" width="1.2" height="12.1"/>
		<rect x="55.6" y="209.5" class="st1" width="1.2" height="4.6"/>
		<rect x="55.6" y="202.9" class="st1" width="1.2" height="2"/>
		<polygon class="st1" points="55.6,128.7 56.8,128.7 56.8,124.3 55.6,124.3 		"/>
		<rect x="55.6" y="117.5" class="st1" width="1.2" height="3.4"/>
		<rect x="55.6" y="97.9" class="st1" width="1.2" height="17.5"/>
		<rect x="55.6" y="145.6" class="st1" width="1.2" height="4.9"/>
		<rect x="55.6" y="154.3" class="st1" width="1.2" height="5.3"/>
		<rect x="55.6" y="138.5" class="st1" width="1.2" height="5.7"/>
		<rect x="55.6" y="130.2" class="st1" width="1.2" height="4.5"/>
		<polygon class="st1" points="34.2,145.6 19.3,150.5 54.4,150.5 54.4,145.6 		"/>
		<polygon class="st1" points="38.3,130.2 26.1,134.8 54.5,134.8 54.5,130.2 		"/>
		<polygon class="st1" points="31.5,124.3 37.5,128.7 54.5,128.7 54.5,124.3 		"/>
		<path class="st1" d="M54.5,97.9h-5.8v14c-0.4,2-3.1,3.5-3.1,3.5l8.9,0V97.9z"/>
		<polygon class="st1" points="43.8,117.5 33.6,120.8 54.5,120.8 54.5,117.5 		"/>
		<rect x="11.1" y="216" class="st1" width="43.3" height="12.1"/>
		<polygon class="st1" points="24.9,182.2 11.5,186.9 54.5,186.9 54.5,182.2 		"/>
		<polygon class="st1" points="30.1,161.3 14.4,167.6 54.4,167.6 54.5,161.3 		"/>
		<path class="st1" d="M79.2,98.6H45.3c-0.6,0-1.2-0.5-1.2-1.1V97c0-0.6,0.5-1.1,1.2-1.1h33.9c0.6,0,1.2,0.5,1.2,1.1v0.5
			C80.3,98.1,79.8,98.6,79.2,98.6z"/>
		<path class="st0" d="M79.2,98.6H45.3c-0.6,0-1.2-0.5-1.2-1.1V97c0-0.6,0.5-1.1,1.2-1.1h33.9c0.6,0,1.2,0.5,1.2,1.1v0.5
			C80.3,98.1,79.8,98.6,79.2,98.6z"/>
		<path class="st1" d="M116.4,230.1H7.7c-0.5,0-0.8-0.4-0.8-0.8v-0.5c0-0.4,0.4-0.8,0.8-0.8h108.6c0.5,0,0.8,0.4,0.8,0.8v0.5
			C117.2,229.8,116.8,230.1,116.4,230.1z"/>
		<path class="st0" d="M116.4,230.1H7.7c-0.5,0-0.8-0.4-0.8-0.8v-0.5c0-0.4,0.4-0.8,0.8-0.8h108.6c0.5,0,0.8,0.4,0.8,0.8v0.5
			C117.2,229.8,116.8,230.1,116.4,230.1z"/>
		<path class="st1" d="M85.1,116.3H40c0.5-0.1,0.9-0.2,1.2-0.3c1.8-0.8,1.3-2.4,1.3-2.4h39.7C82.2,113.6,82,115.9,85.1,116.3z"/>
		<path class="st0" d="M85.1,116.3H40c0.5-0.1,0.9-0.2,1.2-0.3c1.8-0.8,1.3-2.4,1.3-2.4h39.7C82.2,113.6,82,115.9,85.1,116.3z"/>
		<path class="st1" d="M91.1,130.3H33.6c0,0,0.8-0.4,0.8-1.1c0-0.7-0.8-1.1-0.8-1.1h57.5c0,0-0.8,0.4-0.8,1.1
			C90.3,129.9,91.1,130.3,91.1,130.3z"/>
		<path class="st0" d="M91.1,130.3H33.6c0,0,0.8-0.4,0.8-1.1c0-0.7-0.8-1.1-0.8-1.1h57.5c0,0-0.8,0.4-0.8,1.1
			C90.3,129.9,91.1,130.3,91.1,130.3z"/>
		<path class="st1" d="M95.3,145.4h-66c0,0,0.8-0.4,0.8-1.1c0-0.7-0.8-1.1-0.8-1.1h66c0,0-0.8,0.4-0.8,1.1
			C94.6,145,95.3,145.4,95.3,145.4z"/>
		<path class="st0" d="M95.3,145.4h-66c0,0,0.8-0.4,0.8-1.1c0-0.7-0.8-1.1-0.8-1.1h66c0,0-0.8,0.4-0.8,1.1
			C94.6,145,95.3,145.4,95.3,145.4z"/>
		<path class="st1" d="M99.7,161.6H25c0,0,0.8-0.4,0.8-1.1c0-0.7-0.8-1.1-0.8-1.1h74.7c0,0-0.8,0.4-0.8,1.1
			C98.9,161.3,99.7,161.6,99.7,161.6z"/>
		<path class="st0" d="M99.7,161.6H25c0,0,0.8-0.4,0.8-1.1c0-0.7-0.8-1.1-0.8-1.1h74.7c0,0-0.8,0.4-0.8,1.1
			C98.9,161.3,99.7,161.6,99.7,161.6z"/>
		<path class="st1" d="M108.7,202.6H16c0,0,1-0.4,1-1.1c0-0.7-1-1.1-1-1.1h92.6c0,0-1,0.4-1,1.1
			C107.7,202.2,108.7,202.6,108.7,202.6z"/>
		<path class="st0" d="M108.7,202.6H16c0,0,1-0.4,1-1.1c0-0.7-1-1.1-1-1.1h92.6c0,0-1,0.4-1,1.1
			C107.7,202.2,108.7,202.6,108.7,202.6z"/>
		<path class="st1" d="M104.5,181.4H20.2c0,0,0.9-0.4,0.9-1.1c0-0.7-0.9-1.1-0.9-1.1h84.4c0,0-0.9,0.4-0.9,1.1
			C103.7,181,104.5,181.4,104.5,181.4z"/>
		<path class="st0" d="M104.5,181.4H20.2c0,0,0.9-0.4,0.9-1.1c0-0.7-0.9-1.1-0.9-1.1h84.4c0,0-0.9,0.4-0.9,1.1
			C103.7,181,104.5,181.4,104.5,181.4z"/>
		<path class="st4" d="M115,215H9.3v12.7c0,1,0.8,1.8,1.9,1.8h102c1,0,1.9-0.8,1.9-1.8V215z"/>
		<path class="st5" d="M62.4,129.6H38.5c-3.7,0-12.8,4.4-12.8,4.4c-1.4,0.7-5.2,2.1-3.8,3.3l11.1,7.8h29.4"/>
		<path class="st6" d="M62.5,202.2h41.8c1.3,0,2.6,0.2,3.8,0.6l8.7,2.9c1.8,0.6,2.7,1,2,2.9l-3.3,6.4l-52.7-0.3H62L9.3,215L6,208.6
			c-0.7-1.9,0.2-2.3,2-2.9l8.7-2.9c1.2-0.4,2.5-0.6,3.8-0.6H62.5"/>
		<path class="st6" d="M62.5,202.2h43l13.4-10.4c2.6-2.2-0.2-3.7-2-4.7l-8.5-3.8c-1.2-0.7-5.2-1.9-6.5-1.9H23.1
			c-1.3,0-5.3,1.2-6.5,1.9L8,187.1c-1.8,1-4.6,2.4-2,4.7l13.4,10.4H62.5"/>
		<path class="st7" d="M62.5,181.2h38.1l14.4-10.4c1.8-1.7-3.1-3.5-4.9-4.5c0,0-11.8-5.9-16.6-5.9H31.4c-4.8,0-16.6,5.9-16.6,5.9
			c-1.8,1-6.7,2.8-4.9,4.5l14.4,10.4H62.5z"/>
		<path class="st7" d="M62.5,160.5h34.2l12.9-7.8c1.6-1.2-2.8-2.6-4.4-3.3c0,0-10.6-4.4-14.9-4.4H34.5c-4.3,0-14.9,4.4-14.9,4.4
			c-1.6,0.7-6,2.1-4.4,3.3l12.9,7.8H62.5z"/>
		<path class="st6" d="M62.5,129.6h23.9c3.7,0,12.8,4.4,12.8,4.4c1.4,0.7,5.2,2.1,3.8,3.3l-11.1,7.8H62.5"/>
		<path class="st7" d="M64.7,129.6h23.3l9.6-6.4c1.2-1-2.1-2.2-3.3-2.8c0,0-7.9-3.7-11.1-3.7H41.7c-3.2,0-11.1,3.7-11.1,3.7
			c-1.2,0.6-4.5,1.7-3.3,2.8l9.6,6.4H64.7z"/>
		<line class="st6" x1="117.9" y1="187.7" x2="6.9" y2="187.7"/>
		<line class="st6" x1="114.1" y1="168.5" x2="10.7" y2="168.5"/>
		<line class="st6" x1="108.9" y1="151.2" x2="15.9" y2="151.2"/>
		<line class="st6" x1="102.6" y1="135.7" x2="22.3" y2="135.7"/>
		<path class="st7" d="M115,215H9.3v12.7c0,1,0.8,1.8,1.9,1.8h102c1,0,1.9-0.8,1.9-1.8V215z"/>
		<path class="st7" d="M115,215H9.3v12.7c0,1,0.8,1.8,1.9,1.8h102c1,0,1.9-0.8,1.9-1.8V215z"/>
		<path class="st8" d="M62.4,129.6H38.5c-3.7,0-12.8,4.4-12.8,4.4c-1.4,0.7-5.2,2.1-3.8,3.3l11.1,7.8h29.4V129.6z"/>
		<path class="st8" d="M62.5,202.2h41.8c1.3,0,2.6,0.2,3.8,0.6l8.7,2.9c1.8,0.6,2.7,1,2,2.9l-3.3,6.4l-52.7-0.3H62L9.3,215L6,208.6
			c-0.7-1.9,0.2-2.3,2-2.9l8.7-2.9c1.2-0.4,2.5-0.6,3.8-0.6H62.5L62.5,202.2z"/>
		<path class="st8" d="M62.5,202.2h43l13.4-10.4c2.6-2.2-0.2-3.7-2-4.7l-8.5-3.8c-1.2-0.7-5.2-1.9-6.5-1.9H23.1
			c-1.3,0-5.3,1.2-6.5,1.9L8,187.1c-1.8,1-4.6,2.4-2,4.7l13.4,10.4H62.5z"/>
		<path class="st8" d="M62.5,181.2h38.1l14.4-10.4c1.8-1.7-3.1-3.5-4.9-4.5c0,0-11.8-5.9-16.6-5.9H31.4c-4.8,0-16.6,5.9-16.6,5.9
			c-1.8,1-6.7,2.8-4.9,4.5l14.4,10.4H62.5z"/>
		<path class="st8" d="M62.5,160.5h34.2l12.9-7.8c1.6-1.2-2.8-2.6-4.4-3.3c0,0-10.6-4.4-14.9-4.4H34.5c-4.3,0-14.9,4.4-14.9,4.4
			c-1.6,0.7-6,2.1-4.4,3.3l12.9,7.8H62.5z"/>
		<path class="st8" d="M61.5,129.6h24.9c3.7,0,12.8,4.4,12.8,4.4c1.4,0.7,5.2,2.1,3.8,3.3l-11.1,7.8H61.5V129.6z"/>
		<path class="st8" d="M64.7,129.6h23.3l9.6-6.4c1.2-1-2.1-2.2-3.3-2.8c0,0-7.9-3.7-11.1-3.7H41.7c-3.2,0-11.1,3.7-11.1,3.7
			c-1.2,0.6-4.5,1.7-3.3,2.8l9.6,6.4H64.7z"/>
		<path class="st9" d="M84.3,116.8c0,0-4.9-2.3-5.7-5.6V99.5c0,0,0.5-2.8-2.9-2.8H49.1c-3.4,0-2.9,2.8-2.9,2.8v11.6
			c-0.9,3.4-5.7,5.6-5.7,5.6H84.3z"/>
		<path class="st10" d="M102.6,135.7c0,0-1.3,0-3.4,0.1c-2.2,0-5.3,0.1-9.1,0.1c-3.8,0-8.2,0.1-12.9,0.1c-4.7,0-9.7,0-14.7,0
			c-5,0-10,0-14.7,0c-4.7,0-9.1-0.1-12.9-0.1c-3.8,0-6.9-0.1-9.1-0.1c-2.2,0-3.4-0.1-3.4-0.1s1.3,0,3.4-0.1c2.2,0,5.3-0.1,9.1-0.1
			c3.8,0,8.2-0.1,12.9-0.1c4.7,0,9.7,0,14.7,0c5,0,10,0,14.7,0c4.7,0,9.1,0.1,12.9,0.1c3.8,0,6.9,0.1,9.1,0.1
			C101.3,135.7,102.6,135.7,102.6,135.7z"/>
		<path class="st11" d="M79.2,98.6H45.3c-0.6,0-1.2-0.5-1.2-1.1V97c0-0.6,0.5-1.1,1.2-1.1h33.9c0.6,0,1.2,0.5,1.2,1.1v0.5
			C80.3,98.1,79.8,98.6,79.2,98.6z"/>
		<path class="st12" d="M79.2,98.6H45.3c-0.6,0-1.2-0.5-1.2-1.1V97c0-0.6,0.5-1.1,1.2-1.1h33.9c0.6,0,1.2,0.5,1.2,1.1v0.5
			C80.3,98.1,79.8,98.6,79.2,98.6z"/>
		<path class="st11" d="M116.4,230.1H7.7c-0.5,0-0.8-0.4-0.8-0.8v-0.5c0-0.4,0.4-0.8,0.8-0.8h108.6c0.5,0,0.8,0.4,0.8,0.8v0.5
			C117.2,229.8,116.8,230.1,116.4,230.1z"/>
		<path class="st13" d="M116.4,230.1H7.7c-0.5,0-0.8-0.4-0.8-0.8v-0.5c0-0.4,0.4-0.8,0.8-0.8h108.6c0.5,0,0.8,0.4,0.8,0.8v0.5
			C117.2,229.8,116.8,230.1,116.4,230.1z"/>
		<path class="st11" d="M85.1,116.3H40c0.5-0.1,0.9-0.2,1.2-0.3c1.8-0.8,1.3-2.4,1.3-2.4h39.7C82.2,113.6,82,115.9,85.1,116.3z"/>
		<path class="st14" d="M85.6,116.9c-6.8,0-50.1,1.5-44.4-0.9c1.8-0.8,1.3-2.4,1.3-2.4h39.7C82.2,113.6,82.9,115.9,85.6,116.9z"/>
		<path class="st12" d="M91.1,130.3H33.6c0,0,0.8-0.4,0.8-1.1c0-0.7-0.8-1.1-0.8-1.1h57.5c0,0-0.8,0.4-0.8,1.1
			C90.3,129.9,91.1,130.3,91.1,130.3z"/>
		<path class="st15" d="M91.1,130.3H33.6c0,0,0.8-0.4,0.8-1.1c0-0.7-0.8-1.1-0.8-1.1h57.5c0,0-0.8,0.4-0.8,1.1
			C90.3,129.9,91.1,130.3,91.1,130.3z"/>
		<path class="st16" d="M95.3,145.4h-66c0,0,0.8-0.4,0.8-1.1c0-0.7-0.8-1.1-0.8-1.1h66c0,0-0.8,0.4-0.8,1.1
			C94.6,145,95.3,145.4,95.3,145.4z"/>
		<path class="st17" d="M95.3,145.4h-66c0,0,0.8-0.4,0.8-1.1c0-0.7-0.8-1.1-0.8-1.1h66c0,0-0.8,0.4-0.8,1.1
			C94.6,145,95.3,145.4,95.3,145.4z"/>
		<path class="st16" d="M99.7,161.6H25c0,0,0.8-0.4,0.8-1.1c0-0.7-0.8-1.1-0.8-1.1h74.7c0,0-0.8,0.4-0.8,1.1
			C98.9,161.3,99.7,161.6,99.7,161.6z"/>
		<path class="st17" d="M99.7,161.6H25c0,0,0.8-0.4,0.8-1.1c0-0.7-0.8-1.1-0.8-1.1h74.7c0,0-0.8,0.4-0.8,1.1
			C98.9,161.3,99.7,161.6,99.7,161.6z"/>
		<path class="st16" d="M108.7,202.6H16c0,0,1-0.4,1-1.1c0-0.7-1-1.1-1-1.1h92.6c0,0-1,0.4-1,1.1
			C107.7,202.2,108.7,202.6,108.7,202.6z"/>
		<path class="st18" d="M108.7,202.6H16c0,0,1-0.4,1-1.1c0-0.7-1-1.1-1-1.1h92.6c0,0-1,0.4-1,1.1
			C107.7,202.2,108.7,202.6,108.7,202.6z"/>
		<path class="st16" d="M104.5,181.4H20.2c0,0,0.9-0.4,0.9-1.1c0-0.7-0.9-1.1-0.9-1.1h84.4c0,0-0.9,0.4-0.9,1.1
			C103.7,181,104.5,181.4,104.5,181.4z"/>
		<path class="st19" d="M104.5,181.4H20.2c0,0,0.9-0.4,0.9-1.1c0-0.7-0.9-1.1-0.9-1.1h84.4c0,0-0.9,0.4-0.9,1.1
			C103.7,181,104.5,181.4,104.5,181.4z"/>
		<polygon class="st20" points="27.7,121.6 34.6,118.5 40.9,115.8 84.4,116 90.5,118.6 97.3,121.7 		"/>
		<polygon class="st21" points="21.1,135.8 33.6,130.2 36.6,130.4 91,130.2 96.5,132.5 104.7,136 		"/>
		<polygon class="st22" points="14.2,151.2 29.4,145.2 36.6,145.4 89.5,145.5 95.4,145.2 109.9,151.2 		"/>
		<polygon class="st22" points="9.7,168.5 25,161.5 33.6,161.9 86.5,162 99.5,161.4 114.7,168.5 		"/>
		<polygon class="st22" points="6.1,187.9 20.5,181 30,181.3 83,181.4 104.4,181.1 119,187.8 		"/>
		<polygon class="st22" points="7.3,205.7 17.9,201.6 27.6,202.4 80.6,202.5 108.3,202.2 118.5,205.7 		"/>
		<rect x="8.7" y="215" class="st22" width="107" height="13.1"/>
	</g>
	<g>
		<path class="st23" d="M128,228l3.2,1l2.4-0.3l2.4-2.7h0.2l3.8-0.6h0.2l4-0.2l2.3-1.9l0-0.2l3.1-16.2l8.6-25l4.4-9.2l8.9-7.2
			l14.9-5.1l9.9-0.9l10.3,0.9l0.4-0.3l10.8,3.2l8.7,4.6l5.1,5.3l4.5,8.1l3,7.4l2.6,7.4l1.9,7.9l1.2,7.9l0.9,8.8l1.2,4.7l2.7,1l3.8,0
			l0.3,0.2l3.8,1.7l1.3,1.8l3.9-0.1l-0.2,1.8l-3.2,0.7l-5.8,0.4l-8,0.1l-8.7-1.2l-2.6-0.6l-2.4-9.7l-0.9-9.7l-5.8-0.2
			c-0.5,0-1,0-1.5,0l-7.1,1.6l-1.7,1.9l1.4,4.1l1,1.4l-0.6,3.6l-1.9,1.4l-2.7-2l-3.2-2.4l-7.8,0.5l-0.7,0.1l-15.3-0.5l-1.8,2.8
			l-3.2,0.4l-2.4-2.7l1.6-5.1l0.8-2.5l-14.3-4.2l-5.8,19.7l-9.8,1.1l-9.9,0.3l-0.4,0.1l-7.7-0.2l-0.5,0.3l-3.7-1.7V228z"/>
		<path class="st24" d="M157.6,205.9c8.7-23.6,7-36.8,30.5-43.4l3.4,2.9c2.6,2.5,8.9,2.9,12.3,0.3l3.4-2.8
			c23.2,6.5,22.8,23.7,29.8,43.8"/>
		<path class="st25" d="M202.7,183.7c2.1,2,2.5,5.7,4.3,10.4c3.2,8.1,7.8,18.8,10.2,26.8c1.2,3.9-3,6.9-5.8,2.1
			c-0.9-1.5-2-1.4-3.5-1.4l-21.4-0.1c-1.3,0.1-1.3-0.1-1.9,1c-0.5,0.8-0.6,1.6-1.3,2c-1.1,0.6-2.3,0.6-3.2,0.4
			c-2.2-0.4-3.3-2.5-1.4-6.4c4.9-10,8.6-20.5,12.5-30.9c1-2.6,1.5-3.8,2.6-4.3C194.6,183,201.5,182.6,202.7,183.7z"/>
		<ellipse class="st26" cx="197.3" cy="196" rx="5.6" ry="5.4"/>
		<path class="st26" d="M208.9,214.1c0.3,1.7-4.9,1.1-7.6,0.6c-1.7-0.3-1.4-4.8-1.1-7.4c0.1-1.4,1-2.1,1.9-2.5
			c0.6-0.2,1.8-0.8,2.5-0.8C205.8,204,208.2,210.7,208.9,214.1z"/>
		<path class="st26" d="M186.5,214.1c-0.3,1.7,4.9,1.1,7.6,0.6c1.7-0.3,1.4-4.8,1.1-7.4c-0.1-1.4-1-2.1-1.9-2.5
			c-0.6-0.2-1.8-0.8-2.5-0.8C189.6,203.9,187.2,210.6,186.5,214.1z"/>
		<path class="st27" d="M180.8,213.9c-17.4-7.3-22.7-8.4-20.4,8.1c1.1,8.1-5.6,9.5-10.9,9.3l-14,0.5c-3.5,0-3.6-0.4-7.5-1.7V228
			c1.9,0.2,3.6,1.2,4.8,0.9c0.4-0.1,2.1-2.5,2.8-2.9c3.4-1.9,11.3,1.1,11.7-6.3c0.8-4.2,1.1-8.3,2-12.2c1.9-7.5,4.7-14.3,7.1-20.7
			c2.1-5.6,3.3-11.2,7.1-15.3c3.7-4,8.4-6.6,14-8.7c9.3-3.5,21-4.5,33.8-1.3c18.6,4.7,22,12.1,28.9,31.2c3.3,9.1,4.3,18.4,5.3,29.6
			c0.8,8.6,8,0.5,12.6,7.4c0.7,1,0.4,0.8,1.5,0.6l2.1-0.4c0.6-0.1,0.5-0.2,0.6,0.3l0.2,1c0.1,0.7,0.2,0.6-0.3,0.7
			c-6.1,1.7-8,0.9-18,1.3c-20.6,1-4.5-20.6-16.3-23c-2.7-0.6-6.4,1.8-13.3,3.7"/>
		<path class="st25" d="M187.7,169.2c-9,2.4-13.3,4.7-16,14c2.1,5.4,11.9,8.2,17.3,9.3c1.1-1.7,1.5-3.9,2.4-5.6
			c0.6-1.1,1-2.9,2.1-3.4c1.6-0.7,3.3-0.4,5.3-0.5c1.5-0.1,3.1,0,4.3,1.2c1,0.9,1.5,2.9,2.1,4.6l1.1,3.5c5.1,0.2,14.8-4,17.8-8.2
			c-4.9-11.8-7.1-10.7-17.2-15.8C202.4,173.8,194.5,176.3,187.7,169.2z"/>
		<path class="st25" d="M219,188.3c-6.8-10.4-4.8-6.8-13.3-13c-4.9,4.7-10.8,6.9-17.1,0.7c-8.6,3.3-10.8,2.9-14.1,10.9"/>
		<path class="st26" d="M171.7,183.2l1.3,2.2l1.8,0.8l1.2-1.9l1.6-2.9l2.5-1.4l2.2-1.4c0.2,0,0.1,0,0.3-0.1l4.2-1.9l1.3-0.1l1.4,0.3
			l0.2,0l1.5,0.8l1.2,1.1l0.3,0l1.7,0.7l0.3-0.1l3.6,0.2l4.4-1.5l3-2.8l3.4,2.4l0.2,0l4.4,3.3l3.5,4.8l1.6,2.5l2.6-1.7l2.5-2.5
			l-1.1-2.5l-2.2-4.1l-3.1-3.6l-5.2-2.9l-5.6-2.6l-2.1,1.8l-1.9,1.6l-4,1.6l-0.3,0.1l-4.2-0.1l-3-0.7l-2.9-1.9l-1.8-1.5l-5.8,2.3
			l-3.3,1.8l-2.4,2.2l-1.6,2.2L171.7,183.2z"/>
		<path class="st26" d="M187.1,221.5c0.1,1.7,0.3,3.6,1.9,4.6c1.7,1,5.3,0.2,7.9,0.2c3.3-0.1,5.8,0.7,8-0.3c1.9-0.8,1.9-3.2,1.9-4.4
			L187.1,221.5z"/>
		<path class="st28" d="M233.6,206.6l-0.9-2c-8.7-3.5-6.2-8.6-9.7-16.7l1-3.8"/>
		<path class="st25" d="M152.8,231.2c12.6-1,13.5-0.6,14.8-12.5c0.3-9.8,5.3-6.3,12.8-3.9"/>
		<path class="st25" d="M236.7,232c-10.8-1.3-13-2.3-14.1-5.8c-1.8-6,4-13.5-7.8-12.3"/>
		<path class="st26" d="M157,230.6l4-0.5l4-1.1l1-2.8l0.8-3.7l0.6-4.5c0-0.2,0.1-0.4,0.1-0.5l1-3.5l1.9-2.1l2.5-0.4l-0.4-1
			c-0.3,0.1-0.3,0.1-0.5-0.1l-4.4-1.1c-0.3,0-0.3,0-0.5,0l-3.5-0.4l-0.2,0.2l-2.1,1.8l-0.9,3l-0.3,4c0.2,0.2,0.2,0.1,0.2,0.3
			l0.3,4.7l0.3,0.3v0.1l-0.3,2.7l0,0.2l-1.5,2.8l-1.9,1.8L157,230.6z"/>
		<path class="st26" d="M219.2,212.6l4.2-1.2l0.3-0.1l3.7-1l3.1,1l0.1,0.3l2,2.6l0.5,4.3l0,0.2l-0.1,4.6l0.4,4l1.3,3.9l-1.2,0.4
			l-0.3-0.1l-4.1-0.7l-0.2-0.1l-3.1-0.8l-2.6-2.2c-0.2-0.3,0,0-0.2-0.2l-0.7-2.9l-0.2-4.2v-0.2l0.3-3.1l-0.1-0.1l-0.8-1.9l-3-1.9
			L219.2,212.6z"/>
	</g>
	<g>
		<ellipse class="st22" cx="300.6" cy="192.2" rx="34.7" ry="19.8"/>
		<ellipse class="st25" cx="301.3" cy="180.9" rx="13.3" ry="7.3"/>
		<path class="st25" d="M301.6,176.1c4.5,0,8.2,1.9,8.2,4.4c0,2.4-3.7,4.3-8.2,4.3c-4.5,0-8.2-1.9-8.2-4.3
			C293.4,178,297.1,176.1,301.6,176.1z"/>
		<path class="st25" d="M301.5,177.2c4.1,0,7.4,1.7,7.4,3.8c0,2.1-3.3,3.8-7.4,3.8c-4.1,0-7.4-1.7-7.4-3.8
			C294.1,178.9,297.4,177.2,301.5,177.2z"/>
		<ellipse class="st25" cx="300.7" cy="192.4" rx="34.8" ry="19.8"/>
		<ellipse class="st25" cx="300.7" cy="191.3" rx="33" ry="18.7"/>
		<path class="st28" d="M285.7,184.1c-4.8,2.9-7.8,6.6-7.7,11.2c0,1.5,0.5,3.2,1.6,4.8c-0.2,1.5-2.6,2.7-3.3,2.9
			c-1.1-0.9-1.6-1.1-2.6-2.2c-1.7-2-2.6-4.2-2.6-6.1c-0.1-7.1,7-12.7,17.5-15.9c-1.8,1.4-2.8,3-2.8,4.8c0,4.6,7,8.4,15.7,8.4
			c8.7,0,15.7-3.7,15.7-8.4c0-1.9-1.2-3.7-3.3-5.1"/>
		<path class="st29" d="M278,195.4c0,1.5,1.1,3.1,1.6,4.8c0.5,1.6-2.3,3.3-3.3,2.9c-1-0.4-1.6-1.1-2.6-2.2c-1.7-2-2.6-4.2-2.6-6.1
			c-0.1-7.1,7-12.7,17.5-15.9c-1.8,1.4-2.9,3-2.8,4.8C285.7,185,277.8,186.8,278,195.4z"/>
		<path class="st30" d="M325.9,193.3c-3.3-3.4-7-4.5-3-7.4c1.1-0.8,2.1-1.9,3-1.9c2.4,0,3.5,0.7,3.9,1.8c0.5,1.1-1-0.4,0.5,7
			c1.5,7.4-7,13.7-16.1,15.6C319.2,206,329.6,199.9,325.9,193.3z"/>
		<path class="st25" d="M331.5,183.2c2.2,1.7,3.9,4.2,4.6,7.2c1,4.4-0.3,21.7-0.9,26.4c-4.3,10.7-17.5,18-35,18.2
			c-17.5,0.2-32.8-9.1-34.2-19.9c-0.6-4-0.3-9.3-0.4-14.3c0-2-0.1-3.6-0.2-5.5c-0.1-3.1,0.3-6,1.5-7.6"/>
		<polygon class="st26" points="265.4,195.7 265.8,213.5 266.9,218.6 266.9,218.8 270.3,223.8 275,227.9 279.2,230.4 279.4,230.4 
			288,233.6 296.9,235 306.2,234.7 311.8,233.8 318.4,232.1 325.6,228.3 330.4,224.1 334,219.4 335.3,216.4 335.9,210.1 336.5,200 
			336.5,193.4 335.5,193.3 333.9,198.3 330.6,202.6 327.1,205.3 320.8,208.5 315.4,210.5 308.6,211.7 302.7,212.2 296.8,212.1 
			291.4,211.5 285.8,210.3 279.4,208.1 273.5,204.7 268.8,200.3 		"/>
	</g>
</g>
</svg>
