<?xml version="1.0" encoding="UTF-8"?>
<!DOCTYPE svg PUBLIC "-//W3C//DTD SVG 1.1//EN" "http://www.w3.org/Graphics/SVG/1.1/DTD/svg11.dtd">
<!-- Creator: CorelDRAW X8 -->
<svg xmlns="http://www.w3.org/2000/svg" xml:space="preserve" width="38.8054mm" height="38.8054mm" version="1.1" style="shape-rendering:geometricPrecision; text-rendering:geometricPrecision; image-rendering:optimizeQuality; fill-rule:evenodd; clip-rule:evenodd"
viewBox="0 0 3881 3881"
 xmlns:xlink="http://www.w3.org/1999/xlink">
 <defs>
  <style type="text/css">
   <![CDATA[
    .fil0 {fill:#24C812;fill-rule:nonzero}
   ]]>
  </style>
 </defs>
 <g id="Слой_x0020_1">
  <metadata id="CorelCorpID_0Corel-Layer"/>
  <g id="_2346842599664">
   <path class="fil0" d="M2390 2921c25,10 36,-25 44,-71 22,-132 36,-195 105,-317 6,-11 13,-22 19,-32l1052 740c-136,133 -379,236 -486,265 -1135,312 -3005,-1186 -2949,-2361 5,-110 52,-371 152,-533l952 865c-8,9 -17,17 -27,26 -103,94 -162,121 -286,172 -43,17 -75,36 -60,59 354,516 903,955 1484,1187zm-1048 -1522c42,-69 54,-143 7,-219 -76,-122 -634,-627 -729,-679 -93,-49 -169,-28 -231,32l953 866zm1279 1023c57,-56 127,-84 212,-54 136,48 751,481 822,563 68,79 64,159 19,232l-1053 -741z"/>
   <polygon class="fil0" points="2559,1831 3075,1217 3386,1478 3289,330 2142,434 2453,695 1937,1309 "/>
  </g>
 </g>
</svg>
