<svg xmlns="http://www.w3.org/2000/svg" viewBox="0 0 89.06 15.1">
    <defs>
        <style type="text/css">
            <![CDATA[
            .cls-1{fill:white}
           ]]>
        </style>
    </defs>
    <title>Ресурс 1</title>
    <g id="Слой_2" data-name="Слой 2">
        <g id="Слой_1-2" data-name="Слой 1">
            <path class="cls-1"
                  d="M74.37,0,65.94,8.85H58.46l2.79-2.92L57.52,2.63s.06,2.51-4.26,2.51l-6.06,0,1.16-2h3.16a3.31,3.31,0,0,0,.82-.39c.45-.31,1-1.18-.65-1.18H47.2L43.09,8.85H32.55L28.07,3.77l-7.53,3.6h8V8.85H11.48L15.9,1.58H10.62L6.22,8.85H0L5.37,0H21.81L18.43,7,33,0l5.58,6.11L42.24,0h15.7l5,4.42L67.49,0Z"/>
            <path class="cls-1"
                  d="M81,1.58h7.41L89.06,0h-11c-9.38,4.42-3.79,8.85-3.79,8.85H85.53l.59-1.48H78.35C74.87,3.69,81,1.58,81,1.58"/>
            <polygon class="cls-1" points="84.79 10.72 0 10.72 0.71 9.75 85.17 9.75 84.79 10.72"/>
            <path class="cls-1"
                  d="M2.55,14.37l-.34.68H.52l1.75-3H4.44l1.81,3H4.5l-.39-.68Zm1.34-.58-.28-.53c-.09-.17-.21-.41-.3-.58h0c-.09.17-.18.42-.26.58l-.26.53Z"/>
            <path class="cls-1"
                  d="M26.8,12.14c.37,0,1.17-.06,1.92-.06a7.74,7.74,0,0,1,1.85.14c.48.1.82.32.82.61s-.28.49-1,.62h0c.74.1,1.19.37,1.19.72s-.28.5-.68.64a7.75,7.75,0,0,1-2.5.27c-.74,0-1.28,0-1.6,0Zm1.61,1.09h.32c.69,0,1-.12,1-.31s-.27-.28-.82-.28l-.53,0Zm0,1.27h.47c.54,0,1-.11,1-.37s-.47-.35-1.08-.35h-.39Z"/>
            <polygon class="cls-1"
                     points="53.36 12.77 51.81 12.77 51.81 12.1 56.56 12.1 56.56 12.77 54.99 12.77 54.99 15.05 53.36 15.05 53.36 12.77"/>
            <path class="cls-1"
                  d="M82.5,13.55c0,.95-1.17,1.55-3,1.55s-2.91-.69-2.91-1.51S77.7,12,79.56,12s2.94.71,2.94,1.5m-4.24,0c0,.56.49.9,1.28.9s1.24-.37,1.24-.91-.47-.89-1.26-.89-1.26.36-1.26.9"/>
        </g>
    </g>
</svg>