<svg width="1171" height="427" viewBox="0 0 1171 427" fill="none" xmlns="http://www.w3.org/2000/svg">
<path opacity="0.3" d="M994.573 421.6C1051.48 421.6 1097.6 413.261 1097.6 402.974C1097.6 392.688 1051.48 384.349 994.573 384.349C937.67 384.349 891.542 392.688 891.542 402.974C891.542 413.261 937.67 421.6 994.573 421.6Z" fill="#D4DBE4"/>
<path d="M957.861 361.418C957.861 361.418 952.37 392.209 949.786 393.501L951.616 399.422C953.124 404.159 957.645 407.389 962.598 407.174C967.658 406.959 971.964 403.513 973.149 398.561L974.548 392.64L980.147 361.956L957.861 361.418Z" fill="#EAB4B3"/>
<path d="M950.217 392.747L924.486 402.437C922.763 403.298 921.794 407.927 922.117 409.758L975.194 410.081L975.086 391.348C975.086 391.348 969.703 390.917 958.937 394.255C952.585 396.3 950.217 392.747 950.217 392.747Z" fill="#282C3E"/>
<path d="M923.732 403.19L949.571 403.298C953.877 403.298 958.183 403.298 962.49 403.405C966.796 403.513 971.103 403.513 975.409 403.728C971.103 403.836 966.796 403.728 962.49 403.836C958.183 403.836 953.877 403.728 949.571 403.728L923.732 403.19Z" fill="#CAD4DA"/>
<path d="M974.547 395.438C973.256 395.654 971.964 395.977 970.672 396.3C969.38 396.73 968.195 397.161 967.119 397.807C965.935 398.453 964.966 399.207 963.997 400.176C963.135 401.145 962.382 402.221 961.736 403.405C962.059 402.113 962.812 400.929 963.674 399.96C964.643 398.991 965.719 398.238 966.904 397.592C968.088 396.946 969.38 396.515 970.564 396.192C971.964 395.869 973.256 395.546 974.547 395.438Z" fill="#CAD4DA"/>
<path d="M948.602 396.515C949.57 395.654 950.324 394.685 950.97 393.501C951.293 392.962 951.508 392.316 951.616 391.778C951.724 391.132 951.508 390.594 950.97 390.163C950.539 389.732 950.001 389.302 949.355 389.409C948.817 389.409 948.494 390.163 948.279 390.701C947.956 391.886 947.956 393.178 948.063 394.469L948.171 395.438V395.654V395.761C948.171 395.869 948.063 396.084 947.956 396.084C947.848 396.084 947.633 395.977 947.633 395.869V395.761L947.525 395.546C947.31 395.008 946.987 394.362 946.664 393.823C946.341 393.285 946.018 392.747 945.587 392.316C945.156 391.886 944.726 391.455 944.187 391.455C943.649 391.455 943.111 391.886 943.111 392.424C943.218 392.962 943.541 393.501 943.864 394.039C944.618 395.008 945.587 395.869 946.556 396.73C945.479 395.977 944.51 395.115 943.649 394.146C943.218 393.608 942.788 393.07 942.68 392.424C942.68 392.101 942.788 391.67 943.111 391.455C943.326 391.132 943.757 391.024 944.08 391.024C944.833 391.132 945.372 391.563 945.802 392.101C946.233 392.639 946.556 393.178 946.879 393.716C947.202 394.254 947.417 394.9 947.74 395.438L947.848 395.654V395.761C947.848 395.761 947.74 395.654 947.74 395.761L947.633 395.869V395.761V395.546V394.577C947.633 393.285 947.633 391.993 947.956 390.701C948.063 390.378 948.171 390.055 948.386 389.84C948.602 389.517 948.925 389.302 949.247 389.302C950.001 389.302 950.539 389.732 950.97 390.163C951.508 390.594 951.724 391.347 951.616 391.993C951.508 392.639 951.293 393.285 950.97 393.823C950.432 394.685 949.57 395.654 948.602 396.515Z" fill="#CAD4DA"/>
<path d="M1025.58 361.418C1025.58 361.418 1031.07 392.209 1033.65 393.501L1031.82 399.422C1030.32 404.159 1025.79 407.389 1020.84 407.174C1015.78 406.959 1011.48 403.513 1010.29 398.561L1008.89 392.64L1003.29 361.956L1025.58 361.418Z" fill="#EAB4B3"/>
<path d="M1033.22 392.747L1058.95 402.437C1060.68 403.298 1061.65 407.927 1061.32 409.758L1008.25 410.081L1008.35 391.348C1008.35 391.348 1013.74 390.917 1024.5 394.255C1030.85 396.3 1033.22 392.747 1033.22 392.747Z" fill="#282C3E"/>
<path d="M1059.71 403.298L1033.87 403.621C1029.56 403.728 1025.26 403.728 1020.95 403.728C1016.64 403.728 1012.34 403.728 1008.03 403.621C1012.34 403.513 1016.64 403.405 1020.95 403.298C1025.26 403.298 1029.56 403.19 1033.87 403.19L1059.71 403.298Z" fill="#CAD4DA"/>
<path d="M1008.89 395.438C1010.18 395.546 1011.48 395.869 1012.77 396.192C1014.06 396.515 1015.24 397.053 1016.43 397.592C1017.61 398.238 1018.69 398.991 1019.66 399.96C1020.52 400.929 1021.27 402.113 1021.6 403.405C1021.06 402.221 1020.3 401.145 1019.33 400.176C1018.37 399.314 1017.4 398.453 1016.21 397.807C1015.03 397.161 1013.84 396.73 1012.66 396.3C1011.48 395.977 1010.18 395.654 1008.89 395.438Z" fill="#CAD4DA"/>
<path d="M1034.73 396.515C1033.76 395.654 1032.9 394.685 1032.25 393.608C1031.93 393.07 1031.61 392.424 1031.61 391.778C1031.5 391.132 1031.72 390.378 1032.25 389.948C1032.69 389.517 1033.22 389.086 1033.98 389.086C1034.3 389.086 1034.62 389.302 1034.84 389.625C1035.05 389.948 1035.16 390.271 1035.27 390.486C1035.59 391.778 1035.59 393.07 1035.59 394.362V395.331V395.546V395.654C1035.59 395.654 1035.59 395.546 1035.48 395.546C1035.48 395.546 1035.38 395.654 1035.38 395.546V395.438L1035.48 395.223C1035.7 394.577 1036.02 394.039 1036.35 393.501C1036.67 392.962 1036.99 392.424 1037.42 391.886C1037.85 391.455 1038.39 390.917 1039.14 390.809C1039.47 390.809 1039.9 390.917 1040.11 391.24C1040.44 391.455 1040.54 391.886 1040.54 392.209C1040.44 392.962 1040.01 393.501 1039.58 393.931C1038.71 394.9 1037.75 395.761 1036.67 396.515C1037.64 395.654 1038.61 394.792 1039.36 393.823C1039.68 393.285 1040.11 392.747 1040.11 392.209C1040.11 391.67 1039.58 391.24 1039.04 391.24C1038.5 391.24 1037.96 391.67 1037.64 392.101C1037.21 392.532 1036.88 393.07 1036.56 393.608C1036.24 394.147 1035.91 394.685 1035.7 395.331L1035.59 395.546V395.654C1035.59 395.761 1035.38 395.869 1035.27 395.869C1035.16 395.869 1035.05 395.654 1035.05 395.546V395.438V395.223L1035.16 394.254C1035.16 392.962 1035.27 391.67 1034.95 390.486C1034.84 389.948 1034.52 389.194 1033.87 389.194C1033.33 389.194 1032.79 389.625 1032.25 389.948C1031.82 390.378 1031.61 391.024 1031.61 391.563C1031.72 392.209 1031.93 392.747 1032.25 393.285C1033.01 394.577 1033.87 395.654 1034.73 396.515Z" fill="#CAD4DA"/>
<path d="M949.678 380.796L964.535 196.804L981.331 194.651C981.223 193.789 981.115 192.928 981.008 191.959L991.774 193.359L1002.54 191.959C1002.43 192.82 1002.32 193.682 1002.22 194.651L1019.01 196.804L1033.87 380.796H1002.97C996.08 355.927 995.757 333.533 991.881 288.315C988.006 333.533 987.683 355.927 980.792 380.796H949.678Z" fill="#5A3534"/>
<path d="M1033.76 380.904H1002.86C1000.82 373.368 999.202 365.832 998.018 358.08C996.834 350.436 996.08 342.685 995.434 334.933C994.142 319.43 992.958 303.927 991.666 288.424H991.881C990.589 303.927 989.513 319.43 988.221 334.933C987.575 342.685 986.821 350.436 985.637 358.08C984.453 365.724 982.945 373.368 980.9 380.904V381.012H980.792H949.894H949.678V380.797L956.999 288.854L964.535 196.912L981.331 194.866L964.535 197.019L957.322 288.962L949.894 380.904L949.678 380.689H980.577L980.362 380.797C982.407 373.368 984.022 365.724 985.099 357.972C986.283 350.329 987.037 342.577 987.683 334.825C988.974 319.322 990.051 303.819 991.451 288.316H991.666L993.496 311.571C994.142 319.322 994.68 327.074 995.326 334.825C995.972 342.577 996.726 350.329 997.91 357.972C999.095 365.616 1000.6 373.26 1002.65 380.797L1033.76 380.904C1033.76 380.797 1033.76 380.797 1033.76 380.904C1033.76 380.904 1033.76 380.797 1033.76 380.904Z" fill="#2E3748"/>
<path d="M1017.72 125.425C1013.52 124.456 1004.48 122.734 996.295 122.841C989.835 125.748 978.316 124.348 977.562 124.241C974.225 124.671 971.102 125.317 968.411 125.856C961.951 127.148 955.599 129.409 954.846 148.572C954.846 148.572 957.645 177.533 962.49 208.216C994.25 208.539 1026.22 207.14 1026.22 207.14L1017.72 125.425Z" fill="#363848"/>
<path d="M980.47 121.872V124.672C981.331 124.995 982.192 125.318 983.161 125.425C984.238 125.641 985.207 125.748 986.391 125.748C989.405 125.748 992.205 124.995 994.573 123.595L994.358 114.228L994.681 109.168V108.845C994.573 107.877 994.465 106.908 994.25 105.939C993.496 102.278 992.097 98.4023 989.082 96.8951C987.467 96.1415 985.853 95.9261 984.238 96.0338C981.761 96.2491 979.608 97.3257 977.993 98.833C976.055 100.556 974.656 103.139 974.333 105.831C973.472 111.645 973.795 119.935 980.47 121.872Z" fill="#E0BEBD"/>
<path d="M980.362 124.671C981.223 124.994 982.084 125.317 983.053 125.425C986.176 123.272 987.79 120.257 987.898 120.042C986.498 121.011 985.207 121.442 984.13 121.765C984.022 121.765 983.915 121.872 983.807 121.872C982.084 122.195 981.008 121.98 980.577 121.872C980.469 121.872 980.469 121.872 980.469 121.872L980.362 124.671Z" fill="#D6AAAA"/>
<path d="M993.712 107.338C993.712 108.415 994.358 109.384 995.219 109.384C996.08 109.384 996.834 108.522 996.834 107.446C996.834 106.369 996.188 105.4 995.327 105.4C994.466 105.293 993.712 106.154 993.712 107.338Z" fill="#BE9791"/>
<path d="M995.219 107.338C995.219 107.446 995.326 107.661 995.434 107.661C995.542 107.661 995.757 107.553 995.757 107.446C995.757 107.338 995.649 107.123 995.542 107.123C995.326 107.123 995.219 107.23 995.219 107.338Z" fill="#A37975"/>
<path d="M980.469 121.872C981.115 121.98 981.761 121.98 982.407 121.872C983.053 121.765 983.699 121.657 984.237 121.442C984.883 121.334 985.422 121.011 986.068 120.796L987.898 120.042C987.683 120.257 987.36 120.473 987.144 120.688L986.283 121.226C985.745 121.549 985.099 121.765 984.453 121.98C983.807 122.195 983.161 122.303 982.407 122.303C981.761 122.303 981.008 122.195 980.469 121.872Z" fill="#383A4A"/>
<path d="M993.712 107.338C993.712 108.415 994.358 109.384 995.219 109.384C996.08 109.384 996.834 108.522 996.834 107.446C996.834 106.369 996.188 105.4 995.327 105.4C994.466 105.293 993.712 106.154 993.712 107.338Z" fill="#E0BEBD"/>
<path d="M994.681 106.8C994.681 106.8 995.542 106.692 995.65 107.338C995.757 108.092 994.788 107.984 994.788 107.984" stroke="#B57A77" stroke-width="0.4282" stroke-miterlimit="10" stroke-linecap="round"/>
<path d="M984.453 112.183C984.238 112.937 983.699 113.583 983.053 114.121C982.407 114.659 981.546 114.982 980.793 114.982C979.931 114.982 979.178 114.659 978.532 114.229C978.209 114.013 977.886 113.798 977.563 113.475C977.347 113.152 977.024 112.937 976.809 112.614C977.132 112.829 977.455 113.044 977.778 113.26C978.101 113.475 978.424 113.69 978.747 113.798C979.393 114.121 980.147 114.336 980.793 114.336C981.546 114.336 982.192 114.121 982.838 113.798C983.484 113.26 984.022 112.721 984.453 112.183Z" fill="#373949"/>
<path d="M981.223 103.032C980.9 103.893 980.362 104.647 979.931 105.508C979.501 106.262 978.962 107.015 978.424 107.769V107.446C978.855 108.092 979.285 108.63 979.716 109.384C979.07 108.953 978.532 108.307 977.993 107.769L977.886 107.661L977.993 107.446C978.424 106.692 978.962 105.939 979.501 105.185C979.931 104.431 980.577 103.678 981.223 103.032Z" fill="#373949"/>
<path d="M984.346 105.077C984.238 105.615 984.13 106.261 984.238 106.8C984.238 107.338 984.346 107.984 984.776 108.092C985.099 108.307 985.638 107.984 986.068 107.661C986.499 107.338 986.93 106.8 987.253 106.369C987.36 106.261 987.468 106.261 987.576 106.369C987.683 106.477 987.683 106.584 987.576 106.584C987.253 107.123 986.93 107.661 986.391 108.092C986.176 108.307 985.853 108.522 985.53 108.63C985.207 108.738 984.776 108.845 984.346 108.63C984.023 108.415 983.7 108.092 983.592 107.769C983.484 107.446 983.484 107.123 983.484 106.8C983.484 106.154 983.7 105.508 983.807 104.969C983.807 104.862 983.915 104.862 984.023 104.862C984.238 104.969 984.346 105.077 984.346 105.077Z" fill="#373949"/>
<path d="M976.27 103.247C976.163 103.785 976.055 104.324 976.055 104.862C976.055 105.4 976.163 106.046 976.378 106.154C976.593 106.262 977.132 105.831 977.455 105.508C977.778 105.077 978.208 104.647 978.531 104.216C978.639 104.108 978.747 104.108 978.854 104.216C978.962 104.324 978.962 104.431 978.962 104.431C978.747 104.97 978.424 105.508 977.993 105.939C977.778 106.154 977.562 106.369 977.347 106.585C977.132 106.8 976.701 107.015 976.27 106.8C975.84 106.585 975.732 106.154 975.625 105.831C975.625 105.508 975.625 105.185 975.625 104.862C975.732 104.216 975.84 103.678 976.055 103.139C976.055 103.032 976.163 103.032 976.27 103.032C976.27 103.139 976.27 103.247 976.27 103.247Z" fill="#373949"/>
<path d="M979.716 93.7728C976.701 94.5264 975.194 100.232 982.084 100.017C990.051 99.6942 990.051 96.7873 990.374 101.955C990.697 107.23 994.25 105.938 994.25 105.938C994.25 105.938 1001.46 88.4974 979.716 93.7728Z" fill="#EADB9D"/>
<path d="M993.927 188.191C994.25 188.729 993.711 189.483 993.065 189.16C987.898 186.684 975.301 180.224 980.146 177.533C985.314 174.626 990.912 183.454 993.927 188.191Z" stroke="#758AC5" stroke-width="2" stroke-linecap="round"/>
<path d="M994.142 189.053C993.712 189.268 993.281 188.837 993.496 188.407C995.219 184.316 1001.36 171.181 1004.91 177.21C1008.68 183.562 998.556 187.115 994.142 189.053Z" stroke="#758AC5" stroke-width="2" stroke-linecap="round"/>
<path d="M981.331 188.299L993.604 189.698L1006.09 188.191" stroke="#758AC5" stroke-width="2" stroke-linecap="round"/>
<path d="M991.774 187.761C991.774 187.761 990.805 190.237 993.066 191.313C995.327 192.39 995.111 187.868 995.004 185.607" stroke="#758AC5" stroke-width="2" stroke-linecap="round"/>
<path d="M993.819 187.761C993.819 187.761 992.85 190.237 995.111 191.313C997.372 192.39 998.772 187.007 995.111 185.177" stroke="#758AC5" stroke-width="2" stroke-linecap="round"/>
<path d="M975.194 192.282C964.428 198.419 960.875 274.427 962.275 331.165C963.889 398.453 886.697 413.848 853.106 413.418C829.636 413.095 786.034 408.896 782.266 401.467C778.497 394.039 865.487 384.888 904.891 398.237C944.295 411.587 851.168 409.973 831.574 409.111C805.413 407.927 797.338 402.544 736.51 407.927C675.681 413.31 634.09 411.48 600.5 412.233C516.667 414.744 340.5 419.013 306.5 416C264 412.233 128 416.5 95.5 422.5C69.5 427.3 21.6667 424.5 1 422.5" stroke="#758AC5" stroke-width="2"/>
<path d="M1012.88 192.282C1023.64 198.419 1027.19 274.427 1025.79 331.165C1024.18 398.453 1101.37 413.848 1134.96 413.418H1170.5" stroke="#758AC5" stroke-width="2"/>
<path d="M1018.9 182.162L1016.32 180.332C1016.32 180.332 1004.69 178.933 1003.94 186.469L1004.15 186.361C1002.76 187.33 1001.68 188.514 1002.54 189.591C1003.62 190.883 1005.45 189.806 1005.45 189.806C1005.45 189.806 1004.15 190.775 1004.91 191.637C1005.23 192.067 1005.66 192.605 1006.2 192.39C1006.2 192.39 1006.2 193.144 1006.74 193.574C1007.38 194.113 1008.25 193.79 1008.25 193.79C1008.25 193.79 1008.35 195.297 1009.75 195.189C1011.05 195.082 1021.49 189.268 1021.49 189.268L1026.66 185.392L1018.9 182.162Z" fill="#E0BEBD"/>
<path d="M1018.37 191.744C1025.47 191.636 1030.21 191.636 1038.39 190.452C1053.36 188.299 1061.75 182.7 1066.6 177.64C1072.3 171.504 1072.95 162.245 1068.32 155.247C1062.18 146.096 1049.59 131.777 1027.95 126.717C1019.23 124.671 1004.69 123.702 996.511 123.702C990.051 126.609 989.298 130.162 988.544 130.162L996.834 149.971C996.834 149.971 1030.96 148.895 1041.3 160.953C1051.74 173.011 1015.67 179.255 1015.67 179.255L1018.37 191.744Z" fill="#363848"/>
<path d="M968.411 183.347L966.904 181.624C966.904 181.624 982.946 181.624 982.838 189.16L982.623 189.053C983.915 190.237 984.884 191.529 983.807 192.39C982.623 193.574 980.9 192.282 980.9 192.282C980.9 192.282 982.084 193.359 981.331 194.113C981.008 194.436 980.47 195.082 979.931 194.759C979.931 194.759 979.824 195.512 979.285 195.835C978.639 196.266 977.778 195.943 977.778 195.943C977.778 195.943 977.455 197.45 976.163 197.127C974.871 196.804 965.182 189.914 965.182 189.914L960.552 185.5L968.411 183.347Z" fill="#E0BEBD"/>
<path d="M1016.21 180.332C1014.92 180.224 1013.63 180.224 1012.34 180.332C1011.04 180.44 1009.75 180.655 1008.57 181.086C1007.38 181.516 1006.2 182.054 1005.45 183.023C1004.59 183.992 1004.15 185.177 1004.05 186.361L1003.72 186.146L1003.94 186.038L1004.15 186.361C1003.62 186.684 1003.19 187.115 1002.86 187.545C1002.54 187.976 1002.22 188.514 1002.43 188.945C1002.65 189.375 1003.08 189.806 1003.62 189.806C1004.15 189.914 1004.69 189.698 1005.23 189.483L1005.45 189.914C1005.02 190.237 1004.59 190.775 1004.8 191.206C1004.91 191.421 1005.12 191.744 1005.34 191.852C1005.55 192.067 1005.77 192.175 1005.98 192.067L1006.2 191.959V192.175C1006.2 192.605 1006.42 193.036 1006.74 193.251C1007.06 193.467 1007.6 193.574 1008.03 193.467H1008.14V193.574C1008.14 193.897 1008.25 194.328 1008.46 194.543C1008.68 194.866 1009.11 194.974 1009.43 194.974C1009.11 195.081 1008.57 194.974 1008.35 194.651C1008.03 194.328 1007.92 194.005 1007.82 193.574L1007.92 193.682C1007.38 193.79 1006.85 193.897 1006.42 193.574C1005.98 193.251 1005.66 192.713 1005.66 192.175L1005.88 192.39C1005.55 192.498 1005.02 192.39 1004.8 192.175C1004.59 191.959 1004.37 191.744 1004.15 191.421C1003.94 191.098 1004.05 190.56 1004.26 190.344C1004.48 190.021 1004.69 189.806 1004.91 189.591L1005.12 190.021C1004.59 190.344 1003.94 190.452 1003.19 190.452C1002.54 190.344 1001.89 189.914 1001.57 189.268C1001.25 188.514 1001.68 187.868 1002.11 187.438C1002.54 187.007 1003.08 186.576 1003.51 186.253L1003.72 186.576L1003.51 186.684L1003.19 186.792V186.469C1003.4 185.177 1003.83 183.885 1004.8 182.916C1005.66 181.947 1006.95 181.409 1008.14 180.978C1009.32 180.547 1010.61 180.332 1011.91 180.332C1013.74 180.117 1014.92 180.117 1016.21 180.332Z" fill="#2E3748"/>
<path d="M966.904 181.624C968.519 181.624 970.134 181.732 971.749 181.947C973.363 182.162 974.978 182.485 976.486 182.916C977.993 183.347 979.608 183.993 980.9 184.962C981.546 185.5 982.084 186.038 982.515 186.792C982.945 187.545 983.161 188.407 983.161 189.16V189.591L982.838 189.376L982.622 189.268L982.945 188.837C983.376 189.268 983.807 189.699 984.237 190.237C984.453 190.452 984.56 190.775 984.668 191.098C984.776 191.421 984.776 191.852 984.56 192.175C984.237 192.821 983.484 193.144 982.838 193.144C982.192 193.144 981.546 192.928 981.007 192.498L981.223 192.282C981.438 192.498 981.653 192.821 981.761 193.144C981.869 193.467 981.869 193.897 981.653 194.113C981.438 194.436 981.223 194.543 980.9 194.759C980.684 194.974 980.254 194.974 979.931 194.866C980.254 194.974 980.577 194.866 980.792 194.759C981.007 194.543 981.223 194.328 981.438 194.113C981.761 193.574 981.33 193.036 980.9 192.605L981.115 192.39C981.546 192.713 982.192 192.928 982.73 192.928C983.268 192.928 983.807 192.605 984.022 192.175C984.237 191.744 984.13 191.206 983.807 190.775C983.484 190.345 983.053 189.914 982.622 189.483L982.945 189.053L983.161 189.16L982.838 189.376C982.838 187.868 982.084 186.361 980.792 185.392C979.608 184.423 978.101 183.777 976.593 183.239C973.256 182.27 970.026 181.839 966.904 181.624C966.796 181.732 966.904 181.732 966.904 181.624C966.904 181.624 966.796 181.624 966.904 181.624Z" fill="#2E3748"/>
<path d="M968.735 125.855C947.095 130.916 929.761 145.45 923.625 154.709C918.995 161.707 913.397 173.119 919.211 179.148C924.055 184.315 932.453 189.806 947.418 191.959C955.6 193.144 960.337 193.144 967.443 193.251L970.027 180.655C970.027 180.655 938.697 174.626 949.14 162.568C959.583 150.51 988.867 151.371 988.867 151.371" fill="#363848"/>
<path d="M1164.69 37.6817C1164.69 40.3733 1164.26 43.1724 1163.5 45.7563C1163.4 46.2946 1163.18 46.7252 1163.07 47.2635C1158.44 61.3671 1144.23 73.3175 1129.59 74.7171C1112.69 76.332 1102.24 69.5494 1098.05 58.4603C1097.94 58.1373 1097.83 57.8143 1097.72 57.3837C1097.51 56.7377 1097.29 55.9841 1097.08 55.2305C1096.97 54.9075 1096.97 54.5845 1096.86 54.3692C1096.22 51.7853 1096 48.9861 1096 45.9716C1096 28.0999 1112.04 13.2427 1129.59 9.6899C1150.8 5.38347 1160.38 13.9963 1163.5 26.5927C1163.61 26.9156 1163.61 27.2386 1163.72 27.4539C1164.36 30.8991 1164.69 34.2366 1164.69 37.6817Z" fill="#F9DD4A"/>
<path d="M1163.5 26.808C1161.67 25.9467 1159.73 25.4084 1157.69 24.9778C1154.89 24.4394 1152.09 24.2241 1149.29 24.4394C1146.49 24.5471 1143.69 24.9777 1141 25.9467C1140.36 26.162 1139.71 26.485 1139.06 26.808C1136.26 26.2697 1133.57 26.3773 1130.88 26.808C1125.28 27.7769 1120.01 29.9302 1115.27 32.9447C1110.53 35.9592 1106.34 39.8349 1103 44.249C1101.27 46.5099 1099.77 48.7708 1098.48 51.247C1097.94 52.3236 1097.4 53.4002 1096.86 54.4768C1096.97 54.7998 1096.97 55.1228 1097.08 55.3381C1097.08 55.2305 1097.18 55.2305 1097.18 55.1228C1097.83 53.9385 1098.37 52.6466 1099.12 51.4623C1100.52 49.0938 1102.03 46.8329 1103.75 44.6797C1107.2 40.3733 1111.4 36.7128 1116.02 33.9136C1120.65 31.1144 1125.82 29.0689 1131.2 28.2076C1133.25 27.8846 1135.4 27.7769 1137.45 27.9923L1137.34 28.0999C1136.26 29.0689 1135.51 30.3608 1134.87 31.6527C1133.68 34.2366 1133.03 37.1434 1133.36 40.0503C1133.47 41.4499 1133.9 42.9571 1134.87 44.249C1135.4 44.895 1136.05 45.4333 1136.8 45.7563C1137.56 46.0793 1138.42 46.1869 1139.17 46.0793C1140.79 45.9716 1142.08 45.3257 1143.37 44.572C1144.66 43.7107 1145.74 42.6341 1146.38 41.2345C1147.03 39.835 1147.35 38.3277 1147.25 36.8204C1147.14 35.3132 1146.71 33.9136 1146.06 32.514C1145.42 31.2221 1144.55 30.0378 1143.48 28.9612C1143.26 28.7459 1142.94 28.4229 1142.62 28.2076C1142.29 27.9923 1141.97 27.7769 1141.65 27.5616C1141.32 27.4539 1141.11 27.3463 1140.79 27.2386C1141 27.131 1141.22 27.0233 1141.54 26.9156C1144.02 25.9467 1146.82 25.5161 1149.51 25.3007C1152.2 25.1931 1155 25.3007 1157.69 25.7314C1159.84 26.162 1161.89 26.7003 1163.83 27.5616C1163.61 27.3463 1163.61 27.131 1163.5 26.808ZM1140.79 28.9612C1141.32 29.2842 1141.76 29.6072 1142.19 30.1455C1143.05 31.1144 1143.91 32.191 1144.45 33.2676C1145.63 35.5285 1145.95 38.3277 1144.77 40.4809C1144.23 41.5575 1143.37 42.5265 1142.29 43.1724C1141.22 43.8184 1140.03 44.3567 1138.85 44.4644C1137.66 44.572 1136.59 44.1414 1135.83 43.2801C1135.08 42.3112 1134.76 41.1269 1134.54 39.835C1134.22 37.2511 1134.76 34.5596 1135.83 32.0834C1136.37 30.8991 1137.13 29.7148 1137.99 28.8535C1138.2 28.6382 1138.42 28.4229 1138.74 28.2076C1138.85 28.2076 1138.96 28.2076 1138.96 28.3152C1139.71 28.5306 1140.36 28.7459 1140.79 28.9612Z" fill="white"/>
<path d="M1163.5 45.8638C1163.4 46.4021 1163.18 46.8327 1163.07 47.371C1162.64 47.9093 1162.1 48.4476 1161.57 48.8783C1161.03 49.4166 1160.38 50.0625 1159.74 50.4932C1157.26 52.6464 1154.46 54.4766 1151.55 56.0916C1145.63 59.1061 1139.28 60.9363 1132.71 61.9052C1126.15 62.8742 1119.58 62.7665 1113.01 62.0129C1109.78 61.5823 1106.55 61.044 1103.32 60.2903C1101.71 59.8597 1100.2 59.429 1098.58 58.7831C1098.37 58.6754 1098.26 58.6754 1098.05 58.5678C1097.94 58.2448 1097.83 57.9218 1097.72 57.4911C1098.15 57.7065 1098.48 57.8141 1098.91 57.9218C1100.41 58.4601 1102.03 58.8907 1103.54 59.2137C1106.66 59.9673 1109.89 60.398 1113.12 60.721C1119.58 61.2593 1126.04 61.044 1132.5 60.1827C1138.96 59.429 1145.2 57.7065 1151.01 54.9073C1153.92 53.5077 1156.72 51.7851 1159.2 49.8472C1159.84 49.4166 1160.49 48.7706 1161.03 48.2323C1161.67 47.694 1162.21 47.1557 1162.75 46.5097C1163.07 46.2944 1163.29 46.0791 1163.5 45.8638Z" fill="white"/>
<path d="M1152.41 0C1153.06 2.90684 1153.49 5.70603 1153.81 8.61287C1154.14 11.5197 1154.35 14.4266 1154.57 17.2257C1154.68 20.1326 1154.89 23.0394 1154.89 25.9463C1154.89 28.8531 1154.89 31.76 1154.57 34.6668C1153.92 31.76 1153.49 28.9608 1153.17 26.0539C1152.84 23.1471 1152.63 20.2402 1152.41 17.4411C1152.31 14.5342 1152.09 11.6274 1152.09 8.72053C1152.09 5.81369 1152.09 2.90684 1152.41 0Z" fill="#EE724A"/>
<path d="M1170.82 18.3021C1167.92 18.6251 1165.01 18.6251 1162.1 18.6251C1159.2 18.6251 1156.29 18.5175 1153.38 18.4098C1150.48 18.1945 1147.57 17.9791 1144.77 17.6562C1141.86 17.3332 1139.06 16.9025 1136.16 16.2566C1139.06 15.9336 1141.97 15.9336 1144.88 15.9336C1147.79 15.9336 1150.69 16.0413 1153.6 16.1489C1156.51 16.3642 1159.41 16.5796 1162.21 16.9025C1165.12 17.3332 1167.92 17.7638 1170.82 18.3021Z" fill="#EE724A"/>
<path d="M1163.93 9.15137C1162.43 10.8739 1160.92 12.3812 1159.2 13.8884C1157.58 15.3957 1155.86 16.7953 1154.14 18.1949C1152.41 19.5945 1150.58 20.8864 1148.75 22.0707C1146.92 23.2549 1144.99 24.4392 1142.94 25.5158C1144.45 23.7932 1145.95 22.286 1147.68 20.7787C1149.29 19.2715 1151.01 17.8719 1152.74 16.4723C1154.46 15.0727 1156.29 13.7808 1158.12 12.5965C1160.06 11.3046 1161.89 10.1203 1163.93 9.15137Z" fill="#EE724A"/>
<path d="M1144.99 7.42871C1146.71 8.8283 1148.32 10.2279 1149.83 11.8428C1151.34 13.3501 1152.85 14.965 1154.24 16.5799C1155.64 18.1948 1157.04 19.9174 1158.34 21.6399C1159.63 23.3625 1160.81 25.1928 1161.89 27.1307C1160.17 25.7311 1158.55 24.3315 1157.04 22.7166C1155.54 21.2093 1154.03 19.5944 1152.63 17.9795C1151.23 16.3646 1149.83 14.642 1148.54 12.9194C1147.25 11.1968 1146.06 9.36661 1144.99 7.42871Z" fill="#EE724A"/>
<path d="M1007.06 141.143L1007.17 140.713V140.497C1007.17 140.497 1007.17 140.497 1007.17 140.39C1007.17 140.39 1007.06 140.282 1006.95 140.282C1006.85 140.282 1006.95 140.174 1006.95 140.174C1006.95 139.851 1007.06 139.528 1007.06 139.205C1007.17 138.559 1007.28 137.913 1007.38 137.267C1007.6 135.975 1007.92 134.791 1008.25 133.499C1008.89 131.023 1009.75 128.547 1010.72 126.178C1012.77 121.441 1015.57 116.919 1018.9 113.044C1022.35 109.06 1026.33 105.723 1030.85 103.139C1033.12 101.847 1035.59 100.77 1038.18 100.124C1039.47 99.8014 1040.76 99.5861 1042.16 99.5861C1043.56 99.5861 1045.07 99.9091 1046.25 100.986C1048.08 103.139 1049.91 105.615 1050.45 108.63C1050.77 110.137 1050.56 111.752 1050.02 113.151C1049.48 114.551 1048.4 115.843 1047.33 116.812C1046.79 117.35 1046.14 117.781 1045.39 117.996C1044.64 118.319 1043.77 118.427 1042.91 118.211C1042.05 117.996 1041.3 117.458 1040.87 116.812C1040.33 116.166 1040.01 115.52 1039.68 114.874C1038.61 112.075 1038.5 109.06 1038.93 106.261C1039.25 104.861 1039.68 103.462 1040.44 102.17C1040.76 101.524 1041.3 100.878 1041.84 100.34C1042.37 99.8014 1042.91 99.3708 1043.56 98.9401C1045.93 97.3252 1048.62 96.2486 1051.31 95.3873C1054 94.6337 1056.8 94.0954 1059.71 93.9877C1062.51 93.8801 1065.41 93.9877 1068.11 94.9567L1067.89 95.6026C1065.31 94.7414 1062.51 94.6337 1059.71 94.7414C1056.91 94.9567 1054.22 95.495 1051.53 96.2486C1048.94 97.1099 1046.36 98.1865 1044.1 99.8014C1043.56 100.232 1043.02 100.663 1042.59 101.093C1042.16 101.524 1041.73 102.062 1041.41 102.601C1040.76 103.785 1040.33 105.077 1040.11 106.369C1039.68 108.953 1039.9 111.859 1040.87 114.228C1041.41 115.412 1042.16 116.489 1043.24 116.704C1044.2 116.919 1045.39 116.381 1046.36 115.52C1047.33 114.659 1048.08 113.582 1048.62 112.505C1049.05 111.321 1049.16 110.029 1048.94 108.845C1048.51 106.369 1046.9 104 1045.17 101.955C1044.53 101.309 1043.34 100.986 1042.16 100.986C1040.97 100.986 1039.79 101.093 1038.5 101.416C1036.13 101.955 1033.76 103.031 1031.5 104.216C1027.09 106.692 1023.1 109.922 1019.77 113.69C1016.32 117.458 1013.52 121.764 1011.48 126.394C1010.4 128.762 1009.54 131.131 1008.89 133.607C1008.57 134.791 1008.25 136.083 1007.92 137.375C1007.82 138.021 1007.71 138.667 1007.6 139.205C1007.49 139.528 1007.49 139.851 1007.49 140.174C1007.49 140.174 1007.49 140.282 1007.38 140.282C1007.28 140.282 1007.17 140.282 1007.17 140.282C1007.17 140.282 1007.17 140.282 1007.17 140.39V140.605L1007.06 141.143Z" fill="#F9DD4A"/>
<path d="M959.045 152.663L958.937 152.233L958.829 152.017C958.829 152.017 958.722 152.017 958.614 152.017C958.506 152.017 958.614 151.91 958.506 151.91L958.183 151.048C957.968 150.51 957.753 149.972 957.538 149.433C957.107 148.357 956.569 147.28 956.138 146.311C955.061 144.266 953.985 142.22 952.693 140.39C950.109 136.622 946.987 133.177 943.434 130.27C939.881 127.363 935.898 124.994 931.591 123.487C929.438 122.734 927.177 122.195 925.024 122.088C923.947 122.088 922.763 122.088 921.794 122.411C920.825 122.626 919.856 123.164 919.426 123.918C918.457 126.179 917.595 128.547 917.703 130.808C917.703 131.992 918.026 133.069 918.564 134.038C919.103 135.007 919.856 135.868 920.825 136.514C921.794 137.16 922.871 137.698 923.732 137.375C924.486 137.16 925.132 136.083 925.347 134.899C925.778 132.638 925.455 130.054 924.809 127.794C924.055 125.533 922.871 123.164 920.825 122.088C918.78 120.903 916.303 120.257 913.827 119.934C911.351 119.611 908.875 119.719 906.399 120.042C903.922 120.473 901.554 121.119 899.508 122.518L899.078 121.98C901.231 120.473 903.707 119.719 906.291 119.288C908.875 118.858 911.459 118.75 913.935 119.073C916.519 119.396 919.103 119.934 921.363 121.226C921.902 121.549 922.548 121.98 922.978 122.411C923.409 122.841 923.84 123.379 924.27 123.918C925.024 124.994 925.562 126.179 925.993 127.471C926.854 129.947 927.177 132.638 926.746 135.33C926.639 135.976 926.424 136.729 925.993 137.375C925.67 138.021 925.024 138.667 924.163 138.883C923.409 139.206 922.548 139.098 921.794 138.883C921.04 138.667 920.502 138.344 919.856 137.914C918.672 137.16 917.703 136.083 917.057 134.899C916.411 133.715 916.088 132.208 916.088 130.916C916.088 128.117 916.949 125.64 918.026 123.272C918.78 121.98 920.179 121.334 921.363 121.011C922.548 120.688 923.84 120.688 925.024 120.688C927.392 120.796 929.761 121.442 932.022 122.195C936.436 123.81 940.527 126.286 944.08 129.408C947.633 132.423 950.755 136.083 953.231 139.959C954.523 141.897 955.6 143.943 956.569 146.096C957.107 147.173 957.538 148.249 957.968 149.326C958.183 149.864 958.399 150.402 958.614 150.941L958.937 151.802C958.937 151.802 959.045 151.802 958.937 151.91C958.829 151.91 958.722 152.017 958.722 152.017L958.829 152.233L959.045 152.663Z" fill="#F9DD4A"/>
<path d="M1102.23 138.452C1104.37 138.452 1106.11 136.717 1106.11 134.576C1106.11 132.435 1104.37 130.7 1102.23 130.7C1100.09 130.7 1098.36 132.435 1098.36 134.576C1098.36 136.717 1100.09 138.452 1102.23 138.452Z" stroke="#EE724A" stroke-width="1.5027" stroke-miterlimit="10"/>
<path d="M921.148 298.436C924.18 298.436 926.639 295.978 926.639 292.945C926.639 289.913 924.18 287.455 921.148 287.455C918.116 287.455 915.657 289.913 915.657 292.945C915.657 295.978 918.116 298.436 921.148 298.436Z" stroke="#F9DD4A" stroke-width="1.5027" stroke-miterlimit="10"/>
</svg>
