<svg width="670" height="408" viewBox="0 0 670 408" fill="none" xmlns="http://www.w3.org/2000/svg">
<path d="M512.786 175.455L512.885 175.054L512.978 174.877C512.978 174.877 512.978 174.877 513.025 174.788C513.025 174.788 512.937 174.741 512.848 174.695C512.76 174.648 512.895 174.606 512.807 174.559C512.947 174.294 512.999 173.981 513.139 173.715C513.332 173.137 513.524 172.559 513.805 172.027C514.278 170.917 514.751 169.808 515.313 168.745C516.348 166.572 517.56 164.492 518.948 162.506C521.726 158.534 524.987 154.931 528.816 151.968C532.645 149.005 536.952 146.634 541.598 145.123C543.898 144.411 546.328 143.881 548.794 143.711C550.048 143.694 551.302 143.676 552.504 143.971C553.706 144.266 555.127 144.79 555.95 146.017C557.241 148.286 558.345 150.908 558.413 153.777C558.335 155.209 558.034 156.637 557.155 157.872C556.411 159.066 555.225 160.025 554.003 160.626C553.368 160.971 552.733 161.315 552.015 161.389C551.25 161.552 550.402 161.444 549.648 161.158C548.94 160.785 548.373 160.145 548.029 159.51C547.685 158.876 547.477 158.199 547.315 157.434C546.841 154.69 547.262 151.966 548.26 149.434C548.78 148.236 549.435 146.996 550.356 145.896C550.861 145.369 551.318 144.931 551.865 144.54C552.411 144.148 553.046 143.804 553.633 143.548C556.12 142.482 558.774 141.957 561.375 141.745C563.977 141.533 566.662 141.591 569.295 141.962C571.928 142.333 574.509 143.016 576.804 144.455L576.477 145.075C574.312 143.819 571.731 143.135 569.186 142.811C566.641 142.487 564.045 142.475 561.532 142.734C559.019 142.993 556.454 143.564 554.102 144.588C553.514 144.844 553.015 145.147 552.468 145.538C551.969 145.841 551.511 146.279 551.142 146.764C550.315 147.687 549.706 148.839 549.322 149.995C548.417 152.35 548.09 154.897 548.616 157.328C548.903 158.499 549.46 159.586 550.256 160.007C551.141 160.474 552.27 160.051 553.357 159.492C554.444 158.933 555.313 158.146 555.963 157.129C556.613 156.113 556.951 155.045 556.935 153.79C556.945 151.416 555.971 148.975 554.769 146.753C554.248 146.025 553.275 145.511 552.161 145.263C551.048 145.015 549.929 144.99 548.81 144.966C546.479 145.094 544.185 145.582 542.02 146.252C537.556 147.633 533.384 149.962 529.56 152.701C525.778 155.576 522.433 158.908 519.614 162.745C518.272 164.642 516.972 166.675 515.937 168.848C515.376 169.911 514.903 171.021 514.429 172.13C514.149 172.662 513.956 173.24 513.764 173.819C513.623 174.084 513.571 174.397 513.431 174.663C513.431 174.663 513.473 174.798 513.384 174.751C513.296 174.704 513.16 174.746 513.16 174.746C513.16 174.746 513.16 174.746 513.114 174.835L513.02 175.012L512.786 175.455Z" fill="#F9DD4A"/>
<path d="M408.954 205.11L562.741 205.01C569.345 205.01 574.648 210.32 574.648 216.932L574.748 284.661C574.748 291.274 569.445 296.584 562.841 296.584L409.054 296.684C402.45 296.684 397.147 291.374 397.147 284.762L397.047 217.033C397.047 210.42 402.35 205.11 408.954 205.11Z" fill="white"/>
<path d="M397.047 216.231C397.047 210.22 401.95 205.31 407.954 205.31L563.642 205.21C569.645 205.21 574.548 210.119 574.548 216.131V242.481L397.047 242.581V216.231Z" fill="#A4E8A0"/>
<path opacity="0.2" d="M410.153 264.323C410.153 259.914 413.655 256.408 418.058 256.408L553.735 256.308C558.137 256.308 561.639 259.814 561.639 264.223V272.539C561.639 276.947 558.137 280.454 553.735 280.454L418.058 280.554C413.655 280.554 410.153 277.047 410.153 272.639V264.323Z" fill="#CAD9E8"/>
<path d="M425.964 229.757C424.363 227.252 424.663 224.146 425.964 221.742C427.265 219.337 429.766 217.734 432.268 216.932C434.869 216.231 437.471 216.131 440.072 216.532C442.674 216.932 445.175 217.534 447.476 218.535C449.878 219.537 452.079 220.94 453.98 222.844C454.88 223.846 455.681 224.948 456.081 226.35C456.281 227.052 456.281 227.953 455.581 228.755C455.281 229.156 454.78 229.256 454.38 229.356C453.98 229.456 453.58 229.456 453.28 229.356C451.879 229.156 450.678 228.454 449.577 227.753C448.477 227.052 447.476 226.15 446.676 225.148C445.875 224.146 445.075 223.044 444.675 221.742C444.274 220.439 444.074 218.936 444.675 217.634C445.275 216.231 446.476 215.43 447.776 214.929C449.077 214.428 450.378 214.227 451.679 214.127C454.28 214.027 456.782 214.227 459.283 214.628C464.286 215.43 469.189 216.932 473.891 218.736C476.293 219.638 478.594 220.639 480.795 221.942C481.896 222.543 482.996 223.244 483.997 224.046C484.497 224.447 484.998 224.848 485.498 225.348C485.698 225.649 485.898 225.849 486.098 226.25C486.298 226.551 486.398 227.052 486.198 227.452C485.998 227.853 485.698 228.154 485.398 228.354C485.098 228.555 484.697 228.655 484.397 228.755C483.697 228.955 482.996 228.855 482.296 228.655C480.995 228.254 479.895 227.553 478.894 226.651C477.894 225.749 477.093 224.747 476.393 223.645C475.792 222.543 475.292 221.241 475.292 219.838C475.292 219.137 475.492 218.435 475.792 217.834C476.093 217.233 476.693 216.732 477.193 216.331C477.793 215.931 478.394 215.73 478.994 215.53C479.594 215.329 480.195 215.129 480.895 215.029C483.397 214.428 485.998 214.428 488.5 214.528C493.602 214.929 498.505 216.231 503.108 218.435C504.208 219.036 505.409 219.638 506.41 220.339C507.41 221.14 508.411 221.942 509.111 223.144C509.411 223.745 509.511 224.547 509.211 225.148C508.911 225.749 508.311 226.25 507.71 226.551C506.51 227.152 505.009 227.052 503.808 226.651C502.608 226.15 501.507 225.449 500.606 224.447C499.706 223.545 499.005 222.443 498.605 221.14C498.205 219.938 498.405 218.435 499.206 217.333C500.006 216.231 501.207 215.63 502.407 215.229C504.909 214.428 507.41 214.428 509.912 214.528C512.413 214.628 514.915 214.929 517.416 215.43C522.419 216.331 527.322 217.233 532.224 218.435C537.127 219.638 542.03 220.94 546.833 222.443C551.635 224.046 556.338 225.749 560.941 227.953C556.438 225.749 551.635 224.046 546.833 222.543C542.03 221.04 537.127 219.738 532.224 218.636C527.322 217.534 522.319 216.632 517.416 215.73C514.915 215.329 512.413 215.029 509.912 214.929C507.41 214.828 504.909 214.929 502.507 215.63C501.307 216.031 500.206 216.632 499.506 217.534C498.805 218.535 498.605 219.838 499.005 220.94C499.306 222.142 500.006 223.144 500.907 224.046C501.807 224.948 502.808 225.649 503.908 226.05C505.009 226.451 506.31 226.551 507.41 225.95C507.911 225.649 508.411 225.248 508.611 224.747C508.911 224.246 508.811 223.645 508.511 223.144C508.011 222.042 507.01 221.241 506.009 220.539C505.009 219.838 503.908 219.237 502.808 218.636C498.305 216.532 493.402 215.229 488.399 214.828C485.898 214.628 483.397 214.728 480.995 215.329C480.395 215.43 479.795 215.63 479.194 215.83C478.594 216.031 477.994 216.231 477.593 216.532C476.593 217.133 475.992 218.235 475.992 219.337C475.992 220.539 476.393 221.641 476.993 222.743C477.593 223.745 478.394 224.747 479.294 225.549C480.195 226.35 481.295 227.052 482.396 227.352C482.996 227.452 483.497 227.553 484.097 227.452C484.597 227.352 485.198 227.052 485.298 226.751C485.398 226.451 485.098 225.95 484.797 225.449C484.397 225.048 483.897 224.647 483.497 224.246C482.496 223.545 481.396 222.844 480.395 222.243C478.194 221.04 475.892 220.038 473.591 219.137C468.888 217.333 464.086 215.931 459.083 215.229C456.581 214.828 454.08 214.628 451.679 214.728C450.478 214.828 449.277 215.029 448.177 215.43C447.076 215.83 446.176 216.532 445.675 217.534C445.275 218.535 445.375 219.738 445.775 220.84C446.176 221.942 446.776 222.944 447.576 223.846C448.377 224.747 449.277 225.549 450.278 226.25C451.278 226.851 452.379 227.452 453.48 227.653C453.98 227.753 454.48 227.653 454.68 227.452C454.88 227.252 454.981 226.751 454.78 226.25C454.48 225.248 453.78 224.246 452.979 223.345C451.278 221.641 449.177 220.339 446.876 219.337C444.575 218.435 442.173 217.734 439.772 217.433C437.371 217.133 434.869 217.133 432.568 217.834C430.267 218.535 428.265 219.938 427.165 221.942C426.064 223.946 425.864 226.551 427.165 228.354C427.365 228.655 427.265 229.156 426.965 229.356C426.664 230.258 426.264 230.158 425.964 229.757Z" fill="#F3FCF2"/>
<path d="M423.262 272.939C422.562 272.238 422.162 271.136 422.262 270.134C422.362 269.132 422.862 268.23 423.462 267.629C424.763 266.327 426.364 265.625 428.065 265.325C431.367 264.624 434.669 265.024 437.871 265.726C439.472 266.126 441.072 266.627 442.573 267.329C443.274 267.729 444.074 268.13 444.674 268.731C444.975 269.032 445.275 269.333 445.575 269.733C445.775 270.134 446.075 270.635 445.975 271.336C445.875 271.737 445.575 271.937 445.275 272.138C444.975 272.238 444.775 272.338 444.474 272.338C443.974 272.338 443.574 272.338 443.074 272.238C442.173 272.038 441.473 271.737 440.672 271.336C439.872 270.936 439.171 270.535 438.571 269.934C437.971 269.333 437.37 268.731 436.97 267.83C436.77 267.429 436.67 266.928 436.77 266.327C436.87 265.826 437.17 265.325 437.47 265.024C438.171 264.323 439.071 264.022 439.872 263.822C441.473 263.421 443.174 263.421 444.775 263.421C447.976 263.521 451.178 264.022 454.38 264.624C457.482 265.325 460.684 266.126 463.685 267.128C465.186 267.729 466.687 268.23 468.088 269.232C468.288 269.333 468.488 269.533 468.588 269.833C468.688 269.934 468.688 270.234 468.688 270.435C468.588 270.635 468.488 270.735 468.388 270.835C467.888 271.136 467.487 271.136 467.087 271.236C466.287 271.336 465.386 271.336 464.586 271.236C462.985 270.936 461.284 270.334 460.183 268.932C459.883 268.531 459.683 268.13 459.683 267.729C459.583 267.229 459.683 266.828 459.783 266.327C460.183 265.525 460.884 264.924 461.584 264.523C463.085 263.722 464.586 263.321 466.187 263.02C467.788 262.72 469.388 262.52 470.989 262.319C477.393 261.518 483.797 261.317 490.2 261.918C496.604 262.419 502.908 263.622 509.111 264.824C515.415 266.126 521.618 267.429 527.822 268.731C521.518 267.529 515.315 266.227 509.011 265.024C502.707 263.822 496.404 262.72 490.1 262.319C483.697 261.818 477.393 262.119 470.989 262.92C467.888 263.421 464.586 263.622 461.884 265.124C461.284 265.525 460.684 266.026 460.383 266.627C460.083 267.228 460.283 267.93 460.684 268.531C461.584 269.733 463.085 270.334 464.586 270.535C465.386 270.635 466.087 270.635 466.887 270.535C467.287 270.435 467.688 270.435 467.888 270.234C467.988 270.134 467.888 270.334 467.888 270.234C467.888 270.134 467.688 270.034 467.587 269.934C466.387 269.132 464.786 268.531 463.385 268.03C460.383 267.028 457.282 266.227 454.18 265.625C451.078 265.024 447.876 264.523 444.775 264.523C443.174 264.523 441.673 264.523 440.172 264.924C439.472 265.124 438.771 265.425 438.271 265.826C437.871 266.227 437.771 266.828 438.071 267.429C438.671 268.631 439.972 269.633 441.273 270.334C441.973 270.635 442.673 270.936 443.374 271.036C443.774 271.136 444.074 271.136 444.374 271.136C444.574 271.136 444.675 271.036 444.775 271.036C444.875 271.036 444.875 270.936 444.875 270.936C444.875 270.835 444.875 270.635 444.674 270.334C444.474 270.034 444.274 269.833 443.974 269.533C443.374 269.032 442.773 268.631 442.073 268.331C440.672 267.629 439.171 267.128 437.671 266.828C434.669 266.126 431.467 265.926 428.465 266.527C426.964 266.828 425.564 267.429 424.663 268.531C424.263 269.032 423.863 269.633 423.863 270.234C423.763 270.835 423.963 271.437 424.463 271.837C424.763 272.138 424.763 272.639 424.463 272.939C423.963 273.24 423.462 273.24 423.262 272.939Z" fill="#ADC9EE"/>
<path d="M639.505 87.0098H628.799C626.298 87.0098 624.196 89.1138 624.196 91.6185V100.836C624.196 103.441 626.298 105.545 628.799 105.545H636.503V108.651C640.806 108.651 644.208 105.144 644.208 100.936V91.7187C644.108 89.1138 642.106 87.0098 639.505 87.0098ZM631.701 97.8304C630.8 97.8304 630 97.129 630 96.1271C630 95.2254 630.7 94.4239 631.701 94.4239C632.601 94.4239 633.401 95.1252 633.401 96.1271C633.301 97.129 632.601 97.8304 631.701 97.8304ZM636.703 97.8304C635.803 97.8304 635.002 97.129 635.002 96.1271C635.002 95.2254 635.703 94.4239 636.703 94.4239C637.604 94.4239 638.404 95.1252 638.404 96.1271C638.304 97.129 637.604 97.8304 636.703 97.8304Z" fill="#EE724A"/>
<path d="M634.902 128.89C634.902 135.202 631.6 140.812 626.698 143.918C625.497 144.72 624.096 145.321 622.695 145.822C620.894 146.423 618.993 146.724 617.092 146.724C614.891 146.724 612.79 146.323 610.889 145.622C604.085 143.117 597.681 136.404 599.282 128.89C602.584 112.959 607.287 110.956 617.192 110.956C623.996 110.956 629.499 111.857 633.001 120.474C633.902 123.079 634.902 125.784 634.902 128.89Z" fill="#EE724A"/>
<path d="M609.287 123.78C610.387 114.462 620.793 110.354 626.696 116.967L626.797 117.067C631.399 122.277 633.6 121.576 643.206 114.963C648.909 111.156 653.412 108.451 659.115 109.453C664.318 110.354 667.219 113.661 668.82 117.268C672.222 125.082 667.92 134.3 660.316 136.003C658.915 136.304 657.614 136.404 656.513 136.204C653.612 135.803 652.411 134.4 648.909 138.007C643.006 144.019 637.803 149.429 630.299 145.722C627.897 144.52 625.596 143.317 623.094 142.415C609.887 137.406 609.287 130.493 609.287 130.493C608.986 127.888 608.986 125.684 609.287 123.78Z" fill="#373949"/>
<path d="M622.694 145.822C620.893 146.423 618.992 146.724 617.091 146.724C614.89 146.724 612.789 146.323 610.888 145.622L610.988 138.208C605.485 136.604 605.185 129.691 605.785 124.882C605.985 122.878 606.886 121.075 608.086 119.672C609.187 118.47 610.588 117.568 612.188 117.067C612.789 116.867 613.389 116.767 613.989 116.666C614.99 116.566 615.89 116.666 616.891 116.967C617.191 117.067 617.491 117.167 617.791 117.268C617.891 117.268 617.891 117.368 617.991 117.368C620.393 118.57 621.593 121.576 622.193 124.481C622.193 124.582 622.294 124.782 622.294 124.882C622.494 125.684 622.594 126.485 622.594 127.287V127.587L622.294 131.795L622.594 142.215L622.694 145.822Z" fill="#C18987"/>
<path d="M610.887 138.207C610.887 138.207 613.488 139.109 617.09 136.705C617.09 136.705 615.089 140.812 610.887 142.315V138.207Z" fill="#AD7777"/>
<path d="M621.895 126.185C621.895 127.086 622.395 127.888 623.096 127.888C623.796 127.888 624.396 127.187 624.396 126.185C624.396 125.283 623.896 124.481 623.196 124.481C622.595 124.481 621.995 125.183 621.895 126.185Z" fill="#BE9791"/>
<path d="M623.195 126.184C623.195 126.284 623.295 126.384 623.395 126.384C623.495 126.384 623.595 126.284 623.595 126.184C623.595 126.084 623.495 125.984 623.395 125.984C623.295 125.984 623.195 126.084 623.195 126.184Z" fill="#A37975"/>
<path d="M610.887 138.207C611.387 138.308 611.988 138.207 612.488 138.207C612.988 138.107 613.488 138.007 613.989 137.907C614.489 137.807 614.989 137.606 615.489 137.406C615.99 137.205 616.49 137.005 616.99 136.805C616.79 137.005 616.59 137.205 616.39 137.306L615.689 137.706C615.189 138.007 614.689 138.207 614.189 138.308C613.688 138.408 613.088 138.608 612.488 138.508C611.988 138.608 611.387 138.508 610.887 138.207Z" fill="#383A4A"/>
<path d="M621.895 126.185C621.895 127.086 622.395 127.888 623.096 127.888C623.796 127.888 624.396 127.187 624.396 126.185C624.396 125.283 623.896 124.481 623.196 124.481C622.595 124.481 621.995 125.183 621.895 126.185Z" fill="#C18987"/>
<path d="M622.795 125.684C622.795 125.684 623.595 125.583 623.595 126.184C623.695 126.786 622.895 126.685 622.895 126.685" stroke="#B57A77" stroke-width="0.4282" stroke-miterlimit="10" stroke-linecap="round"/>
<path d="M614.289 130.192C614.089 130.794 613.688 131.395 613.188 131.795C612.688 132.196 611.988 132.497 611.287 132.497C610.587 132.497 609.887 132.196 609.386 131.896C609.086 131.695 608.886 131.495 608.586 131.294C608.386 130.994 608.186 130.794 607.986 130.593C608.586 130.894 609.086 131.294 609.587 131.595C610.187 131.795 610.687 131.996 611.287 132.096C611.888 132.096 612.388 131.896 612.988 131.595C613.388 131.094 613.888 130.693 614.289 130.192Z" fill="#373949"/>
<path d="M611.587 122.578C611.287 123.279 610.887 123.98 610.587 124.581C610.187 125.183 609.787 125.884 609.286 126.485V126.185C609.687 126.685 609.987 127.186 610.287 127.788C609.787 127.387 609.286 126.986 608.886 126.485L608.786 126.385L608.886 126.185C609.286 125.483 609.687 124.882 610.087 124.281C610.487 123.68 610.987 123.079 611.587 122.578Z" fill="#373949"/>
<path d="M614.189 124.281C614.089 124.782 614.089 125.283 614.089 125.784C614.089 126.285 614.189 126.786 614.489 126.886C614.789 127.086 615.189 126.786 615.589 126.485C615.989 126.185 616.29 125.784 616.59 125.383C616.69 125.283 616.79 125.283 616.89 125.383C616.99 125.483 616.99 125.583 616.89 125.583C616.59 126.084 616.29 126.485 615.889 126.886C615.689 127.086 615.489 127.287 615.189 127.387C614.889 127.487 614.489 127.587 614.189 127.387C613.888 127.186 613.688 126.886 613.588 126.585C613.488 126.285 613.488 125.984 613.488 125.784C613.488 125.283 613.588 124.682 613.788 124.181C613.788 124.081 613.888 124.081 613.989 124.081C614.089 124.181 614.189 124.281 614.189 124.281Z" fill="#373949"/>
<path d="M607.486 122.778C607.386 123.279 607.386 123.68 607.285 124.181C607.285 124.581 607.386 125.183 607.586 125.183C607.786 125.283 608.186 124.982 608.486 124.682C608.786 124.381 609.086 123.98 609.386 123.579C609.486 123.479 609.586 123.479 609.687 123.579C609.787 123.68 609.787 123.68 609.787 123.78C609.587 124.281 609.286 124.682 608.986 125.082C608.786 125.283 608.686 125.483 608.386 125.583C608.186 125.683 607.786 125.884 607.486 125.784C607.085 125.583 606.985 125.283 606.985 124.982C606.985 124.682 606.985 124.481 606.985 124.181C607.085 123.68 607.185 123.179 607.385 122.778C607.385 122.678 607.486 122.678 607.586 122.678C607.486 122.678 607.486 122.678 607.486 122.778Z" fill="#373949"/>
<path d="M622.692 114.262C622.692 114.262 611.788 122.177 607.986 119.672C608.086 119.672 611.888 111.056 622.692 114.262Z" fill="#373949"/>
<path d="M616.891 116.967C616.891 116.967 619.192 122.978 622.394 124.681L626.395 121.976C626.595 120.774 621.493 114.763 616.891 116.967Z" fill="#373949"/>
<path d="M148.44 280.01H140.636C138.736 280.01 137.235 281.513 137.235 283.416V290.229C137.235 292.133 138.736 293.636 140.636 293.636H146.239V295.84C149.34 295.84 151.841 293.335 151.841 290.229V283.416C151.841 281.513 150.341 280.01 148.44 280.01ZM142.737 287.925C142.037 287.925 141.537 287.424 141.537 286.723C141.537 286.021 142.037 285.52 142.737 285.52C143.438 285.52 143.938 286.021 143.938 286.723C143.938 287.324 143.438 287.925 142.737 287.925ZM146.339 287.925C145.639 287.925 145.138 287.424 145.138 286.723C145.138 286.021 145.639 285.52 146.339 285.52C147.039 285.52 147.539 286.021 147.539 286.723C147.64 287.324 147.039 287.925 146.339 287.925Z" fill="#A4E8A0"/>
<path d="M150.742 322.19C150.041 334.113 142.137 344.132 130.83 346.236C129.329 346.537 127.829 346.637 126.328 346.637C121.625 346.637 117.223 345.334 113.52 343.03C108.818 340.124 103.815 336.818 101.914 331.608C101.013 329.003 101.914 325.096 101.914 322.19C101.914 315.377 104.715 309.165 109.318 304.657C110.419 303.555 111.619 302.553 112.92 301.751C114.821 300.449 117.022 299.447 119.224 298.746C121.425 298.044 123.826 297.744 126.328 297.744C139.835 297.744 151.842 304.056 150.742 322.19Z" fill="#F9DD4A"/>
<path d="M114.622 331.507L96.0112 329.804C96.0112 329.804 99.7133 325.797 100.914 321.388C101.815 317.982 98.2125 312.371 100.214 308.564C102.215 305.057 107.718 305.959 111.02 303.855C113.021 302.552 114.121 298.344 116.723 298.144C119.124 297.944 121.226 300.649 123.127 300.949C125.228 301.35 127.629 300.649 129.03 301.35C134.533 304.456 134.933 309.966 134.933 309.966L114.622 331.507Z" fill="#EF886C"/>
<path d="M130.731 337.219L130.831 346.236C129.33 346.537 127.83 346.637 126.329 346.637C121.626 346.637 117.224 345.334 113.521 343.03L113.822 331.508L113.922 328.001L113.521 321.789V321.288C113.622 320.186 113.822 318.984 114.022 317.782C114.022 317.581 114.122 317.381 114.122 317.181C115.022 312.872 116.823 308.464 120.325 306.661C120.425 306.661 120.525 306.56 120.626 306.56C121.026 306.36 121.526 306.16 121.926 306.059C123.327 305.659 124.828 305.559 126.229 305.659C129.631 305.959 132.732 307.562 134.934 310.067C134.934 310.067 134.934 310.067 134.934 310.167C136.735 312.171 137.935 314.876 138.336 317.682C139.136 324.795 138.836 334.914 130.731 337.219Z" fill="#E09F9B"/>
<path d="M130.73 337.219C130.73 337.219 126.928 338.621 121.626 335.115C121.626 335.115 124.627 341.226 130.83 343.33L130.73 337.219Z" fill="#CA7D7A"/>
<path d="M114.52 319.485C114.52 320.888 113.72 321.99 112.72 321.99C111.719 321.99 110.819 320.888 110.719 319.585C110.719 318.183 111.519 317.081 112.52 317.081C113.62 316.98 114.52 318.082 114.52 319.485Z" fill="#BE9791"/>
<path d="M112.719 319.485C112.719 319.685 112.619 319.786 112.419 319.786C112.219 319.786 112.119 319.685 112.119 319.485C112.119 319.285 112.219 319.185 112.419 319.185C112.619 319.185 112.719 319.285 112.719 319.485Z" fill="#A37975"/>
<path d="M130.73 337.219C130.03 337.62 129.129 337.72 128.329 337.72C127.529 337.72 126.728 337.619 125.928 337.319C125.128 337.119 124.427 336.818 123.627 336.417L122.626 335.816C122.326 335.616 121.926 335.315 121.626 335.115C122.326 335.415 123.127 335.816 123.827 336.117C124.527 336.417 125.328 336.718 126.028 336.918C126.828 337.119 127.529 337.319 128.329 337.419C129.129 337.319 129.93 337.419 130.73 337.219Z" fill="#383A4A"/>
<path d="M114.52 319.485C114.52 320.888 113.72 321.99 112.72 321.99C111.719 321.99 110.819 320.888 110.719 319.585C110.719 318.183 111.519 317.081 112.52 317.081C113.62 316.98 114.52 318.082 114.52 319.485Z" fill="#E09F9B"/>
<path d="M113.319 318.784C113.319 318.784 112.219 318.583 112.119 319.485C112.019 320.387 113.119 320.186 113.119 320.186" stroke="#B57A77" stroke-width="0.4282" stroke-miterlimit="10" stroke-linecap="round"/>
<path d="M125.829 325.296C126.429 326.098 127.029 326.699 127.83 327.2C128.63 327.701 129.43 328.002 130.331 328.002C131.231 328.002 132.031 327.701 132.932 327.3C133.332 327.1 133.732 326.799 134.132 326.599C134.532 326.298 134.833 325.998 135.233 325.797C134.933 326.198 134.633 326.499 134.232 326.799C133.832 327.1 133.532 327.4 133.132 327.701C132.332 328.202 131.331 328.603 130.331 328.603C129.33 328.603 128.33 328.202 127.529 327.601C126.729 327 126.129 326.198 125.829 325.296Z" fill="#373949"/>
<path d="M129.831 314.175C130.631 314.976 131.231 315.878 131.932 316.78C132.532 317.681 133.232 318.583 133.732 319.585L133.832 319.785L133.732 319.886C133.132 320.587 132.432 321.188 131.731 321.889C132.232 321.088 132.832 320.387 133.332 319.585V319.886C132.632 318.984 132.032 318.082 131.431 317.08C130.831 316.179 130.331 315.177 129.831 314.175Z" fill="#373949"/>
<path d="M126.328 316.68C126.528 317.381 126.728 318.183 126.728 318.984C126.728 319.385 126.728 319.786 126.628 320.187C126.528 320.587 126.228 320.988 125.828 321.188C125.428 321.389 124.928 321.389 124.527 321.188C124.127 320.988 123.827 320.788 123.527 320.487C122.927 319.986 122.527 319.285 122.126 318.684C122.026 318.584 122.126 318.483 122.226 318.383C122.326 318.383 122.427 318.383 122.427 318.383C122.827 318.984 123.327 319.485 123.927 319.986C124.427 320.487 125.128 320.788 125.628 320.587C126.128 320.387 126.328 319.585 126.328 318.884C126.328 318.183 126.228 317.381 126.128 316.68C126.128 316.58 126.128 316.479 126.228 316.479C126.228 316.479 126.328 316.58 126.328 316.68Z" fill="#373949"/>
<path d="M136.133 314.376C136.333 315.077 136.534 315.778 136.634 316.48C136.634 316.88 136.634 317.181 136.634 317.582C136.534 317.983 136.434 318.383 135.933 318.684C135.433 318.884 134.933 318.684 134.633 318.483C134.333 318.283 134.032 317.983 133.832 317.682C133.332 317.081 133.032 316.48 132.632 315.878C132.632 315.778 132.632 315.678 132.732 315.678C132.832 315.678 132.932 315.678 132.932 315.778C133.332 316.379 133.732 316.88 134.133 317.381C134.333 317.582 134.633 317.882 134.833 318.083C135.133 318.283 135.333 318.383 135.533 318.283C135.733 318.183 135.833 317.983 135.933 317.682C136.033 317.381 136.033 317.081 136.033 316.68C136.033 315.979 135.933 315.277 135.733 314.676C135.733 314.576 135.733 314.476 135.833 314.476C136.033 314.275 136.133 314.376 136.133 314.376Z" fill="#373949"/>
<path d="M113.321 302.052C113.321 302.052 129.23 313.674 134.934 310.067C134.934 309.967 129.33 297.243 113.321 302.052Z" fill="#EF886C"/>
<path d="M121.923 305.959C121.923 305.959 118.521 314.776 113.819 317.281L107.917 313.373C107.716 311.57 115.22 302.753 121.923 305.959Z" fill="#EF886C"/>
<path d="M120.024 330.105C122.511 330.105 124.526 328.132 124.526 325.697C124.526 323.262 122.511 321.289 120.024 321.289C117.538 321.289 115.522 323.262 115.522 325.697C115.522 328.132 117.538 330.105 120.024 330.105Z" fill="#EBBDBC"/>
<path d="M138.336 317.982C136.935 318.684 136.035 320.187 136.035 321.79C136.035 323.493 137.035 324.996 138.536 325.697C138.536 325.697 138.736 324.194 138.636 321.79C138.536 319.585 138.336 317.982 138.336 317.982Z" fill="#EBBDBC"/>
<path d="M140.031 22.0098H135.529C134.429 22.0098 133.628 22.9115 133.628 23.9134V27.8208C133.628 28.9229 134.529 29.8247 135.529 29.8247H138.731V31.1271C140.532 31.1271 141.932 29.7245 141.932 27.921V24.0136C141.932 22.9115 141.132 22.0098 140.031 22.0098ZM136.73 26.5184C136.33 26.5184 136.029 26.2178 136.029 25.817C136.029 25.4163 136.33 25.1157 136.73 25.1157C137.13 25.1157 137.43 25.4163 137.43 25.817C137.43 26.2178 137.13 26.5184 136.73 26.5184ZM138.831 26.5184C138.431 26.5184 138.13 26.2178 138.13 25.817C138.13 25.4163 138.431 25.1157 138.831 25.1157C139.231 25.1157 139.531 25.4163 139.531 25.817C139.531 26.2178 139.231 26.5184 138.831 26.5184Z" fill="#A4E8A0"/>
<path d="M134.329 44.8525C134.329 51.2647 131.328 55.4728 125.724 57.677C124.924 57.9775 124.124 58.2781 123.223 58.3783C122.222 58.5787 121.322 58.6789 120.221 58.6789C117.42 58.6789 114.818 57.9775 112.617 56.6751C108.114 54.0701 105.013 49.1607 105.013 43.55C105.013 36.1359 107.414 31.5271 113.417 29.9241C115.619 29.323 117.72 28.321 120.121 28.321C123.123 28.321 126.025 29.2228 128.426 30.7256C132.628 33.531 134.329 39.5424 134.329 44.8525Z" fill="#EE724A"/>
<path d="M125.623 55.0727V57.6776C124.823 57.9782 124.023 58.2788 123.122 58.379C122.122 58.5794 121.221 58.6796 120.12 58.6796C117.319 58.6796 114.717 57.9782 112.516 56.6757L112.716 47.9591L112.416 43.2502V42.9496C112.516 42.0479 112.616 41.1462 112.816 40.2444C113.517 36.8379 114.817 33.2311 117.619 31.8284C119.12 31.1271 120.621 30.9267 122.122 31.0269C124.423 31.2273 126.424 32.2292 127.925 33.6318C129.726 35.2349 131.027 37.6395 131.327 40.1442C132.027 45.5546 131.827 53.2692 125.623 55.0727Z" fill="#E0BEBD"/>
<path d="M125.622 57.6776C124.821 57.9782 124.021 58.2787 123.121 58.3789C120.219 56.3751 118.719 53.5698 118.619 53.3694C119.919 54.2711 121.12 54.6719 122.12 54.9724C122.22 54.9724 122.32 55.0726 122.42 55.0726C124.021 55.3732 125.022 55.1728 125.422 55.0726C125.522 55.0726 125.522 55.0726 125.522 55.0726L125.622 57.6776Z" fill="#D6AAAA"/>
<path d="M113.316 41.547C113.316 42.5489 112.716 43.4506 111.916 43.4506C111.115 43.4506 110.415 42.6491 110.415 41.6472C110.415 40.6453 111.015 39.7436 111.816 39.7436C112.616 39.6434 113.316 40.4449 113.316 41.547Z" fill="#BE9791"/>
<path d="M111.915 41.5467C111.915 41.6467 111.815 41.8467 111.715 41.8467C111.615 41.8467 111.415 41.7467 111.415 41.6467C111.415 41.5467 111.515 41.3467 111.615 41.3467C111.815 41.3467 111.915 41.4467 111.915 41.5467Z" fill="#A37975"/>
<path d="M125.622 55.0726C125.122 55.3732 124.421 55.4734 123.821 55.4734C123.221 55.4734 122.52 55.3732 121.92 55.1728C121.32 54.9724 120.72 54.772 120.219 54.4715L119.419 53.9705C119.219 53.7701 118.919 53.5698 118.719 53.3694L120.42 54.0707C121.02 54.2711 121.52 54.4715 122.12 54.6719C122.721 54.8722 123.221 54.9724 123.821 55.0726C124.421 55.0726 125.022 55.1728 125.622 55.0726Z" fill="#383A4A"/>
<path d="M113.316 41.547C113.316 42.5489 112.716 43.4506 111.916 43.4506C111.115 43.4506 110.415 42.6491 110.415 41.6472C110.415 40.6453 111.015 39.7436 111.816 39.7436C112.616 39.6434 113.316 40.4449 113.316 41.547Z" fill="#E0BEBD"/>
<path d="M112.315 41.0458C112.315 41.0458 111.515 40.9456 111.415 41.5468C111.315 42.2481 112.215 42.1479 112.215 42.1479" stroke="#B57A77" stroke-width="0.4282" stroke-miterlimit="10" stroke-linecap="round"/>
<path d="M121.921 45.9553C122.322 46.5565 122.922 47.0574 123.422 47.358C124.022 47.7588 124.623 47.9591 125.323 47.8589C126.023 47.8589 126.623 47.6586 127.224 47.358C127.524 47.1576 127.824 47.0574 128.124 46.857C128.424 46.6567 128.724 46.4563 129.025 46.2559C128.824 46.5565 128.524 46.7568 128.324 47.0574C128.024 47.2578 127.724 47.5584 127.424 47.7588C126.824 48.1595 126.123 48.4601 125.323 48.4601C124.523 48.4601 123.722 48.1595 123.222 47.6586C122.622 47.2578 122.121 46.6567 121.921 45.9553Z" fill="#373949"/>
<path d="M124.924 37.5393C125.524 38.1405 126.024 38.8418 126.525 39.5431C127.025 40.2445 127.525 40.9458 127.925 41.6471L128.025 41.8475H127.925C127.425 42.3485 126.925 42.8494 126.324 43.3504C126.725 42.7492 127.125 42.1481 127.525 41.5469V41.8475C127.025 41.1462 126.525 40.4448 126.124 39.7435C125.724 39.0422 125.324 38.3408 124.924 37.5393Z" fill="#373949"/>
<path d="M122.32 39.3427C122.521 39.9439 122.621 40.4448 122.621 41.046C122.621 41.3465 122.621 41.6471 122.521 41.9477C122.42 42.2482 122.22 42.649 121.82 42.7492C121.52 42.9496 121.02 42.8494 120.72 42.7492C120.42 42.649 120.119 42.4486 119.919 42.2482C119.519 41.8475 119.119 41.3465 118.819 40.8456C118.819 40.7454 118.819 40.6452 118.919 40.545C119.019 40.545 119.119 40.545 119.119 40.545C119.419 40.9458 119.819 41.4467 120.219 41.7473C120.62 42.0479 121.12 42.3484 121.42 42.1481C121.82 41.9477 121.92 41.4467 121.92 40.9458C121.92 40.4448 121.92 39.8437 121.82 39.3427C121.82 39.2425 121.82 39.1423 121.92 39.1423C122.22 39.2425 122.32 39.3427 122.32 39.3427Z" fill="#373949"/>
<path d="M129.826 37.6395C130.026 38.1405 130.126 38.6414 130.226 39.2426C130.226 39.5431 130.226 39.8437 130.226 40.1443C130.226 40.4448 130.026 40.8456 129.626 41.046C129.226 41.2464 128.826 41.046 128.626 40.8456C128.426 40.6452 128.125 40.4448 128.025 40.2445C127.625 39.8437 127.425 39.3427 127.125 38.8418C127.125 38.7416 127.125 38.6414 127.225 38.6414C127.325 38.6414 127.425 38.6414 127.425 38.7416C127.725 39.1424 128.025 39.6433 128.426 39.9439C128.726 40.3446 129.226 40.6452 129.426 40.545C129.726 40.4448 129.726 39.8437 129.726 39.3427C129.726 38.8418 129.626 38.3408 129.526 37.8399C129.526 37.7397 129.526 37.6395 129.626 37.6395C129.726 37.5393 129.826 37.6395 129.826 37.6395Z" fill="#373949"/>
<path d="M126.323 28.9228C129.125 29.6242 130.525 34.9343 124.122 34.7339C116.718 34.4333 116.718 31.7282 116.418 36.5373C116.118 41.4467 112.816 40.2444 112.816 40.2444C112.816 40.2444 106.113 24.0135 126.323 28.9228Z" fill="#EADB9D"/>
<path d="M513.919 3.00977H503.898C501.556 3.00977 499.604 4.96441 499.604 7.30999V16.0407C499.604 18.5166 501.556 20.4712 503.898 20.4712H511.186V23.3381C515.22 23.3381 518.474 20.0803 518.474 16.0407V7.30999C518.343 4.96441 516.391 3.00977 513.919 3.00977ZM506.631 13.1739C505.72 13.1739 505.07 12.5224 505.07 11.6102C505.07 10.698 505.72 10.0465 506.631 10.0465C507.542 10.0465 508.193 10.698 508.193 11.6102C508.193 12.5224 507.412 13.1739 506.631 13.1739ZM511.316 13.1739C510.405 13.1739 509.755 12.5224 509.755 11.6102C509.755 10.698 510.405 10.0465 511.316 10.0465C512.227 10.0465 512.878 10.698 512.878 11.6102C512.878 12.5224 512.097 13.1739 511.316 13.1739Z" fill="#F9DD4A"/>
<path d="M508.974 42.3633C507.673 47.1848 507.022 51.7456 503.899 55.0033C500.775 58.2611 496.611 60.346 491.926 60.6066C491.536 60.6066 491.145 60.6066 490.625 60.6066C489.974 60.6066 489.454 60.6067 488.803 60.4763C479.563 59.5642 473.057 55.1336 473.057 41.9724C473.057 31.8082 475.92 20.9926 490.625 23.8594C500.515 25.9443 511.577 32.5901 508.974 42.3633Z" fill="#A4E8A0"/>
<path d="M503.638 48.488L503.768 55.0035C500.645 58.2612 496.48 60.3462 491.795 60.6068C491.405 60.6068 491.015 60.6068 490.494 60.6068C489.843 60.6068 489.323 60.6068 488.672 60.4765V56.5672C481.515 54.4823 481.254 45.6212 482.035 39.2361C482.686 33.6327 487.11 29.2022 492.706 28.681C494.398 28.5507 496.22 28.681 497.912 29.5931C502.076 31.5478 503.377 37.8026 503.898 42.4938L503.638 48.488Z" fill="#C18987"/>
<path d="M498.3 55.5249C498.17 55.6552 495.567 58.522 491.794 60.607C491.403 60.607 491.013 60.607 490.493 60.607C489.842 60.607 489.321 60.607 488.671 60.4767V56.5674C488.801 56.6977 493.485 57.2189 498.3 55.5249Z" fill="#AD7777"/>
<path d="M503.118 41.0605C503.118 42.2332 503.768 43.2757 504.679 43.2757C505.59 43.2757 506.371 42.3636 506.371 41.1908C506.371 40.018 505.72 38.9755 504.809 38.9755C503.898 38.8452 503.118 39.7574 503.118 41.0605Z" fill="#BE9791"/>
<path d="M504.679 41.0597C504.679 41.1897 504.809 41.3198 504.939 41.3198C505.069 41.3198 505.199 41.1897 505.199 41.0597C505.199 40.9296 505.069 40.7996 504.939 40.7996C504.809 40.7996 504.679 40.9296 504.679 41.0597Z" fill="#A37975"/>
<path d="M488.802 56.6979C489.453 56.8282 490.234 56.6979 490.884 56.6979C491.535 56.5676 492.185 56.4372 492.836 56.3069C493.487 56.1766 494.137 55.916 494.788 55.6554C495.438 55.3948 496.089 55.1342 496.74 54.8735C496.479 55.1342 496.219 55.3948 495.959 55.5251L495.048 56.0463C494.397 56.4372 493.747 56.6979 493.096 56.8282C492.446 56.9585 491.665 57.2191 490.884 57.0888C490.234 57.2191 489.453 57.0888 488.802 56.6979Z" fill="#383A4A"/>
<path d="M503.118 41.0605C503.118 42.2332 503.768 43.2757 504.679 43.2757C505.59 43.2757 506.371 42.3636 506.371 41.1908C506.371 40.018 505.72 38.9755 504.809 38.9755C503.898 38.8452 503.118 39.7574 503.118 41.0605Z" fill="#C18987"/>
<path d="M504.289 40.409C504.289 40.409 505.199 40.2787 505.329 41.0606C505.459 41.8424 504.419 41.7121 504.419 41.7121" stroke="#B57A77" stroke-width="0.4282" stroke-miterlimit="10" stroke-linecap="round"/>
<path d="M493.225 46.1426C492.835 46.2729 492.575 46.5335 492.184 46.7941L491.143 47.4457C490.493 47.8366 489.712 48.2275 488.931 48.3578C488.15 48.4881 487.24 48.6184 486.459 48.3578C485.678 48.0972 485.028 47.3153 484.897 46.5335C485.418 47.185 485.938 47.576 486.719 47.7063C487.37 47.8366 488.15 47.7063 488.801 47.576C489.452 47.4457 490.232 47.0547 490.883 46.7941C491.664 46.6638 492.314 46.2729 493.225 46.1426Z" fill="#373949"/>
<path d="M490.102 36.3694C489.712 37.2816 489.322 38.1937 488.801 38.9756C488.281 39.7574 487.76 40.6696 487.11 41.4514V41.0605C487.63 41.7121 488.02 42.3636 488.411 43.1455C487.76 42.6242 487.11 42.103 486.589 41.4514L486.459 41.3211L486.589 41.0605C487.11 40.1483 487.63 39.3665 488.151 38.5846C488.671 37.8028 489.322 37.0209 490.102 36.3694Z" fill="#373949"/>
<path d="M492.966 38.5847C492.836 39.2362 492.836 39.8878 492.836 40.5393C492.836 41.1909 492.966 41.8424 493.356 41.9727C493.747 42.2333 494.267 41.8424 494.788 41.4515C495.308 41.0605 495.699 40.5393 496.089 40.0181C496.219 39.8877 496.349 39.8877 496.479 40.0181C496.609 40.1484 496.609 40.2787 496.479 40.2787C496.089 40.9302 495.699 41.4515 495.178 41.9727C494.918 42.2333 494.658 42.4939 494.267 42.6242C493.877 42.7546 493.356 42.8849 492.966 42.6242C492.576 42.3636 492.315 41.9727 492.185 41.5818C492.055 41.1909 492.055 40.7999 492.055 40.5393C492.055 39.8878 492.185 39.1059 492.446 38.5847C492.446 38.4544 492.576 38.4543 492.706 38.4543C492.966 38.4543 492.966 38.4544 492.966 38.5847Z" fill="#373949"/>
<path d="M484.377 36.6301C484.247 37.2816 484.247 37.8028 484.117 38.4544C484.117 38.9756 484.247 39.7575 484.507 39.7575C484.768 39.8878 485.288 39.4969 485.678 39.1059C486.069 38.715 486.459 38.1938 486.849 37.6726C486.98 37.5422 487.11 37.5422 487.24 37.6726C487.37 37.8029 487.37 37.8029 487.37 37.9332C487.11 38.4544 486.719 39.106 486.329 39.6272C486.069 39.8878 485.939 40.1484 485.548 40.2787C485.288 40.409 484.768 40.6697 484.377 40.5394C483.857 40.2787 483.727 39.8878 483.727 39.4969C483.727 39.1059 483.727 38.8453 483.727 38.4544C483.857 37.8028 483.987 37.1513 484.247 36.6301C484.247 36.4998 484.377 36.4998 484.507 36.4998C484.377 36.4998 484.377 36.4998 484.377 36.6301Z" fill="#373949"/>
<path d="M485.418 24.6405C483.987 25.0315 485.158 28.1589 485.158 29.7226C485.028 30.8954 483.857 31.8075 485.418 32.3288C486.199 32.5894 490.363 31.9378 491.665 31.9378C494.658 31.8075 495.569 32.4591 496.87 32.0682C499.213 31.4166 499.343 31.4166 499.473 35.0653C499.603 37.9321 500.644 38.9746 501.685 39.3655C502.726 39.7564 503.637 39.3655 503.637 39.3655C503.637 39.3655 504.158 37.0199 504.808 34.2834C505.199 32.7197 509.363 32.3288 504.028 29.071C502.596 28.2892 501.815 24.6405 499.733 23.8587C497.911 23.2071 495.829 25.1618 492.576 25.5527C491.144 25.9436 486.98 24.2496 485.418 24.6405Z" fill="#373949"/>
<path d="M482.946 50.0519C483.337 50.8338 484.768 52.3975 487.371 52.3975C489.973 52.3975 492.967 51.355 494.528 50.4428C496.22 49.661 496.74 48.8791 497.782 46.5336C498.823 44.188 499.083 43.1455 499.473 42.103C499.994 41.0606 500.905 38.8453 501.295 37.9331C501.686 37.021 502.466 37.021 502.597 37.9331C502.727 38.8453 501.686 41.9727 502.336 43.0152C503.117 44.188 501.946 46.5336 501.555 48.3579C501.295 50.1822 500.644 53.44 499.213 54.6128C497.651 55.9159 495.96 56.0462 494.138 57.2189C492.576 58.2614 491.015 58.913 489.583 58.3917C488.152 58.0008 487.11 59.1736 485.158 56.9583C483.206 54.7431 481.515 54.6128 481.775 52.2672C481.905 50.8338 481.515 44.3183 481.515 45.3608C481.905 46.9245 482.556 49.2701 482.946 50.0519Z" fill="#373949"/>
<path d="M43.2227 346.595C42.1222 348.198 41.2218 349.801 39.6211 350.602C38.0204 351.404 36.2196 351.604 34.4187 351.103C34.2187 351.103 34.1186 351.003 33.9185 351.003C33.7184 350.903 33.5183 350.803 33.2182 350.702C29.9167 349.099 28.0159 346.595 29.8167 341.685C31.1173 337.878 33.7184 334.271 38.7207 337.277C42.2222 339.381 45.5237 343.288 43.2227 346.595Z" fill="#EF886C"/>
<path d="M42.5229 332.568C42.9229 333.77 43.1229 334.972 43.3229 336.075C43.5229 337.277 43.6229 338.479 43.7229 339.681C43.823 340.884 43.8229 342.086 43.8229 343.288C43.8229 344.491 43.723 345.693 43.423 346.895C43.023 345.693 42.8229 344.491 42.6229 343.388C42.4229 342.186 42.3229 340.984 42.2229 339.782C42.1229 338.579 42.1229 337.377 42.2229 336.175C42.1229 334.972 42.2229 333.77 42.5229 332.568Z" fill="#F9DD4A"/>
<path d="M50.0266 340.182C48.8261 340.383 47.6255 340.483 46.425 340.583C45.2245 340.683 44.0239 340.583 42.8234 340.583C41.6229 340.483 40.4223 340.383 39.2218 340.182C38.0212 339.982 36.8207 339.782 35.7202 339.381C36.9208 339.18 38.1213 339.08 39.3218 338.98C40.5224 338.88 41.7229 338.98 42.9234 338.98C44.124 339.08 45.3245 339.18 46.5251 339.381C47.7256 339.581 48.9261 339.782 50.0266 340.182Z" fill="#F9DD4A"/>
<path d="M47.2254 336.375C46.7252 337.177 46.1249 337.878 45.4246 338.479C44.8243 339.18 44.124 339.781 43.3236 340.282C42.6233 340.884 41.823 341.385 41.0226 341.886C40.2222 342.386 39.4219 342.787 38.5215 343.088C39.0217 342.286 39.622 341.585 40.3223 340.984C40.9226 340.282 41.6229 339.681 42.4232 339.18C43.1235 338.579 43.9239 338.078 44.7243 337.577C45.5246 337.177 46.325 336.676 47.2254 336.375Z" fill="#F9DD4A"/>
<path d="M39.4219 335.674C40.2222 336.175 40.9225 336.676 41.6229 337.377C42.3232 337.978 42.9234 338.579 43.5237 339.281C44.124 339.982 44.6242 340.683 45.1244 341.385C45.6246 342.186 46.1249 342.888 46.425 343.789C45.6247 343.288 44.9243 342.787 44.224 342.086C43.5237 341.485 42.9234 340.884 42.3232 340.182C41.7229 339.481 41.2227 338.78 40.7225 338.078C40.2222 337.377 39.722 336.576 39.4219 335.674Z" fill="#F9DD4A"/>
<path d="M225.729 210.424C227.773 210.424 229.43 208.764 229.43 206.717C229.43 204.669 227.773 203.01 225.729 203.01C223.684 203.01 222.027 204.669 222.027 206.717C222.027 208.764 223.684 210.424 225.729 210.424Z" stroke="#EE724A" stroke-width="1.5027" stroke-miterlimit="10"/>
<path d="M570.823 343.89C572.867 343.89 574.524 342.23 574.524 340.183C574.524 338.135 572.867 336.476 570.823 336.476C568.778 336.476 567.121 338.135 567.121 340.183C567.121 342.23 568.778 343.89 570.823 343.89Z" stroke="#EE724A" stroke-width="1.5027" stroke-miterlimit="10"/>
<path d="M336.39 218.25C334.79 205.125 320.181 199.213 311.877 208.631C311.877 208.732 311.777 208.732 311.777 208.832C305.273 216.246 310.176 219.753 302.871 222.458C295.167 225.363 300.57 231.775 294.066 236.685C287.363 241.694 296.068 249.81 293.866 254.919C289.064 265.94 281.559 267.944 292.366 270.349C294.367 270.75 299.97 277.062 301.571 276.761C305.773 276.16 307.274 281.771 312.177 286.78C320.581 295.296 315.479 267.143 325.985 261.933C329.286 260.23 343.094 263.636 346.596 262.334C365.307 255.22 336.49 227.768 336.49 227.768C336.691 224.061 336.691 220.955 336.39 218.25Z" fill="#2A2C2F"/>
<path d="M315.179 253.117C315.179 253.117 326.385 247.005 337.992 247.706L343.095 335.373L334.29 339.381L328.987 341.986L321.082 339.281L315.179 253.117Z" fill="white"/>
<path opacity="0.3" d="M340.793 407.01C391.245 407.01 432.145 397.051 432.145 384.767C432.145 372.483 391.245 362.525 340.793 362.525C290.341 362.525 249.441 372.483 249.441 384.767C249.441 397.051 290.341 407.01 340.793 407.01Z" fill="#D4DBE4"/>
<path d="M334.89 247.807L340.792 336.977" stroke="#2E3748" stroke-width="0.4485" stroke-miterlimit="10" stroke-linecap="round"/>
<path d="M335.29 382.363C335.29 382.363 310.676 383.765 306.574 383.765C302.471 383.765 300.971 383.064 300.971 383.064C296.668 381.661 293.867 377.554 294.067 373.045C294.267 368.436 297.569 364.629 301.971 363.627L307.374 362.425L334.99 363.126L335.29 382.363Z" fill="#EAB4B3"/>
<path d="M300.17 383.866L276.056 389.677C274.355 389.977 271.254 386.972 270.553 385.369L310.076 358.217L319.481 372.244C319.481 372.244 315.679 375.249 305.973 378.155C300.17 379.958 300.17 383.866 300.17 383.866Z" fill="#F7F2F0"/>
<path d="M275.055 389.476L294.166 376.151C297.368 373.947 300.57 371.742 303.771 369.538C306.973 367.334 310.175 365.13 313.477 363.026C310.375 365.33 307.173 367.534 303.972 369.839C300.77 372.043 297.568 374.247 294.366 376.451L275.055 389.476Z" fill="#565D5D"/>
<path d="M317.078 369.538C314.977 370.64 312.676 371.442 310.275 371.742C309.074 371.842 307.874 371.842 306.673 371.642C305.473 371.342 304.372 370.841 303.472 370.039C304.472 370.64 305.573 371.041 306.773 371.342C307.874 371.542 309.074 371.642 310.275 371.542C311.475 371.442 312.576 371.241 313.776 370.841C314.877 370.44 315.977 370.039 317.078 369.538Z" fill="#565D5D"/>
<path d="M286.562 386.872C286.262 386.07 286.462 385.168 286.963 384.467C287.463 383.766 288.163 383.265 288.863 382.764C289.564 382.263 290.064 381.662 290.464 380.96C290.864 380.259 290.864 379.357 290.764 378.556C291.164 379.357 291.165 380.259 290.864 381.06C290.564 381.862 289.864 382.463 289.064 382.964C288.363 383.365 287.663 383.866 287.163 384.567C286.662 385.168 286.362 386.07 286.562 386.872Z" fill="#565D5D"/>
<path d="M341.293 219.853C340.592 213.742 335.69 208.832 329.586 208.231C327.685 208.031 325.784 208.331 323.883 209.233C319.38 211.437 317.88 218.15 317.279 223.26L317.679 229.672L317.079 256.223C320.981 272.754 333.989 272.153 334.089 251.914L333.889 238.689C341.893 236.485 342.193 226.767 341.293 219.853Z" fill="#E09F9B"/>
<path d="M333.987 238.689C333.987 238.689 330.385 239.992 325.183 236.585C325.183 236.585 328.084 242.497 333.987 244.501V238.689Z" fill="#CA7D7A"/>
<path d="M318.38 221.556C318.38 222.859 317.68 223.961 316.679 223.961C315.679 223.961 314.878 222.959 314.778 221.657C314.778 220.354 315.479 219.252 316.479 219.252C317.58 219.252 318.38 220.254 318.38 221.556Z" fill="#BE9791"/>
<path d="M316.678 221.657C316.678 221.857 316.578 221.957 316.378 221.957C316.178 221.957 316.078 221.857 316.078 221.657C316.078 221.456 316.178 221.356 316.378 221.356C316.478 221.356 316.678 221.456 316.678 221.657Z" fill="#A37975"/>
<path d="M333.987 238.689C333.287 239.09 332.486 239.19 331.686 239.19C330.886 239.19 330.085 239.09 329.385 238.89C328.585 238.689 327.884 238.389 327.184 237.988L326.184 237.387C325.883 237.186 325.583 236.886 325.283 236.686L327.384 237.587C328.084 237.888 328.785 238.188 329.585 238.289C330.285 238.489 331.086 238.689 331.786 238.79C332.486 238.89 333.287 238.89 333.987 238.689Z" fill="#383A4A"/>
<path d="M318.38 221.556C318.38 222.859 317.68 223.961 316.679 223.961C315.679 223.961 314.878 222.959 314.778 221.657C314.778 220.354 315.479 219.252 316.479 219.252C317.58 219.252 318.38 220.254 318.38 221.556Z" fill="#E09F9B"/>
<path d="M317.178 220.955C317.178 220.955 316.078 220.755 315.978 221.657C315.878 222.559 316.978 222.358 316.978 222.358" stroke="#B57A77" stroke-width="0.4282" stroke-miterlimit="10" stroke-linecap="round"/>
<path d="M329.285 227.268C329.785 227.969 330.485 228.67 331.186 229.071C331.886 229.572 332.786 229.772 333.587 229.772C334.387 229.772 335.287 229.472 336.088 229.071C336.488 228.871 336.888 228.67 337.188 228.37C337.588 228.069 337.888 227.869 338.289 227.568C337.989 227.869 337.688 228.269 337.388 228.57C336.988 228.871 336.688 229.171 336.288 229.372C335.487 229.873 334.587 230.173 333.587 230.273C332.586 230.273 331.686 229.973 330.885 229.372C330.185 228.871 329.585 228.069 329.285 227.268Z" fill="#373949"/>
<path d="M333.087 216.547C333.788 217.348 334.488 218.25 335.088 219.052C335.689 219.953 336.289 220.855 336.889 221.757L336.989 221.957L336.889 222.057C336.289 222.659 335.689 223.36 334.988 223.961C335.488 223.159 335.989 222.458 336.589 221.757V222.057C335.989 221.156 335.388 220.254 334.788 219.352C334.088 218.45 333.588 217.449 333.087 216.547Z" fill="#373949"/>
<path d="M329.785 218.852C329.985 219.553 330.185 220.254 330.185 221.056C330.185 221.457 330.185 221.857 330.085 222.258C329.985 222.659 329.685 223.06 329.285 223.26C328.884 223.46 328.384 223.46 327.984 223.26C327.584 223.06 327.284 222.859 326.984 222.559C326.383 222.058 325.983 221.457 325.583 220.755C325.483 220.655 325.583 220.555 325.683 220.455C325.783 220.455 325.883 220.455 325.883 220.455C326.283 221.056 326.783 221.557 327.284 222.058C327.784 222.459 328.484 222.859 328.884 222.659C329.385 222.459 329.585 221.657 329.585 221.056C329.585 220.355 329.485 219.653 329.385 218.952C329.385 218.852 329.385 218.751 329.485 218.751C329.685 218.751 329.785 218.852 329.785 218.852Z" fill="#373949"/>
<path d="M339.292 216.748C339.492 217.449 339.692 218.05 339.792 218.751C339.792 219.052 339.792 219.453 339.792 219.853C339.692 220.254 339.592 220.655 339.092 220.855C338.591 221.056 338.191 220.855 337.891 220.655C337.591 220.455 337.291 220.154 337.091 219.954C336.691 219.453 336.29 218.852 335.99 218.15C335.99 218.05 335.99 217.95 336.09 217.95C336.19 217.95 336.29 217.95 336.29 218.05C336.691 218.551 337.091 219.152 337.491 219.653C337.691 219.853 337.891 220.154 338.191 220.254C338.391 220.455 338.691 220.555 338.892 220.455C339.092 220.354 339.192 220.154 339.292 219.853C339.392 219.553 339.392 219.252 339.392 218.952C339.392 218.351 339.292 217.649 339.092 216.948C339.092 216.848 339.092 216.748 339.192 216.748C339.092 216.647 339.192 216.647 339.292 216.748Z" fill="#373949"/>
<path d="M317.28 204.724C317.28 204.724 332.689 215.946 338.092 212.439C338.092 212.439 332.689 200.216 317.28 204.724Z" fill="#2A2C2F"/>
<path d="M325.483 208.632C325.483 208.632 322.281 217.148 317.679 219.553L311.977 215.746C311.877 214.042 319.08 205.526 325.483 208.632Z" fill="#2A2C2F"/>
<path d="M323.783 231.876C326.214 231.876 328.185 229.992 328.185 227.668C328.185 225.344 326.214 223.46 323.783 223.46C321.352 223.46 319.381 225.344 319.381 227.668C319.381 229.992 321.352 231.876 323.783 231.876Z" fill="#EBBDBC"/>
<path d="M378.915 236.585C385.619 239.491 391.422 242.396 396.325 245.201C398.526 250.812 396.525 254.619 392.623 257.525C382.017 250.912 369.31 243.298 369.31 243.298C369.31 243.298 361.005 241.494 358.203 243.598C357.803 243.298 357.503 242.396 357.903 241.795C359.404 239.591 362.306 239.19 362.306 239.19C362.306 239.19 351.599 232.477 352.6 231.776C353.601 231.075 359.504 233.98 359.504 233.98C359.504 233.98 350.999 228.67 352.1 228.269C352.5 228.069 352.1 228.269 360.204 231.676C360.204 231.676 354.201 226.566 355.702 226.666C357.603 226.867 362.606 229.772 362.606 229.772C362.606 229.772 358.003 225.764 359.204 225.865C360.404 226.065 373.912 234.681 373.912 234.681L378.915 236.585Z" fill="#DE9E9A"/>
<path d="M358.203 243.699C357.803 243.298 357.603 242.597 357.803 241.995C358.103 241.495 358.503 240.994 359.003 240.693C359.904 239.891 361.105 239.491 362.305 239.19V239.29C359.504 237.487 356.702 235.784 354.101 233.68C353.801 233.379 353.5 233.179 353.2 232.878C353 232.778 352.9 232.578 352.8 232.477C352.7 232.277 352.5 232.177 352.5 231.876C352.7 231.676 352.9 231.676 353.1 231.676C353.3 231.676 353.5 231.676 353.7 231.776C354.101 231.876 354.501 231.976 354.901 232.077C356.502 232.578 358.003 233.279 359.504 233.98L359.404 234.181C358.103 233.379 356.802 232.477 355.502 231.676C354.901 231.275 354.201 230.774 353.6 230.373C353 229.872 352.4 229.472 351.899 228.77C351.899 228.67 351.699 228.57 351.899 228.37C352.1 228.269 352.1 228.269 352.3 228.269C352.6 228.269 352.7 228.37 352.9 228.47L353.901 228.971L356.002 229.872L360.204 231.676L360.004 231.976C359.104 231.175 358.103 230.373 357.303 229.472C356.902 229.071 356.402 228.57 356.002 228.169C355.802 227.969 355.602 227.668 355.401 227.368C355.401 227.267 355.301 227.267 355.301 227.167C355.301 227.067 355.201 226.967 355.301 226.767C355.401 226.666 355.602 226.666 355.702 226.666H355.902C357.202 226.967 358.303 227.468 359.404 227.969C360.504 228.47 361.605 229.071 362.706 229.772L362.505 230.073C361.805 229.472 361.105 228.77 360.404 228.169C360.104 227.869 359.704 227.468 359.404 227.167C359.204 226.967 359.104 226.767 358.903 226.566C358.903 226.466 358.803 226.466 358.803 226.366V226.266C358.803 226.165 358.803 226.165 358.903 226.065C359.104 225.865 359.204 225.965 359.304 225.965C359.404 225.965 359.404 225.965 359.504 226.065C360.504 226.466 361.205 226.967 362.105 227.368L364.507 228.77C367.708 230.774 370.91 232.778 374.112 234.782L379.115 236.685L378.915 236.786L379.115 236.685C385.018 239.29 390.922 242.196 396.525 245.502C390.822 242.396 385.018 239.491 379.015 236.986L379.215 236.886L379.015 236.986L374.012 235.082C370.81 233.079 367.608 231.075 364.407 229.071C362.806 228.169 361.205 227.067 359.504 226.366H359.404C359.404 226.366 359.304 226.366 359.404 226.366C359.404 226.266 359.404 226.266 359.404 226.266C359.404 226.266 359.404 226.366 359.504 226.366C359.604 226.566 359.804 226.767 359.904 226.867C360.204 227.167 360.504 227.568 360.905 227.869C361.605 228.57 362.305 229.171 363.006 229.772L364.507 231.075L362.806 230.073C361.705 229.472 360.704 228.871 359.604 228.269C358.503 227.768 357.403 227.167 356.202 226.967C355.802 226.967 355.902 226.767 356.002 227.167C356.202 227.368 356.402 227.668 356.502 227.869C356.902 228.37 357.303 228.77 357.803 229.171C358.703 230.073 359.604 230.874 360.504 231.676L361.305 232.377L360.404 231.976L356.202 230.173L354.101 229.171L353.1 228.67C352.9 228.57 352.7 228.47 352.6 228.47H352.4C352.4 228.47 352.4 228.57 352.5 228.57C352.9 229.171 353.6 229.572 354.201 230.073C354.801 230.574 355.401 230.975 356.102 231.375C357.403 232.277 358.603 233.079 359.904 233.88L359.804 234.08C358.303 233.379 356.802 232.678 355.301 232.177C354.901 232.077 354.501 231.976 354.101 231.876C353.901 231.876 353.7 231.776 353.5 231.776C353.4 231.776 353.3 231.776 353.2 231.776C353.1 231.776 353 231.876 353 231.876C353 231.976 353.1 232.177 353.2 232.277C353.3 232.477 353.5 232.578 353.6 232.678C353.901 232.978 354.201 233.179 354.501 233.479C357.102 235.483 359.904 237.287 362.606 239.09L362.706 239.19H362.606C361.405 239.391 360.304 239.891 359.304 240.593C358.803 240.994 358.403 241.394 358.103 241.895C357.603 242.597 357.803 243.298 358.203 243.699Z" fill="#2E3748"/>
<path d="M340.793 336.976L334.89 247.706C337.991 247.606 341.193 246.804 344.195 247.806C368.008 256.222 375.012 247.706 375.012 247.706L378.915 236.585C378.915 236.585 413.334 248.407 409.632 266.843C405.33 288.584 374.212 302.711 363.806 309.824L365.107 336.676L340.793 336.976Z" fill="#3E4A6C"/>
<path d="M297.268 263.937C304.172 260.43 310.776 251.614 317.079 250.211V250.311L325.284 345.292L299.069 337.477L300.47 319.042C298.669 322.549 284.461 360.12 284.461 360.12L270.453 355.011C270.453 355.011 268.152 278.765 297.268 263.937Z" fill="#3E4A6C"/>
<path d="M317.08 250.211L325.184 344.09" stroke="#2E3748" stroke-width="0.4485" stroke-miterlimit="10" stroke-linecap="round"/>
<path d="M322.282 345.393C322.282 345.393 298.969 359.419 298.069 362.826C292.365 383.465 311.776 363.327 303.071 379.658C306.273 383.164 326.385 392.983 349.798 387.974C377.914 381.962 396.324 370.14 413.434 352.807C435.947 329.963 413.334 323.651 397.225 323.15C364.406 322.148 322.282 345.393 322.282 345.393Z" fill="#BCC8D3"/>
<path d="M349.698 387.973C358.003 386.17 366.108 383.665 373.912 380.359C377.814 378.656 381.616 376.752 385.318 374.748C389.021 372.644 392.523 370.34 395.924 367.835C402.728 362.825 409.032 357.115 414.935 350.903C415.636 350.101 416.336 349.3 417.036 348.498C417.637 347.697 418.337 346.895 418.938 345.993C420.138 344.29 421.239 342.387 421.939 340.383C422.64 338.379 422.94 336.275 422.44 334.271C421.939 332.267 420.639 330.464 418.938 329.161C417.337 327.859 415.336 326.957 413.434 326.156C411.433 325.454 409.432 324.853 407.331 324.452C405.23 324.052 403.129 323.751 401.027 323.551C398.926 323.35 396.825 323.25 394.724 323.35C386.219 323.45 377.814 324.853 369.61 326.957C361.405 329.061 353.3 331.766 345.496 334.872C337.591 337.978 329.887 341.485 322.383 345.392C329.887 341.385 337.591 337.778 345.396 334.572C353.3 331.365 361.305 328.66 369.51 326.556C377.714 324.452 386.219 323.05 394.724 322.949C396.825 322.849 399.026 322.949 401.127 323.15C403.229 323.35 405.33 323.651 407.431 324.052C409.532 324.452 411.633 325.053 413.534 325.755C415.536 326.556 417.437 327.458 419.138 328.761C420.839 330.063 422.239 331.866 422.74 333.97C423.34 336.074 422.94 338.279 422.239 340.282C421.539 342.286 420.438 344.19 419.238 345.893C418.637 346.795 417.937 347.596 417.337 348.498C416.636 349.3 415.936 350.101 415.235 350.903C409.432 357.115 403.029 362.725 396.225 367.835C392.823 370.34 389.221 372.644 385.519 374.748C381.816 376.852 378.014 378.756 374.112 380.359C366.208 383.765 358.003 386.17 349.698 387.973Z" fill="#2E3748"/>
<path d="M301.771 313.131C301.771 313.131 301.171 318.14 300.371 319.042" stroke="#2E3748" stroke-width="0.4485" stroke-miterlimit="10" stroke-linecap="round"/>
<path d="M340.793 337.077L334.89 247.807C337.991 247.707 341.193 246.905 344.195 247.907C368.008 256.323 375.012 247.807 375.012 247.807L378.915 236.686C378.915 236.686 413.334 248.508 409.632 266.943C405.33 288.685 374.212 302.812 363.806 309.925L366.408 342.687L340.793 337.077Z" fill="#3E4A6C"/>
<path d="M357.302 307.52C357.302 307.52 359.403 308.823 363.805 309.925" stroke="#2E3748" stroke-width="0.4485" stroke-miterlimit="10" stroke-linecap="round"/>
<path d="M362.805 370.24C362.805 370.24 383.117 377.153 384.417 375.65L387.919 378.255C390.721 380.359 391.922 384.066 390.921 387.272C389.82 390.578 386.719 392.482 383.217 392.081L379.114 391.58L359.103 384.166L362.805 370.24Z" fill="#EAB4B3"/>
<path d="M397.323 375.249L389.319 399.495L385.217 398.193C384.217 397.892 383.617 396.69 383.917 395.688L390.62 375.249C390.92 374.247 392.121 373.646 393.121 373.947L397.323 375.249Z" fill="#F7F2F0"/>
<path d="M381.716 378.656C381.716 378.656 381.116 382.864 379.115 387.673C377.114 392.482 380.516 394.586 385.018 396.089L391.921 375.149C387.419 373.646 383.217 374.147 381.716 378.656Z" fill="#F7F2F0"/>
<path d="M384.317 394.887L387.219 385.469C387.719 383.866 388.219 382.363 388.719 380.76C389.22 379.257 389.82 377.654 390.42 376.151C390.02 377.754 389.52 379.357 389.019 380.86C388.519 382.463 388.019 383.966 387.419 385.469L384.317 394.887Z" fill="#565D5D"/>
<path d="M383.115 384.968C383.115 384.968 378.012 387.873 376.912 385.268C375.111 381.261 380.914 383.565 382.614 384.266C382.715 384.266 382.715 384.166 382.715 384.166C381.614 383.264 378.613 380.459 380.113 379.157C381.914 377.654 383.815 383.264 383.815 383.264" stroke="#565D5D" stroke-width="0.39" stroke-miterlimit="10"/>
<path d="M266.15 325.554C293.666 311.027 375.712 370.54 375.712 370.54L367.407 390.578C367.407 390.578 347.196 392.081 313.377 384.266C288.263 378.455 279.057 370.64 269.152 364.429C259.346 358.317 244.738 336.876 266.15 325.554Z" fill="#D4DBE4"/>
<path d="M367.407 390.679C364.206 390.879 361.104 390.779 357.902 390.679C354.7 390.579 351.598 390.378 348.397 390.078C342.093 389.577 335.789 388.675 329.586 387.673C323.382 386.671 317.179 385.369 310.975 383.866C304.872 382.363 298.769 380.56 292.865 378.155C286.962 375.75 281.359 372.745 276.056 369.238L268.151 364.028C265.55 362.225 263.248 359.92 261.247 357.415C259.346 354.911 257.645 352.206 256.444 349.2C255.244 346.294 254.643 342.988 254.844 339.882C254.944 338.279 255.344 336.776 255.944 335.273C256.545 333.77 257.445 332.468 258.446 331.165C260.547 328.761 263.148 326.857 265.95 325.455C263.148 326.957 260.547 328.861 258.546 331.266C257.545 332.468 256.745 333.871 256.144 335.273C255.544 336.776 255.244 338.279 255.044 339.882C254.844 342.988 255.444 346.194 256.645 349.1C257.845 352.005 259.546 354.71 261.447 357.215C263.448 359.62 265.65 361.924 268.251 363.728L276.156 368.937C281.459 372.444 286.962 375.45 292.865 377.854C298.668 380.259 304.772 382.062 310.875 383.665C316.979 385.168 323.182 386.471 329.486 387.473C335.689 388.575 341.993 389.376 348.297 389.978C351.398 390.278 354.6 390.478 357.802 390.579C361.104 390.779 364.206 390.779 367.407 390.679Z" fill="#2E3748"/>
<path d="M271.534 347.365C272.48 340.129 273.685 333.802 274.983 328.233C279.682 324.585 283.927 325.395 287.847 328.406C284.368 340.437 280.634 354.793 280.634 354.793C280.634 354.793 281.195 363.298 284.033 365.37C283.798 365.824 283.026 366.331 282.45 366.164C279.882 365.317 278.668 362.672 278.668 362.672C278.668 362.672 275.162 374.799 274.216 374.109C273.27 373.418 274.434 366.871 274.434 366.871C274.434 366.871 271.651 376.496 270.981 375.572C270.68 375.173 270.981 375.572 272.056 366.81C272.056 366.81 268.732 373.984 268.421 372.538C268.029 370.652 269.547 365.042 269.547 365.042C269.547 365.042 266.916 370.539 266.742 369.341C266.567 368.143 271.212 352.799 271.212 352.799L271.534 347.365Z" fill="#DE9E9A"/>
<path d="M300.47 318.942C298.669 322.449 283.961 360.02 283.961 360.02L269.953 354.911C269.953 354.911 266.551 290.989 295.668 276.161" fill="#3E4A6C"/>
<path d="M406.154 0.00976562C406.754 2.71492 407.155 5.31988 407.455 8.02503C407.755 10.7302 407.955 13.4353 408.155 16.0403C408.255 18.7455 408.455 21.4506 408.455 24.1558C408.455 26.8609 408.455 29.5661 408.155 32.2712C407.555 29.5661 407.155 26.9611 406.854 24.256C406.554 21.5508 406.354 18.8456 406.154 16.2407C406.054 13.5355 405.854 10.8304 405.854 8.12522C405.854 5.42007 405.854 2.71492 406.154 0.00976562Z" fill="#EE724A"/>
<path d="M423.265 17.0421C420.563 17.3427 417.862 17.3427 415.16 17.3427C412.459 17.3427 409.757 17.2425 407.055 17.1423C404.354 16.9419 401.652 16.7415 399.051 16.4409C396.349 16.1404 393.748 15.7396 391.046 15.1385C393.748 14.8379 396.449 14.8379 399.151 14.8379C401.852 14.8379 404.554 14.9381 407.256 15.0383C409.957 15.2387 412.659 15.439 415.26 15.7396C417.862 16.1404 420.563 16.4409 423.265 17.0421Z" fill="#EE724A"/>
<path d="M416.86 8.52588C415.459 10.1289 414.059 11.5316 412.458 12.9343C410.957 14.3369 409.356 15.6394 407.755 16.9419C406.154 18.2444 404.453 19.4467 402.752 20.5488C401.051 21.6509 399.25 22.753 397.349 23.7549C398.75 22.1518 400.151 20.7492 401.752 19.3465C403.252 17.9438 404.853 16.6413 406.454 15.3389C408.055 14.0364 409.756 12.8341 411.457 11.732C413.258 10.5297 414.959 9.4276 416.86 8.52588Z" fill="#EE724A"/>
<path d="M399.25 6.92285C400.851 8.22533 402.351 9.52781 403.752 11.0307C405.153 12.4333 406.553 13.9362 407.854 15.4391C409.154 16.9419 410.455 18.545 411.656 20.148C412.856 21.7511 413.957 23.4543 414.957 25.2578C413.356 23.9553 411.856 22.6528 410.455 21.15C409.054 19.7473 407.654 18.2444 406.353 16.7416C405.053 15.2387 403.752 13.6356 402.552 12.0326C401.351 10.4295 400.25 8.72629 399.25 6.92285Z" fill="#EE724A"/>
<path d="M11.9067 129.581L165.694 129.481C172.298 129.481 177.601 134.791 177.601 141.404L177.701 234.882C177.701 241.494 172.398 246.804 165.794 246.804L12.0068 246.905C5.40306 246.905 0.100057 241.594 0.100057 234.982L0 141.404C0 134.891 5.30301 129.581 11.9067 129.581Z" fill="white"/>
<path d="M0 140.702C0 134.691 4.90278 129.781 10.9062 129.781L166.594 129.681C172.598 129.681 177.501 134.591 177.501 140.602V166.952H0V140.702Z" fill="#A4E8A0"/>
<path opacity="0.2" d="M13.106 188.794C13.106 184.386 16.6079 180.879 21.0104 180.879L156.687 180.779C161.09 180.779 164.592 184.285 164.592 188.694V197.01C164.592 201.418 161.09 204.925 156.687 204.925L21.0104 205.025C16.6079 205.025 13.106 201.518 13.106 197.11V188.794Z" fill="#CAD9E8"/>
<path opacity="0.2" d="M13.106 217.649C13.106 213.241 16.6079 209.734 21.0104 209.734L156.687 209.634C161.09 209.634 164.592 213.14 164.592 217.549V225.865C164.592 230.273 161.09 233.78 156.687 233.78L21.0104 233.88C16.6079 233.88 13.106 230.373 13.106 225.965V217.649Z" fill="#CAD9E8"/>
<path d="M28.9167 154.228C27.3158 151.723 27.616 148.617 28.9167 146.213C30.2174 143.808 32.7189 142.205 35.2203 141.404C37.8217 140.702 40.4232 140.602 43.0247 141.003C45.6262 141.404 48.1276 142.005 50.4289 143.007C52.8303 144.009 55.0315 145.411 56.9326 147.315C57.8331 148.317 58.6335 149.419 59.0338 150.822C59.2339 151.523 59.2339 152.425 58.5335 153.226C58.2333 153.627 57.733 153.727 57.3328 153.827C56.9326 153.927 56.5323 153.927 56.2322 153.827C54.8314 153.627 53.6307 152.926 52.5301 152.224C51.4295 151.523 50.4289 150.621 49.6284 149.619C48.828 148.617 48.0275 147.515 47.6273 146.213C47.2271 144.91 47.027 143.407 47.6273 142.105C48.2276 140.702 49.4283 139.901 50.7291 139.4C52.0298 138.899 53.3305 138.698 54.6313 138.598C57.2327 138.498 59.7342 138.698 62.2356 139.099C67.2384 139.901 72.1412 141.404 76.8439 143.207C79.2452 144.109 81.5465 145.111 83.7478 146.413C84.8484 147.014 85.949 147.716 86.9496 148.517C87.4499 148.918 87.9502 149.319 88.4504 149.82C88.6506 150.12 88.8507 150.321 89.0508 150.721C89.2509 151.022 89.3509 151.523 89.1508 151.924C88.9507 152.324 88.6506 152.625 88.3504 152.825C88.0502 153.026 87.65 153.126 87.3498 153.226C86.6494 153.427 85.949 153.326 85.2486 153.126C83.9479 152.725 82.8473 152.024 81.8467 151.122C80.8461 150.22 80.0457 149.219 79.3453 148.116C78.7449 147.014 78.2447 145.712 78.2447 144.309C78.2447 143.608 78.4448 142.906 78.7449 142.305C79.0451 141.704 79.6454 141.203 80.1457 140.802C80.7461 140.402 81.3464 140.201 81.9468 140.001C82.5471 139.801 83.1474 139.6 83.8478 139.5C86.3493 138.899 88.9507 138.899 91.4521 138.999C96.555 139.4 101.458 140.702 106.06 142.906C107.161 143.508 108.362 144.109 109.362 144.81C110.363 145.612 111.363 146.413 112.064 147.615C112.364 148.217 112.464 149.018 112.164 149.619C111.864 150.22 111.263 150.721 110.663 151.022C109.462 151.623 107.961 151.523 106.761 151.122C105.56 150.621 104.46 149.92 103.559 148.918C102.658 148.016 101.958 146.914 101.558 145.612C101.158 144.409 101.358 142.906 102.158 141.804C102.959 140.702 104.159 140.101 105.36 139.7C107.861 138.899 110.363 138.899 112.864 138.999C115.366 139.099 117.867 139.4 120.369 139.901C125.371 140.802 130.274 141.704 135.177 142.906C140.08 144.109 144.982 145.411 149.785 146.914C154.588 148.517 159.291 150.22 163.893 152.425C159.391 150.22 154.588 148.517 149.785 147.014C144.982 145.511 140.08 144.209 135.177 143.107C130.274 142.005 125.271 141.103 120.369 140.201C117.867 139.801 115.366 139.5 112.864 139.4C110.363 139.3 107.861 139.4 105.46 140.101C104.259 140.502 103.159 141.103 102.458 142.005C101.758 143.007 101.558 144.309 101.958 145.411C102.258 146.614 102.959 147.615 103.859 148.517C104.76 149.419 105.76 150.12 106.861 150.521C107.961 150.922 109.262 151.022 110.363 150.421C110.863 150.12 111.363 149.719 111.564 149.219C111.864 148.718 111.764 148.116 111.463 147.615C110.963 146.513 109.963 145.712 108.962 145.01C107.961 144.309 106.861 143.708 105.76 143.107C101.258 141.003 96.3549 139.7 91.3521 139.3C88.8507 139.099 86.3493 139.199 83.9479 139.801C83.3475 139.901 82.7472 140.101 82.1469 140.302C81.5465 140.502 80.9462 140.702 80.546 141.003C79.5454 141.604 78.9451 142.706 78.9451 143.808C78.9451 145.01 79.3453 146.113 79.9456 147.215C80.546 148.217 81.3464 149.219 82.2469 150.02C83.1474 150.822 84.2481 151.523 85.3487 151.823C85.949 151.924 86.4493 152.024 87.0496 151.924C87.5499 151.823 88.1503 151.523 88.2503 151.222C88.3504 150.922 88.0502 150.421 87.75 149.92C87.3498 149.519 86.8495 149.118 86.4493 148.718C85.4487 148.016 84.3481 147.315 83.3475 146.714C81.1463 145.511 78.845 144.51 76.5437 143.608C71.841 141.804 67.0383 140.402 62.0355 139.7C59.534 139.3 57.0326 139.099 54.6313 139.199C53.4306 139.3 52.2299 139.5 51.1293 139.901C50.0287 140.302 49.1282 141.003 48.6279 142.005C48.2276 143.007 48.3277 144.209 48.7279 145.311C49.1282 146.413 49.7285 147.415 50.5289 148.317C51.3294 149.219 52.2299 150.02 53.2305 150.721C54.231 151.323 55.3317 151.924 56.4323 152.124C56.9326 152.224 57.4329 152.124 57.633 151.924C57.8331 151.723 57.9331 151.222 57.733 150.721C57.4329 149.719 56.7325 148.718 55.932 147.816C54.231 146.113 52.1299 144.81 49.8285 143.808C47.5272 142.906 45.1259 142.205 42.7245 141.905C40.3232 141.604 37.8217 141.604 35.5204 142.305C33.2191 143.007 31.218 144.409 30.1174 146.413C29.0168 148.417 28.8166 151.022 30.1174 152.825C30.3175 153.126 30.2174 153.627 29.9173 153.827C29.6171 154.729 29.1168 154.629 28.9167 154.228Z" fill="#F3FCF2"/>
<path d="M26.1149 197.31C25.4145 196.609 25.0143 195.507 25.1143 194.505C25.2144 193.503 25.7147 192.601 26.315 192C27.6158 190.697 29.2167 189.996 30.9176 189.695C34.2195 188.994 37.5214 189.395 40.7232 190.096C42.3241 190.497 43.925 190.998 45.4258 191.699C46.1262 192.1 46.9267 192.501 47.527 193.102C47.8272 193.403 48.1274 193.703 48.4276 194.104C48.6277 194.505 48.9278 195.006 48.8278 195.707C48.7277 196.108 48.4275 196.308 48.1274 196.508C47.8272 196.609 47.6271 196.709 47.3269 196.709C46.8266 196.709 46.4264 196.709 45.9261 196.609C45.0256 196.408 44.3252 196.108 43.5248 195.707C42.7243 195.306 42.0239 194.905 41.4236 194.304C40.8232 193.703 40.2229 193.102 39.8227 192.2C39.6226 191.799 39.5225 191.299 39.6226 190.697C39.7226 190.196 40.0228 189.695 40.323 189.395C41.0234 188.694 41.9239 188.393 42.7243 188.193C44.3252 187.792 46.0262 187.792 47.6271 187.792C50.8289 187.892 54.0307 188.393 57.2325 188.994C60.3343 189.695 63.5361 190.497 66.5378 191.499C68.0387 192.1 69.5395 192.601 70.9403 193.603C71.1404 193.703 71.3405 193.904 71.4406 194.204C71.5407 194.304 71.5407 194.605 71.5407 194.805C71.4406 195.006 71.3405 195.106 71.2405 195.206C70.7402 195.507 70.34 195.507 69.9397 195.607C69.1393 195.707 68.2388 195.707 67.4383 195.607C65.8374 195.306 64.1365 194.705 63.0358 193.302C62.7357 192.902 62.5355 192.501 62.5355 192.1C62.4355 191.599 62.5355 191.198 62.6356 190.697C63.0358 189.896 63.7362 189.295 64.4366 188.894C65.9375 188.092 67.4383 187.692 69.0392 187.391C70.6401 187.091 72.2411 186.89 73.842 186.69C80.2456 185.888 86.6492 185.688 93.0528 186.289C99.4565 186.79 105.76 187.992 111.964 189.195C118.267 190.497 124.471 191.799 130.674 193.102C124.371 191.9 118.167 190.597 111.864 189.395C105.56 188.193 99.2564 187.091 92.9528 186.69C86.5492 186.189 80.2456 186.489 73.842 187.291C70.7402 187.792 67.4383 187.992 64.7368 189.495C64.1365 189.896 63.5361 190.397 63.2359 190.998C62.9358 191.599 63.1359 192.3 63.5361 192.902C64.4366 194.104 65.9375 194.705 67.4383 194.905C68.2388 195.006 68.9392 195.006 69.7396 194.905C70.1399 194.805 70.5401 194.805 70.7402 194.605C70.8403 194.505 70.7402 194.705 70.7402 194.605C70.7402 194.505 70.5401 194.404 70.44 194.304C69.2394 193.503 67.6384 192.902 66.2376 192.401C63.2359 191.399 60.1342 190.597 57.0324 189.996C53.9307 189.395 50.7289 188.894 47.6271 188.894C46.0262 188.894 44.5253 188.894 43.0245 189.295C42.3241 189.495 41.6237 189.796 41.1234 190.196C40.7232 190.597 40.6231 191.198 40.9233 191.799C41.5236 193.002 42.8244 194.004 44.1251 194.705C44.8255 195.006 45.5259 195.306 46.2263 195.406C46.6265 195.507 46.9267 195.507 47.2269 195.507C47.427 195.507 47.527 195.406 47.6271 195.406C47.7272 195.406 47.7272 195.306 47.7272 195.306C47.7272 195.206 47.7272 195.006 47.527 194.705C47.3269 194.404 47.1268 194.204 46.8266 193.903C46.2263 193.403 45.626 193.002 44.9256 192.701C43.5248 192 42.0239 191.499 40.5231 191.198C37.5214 190.497 34.3196 190.297 31.3179 190.898C29.817 191.198 28.4162 191.799 27.5157 192.902C27.1155 193.403 26.7152 194.004 26.7152 194.605C26.6152 195.206 26.8153 195.807 27.3156 196.208C27.6158 196.508 27.6158 197.009 27.3156 197.31C26.9154 197.711 26.4151 197.611 26.1149 197.31Z" fill="#ADC9EE"/>
<path d="M25.3142 225.464C24.8139 224.863 24.6138 224.061 24.6138 223.26C24.6138 222.458 24.9139 221.757 25.3142 221.256C26.1146 220.054 27.4154 219.452 28.7161 219.152C30.0168 218.851 31.2175 218.751 32.5182 218.851C33.7189 218.951 35.0197 219.152 36.1203 219.452C37.321 219.753 38.5217 220.254 39.6223 220.855C40.1226 221.156 40.7229 221.556 41.2232 221.957C41.7235 222.458 42.2238 222.959 42.3238 223.761C42.3238 223.961 42.3238 224.262 42.2238 224.562C42.1237 224.863 41.8235 225.063 41.6234 225.163C41.1231 225.364 40.7229 225.364 40.4227 225.263C39.7223 225.163 39.122 224.863 38.5217 224.562C37.421 223.961 36.3204 223.159 35.7201 221.957C35.4199 221.356 35.1197 220.555 35.4199 219.753C35.7201 218.951 36.3204 218.451 37.0208 218.25C38.3215 217.749 39.5222 217.749 40.7229 217.749C43.1243 217.849 45.5256 218.25 47.8269 218.851C50.1282 219.452 52.4295 220.154 54.7308 221.055C55.8315 221.556 56.9321 221.957 58.0327 222.659C58.3329 222.859 58.533 223.059 58.8332 223.46L58.9332 223.66C58.9332 223.761 58.9332 223.861 58.9332 223.961C58.9332 224.161 58.8332 224.262 58.7331 224.362C58.533 224.562 58.3329 224.562 58.1328 224.662C57.5324 224.863 56.832 224.863 56.2317 224.863C54.931 224.763 53.7303 224.161 52.8298 223.26C52.4295 222.759 52.0293 222.158 52.0293 221.456C52.0293 220.755 52.4295 220.054 52.8298 219.653C53.8303 218.751 55.031 218.35 56.1316 218.05C57.3323 217.749 58.533 217.649 59.7337 217.449C64.4363 216.847 69.2391 216.647 74.0418 217.248C78.8445 217.749 83.4471 218.751 88.0497 219.853C92.6523 220.955 97.255 222.258 101.858 223.36C97.255 222.258 92.6523 221.055 87.9497 220.054C83.3471 218.951 78.6444 218.05 73.9417 217.649C69.2391 217.248 64.4363 217.348 59.7337 218.05C58.533 218.25 57.3323 218.35 56.2317 218.651C55.1311 218.951 54.0304 219.352 53.23 220.054C52.8298 220.454 52.6296 220.955 52.6296 221.356C52.6296 221.857 52.8298 222.358 53.23 222.759C53.9304 223.56 55.031 224.061 56.1316 224.161C56.6319 224.161 57.2323 224.161 57.7325 223.961C57.8326 223.961 57.9327 223.861 57.9327 223.861C57.8326 223.761 57.6325 223.56 57.4324 223.36C56.5319 222.759 55.4312 222.258 54.3306 221.857C52.1294 221.055 49.8281 220.354 47.5268 219.853C45.2255 219.352 42.9241 218.951 40.5228 218.951C39.4222 218.951 38.2215 219.052 37.2209 219.452C36.2203 219.853 35.9202 220.655 36.5205 221.556C37.0208 222.458 37.9213 223.159 38.9219 223.66C39.4222 223.861 39.9224 224.161 40.4227 224.161C40.6228 224.161 40.923 224.161 40.923 224.161C40.923 224.161 40.923 224.161 40.923 224.061C40.823 223.761 40.5228 223.26 40.1226 222.959C39.7223 222.558 39.222 222.258 38.8218 222.057C37.8213 221.556 36.7206 221.156 35.62 220.855C34.5194 220.555 33.3187 220.354 32.2181 220.354C31.1175 220.254 29.9168 220.354 28.9162 220.655C27.9156 220.955 26.9151 221.456 26.4148 222.258C25.8144 223.059 25.8144 224.061 26.3147 224.662C26.6149 224.963 26.5148 225.464 26.2147 225.764C26.1146 225.865 25.6143 225.764 25.3142 225.464Z" fill="#ADC9EE"/>
<path d="M240.934 45.11L394.721 45.0098C401.325 45.0098 406.628 50.3199 406.628 56.9325L406.728 124.661C406.728 131.274 401.425 136.584 394.821 136.584L241.034 136.684C234.43 136.684 229.127 131.374 229.127 124.762L229.027 57.0327C229.127 50.4201 234.43 45.11 240.934 45.11Z" fill="white"/>
<path d="M229.127 56.2307C229.127 50.2193 234.03 45.3099 240.034 45.3099L395.722 45.2097C401.725 45.2097 406.628 50.1191 406.628 56.1305V82.4807L229.127 82.5809V56.2307Z" fill="#A4E8A0"/>
<path opacity="0.2" d="M242.134 104.323C242.134 99.9145 245.636 96.4078 250.039 96.4078L385.716 96.3076C390.118 96.3076 393.62 99.8143 393.62 104.223V112.539C393.62 116.947 390.118 120.454 385.716 120.454L250.039 120.554C245.636 120.554 242.134 117.047 242.134 112.639V104.323Z" fill="#CAD9E8"/>
<path d="M258.044 69.7569C256.443 67.2521 256.743 64.1462 258.044 61.7416C259.344 59.337 261.846 57.734 264.347 56.9324C266.949 56.2311 269.55 56.1309 272.152 56.5317C274.753 56.9324 277.255 57.5336 279.556 58.5355C281.957 59.5374 284.158 60.9401 286.06 62.8437C286.96 63.8456 287.761 64.9477 288.161 66.3504C288.361 67.0517 288.361 67.9534 287.66 68.755C287.36 69.1557 286.86 69.2559 286.46 69.3561C286.06 69.4563 285.659 69.4563 285.359 69.3561C283.958 69.1557 282.758 68.4544 281.657 67.753C280.556 67.0517 279.556 66.15 278.755 65.1481C277.955 64.1462 277.154 63.0441 276.754 61.7416C276.354 60.4391 276.154 58.9363 276.754 57.6338C277.355 56.2311 278.555 55.4296 279.856 54.9286C281.157 54.4277 282.457 54.2273 283.758 54.1271C286.36 54.0269 288.861 54.2273 291.363 54.628C296.365 55.4296 301.268 56.9324 305.971 58.7359C308.372 59.6376 310.673 60.6395 312.875 61.942C313.975 62.5431 315.076 63.2445 316.077 64.046C316.577 64.4467 317.077 64.8475 317.577 65.3485C317.778 65.649 317.978 65.8494 318.178 66.2502C318.378 66.5508 318.478 67.0517 318.278 67.4525C318.078 67.8532 317.778 68.1538 317.477 68.3542C317.177 68.5546 316.777 68.6548 316.477 68.755C315.776 68.9553 315.076 68.8551 314.376 68.6548C313.075 68.254 311.974 67.5527 310.974 66.6509C309.973 65.7492 309.173 64.7473 308.472 63.6452C307.872 62.5431 307.372 61.2406 307.372 59.838C307.372 59.1366 307.572 58.4353 307.872 57.8342C308.172 57.233 308.772 56.7321 309.273 56.3313C309.873 55.9305 310.473 55.7301 311.074 55.5298C311.674 55.3294 312.274 55.129 312.975 55.0288C315.476 54.4277 318.078 54.4277 320.579 54.5279C325.682 54.9286 330.585 56.2311 335.187 58.4353C336.288 59.0364 337.489 59.6376 338.489 60.3389C339.49 61.1405 340.49 61.942 341.191 63.1443C341.491 63.7454 341.591 64.5469 341.291 65.1481C340.991 65.7492 340.39 66.2502 339.79 66.5508C338.589 67.1519 337.088 67.0517 335.888 66.6509C334.687 66.15 333.586 65.4487 332.686 64.4467C331.785 63.545 331.085 62.4429 330.685 61.1405C330.285 59.9382 330.485 58.4353 331.285 57.3332C332.086 56.2311 333.286 55.63 334.487 55.2292C336.988 54.4277 339.49 54.4277 341.991 54.5279C344.493 54.628 346.994 54.9286 349.495 55.4296C354.498 56.3313 359.401 57.233 364.304 58.4353C369.207 59.6376 374.109 60.9401 378.912 62.4429C383.715 64.046 388.418 65.7492 393.02 67.9534C388.518 65.7492 383.715 64.046 378.912 62.5431C374.109 61.0403 369.207 59.7378 364.304 58.6357C359.401 57.5336 354.398 56.6319 349.495 55.7301C346.994 55.3294 344.493 55.0288 341.991 54.9286C339.49 54.8284 336.988 54.9286 334.587 55.63C333.386 56.0307 332.286 56.6319 331.585 57.5336C330.885 58.5355 330.685 59.838 331.085 60.9401C331.385 62.1424 332.086 63.1443 332.986 64.046C333.887 64.9477 334.887 65.649 335.988 66.0498C337.088 66.4506 338.389 66.5508 339.49 65.9496C339.99 65.649 340.49 65.2483 340.691 64.7473C340.991 64.2464 340.891 63.6452 340.59 63.1443C340.09 62.0422 339.09 61.2406 338.089 60.5393C337.088 59.838 335.988 59.2368 334.887 58.6357C330.385 56.5317 325.482 55.2292 320.479 54.8284C317.978 54.628 315.476 54.7282 313.075 55.3294C312.475 55.4296 311.874 55.63 311.274 55.8303C310.673 56.0307 310.073 56.2311 309.673 56.5317C308.672 57.1328 308.072 58.2349 308.072 59.337C308.072 60.5393 308.472 61.6414 309.073 62.7435C309.673 63.7454 310.473 64.7473 311.374 65.5488C312.274 66.3504 313.375 67.0517 314.476 67.3523C315.076 67.4525 315.576 67.5527 316.177 67.4525C316.677 67.3523 317.277 67.0517 317.377 66.7511C317.477 66.4506 317.177 65.9496 316.877 65.4487C316.477 65.0479 315.976 64.6471 315.576 64.2464C314.576 63.545 313.475 62.8437 312.475 62.2425C310.273 61.0403 307.972 60.0384 305.671 59.1366C300.968 57.3332 296.165 55.9305 291.162 55.2292C288.661 54.8284 286.16 54.628 283.758 54.7282C282.558 54.8284 281.357 55.0288 280.256 55.4296C279.156 55.8303 278.255 56.5317 277.755 57.5336C277.355 58.5355 277.455 59.7378 277.855 60.8399C278.255 61.942 278.855 62.9439 279.656 63.8456C280.456 64.7473 281.357 65.5488 282.357 66.2502C283.358 66.8513 284.459 67.4525 285.559 67.6529C286.06 67.753 286.56 67.6529 286.76 67.4525C286.96 67.2521 287.06 66.7511 286.86 66.2502C286.56 65.2483 285.859 64.2464 285.059 63.3446C283.358 61.6414 281.257 60.3389 278.956 59.337C276.654 58.4353 274.253 57.734 271.851 57.4334C269.45 57.1328 266.949 57.1328 264.647 57.8342C262.346 58.5355 260.345 59.9382 259.244 61.942C258.144 63.9458 257.944 66.5508 259.244 68.3542C259.444 68.6548 259.344 69.1557 259.044 69.3561C258.744 70.2578 258.244 70.1576 258.044 69.7569Z" fill="#F3FCF2"/>
<path d="M255.242 112.939C254.542 112.238 254.142 111.136 254.242 110.134C254.342 109.132 254.842 108.23 255.442 107.629C256.743 106.327 258.344 105.625 260.045 105.325C263.347 104.624 266.649 105.024 269.851 105.726C271.452 106.126 273.052 106.627 274.553 107.329C275.254 107.729 276.054 108.13 276.654 108.731C276.955 109.032 277.255 109.333 277.555 109.733C277.755 110.134 278.055 110.635 277.955 111.336C277.855 111.737 277.555 111.937 277.255 112.138C276.955 112.238 276.755 112.338 276.454 112.338C275.954 112.338 275.554 112.338 275.054 112.238C274.153 112.038 273.453 111.737 272.652 111.336C271.852 110.936 271.151 110.535 270.551 109.934C269.951 109.333 269.35 108.731 268.95 107.83C268.75 107.429 268.65 106.928 268.75 106.327C268.85 105.826 269.15 105.325 269.45 105.024C270.151 104.323 271.051 104.022 271.852 103.822C273.453 103.421 275.154 103.421 276.755 103.421C279.956 103.521 283.158 104.022 286.36 104.624C289.462 105.325 292.664 106.126 295.665 107.128C297.166 107.729 298.667 108.23 300.068 109.232C300.268 109.333 300.468 109.533 300.568 109.833C300.668 109.934 300.668 110.234 300.668 110.435C300.568 110.635 300.468 110.735 300.368 110.835C299.868 111.136 299.467 111.136 299.067 111.236C298.267 111.336 297.366 111.336 296.566 111.236C294.965 110.936 293.264 110.334 292.163 108.932C291.863 108.531 291.663 108.13 291.663 107.729C291.563 107.228 291.663 106.828 291.763 106.327C292.163 105.525 292.864 104.924 293.564 104.523C295.065 103.722 296.566 103.321 298.167 103.02C299.768 102.72 301.368 102.52 302.969 102.319C309.373 101.518 315.777 101.317 322.18 101.918C328.584 102.419 334.887 103.622 341.091 104.824C347.395 106.126 353.598 107.429 359.802 108.731C353.498 107.529 347.295 106.227 340.991 105.024C334.687 103.822 328.384 102.72 322.08 102.319C315.677 101.818 309.373 102.119 302.969 102.92C299.868 103.421 296.566 103.622 293.864 105.124C293.264 105.525 292.664 106.026 292.363 106.627C292.063 107.228 292.263 107.93 292.664 108.531C293.564 109.733 295.065 110.334 296.566 110.535C297.366 110.635 298.067 110.635 298.867 110.535C299.267 110.435 299.668 110.435 299.868 110.234C299.968 110.134 299.868 110.334 299.868 110.234C299.868 110.134 299.668 110.034 299.567 109.934C298.367 109.132 296.766 108.531 295.365 108.03C292.363 107.028 289.262 106.227 286.16 105.625C283.058 105.024 279.856 104.523 276.755 104.523C275.154 104.523 273.653 104.523 272.152 104.924C271.452 105.124 270.751 105.425 270.251 105.826C269.851 106.227 269.751 106.828 270.051 107.429C270.651 108.631 271.952 109.633 273.253 110.334C273.953 110.635 274.653 110.936 275.354 111.036C275.754 111.136 276.054 111.136 276.354 111.136C276.554 111.136 276.654 111.036 276.755 111.036C276.855 111.036 276.855 110.936 276.855 110.936C276.855 110.835 276.855 110.635 276.654 110.334C276.454 110.034 276.254 109.833 275.954 109.533C275.354 109.032 274.753 108.631 274.053 108.331C272.652 107.629 271.151 107.128 269.651 106.828C266.649 106.126 263.447 105.926 260.445 106.527C258.944 106.828 257.544 107.429 256.643 108.531C256.243 109.032 255.843 109.633 255.843 110.234C255.743 110.835 255.943 111.437 256.443 111.837C256.743 112.138 256.743 112.639 256.443 112.939C256.043 113.24 255.543 113.24 255.242 112.939Z" fill="#ADC9EE"/>
</svg>
