<svg width="1170" height="290" viewBox="0 0 1170 290" fill="none" xmlns="http://www.w3.org/2000/svg">
<path d="M172.145 182H188.482C192.253 182 195.395 185.136 195.395 188.899V202.907C195.395 206.879 192.253 210.015 188.482 210.015H176.753V214.615C170.259 214.615 165.023 209.388 165.023 202.907V188.899C165.232 184.927 168.374 182 172.145 182ZM184.084 198.098C185.55 198.098 186.597 197.053 186.597 195.59C186.597 194.126 185.55 193.081 184.084 193.081C182.618 193.081 181.57 194.126 181.57 195.59C181.57 197.053 182.618 198.098 184.084 198.098ZM176.543 198.098C178.009 198.098 179.057 197.053 179.057 195.59C179.057 194.126 178.009 193.081 176.543 193.081C175.077 193.081 174.03 194.126 174.03 195.59C174.03 197.053 175.077 198.098 176.543 198.098Z" fill="#F9DD4A"/>
<path d="M180.314 245.055C182.409 252.79 183.456 260.108 188.483 265.335C193.51 270.561 200.212 273.906 207.753 274.325C208.381 274.325 209.01 274.325 209.848 274.325C210.895 274.325 211.733 274.325 212.78 274.115C227.652 272.652 238.125 265.544 238.125 244.427C238.125 228.12 233.516 210.767 209.848 215.367C193.929 218.503 176.125 229.165 180.314 245.055Z" fill="#A4E8A0"/>
<path d="M188.693 254.881L188.483 265.335C193.51 270.561 200.213 273.906 207.753 274.325C208.382 274.325 209.01 274.325 209.848 274.325C210.895 274.325 211.733 274.325 212.78 274.116V267.843C224.3 264.498 224.719 250.282 223.463 240.037C222.415 231.047 215.294 223.939 206.287 223.102C203.564 222.893 200.632 223.102 197.909 224.566C191.206 227.702 189.111 237.737 188.274 245.264L188.693 254.881Z" fill="#C18987"/>
<path d="M197.49 266.171C197.699 266.38 201.888 270.979 207.963 274.325C208.591 274.325 209.219 274.325 210.057 274.325C211.105 274.325 211.942 274.325 212.99 274.116V267.843C212.571 268.053 205.03 268.889 197.49 266.171Z" fill="#AD7777"/>
<path d="M189.739 242.755C189.739 244.637 188.692 246.309 187.227 246.309C185.761 246.309 184.504 244.846 184.504 242.964C184.504 241.082 185.551 239.41 187.017 239.41C188.273 239.201 189.53 240.873 189.739 242.755Z" fill="#BE9791"/>
<path d="M187.018 242.754C187.018 242.963 186.808 243.172 186.599 243.172C186.389 243.172 186.18 242.963 186.18 242.754C186.18 242.546 186.389 242.337 186.599 242.337C186.808 242.337 187.018 242.546 187.018 242.754Z" fill="#A37975"/>
<path d="M212.571 268.052C211.524 268.262 210.267 268.052 209.219 268.052C208.172 267.843 207.125 267.634 206.078 267.425C205.03 267.216 203.983 266.798 202.936 266.38C201.888 265.962 200.841 265.544 199.794 265.125C200.213 265.544 200.632 265.962 201.051 266.171L202.517 267.007C203.564 267.634 204.611 268.052 205.659 268.262C206.706 268.471 207.963 268.889 209.219 268.68C210.476 268.68 211.733 268.471 212.571 268.052Z" fill="#383A4A"/>
<path d="M189.739 242.755C189.739 244.637 188.692 246.309 187.227 246.309C185.761 246.309 184.504 244.846 184.504 242.964C184.504 241.082 185.551 239.41 187.017 239.41C188.273 239.201 189.53 240.873 189.739 242.755Z" fill="#C18987"/>
<path d="M187.854 241.919C187.854 241.919 186.388 241.71 186.179 242.964C185.969 244.219 187.645 244.01 187.645 244.01" stroke="#B57A77" stroke-width="0.4282" stroke-miterlimit="10" stroke-linecap="round"/>
<path d="M205.658 251.118C206.286 251.327 206.705 251.745 207.334 252.163L209.009 253.208C210.057 253.836 211.314 254.463 212.57 254.672C213.827 254.881 215.293 255.09 216.55 254.672C217.807 254.254 218.854 252.999 219.063 251.745C218.226 252.79 217.388 253.417 216.131 253.626C215.084 253.836 213.827 253.626 212.78 253.417C211.732 253.208 210.476 252.581 209.428 252.163C208.172 251.745 206.915 251.118 205.658 251.118Z" fill="#373949"/>
<path d="M210.687 235.229C211.315 236.692 211.944 238.156 212.781 239.41C213.619 240.664 214.456 242.128 215.503 243.382V242.755C214.666 243.8 214.038 244.846 213.409 246.1C214.456 245.264 215.503 244.428 216.341 243.382L216.55 243.173L216.341 242.755C215.503 241.292 214.666 240.037 213.828 238.783C212.781 237.737 211.944 236.483 210.687 235.229Z" fill="#373949"/>
<path d="M205.867 238.991C206.077 240.037 206.077 241.082 206.077 242.128C206.077 243.173 205.867 244.218 205.239 244.427C204.611 244.845 203.773 244.218 202.935 243.591C202.097 242.964 201.469 242.128 200.84 241.291C200.631 241.082 200.421 241.082 200.212 241.291C200.002 241.5 200.002 241.709 200.212 241.709C200.84 242.755 201.469 243.591 202.306 244.427C202.725 244.845 203.144 245.264 203.773 245.473C204.401 245.682 205.239 245.891 205.867 245.473C206.496 245.055 206.915 244.427 207.124 243.8C207.333 243.173 207.333 242.546 207.333 242.128C207.333 241.082 207.124 239.828 206.705 238.991C206.705 238.782 206.496 238.782 206.286 238.782C206.077 238.573 205.867 238.782 205.867 238.991Z" fill="#373949"/>
<path d="M219.902 235.856C220.111 236.901 220.111 237.737 220.321 238.783C220.321 239.619 220.111 240.873 219.692 240.873C219.274 241.082 218.436 240.455 217.808 239.828C217.18 239.201 216.551 238.365 215.923 237.528C215.714 237.319 215.504 237.319 215.295 237.528C215.086 237.737 215.086 237.737 215.086 237.946C215.504 238.783 216.133 239.828 216.761 240.664C217.18 241.082 217.389 241.501 218.017 241.71C218.436 241.919 219.274 242.337 219.902 242.128C220.739 241.71 220.949 241.082 220.949 240.455C220.949 239.828 220.949 239.41 220.949 238.783C220.739 237.737 220.53 236.692 220.111 235.856C220.111 235.647 219.902 235.647 219.692 235.647C219.902 235.438 219.902 235.647 219.902 235.856Z" fill="#373949"/>
<path d="M218.225 216.621C220.53 217.248 218.644 222.265 218.644 224.774C218.854 226.656 220.739 228.119 218.225 228.956C216.969 229.374 210.266 228.328 208.171 228.328C203.354 228.119 201.888 229.165 199.793 228.538C196.023 227.492 195.813 227.492 195.604 233.346C195.395 237.946 193.719 239.618 192.043 240.245C190.368 240.873 188.901 240.245 188.901 240.245C188.901 240.245 188.063 236.482 187.016 232.092C186.388 229.583 179.685 228.956 188.273 223.729C190.577 222.474 191.834 216.621 195.185 215.366C198.117 214.321 201.469 217.457 206.705 218.084C208.8 218.711 215.503 215.993 218.225 216.621Z" fill="#373949"/>
<path d="M222.205 257.39C221.577 258.644 219.273 261.153 215.084 261.153C210.894 261.153 206.077 259.481 203.563 258.017C200.84 256.763 200.003 255.508 198.327 251.745C196.651 247.982 196.232 246.309 195.604 244.637C194.766 242.964 193.3 239.41 192.672 237.946C192.043 236.483 190.786 236.483 190.577 237.946C190.368 239.41 192.043 244.427 190.996 246.1C189.949 247.773 191.624 251.745 192.253 254.672C192.881 257.599 193.719 262.826 196.023 264.707C198.536 266.798 201.259 267.007 204.192 268.889C206.705 270.561 209.219 271.607 211.523 270.77C213.827 270.143 215.503 272.025 218.644 268.471C221.786 264.916 224.509 264.707 224.09 260.944C223.881 258.644 224.509 248.191 224.509 249.863C223.671 252.163 222.834 256.135 222.205 257.39Z" fill="#373949"/>
<path d="M29.5218 191.27C27.2177 194.615 25.3326 197.96 21.9812 199.633C18.6299 201.305 14.8596 201.723 11.0894 200.678C10.6705 200.678 10.461 200.469 10.0421 200.469C9.62317 200.26 9.20426 200.051 8.57588 199.842C1.66374 196.497 -2.31598 191.27 1.45428 181.025C4.17724 173.081 9.62317 165.554 20.0961 171.826C27.6366 176.217 34.3393 184.371 29.5218 191.27Z" fill="#EF886C"/>
<path d="M28.0552 162C28.8928 164.509 29.3116 167.018 29.7304 169.317C30.1492 171.826 30.3586 174.335 30.568 176.844C30.7774 179.353 30.7774 181.862 30.7774 184.371C30.7774 186.879 30.568 189.388 29.9398 191.897C29.1022 189.388 28.6834 186.879 28.2646 184.58C27.8458 182.071 27.6365 179.562 27.4271 177.053C27.2177 174.544 27.2177 172.035 27.4271 169.527C27.4271 167.018 27.6365 164.509 28.0552 162Z" fill="#F9DD4A"/>
<path d="M43.9741 177.889C41.4606 178.308 38.9471 178.517 36.4336 178.726C33.9201 178.935 31.4066 178.726 28.8931 178.726C26.3795 178.517 23.866 178.308 21.3525 177.889C18.839 177.471 16.3255 177.053 14.0215 176.217C16.535 175.799 19.0485 175.59 21.562 175.381C24.0755 175.171 26.589 175.381 29.1025 175.381C31.616 175.59 34.1295 175.799 36.643 176.217C38.9471 176.635 41.4606 177.053 43.9741 177.889Z" fill="#F9DD4A"/>
<path d="M37.8982 169.945C36.8509 171.617 35.5942 173.081 34.1279 174.335C32.8712 175.799 31.405 177.053 29.7293 178.099C28.2631 179.353 26.5874 180.398 24.9118 181.444C23.2361 182.489 21.5604 183.325 19.6753 183.953C20.7226 182.28 21.9793 180.816 23.4455 179.562C24.7023 178.099 26.1685 176.844 27.8442 175.799C29.3104 174.544 30.9861 173.499 32.6617 172.454C34.3374 171.617 36.0131 170.572 37.8982 169.945Z" fill="#F9DD4A"/>
<path d="M21.5615 168.481C23.2372 169.527 24.7034 170.572 26.1696 172.036C27.6358 173.29 28.8926 174.544 30.1493 176.008C31.4061 177.471 32.4534 178.935 33.5007 180.398C34.548 182.071 35.5953 183.534 36.2236 185.416C34.548 184.371 33.0818 183.325 31.6155 181.862C30.1493 180.608 28.8926 179.353 27.6358 177.89C26.3791 176.426 25.3318 174.963 24.2845 173.499C23.2372 172.036 22.3994 170.363 21.5615 168.481Z" fill="#F9DD4A"/>
<path d="M61.7695 82.4712C66.0497 82.4712 69.5195 79.0079 69.5195 74.7356C69.5195 70.4634 66.0497 67 61.7695 67C57.4893 67 54.0195 70.4634 54.0195 74.7356C54.0195 79.0079 57.4893 82.4712 61.7695 82.4712Z" stroke="#EE724A" stroke-width="2" stroke-miterlimit="10"/>
<path d="M314.537 22C314.537 24.8551 314.06 27.7101 313.583 30.5652C313.107 33.4202 312.392 36.0373 311.677 38.8924C310.962 41.5095 310.009 44.3646 309.055 46.9817C308.102 49.5988 306.91 52.216 305.48 54.8331C305.48 51.9781 305.957 49.123 306.434 46.268C306.91 43.4129 307.625 40.7958 308.34 37.9407C309.055 35.3236 310.009 32.4685 310.962 29.8514C311.915 26.9963 313.107 24.3792 314.537 22Z" fill="#F9DD4A"/>
<path d="M325.5 44.8404C322.64 44.3646 319.78 43.6508 317.159 42.937C314.537 41.9854 311.677 41.0337 309.056 40.082C306.434 38.8924 303.813 37.7028 301.429 36.5132C298.808 35.0856 296.425 33.6581 294.042 31.9927C296.901 32.4685 299.761 33.1823 302.383 33.896C305.004 34.8477 307.864 35.7994 310.486 36.7511C313.107 37.9407 315.729 39.1303 318.112 40.3199C320.733 41.7474 323.355 43.175 325.5 44.8404Z" fill="#F9DD4A"/>
<path d="M322.162 34.134C320.256 35.5616 318.349 36.5132 316.443 37.4649C314.536 38.4166 312.391 39.1304 310.485 39.8441C308.34 40.5579 306.433 41.0337 304.288 41.5096C302.143 41.9854 299.998 42.2233 297.615 42.2233C299.522 40.7958 301.428 39.8441 303.335 38.8924C305.242 37.9408 307.386 37.227 309.293 36.5132C311.438 35.7995 313.344 35.3236 315.489 34.8478C317.634 34.372 320.017 34.134 322.162 34.134Z" fill="#F9DD4A"/>
<path d="M305.243 26.2827C306.673 27.9482 307.864 29.8515 308.817 31.7549C309.771 33.6583 310.724 35.5616 311.439 37.465C312.154 39.3684 312.869 41.5096 313.346 43.6509C313.822 45.7922 314.299 47.9335 314.299 50.0748C312.869 48.4094 311.677 46.506 310.724 44.6026C309.771 42.6992 308.817 40.7959 308.103 38.8925C307.388 36.9891 306.673 34.8479 306.196 32.7066C305.719 30.8032 305.243 28.6619 305.243 26.2827Z" fill="#F9DD4A"/>
<path d="M1126.49 194H1110.82C1107.22 194 1104.16 197.011 1104.16 200.554V213.84C1104.16 217.56 1107.22 220.571 1110.82 220.571H1121.99V225C1128.11 225 1133.15 220.04 1133.15 214.017V200.731C1133.33 197.011 1130.27 194 1126.49 194ZM1115.14 209.589C1113.88 209.589 1112.8 208.526 1112.8 207.286C1112.8 206.046 1113.88 204.983 1115.14 204.983C1116.4 204.983 1117.48 206.046 1117.48 207.286C1117.48 208.526 1116.4 209.589 1115.14 209.589ZM1122.35 209.589C1121.08 209.589 1120 208.526 1120 207.286C1120 206.046 1121.08 204.983 1122.35 204.983C1123.61 204.983 1124.69 206.046 1124.69 207.286C1124.87 208.526 1123.79 209.589 1122.35 209.589Z" fill="#EF886C"/>
<path d="M975.727 109H960.545C956.833 109 954.134 111.967 954.134 115.264V128.121C954.134 131.747 957.171 134.714 960.545 134.714H971.341V139C977.414 139 982.138 134.385 982.138 128.451V115.593C982.138 111.967 979.101 109 975.727 109ZM964.593 123.835C963.244 123.835 962.232 122.846 962.232 121.527C962.232 120.209 963.244 119.22 964.593 119.22C965.943 119.22 966.955 120.209 966.955 121.527C966.955 122.846 965.943 123.835 964.593 123.835ZM971.679 123.835C970.329 123.835 969.317 122.846 969.317 121.527C969.317 120.209 970.329 119.22 971.679 119.22C973.028 119.22 974.04 120.209 974.04 121.527C974.04 122.846 972.691 123.835 971.679 123.835Z" fill="#A4E8A0"/>
<path d="M1119.54 254.12C1119.54 263.192 1114.73 271.196 1107.6 275.821C1105.82 276.888 1103.86 277.955 1101.9 278.489C1099.4 279.378 1096.55 279.734 1093.7 279.734C1090.5 279.734 1087.47 279.2 1084.79 278.133C1074.99 274.576 1065.73 264.793 1068.05 254.12C1072.86 231.175 1079.63 228.329 1093.88 228.329C1103.68 228.329 1111.7 229.574 1116.69 242.025C1118.11 245.938 1119.54 249.851 1119.54 254.12Z" fill="#A4E8A0"/>
<path d="M1082.66 246.828C1084.26 233.487 1099.23 227.44 1107.6 237.045L1107.78 237.223C1114.37 244.693 1117.58 243.626 1131.47 234.199C1139.67 228.685 1146.26 224.95 1154.46 226.195C1161.94 227.44 1166.22 232.242 1168.36 237.401C1173.17 248.606 1166.93 261.947 1156.06 264.259C1154.1 264.615 1152.14 264.793 1150.54 264.615C1146.26 264.081 1144.66 262.125 1139.67 267.105C1131.12 275.821 1123.63 283.469 1112.94 278.133C1109.56 276.354 1106.17 274.753 1102.61 273.33C1083.55 266.038 1082.66 256.255 1082.66 256.255C1082.3 252.697 1082.3 249.674 1082.66 246.828Z" fill="#373949"/>
<path d="M1101.9 278.489C1099.4 279.378 1096.55 279.734 1093.7 279.734C1090.5 279.734 1087.47 279.2 1084.79 278.133L1084.97 267.461C1076.95 265.148 1076.6 255.365 1077.49 248.428C1077.85 245.582 1079.09 243.092 1080.87 240.958C1082.48 239.179 1084.44 237.934 1086.75 237.223C1087.64 237.045 1088.54 236.867 1089.43 236.689C1090.85 236.511 1092.28 236.689 1093.7 237.045C1094.06 237.223 1094.59 237.4 1094.95 237.578C1095.13 237.578 1095.13 237.756 1095.31 237.756C1098.69 239.357 1100.47 243.804 1101.36 248.073C1101.36 248.251 1101.36 248.428 1101.54 248.606C1101.72 249.851 1101.9 250.919 1102.08 251.986V252.519L1101.72 258.567L1102.08 273.33L1101.9 278.489Z" fill="#C18987"/>
<path d="M1084.97 267.639C1084.97 267.639 1088.71 268.884 1093.88 265.504C1093.88 265.504 1091.03 271.552 1084.97 273.508V267.639Z" fill="#AD7777"/>
<path d="M1100.83 250.207C1100.83 251.63 1101.54 252.698 1102.61 252.698C1103.68 252.698 1104.57 251.63 1104.57 250.385C1104.57 248.962 1103.86 247.895 1102.79 247.895C1101.72 247.895 1100.83 248.962 1100.83 250.207Z" fill="#BE9791"/>
<path d="M1102.61 250.207C1102.61 250.385 1102.79 250.563 1102.97 250.563C1103.15 250.563 1103.32 250.385 1103.32 250.207C1103.32 250.03 1103.15 249.852 1102.97 249.852C1102.79 250.03 1102.61 250.03 1102.61 250.207Z" fill="#A37975"/>
<path d="M1084.97 267.639C1085.69 267.639 1086.58 267.639 1087.29 267.461C1088 267.283 1088.71 267.105 1089.43 266.927C1090.85 266.571 1092.28 265.86 1093.88 265.504C1093.52 265.86 1093.35 266.038 1092.99 266.394L1091.92 267.105C1091.21 267.461 1090.5 267.816 1089.61 267.994C1088.89 268.172 1088 268.35 1087.11 268.35C1086.58 268.172 1085.69 267.994 1084.97 267.639Z" fill="#383A4A"/>
<path d="M1100.83 250.207C1100.83 251.63 1101.54 252.698 1102.61 252.698C1103.68 252.698 1104.57 251.63 1104.57 250.385C1104.57 248.962 1103.86 247.895 1102.79 247.895C1101.72 247.895 1100.83 248.962 1100.83 250.207Z" fill="#C18987"/>
<path d="M1102.08 249.674C1102.08 249.674 1103.14 249.496 1103.32 250.385C1103.5 251.275 1102.43 251.097 1102.43 251.097" stroke="#B57A77" stroke-width="0.4282" stroke-miterlimit="10" stroke-linecap="round"/>
<path d="M1089.78 255.899C1089.6 256.789 1088.89 257.678 1088.18 258.211C1087.47 258.923 1086.4 259.279 1085.33 259.279C1084.26 259.279 1083.37 258.923 1082.48 258.389C1082.12 258.034 1081.76 257.856 1081.41 257.5C1081.05 257.144 1080.87 256.789 1080.52 256.433C1081.41 256.966 1082.12 257.322 1082.83 257.856C1083.72 258.211 1084.44 258.389 1085.33 258.567C1086.22 258.567 1086.93 258.389 1087.64 257.856C1088.54 257.322 1089.25 256.611 1089.78 255.899Z" fill="#373949"/>
<path d="M1085.86 245.049C1085.51 246.116 1084.97 247.006 1084.44 248.073C1083.9 248.962 1083.19 249.852 1082.48 250.741V250.207C1083.01 250.919 1083.55 251.63 1083.9 252.52C1083.19 251.986 1082.48 251.275 1081.76 250.741L1081.59 250.563L1081.76 250.207C1082.3 249.318 1082.83 248.251 1083.55 247.539C1084.26 246.65 1084.97 245.761 1085.86 245.049Z" fill="#373949"/>
<path d="M1089.78 247.539C1089.6 248.251 1089.6 248.962 1089.6 249.674C1089.6 250.385 1089.78 250.919 1090.14 251.097C1090.49 251.275 1091.03 250.919 1091.56 250.563C1092.1 250.207 1092.63 249.674 1092.99 249.14C1093.17 248.962 1093.35 248.962 1093.52 249.14C1093.7 249.318 1093.7 249.496 1093.52 249.496C1093.17 250.207 1092.81 250.741 1092.1 251.452C1091.74 251.808 1091.56 251.986 1091.03 252.164C1090.67 252.342 1089.96 252.52 1089.6 252.164C1089.07 251.986 1088.89 251.452 1088.71 251.097C1088.54 250.741 1088.54 250.207 1088.54 249.852C1088.54 249.14 1088.71 248.251 1089.07 247.539C1089.07 247.361 1089.25 247.361 1089.43 247.361C1089.6 247.361 1089.78 247.539 1089.78 247.539Z" fill="#373949"/>
<path d="M1080.16 245.405C1079.98 246.116 1079.98 246.828 1079.98 247.361C1079.98 247.895 1080.16 248.784 1080.34 248.784C1080.52 248.962 1081.05 248.428 1081.41 248.073C1081.76 247.539 1082.3 247.006 1082.65 246.472C1082.83 246.294 1083.01 246.294 1083.19 246.472C1083.37 246.65 1083.37 246.65 1083.37 246.828C1083.01 247.539 1082.65 248.073 1082.3 248.606C1082.12 248.962 1081.76 249.14 1081.41 249.496C1081.05 249.674 1080.52 250.029 1079.98 249.851C1079.45 249.674 1079.27 248.962 1079.09 248.606C1079.09 248.251 1079.09 247.895 1079.09 247.539C1079.27 246.828 1079.45 246.116 1079.63 245.405C1079.63 245.227 1079.8 245.227 1079.98 245.227C1079.98 245.227 1080.16 245.227 1080.16 245.405Z" fill="#373949"/>
<path d="M1102.08 233.132C1102.08 233.132 1086.4 244.515 1080.87 240.958C1080.87 240.958 1086.4 228.507 1102.08 233.132Z" fill="#373949"/>
<path d="M1093.7 237.045C1093.7 237.045 1097.09 245.583 1101.54 248.073L1107.42 244.16C1107.6 242.559 1100.12 233.843 1093.7 237.045Z" fill="#373949"/>
<path d="M955.532 164.409C955.532 176.314 949.943 184.126 939.509 188.218C938.018 188.776 936.528 189.334 934.851 189.52C932.987 189.893 931.311 190.079 929.261 190.079C924.044 190.079 919.2 188.776 915.101 186.358C906.716 181.522 901.126 172.408 901.126 161.991C901.126 148.227 905.598 139.67 916.777 136.694C920.877 135.578 924.789 133.718 929.261 133.718C934.851 133.718 940.254 135.392 944.726 138.182C952.365 143.39 955.532 154.551 955.532 164.409Z" fill="#EF886C"/>
<path d="M939.509 183.382V188.219C938.018 188.777 936.527 189.335 934.851 189.521C932.987 189.893 931.31 190.079 929.261 190.079C924.044 190.079 919.199 188.777 915.1 186.359L915.473 170.176L914.914 161.433V160.875C915.1 159.201 915.287 157.527 915.659 155.853C916.964 149.529 919.386 142.833 924.603 140.229C927.398 138.926 930.192 138.554 932.987 138.74C937.273 139.112 940.999 140.973 943.794 143.577C947.148 146.553 949.57 151.017 950.129 155.667C951.433 165.712 951.061 180.034 939.509 183.382Z" fill="#E0BEBD"/>
<path d="M939.509 188.219C938.018 188.777 936.528 189.335 934.851 189.521C929.447 185.801 926.653 180.592 926.466 180.22C928.888 181.895 931.124 182.639 932.988 183.197C933.174 183.197 933.36 183.383 933.547 183.383C936.528 183.941 938.391 183.569 939.136 183.383C939.323 183.383 939.323 183.383 939.323 183.383L939.509 188.219Z" fill="#D6AAAA"/>
<path d="M916.59 158.271C916.59 160.132 915.472 161.806 913.982 161.806C912.492 161.806 911.188 160.318 911.188 158.458C911.188 156.597 912.305 154.923 913.796 154.923C915.286 154.737 916.404 156.411 916.59 158.271Z" fill="#BE9791"/>
<path d="M913.982 158.271C913.982 158.457 913.795 158.829 913.609 158.829C913.423 158.829 913.05 158.643 913.05 158.457C913.05 158.271 913.237 157.899 913.423 157.899C913.609 157.899 913.982 158.085 913.982 158.271Z" fill="#A37975"/>
<path d="M939.509 183.383C938.577 183.941 937.273 184.127 936.155 184.127C935.037 184.127 933.733 183.941 932.615 183.569C931.497 183.197 930.379 182.825 929.447 182.267L927.957 181.337C927.584 180.964 927.025 180.592 926.652 180.22L929.82 181.523C930.938 181.895 931.869 182.267 932.987 182.639C934.105 183.011 935.037 183.197 936.155 183.383C937.086 183.569 938.204 183.569 939.509 183.383Z" fill="#383A4A"/>
<path d="M916.59 158.271C916.59 160.132 915.472 161.806 913.982 161.806C912.492 161.806 911.188 160.318 911.188 158.458C911.188 156.597 912.305 154.923 913.796 154.923C915.286 154.737 916.404 156.411 916.59 158.271Z" fill="#E0BEBD"/>
<path d="M914.727 157.341C914.727 157.341 913.237 157.155 913.051 158.272C912.865 159.574 914.541 159.388 914.541 159.388" stroke="#B57A77" stroke-width="0.4282" stroke-miterlimit="10" stroke-linecap="round"/>
<path d="M932.429 166.642C933.174 167.758 934.292 168.688 935.224 169.246C936.341 169.99 937.459 170.362 938.764 170.176C940.068 170.176 941.186 169.804 942.304 169.246C942.863 168.874 943.422 168.688 943.981 168.316C944.54 167.944 945.099 167.572 945.658 167.2C945.285 167.758 944.726 168.13 944.353 168.688C943.794 169.06 943.235 169.618 942.676 169.99C941.558 170.734 940.254 171.292 938.764 171.292C937.273 171.292 935.782 170.734 934.851 169.804C933.733 169.06 932.988 167.758 932.429 166.642Z" fill="#373949"/>
<path d="M938.205 150.831C939.322 151.947 940.254 153.249 941.185 154.551C942.117 155.853 943.048 157.155 943.793 158.457L943.98 158.829L943.793 159.015C942.862 159.945 941.93 160.876 940.813 161.806C941.558 160.69 942.303 159.573 943.048 158.457V159.015C942.117 157.713 941.185 156.411 940.44 155.109C939.509 153.621 938.763 152.319 938.205 150.831Z" fill="#373949"/>
<path d="M933.36 154.365C933.732 155.481 933.919 156.412 933.919 157.528C933.919 158.086 933.919 158.644 933.732 159.202C933.546 159.76 933.173 160.504 932.428 160.69C931.869 161.062 930.937 160.876 930.379 160.69C929.82 160.504 929.261 160.132 928.888 159.76C928.143 159.016 927.397 158.086 926.838 157.156C926.838 156.97 926.838 156.784 927.025 156.598C927.211 156.598 927.397 156.598 927.397 156.598C927.956 157.342 928.702 158.272 929.447 158.83C930.192 159.388 931.124 159.946 931.683 159.574C932.428 159.202 932.614 158.272 932.614 157.342C932.614 156.412 932.614 155.295 932.428 154.365C932.428 154.179 932.428 153.993 932.614 153.993C933.173 153.993 933.173 154.179 933.36 154.365Z" fill="#373949"/>
<path d="M947.147 151.203C947.52 152.133 947.706 153.063 947.892 154.179C947.892 154.737 947.892 155.295 947.892 155.853C947.892 156.411 947.52 157.155 946.775 157.528C946.029 157.9 945.284 157.528 944.912 157.155C944.539 156.783 943.98 156.411 943.794 156.039C943.049 155.295 942.676 154.365 942.117 153.435C942.117 153.249 942.117 153.063 942.303 153.063C942.49 153.063 942.676 153.063 942.676 153.249C943.235 153.993 943.794 154.923 944.539 155.481C945.098 156.225 946.029 156.783 946.402 156.597C946.961 156.411 946.961 155.295 946.961 154.365C946.961 153.435 946.775 152.505 946.588 151.575C946.588 151.389 946.588 151.203 946.775 151.203C946.961 151.017 947.147 151.017 947.147 151.203Z" fill="#373949"/>
<path d="M940.813 134.835C946.03 136.137 948.638 145.995 936.714 145.623C922.926 145.065 922.926 140.043 922.367 148.971C921.808 157.9 915.659 155.853 915.659 155.853C915.659 155.853 902.989 125.72 940.813 134.835Z" fill="#EADB9D"/>
<path d="M952.33 282.122C947.726 280.901 943.564 280.24 940.532 277.169C937.647 274.285 935.587 270.143 935.424 265.716C935.463 265.381 935.355 264.86 935.394 264.525C935.285 264.004 935.363 263.335 935.588 262.853C936.602 254.157 940.874 248.049 953.218 248.32C962.699 248.422 972.872 251.319 970.084 265.061C967.99 274.308 961.5 284.9 952.33 282.122Z" fill="#A4E8A0"/>
<path d="M1034.33 126.829L1034.4 125.88L1034.43 125.405C1034.43 125.405 1034.43 125.405 1034.45 125.168C1034.45 125.168 1034.21 125.151 1033.97 125.134C1033.74 125.118 1033.99 124.897 1033.75 124.88C1033.8 124.168 1033.85 123.456 1033.66 122.728C1033.76 121.304 1033.63 119.863 1033.72 118.439C1033.92 115.591 1034.12 112.743 1034.56 109.911C1035.19 104.232 1036.3 98.5851 1037.87 93.2091C1041.03 82.2198 1045.83 71.5839 1052 61.9968C1058.4 52.4263 1066.16 43.9047 1075.49 36.9231C1080.03 33.4241 1085.02 30.4329 1090.67 28.2035C1093.37 27.1991 1096.3 26.2114 1099.19 25.9356C1102.07 25.6599 1105.66 25.6713 1108.62 27.7856C1113.34 31.9312 1117.78 36.7724 1119.95 43.363C1120.92 46.5314 1121.15 50.1247 1120.21 53.3977C1119.26 56.6708 1117.62 59.6568 1115.3 62.1183C1114.25 63.4761 1112.98 64.5799 1111.25 65.4132C1109.75 66.2631 1107.8 66.8425 1105.66 66.6933C1103.76 66.5606 1101.92 65.4786 1100.58 64.1924C1099.24 62.9062 1098.13 61.6366 1097.28 60.1462C1094.09 54.4386 1092.88 47.9143 1093.09 41.4894C1093.32 38.1666 1093.77 35.0978 1095.18 32.0952C1095.75 30.7043 1096.58 29.0926 1097.63 27.7349C1098.68 26.3772 1099.71 25.2568 1100.99 24.153C1105.6 19.7045 1111.3 16.7631 1116.98 14.059C1122.65 11.5922 1128.76 9.63325 1134.81 8.38635C1140.86 7.37679 1147.34 6.87508 1153.71 8.03477L1153.38 9.44225C1147.48 8.31572 1141.23 8.83401 1135.17 10.0809C1129.11 11.3278 1123.24 13.3033 1117.81 15.7867C1112.39 18.27 1106.91 21.4654 1102.55 25.6931C1101.52 26.8135 1100.48 27.9339 1099.45 29.0543C1098.41 30.1747 1097.86 31.3282 1097.28 32.7191C1096.13 35.5009 1095.7 38.3324 1095.72 41.4345C1095.54 47.3846 1096.79 53.4343 1099.79 58.4133C1101.29 60.9028 1103.29 62.9507 1105.67 63.1165C1108.03 63.5197 1110.31 61.7701 1112.14 59.5128C1113.96 57.2554 1115.32 54.9649 1116.23 52.1665C1116.89 49.5889 1116.85 46.7242 1115.84 44.0305C1114.07 38.6597 1109.85 34.0725 1105.6 29.96C1104.02 28.6573 1101.16 28.4583 1098.75 28.7672C1096.1 29.0595 1093.42 29.8265 1090.96 30.8474C1085.8 32.8726 1081.07 35.6431 1076.54 38.9048C1067.49 45.4282 1059.73 53.9498 1053.36 63.0456C1046.97 72.3788 1041.96 82.5234 1038.83 93.2754C1037.26 98.6514 1035.91 104.281 1035.05 109.707C1034.61 112.539 1034.42 115.387 1034.22 118.235C1034.12 119.659 1034.02 121.083 1033.92 122.507C1033.87 123.219 1033.82 123.931 1033.77 124.643L1033.75 124.88C1033.52 124.864 1033.28 124.847 1033.26 125.085C1033.26 125.085 1033.26 125.085 1033.24 125.322L1033.21 125.797L1034.33 126.829Z" fill="#F9DD4A"/>
<path d="M865.939 56.6061C870.809 56.6061 874.756 52.6649 874.756 47.8031C874.756 42.9413 870.809 39 865.939 39C861.069 39 857.121 42.9413 857.121 47.8031C857.121 52.6649 861.069 56.6061 865.939 56.6061Z" stroke="#EE724A" stroke-width="2" stroke-miterlimit="10"/>
</svg>
