<svg width="670" height="414" viewBox="0 0 670 414" fill="none" xmlns="http://www.w3.org/2000/svg">
<g opacity="0.3">
<path d="M163.169 72.8403L316.838 72.7402C323.437 72.7402 328.735 78.0413 328.735 84.6427L328.835 177.962C328.835 184.563 323.537 189.864 316.938 189.864L163.269 189.964C156.67 189.964 151.371 184.663 151.371 178.062L151.271 84.7427C151.271 78.1413 156.57 72.8403 163.169 72.8403Z" fill="#D4DBE4"/>
</g>
<path d="M153.169 62.8378L306.838 62.7378C313.437 62.7378 318.736 68.0389 318.736 74.6402L318.836 167.959C318.836 174.561 313.537 179.862 306.938 179.862L153.269 179.962C146.67 179.962 141.371 174.661 141.371 168.059L141.271 74.7403C141.271 68.1389 146.57 62.8378 153.169 62.8378Z" fill="white"/>
<path d="M169.853 83.37C169.853 84.7646 166.534 85.9102 162.461 85.9102C158.387 85.9102 155.018 84.7646 155.018 83.37V83.1707C155.018 82.1248 155.47 81.1784 156.174 80.4811C156.476 80.1822 156.828 79.9332 157.23 79.734C157.934 79.3853 158.437 78.688 158.437 77.891V77.1937C158.437 76.0979 158.89 75.1018 159.594 74.4044C160.399 73.6075 161.505 73.1592 162.712 73.2589C164.824 73.4083 166.383 75.2512 166.383 77.3431V77.891C166.383 78.688 166.886 79.3853 167.59 79.6841C168.898 80.2818 169.853 81.6267 169.853 83.1707V83.37Z" fill="#F9DD4A"/>
<path d="M169.803 83.569C169.803 83.2204 169.551 82.9713 169.249 82.8219C168.998 82.6227 168.696 82.523 168.344 82.3736C167.741 82.1246 167.087 82.025 166.433 81.9253C165.126 81.7261 163.768 81.6265 162.46 81.6763C161.102 81.7261 159.795 81.8755 158.487 82.0748C157.834 82.1744 157.18 82.3238 156.576 82.523C156.275 82.6227 155.973 82.7721 155.671 82.9215C155.42 83.0709 155.168 83.32 155.068 83.6188C155.068 83.6188 155.068 83.6188 155.017 83.6188C154.967 83.2702 155.269 82.9215 155.52 82.7223C155.772 82.523 156.073 82.3238 156.425 82.1744C157.029 81.8755 157.733 81.7261 158.387 81.5767C159.745 81.2778 161.102 81.2778 162.46 81.2778C163.818 81.3276 165.176 81.4273 166.483 81.6763C167.137 81.8257 167.791 81.9752 168.445 82.274C168.747 82.4234 169.048 82.5729 169.35 82.7721C169.602 82.9713 169.903 83.2702 169.903 83.6188C169.853 83.569 169.853 83.569 169.803 83.569Z" fill="#2E3748"/>
<path d="M169.501 81.6266C169.35 81.3278 169.098 81.1286 168.797 80.9293C168.495 80.7799 168.193 80.6305 167.891 80.5309C167.288 80.2818 166.634 80.1324 165.98 80.0328C165.326 79.9332 164.673 79.8833 164.019 79.7837C163.365 79.6841 162.711 79.6343 162.007 79.4849C162.007 79.4849 162.007 79.4849 162.007 79.4351C162.661 79.2856 163.365 79.2856 164.069 79.2856C164.773 79.3355 165.427 79.4849 166.081 79.6343C166.735 79.7837 167.388 80.0328 168.042 80.2818C168.344 80.4312 168.646 80.5807 168.947 80.8297C169.149 81.0289 169.4 81.278 169.501 81.6266C169.551 81.6266 169.501 81.6764 169.501 81.6266C169.501 81.6764 169.501 81.6764 169.501 81.6266Z" fill="#2E3748"/>
<path d="M169.853 83.3699C169.853 83.868 169.451 84.2167 169.098 84.4657C168.696 84.7147 168.294 84.914 167.841 85.0634C166.986 85.4121 166.081 85.6113 165.176 85.7109C163.365 85.96 161.505 86.0098 159.644 85.7607C158.739 85.6611 157.833 85.4619 156.928 85.163C156.476 85.0136 156.073 84.8144 155.671 84.5155C155.269 84.2665 154.866 83.868 154.866 83.3201C154.816 82.3738 155.118 81.4274 155.671 80.6305C155.973 80.3316 156.375 79.9829 156.777 79.7339C156.978 79.5845 157.23 79.5347 157.381 79.3852C157.532 79.2856 157.733 79.1362 157.833 78.9868C158.085 78.6381 158.236 78.2397 158.236 77.8412V77.1439C158.236 76.8948 158.236 76.6458 158.286 76.4465C158.437 75.5002 158.94 74.6036 159.694 74.0059C160.449 73.3584 161.404 73.0098 162.41 73.0098C163.416 73.0098 164.371 73.4082 165.126 74.0059C165.83 74.6534 166.332 75.55 166.534 76.4964C166.634 76.9944 166.584 77.4427 166.584 77.891C166.584 78.2895 166.735 78.7377 166.986 79.0366C167.137 79.186 167.288 79.3354 167.489 79.4351C167.69 79.5347 167.891 79.6343 168.093 79.7837C168.495 80.0328 168.847 80.3814 169.098 80.7301C169.652 81.527 169.903 82.4734 169.853 83.3699ZM169.803 83.3699C169.803 82.4734 169.551 81.5768 168.948 80.8297C168.646 80.481 168.294 80.1822 167.942 79.9829C167.741 79.8833 167.539 79.7837 167.338 79.6841C167.137 79.5845 166.936 79.4351 166.785 79.2358C166.433 78.8872 166.232 78.3891 166.232 77.891C166.232 77.4427 166.232 76.9944 166.131 76.5462C165.93 75.6994 165.478 74.9025 164.824 74.3546C163.516 73.209 161.404 73.209 160.096 74.3048C159.342 74.9025 158.89 75.6994 158.688 76.5462C158.638 76.9446 158.638 77.3929 158.638 77.8412C158.638 78.3393 158.437 78.8374 158.135 79.2358C157.984 79.4351 157.783 79.5845 157.582 79.7339C157.381 79.8833 157.129 79.9331 156.978 80.0826C156.626 80.3316 156.274 80.5806 156.023 80.9293C155.47 81.6266 155.168 82.4734 155.218 83.3699C155.218 83.7684 155.52 84.117 155.872 84.3661C156.224 84.6151 156.626 84.8144 157.079 84.9638C157.934 85.2626 158.839 85.4619 159.744 85.6113C161.555 85.8603 163.416 85.9101 165.226 85.6611C166.131 85.5615 167.037 85.3623 167.891 85.0634C168.344 84.914 168.746 84.7147 169.098 84.4657C169.451 84.2167 169.803 83.8182 169.803 83.3699Z" fill="#2E3748"/>
<path d="M164.572 81.5271C164.723 82.1248 164.622 82.8221 164.22 83.37C163.818 83.9179 163.164 84.2666 162.46 84.2666C161.756 84.3164 161.052 84.0175 160.599 83.4696C160.197 82.9217 160.046 82.1248 160.348 81.5271C160.348 81.5271 160.348 81.5271 160.398 81.5271C160.398 82.1746 160.65 82.7225 161.002 83.121C161.354 83.5194 161.907 83.8183 162.46 83.8681C163.013 83.9179 163.617 83.6689 164.019 83.2206C164.371 82.7723 164.622 82.1248 164.572 81.5271H164.522C164.522 81.4773 164.522 81.4773 164.572 81.5271C164.522 81.4773 164.572 81.5271 164.572 81.5271Z" fill="#2E3748"/>
<path opacity="0.2" d="M154.471 104.911C154.471 100.51 157.67 97.0098 161.669 97.0098H297.029C301.028 97.0098 304.228 100.51 304.228 104.911V113.213C304.228 117.614 301.028 121.115 297.029 121.115H161.669C157.67 121.115 154.471 117.614 154.471 113.213V104.911Z" fill="#CAD9E8"/>
<path d="M191.828 144.911C191.828 140.51 195.027 137.01 199.027 137.01H260.561C264.561 137.01 267.76 140.51 267.76 144.911V153.213C267.76 157.614 264.561 161.115 260.561 161.115H199.027C195.027 161.115 191.828 157.614 191.828 153.213V144.911Z" fill="#A4E8A0"/>
<path d="M202.3 152.88C201.594 151.781 201.726 150.418 202.3 149.363C202.873 148.307 203.975 147.604 205.077 147.252C206.223 146.944 207.369 146.9 208.515 147.076C209.661 147.252 210.763 147.516 211.777 147.956C212.835 148.395 213.805 149.011 214.642 149.846C215.039 150.286 215.392 150.77 215.568 151.385C215.656 151.693 215.656 152.089 215.348 152.441C215.215 152.617 214.995 152.661 214.819 152.705C214.642 152.749 214.466 152.749 214.334 152.705C213.717 152.617 213.188 152.309 212.703 152.001C212.218 151.693 211.777 151.297 211.424 150.858C211.072 150.418 210.719 149.934 210.543 149.363C210.366 148.791 210.278 148.132 210.543 147.56C210.807 146.944 211.336 146.593 211.909 146.373C212.482 146.153 213.055 146.065 213.628 146.021C214.774 145.977 215.877 146.065 216.979 146.241C219.183 146.593 221.343 147.252 223.414 148.044C224.472 148.439 225.486 148.879 226.456 149.451C226.941 149.715 227.426 150.022 227.867 150.374C228.087 150.55 228.307 150.726 228.528 150.946C228.616 151.078 228.704 151.166 228.792 151.341C228.88 151.473 228.925 151.693 228.836 151.869C228.748 152.045 228.616 152.177 228.484 152.265C228.352 152.353 228.175 152.397 228.043 152.441C227.734 152.529 227.426 152.485 227.117 152.397C226.544 152.221 226.059 151.913 225.618 151.517C225.178 151.122 224.825 150.682 224.516 150.198C224.252 149.715 224.032 149.143 224.032 148.527C224.032 148.22 224.12 147.912 224.252 147.648C224.384 147.384 224.649 147.164 224.869 146.988C225.134 146.812 225.398 146.725 225.663 146.637C225.927 146.549 226.192 146.461 226.5 146.417C227.602 146.153 228.748 146.153 229.85 146.197C232.098 146.373 234.258 146.944 236.286 147.912C236.771 148.176 237.3 148.439 237.741 148.747C238.182 149.099 238.622 149.451 238.931 149.978C239.063 150.242 239.107 150.594 238.975 150.858C238.843 151.122 238.578 151.341 238.314 151.473C237.785 151.737 237.124 151.693 236.595 151.517C236.066 151.297 235.581 150.99 235.184 150.55C234.787 150.154 234.479 149.671 234.302 149.099C234.126 148.571 234.214 147.912 234.567 147.428C234.92 146.944 235.449 146.681 235.978 146.505C237.08 146.153 238.182 146.153 239.284 146.197C240.386 146.241 241.488 146.373 242.59 146.593C244.794 146.988 246.954 147.384 249.114 147.912C251.274 148.439 253.434 149.011 255.55 149.671C257.666 150.374 259.737 151.122 261.765 152.089C259.781 151.122 257.666 150.374 255.55 149.715C253.434 149.055 251.274 148.483 249.114 148C246.954 147.516 244.75 147.12 242.59 146.725C241.488 146.549 240.386 146.417 239.284 146.373C238.182 146.329 237.08 146.373 236.022 146.681C235.493 146.856 235.008 147.12 234.699 147.516C234.391 147.956 234.302 148.527 234.479 149.011C234.611 149.539 234.92 149.978 235.316 150.374C235.713 150.77 236.154 151.078 236.639 151.254C237.124 151.429 237.697 151.473 238.182 151.21C238.402 151.078 238.622 150.902 238.711 150.682C238.843 150.462 238.799 150.198 238.667 149.978C238.446 149.495 238.005 149.143 237.564 148.835C237.124 148.527 236.639 148.263 236.154 148C234.17 147.076 232.01 146.505 229.806 146.329C228.704 146.241 227.602 146.285 226.544 146.549C226.28 146.593 226.015 146.681 225.751 146.768C225.486 146.856 225.222 146.944 225.045 147.076C224.605 147.34 224.34 147.824 224.34 148.307C224.34 148.835 224.516 149.319 224.781 149.802C225.045 150.242 225.398 150.682 225.795 151.034C226.192 151.385 226.676 151.693 227.161 151.825C227.426 151.869 227.646 151.913 227.911 151.869C228.131 151.825 228.396 151.693 228.44 151.561C228.484 151.429 228.352 151.21 228.219 150.99C228.043 150.814 227.823 150.638 227.646 150.462C227.205 150.154 226.721 149.846 226.28 149.583C225.31 149.055 224.296 148.615 223.282 148.22C221.21 147.428 219.094 146.812 216.89 146.505C215.788 146.329 214.686 146.241 213.628 146.285C213.099 146.329 212.57 146.417 212.086 146.593C211.601 146.768 211.204 147.076 210.984 147.516C210.807 147.956 210.851 148.483 211.028 148.967C211.204 149.451 211.468 149.89 211.821 150.286C212.174 150.682 212.57 151.034 213.011 151.341C213.452 151.605 213.937 151.869 214.422 151.957C214.642 152.001 214.863 151.957 214.951 151.869C215.039 151.781 215.083 151.561 214.995 151.341C214.863 150.902 214.554 150.462 214.201 150.066C213.452 149.319 212.526 148.747 211.512 148.307C210.499 147.912 209.441 147.604 208.383 147.472C207.325 147.34 206.223 147.34 205.209 147.648C204.195 147.956 203.313 148.571 202.828 149.451C202.344 150.33 202.255 151.473 202.828 152.265C202.917 152.397 202.873 152.617 202.74 152.705C202.608 153.1 202.432 153.056 202.3 152.88Z" fill="#F3FCF2"/>
<path d="M166.872 113.406C166.195 112.684 165.83 111.57 165.961 110.571C166.092 109.573 166.62 108.687 167.238 108.105C168.577 106.844 170.197 106.193 171.905 105.945C175.224 105.347 178.508 105.851 181.684 106.652C183.27 107.102 184.852 107.653 186.329 108.4C187.016 108.823 187.803 109.248 188.384 109.868C188.674 110.178 188.964 110.488 189.251 110.897C189.439 111.304 189.723 111.814 189.601 112.512C189.489 112.91 189.183 113.101 188.877 113.292C188.574 113.382 188.371 113.476 188.071 113.467C187.572 113.451 187.172 113.439 186.676 113.323C185.783 113.095 185.093 112.772 184.306 112.347C183.519 111.921 182.833 111.499 182.252 110.879C181.671 110.26 181.09 109.64 180.719 108.727C180.531 108.32 180.447 107.816 180.566 107.218C180.681 106.721 180.997 106.229 181.306 105.938C182.027 105.259 182.935 104.987 183.741 104.811C185.352 104.461 187.05 104.514 188.649 104.564C191.843 104.764 195.024 105.364 198.202 106.065C201.278 106.862 204.45 107.763 207.416 108.858C208.896 109.506 210.379 110.053 211.746 111.099C211.943 111.205 212.136 111.411 212.227 111.715C212.324 111.818 212.314 112.119 212.308 112.319C212.202 112.516 212.099 112.613 211.996 112.71C211.487 112.995 211.087 112.983 210.685 113.07C209.882 113.145 208.983 113.117 208.187 112.992C206.598 112.642 204.918 111.988 203.863 110.552C203.576 110.142 203.388 109.735 203.401 109.334C203.316 108.831 203.429 108.433 203.544 107.936C203.969 107.147 204.687 106.568 205.399 106.189C206.922 105.435 208.433 105.081 210.041 104.83C211.649 104.58 213.254 104.43 214.859 104.279C221.278 103.678 227.678 103.677 234.053 104.478C240.432 105.178 246.688 106.576 252.845 107.971C259.099 109.47 265.252 110.965 271.406 112.46C265.149 111.062 258.996 109.567 252.739 108.168C246.482 106.77 240.222 105.472 233.941 104.875C227.562 104.175 221.259 104.279 214.84 104.88C211.727 105.284 208.424 105.381 205.68 106.799C205.068 107.181 204.453 107.663 204.134 108.255C203.816 108.846 203.994 109.553 204.375 110.167C205.237 111.397 206.716 112.044 208.209 112.291C209.005 112.416 209.704 112.438 210.507 112.363C210.909 112.275 211.309 112.288 211.515 112.094C211.618 111.997 211.512 112.194 211.515 112.094C211.518 111.994 211.321 111.887 211.225 111.784C210.051 110.945 208.471 110.295 207.088 109.75C204.122 108.655 201.05 107.757 197.971 107.06C194.893 106.362 191.712 105.762 188.615 105.665C187.016 105.615 185.517 105.568 184.006 105.922C183.301 106.101 182.592 106.379 182.08 106.764C181.668 107.152 181.549 107.75 181.83 108.36C182.392 109.581 183.66 110.623 184.937 111.364C185.627 111.686 186.317 112.009 187.013 112.131C187.409 112.243 187.709 112.253 188.009 112.262C188.209 112.268 188.312 112.171 188.412 112.174C188.512 112.177 188.515 112.077 188.515 112.077C188.518 111.977 188.524 111.777 188.334 111.47C188.143 111.164 187.95 110.957 187.659 110.647C187.075 110.128 186.488 109.709 185.798 109.386C184.422 108.642 182.939 108.094 181.449 107.747C178.474 106.952 175.283 106.652 172.267 107.16C170.759 107.413 169.342 107.97 168.408 109.044C167.993 109.532 167.575 110.12 167.556 110.721C167.438 111.319 167.619 111.926 168.106 112.342C168.396 112.652 168.38 113.153 168.071 113.444C167.562 113.729 167.063 113.713 166.872 113.406Z" fill="#ADC9EE"/>
<path d="M158.169 63.238C157.669 60.338 154.369 62.938 157.569 66.038" stroke="#D4DBE4" stroke-width="2" stroke-linecap="round"/>
<path d="M289.443 62.5378C289.043 59.6378 285.843 62.2378 288.943 65.3378" stroke="#D4DBE4" stroke-width="2" stroke-linecap="round"/>
<path d="M156.869 62.637C156.869 62.637 212.758 40.0324 220.256 39.8324C227.755 39.7323 288.543 62.637 288.543 62.637" stroke="#D4DBE4" stroke-width="2" stroke-linecap="round"/>
<path d="M218.157 40.5336C218.157 43.7343 216.858 46.3348 215.358 46.3348C213.858 46.3348 212.558 43.7343 212.558 40.5336C212.558 37.333 213.858 34.7324 215.358 34.7324C215.658 34.7324 215.858 34.8324 216.158 34.9325C216.358 35.0325 216.558 35.2325 216.758 35.4326C217.558 36.5328 218.157 38.4332 218.157 40.5336Z" fill="#D4DBE4"/>
<path d="M224.156 42.5324C224.156 43.8324 223.656 44.8324 223.056 44.8324C222.456 44.8324 221.956 43.8324 221.956 42.5324C221.956 41.2324 222.456 40.2324 223.056 40.2324C223.156 40.2324 223.256 40.2324 223.356 40.3324C223.456 40.4324 223.556 40.4324 223.656 40.5324C223.956 40.8324 224.156 41.6324 224.156 42.5324Z" fill="#D4DBE4"/>
<path d="M223.058 44.8345L219.458 44.3344L215.259 46.4348L215.359 34.7324L219.158 38.3332L223.058 40.2335V44.8345Z" fill="#D4DBE4"/>
<path d="M362.228 36.2328C360.628 37.433 359.328 38.6333 357.529 38.8333C355.829 39.0333 353.929 38.6333 352.43 37.533C352.33 37.433 352.13 37.333 352.03 37.233C351.83 37.1329 351.63 36.9329 351.53 36.7329C348.93 34.1323 348.03 31.1317 351.33 27.1309C353.829 24.0303 357.429 21.4297 361.228 25.9306C363.727 29.0313 365.427 33.8323 362.228 36.2328Z" fill="#A4E8A0"/>
<path d="M366.227 22.73C366.227 23.9302 366.027 25.1305 365.827 26.3307C365.627 27.531 365.327 28.6312 365.027 29.8314C364.727 30.9317 364.327 32.1319 363.927 33.2321C363.527 34.3324 363.027 35.4326 362.427 36.5328C362.427 35.3326 362.627 34.1323 362.827 32.9321C363.027 31.7318 363.327 30.6316 363.627 29.4314C363.927 28.3311 364.327 27.1309 364.727 26.0307C365.027 24.9304 365.527 23.8302 366.227 22.73Z" fill="#F9DD4A"/>
<path d="M370.825 32.4309C369.625 32.2308 368.426 31.9308 367.326 31.6307C366.226 31.2306 365.026 30.8306 363.927 30.4305C362.827 29.9304 361.727 29.4303 360.727 28.9302C359.627 28.3301 358.628 27.7299 357.628 27.0298C358.828 27.2298 360.027 27.5299 361.127 27.83C362.227 28.23 363.427 28.6301 364.527 29.0302C365.626 29.5303 366.726 30.0304 367.726 30.5305C368.826 31.0306 369.825 31.6307 370.825 32.4309Z" fill="#F9DD4A"/>
<path d="M369.428 27.9312C368.628 28.5312 367.828 28.9312 367.028 29.3312C366.228 29.7312 365.328 30.0312 364.528 30.3312C363.628 30.6312 362.828 30.8312 361.929 31.0312C361.029 31.2312 360.129 31.3312 359.129 31.3312C359.929 30.7312 360.729 30.3312 361.529 29.9312C362.329 29.5312 363.228 29.2312 364.028 28.9312C364.928 28.6312 365.728 28.4312 366.628 28.2312C367.528 28.0312 368.428 27.9312 369.428 27.9312Z" fill="#F9DD4A"/>
<path d="M362.228 24.6299C362.827 25.33 363.327 26.1302 363.727 26.9304C364.127 27.7305 364.527 28.5307 364.827 29.3308C365.127 30.131 365.427 31.0312 365.627 31.9314C365.827 32.8316 366.027 33.7317 366.027 34.6319C365.427 33.9318 364.927 33.1316 364.527 32.3315C364.127 31.5313 363.727 30.7311 363.427 29.931C363.127 29.1308 362.827 28.2306 362.628 27.3304C362.428 26.4303 362.328 25.5301 362.228 24.6299Z" fill="#F9DD4A"/>
<path d="M19.5962 42.934L19.9961 42.734L20.1961 42.634C20.1961 42.634 20.1961 42.534 20.0961 42.4339C20.0961 42.3339 20.0961 42.3339 20.1961 42.3339C20.396 42.1339 20.696 42.0339 20.8959 41.8338C21.3958 41.5338 21.8957 41.2337 22.3956 40.8336C23.3954 40.2335 24.4952 39.6334 25.495 39.1333C27.5946 38.033 29.8941 37.1329 32.0937 36.3327C36.6928 34.8324 41.4918 33.9322 46.2908 33.9322C51.0899 33.8322 55.9889 34.5323 60.588 36.1327C62.8875 36.9328 65.0871 37.933 67.1867 39.3333C68.1865 40.0335 69.1863 40.8336 69.9861 41.8338C70.7859 42.834 71.5858 44.0343 71.5858 45.5346C71.1859 48.1351 70.586 50.9357 68.8863 53.1361C67.9865 54.2364 66.7867 55.1365 65.487 55.6366C64.0873 56.1368 62.6876 56.2368 61.2878 56.0367C60.588 55.9367 59.8881 55.7367 59.1883 55.4366C58.4884 55.1365 57.8885 54.5364 57.4886 53.8363C57.0887 53.1361 57.0887 52.236 57.1887 51.5358C57.2886 50.8357 57.4886 50.1355 57.7885 49.4354C58.9883 46.9349 61.0879 45.0345 63.3874 43.6342C64.5872 42.934 65.7869 42.4339 67.1867 42.1339C67.8865 42.0339 68.5864 41.9338 69.2863 41.9338C69.9861 42.0339 70.686 42.1339 71.2859 42.2339C73.8853 42.834 76.2848 44.0343 78.5844 45.4346C80.7839 46.8348 82.8835 48.4352 84.7831 50.3356C86.5828 52.236 88.2824 54.3364 89.2822 56.8369L88.6824 57.0369C87.6826 54.7365 86.0829 52.636 84.1833 50.8357C82.3836 49.0353 80.284 47.435 78.0845 46.1347C75.8849 44.8344 73.5854 43.7342 71.0859 43.1341C70.486 43.0341 69.8861 42.934 69.2863 42.834C68.6864 42.734 68.0865 42.834 67.4866 43.0341C66.2868 43.3341 65.1871 43.8342 64.0873 44.5344C61.9877 45.8346 60.1881 47.735 59.0883 49.9355C58.5884 51.0357 58.3884 52.236 58.7883 53.1361C59.1883 54.0363 60.388 54.4364 61.4878 54.5364C62.6876 54.7365 63.8873 54.6364 64.9871 54.2364C66.0869 53.8363 66.9867 53.1361 67.7866 52.236C69.2863 50.3356 69.8861 47.8351 70.2861 45.3345V45.4346C70.386 44.5344 69.7861 43.5342 69.0863 42.734C68.3864 41.9338 67.4866 41.1337 66.5868 40.5336C64.6872 39.2333 62.5876 38.2331 60.388 37.4329C55.9889 35.8326 51.2898 35.1325 46.5908 35.1325C41.8917 35.1325 37.1927 35.8326 32.5936 37.2329C30.294 37.933 28.0945 38.8332 25.9949 39.8334C24.8951 40.3335 23.8953 40.9336 22.8955 41.5338C22.3956 41.8338 21.8957 42.1339 21.3958 42.4339C21.0959 42.634 20.8959 42.734 20.596 42.934C20.596 42.934 20.596 43.0341 20.496 42.934C20.396 42.934 20.396 42.834 20.2961 42.834L19.9961 42.634L19.5962 42.934Z" fill="#F9DD4A"/>
<path opacity="0.3" d="M91.2817 413.01C141.695 413.01 182.563 403.069 182.563 390.806C182.563 378.542 141.695 368.601 91.2817 368.601C40.8682 368.601 0 378.542 0 390.806C0 403.069 40.8682 413.01 91.2817 413.01Z" fill="#D4DBE4"/>
<path d="M131.174 357.198C131.174 357.198 137.472 383.604 139.672 384.604L138.072 389.705C136.772 393.806 132.973 396.506 128.774 396.406C124.475 396.306 120.876 393.206 119.876 389.005L118.676 383.904L113.077 357.698L131.174 357.198Z" fill="#EAB4B3"/>
<path d="M139.373 384.004L161.168 392.305C162.668 393.005 163.468 397.006 163.168 398.607L118.177 398.907L118.277 382.903C118.277 382.903 122.876 382.603 131.974 385.404C137.273 387.004 139.373 384.004 139.373 384.004Z" fill="#EF886C"/>
<path d="M161.868 393.006L139.972 393.306C136.373 393.406 132.674 393.406 129.074 393.406C125.475 393.406 121.776 393.406 118.077 393.306C121.676 393.206 125.375 393.106 128.974 393.006C132.574 393.006 136.273 392.906 139.872 392.906L161.868 393.006Z" fill="#565D5D"/>
<path d="M140.672 387.205C139.872 386.504 139.172 385.604 138.572 384.704C138.272 384.204 138.072 383.704 137.972 383.204C137.872 382.604 138.072 382.003 138.472 381.603C138.872 381.203 139.372 380.803 139.972 380.803C140.272 380.803 140.572 381.003 140.772 381.303C140.972 381.503 141.072 381.803 141.072 382.103C141.372 383.204 141.372 384.304 141.372 385.404V386.204V386.404V386.504C141.372 386.504 141.372 386.404 141.272 386.404C141.272 386.404 141.172 386.404 141.172 386.504V386.404L141.272 386.204C141.472 385.704 141.672 385.204 141.972 384.704C142.272 384.204 142.572 383.704 142.872 383.304C143.272 382.904 143.672 382.404 144.372 382.404C144.971 382.404 145.671 382.904 145.571 383.604C145.471 384.204 145.171 384.704 144.771 385.104C144.072 386.004 143.172 386.704 142.272 387.305C143.072 386.604 143.872 385.804 144.572 385.004C144.871 384.604 145.171 384.104 145.271 383.604C145.271 383.104 144.871 382.804 144.372 382.804C143.972 382.804 143.472 383.204 143.172 383.604C142.872 384.004 142.572 384.504 142.272 384.904C141.972 385.404 141.772 385.904 141.572 386.304L141.472 386.504V386.604C141.472 386.704 141.272 386.804 141.172 386.704C141.072 386.704 140.972 386.504 140.972 386.404V386.304V386.104L141.072 385.304C141.072 384.204 141.172 383.104 140.872 382.103C140.772 381.603 140.472 381.003 139.972 381.003C139.472 381.003 138.972 381.303 138.672 381.703C138.272 382.103 138.072 382.604 138.172 383.104C138.272 383.604 138.472 384.104 138.672 384.604C139.172 385.604 139.872 386.404 140.672 387.205Z" fill="#565D5D"/>
<path d="M121.776 211.569L84.9829 211.369C94.8809 320.291 98.4802 321.591 107.878 369.201L136.673 368.001L121.776 211.569Z" fill="#818CA7"/>
<path d="M107.778 369.201L136.573 368L136.473 368.1L128.974 289.884L125.275 250.776L121.776 211.668L125.675 250.776L129.374 289.884L136.673 368.201V368.301H136.573L107.778 369.201C107.778 369.301 107.778 369.301 107.778 369.201C107.778 369.301 107.778 369.201 107.778 369.201Z" fill="#2E3748"/>
<path d="M135.073 356.498L106.079 357.898" stroke="#758096" stroke-width="0.9016" stroke-miterlimit="10"/>
<path d="M135.473 358.799C127.874 358.399 117.676 358.499 109.978 359.099" stroke="#818CA7" stroke-width="0.9016" stroke-miterlimit="10"/>
<path d="M57.3892 345.696C57.3892 345.696 39.7927 366.001 40.2926 368.401L35.2936 370.001C31.2944 371.302 26.8953 369.801 24.4958 366.301C22.0963 362.7 22.3962 357.999 25.2956 354.798L28.6949 350.897L46.5913 331.293L57.3892 345.696Z" fill="#EAB4B3"/>
<path d="M40.4924 367.801L46.4912 390.306C46.7911 391.906 44.0917 394.907 42.592 395.507L16.1973 358.999L29.0947 349.897C29.0947 349.897 31.9941 353.398 34.9935 362.5C36.7931 367.901 40.4924 367.801 40.4924 367.801Z" fill="#EF886C"/>
<path d="M46.391 391.306L33.3936 373.702C31.1941 370.801 29.0945 367.801 26.8949 364.9C24.7954 361.9 22.6958 358.999 20.5962 355.898C22.7958 358.799 24.9953 361.7 27.1949 364.6C29.3944 367.501 31.494 370.501 33.5936 373.502L46.391 391.306Z" fill="#565D5D"/>
<path d="M38.6924 370.701C38.7924 369.601 39.0923 368.601 39.4923 367.501C39.6923 367 39.9922 366.5 40.3922 366.1C40.7921 365.7 41.3921 365.5 41.992 365.6C42.4919 365.7 43.0919 365.9 43.4918 366.4C43.6918 366.7 43.6918 367 43.5918 367.301C43.4918 367.601 43.2919 367.801 43.1919 368.001C42.4919 368.901 41.5921 369.501 40.6922 370.101L39.9922 370.501L39.7923 370.601L39.6923 370.701C39.6923 370.701 39.7923 370.601 39.6923 370.601C39.6923 370.501 39.5923 370.501 39.5923 370.501H39.6923H39.8922C40.3922 370.401 40.9921 370.301 41.4921 370.201C41.992 370.101 42.5919 370.101 43.1919 370.201C43.6918 370.301 44.3917 370.401 44.7917 370.901C45.1916 371.401 45.0917 372.302 44.4917 372.602C43.8918 372.902 43.3918 372.902 42.7919 372.802C41.692 372.702 40.5922 372.402 39.5923 372.102C40.5922 372.402 41.692 372.602 42.7919 372.602C43.2919 372.602 43.8918 372.602 44.2917 372.302C44.6917 372.102 44.6917 371.501 44.3917 371.101C44.0918 370.801 43.5918 370.601 43.0919 370.601C42.5919 370.601 41.992 370.601 41.4921 370.601C40.9921 370.701 40.3922 370.701 39.8922 370.801H39.6923H39.5923C39.5923 370.801 39.3923 370.801 39.2923 370.701C39.1923 370.601 39.2923 370.401 39.3923 370.401L39.4923 370.301L39.6923 370.201L40.3922 369.801C41.2921 369.201 42.192 368.601 42.8919 367.801C43.1919 367.401 43.4918 366.9 43.2919 366.5C42.9919 366.1 42.4919 365.9 41.992 365.8C41.4921 365.7 40.9921 365.8 40.5922 366.2C40.1922 366.5 39.8922 367 39.6923 367.501C39.0923 368.601 38.8924 369.701 38.6924 370.701Z" fill="#565D5D"/>
<path d="M102.38 214.069L59.2887 222.871C59.2887 222.871 62.0881 248.676 61.6882 272.081C61.4883 285.684 58.6888 298.987 53.7898 311.189C49.1907 322.492 38.1929 334.394 31.5942 343.496L49.4907 361.099C49.4907 361.099 66.9872 340.695 72.2861 333.794C84.1837 318.691 97.4811 295.386 101.28 272.281C105.579 246.276 102.38 214.069 102.38 214.069Z" fill="#A0ACD1"/>
<path d="M31.4941 343.496L49.4905 361.099H49.3906L62.4879 345.596L68.9866 337.795C71.1862 335.194 73.2858 332.494 75.1854 329.793C83.1838 318.891 89.8825 306.988 94.8815 294.386C97.381 288.085 99.3806 281.583 100.58 274.982C101.88 268.38 102.48 261.579 102.88 254.778C103.58 241.275 103.28 227.672 102.08 214.169L102.28 214.369L59.1886 223.171L59.3886 222.971C60.1884 230.373 60.6883 237.774 61.0882 245.276C61.4881 252.677 61.6881 260.179 61.6881 267.58C61.6881 274.982 61.1882 282.483 59.8885 289.885C58.5887 297.186 56.4891 304.388 53.5897 311.289C56.3892 304.388 58.3888 297.186 59.6885 289.885C60.9882 282.583 61.4881 275.082 61.3882 267.68C61.3882 260.279 61.0882 252.777 60.6883 245.376C60.2884 237.974 59.6885 230.473 58.8887 223.071V222.871H59.0886L102.18 214.069H102.38V214.269C103.48 227.772 103.88 241.375 103.08 254.878C102.68 261.679 101.98 268.38 100.78 275.082C99.4805 281.783 97.4809 288.285 94.9814 294.586C89.9824 307.188 83.1838 319.091 75.1854 329.993C73.1858 332.694 71.0862 335.394 68.8867 337.995L62.388 345.796L49.1906 361.299L31.4941 343.496Z" fill="#2E3748"/>
<path d="M66.3876 228.072C68.4872 244.876 71.0866 266.28 69.8869 282.984C68.5871 301.287 54.8899 329.393 43.8921 341.495" stroke="#818CA7" stroke-width="0.897" stroke-miterlimit="10"/>
<path d="M37.793 335.794L56.0893 352.298" stroke="#818CA7" stroke-width="0.897" stroke-miterlimit="10"/>
<path d="M74.3853 141.354C74.3853 141.354 85.583 135.253 97.1807 135.953L102.28 223.471L93.3814 226.872L81.2839 230.672L80.1841 227.372L74.3853 141.354Z" fill="white"/>
<path d="M93.9814 136.053L99.9808 225.071" stroke="#2E3748" stroke-width="0.4485" stroke-miterlimit="10" stroke-linecap="round"/>
<path d="M100.481 108.147C99.7809 102.046 94.8819 97.1447 88.7831 96.5446C86.8835 96.3445 84.9839 96.6446 83.0843 97.5448C78.5852 99.7452 77.0855 106.447 76.4856 111.548L76.8855 117.949L76.2856 144.454C80.1849 160.958 93.1823 160.358 93.2822 140.154L93.0823 126.951C100.981 124.75 101.281 114.948 100.481 108.147Z" fill="#E09F9B"/>
<path d="M93.1828 126.951C93.1828 126.951 89.5832 128.251 84.3838 124.851C84.3838 124.851 87.2834 130.752 93.1828 132.752V126.951Z" fill="#CA7D7A"/>
<path d="M77.5844 109.847C77.5844 111.147 76.8845 112.247 75.8846 112.247C74.8848 112.247 74.0849 111.247 73.9849 109.947C73.9849 108.647 74.6848 107.547 75.6847 107.547C76.6846 107.547 77.5844 108.547 77.5844 109.847Z" fill="#BE9791"/>
<path d="M75.7851 109.947C75.7851 110.147 75.6851 110.247 75.4851 110.247C75.2851 110.247 75.1851 110.147 75.1851 109.947C75.1851 109.747 75.2851 109.647 75.4851 109.647C75.6851 109.647 75.7851 109.747 75.7851 109.947Z" fill="#A37975"/>
<path d="M93.1819 126.951C92.482 127.351 91.6821 127.451 90.8822 127.451C90.0823 127.451 89.2824 127.351 88.5824 127.151C87.7825 126.951 87.0826 126.651 86.3827 126.251L85.3828 125.651C85.0828 125.451 84.7829 125.151 84.4829 124.951L86.5827 125.851C87.2826 126.151 87.9825 126.451 88.7824 126.551C89.4823 126.751 90.2822 126.951 90.9822 127.051C91.5821 127.151 92.382 127.151 93.1819 126.951Z" fill="#383A4A"/>
<path d="M88.3823 115.549C88.8823 116.249 89.5822 116.949 90.2821 117.349C90.982 117.849 91.8819 118.049 92.6818 118.049C93.4817 118.049 94.3816 117.749 95.1815 117.349C95.5815 117.149 95.9815 116.949 96.2814 116.649C96.6814 116.349 96.9813 116.149 97.3813 115.849C97.0813 116.149 96.7814 116.549 96.4814 116.849C96.0814 117.149 95.7815 117.449 95.3815 117.649C94.5816 118.149 93.6817 118.449 92.6818 118.549C91.6819 118.549 90.782 118.249 89.9821 117.649C89.2822 117.149 88.7823 116.349 88.3823 115.549Z" fill="#373949"/>
<path d="M92.2812 104.747C92.9812 105.547 93.6811 106.447 94.281 107.247C94.881 108.147 95.4809 109.047 96.0808 109.948L96.1808 110.148L96.0808 110.248C95.4809 110.848 94.8809 111.548 94.181 112.148C94.681 111.348 95.1809 110.648 95.7809 109.948V110.248C95.1809 109.348 94.581 108.447 93.9811 107.547C93.2811 106.747 92.7812 105.747 92.2812 104.747Z" fill="#373949"/>
<path d="M88.9821 107.147C89.1821 107.847 89.3821 108.547 89.3821 109.347C89.3821 109.747 89.3821 110.147 89.2821 110.547C89.1821 110.947 88.8821 111.347 88.4822 111.547C88.0822 111.747 87.5823 111.747 87.1823 111.547C86.7824 111.347 86.4824 111.147 86.1825 110.847C85.5825 110.347 85.1826 109.747 84.7826 109.047C84.6826 108.947 84.7826 108.847 84.8826 108.747C84.9826 108.747 85.0826 108.747 85.0826 108.747C85.4825 109.347 85.9825 109.847 86.4824 110.347C86.9824 110.747 87.6823 111.147 88.0822 110.947C88.5822 110.747 88.7822 109.947 88.7822 109.347C88.7822 108.647 88.6822 107.947 88.5822 107.247C88.5822 107.147 88.5822 107.047 88.6822 107.047C88.8821 107.047 88.8821 107.147 88.9821 107.147Z" fill="#373949"/>
<path d="M98.3802 105.047C98.5802 105.747 98.7801 106.347 98.8801 107.047C98.8801 107.347 98.8801 107.747 98.8801 108.147C98.7801 108.547 98.6802 108.947 98.1802 109.147C97.6803 109.347 97.2803 109.147 96.9804 108.947C96.6804 108.747 96.3804 108.447 96.1804 108.247C95.7805 107.747 95.3805 107.147 95.0806 106.447C95.0806 106.347 95.0806 106.247 95.1806 106.247C95.2805 106.247 95.3805 106.247 95.3805 106.347C95.7805 106.847 96.1804 107.447 96.5804 107.947C96.7804 108.147 96.9804 108.447 97.2803 108.547C97.4803 108.747 97.7803 108.847 97.9802 108.747C98.1802 108.647 98.2802 108.447 98.3802 108.147C98.4802 107.847 98.4802 107.547 98.4802 107.247C98.4802 106.647 98.3802 105.947 98.1802 105.247C98.1802 105.147 98.1802 105.047 98.2802 105.047C98.2802 104.947 98.3802 104.947 98.3802 105.047Z" fill="#373949"/>
<path d="M160.168 124.051C164.667 129.852 160.668 135.753 163.668 140.654C162.868 146.555 166.967 148.356 162.068 149.056C155.969 138.154 148.471 125.451 148.471 125.451C148.471 125.451 142.072 119.85 138.573 120.35C138.373 119.85 138.573 118.95 139.172 118.65C141.572 117.349 144.271 118.45 144.271 118.45C144.271 118.45 138.173 107.447 139.272 107.247C140.472 107.047 144.271 112.448 144.271 112.448C144.271 112.448 139.372 103.647 140.572 103.847C141.072 103.947 140.572 103.847 145.971 110.748C145.971 110.748 143.172 103.347 144.471 104.147C146.071 105.147 149.07 110.248 149.07 110.248C149.07 110.248 146.971 104.547 147.971 105.247C148.97 105.947 156.569 120.05 156.569 120.05L160.168 124.051Z" fill="#DE9E9A"/>
<path d="M138.573 120.25C138.373 119.65 138.573 118.95 139.073 118.549C139.573 118.249 140.172 118.049 140.772 117.949C141.972 117.749 143.172 117.849 144.372 118.249L144.272 118.349C142.672 115.449 141.072 112.548 139.772 109.548C139.573 109.148 139.473 108.747 139.373 108.347C139.273 108.147 139.273 107.947 139.173 107.747C139.173 107.547 139.073 107.347 139.273 107.047C139.573 106.947 139.772 107.047 139.972 107.147C140.172 107.247 140.372 107.347 140.472 107.547C140.772 107.847 141.072 108.147 141.372 108.447C142.472 109.648 143.472 110.948 144.472 112.248L144.272 112.348C143.572 111.048 142.772 109.648 142.072 108.247C141.772 107.547 141.372 106.847 141.072 106.147C140.772 105.447 140.472 104.747 140.272 103.946C140.272 103.846 140.272 103.646 140.472 103.546C140.672 103.546 140.772 103.546 140.872 103.646C141.072 103.846 141.172 103.946 141.272 104.147L141.972 105.047L143.372 106.847L146.171 110.448L145.871 110.648C145.471 109.448 145.071 108.347 144.671 107.147C144.472 106.547 144.272 105.947 144.172 105.347C144.072 105.047 144.072 104.747 143.972 104.447C143.972 104.347 143.972 104.247 143.972 104.147C143.972 104.046 143.972 103.946 144.172 103.846C144.372 103.746 144.472 103.846 144.572 103.946L144.771 104.046C145.771 104.847 146.471 105.947 147.171 106.947C147.871 107.947 148.571 109.048 149.171 110.048L148.771 110.248C148.471 109.348 148.171 108.447 147.871 107.547C147.771 107.047 147.571 106.647 147.471 106.147C147.371 105.947 147.371 105.647 147.371 105.447C147.371 105.347 147.371 105.347 147.371 105.247V105.147C147.371 105.047 147.471 105.047 147.571 104.947C147.771 104.847 147.871 104.947 147.971 105.047C148.071 105.047 148.071 105.147 148.171 105.247C149.371 106.847 150.17 108.447 151.17 110.048C153.07 113.348 154.869 116.649 156.669 119.95L160.168 124.051H159.968H160.268C160.968 124.951 161.568 126.051 161.468 127.251C161.368 128.451 160.568 129.352 159.768 130.152C158.969 130.952 158.169 131.652 157.569 132.652C157.269 133.152 157.169 133.653 157.169 134.253C157.169 134.753 157.369 135.353 157.669 135.853C157.369 135.353 157.169 134.853 157.069 134.253C156.969 133.653 157.169 133.052 157.369 132.552C157.869 131.552 158.769 130.752 159.569 129.952C160.268 129.152 161.068 128.251 161.068 127.151C161.168 126.051 160.568 125.051 159.868 124.251H160.168H159.968L156.469 120.15C154.669 116.849 152.87 113.548 150.97 110.248C149.97 108.647 149.071 106.947 147.971 105.447L147.871 105.347C147.871 105.347 147.771 105.347 147.871 105.347C147.871 105.347 147.971 105.347 147.971 105.247V105.347C147.971 105.547 148.071 105.747 148.071 106.047C148.171 106.547 148.271 106.947 148.471 107.447C148.771 108.347 149.071 109.248 149.371 110.148L150.07 112.048L149.071 110.348C148.471 109.248 147.771 108.247 147.071 107.247C146.371 106.247 145.671 105.247 144.771 104.447C144.472 104.247 144.572 104.147 144.572 104.547C144.572 104.847 144.671 105.147 144.671 105.447C144.771 106.047 144.971 106.647 145.171 107.247C145.571 108.447 145.971 109.548 146.371 110.748L146.771 111.748L146.171 110.948L143.372 107.347L141.972 105.547L141.272 104.647C141.172 104.547 141.072 104.347 140.972 104.247H140.772C140.772 104.247 140.772 104.247 140.772 104.347C140.872 105.047 141.172 105.747 141.472 106.447C141.772 107.147 142.072 107.847 142.472 108.547C143.172 109.948 143.872 111.248 144.572 112.648L144.372 112.748C143.372 111.448 142.372 110.148 141.272 108.947C140.972 108.647 140.672 108.347 140.372 108.147C140.172 108.047 140.072 107.847 139.872 107.747C139.672 107.647 139.473 107.547 139.373 107.647C139.273 107.747 139.373 107.947 139.373 108.147C139.373 108.347 139.473 108.547 139.573 108.747C139.672 109.148 139.872 109.548 139.972 109.848C141.272 112.848 142.872 115.749 144.372 118.649L144.472 118.749H144.372C143.272 118.349 141.972 118.249 140.872 118.449C140.272 118.549 139.672 118.749 139.173 119.05C138.673 119.05 138.473 119.75 138.573 120.25C138.673 120.25 138.673 120.25 138.573 120.25C138.573 120.35 138.573 120.25 138.573 120.25Z" fill="#2E3748"/>
<path d="M56.4889 152.156C63.3875 148.656 69.9862 139.854 76.2849 138.454V138.554L84.4833 233.373L58.2885 225.571L59.6882 207.168C57.8886 210.668 43.6914 248.176 43.6914 248.176L29.6942 243.075C29.5943 242.975 27.3947 166.959 56.4889 152.156Z" fill="#3E4A6C"/>
<path d="M76.1851 138.454L84.3841 232.173" stroke="#2E3748" stroke-width="0.4485" stroke-miterlimit="10" stroke-linecap="round"/>
<path d="M60.8894 201.266C60.8894 201.266 60.2889 206.267 59.4883 207.167" stroke="#2E3748" stroke-width="0.4485" stroke-miterlimit="10" stroke-linecap="round"/>
<path d="M99.9802 225.171L93.9814 136.053C97.0808 135.953 100.78 134.353 103.28 136.153C131.474 157.758 146.471 126.851 146.471 126.851L157.869 118.35C157.869 118.35 172.266 136.653 168.666 155.057C164.367 176.762 133.274 190.864 122.876 197.966L125.475 230.673L99.9802 225.171Z" fill="#3E4A6C"/>
<path d="M116.477 195.665C116.477 195.665 118.577 196.965 122.976 198.065" stroke="#2E3748" stroke-width="0.4485" stroke-miterlimit="10" stroke-linecap="round"/>
<path d="M30.8941 239.674C31.294 232.373 32.0939 225.971 33.0937 220.37C37.5928 216.469 41.8919 216.969 45.8911 219.67C43.2916 231.872 40.4922 246.375 40.4922 246.375C40.4922 246.375 41.592 254.777 44.5914 256.678C44.3914 257.178 43.6916 257.678 42.9917 257.578C40.3922 256.978 38.9925 254.377 38.9925 254.377C38.9925 254.377 36.293 266.68 35.2932 266.079C34.2934 265.479 34.9933 258.878 34.9933 258.878C34.9933 258.878 32.8937 268.68 32.0939 267.78C31.7939 267.38 32.0939 267.78 32.5938 258.978C32.5938 258.978 29.7943 266.38 29.3944 264.879C28.8945 263.079 29.9943 257.278 29.9943 257.278C29.9943 257.278 27.7947 262.979 27.4948 261.779C27.1949 260.578 30.7941 244.975 30.7941 244.975L30.8941 239.674Z" fill="#DE9E9A"/>
<path d="M59.6881 207.068C57.8885 210.568 43.1914 248.076 43.1914 248.076L29.1942 242.975C29.1942 242.975 25.7949 179.162 54.8891 164.359" fill="#3E4A6C"/>
<path d="M96.6809 92.0439C98.4805 92.444 96.9808 96.2448 97.0808 98.0452C97.1808 99.4455 98.5805 100.446 96.7809 101.246C95.7811 101.646 90.982 100.846 89.2824 100.746C85.6831 100.546 84.5833 101.346 83.0836 100.946C80.1842 100.246 80.1842 100.146 79.8843 104.547C79.6843 107.947 78.4845 109.247 77.2848 109.648C76.085 110.048 74.9852 109.648 74.9852 109.648C74.9852 109.648 74.3854 106.847 73.5855 103.646C73.0856 101.746 68.0866 101.346 74.4853 97.4451C76.085 96.4448 77.1848 92.0439 79.6843 91.2438C81.8839 90.5436 84.3834 92.8441 88.2826 93.3442C89.7823 93.6443 94.6813 91.6439 96.6809 92.0439Z" fill="#373949"/>
<path d="M77.5844 109.847C77.5844 111.147 76.8845 112.247 75.8846 112.247C74.8848 112.247 74.0849 111.247 73.9849 109.947C73.9849 108.647 74.6848 107.547 75.6847 107.547C76.6846 107.547 77.5844 108.547 77.5844 109.847Z" fill="#E09F9B"/>
<path d="M76.3851 109.247C76.3851 109.247 75.2851 109.047 75.1851 109.947C75.0851 110.847 76.1851 110.647 76.1851 110.647" stroke="#B57A77" stroke-width="0.4282" stroke-miterlimit="10" stroke-linecap="round"/>
<path d="M148.572 125.451C148.572 125.451 142.172 119.85 138.673 120.35C138.473 119.85 138.673 118.949 139.273 118.649C141.672 117.349 144.372 118.449 144.372 118.449" fill="#DE9E9A"/>
<path d="M138.573 120.249C138.373 119.649 138.473 118.949 138.973 118.549C139.473 118.249 140.072 118.049 140.672 117.849C141.272 117.749 141.872 117.649 142.472 117.749C143.072 117.849 143.672 118.049 144.172 118.349C143.572 118.249 142.972 118.149 142.372 118.149C141.772 118.149 141.172 118.049 140.672 118.149C140.072 118.249 139.473 118.349 138.973 118.649C138.673 119.049 138.473 119.749 138.573 120.249C138.673 120.249 138.673 120.249 138.573 120.249C138.573 120.349 138.573 120.249 138.573 120.249Z" fill="#2E3748"/>
<path opacity="0.2" d="M533.442 70.3394C523.044 63.238 514.146 41.3335 502.548 43.834C489.551 46.5346 483.052 45.9344 472.354 45.3343C469.455 50.7354 482.152 58.0369 484.452 59.3372C486.152 60.3374 486.551 58.537 485.752 57.5368L485.552 57.3368C486.851 58.237 488.151 58.9371 489.351 59.6372C491.051 60.6374 491.85 60.2374 491.95 59.4372C495.15 64.1382 500.549 67.2388 503.848 69.0392C508.147 71.4397 504.648 65.7385 503.048 63.8381C507.947 68.339 514.346 71.6397 517.245 73.24C519.745 74.6403 519.645 73.24 518.845 71.4397C521.844 73.14 524.444 74.4403 525.944 75.3405C529.643 77.4409 527.843 73.5401 526.143 71.1396C534.142 75.8406 540.441 75.1404 533.442 70.3394Z" fill="#CAD9E8"/>
<path d="M502.548 43.734C504.048 43.434 505.648 43.534 507.147 43.9341C508.647 44.4342 510.047 45.1343 511.347 46.0345C513.846 47.8349 516.046 50.1354 518.045 52.5358C522.044 57.2368 525.644 62.4379 529.943 66.7388C531.043 67.839 532.242 68.8392 533.442 69.6393C534.042 70.0394 534.742 70.5395 535.342 71.0396C535.642 71.3397 535.942 71.5397 536.242 71.9398C536.542 72.2399 536.841 72.64 536.941 73.1401C537.041 73.4401 536.941 73.8402 536.641 74.1403C536.442 74.4403 536.142 74.5404 535.942 74.5404C535.442 74.6404 535.042 74.6404 534.642 74.6404C533.842 74.5404 533.042 74.4403 532.242 74.2403C530.743 73.8402 529.243 73.1401 527.843 72.4399C522.344 69.6394 517.545 65.1384 514.346 59.8373V59.7373H514.446C518.045 64.7383 522.844 68.9392 528.343 71.6398C529.743 72.3399 531.143 72.94 532.542 73.3401C533.242 73.5401 534.042 73.7402 534.742 73.7402C535.142 73.7402 535.442 73.7402 535.742 73.6402C535.842 73.6402 535.942 73.5401 536.042 73.5401C536.042 73.5401 536.042 73.5401 536.042 73.4401C536.042 73.2401 535.842 72.94 535.542 72.64C535.342 72.3399 535.042 72.1399 534.742 71.8398C534.142 71.3397 533.542 70.9396 532.942 70.4395C531.643 69.5393 530.443 68.4391 529.443 67.3389C525.044 62.838 521.645 57.6369 517.745 52.8359C515.746 50.4354 513.746 48.1349 511.247 46.2346C510.047 45.3344 508.647 44.5342 507.247 44.0341C505.648 43.634 504.148 43.534 502.548 43.734C502.548 43.8341 502.548 43.8341 502.548 43.734C502.548 43.8341 502.548 43.734 502.548 43.734Z" fill="#2E3748"/>
<path d="M526.144 70.9401C526.544 71.5402 527.044 72.2403 527.344 72.8404C527.744 73.5406 528.044 74.2407 528.144 75.0409C528.144 75.2409 528.144 75.541 527.944 75.741C527.744 75.9411 527.444 75.9411 527.244 75.9411C526.844 75.9411 526.444 75.741 526.144 75.541L524.144 74.5408C521.445 73.1405 518.745 71.7402 516.046 70.1399C513.446 68.5396 510.847 66.8392 508.647 64.6388C507.548 63.5385 506.548 62.3383 505.748 60.938C504.948 59.6377 504.448 58.0374 504.448 56.5371C504.448 56.5371 504.448 56.5371 504.548 56.5371C504.848 58.0374 505.448 59.4377 506.348 60.6379C507.248 61.8382 508.247 62.9384 509.347 63.9386C511.547 65.939 513.946 67.8394 516.446 69.4398C518.945 71.1401 521.645 72.5404 524.344 74.0407L526.344 75.1409C526.644 75.341 527.044 75.441 527.344 75.541C527.744 75.641 527.844 75.441 527.844 75.0409C527.744 74.3408 527.444 73.6406 527.144 72.9405C526.844 72.3403 526.444 71.6402 526.144 70.9401C526.044 70.9401 526.044 70.9401 526.144 70.9401C526.044 70.9401 526.044 70.9401 526.144 70.9401Z" fill="#2E3748"/>
<path d="M491.952 59.2373C491.952 59.5374 491.853 59.8374 491.553 60.0375C491.353 60.2375 490.953 60.2375 490.653 60.2375C490.053 60.2375 489.553 59.9374 489.053 59.7374C488.053 59.2373 487.153 58.7372 486.153 58.2371C485.253 57.637 484.253 57.1369 483.453 56.3367C482.654 55.5365 481.954 54.6364 481.554 53.6362V53.5361C481.554 53.5361 481.554 53.5361 481.654 53.5361L484.153 55.6366C484.953 56.3367 485.753 57.0368 486.653 57.637C487.553 58.2371 488.453 58.8372 489.353 59.3373C489.753 59.6374 490.253 59.8374 490.753 59.9374C490.953 59.9374 491.253 59.9374 491.453 59.8374C491.653 59.7374 491.753 59.5374 491.952 59.2373C491.853 59.2373 491.853 59.2373 491.952 59.2373Z" fill="#2E3748"/>
<path d="M485.753 57.4372C486.153 57.9373 486.453 58.7375 486.053 59.4376C485.753 59.7377 485.353 59.8377 484.953 59.7377C484.553 59.6377 484.253 59.4376 483.953 59.3376C482.753 58.7375 481.654 58.0374 480.454 57.3372C479.354 56.6371 478.154 55.9369 477.154 55.0367C476.155 54.1366 475.155 53.2364 474.355 52.1362V52.0361C474.355 52.0361 474.355 52.0361 474.455 52.0361C475.655 52.7363 476.755 53.4364 477.854 54.2366C478.954 55.0367 479.954 55.8369 481.054 56.6371C482.153 57.4372 483.253 58.2374 484.353 58.9375C484.653 59.1376 484.853 59.3376 485.153 59.4376C485.453 59.5377 485.753 59.5377 485.953 59.3376C486.153 58.7375 486.053 57.9373 485.753 57.4372C485.653 57.4372 485.653 57.4372 485.753 57.4372C485.653 57.3372 485.753 57.3372 485.753 57.4372Z" fill="#2E3748"/>
<path opacity="0.2" d="M421.965 1.82561C433.263 7.42676 456.658 4.42615 460.257 15.7285C464.256 28.4311 468.056 33.7321 473.755 42.834C470.455 47.9351 457.858 40.5335 455.658 39.1333C453.958 38.133 455.358 36.8328 456.658 37.1328L456.958 37.2329C455.458 36.5327 454.258 35.7326 453.059 35.0324C451.359 34.0322 451.259 33.232 451.959 32.6319C446.26 32.1318 440.961 28.9312 437.762 27.0308C433.563 24.4302 440.261 24.7303 442.661 25.2304C436.362 23.13 430.363 19.2292 427.464 17.4288C424.964 15.9285 426.264 15.3284 428.264 15.1283C425.264 13.428 422.865 11.7276 421.465 10.8275C417.866 8.627 422.065 8.32694 424.964 8.627C416.966 3.92604 414.366 -1.97517 421.965 1.82561Z" fill="#CAD9E8"/>
<path d="M460.257 15.7285C459.757 14.2281 458.857 12.9279 457.758 11.9277C456.658 10.9275 455.258 10.1273 453.858 9.52718C451.059 8.32694 447.96 7.6268 444.96 7.02667C438.861 5.92645 432.663 5.42634 426.564 3.92604C425.064 3.52596 423.564 3.02585 422.065 2.32571C421.365 2.02565 420.665 1.62557 419.965 1.42553C419.565 1.32551 419.265 1.22548 418.865 1.12546C418.565 1.02544 418.166 1.02544 417.966 1.12546C417.866 1.12546 417.866 1.12546 417.866 1.22548C417.866 1.22548 417.866 1.42553 417.866 1.52555C417.966 1.82561 418.066 2.12567 418.265 2.42573C418.665 3.02585 419.165 3.62598 419.665 4.12608C420.765 5.2263 421.965 6.12649 423.165 7.02667C428.164 10.5274 434.162 12.6278 440.361 13.328C440.361 13.328 440.361 13.328 440.361 13.428C440.361 13.428 440.361 13.428 440.261 13.428C434.062 13.328 427.864 11.3276 422.565 7.82684C421.265 6.92665 419.965 6.02647 418.865 4.82622C418.265 4.2261 417.766 3.62598 417.266 2.92583C417.066 2.52575 416.866 2.22569 416.666 1.72559C416.566 1.52555 416.566 1.22548 416.666 0.825403C416.766 0.525341 417.066 0.22528 417.366 0.125259C417.966 -0.0747816 418.365 0.0252389 418.765 0.125259C419.165 0.22528 419.565 0.3253 419.965 0.525341C420.765 0.825403 421.465 1.12546 422.165 1.52555C423.564 2.22569 424.964 2.72579 426.464 3.12587C432.363 4.7262 438.661 5.32632 444.76 6.52657C447.76 7.12669 450.859 7.82684 453.658 9.22712C455.058 9.92727 456.458 10.7274 457.558 11.8277C459.057 12.9279 459.857 14.2281 460.257 15.7285C460.357 15.7285 460.357 15.8285 460.257 15.7285C460.257 15.8285 460.257 15.8285 460.257 15.7285Z" fill="#2E3748"/>
<path d="M428.364 15.1282C427.764 15.2283 427.065 15.3283 426.565 15.6283C426.265 15.8284 426.365 16.1284 426.565 16.3285C426.765 16.5285 427.065 16.7286 427.265 16.9286C428.364 17.6287 429.564 18.2289 430.664 18.929C432.963 20.2293 435.263 21.5295 437.563 22.5298C439.962 23.63 442.362 24.5302 444.861 25.2303C447.361 25.9305 449.86 26.4306 452.56 26.3305H452.659C452.659 26.3305 452.659 26.3305 452.659 26.4306C450.06 27.0307 447.361 26.7306 444.761 26.1305C442.162 25.5304 439.762 24.4301 437.363 23.2299C434.963 22.0297 432.763 20.7294 430.564 19.3291C429.464 18.629 428.364 17.9288 427.265 17.1286C426.965 16.9286 426.765 16.7286 426.565 16.4285C426.465 16.3285 426.365 16.1284 426.365 15.9284C426.365 15.7284 426.565 15.5283 426.665 15.4283C427.065 15.1282 427.764 15.1282 428.364 15.1282C428.464 15.0282 428.464 15.0282 428.364 15.1282C428.464 15.1282 428.464 15.1282 428.364 15.1282Z" fill="#2E3748"/>
<path d="M443.061 25.3301C441.761 25.1301 440.562 25.03 439.262 25.03C438.662 25.03 437.962 25.1301 437.362 25.2301C437.062 25.3301 436.762 25.4301 436.762 25.6302C436.762 25.7302 436.862 26.0302 437.162 26.2303C437.662 26.6304 438.162 26.9304 438.762 27.2305C439.362 27.5306 439.862 27.8306 440.462 28.1307C441.561 28.7308 442.761 29.3309 443.861 29.831C446.16 30.8312 448.66 31.6314 451.059 32.0315C453.559 32.5316 456.058 32.4316 458.558 31.8314H458.658C458.658 31.8314 458.658 31.8314 458.658 31.9315C456.258 33.0317 453.559 33.3317 450.96 33.0317C448.36 32.7316 445.861 31.7314 443.561 30.5312C442.361 29.931 441.261 29.3309 440.162 28.6308C439.562 28.3307 439.062 27.9306 438.562 27.6306C438.062 27.3305 437.462 26.9304 436.962 26.5303C436.862 26.4303 436.762 26.2303 436.662 26.1303C436.562 25.9302 436.462 25.7302 436.562 25.4301C436.762 24.93 437.162 24.93 437.562 24.83C438.262 24.73 438.862 24.73 439.562 24.73C440.462 24.73 441.761 24.93 443.061 25.3301C443.061 25.2301 443.061 25.2301 443.061 25.3301C443.061 25.2301 443.061 25.3301 443.061 25.3301Z" fill="#2E3748"/>
<path d="M452.059 32.6319C451.859 32.8319 451.759 33.0319 451.759 33.232C451.759 33.432 451.859 33.7321 452.059 33.8321C452.359 34.2322 452.859 34.5322 453.359 34.7323C454.259 35.2324 455.259 35.8325 456.259 36.2326C457.259 36.7327 458.258 37.0328 459.158 37.4328L462.158 38.5331C462.158 38.5331 462.158 38.5331 462.158 38.6331C461.058 38.7331 459.958 38.6331 458.858 38.333C457.759 38.033 456.759 37.4328 455.859 36.9327C454.959 36.3326 454.059 35.7325 453.159 35.1324C452.659 34.8323 452.259 34.4322 451.959 33.9321C451.759 33.7321 451.659 33.432 451.759 33.132C451.559 33.0319 451.759 32.7319 452.059 32.6319C452.059 32.5318 452.059 32.6319 452.059 32.6319Z" fill="#2E3748"/>
<path d="M485.452 46.9344C488.851 41.5333 487.252 34.3319 481.853 30.9312C476.454 27.5305 469.255 29.1308 465.856 34.5319L464.056 37.5325C463.156 38.9328 461.557 39.6329 459.957 39.2329C455.858 38.2327 447.66 37.5325 444.36 42.7336L444.46 42.8336C444.26 42.9336 444.16 43.1337 444.06 43.3337C441.861 46.8344 449.659 55.6362 461.457 63.1378C473.254 70.6393 484.652 73.8399 486.852 70.3392C486.952 70.1392 487.052 69.9391 487.152 69.7391L487.252 69.8391C490.551 64.538 484.152 57.2365 483.452 53.5358C482.653 50.0351 485.452 46.9344 485.452 46.9344Z" fill="#F9DD4A"/>
<path d="M444.16 43.4339C443.56 44.4341 443.86 45.7344 444.26 46.7346C444.66 47.8348 445.36 48.835 446.06 49.7352C447.459 51.6356 449.059 53.2359 450.759 54.8362C454.158 57.9369 457.957 60.7374 461.956 63.1379C465.956 65.5384 470.055 67.7389 474.354 69.3392C476.554 70.1394 478.753 70.8395 481.053 71.2396C482.152 71.4396 483.352 71.5397 484.452 71.3396C485.552 71.2396 486.552 70.6395 486.851 69.7393L486.951 69.2392L487.351 69.5393H487.451L486.951 69.6393C487.951 67.9389 488.051 65.9385 487.451 64.0381C486.951 62.1377 486.052 60.3374 485.152 58.437C484.652 57.5368 484.152 56.6366 483.752 55.6364C483.352 54.7362 482.952 53.636 482.852 52.5358C482.752 51.4355 483.052 50.3353 483.452 49.3351C483.852 48.3349 484.452 47.4347 485.152 46.5345L485.052 46.6346C486.752 43.934 487.151 40.5333 486.252 37.4327C485.352 34.332 483.052 31.7315 480.153 30.4312C477.253 29.131 473.754 29.131 470.755 30.5313C469.255 31.2314 467.955 32.2316 466.855 33.4319C466.356 34.032 465.856 34.7321 465.456 35.4323L464.156 37.5327C464.156 37.5327 464.156 37.5327 464.056 37.5327C464.056 37.5327 464.056 37.5327 464.056 37.4327L465.256 35.2322C465.656 34.5321 466.056 33.7319 466.556 33.1318C467.555 31.8315 468.955 30.7313 470.455 29.9311C473.454 28.3308 477.253 28.2308 480.453 29.6311C483.652 30.9313 486.252 33.7319 487.251 37.0326C488.251 40.3333 487.851 44.1341 485.952 47.0346C484.752 48.4349 483.852 50.4353 483.952 52.3357C483.952 53.3359 484.252 54.1361 484.652 55.1363C485.052 56.0365 485.552 56.9367 485.952 57.8369C486.851 59.6372 487.751 61.5376 488.251 63.638C488.551 64.6382 488.651 65.7385 488.551 66.8387C488.551 67.9389 488.051 68.9391 487.551 69.9393L487.351 70.2394L487.051 70.0394L486.951 69.9393L487.551 69.7393C487.451 70.0394 487.351 70.3394 487.051 70.6395C486.851 70.9395 486.552 71.1396 486.252 71.3396C485.652 71.6397 485.052 71.8397 484.452 71.9397C483.252 72.1398 482.052 72.0398 480.853 71.8397C478.553 71.4396 476.254 70.7395 474.054 69.8393C469.655 68.139 465.556 65.9385 461.557 63.438C457.657 60.9375 453.858 58.1369 450.459 54.9363C448.759 53.3359 447.159 51.6356 445.76 49.7352C445.06 48.735 444.46 47.7348 444.06 46.7346C443.66 45.7344 443.46 44.4341 444.16 43.4339C444.06 43.3339 444.06 43.3339 444.16 43.4339Z" fill="#2E3748"/>
<path d="M486.951 70.4394C486.252 71.4396 485.052 71.7396 483.852 71.8397C482.652 71.9397 481.553 71.7396 480.353 71.5396C478.053 71.1395 475.854 70.4394 473.754 69.6392C469.455 68.0389 465.356 65.8384 461.357 63.4379C457.457 60.9374 453.658 58.2369 450.259 55.1362C448.559 53.5359 446.959 51.9356 445.56 50.0352C444.86 49.135 444.26 48.1348 443.76 46.9346C443.56 46.3344 443.36 45.8343 443.26 45.1342C443.16 44.5341 443.26 43.8339 443.66 43.2338C444.06 42.6337 444.56 42.2336 445.16 42.0336C445.76 41.8335 446.36 41.7335 446.959 41.6335C448.159 41.5335 449.359 41.6335 450.459 41.8335C452.758 42.2336 454.958 42.9337 457.157 43.8339C461.457 45.5343 465.556 47.7347 469.555 50.2352C473.454 52.7358 477.153 55.5363 480.453 58.837C482.152 60.4373 483.652 62.1377 485.052 64.0381C485.752 64.9383 486.352 65.9385 486.751 67.0387C487.351 68.0389 487.551 69.3392 486.951 70.4394ZM486.851 70.3394C487.451 69.3391 487.151 68.1389 486.751 67.0387C486.352 65.9385 485.652 65.0383 485.052 64.1381C483.652 62.3377 482.052 60.6374 480.353 59.1371C476.953 56.1364 473.154 53.4359 469.255 51.0354C465.356 48.6349 461.357 46.4345 457.057 44.7341C454.958 43.9339 452.758 43.1338 450.559 42.7337C449.459 42.5337 448.359 42.4336 447.259 42.4336C446.16 42.5337 445.06 42.8337 444.56 43.6339C444.06 44.4341 444.26 45.6343 444.66 46.6345C445.06 47.6347 445.66 48.6349 446.36 49.5351C447.659 51.3355 449.259 53.0358 450.959 54.6361C454.258 57.7368 457.957 60.5374 461.856 63.0379C465.756 65.5384 469.755 67.7388 474.054 69.4392C476.154 70.2393 478.353 71.0395 480.653 71.4396C481.752 71.6396 482.952 71.7396 484.052 71.7396C484.952 71.6396 486.252 71.3396 486.851 70.3394Z" fill="#2E3748"/>
<path d="M475.454 54.6362C474.354 56.4365 472.554 57.7368 470.555 58.2369C469.555 58.537 468.455 58.537 467.355 58.3369C466.256 58.1369 465.256 57.6368 464.456 57.0367C463.556 56.4365 462.756 55.8364 461.956 55.0363C461.157 54.2361 460.557 53.3359 460.357 52.2357C460.057 51.1355 460.257 49.9352 460.757 48.935C461.157 47.9348 461.856 47.1346 462.556 46.3345H462.656C462.656 46.3345 462.656 46.3345 462.656 46.4345C462.156 47.3347 461.656 48.2349 461.457 49.135C461.157 50.0352 461.157 51.0354 461.357 51.9356C461.856 53.736 463.356 55.2363 464.956 56.3365C466.556 57.5368 468.555 58.0369 470.555 57.6368C472.454 57.4367 474.254 56.3365 475.454 54.6362Z" fill="#2E3748"/>
<path opacity="0.2" d="M657.402 125.034C664.097 106.566 661.345 104.206 659.331 102.893C650.725 97.38 647.139 93.9457 641.268 87.9751L638.908 99.3702L642.636 105.553C641.752 107.171 641.431 108.64 641.042 109.985C640.625 111.426 640.994 111.949 641.626 111.924C639.617 117.069 641.505 123.135 642.62 126.478C643.409 128.789 644.086 127.528 644.49 125.77C647.419 149.111 649.93 145.465 657.402 125.034Z" fill="#CAD9E8"/>
<path d="M657.402 125.035C656.238 128.342 655.169 131.677 653.84 134.832C653.175 136.409 652.483 138.083 651.626 139.605C651.184 140.414 650.77 141.127 649.971 141.729C649.82 141.893 649.572 142.029 649.228 142.138C649.104 142.206 648.912 142.151 648.789 142.219C648.693 142.191 648.5 142.135 648.404 142.108C647.856 141.845 647.555 141.445 647.35 141.073C646.845 140.302 646.587 139.394 646.301 138.583C646.016 137.771 645.854 136.891 645.596 135.983C645.149 134.292 644.921 132.56 644.694 130.828C644.238 127.364 644.003 123.859 643.864 120.383L643.892 120.287C643.892 120.287 643.892 120.287 643.988 120.314C644.663 123.738 645.118 127.202 645.697 130.598C645.924 132.33 646.276 133.994 646.599 135.753C646.761 136.633 646.951 137.417 647.113 138.297C647.302 139.081 647.588 139.893 647.997 140.636C648.202 141.008 648.435 141.283 648.723 141.367C648.819 141.395 648.819 141.395 648.915 141.423C649.011 141.45 649.011 141.45 649.135 141.382C649.259 141.314 649.478 141.273 649.63 141.109C650.277 140.672 650.719 139.863 651.134 139.15C651.99 137.628 652.751 136.078 653.415 134.501C654.84 131.373 656.101 128.094 657.362 124.815C657.334 124.911 657.334 124.911 657.402 125.035C657.43 124.939 657.43 124.939 657.402 125.035Z" fill="#2E3748"/>
<path d="M644.941 122.777C644.951 123.821 644.893 124.742 644.711 125.73C644.572 126.211 644.53 126.719 644.295 127.171C644.143 127.336 644.032 127.72 643.688 127.829C643.468 127.869 643.304 127.717 643.112 127.662C643.044 127.538 642.975 127.414 642.811 127.262C642.538 126.767 642.361 126.299 642.184 125.831L641.721 124.551C641.367 123.616 641.137 122.612 640.879 121.704C640.392 119.793 640.055 117.717 640.227 115.684C640.398 113.651 641.202 111.593 642.471 110.086C642.471 110.086 642.471 110.086 642.567 110.114C642.567 110.114 642.567 110.114 642.539 110.21C641.695 112.048 641.263 113.902 641.215 115.866C641.167 117.831 641.243 119.727 641.635 121.611C641.769 122.587 642.027 123.495 642.257 124.498C642.515 125.406 642.745 126.41 643.127 127.25C643.167 127.47 643.332 127.621 643.456 127.553C643.552 127.581 643.731 127.32 643.787 127.128C644.022 126.676 644.16 126.195 644.272 125.811C644.673 124.782 644.855 123.794 644.941 122.777C644.845 122.749 644.941 122.777 644.941 122.777Z" fill="#2E3748"/>
<path opacity="0.2" d="M602.887 83.2046C601.088 83.308 599.713 83.7426 601.879 84.8909C604.922 86.6057 610.515 89.5801 615.943 88.4459C615.873 89.0501 616.269 89.4775 617.781 89.2907C619.168 89.1721 620.679 88.9853 622.398 88.442L627.779 93.2292L639.411 92.9557C634.614 86.1509 631.854 82.019 627.931 72.5519C626.991 70.4051 625.093 67.2518 605.828 70.5201C584.529 74.3443 580.458 76.1842 602.887 83.2046Z" fill="#CAD9E8"/>
<path d="M639.479 93.0799C637.334 90.0631 635.188 87.0463 633.29 83.893C631.391 80.7397 629.769 77.3539 628.366 73.9276C627.984 73.0881 627.726 72.1804 627.193 71.5052C626.66 70.83 625.823 70.4835 624.987 70.1369C623.258 69.636 621.418 69.5194 619.647 69.5266C615.98 69.6094 612.297 70.1043 608.684 70.7231C605.07 71.3419 601.36 71.9329 597.814 72.6756C596.055 72.9989 594.173 73.3905 592.454 73.9338C591.547 74.1915 590.736 74.4771 589.897 74.8587C589.182 75.1721 588.287 75.7459 588.436 76.3098C588.449 76.6258 588.777 76.9293 589.106 77.2327C589.435 77.5362 589.791 77.7436 590.243 77.9788C591.052 78.4215 591.861 78.8641 592.697 79.2106C594.343 79.9998 596.139 80.6246 597.84 81.2216C601.338 82.4435 604.836 83.6654 608.389 84.6951C608.389 84.6951 608.389 84.6951 608.361 84.7912C604.78 83.8575 601.227 82.8278 597.701 81.702C595.904 81.0772 594.204 80.4802 592.434 79.7592C591.598 79.4127 590.665 79.0383 589.884 78.4996C589.432 78.2644 589.076 78.057 588.651 77.7257C588.323 77.4222 587.898 77.091 587.681 76.4032C587.572 76.0593 587.655 75.7711 587.739 75.4828C587.918 75.2225 588.097 74.9621 588.249 74.7977C588.648 74.4969 589.048 74.1961 589.515 74.0192C590.354 73.6376 591.289 73.2838 592.196 73.026C594.011 72.5106 595.798 72.0912 597.584 71.6718C601.226 70.9569 604.868 70.242 608.55 69.7471C612.232 69.2522 615.886 68.8534 619.649 68.7984C621.517 68.819 623.452 68.9635 625.249 69.5883C626.21 69.8666 627.087 70.4331 627.716 71.1362C628.318 71.9352 628.575 72.843 628.957 73.6825C630.36 77.1087 631.887 80.4668 633.757 83.7161C635.408 87.0059 637.457 89.9948 639.479 93.0799C639.575 93.1077 639.575 93.1077 639.479 93.0799C639.575 93.1077 639.479 93.0799 639.479 93.0799Z" fill="#2E3748"/>
<path d="M616.068 88.3771C615.957 88.7613 616.258 89.1608 616.669 89.176C617.054 89.2874 617.493 89.2066 617.837 89.098C618.717 88.9364 619.472 88.8431 620.256 88.6537C621.039 88.4643 621.85 88.1788 622.538 87.9616C623.321 87.7722 624.132 87.4868 624.916 87.2974L625.012 87.3252C624.406 87.9823 623.635 88.4877 622.92 88.801C622.081 89.1825 621.229 89.248 620.377 89.3135C619.525 89.379 618.674 89.4445 617.822 89.51C617.41 89.4948 616.998 89.4795 616.518 89.3403C616.326 89.2847 616.065 89.1051 616.025 88.8852C615.888 88.6374 615.944 88.4453 616 88.2532C615.972 88.3492 615.972 88.3492 616.068 88.3771Z" fill="#2E3748"/>
<path d="M643.308 97.834C646.739 94.2468 646.608 88.5856 643.021 85.1514C639.435 81.7172 633.776 81.8476 630.345 85.4348L628.498 87.5027C627.616 88.3926 626.296 88.635 625.172 88.205C622.238 86.8341 616.215 84.9847 612.811 88.4759L612.907 88.5037C612.784 88.5719 612.66 88.6402 612.508 88.8045C610.289 91.0771 614.877 98.9666 622.707 106.442C630.537 113.917 638.611 118.028 640.83 115.755C640.954 115.687 641.01 115.495 641.161 115.33L641.257 115.358C644.565 111.839 640.824 105.34 640.834 102.428C640.692 99.6792 643.308 97.834 643.308 97.834Z" fill="#F9DD4A"/>
<path d="M612.577 88.9281C611.97 89.5854 611.98 90.6296 612.17 91.4134C612.332 92.2934 612.713 93.1329 612.999 93.9445C613.79 95.5275 614.801 97.07 615.84 98.5164C617.918 101.409 620.394 104.001 622.995 106.525C625.624 108.953 628.404 111.216 631.487 113.151C632.981 114.105 634.598 114.99 636.203 115.559C637.04 115.906 637.932 116.06 638.756 116.091C639.579 116.121 640.363 115.932 640.777 115.219L641.012 114.766L641.437 115.097L641.533 115.125L640.997 115.178C641.935 114.096 642.379 112.559 642.192 111.047C642.101 109.563 641.722 107.995 641.219 106.496C641.029 105.712 640.716 104.996 640.526 104.212C640.337 103.429 640.175 102.549 640.329 101.656C640.483 100.764 640.801 100.023 641.312 99.3377C641.822 98.6526 642.333 97.9675 643.007 97.4341L642.98 97.5302C644.647 95.7227 645.562 93.2804 645.213 90.8884C644.988 88.4283 643.663 86.1702 641.677 84.7615C639.69 83.3528 637.042 82.7935 634.596 83.3342C633.372 83.6045 632.258 84.2187 631.212 84.9568C630.262 85.7227 629.448 86.7365 628.538 87.7224C628.538 87.7224 628.538 87.7224 628.442 87.6946C628.442 87.6946 628.442 87.6946 628.47 87.5985L629.739 86.0918C630.097 85.571 630.552 85.078 631.075 84.709C632.053 83.847 633.264 83.2606 634.515 82.8942C637.017 82.1614 639.913 82.5842 642.16 84.1724C644.434 85.6646 645.895 88.1705 646.257 90.8785C646.522 93.5587 645.593 96.4131 643.677 98.3571C642.575 99.2874 641.582 100.562 641.385 101.962C641.287 102.663 641.38 103.419 641.502 104.079C641.691 104.862 641.909 105.55 642.098 106.334C642.477 107.902 642.98 109.401 643.016 111.077C643.175 112.686 642.743 114.539 641.558 115.757L641.283 115.99L641.05 115.714L640.954 115.686L641.518 115.537C641.283 115.99 640.856 116.387 640.292 116.536C639.825 116.713 639.289 116.766 638.781 116.723C637.861 116.664 636.901 116.386 636.064 116.039C634.391 115.346 632.774 114.461 631.184 113.48C628.1 111.545 625.348 109.186 622.747 106.662C620.147 104.138 617.698 101.45 615.62 98.5568C614.581 97.1104 613.57 95.5679 612.903 93.9167C612.521 93.0772 612.236 92.2655 612.074 91.3856C611.788 90.5739 611.778 89.5297 612.577 88.9281C612.508 88.8042 612.508 88.8042 612.577 88.9281C612.604 88.832 612.577 88.9281 612.577 88.9281Z" fill="#2E3748"/>
<path d="M640.802 115.851C640.1 116.481 639.124 116.615 638.232 116.46C637.34 116.306 636.476 116.055 635.639 115.709C633.966 115.016 632.445 114.158 630.923 113.301C627.936 111.394 625.156 109.131 622.499 106.799C619.871 104.371 617.422 101.683 615.344 98.7901C614.305 97.3437 613.294 95.8012 612.531 94.1222C612.149 93.2827 611.768 92.4432 611.634 91.4672C611.553 91.0272 611.5 90.4912 611.543 89.983C611.586 89.4748 611.752 88.8983 612.152 88.5975C612.579 88.2006 613.046 88.0237 613.514 87.8468C614.049 87.7938 614.461 87.8091 614.969 87.8521C615.889 87.9104 616.822 88.2848 617.658 88.6314C619.331 89.3245 620.949 90.2097 622.443 91.1632C625.526 93.098 628.306 95.3614 630.811 97.8574C633.411 100.381 635.764 103.042 637.718 106.003C638.757 107.449 639.644 109.06 640.311 110.711C640.693 111.551 640.979 112.362 641.141 113.242C641.522 114.082 641.532 115.126 640.802 115.851ZM640.734 115.727C641.34 115.07 641.302 114.122 641.141 113.242C640.979 112.362 640.597 111.523 640.284 110.807C639.493 109.224 638.454 107.778 637.415 106.331C635.214 103.507 632.833 100.942 630.204 98.5147C627.672 96.1148 624.892 93.8513 621.904 91.9444C620.411 90.9909 618.889 90.1335 617.312 89.4682C616.476 89.1217 615.707 88.899 614.815 88.7446C614.019 88.6181 613.168 88.6837 612.617 89.1488C612.162 89.6417 612.104 90.5621 612.293 91.3459C612.455 92.2258 612.741 93.0375 613.054 93.7531C613.749 95.3082 614.76 96.8507 615.703 98.2693C617.781 101.162 620.134 103.823 622.666 106.222C625.171 108.718 627.951 110.982 630.91 112.985C632.404 113.938 633.898 114.892 635.599 115.489C636.435 115.835 637.299 116.086 638.096 116.212C639.18 116.423 640.127 116.385 640.734 115.727Z" fill="#2E3748"/>
<path d="M634.561 102.171C633.499 103.321 631.917 104.113 630.338 104.175C628.73 104.334 626.961 103.614 625.867 102.359C625.306 101.78 624.745 101.201 624.212 100.526C623.774 99.8785 623.42 98.9429 623.355 98.0908C623.317 97.1427 623.663 96.3058 624.173 95.6207C624.684 94.9356 625.358 94.4022 626.005 93.9649L626.101 93.9928C626.101 93.9928 626.101 93.9928 626.074 94.0888C625.08 95.363 624.183 96.665 624.398 98.0809C624.517 99.469 625.392 100.764 626.418 101.894C627.416 103.121 628.801 103.73 630.353 103.763C631.809 103.769 633.335 103.17 634.561 102.171C634.492 102.047 634.588 102.075 634.561 102.171C634.588 102.075 634.561 102.171 634.561 102.171Z" fill="#2E3748"/>
<path opacity="0.2" d="M524.72 197.757C511.522 192.956 496.025 171.652 484.128 177.453C470.83 183.954 463.632 184.955 451.934 187.255C450.334 193.856 465.931 198.257 468.731 199.057C470.93 199.658 470.83 197.557 469.631 196.757L469.331 196.557C471.03 197.257 472.63 197.657 474.03 197.957C476.129 198.557 476.829 197.957 476.829 196.957C481.628 201.158 488.227 203.058 492.226 204.158C497.525 205.559 492.226 200.358 489.927 198.757C496.425 202.258 504.224 204.058 507.823 205.059C510.922 205.859 510.422 204.459 509.023 202.658C512.722 203.658 515.921 204.459 517.721 204.859C522.32 206.059 519.221 202.458 516.821 200.258C526.919 203.358 533.618 200.958 524.72 197.757Z" fill="#CAD9E8"/>
<path d="M484.127 177.353C485.727 176.553 487.427 176.253 489.226 176.353C490.926 176.453 492.626 176.853 494.325 177.553C497.525 178.853 500.524 180.753 503.324 182.754C508.923 186.755 514.221 191.356 520.02 194.956C521.52 195.857 523.02 196.557 524.619 197.157C525.419 197.457 526.219 197.757 527.019 198.157C527.419 198.357 527.819 198.557 528.219 198.857C528.619 199.157 529.019 199.457 529.318 199.957C529.418 200.257 529.518 200.658 529.318 201.058C529.118 201.358 528.919 201.558 528.619 201.658C528.119 201.958 527.719 202.058 527.219 202.158C526.319 202.358 525.419 202.358 524.519 202.358C522.72 202.258 521.02 202.058 519.32 201.658C512.522 200.057 506.123 196.557 501.224 191.656V191.556C501.224 191.556 501.224 191.556 501.324 191.556C506.623 195.957 512.822 199.257 519.52 200.658C521.22 201.058 522.92 201.258 524.519 201.358C525.319 201.358 526.219 201.358 527.019 201.258C527.419 201.158 527.819 201.058 528.119 200.958C528.219 200.858 528.419 200.758 528.419 200.758C528.419 200.658 528.419 200.658 528.419 200.558C528.319 200.357 528.019 200.057 527.719 199.857C527.419 199.657 527.019 199.457 526.619 199.257C525.919 198.857 525.119 198.557 524.319 198.257C522.72 197.557 521.12 196.757 519.62 195.857C513.722 192.156 508.523 187.455 503.024 183.454C500.224 181.454 497.425 179.453 494.225 178.153C492.626 177.453 491.026 177.053 489.226 176.853C487.527 176.453 485.727 176.753 484.127 177.353C484.127 177.453 484.127 177.453 484.127 177.353C484.127 177.453 484.127 177.353 484.127 177.353Z" fill="#2E3748"/>
<path d="M516.921 200.357C517.821 201.158 518.721 201.958 519.521 202.958C519.921 203.458 520.321 203.958 520.321 204.658C520.321 204.858 520.221 205.058 520.021 205.158C519.821 205.258 519.621 205.358 519.521 205.358C519.221 205.358 518.821 205.358 518.521 205.358C516.122 204.858 513.722 204.358 511.422 203.758C509.023 203.158 506.623 202.658 504.424 201.758C502.124 200.858 499.925 199.857 497.825 198.557C497.825 198.557 497.825 198.557 497.825 198.457C497.825 198.457 497.825 198.457 497.925 198.457C500.225 199.357 502.424 200.157 504.824 200.858C507.123 201.558 509.423 202.358 511.722 203.058C514.022 203.758 516.421 204.358 518.721 204.958C519.221 205.058 520.021 205.158 520.021 204.658C520.021 204.158 519.621 203.658 519.321 203.158C518.621 202.158 517.721 201.258 516.921 200.357C516.821 200.357 516.821 200.357 516.921 200.357Z" fill="#2E3748"/>
<path d="M489.726 198.557C490.826 199.258 491.726 200.058 492.626 200.958C493.126 201.358 493.525 201.858 493.925 202.358C494.125 202.558 494.325 202.858 494.525 203.158C494.625 203.458 494.825 203.758 494.725 204.259C494.625 204.459 494.425 204.659 494.225 204.659C494.025 204.759 493.825 204.759 493.725 204.759C493.425 204.759 493.026 204.659 492.726 204.659L490.926 204.259C489.726 203.958 488.526 203.658 487.327 203.358C484.927 202.658 482.528 201.758 480.428 200.258C478.329 198.757 476.429 197.057 474.929 195.157V195.057C474.929 195.057 474.929 195.057 475.029 195.057C477.029 196.557 478.928 198.157 481.028 199.358C483.128 200.658 485.227 201.758 487.627 202.558C488.826 202.958 490.026 203.258 491.226 203.658C491.826 203.858 492.426 204.058 493.026 204.158C493.326 204.259 493.625 204.259 493.925 204.259C494.225 204.259 494.525 204.259 494.525 204.058C494.625 203.958 494.525 203.558 494.325 203.358C494.225 203.058 494.025 202.858 493.825 202.558C493.425 202.058 493.026 201.558 492.626 201.158C491.626 200.258 490.726 199.358 489.726 198.557C489.726 198.657 489.726 198.657 489.726 198.557Z" fill="#2E3748"/>
<path d="M476.929 196.957C476.929 197.257 476.929 197.557 476.729 197.857C476.529 198.157 476.23 198.257 475.83 198.357C475.23 198.457 474.53 198.357 473.93 198.257C472.73 197.957 471.53 197.757 470.431 197.357C469.231 197.057 468.031 196.657 467.031 195.957C465.932 195.356 465.032 194.556 464.232 193.556V193.456C464.232 193.456 464.232 193.456 464.332 193.456C465.432 193.956 466.432 194.556 467.531 195.056C468.631 195.556 469.631 196.157 470.731 196.557C471.83 196.957 473.03 197.357 474.13 197.657C474.73 197.857 475.23 197.957 475.83 197.957C476.13 197.957 476.43 197.857 476.53 197.657C476.729 197.457 476.829 197.157 476.829 196.857C476.829 196.957 476.829 196.957 476.929 196.957C476.829 196.957 476.929 196.957 476.929 196.957Z" fill="#2E3748"/>
<path d="M469.631 196.657C469.931 196.857 470.231 197.157 470.431 197.557C470.631 197.857 470.731 198.357 470.531 198.757C470.331 199.157 469.831 199.357 469.431 199.357C469.031 199.357 468.631 199.257 468.232 199.157C466.732 198.757 465.332 198.357 463.932 197.857C462.533 197.357 461.033 196.957 459.733 196.256C458.433 195.556 457.034 194.856 455.834 193.956C455.834 193.956 455.834 193.956 455.834 193.856C455.834 193.856 455.834 193.856 455.934 193.856C457.334 194.356 458.733 194.856 460.133 195.356C461.533 195.856 462.833 196.557 464.232 197.057C465.632 197.657 467.032 198.157 468.431 198.657C468.831 198.757 469.131 198.857 469.431 198.957C469.731 198.957 470.131 198.857 470.231 198.657C470.531 197.957 470.131 197.157 469.631 196.657C469.531 196.757 469.531 196.657 469.631 196.657Z" fill="#2E3748"/>
<path opacity="0.2" d="M392.646 138.345C405.443 144.046 431.438 139.545 435.937 152.048C440.936 165.951 445.435 171.752 452.234 181.554H452.334C448.935 187.455 434.538 179.754 432.038 178.353C430.038 177.253 431.538 175.853 433.038 176.053L433.338 176.153C431.638 175.453 430.238 174.653 428.939 173.952C427.039 172.852 426.939 171.952 427.639 171.352C421.24 171.052 415.241 167.751 411.542 165.751C406.743 163.05 414.142 163.05 416.941 163.45C409.843 161.45 402.944 157.349 399.645 155.449C396.845 153.848 398.145 153.148 400.444 152.948C397.045 151.148 394.246 149.347 392.646 148.547C388.547 146.247 393.246 145.747 396.445 145.947C387.247 140.946 384.048 134.444 392.646 138.345Z" fill="#CAD9E8"/>
<path d="M452.334 181.454C449.035 176.953 445.536 172.452 442.636 167.551C441.136 165.15 439.837 162.65 438.737 160.049C437.637 157.449 436.637 154.748 435.938 152.048V151.948C435.938 151.948 435.938 151.948 436.037 151.948C437.237 154.548 438.337 157.049 439.637 159.649C440.837 162.15 442.036 164.75 443.336 167.251C446.035 172.052 449.235 176.753 452.334 181.454C452.434 181.454 452.434 181.454 452.334 181.454C452.334 181.554 452.334 181.554 452.334 181.454Z" fill="#2E3748"/>
<path d="M400.445 152.848C399.845 152.948 399.245 153.048 398.746 153.248C398.446 153.348 398.246 153.548 398.246 153.748C398.246 153.948 398.446 154.148 398.646 154.348C399.045 154.748 399.645 154.948 400.145 155.248L401.745 156.049C403.844 157.149 406.044 158.249 408.144 159.249C410.343 160.249 412.543 161.05 414.742 161.95C416.942 162.85 419.241 163.55 421.541 164.15C421.541 164.15 421.541 164.15 421.541 164.25C419.141 164.25 416.742 163.65 414.342 162.95C412.043 162.25 409.843 161.15 407.644 160.049C405.444 158.949 403.345 157.749 401.345 156.549L399.845 155.649C399.345 155.348 398.746 155.048 398.346 154.648C398.146 154.448 397.846 154.148 397.846 153.748C397.846 153.348 398.246 153.148 398.546 153.048C399.245 152.848 399.845 152.748 400.445 152.848C400.445 152.748 400.545 152.748 400.445 152.848C400.545 152.748 400.445 152.848 400.445 152.848Z" fill="#2E3748"/>
<path d="M417.241 163.35C415.841 163.15 414.442 163.15 412.942 163.25C412.242 163.35 411.542 163.35 410.842 163.55C410.542 163.65 410.142 163.85 410.142 163.95C410.142 164.15 410.342 164.35 410.542 164.55C411.042 164.95 411.742 165.25 412.342 165.65C412.942 165.95 413.642 166.35 414.242 166.65C415.541 167.251 416.841 167.851 418.141 168.351C420.74 169.451 423.54 170.051 426.239 170.451C429.039 170.851 431.838 170.651 434.638 169.851H434.738C434.738 169.851 434.738 169.851 434.738 169.951C432.138 171.251 429.139 171.651 426.239 171.451C423.34 171.151 420.54 170.251 417.841 169.051C416.541 168.451 415.241 167.851 413.942 167.151C413.342 166.851 412.642 166.45 412.042 166.15C411.442 165.75 410.742 165.45 410.242 164.95C410.143 164.85 409.943 164.65 409.843 164.55C409.743 164.35 409.643 164.15 409.743 163.85C409.943 163.35 410.442 163.25 410.742 163.15C411.442 162.95 412.242 162.95 412.942 162.95C414.342 162.95 415.841 163.05 417.241 163.35C417.241 163.25 417.241 163.35 417.241 163.35Z" fill="#2E3748"/>
<path d="M427.639 171.152C427.439 171.352 427.239 171.652 427.239 171.852C427.239 172.152 427.339 172.352 427.539 172.552C427.939 172.952 428.439 173.252 428.939 173.552C430.038 174.052 431.038 174.652 432.138 175.152C433.238 175.653 434.337 175.953 435.437 176.353C436.537 176.753 437.637 177.053 438.837 177.453C438.837 177.453 438.837 177.453 438.837 177.553C437.637 177.753 436.337 177.653 435.137 177.353C433.938 177.053 432.838 176.553 431.738 175.953C430.638 175.353 429.638 174.752 428.639 174.152C428.139 173.852 427.639 173.452 427.239 172.952C427.039 172.652 426.939 172.352 426.939 172.052C427.139 171.552 427.339 171.252 427.639 171.152C427.639 171.052 427.639 171.052 427.639 171.152Z" fill="#2E3748"/>
<path d="M433.038 176.053C432.338 175.953 431.538 176.353 431.338 176.953C431.238 177.253 431.438 177.553 431.638 177.753C431.938 177.953 432.238 178.153 432.538 178.253C433.838 178.854 435.238 179.454 436.637 180.054C438.037 180.554 439.437 181.054 440.737 181.654C442.136 182.254 443.436 182.854 444.836 183.454C444.836 183.454 444.836 183.454 444.836 183.554C444.836 183.554 444.836 183.554 444.736 183.554C443.236 183.454 441.736 183.054 440.337 182.554C438.937 182.054 437.537 181.454 436.237 180.754C434.938 180.154 433.538 179.454 432.238 178.653C431.938 178.453 431.538 178.253 431.238 177.953C430.938 177.653 430.739 177.253 430.839 176.753C430.938 176.353 431.338 176.053 431.738 175.953C432.238 175.853 432.638 175.853 433.038 176.053C433.038 175.953 433.038 175.953 433.038 176.053C433.038 175.953 433.038 176.053 433.038 176.053Z" fill="#2E3748"/>
<path d="M467.431 182.354C470.53 175.952 467.831 168.151 461.432 165.15C455.033 162.049 447.235 164.75 444.235 171.151L442.636 174.752C441.836 176.352 440.136 177.353 438.337 177.152C433.737 176.552 424.539 176.752 421.54 183.054H421.64C421.44 183.254 421.34 183.454 421.24 183.654C419.24 187.755 429.038 196.556 443.036 203.358C457.033 210.059 470.03 212.26 472.03 208.059C472.13 207.859 472.23 207.659 472.23 207.359H472.33C475.329 201.057 467.331 193.756 466.031 189.855C464.731 186.054 467.431 182.354 467.431 182.354Z" fill="#F9DD4A"/>
<path d="M421.24 183.654C420.74 184.854 421.14 186.254 421.74 187.355C422.34 188.455 423.14 189.455 424.039 190.455C425.839 192.356 427.839 193.956 429.938 195.456C434.137 198.457 438.637 201.057 443.336 203.258C448.035 205.458 452.834 207.359 457.833 208.559C460.332 209.159 462.832 209.659 465.431 209.759C466.731 209.859 468.031 209.759 469.23 209.459C469.83 209.359 470.43 209.059 470.93 208.759C471.13 208.559 471.33 208.359 471.53 208.159C471.63 208.059 471.63 207.959 471.73 207.759C471.73 207.659 471.83 207.559 471.83 207.559C471.83 207.559 471.83 207.559 471.83 207.459V207.359C472.83 205.358 472.63 203.058 471.83 200.957C471.03 198.857 469.83 196.957 468.531 195.056C467.931 194.056 467.231 193.156 466.631 192.156C466.331 191.656 466.031 191.155 465.831 190.555C465.631 189.955 465.431 189.355 465.331 188.755C465.131 187.555 465.231 186.254 465.531 185.154C465.831 183.954 466.331 182.954 467.031 181.854V181.954C468.631 178.753 468.631 174.852 467.231 171.551C465.831 168.251 462.932 165.65 459.532 164.55C456.133 163.45 452.234 163.95 449.134 165.85C447.535 166.75 446.235 168.051 445.235 169.551C444.735 170.351 444.335 171.151 443.935 171.951L442.736 174.452C442.736 174.452 442.736 174.452 442.636 174.452C442.636 174.452 442.636 174.452 442.636 174.352L443.736 171.751C444.035 170.851 444.435 170.051 444.935 169.251C445.935 167.651 447.235 166.25 448.834 165.25C452.034 163.15 456.133 162.55 459.832 163.65C463.532 164.75 466.631 167.451 468.231 171.051C469.83 174.552 469.73 178.753 468.031 182.254C466.831 184.054 466.131 186.254 466.431 188.455C466.531 189.555 467.031 190.455 467.631 191.455C468.231 192.456 468.83 193.356 469.53 194.356C470.83 196.256 472.03 198.257 472.83 200.457C473.23 201.558 473.53 202.758 473.53 203.958C473.53 205.158 473.23 206.359 472.73 207.459V207.359C472.73 207.459 472.63 207.559 472.63 207.759C472.53 207.859 472.53 207.859 472.53 207.959C472.43 208.059 472.33 208.259 472.23 208.459C472.03 208.759 471.73 208.959 471.43 209.259C470.83 209.659 470.23 209.859 469.53 210.059C468.231 210.359 466.831 210.359 465.531 210.359C462.932 210.259 460.332 209.659 457.833 209.059C452.834 207.759 447.935 205.758 443.236 203.558C438.537 201.258 434.037 198.657 429.938 195.556C427.839 193.956 425.839 192.356 424.139 190.455C423.24 189.455 422.44 188.455 421.84 187.355C421.04 186.254 420.54 184.854 421.24 183.654C421.14 183.654 421.14 183.654 421.24 183.654Z" fill="#2E3748"/>
<path d="M463.332 200.557C459.732 200.257 456.133 199.357 452.734 198.157C449.335 196.957 445.935 195.456 442.736 193.656C439.536 191.856 436.537 189.755 433.938 187.055C432.638 185.754 431.438 184.354 430.538 182.754C430.138 181.954 429.638 181.053 429.539 180.153C429.339 179.253 429.339 178.253 429.838 177.453C429.838 177.453 429.838 177.453 429.938 177.453C429.938 177.453 429.938 177.453 429.938 177.553C429.638 178.353 429.638 179.353 429.938 180.153C430.238 180.953 430.638 181.754 431.138 182.554C432.138 184.054 433.338 185.354 434.637 186.555C437.237 188.955 440.236 191.055 443.236 192.956C446.335 194.856 449.534 196.457 452.934 197.757C456.333 198.857 459.832 199.957 463.332 200.557C463.432 200.457 463.432 200.457 463.332 200.557C463.432 200.557 463.432 200.557 463.332 200.557Z" fill="#2E3748"/>
<path d="M259.153 292.185C259.153 294.985 257.054 297.186 254.454 297.186C251.854 297.186 249.754 294.985 249.754 292.185C249.754 289.384 251.854 287.184 254.454 287.184C257.054 287.184 259.153 289.484 259.153 292.185Z" stroke="#F9DD4A" stroke-width="1.5027" stroke-miterlimit="10"/>
<path d="M379.263 241.211C381.251 241.211 382.862 239.599 382.862 237.61C382.862 235.622 381.251 234.01 379.263 234.01C377.275 234.01 375.663 235.622 375.663 237.61C375.663 239.599 377.275 241.211 379.263 241.211Z" stroke="#EE724A" stroke-width="1.5027" stroke-miterlimit="10"/>
</svg>
