<svg width="670" height="420" viewBox="0 0 670 420" fill="none" xmlns="http://www.w3.org/2000/svg">
<path d="M505.86 44.7015C505.86 47.7009 505.461 50.7002 504.561 53.6996C504.461 54.1995 504.261 54.7994 504.061 55.2993C498.864 70.896 483.171 84.0932 466.978 85.6929C448.286 87.4925 436.691 79.9941 432.093 67.6967C431.894 67.2967 431.794 66.8968 431.694 66.5969C431.394 65.7971 431.194 65.0972 430.994 64.2974C430.894 63.9974 430.794 63.5975 430.794 63.2976C430.094 60.3982 429.794 57.2988 429.794 54.0995C429.794 34.3037 447.586 17.9071 466.978 14.0079C490.467 9.30891 500.963 18.8069 504.461 32.704C504.561 33.0039 504.661 33.4039 504.661 33.7038C505.561 37.1031 505.86 40.9023 505.86 44.7015Z" fill="#F9DD4A"/>
<path d="M504.562 32.6039C502.563 31.7041 500.364 31.0042 498.165 30.6043C495.166 30.0044 491.967 29.8045 488.969 30.0044C485.87 30.1044 482.771 30.6043 479.773 31.7041C479.073 32.004 478.373 32.3039 477.674 32.7039C474.575 32.104 471.576 32.3039 468.578 32.7039C462.381 33.7037 456.583 36.1031 451.385 39.4025C446.188 42.7018 441.59 47.0009 437.792 51.8998C435.892 54.2993 434.193 56.8988 432.794 59.5982C432.194 60.798 431.594 61.9977 430.995 63.1975C431.095 63.4974 431.195 63.8973 431.195 64.1973C431.195 64.0973 431.294 64.0973 431.294 63.9973C431.994 62.5976 432.594 61.2979 433.394 59.9981C434.893 57.3987 436.592 54.7992 438.491 52.4997C442.29 47.8007 446.888 43.7016 452.085 40.6022C457.183 37.5029 462.98 35.2033 468.878 34.3035C471.177 34.0036 473.476 33.8036 475.775 34.1036L475.675 34.2035C474.475 35.3033 473.576 36.703 472.876 38.1027C471.576 41.0021 470.877 44.2015 471.177 47.4008C471.377 49.0004 471.776 50.7001 472.876 52.0998C473.376 52.7996 474.175 53.3995 474.975 53.7994C475.875 54.1994 476.774 54.2993 477.574 54.1994C479.373 53.9994 480.872 53.3995 482.272 52.4997C483.671 51.5999 484.871 50.3002 485.57 48.8005C486.27 47.3008 486.57 45.6012 486.47 43.9015C486.37 42.2019 485.87 40.6022 485.17 39.2025C484.471 37.8028 483.471 36.5031 482.372 35.3033C482.072 35.0034 481.872 34.7034 481.472 34.4035C481.072 34.1036 480.772 33.9036 480.373 33.7037C480.073 33.5037 479.773 33.4037 479.473 33.3037C479.773 33.2038 479.973 33.1038 480.273 33.0038C483.071 31.904 486.07 31.4041 489.069 31.3042C492.067 31.1042 495.166 31.3042 498.065 31.804C500.364 32.204 502.763 32.8038 504.862 33.9036C504.762 33.3037 504.662 33.0038 504.562 32.6039ZM479.473 35.1034C480.073 35.4033 480.472 35.8032 481.072 36.4031C482.072 37.5029 482.971 38.6026 483.571 39.9024C484.871 42.4018 485.17 45.5012 483.971 47.9007C483.371 49.1004 482.472 50.2002 481.272 50.9C480.173 51.5999 478.673 52.1998 477.374 52.2998C476.074 52.3997 474.875 51.9998 474.075 50.9C473.276 49.9003 472.876 48.5005 472.676 47.1008C472.376 44.2014 472.876 41.2021 474.075 38.5026C474.675 37.2029 475.475 35.9032 476.474 34.9034C476.774 34.6035 476.974 34.4035 477.274 34.2035C477.374 34.2035 477.474 34.2035 477.574 34.3035C478.273 34.5035 478.873 34.8034 479.473 35.1034Z" fill="white"/>
<path d="M504.661 53.6995C504.561 54.1994 504.361 54.7992 504.161 55.2991C503.661 55.899 503.062 56.3989 502.562 56.9988C501.962 57.5986 501.263 58.2985 500.563 58.7984C497.764 61.1979 494.765 63.2975 491.467 64.8971C484.97 68.1964 477.873 70.296 470.576 71.3958C463.379 72.3955 455.983 72.3955 448.786 71.4957C445.188 71.0958 441.589 70.4959 438.091 69.4961C436.292 69.0962 434.592 68.4964 432.893 67.8965C432.693 67.7965 432.493 67.6965 432.293 67.6965C432.093 67.2966 431.994 66.8967 431.894 66.5968C432.293 66.7967 432.793 66.9967 433.193 67.0967C434.892 67.6965 436.591 68.1964 438.291 68.5963C441.789 69.3962 445.388 69.8961 448.886 70.196C456.083 70.7959 463.18 70.5959 470.276 69.5961C477.373 68.6963 484.37 66.7967 490.767 63.6974C493.966 62.1977 497.064 60.2981 499.863 57.9986C500.563 57.4987 501.263 56.8988 501.862 56.2989C502.562 55.699 503.162 55.0992 503.761 54.3993C504.161 54.1994 504.361 53.9994 504.661 53.6995Z" fill="white"/>
<g opacity="0.3">
<path opacity="0.3" d="M520.167 14.7971H659.305C665.202 14.7971 670 19.596 670 25.4946V146.266C670 152.165 665.202 156.964 659.305 156.964H520.167C514.27 156.964 509.472 152.165 509.472 146.266V25.4946C509.472 19.596 514.27 14.7971 520.167 14.7971Z" fill="#F6F5F5"/>
</g>
<path d="M496.478 0H635.616C641.513 0 646.311 4.79888 646.311 10.6975V131.469C646.311 137.368 641.513 142.167 635.616 142.167H496.478C490.581 142.167 485.783 137.368 485.783 131.469V10.6975C485.783 4.79888 490.581 0 496.478 0Z" fill="white"/>
<path opacity="0.3" d="M508.773 410.102C523.678 410.102 535.761 407.148 535.761 403.504C535.761 399.86 523.678 396.905 508.773 396.905C493.868 396.905 481.785 399.86 481.785 403.504C481.785 407.148 493.868 410.102 508.773 410.102Z" fill="#D4DBE4"/>
<path opacity="0.3" d="M236.694 379.609C213.904 381.609 189.315 388.008 174.822 390.507C163.727 389.807 151.632 389.407 138.938 389.407C86.2614 389.407 0 379.11 0 406.504C0 423 86.2614 418.101 138.938 418.101L342.947 420.001C395.623 420.001 438.204 413.602 438.204 405.704C438.204 398.106 398.722 391.807 348.844 391.407C344.746 391.407 340.748 391.107 336.749 390.607L257.585 380.209C250.688 379.209 243.691 379.01 236.694 379.609Z" fill="#D4DBE4"/>
<path d="M479.486 300.428L472.889 285.631C471.289 282.032 469.39 278.633 467.291 275.434C466.991 274.934 466.792 274.634 466.792 274.634C466.792 274.634 467.591 275.234 468.991 276.633C468.991 276.633 524.166 316.824 519.168 346.617C517.169 358.714 510.972 362.713 505.274 358.014C499.277 368.312 484.184 369.212 486.683 340.518C487.182 334.92 486.982 329.321 486.283 323.922C485.083 315.724 482.784 307.726 479.486 300.428Z" fill="#BDEBBB"/>
<path d="M509.172 316.524C511.671 320.123 514.07 323.822 515.869 327.821C517.668 331.82 519.168 336.019 519.567 340.418C519.767 342.618 519.767 344.917 519.368 347.117C519.068 349.316 518.468 351.416 517.668 353.515C516.769 355.515 515.669 357.614 513.77 359.014C512.87 359.714 511.671 360.114 510.571 360.114C509.472 360.214 508.372 359.914 507.273 359.514C507.273 359.514 507.273 359.514 507.273 359.414C507.273 359.414 507.273 359.414 507.373 359.414C509.472 360.014 511.771 359.714 513.37 358.414C514.969 357.114 515.969 355.115 516.669 353.115C517.368 351.116 517.868 349.016 518.268 346.917C518.668 344.817 518.768 342.618 518.668 340.518C518.368 336.219 517.069 332.02 515.269 328.021C513.77 323.922 511.571 320.223 509.172 316.524C509.172 316.524 509.072 316.524 509.172 316.524C509.172 316.424 509.172 316.424 509.172 316.524Z" fill="#2E3748"/>
<path d="M486.582 327.422C487.082 332.221 487.082 337.12 486.682 342.019C486.382 346.818 486.582 351.817 487.982 356.316C488.382 357.415 488.881 358.515 489.481 359.515C490.081 360.515 490.88 361.415 491.78 362.114C493.579 363.514 496.078 363.714 498.177 362.714C499.177 362.214 500.176 361.514 500.876 360.715C501.676 359.815 502.175 358.815 502.675 357.715C503.575 355.516 503.675 353.016 503.275 350.617V350.517H503.375C504.075 352.816 504.175 355.416 503.375 357.815C502.575 360.215 500.976 362.314 498.577 363.514C497.378 364.114 496.078 364.314 494.779 364.214C493.479 364.114 492.18 363.514 491.18 362.814C490.181 362.014 489.381 361.015 488.681 359.915C488.082 358.815 487.582 357.715 487.182 356.516C485.783 351.717 485.783 346.818 486.083 341.919C486.682 337.22 486.782 332.321 486.582 327.422C486.482 327.422 486.482 327.422 486.582 327.422C486.582 327.422 486.482 327.422 486.582 327.422Z" fill="#2E3748"/>
<path d="M505.974 385.308C506.873 380.309 507.373 375.21 507.473 370.112C507.573 365.013 507.473 359.914 506.973 354.915C506.074 344.818 503.675 334.82 499.876 325.422C499.377 324.222 498.777 323.123 498.277 321.923C497.777 320.823 497.178 319.623 496.678 318.524C495.478 316.324 494.379 314.025 493.079 311.825C490.681 307.326 488.082 303.027 485.283 298.728C482.584 294.429 479.685 290.23 476.587 286.231C475.088 284.232 473.488 282.232 471.789 280.333C470.09 278.433 468.391 276.533 466.591 274.834C466.591 274.834 466.591 274.834 466.591 274.734C466.591 274.734 466.591 274.734 466.691 274.734C470.59 278.033 473.988 281.832 477.187 285.831C480.385 289.83 483.384 293.929 486.183 298.228C488.881 302.527 491.58 306.926 493.979 311.425C495.179 313.625 496.378 315.924 497.478 318.224C498.077 319.323 498.577 320.523 499.077 321.723C499.577 322.923 500.176 324.022 500.576 325.222C504.374 334.72 506.573 344.818 507.373 355.015C507.773 360.114 507.873 365.213 507.673 370.312C507.573 375.21 507.073 380.309 505.974 385.308C506.074 385.308 506.074 385.308 505.974 385.308Z" fill="#2E3748"/>
<path d="M494.878 260.637L490.28 250.44C489.181 247.94 487.882 245.541 486.382 243.341C486.182 242.942 485.982 242.842 485.982 242.842C485.982 242.842 486.482 243.241 487.482 244.241C487.482 244.241 525.665 272.035 522.166 292.63C520.767 301.028 516.469 303.727 512.571 300.528C508.472 307.726 497.977 308.326 499.676 288.431C499.976 284.532 499.876 280.633 499.376 276.934C498.777 271.235 497.177 265.736 494.878 260.637Z" fill="#BDEBBB"/>
<path d="M515.469 271.736C517.268 274.235 518.868 276.735 520.167 279.534C521.467 282.333 522.466 285.233 522.766 288.332C522.966 289.832 522.866 291.431 522.666 292.931C522.466 294.431 522.066 295.931 521.467 297.43C520.867 298.83 520.067 300.33 518.668 301.229C517.968 301.729 517.168 301.929 516.369 302.029C515.569 302.029 514.77 301.829 514.07 301.529C514.07 301.529 514.07 301.529 514.07 301.429C514.07 301.429 514.07 301.429 514.17 301.429C515.669 301.829 517.168 301.629 518.268 300.63C519.367 299.73 520.067 298.43 520.467 297.03C520.967 295.631 521.267 294.231 521.566 292.731C521.866 291.331 521.966 289.832 521.866 288.332C521.666 285.333 520.767 282.433 519.567 279.734C518.568 276.935 517.069 274.335 515.469 271.736C515.369 271.736 515.369 271.836 515.469 271.736Z" fill="#2E3748"/>
<path d="M513.17 319.324C514.37 312.425 514.47 305.327 513.87 298.329C513.17 291.33 511.571 284.432 508.972 277.933C508.273 276.334 507.473 274.734 506.773 273.134C505.974 271.635 505.174 270.035 504.274 268.536C503.375 267.036 502.575 265.436 501.676 263.937C500.776 262.437 499.876 260.937 498.977 259.438C497.078 256.438 495.079 253.539 492.979 250.74C491.98 249.34 490.78 247.94 489.681 246.641C488.581 245.341 487.382 243.941 486.083 242.742C486.083 242.742 486.083 242.742 486.083 242.642C486.083 242.642 486.083 242.642 486.182 242.642C488.881 244.941 491.28 247.54 493.579 250.24C495.778 252.939 497.877 255.839 499.876 258.838C501.776 261.837 503.575 264.836 505.274 267.936C506.174 269.435 506.873 271.035 507.673 272.635C508.373 274.234 509.172 275.834 509.872 277.533C512.471 284.132 513.97 291.13 514.57 298.129C514.87 305.327 514.67 312.425 513.17 319.324C513.27 319.424 513.27 319.424 513.17 319.324C513.17 319.324 513.17 319.424 513.17 319.324Z" fill="#2E3748"/>
<path d="M570.845 239.243C568.446 240.742 566.147 242.342 563.748 243.942C561.449 245.541 559.05 247.141 556.751 248.841C554.452 250.54 552.153 252.24 549.854 253.84C547.455 255.439 545.156 257.039 542.757 258.539H542.657C542.657 258.539 542.657 258.539 542.657 258.439C544.756 256.539 546.955 254.739 549.254 253.04C551.553 251.34 553.952 249.741 556.251 248.241C561.049 245.041 565.847 242.042 570.845 239.243C570.845 239.143 570.845 239.143 570.845 239.243Z" fill="#2E3748"/>
<path d="M553.853 270.435L564.348 251.039C566.947 246.341 569.946 241.742 573.344 237.643C573.844 236.943 574.244 236.643 574.244 236.643C574.244 236.643 573.044 237.443 570.845 239.242C570.845 239.242 482.585 292.03 490.581 331.221C493.88 347.117 503.775 352.416 512.871 346.217C522.467 359.814 546.656 360.914 542.558 323.223C541.758 315.824 542.058 308.526 543.258 301.428C544.957 290.53 548.655 280.133 553.853 270.435Z" fill="#BDEBBB"/>
<path d="M506.374 291.63C502.575 296.329 498.977 301.228 496.078 306.526C494.679 309.226 493.38 311.925 492.38 314.824C491.38 317.624 490.681 320.623 490.481 323.622C490.281 326.622 490.581 329.621 491.281 332.52C491.98 335.42 492.88 338.319 494.279 340.918C495.679 343.518 497.578 345.917 500.177 347.217C502.775 348.517 505.974 348.517 508.873 347.917H508.973V348.017C507.473 348.417 505.974 348.717 504.475 348.817C502.975 348.817 501.376 348.517 499.977 347.917C498.477 347.317 497.278 346.317 496.178 345.217L495.379 344.318L494.679 343.418C494.179 342.818 493.879 342.118 493.48 341.418C491.98 338.719 491.081 335.72 490.381 332.72C489.681 329.721 489.381 326.622 489.681 323.522C489.981 320.423 490.681 317.424 491.78 314.625C492.78 311.725 494.179 309.026 495.579 306.326C498.677 301.028 502.376 296.129 506.374 291.63C506.374 291.53 506.374 291.53 506.374 291.63Z" fill="#2E3748"/>
<path d="M542.658 306.026C542.358 309.326 542.158 312.725 542.258 316.024C542.258 317.724 542.358 319.323 542.558 321.023C542.758 322.722 542.858 324.322 543.057 326.022C543.157 326.822 543.157 327.721 543.157 328.521C543.157 329.321 543.257 330.221 543.257 331.021C543.157 332.72 543.157 334.42 542.958 336.019C542.558 339.319 541.858 342.718 540.359 345.817L539.759 346.917L539.059 348.017C538.659 348.816 538.06 349.416 537.46 350.116C536.261 351.316 534.861 352.416 533.262 353.215C531.663 353.915 529.963 354.315 528.164 354.315C526.465 354.315 524.666 353.915 523.066 353.315C519.868 352.016 517.169 349.416 515.77 346.317C515.07 344.717 514.67 343.018 514.67 341.318C514.57 339.619 514.97 337.919 515.47 336.319C515.47 336.319 515.47 336.319 515.57 336.319C515.57 336.319 515.57 336.319 515.57 336.419C515.17 338.019 514.97 339.719 515.17 341.318C515.37 342.918 515.77 344.517 516.469 346.017C517.969 348.916 520.468 351.216 523.566 352.316C526.565 353.515 529.963 353.515 532.962 352.216C534.461 351.516 535.761 350.516 536.86 349.416C537.36 348.816 537.96 348.217 538.36 347.517L539.059 346.517L539.659 345.417C541.158 342.518 541.858 339.219 542.258 335.919C542.458 334.32 542.558 332.62 542.558 330.921C542.558 330.121 542.558 329.221 542.558 328.421C542.558 327.621 542.558 326.722 542.458 325.922C542.358 324.222 542.158 322.623 542.058 320.923C541.958 319.223 541.858 317.524 541.858 315.924C541.958 312.625 542.158 309.326 542.658 306.026C542.658 305.926 542.558 305.926 542.658 306.026C542.658 306.026 542.658 305.926 542.658 306.026Z" fill="#2E3748"/>
<path d="M511.371 381.909C509.772 375.11 508.972 368.212 508.572 361.214C508.272 354.215 508.472 347.317 509.272 340.318C510.072 333.42 511.471 326.522 513.47 319.823C514.47 316.424 515.669 313.225 516.869 309.926C518.168 306.726 519.667 303.527 521.267 300.428L522.466 298.128L523.766 295.829C524.665 294.329 525.565 292.83 526.464 291.33L529.263 286.931C530.163 285.431 531.162 284.032 532.162 282.532C536.06 276.733 540.158 271.135 544.556 265.636C548.954 260.237 553.552 255.038 558.45 250.04C563.348 245.041 568.446 240.342 574.243 236.343H574.343V236.443C571.544 238.542 568.945 240.842 566.446 243.241C563.848 245.641 561.449 248.04 559.05 250.539C554.252 255.538 549.754 260.837 545.456 266.336C541.158 271.735 536.96 277.333 533.161 283.132C532.162 284.532 531.162 286.031 530.263 287.431L527.464 291.83C526.564 293.329 525.565 294.729 524.665 296.229L523.366 298.428L522.166 300.728C520.467 303.727 519.068 306.926 517.768 310.126C516.469 313.325 515.269 316.624 514.27 319.923C512.171 326.522 510.871 333.42 509.972 340.318C509.172 347.217 508.872 354.215 509.072 361.114C509.172 368.212 509.872 375.11 511.371 381.909C511.471 382.009 511.471 381.909 511.371 381.909C511.371 381.909 511.371 382.009 511.371 381.909Z" fill="#2E3748"/>
<path d="M490.581 377.41L499.277 402.605H516.669L526.564 373.611L490.581 377.41Z" fill="#E09F9B"/>
<path d="M487.182 377.71L527.964 373.211C528.663 373.111 529.263 372.511 529.263 371.711V368.912C529.263 368.112 528.563 367.412 527.764 367.412H490.081C488.381 367.412 486.882 368.712 486.682 370.411C486.482 373.011 486.282 376.61 487.182 377.71Z" fill="#E09F9B"/>
<path d="M503.675 376.11L490.581 377.61L490.681 377.41L499.577 402.605L499.277 402.405L516.669 402.305L516.169 402.605C517.768 397.806 519.468 392.907 521.167 388.108C522.866 383.309 524.565 378.51 526.365 373.711L526.565 374.011L521.267 374.41H521.167C521.167 374.41 521.167 374.41 521.167 374.31L526.465 373.611H526.764L526.665 373.911C525.165 378.809 523.566 383.608 521.967 388.507C520.367 393.306 518.668 398.205 517.069 403.004L516.969 403.304H516.669L499.277 403.204H498.977L498.877 403.004L490.381 377.71L490.281 377.51H490.481L503.675 376.11C503.775 376.01 503.775 376.01 503.675 376.11C503.775 376.11 503.775 376.01 503.675 376.11Z" fill="#2E3748"/>
<path d="M527.964 373.211C528.564 373.111 529.064 372.711 529.164 372.111C529.264 371.511 529.164 370.911 529.164 370.312C529.164 369.712 529.164 369.112 529.064 368.512C528.964 368.012 528.464 367.512 527.964 367.512L520.767 367.612L506.474 367.812C501.676 367.912 496.878 368.012 492.18 367.912H490.381C489.781 367.912 489.281 368.012 488.882 368.212C487.882 368.712 487.282 369.612 487.182 370.711C486.982 371.911 486.882 373.111 486.782 374.211C486.782 374.811 486.782 375.41 486.782 376.01C486.882 376.61 486.982 377.21 487.282 377.71V377.81C487.282 377.81 487.282 377.81 487.182 377.81C486.782 377.31 486.583 376.71 486.483 376.11C486.383 375.51 486.283 374.911 486.283 374.311C486.283 373.111 486.283 371.911 486.383 370.711C486.383 369.412 487.182 368.112 488.382 367.512C488.982 367.212 489.681 367.012 490.281 367.112H492.08C496.878 367.012 501.676 367.112 506.374 367.212L520.667 367.312L527.864 367.412C528.564 367.512 529.064 368.012 529.263 368.612C529.363 369.212 529.263 369.812 529.263 370.412C529.263 371.011 529.264 371.611 529.164 372.211C529.164 372.811 528.564 373.211 527.964 373.211C527.864 373.311 527.964 373.311 527.964 373.211C527.964 373.211 527.864 373.211 527.964 373.211Z" fill="#2E3748"/>
<path d="M437.092 1.01001C437.692 4.20934 438.092 7.40867 438.492 10.508C438.891 13.7073 439.091 16.9067 439.291 20.106C439.491 23.3053 439.591 26.5047 439.691 29.704C439.691 32.9033 439.691 36.1026 439.491 39.302C438.891 36.1026 438.492 32.9033 438.092 29.804C437.692 26.6046 437.492 23.4053 437.292 20.206C437.092 17.0067 436.992 13.8073 436.892 10.608C436.792 7.40867 436.792 4.20934 437.092 1.01001Z" fill="#EE724A"/>
<path d="M457.383 21.3064C454.184 21.5064 450.986 21.6064 447.787 21.5064C444.589 21.5064 441.39 21.3064 438.191 21.2064C434.993 21.0064 431.794 20.8064 428.596 20.4064C425.397 20.1064 422.199 19.7064 419 19.1064C422.199 18.9064 425.397 18.8064 428.596 18.9064C431.794 18.9064 434.993 19.1064 438.191 19.2064C441.39 19.4064 444.589 19.6064 447.787 20.0064C450.986 20.3064 454.184 20.7064 457.383 21.3064Z" fill="#EE724A"/>
<path d="M449.786 11.1079C448.087 12.9075 446.288 14.6072 444.489 16.3068C442.689 17.9065 440.79 19.5061 438.791 21.0058C436.892 22.5055 434.893 24.0052 432.894 25.4049C430.895 26.8046 428.796 28.1043 426.597 29.3041C428.296 27.5045 430.095 25.8048 431.894 24.1052C433.694 22.5055 435.593 20.9059 437.592 19.4062C439.491 17.9065 441.49 16.4068 443.489 15.1071C445.488 13.7074 447.587 12.3077 449.786 11.1079Z" fill="#EE724A"/>
<path d="M428.795 9.30835C430.695 10.808 432.394 12.5077 434.093 14.2073C435.792 15.907 437.392 17.7066 438.991 19.5062C440.59 21.3058 442.089 23.2054 443.489 25.105C444.988 27.0046 446.388 29.0042 447.587 31.1038C445.688 29.6041 443.989 27.9045 442.289 26.2048C440.59 24.5052 438.991 22.7055 437.392 20.9059C435.792 19.1063 434.293 17.2067 432.894 15.3071C431.494 13.3075 430.095 11.4079 428.795 9.30835Z" fill="#EE724A"/>
<path d="M135.639 359.214C135.639 359.214 142.636 388.607 145.135 389.807L143.336 395.506C141.937 400.005 137.638 403.104 132.941 402.904C128.143 402.704 124.045 399.405 123.045 394.606L121.746 388.907L115.548 359.614L135.639 359.214Z" fill="#EAB4B3"/>
<path d="M144.735 389.108L169.024 398.306C170.624 399.106 171.623 403.505 171.223 405.305L120.946 405.605L121.046 387.708C121.046 387.708 126.143 387.308 136.239 390.508C142.436 392.607 144.735 389.108 144.735 389.108Z" fill="#EAE2DB"/>
<path d="M169.824 399.205L145.435 399.605C141.337 399.705 137.339 399.705 133.24 399.705C129.142 399.705 125.044 399.705 121.046 399.605C125.144 399.405 129.142 399.405 133.24 399.305C137.339 399.305 141.437 399.205 145.435 399.205H169.824C169.824 399.105 169.824 399.105 169.824 399.205C169.824 399.205 169.824 399.105 169.824 399.205Z" fill="#2E3748"/>
<path d="M146.135 392.707C145.235 391.908 144.435 390.908 143.836 389.908C143.536 389.408 143.236 388.808 143.236 388.208C143.136 387.608 143.336 386.909 143.836 386.509C144.335 386.109 144.835 385.609 145.535 385.609C145.935 385.609 146.235 385.909 146.335 386.109C146.534 386.409 146.634 386.709 146.734 387.009C147.034 388.208 147.034 389.508 147.034 390.708V391.608V391.808V391.908C147.034 392.008 147.034 391.808 146.934 391.808C146.834 391.808 146.834 391.808 146.734 391.908V391.808L146.834 391.608C147.034 391.008 147.334 390.508 147.634 389.908C147.934 389.408 148.234 388.808 148.634 388.308C149.033 387.808 149.533 387.309 150.333 387.309C150.733 387.309 151.032 387.408 151.332 387.708C151.632 387.908 151.732 388.308 151.732 388.708C151.632 389.408 151.232 389.908 150.833 390.408C150.033 391.308 149.033 392.108 148.134 392.807C149.033 392.008 149.933 391.208 150.633 390.208C150.932 389.708 151.332 389.208 151.332 388.708C151.332 388.208 150.833 387.808 150.333 387.808C149.833 387.808 149.333 388.208 149.033 388.708C148.634 389.108 148.334 389.708 148.034 390.208C147.734 390.708 147.434 391.308 147.234 391.808L147.134 392.008V392.108C147.134 392.208 146.934 392.307 146.834 392.307C146.734 392.307 146.634 392.008 146.634 392.008V391.908V391.708L146.734 390.808C146.734 389.608 146.834 388.408 146.534 387.209C146.434 386.709 146.135 386.009 145.535 386.009C145.035 386.009 144.435 386.409 144.036 386.809C143.636 387.209 143.436 387.808 143.436 388.408C143.536 389.008 143.736 389.608 144.036 390.108C144.535 390.908 145.335 391.808 146.135 392.707C146.235 392.707 146.235 392.707 146.135 392.707C146.135 392.707 146.235 392.707 146.135 392.707Z" fill="#2E3748"/>
<path d="M125.144 196.652L83.9624 196.552C94.9575 318.124 99.0557 319.623 109.451 372.711C109.451 372.711 95.2573 362.014 141.637 371.411C145.335 367.612 125.144 196.652 125.144 196.652Z" fill="#BCC8D3"/>
<path d="M60.7726 359.214C60.7726 359.214 53.7757 388.607 51.2769 389.807L53.076 395.506C54.4754 400.005 58.7735 403.104 63.4714 402.904C68.2693 402.704 72.3674 399.405 73.367 394.606L74.6664 388.907L80.8636 359.614L60.7726 359.214Z" fill="#EAB4B3"/>
<path d="M51.6769 389.108L27.3878 398.306C25.7885 399.106 24.7889 403.505 25.1887 405.305L75.4663 405.605L75.3663 387.709C75.3663 387.709 70.2686 387.309 60.1731 390.508C53.9759 392.608 51.6769 389.108 51.6769 389.108Z" fill="#EAE2DB"/>
<path d="M26.5889 399.105H51.0779C55.1761 399.105 59.2742 399.105 63.2725 399.205C67.3706 399.305 71.3688 399.305 75.467 399.505C71.3688 399.605 67.2707 399.605 63.2725 399.605C59.1743 399.605 55.0761 399.505 51.0779 399.505L26.5889 399.105C26.5889 399.105 26.5889 399.205 26.5889 399.105Z" fill="#2E3748"/>
<path d="M50.1779 392.707C51.0775 391.907 51.8771 390.908 52.4768 389.908C52.7767 389.408 52.9766 388.808 53.0766 388.208C53.1765 387.608 52.9766 387.008 52.4768 386.608C52.077 386.209 51.4773 385.809 50.9775 385.809C50.4777 385.809 50.1779 386.508 49.9779 387.008C49.6781 388.208 49.6781 389.408 49.778 390.608L49.878 391.507V391.707V391.807C49.878 391.807 49.878 392.107 49.6781 392.107C49.5781 392.207 49.3782 392.107 49.3782 391.907V391.807L49.2783 391.607C49.0784 391.008 48.7785 390.508 48.4786 390.008C48.1788 389.508 47.8789 389.008 47.4791 388.508C47.0792 388.108 46.6794 387.708 46.1796 387.608C45.6799 387.608 45.1801 388.008 45.1801 388.508C45.2801 389.008 45.5799 389.608 45.8798 390.008C46.5795 390.908 47.4791 391.807 48.3787 392.607C47.3791 391.907 46.4795 391.107 45.6799 390.208C45.2801 389.708 44.8802 389.208 44.7803 388.508C44.7803 388.208 44.8802 387.708 45.1801 387.508C45.38 387.208 45.7798 387.108 46.1796 387.108C46.8793 387.208 47.4791 387.708 47.8789 388.108C48.2787 388.608 48.5786 389.108 48.8784 389.708C49.1783 390.208 49.4782 390.808 49.6781 391.407L49.778 391.607V391.707C49.778 391.707 49.6781 391.607 49.5781 391.607C49.4782 391.607 49.4782 391.807 49.4782 391.707V391.607V391.407V390.508C49.4782 389.308 49.4782 388.008 49.778 386.808C49.878 386.508 49.9779 386.209 50.1779 385.909C50.3778 385.609 50.6776 385.409 50.9775 385.409C51.6772 385.409 52.177 385.909 52.6767 386.308C53.1765 386.708 53.3764 387.408 53.2765 388.008C53.1765 388.608 52.9766 389.208 52.6767 389.708C51.8771 391.008 51.0775 391.907 50.1779 392.707Z" fill="#2E3748"/>
<path d="M71.2684 196.652L112.45 196.452C103.754 292.13 132.041 343.418 125.444 374.111C123.645 382.409 108.352 376.61 86.8614 372.711L54.6758 371.411L71.2684 196.652Z" fill="#D4DBE4"/>
<path d="M110.95 221.546C110.551 237.743 110.95 254.039 112.55 270.235C114.049 286.431 116.848 302.427 120.046 318.324C121.646 326.322 123.345 334.22 124.744 342.218C126.144 350.216 127.143 358.314 126.643 366.512C126.543 367.512 126.543 368.512 126.344 369.512C126.244 370.512 126.144 371.511 125.944 372.511C125.744 373.511 125.644 374.511 125.144 375.51C124.644 376.51 123.845 377.21 122.845 377.61C120.946 378.51 118.747 378.51 116.748 378.41C114.749 378.31 112.65 378.01 110.651 377.71C102.654 376.21 94.7577 374.211 86.7613 372.811L54.5757 371.411L86.7613 372.611C94.7577 374.011 102.654 376.01 110.651 377.41C112.65 377.71 114.649 378.01 116.648 378.21C118.647 378.31 120.746 378.31 122.545 377.51C123.445 377.11 124.145 376.41 124.644 375.51C125.144 374.611 125.144 373.611 125.344 372.611C125.544 371.611 125.644 370.612 125.744 369.612C125.844 368.612 125.944 367.612 126.044 366.612C126.543 358.514 125.544 350.416 124.145 342.418C122.745 334.42 121.046 326.422 119.547 318.524C116.348 302.627 113.649 286.531 112.15 270.335C110.851 254.039 110.451 237.743 110.95 221.546C110.851 221.546 110.851 221.546 110.95 221.546Z" fill="#2E3748"/>
<path d="M55.875 358.414L112.05 361.114" stroke="#758096" stroke-width="0.9016" stroke-miterlimit="10"/>
<path d="M470.989 135.067C462.793 138.467 455.296 140.966 448.599 142.766C441.902 139.866 440.203 134.967 441.103 129.068C455.796 125.569 473.288 120.97 473.288 120.97C473.288 120.97 481.985 115.271 482.484 111.072C483.084 111.072 484.084 111.472 484.283 112.372C484.983 115.571 482.784 118.471 482.784 118.471C482.784 118.471 497.677 114.871 497.478 116.371C497.278 117.771 489.781 120.47 489.781 120.47C489.781 120.47 501.676 117.671 500.976 118.971C500.776 119.471 500.976 118.971 491.18 123.07C491.18 123.07 500.776 122.27 499.377 123.47C497.677 124.969 490.781 126.769 490.781 126.769C490.781 126.769 498.177 126.269 496.978 127.169C495.778 128.069 476.787 132.368 476.787 132.368L470.989 135.067Z" fill="#DE9E9A"/>
<path d="M473.288 120.97C475.187 119.67 476.986 118.271 478.686 116.671C479.485 115.871 480.285 115.071 480.985 114.172C481.684 113.272 482.284 112.272 482.484 111.172V111.072H482.584C483.384 111.072 484.083 111.472 484.383 112.172C484.583 112.872 484.583 113.672 484.483 114.372C484.283 115.871 483.783 117.271 482.984 118.471L482.884 118.271C484.883 117.771 486.782 117.371 488.781 116.971C490.78 116.571 492.679 116.171 494.679 115.971C495.178 115.871 495.678 115.871 496.178 115.871C496.478 115.871 496.678 115.871 496.978 115.871C497.077 115.871 497.277 115.871 497.377 115.971C497.477 115.971 497.677 116.071 497.777 116.271C497.777 116.671 497.577 116.871 497.377 117.071C497.177 117.271 496.977 117.371 496.778 117.571C496.378 117.871 495.878 118.071 495.478 118.371C493.679 119.271 491.78 120.07 489.981 120.77L489.881 120.47C491.68 120.07 493.479 119.67 495.378 119.271C496.278 119.071 497.177 118.971 498.177 118.771C499.077 118.671 499.976 118.471 501.076 118.571C501.176 118.671 501.376 118.571 501.475 118.971C501.475 119.271 501.376 119.271 501.276 119.471C500.976 119.67 500.776 119.67 500.576 119.77L499.276 120.27L496.678 121.27L491.48 123.37L491.38 122.97C492.879 122.87 494.379 122.77 495.878 122.77C496.678 122.77 497.377 122.77 498.177 122.77C498.577 122.77 498.977 122.87 499.276 122.87C499.376 122.87 499.476 122.97 499.576 122.97C499.676 123.07 499.776 123.07 499.876 123.27C499.876 123.37 499.876 123.47 499.776 123.57L499.676 123.67L499.476 123.87C498.177 124.769 496.778 125.169 495.278 125.669C493.879 126.169 492.38 126.569 490.98 126.969V126.769C492.08 126.669 493.179 126.669 494.279 126.669C494.878 126.669 495.378 126.669 495.978 126.669C496.278 126.669 496.578 126.669 496.778 126.769C496.878 126.769 497.077 126.869 497.177 126.869C497.277 126.869 497.277 126.969 497.277 127.069C497.277 127.169 497.177 127.169 497.177 127.269L497.277 127.169C497.277 127.069 497.177 127.069 497.177 127.069C497.077 126.969 496.878 126.969 496.778 126.969C496.478 126.969 496.178 126.869 495.978 126.869C495.378 126.869 494.878 126.869 494.279 126.869C493.179 126.869 492.08 126.969 490.98 127.069L489.781 126.969L490.78 126.669C492.18 126.269 493.679 125.769 495.078 125.369C496.478 124.869 497.877 124.369 499.077 123.57C499.476 123.27 499.476 123.37 499.077 123.17C498.777 123.07 498.377 123.07 497.977 123.07C497.277 123.07 496.478 123.07 495.778 123.07C494.279 123.07 492.779 123.27 491.28 123.37L489.881 123.47L491.18 122.97L496.378 120.87L498.977 119.87L500.276 119.371C500.476 119.271 500.776 119.171 500.876 119.071C500.876 119.071 500.976 118.871 500.976 118.971C500.976 119.071 500.976 118.971 500.876 118.971C500.076 118.871 499.077 118.971 498.177 119.071C497.277 119.171 496.378 119.371 495.478 119.57C493.679 119.87 491.88 120.27 489.981 120.77L489.881 120.47C491.78 119.77 493.579 119.071 495.378 118.171C495.778 117.971 496.278 117.671 496.678 117.371C496.878 117.271 497.077 117.071 497.277 116.871C497.477 116.771 497.577 116.471 497.577 116.371C497.577 116.271 497.277 116.271 497.077 116.271C496.878 116.271 496.578 116.271 496.378 116.271C495.878 116.271 495.378 116.371 494.878 116.371C492.879 116.571 490.88 116.971 488.981 117.371C486.982 117.771 485.083 118.171 483.084 118.671L482.784 118.771L482.984 118.571C483.783 117.371 484.383 115.971 484.483 114.572C484.583 113.872 484.483 113.072 484.383 112.472C484.183 111.872 483.384 111.472 482.684 111.372L482.784 111.272C482.584 112.472 481.984 113.472 481.285 114.372C480.585 115.271 479.785 116.171 478.986 116.871C477.086 118.271 475.287 119.77 473.288 120.97Z" fill="#2E3748"/>
<path d="M354.142 52.286C358.04 54.0857 360.639 63.3837 355.541 71.2821C350.543 79.1804 348.444 49.5866 354.142 52.286Z" fill="#373949"/>
<path d="M295.268 360.114C295.268 360.114 288.271 389.507 285.772 390.707L287.571 396.405C288.971 400.904 293.269 404.003 297.967 403.804C302.764 403.604 306.863 400.304 307.862 395.505L309.162 389.807L315.359 360.514L295.268 360.114Z" fill="#EAB4B3"/>
<path d="M286.172 390.007L261.883 399.206C260.284 400.005 259.284 404.404 259.684 406.204L309.961 406.504L309.861 388.608C309.861 388.608 304.764 388.208 294.668 391.407C288.471 393.407 286.172 390.007 286.172 390.007Z" fill="#3E4A6C"/>
<path d="M261.084 400.004L309.962 400.404" stroke="#565D5D" stroke-width="0.3921" stroke-miterlimit="10"/>
<path d="M305.763 197.552L346.945 197.352C335.95 318.924 331.851 320.423 321.456 373.511L289.271 372.211L305.763 197.552Z" fill="#818CA7"/>
<path d="M290.371 359.314L323.356 360.814" stroke="#758096" stroke-width="0.9016" stroke-miterlimit="10"/>
<path d="M290.47 361.913C298.966 361.513 310.361 361.613 318.858 362.213" stroke="#818CA7" stroke-width="0.9016" stroke-miterlimit="10"/>
<path d="M377.731 347.317C377.731 347.317 397.322 370.011 396.822 372.711L402.42 374.51C406.918 376.01 411.816 374.21 414.415 370.311C417.113 366.312 416.714 361.013 413.515 357.514L409.717 353.215L389.726 331.32L377.731 347.317Z" fill="#EAB4B3"/>
<path d="M396.623 372.011L389.926 397.106C389.626 398.905 392.624 402.204 394.324 402.904L423.811 362.214L409.317 352.016C409.317 352.016 406.018 355.915 402.72 366.013C400.621 372.111 396.623 372.011 396.623 372.011Z" fill="#3E4A6C"/>
<path d="M390.026 398.106L418.813 358.615" stroke="#565D5D" stroke-width="0.39" stroke-miterlimit="10"/>
<path d="M327.454 200.352L375.632 210.15C375.632 210.15 372.534 238.943 372.933 265.037C373.233 280.133 376.232 295.03 381.829 308.727C386.927 321.324 399.222 334.621 406.618 344.818L386.627 364.414C386.627 364.414 367.136 341.619 361.139 334.021C347.845 317.125 332.951 291.131 328.753 265.337C323.955 236.344 327.454 200.352 327.454 200.352Z" fill="#A0ACD1"/>
<path d="M381.829 308.727C383.229 312.126 385.028 315.325 386.927 318.424C388.826 321.524 391.025 324.523 393.224 327.422C397.622 333.321 402.32 338.92 406.618 344.818V344.918L406.518 345.018L386.527 364.713L386.427 364.813L386.327 364.713L371.834 347.218L364.537 338.52C362.138 335.62 359.739 332.621 357.54 329.622C353.042 323.523 348.944 317.125 345.246 310.526C341.547 303.928 338.249 297.129 335.45 290.031C332.651 283.033 330.452 275.734 328.953 268.236C327.553 260.838 326.854 253.24 326.454 245.641C325.654 230.545 326.054 215.348 327.453 200.252C326.254 215.348 325.954 230.445 326.754 245.541C327.254 253.04 327.953 260.638 329.353 268.036C330.752 275.434 332.951 282.733 335.75 289.731C341.347 303.728 348.844 317.025 357.74 329.222C359.939 332.321 362.338 335.22 364.737 338.12L371.934 346.818L386.627 364.114H386.427L406.518 344.518V344.618C402.22 338.72 397.522 333.121 393.124 327.222C390.925 324.323 388.826 321.324 386.927 318.224C384.928 315.325 383.229 312.126 381.829 308.727Z" fill="#2E3748"/>
<path d="M367.635 215.948C365.237 234.744 362.338 258.538 363.637 277.234C365.037 297.729 380.43 329.022 392.724 342.518" stroke="#818CA7" stroke-width="0.897" stroke-miterlimit="10"/>
<path d="M399.522 336.219L379.131 354.615" stroke="#818CA7" stroke-width="0.897" stroke-miterlimit="10"/>
<path d="M335.35 53.0858C335.35 53.0858 329.652 60.4842 332.951 61.684C336.249 62.8837 345.645 57.3849 343.146 54.1855C340.747 50.9862 335.35 53.0858 335.35 53.0858Z" fill="#373949"/>
<path d="M330.752 64.7831C331.552 58.3846 336.549 53.2858 342.947 52.6859C344.846 52.486 346.945 52.7859 348.944 53.6857C353.642 55.9851 355.241 63.0835 355.841 68.3822L355.441 75.0807L356.041 102.874C351.943 120.17 338.349 119.47 338.249 98.2753L338.449 84.3785C330.152 82.179 329.852 71.9814 330.752 64.7831Z" fill="#E09F9B"/>
<path d="M338.348 84.4791C338.348 84.4791 342.147 85.8788 347.544 82.2795C347.544 82.2795 344.546 88.4782 338.249 90.5778L338.348 84.4791Z" fill="#CA7D7A"/>
<path d="M354.741 66.583C354.741 67.9827 355.541 69.0824 356.54 69.1824C357.54 69.1824 358.44 68.0827 358.54 66.6829C358.54 65.2832 357.74 64.1835 356.74 64.0835C355.641 64.0835 354.741 65.1833 354.741 66.583Z" fill="#BE9791"/>
<path d="M356.541 66.5834C356.541 66.7834 356.641 66.8834 356.841 66.8834C357.041 66.8834 357.141 66.7834 357.141 66.5834C357.141 66.3834 357.041 66.2834 356.841 66.2834C356.741 66.2834 356.541 66.4834 356.541 66.5834Z" fill="#A37975"/>
<path d="M338.349 84.4795C339.148 84.6795 339.948 84.6795 340.748 84.5795C341.547 84.4795 342.347 84.2795 343.047 84.0795C343.846 83.8795 344.546 83.5795 345.346 83.2795C346.045 82.9795 346.845 82.5795 347.545 82.2795C347.245 82.5795 346.845 82.7795 346.545 82.9795L345.445 83.5795C344.746 83.9795 343.946 84.2795 343.146 84.4795C342.347 84.6795 341.547 84.8795 340.648 84.8795C339.948 84.9795 339.148 84.8795 338.349 84.4795Z" fill="#383A4A"/>
<path d="M354.741 66.583C354.741 67.9827 355.541 69.0824 356.54 69.1824C357.54 69.1824 358.44 68.0827 358.54 66.6829C358.54 65.2832 357.74 64.1835 356.74 64.0835C355.641 64.0835 354.741 65.1833 354.741 66.583Z" fill="#E09F9B"/>
<path d="M355.941 65.8829C355.941 65.8829 357.041 65.6829 357.141 66.5829C357.241 67.4829 356.141 67.3829 356.141 67.3829" stroke="#B57A77" stroke-width="0.4282" stroke-miterlimit="10" stroke-linecap="round"/>
<path d="M343.346 72.4817C342.947 73.3817 342.347 74.1817 341.647 74.7817C340.848 75.3817 339.848 75.7817 338.848 75.7817C337.849 75.7817 336.849 75.3817 336.05 74.8817C335.65 74.5817 335.25 74.2817 334.95 73.9817C334.65 73.5817 334.251 73.2817 333.951 72.9817C334.351 73.2817 334.75 73.5817 335.15 73.7817C335.55 74.0817 335.95 74.2817 336.35 74.4817C337.149 74.8817 338.049 75.1817 338.948 75.1817C339.848 75.1817 340.748 74.8817 341.447 74.3817C342.147 73.9817 342.747 73.2817 343.346 72.4817Z" fill="#373949"/>
<path d="M338.748 63.6836C338.349 64.2835 337.849 64.8833 337.349 65.4832C336.849 66.0831 336.25 66.583 335.75 67.0829V66.7829C336.35 67.4828 336.849 68.2826 337.349 69.0825C336.649 68.4826 335.95 67.7827 335.35 67.0829L335.25 66.9829L335.45 66.7829C335.95 66.1831 336.449 65.6832 337.049 65.1833C337.549 64.5834 338.149 64.0835 338.748 63.6836Z" fill="#373949"/>
<path d="M343.046 63.8836C342.946 64.5836 342.846 65.3836 342.846 66.0836C342.846 66.7836 343.046 67.5836 343.546 67.7836C344.046 68.0836 344.746 67.6836 345.245 67.1836C345.745 66.6836 346.245 66.1836 346.745 65.5836C346.845 65.4836 346.945 65.4836 347.045 65.5836C347.145 65.6836 347.145 65.7836 347.045 65.7836C346.645 66.4836 346.245 67.0836 345.645 67.5836C345.345 67.8836 345.045 68.0836 344.646 68.2836C344.246 68.4836 343.746 68.4836 343.346 68.2836C342.946 68.0836 342.647 67.6836 342.547 67.2836C342.447 66.8836 342.347 66.4836 342.447 66.0836C342.447 65.2836 342.647 64.5836 342.846 63.7836C342.846 63.6836 342.946 63.6836 343.046 63.6836C343.046 63.6836 343.046 63.7836 343.046 63.8836Z" fill="#373949"/>
<path d="M333.152 61.5839C333.052 62.2839 332.952 62.9839 332.852 63.6839C332.852 63.9839 332.852 64.3839 332.952 64.6839C333.052 64.9839 333.152 65.2839 333.352 65.2839C333.551 65.3839 333.851 65.2839 334.051 65.0839C334.351 64.8839 334.551 64.6839 334.751 64.3839C335.251 63.8839 335.65 63.2839 336.05 62.6839C336.15 62.5839 336.25 62.5839 336.35 62.5839C336.45 62.6839 336.45 62.7839 336.45 62.7839C336.15 63.4839 335.75 64.0839 335.251 64.5839C335.051 64.8839 334.751 65.1839 334.451 65.3839C334.151 65.5839 333.651 65.8839 333.152 65.6839C332.652 65.4839 332.552 64.9839 332.452 64.5839C332.352 64.1839 332.352 63.7839 332.452 63.4839C332.552 62.7839 332.752 62.0839 332.952 61.3839C332.952 61.2839 333.052 61.2839 333.152 61.2839C333.152 61.4839 333.252 61.4839 333.152 61.5839Z" fill="#373949"/>
<path d="M353.742 72.8815C353.742 75.281 351.743 77.2806 349.144 77.2806C346.645 77.2806 344.546 75.281 344.546 72.8815C344.546 70.482 346.545 68.4824 349.144 68.4824C351.643 68.4824 353.742 70.482 353.742 72.8815Z" fill="#EBBDBC"/>
<path d="M469.49 119.07C465.991 121.07 453.597 122.769 413.915 117.271C386.427 113.472 371.034 92.3764 356.74 95.8756C352.642 96.8754 354.341 97.7752 337.349 96.5755C335.55 96.4755 333.151 96.6754 330.352 97.1753C305.563 101.674 285.472 119.87 277.775 143.964C276.576 147.763 275.376 151.963 274.277 156.361C271.978 165.959 277.376 175.657 286.671 178.756L299.566 182.955L304.863 216.547L375.832 215.648L384.128 151.063C384.128 151.063 428.908 188.954 475.187 138.066L469.49 119.07Z" fill="#363848"/>
<path d="M337.949 50.2863C334.35 51.1861 332.451 58.0847 340.847 57.6848C350.343 57.2848 350.343 53.7856 350.743 60.0843C351.143 66.3829 355.341 64.7833 355.341 64.7833C355.341 64.7833 363.937 43.9876 337.949 50.2863Z" fill="#373949"/>
<path d="M339.948 160.061C333.651 164.36 327.853 167.859 322.456 170.559C316.358 169.359 313.96 165.46 313.66 160.361C325.454 154.762 339.348 147.764 339.348 147.764C339.348 147.764 345.645 141.465 345.346 137.766C345.845 137.666 346.745 137.866 347.045 138.466C348.244 141.065 346.945 143.864 346.945 143.864C346.945 143.864 358.839 138.166 358.939 139.465C359.039 140.765 353.142 144.364 353.142 144.364C353.142 144.364 362.638 139.865 362.338 141.065C362.238 141.565 362.338 141.065 354.741 146.264C354.741 146.264 362.638 143.864 361.738 145.164C360.539 146.764 355.041 149.563 355.041 149.563C355.041 149.563 361.138 147.764 360.339 148.763C359.539 149.763 344.246 156.762 344.246 156.762L339.948 160.061Z" fill="#DE9E9A"/>
<path d="M281.774 176.258C281.774 176.258 285.672 180.457 303.464 181.556C311.661 182.056 324.855 179.457 330.652 167.459C332.451 163.66 323.755 152.862 323.755 152.862C316.059 151.463 311.96 153.762 299.866 155.462C294.468 156.262 286.672 160.161 277.676 157.961L281.774 176.258Z" fill="#363848"/>
<path d="M95.6575 127.969L76.9658 126.169C76.9658 126.169 80.5642 97.0754 98.0564 95.5758C114.249 94.176 116.248 106.174 116.248 106.174L95.6575 127.969Z" fill="#373949"/>
<path d="M118.948 111.873C118.148 105.474 113.15 100.376 106.753 99.7758C104.854 99.5758 102.755 99.8757 100.756 100.776C96.0581 103.075 94.4588 110.173 93.8591 115.472L94.2589 122.171L93.6592 149.964C97.7573 167.26 111.351 166.56 111.451 145.365L111.251 131.468C119.448 129.269 119.748 119.071 118.948 111.873Z" fill="#E09F9B"/>
<path d="M111.251 131.568C111.251 131.568 107.452 132.968 102.055 129.369C102.055 129.369 105.053 135.567 111.351 137.667L111.251 131.568Z" fill="#CA7D7A"/>
<path d="M94.9575 113.672C94.9575 115.072 94.1578 116.172 93.1583 116.272C92.1587 116.272 91.2591 115.172 91.1592 113.772C91.1592 112.372 91.9588 111.273 92.9584 111.173C93.9579 111.173 94.8575 112.272 94.9575 113.672Z" fill="#BE9791"/>
<path d="M93.059 113.673C93.059 113.873 92.959 113.973 92.759 113.973C92.559 113.973 92.459 113.873 92.459 113.673C92.459 113.473 92.559 113.373 92.759 113.373C92.959 113.373 93.059 113.473 93.059 113.673Z" fill="#A37975"/>
<path d="M111.25 131.569C110.551 131.969 109.651 132.069 108.852 132.069C108.052 132.069 107.152 131.969 106.353 131.669C105.553 131.469 104.753 131.169 104.054 130.769L102.954 130.169C102.654 129.969 102.254 129.669 101.955 129.469C102.754 129.769 103.454 130.169 104.154 130.469C104.953 130.769 105.653 131.069 106.453 131.269C107.252 131.469 107.952 131.669 108.752 131.769C109.651 131.769 110.451 131.769 111.25 131.569Z" fill="#383A4A"/>
<path d="M94.9575 113.672C94.9575 115.072 94.1578 116.172 93.1583 116.272C92.1587 116.272 91.2591 115.172 91.1592 113.772C91.1592 112.372 91.9588 111.273 92.9584 111.173C93.9579 111.173 94.8575 112.272 94.9575 113.672Z" fill="#E09F9B"/>
<path d="M93.6591 112.972C93.6591 112.972 92.5591 112.772 92.4591 113.672C92.3591 114.572 93.4591 114.472 93.4591 114.472" stroke="#B57A77" stroke-width="0.4282" stroke-miterlimit="10" stroke-linecap="round"/>
<path d="M106.253 119.571C106.953 120.171 107.752 120.671 108.552 121.071C109.352 121.471 110.151 121.771 111.051 121.771C111.95 121.771 112.75 121.471 113.45 120.971C113.85 120.771 114.149 120.371 114.449 120.071C114.749 119.771 115.049 119.371 115.349 118.971C115.149 119.371 114.949 119.771 114.749 120.171C114.449 120.571 114.249 120.971 113.85 121.271C113.55 121.571 113.05 121.871 112.65 122.071C112.45 122.171 112.15 122.171 111.95 122.271C111.75 122.371 111.451 122.271 111.251 122.371C110.251 122.371 109.352 121.971 108.552 121.471C107.552 120.971 106.853 120.271 106.253 119.571Z" fill="#373949"/>
<path d="M110.151 110.573C110.851 111.172 111.35 111.872 111.95 112.572C112.55 113.272 113.05 113.972 113.549 114.772L113.649 114.972L113.549 115.072C112.95 115.571 112.45 116.071 111.75 116.471C112.15 115.871 112.65 115.272 113.15 114.672V114.972C112.55 114.272 112.05 113.572 111.55 112.872C111.05 112.072 110.551 111.372 110.151 110.573Z" fill="#373949"/>
<path d="M106.852 110.873C107.052 111.572 107.252 112.372 107.252 113.172C107.252 113.572 107.252 113.972 107.152 114.372C107.052 114.772 106.752 115.172 106.353 115.372C105.953 115.572 105.353 115.572 105.053 115.372C104.653 115.172 104.353 114.972 104.054 114.672C103.454 114.172 103.054 113.472 102.654 112.872C102.554 112.772 102.654 112.672 102.754 112.572C102.854 112.572 102.954 112.572 102.954 112.572C103.354 113.172 103.854 113.772 104.453 114.172C104.953 114.672 105.653 115.072 106.153 114.772C106.652 114.572 106.852 113.772 106.852 113.072C106.852 112.372 106.752 111.572 106.652 110.873C106.652 110.773 106.652 110.673 106.752 110.673C106.752 110.673 106.852 110.773 106.852 110.873Z" fill="#373949"/>
<path d="M116.748 108.573C116.948 109.273 117.148 109.973 117.248 110.673C117.248 111.073 117.248 111.373 117.248 111.773C117.148 112.173 117.048 112.673 116.548 112.873C116.048 113.073 115.548 112.873 115.249 112.573C114.949 112.373 114.649 112.073 114.449 111.773C113.949 111.173 113.649 110.573 113.25 109.973C113.25 109.873 113.25 109.773 113.349 109.773C113.449 109.773 113.549 109.773 113.549 109.873C113.949 110.473 114.349 110.973 114.849 111.573C115.049 111.773 115.349 112.073 115.548 112.273C115.848 112.473 116.048 112.573 116.248 112.473C116.448 112.373 116.548 112.173 116.648 111.873C116.748 111.573 116.748 111.173 116.748 110.873C116.748 110.173 116.648 109.473 116.448 108.773C116.448 108.673 116.448 108.573 116.548 108.573C116.648 108.473 116.748 108.473 116.748 108.573Z" fill="#373949"/>
<path d="M95.957 119.971C95.957 122.37 97.9561 124.37 100.555 124.37C103.054 124.37 105.153 122.37 105.153 119.971C105.153 117.571 103.154 115.572 100.555 115.572C97.9561 115.572 95.957 117.571 95.957 119.971Z" fill="#EBBDBC"/>
<path d="M117.447 107.274C117.447 107.274 110.85 109.773 101.055 102.974C101.055 102.974 100.955 114.772 94.3575 111.973C94.3575 111.973 91.5588 104.574 98.5556 99.6752C105.652 94.6762 113.649 96.6758 117.447 107.274Z" fill="#373949"/>
<path d="M225.899 123.07C220.402 128.369 215.304 132.768 210.506 136.467C204.209 136.367 201.31 132.868 200.111 127.869C210.706 120.271 223.201 111.072 223.201 111.072C223.201 111.072 228.298 103.774 227.399 100.175C227.898 99.9748 228.798 99.9748 229.198 100.575C230.797 102.874 229.997 105.874 229.997 105.874C229.997 105.874 240.793 98.2752 241.093 99.4749C241.392 100.675 236.195 105.274 236.195 105.274C236.195 105.274 244.791 99.175 244.691 100.475C244.691 100.975 244.691 100.475 238.094 106.873C238.094 106.873 245.491 103.174 244.791 104.574C243.891 106.273 238.993 109.973 238.993 109.973C238.993 109.973 244.691 107.173 244.091 108.273C243.491 109.373 229.698 118.871 229.698 118.871L225.899 123.07Z" fill="#DE9E9A"/>
<path d="M33.0851 191.253C37.6831 196.152 51.177 204.65 65.2707 207.05C70.7683 207.949 70.2685 205.65 69.5688 215.148L127.743 218.147L127.443 186.754C127.443 186.754 212.205 196.552 221.301 131.167L218.502 114.171C218.502 114.171 188.915 131.467 148.933 142.465C139.538 145.064 129.642 145.364 120.146 143.365C117.547 142.865 114.649 142.265 111.45 141.865C110.85 141.965 99.8553 143.265 93.758 140.465C86.0614 140.365 77.7651 141.065 69.5688 142.965C49.1779 147.764 37.1833 161.26 31.3859 169.958C26.9878 176.657 27.5876 185.455 33.0851 191.253ZM77.5652 173.158L74.9664 189.254C74.9664 189.254 75.1663 193.153 63.6714 182.455C56.0748 175.357 77.5652 173.158 77.5652 173.158Z" fill="#EED8DB"/>
<path d="M127.343 186.654C137.438 187.554 147.634 187.254 157.629 185.955C167.625 184.555 177.52 182.056 186.716 177.757C195.912 173.458 204.208 167.259 210.206 159.061C213.204 154.962 215.603 150.463 217.402 145.764C219.202 141.065 220.401 136.066 221.101 131.067L218.302 114.071L218.502 114.171C210.306 118.77 201.809 122.869 193.113 126.668C184.517 130.468 175.721 133.867 166.725 136.966L163.427 138.066L160.028 139.166C157.829 139.865 155.53 140.565 153.231 141.265C150.932 141.865 148.733 142.665 146.434 143.165C144.135 143.664 141.836 144.064 139.437 144.364C134.739 144.864 129.942 144.864 125.244 144.364C122.945 144.064 120.546 143.664 118.247 143.165C115.948 142.765 113.649 142.365 111.25 141.965C108.251 142.265 105.253 142.465 102.254 142.265C100.755 142.165 99.2553 142.065 97.756 141.765C96.2567 141.465 94.8573 141.165 93.4579 140.565H93.5579C87.5605 140.565 81.6632 140.865 75.7658 141.865C69.8685 142.765 64.071 144.264 58.6735 146.764C47.7783 151.563 38.4825 159.761 31.7855 169.558C30.0862 171.958 28.9867 174.857 28.6869 177.757C28.5869 179.256 28.5869 180.656 28.7868 182.155C28.9867 183.655 29.4865 185.055 29.9863 186.355C30.586 187.754 31.3857 188.954 32.2853 190.054C33.1849 191.253 34.2844 192.153 35.4838 193.153C37.7828 195.052 40.2817 196.652 42.8805 198.252C47.9782 201.251 53.4758 203.75 59.2732 205.35C59.9729 205.55 60.6726 205.75 61.4722 205.95C62.1719 206.15 62.8716 206.35 63.6712 206.45C65.1706 206.75 66.5699 206.95 68.0693 207.05C68.4691 207.05 68.8689 207.15 69.1688 207.25C69.5686 207.35 69.8685 207.849 69.8685 208.249C69.9684 209.049 69.8685 209.749 69.8685 210.549L69.5686 215.048L69.4686 214.948L127.643 218.047L69.4686 215.148H69.3687V215.048L69.6685 210.549C69.6685 209.849 69.7685 209.049 69.6685 208.349C69.5686 208.049 69.4686 207.75 69.0688 207.55C68.7689 207.45 68.3691 207.45 67.9693 207.35C66.47 207.25 64.9706 207.05 63.4713 206.75C62.7716 206.65 61.972 206.45 61.2723 206.25C60.5726 206.05 59.773 205.95 59.0733 205.65C53.2759 204.05 47.7783 201.551 42.5807 198.552C39.9818 197.052 37.4829 195.352 35.184 193.453C34.0845 192.453 32.885 191.553 31.9854 190.354C31.0858 189.154 30.1862 187.954 29.5865 186.554C28.9867 185.155 28.5869 183.755 28.287 182.255C28.0871 180.756 27.9872 179.256 28.1871 177.757C28.487 174.757 29.5865 171.858 31.3857 169.358C38.0827 159.461 47.4785 151.263 58.4735 146.464C63.9711 143.964 69.7685 142.465 75.6659 141.565C81.5632 140.565 87.5605 140.265 93.5579 140.265C94.8573 140.865 96.3566 141.165 97.756 141.465C99.2553 141.765 100.655 141.865 102.154 141.965C105.153 142.065 108.151 141.965 111.05 141.665C113.349 141.965 115.748 142.365 118.047 142.865C120.346 143.365 122.645 143.764 125.044 144.064C129.742 144.664 134.44 144.664 139.137 144.164C141.436 143.864 143.835 143.465 146.134 142.965C148.433 142.465 150.632 141.765 152.931 141.065C155.23 140.465 157.429 139.765 159.728 138.966L163.127 137.866L166.425 136.766C175.321 133.767 184.117 130.268 192.813 126.568C201.41 122.769 209.906 118.67 218.202 114.071L218.402 113.971V114.171L221.101 131.167C220.401 136.166 219.202 141.165 217.402 145.864C215.603 150.563 213.204 155.062 210.106 159.161C204.108 167.359 195.712 173.657 186.516 177.856C177.32 182.155 167.425 184.655 157.329 186.055C147.634 187.354 137.438 187.654 127.343 186.654C127.343 186.654 127.343 186.754 127.343 186.654Z" fill="#2E3748"/>
<path d="M63.6713 182.456C63.0716 181.856 62.3719 181.156 62.172 180.356C61.972 179.956 61.972 179.456 62.072 179.056C62.172 178.656 62.3719 178.257 62.6717 177.857C63.8712 176.557 65.5704 175.857 67.2697 175.257C68.9689 174.657 70.6682 174.257 72.3674 173.857C74.0666 173.557 75.8658 173.358 77.5651 173.258C75.8658 173.558 74.0666 173.857 72.3674 174.257C70.6682 174.657 68.9689 174.957 67.2697 175.557C65.6704 176.157 63.9712 176.757 62.7717 178.057C62.4718 178.357 62.2719 178.756 62.172 179.156C62.072 179.556 62.072 179.956 62.172 180.456C62.4718 181.156 63.0716 181.756 63.6713 182.456Z" fill="#2E3748"/>
<path d="M70.8685 193.553C73.6673 194.853 75.4665 195.653 75.5664 195.653C75.5664 195.653 84.4625 196.552 87.0613 194.053C87.4611 194.353 87.9609 195.253 87.5611 195.852C86.2616 198.352 83.263 199.152 83.263 199.152C83.263 199.152 95.1577 204.851 94.2581 205.75C93.3585 206.65 86.8614 204.351 86.8614 204.351C86.8614 204.351 96.3571 208.85 95.2576 209.45C94.8578 209.65 95.2576 209.45 86.4616 206.85C86.4616 206.85 93.2585 211.449 91.7592 211.549C89.7601 211.649 84.1626 209.15 84.1626 209.15C84.1626 209.15 89.3603 212.849 88.1608 212.749C86.8614 212.749 71.8681 205.35 71.8681 205.35L69.0693 204.651C69.5691 200.851 70.1688 197.152 70.8685 193.553Z" fill="#DE9E9A"/>
<path d="M75.8661 190.554L73.1673 209.75C73.1673 209.75 49.7778 201.751 42.1812 197.852L65.8706 189.254L75.8661 190.554Z" fill="#EED8DB"/>
<path d="M33.4848 323.423C33.4848 326.222 31.2858 328.422 28.487 328.422C25.6883 328.422 23.4893 326.222 23.4893 323.423C23.4893 320.623 25.6883 318.424 28.487 318.424C31.2858 318.424 33.4848 320.723 33.4848 323.423Z" stroke="#F9DD4A" stroke-width="1.5027" stroke-miterlimit="10"/>
<path d="M161.028 265.036C163.015 265.036 164.626 263.425 164.626 261.437C164.626 259.449 163.015 257.838 161.028 257.838C159.041 257.838 157.43 259.449 157.43 261.437C157.43 263.425 159.041 265.036 161.028 265.036Z" stroke="#EE724A" stroke-width="1.5027" stroke-miterlimit="10"/>
<path d="M182.246 68.0835L182.298 67.5764L182.327 67.4809C182.327 67.4809 182.261 67.3558 182.577 67.3488C182.702 67.2828 182.636 67.1578 182.666 67.0623L182.866 66.0776C182.977 65.3795 183.184 64.7109 183.295 64.0128C183.613 62.6461 183.931 61.2793 184.344 59.9421C185.075 57.2382 186.063 54.7183 187.177 52.1324C189.469 47.0856 192.591 42.4 196.558 38.7075C198.603 36.8283 200.781 35.1991 203.252 33.9745C204.473 33.41 205.694 32.8454 206.98 32.4059C208.237 32.0619 209.59 31.7474 210.95 31.749C213.603 31.6271 216.27 32.1373 218.576 33.4776C220.882 34.818 222.915 36.7019 223.507 39.1869C224.099 41.6718 223.272 44.3462 221.866 46.5276C220.459 48.7089 218.354 50.7791 215.863 51.0556C214.664 51.2085 213.423 50.8249 212.52 50.0227C211.617 49.2205 210.928 48.0658 210.459 46.8746C209.647 44.4261 209.9 41.5746 210.793 39.0252C211.686 36.4758 213.151 34.1035 214.94 32.0402C216.699 30.0724 219.266 28.8774 221.839 27.9983C224.413 27.1193 227.184 26.6153 229.867 26.3979C232.645 26.21 235.43 26.3382 237.979 27.2304L238.186 26.5618C235.446 25.6105 232.565 25.4529 229.817 25.5453C227.038 25.7332 224.171 26.2076 221.502 27.0571C218.833 27.9067 216.142 29.1678 214.133 31.2675C212.219 33.3968 210.628 35.8352 209.677 38.5756C208.725 41.316 208.412 44.3585 209.231 47.1231C209.641 48.5053 210.462 49.9101 211.622 50.8963C212.782 51.8826 214.472 52.5092 216.015 52.2538C217.625 52.1233 219.03 51.3017 220.148 50.3916C221.266 49.4815 222.253 48.3214 223.048 47.1022C223.844 45.883 224.477 44.5093 224.825 43.0471C225.172 41.5848 225.233 40.0341 224.853 38.5563C224.473 37.0785 223.652 35.6737 222.617 34.6215C221.582 33.5693 220.392 32.6786 219.144 31.9789C216.677 30.484 213.598 29.9513 210.724 30.1097C209.335 30.2036 207.887 30.4886 206.505 30.8986C205.122 31.3086 203.806 31.8436 202.556 32.5037C200.055 33.8238 197.753 35.519 195.677 37.4938C191.623 41.4728 188.566 46.2835 186.34 51.4553C185.226 54.0411 184.304 56.6861 183.668 59.4195C183.351 60.7862 183.033 62.153 182.715 63.5197C182.604 64.2178 182.397 64.8864 182.381 65.614L182.277 66.6282C182.248 66.7237 182.218 66.8192 182.284 66.9443C182.57 67.0328 182.445 67.0988 182.445 67.0988L182.416 67.1943L182.246 68.0835Z" fill="#F9DD4A"/>
<path d="M531.31 200.339L531.721 200.64L531.812 200.682C531.812 200.682 531.861 200.815 532.078 200.585C532.21 200.536 532.259 200.669 532.35 200.711L533.215 201.221C533.808 201.606 534.442 201.9 535.035 202.285C536.263 202.964 537.491 203.643 538.761 204.231C541.258 205.498 543.791 206.451 546.457 207.356C551.74 209.031 557.31 209.849 562.707 209.374C565.472 209.112 568.139 208.585 570.703 207.569C571.939 207.04 573.175 206.511 574.363 205.849C575.46 205.145 576.599 204.35 577.508 203.339C579.374 201.449 580.781 199.126 581.328 196.515C581.876 193.904 581.838 191.132 580.389 189.028C578.94 186.924 576.4 185.748 573.838 185.333C571.277 184.917 568.33 185.095 566.457 186.761C565.542 187.549 564.996 188.729 564.987 189.937C564.979 191.145 565.375 192.43 565.946 193.576C567.22 195.819 569.508 197.54 571.999 198.584C574.49 199.627 577.233 200.127 579.962 200.179C582.601 200.189 585.207 199.083 587.582 197.759C589.957 196.435 592.187 194.713 594.144 192.866C596.143 190.927 597.912 188.772 598.956 186.28L599.59 186.574C598.463 189.247 596.652 191.493 594.743 193.474C592.744 195.412 590.473 197.225 588.056 198.639C585.638 200.054 582.9 201.209 579.996 201.296C577.133 201.293 574.258 200.842 571.585 199.714C568.913 198.587 566.444 196.782 564.939 194.322C564.187 193.092 563.693 191.541 563.737 190.019C563.781 188.497 564.447 186.822 565.67 185.846C566.844 184.737 568.394 184.243 569.819 184.022C571.243 183.8 572.765 183.844 574.203 184.069C575.641 184.295 577.085 184.743 578.404 185.464C579.722 186.185 580.915 187.178 581.758 188.45C582.601 189.722 583.095 191.273 583.183 192.747C583.272 194.22 583.138 195.7 582.822 197.096C582.28 199.931 580.615 202.575 578.574 204.604C577.575 205.574 576.394 206.459 575.164 207.211C573.934 207.964 572.656 208.584 571.329 209.071C568.675 210.045 565.874 210.621 563.019 210.841C557.35 211.189 551.731 210.239 546.4 208.431C543.734 207.527 541.152 206.441 538.697 205.083C537.469 204.404 536.241 203.725 535.013 203.046C534.42 202.662 533.786 202.367 533.235 201.892L532.412 201.29C532.321 201.248 532.23 201.206 532.182 201.074C532.308 200.801 532.175 200.85 532.175 200.85L532.084 200.808L531.31 200.339Z" fill="#F9DD4A"/>
<path d="M332.951 96.3755C338.748 96.3755 341.647 96.8754 344.746 96.9754C347.744 97.0754 357.44 95.2758 359.339 95.4757C361.238 95.6757 345.545 124.57 344.346 130.168C343.146 135.767 342.347 133.168 342.347 133.168C342.347 133.168 334.25 99.4749 332.751 98.3751C331.052 97.3753 332.951 96.3755 332.951 96.3755Z" fill="white"/>
<path d="M116.148 363.713C91.3587 366.813 64.8706 361.313 56.2744 362.013" stroke="#818CA7" stroke-width="0.9016" stroke-miterlimit="10"/>
<path d="M357.54 96.5755C352.842 103.574 328.253 143.265 338.449 192.853C338.449 192.853 335.25 150.063 357.64 133.167C380.03 116.371 350.843 131.067 351.243 128.168C351.643 125.269 365.636 120.77 365.836 118.47C366.036 116.271 373.733 93.8761 359.739 95.2758C358.74 95.3758 357.94 95.8757 357.54 96.5755Z" fill="#2C2E3A"/>
<path d="M333.451 96.3757C333.451 96.3757 347.744 129.268 341.847 150.263C341.847 150.263 351.043 154.062 330.652 134.867C314.459 119.67 333.451 131.168 333.451 128.268C333.451 125.269 325.554 121.17 324.055 119.37C318.458 112.672 318.058 91.6768 333.451 96.3757Z" fill="#2C2E3A"/>
<path d="M339.948 160.061C333.651 164.36 327.853 167.859 322.456 170.559C316.358 169.359 313.96 165.46 313.66 160.361C325.454 154.762 339.348 147.764 339.348 147.764C339.348 147.764 345.645 141.465 345.346 137.766C345.845 137.666 346.745 137.866 347.045 138.466C348.244 141.065 346.945 143.864 346.945 143.864C346.945 143.864 358.839 138.166 358.939 139.465C359.039 140.765 353.142 144.364 353.142 144.364C353.142 144.364 362.638 139.865 362.338 141.065C362.238 141.565 362.338 141.065 354.741 146.264C354.741 146.264 362.638 143.864 361.738 145.164C360.539 146.764 355.041 149.563 355.041 149.563C355.041 149.563 361.138 147.764 360.339 148.763C359.539 149.763 344.246 156.762 344.246 156.762L339.948 160.061Z" fill="#DE9E9A"/>
<path d="M281.774 176.258C281.774 176.258 285.772 179.257 303.464 181.556C311.561 182.656 324.855 179.457 330.652 167.459C332.451 163.66 323.755 152.862 323.755 152.862C316.059 151.463 311.96 153.762 299.866 155.462C294.468 156.262 286.672 160.161 277.676 157.961L281.774 176.258Z" fill="#363848"/>
<path d="M147.165 64.9829H126.713C121.843 64.9829 117.947 68.8683 117.947 73.7251V91.2096C117.947 96.0664 121.843 100.146 126.713 100.146H141.321V105.974C149.502 105.974 155.93 99.3691 155.93 91.4039V73.9194C155.93 68.8684 152.035 64.9829 147.165 64.9829ZM132.167 85.3815C130.414 85.3815 129.05 84.0216 129.05 82.2731C129.05 80.5247 130.414 79.1648 132.167 79.1648C133.92 79.1648 135.283 80.5247 135.283 82.2731C135.283 84.0216 133.92 85.3815 132.167 85.3815ZM141.711 85.3815C139.958 85.3815 138.594 84.0216 138.594 82.2731C138.594 80.5247 139.958 79.1648 141.711 79.1648C143.464 79.1648 144.828 80.5247 144.828 82.2731C144.828 84.0216 143.464 85.3815 141.711 85.3815Z" fill="#F9DD4A"/>
<path d="M599.132 89.48C599.132 89.48 600.331 36.0924 600.831 29.394C601.331 22.6956 569.545 23.7953 568.346 25.8948C567.146 27.9943 573.943 87.6804 563.548 90.7797C550.154 94.7787 577.742 101.577 577.742 101.577L599.132 89.48Z" fill="#EF886C"/>
<path d="M564.647 90.379L528.963 103.876C526.564 105.076 525.165 111.475 525.764 114.174L595.833 114.574C597.732 114.574 599.332 113.074 599.332 111.075L599.132 88.3795C599.132 88.3795 591.635 87.8796 576.842 92.4786C567.946 95.378 564.647 90.379 564.647 90.379Z" fill="#EF886C"/>
<path d="M527.765 104.976L563.549 105.076L581.441 105.176C587.438 105.276 593.335 105.376 599.333 105.576C593.335 105.676 587.438 105.576 581.441 105.676L563.549 105.476L527.765 104.976C527.765 105.076 527.765 105.076 527.765 104.976Z" fill="#2E3748"/>
<path d="M551.753 98.0783C548.155 95.6788 547.355 93.9792 549.354 93.9792C551.353 93.9792 553.053 96.8786 553.053 96.8786C553.053 96.8786 551.753 91.5798 553.552 91.9797C555.252 92.3796 556.951 95.079 556.951 95.079C556.951 95.079 555.252 90.0801 557.75 90.0801C560.249 90.1801 562.548 94.979 562.548 93.0794C562.548 91.1799 561.049 87.8807 562.548 88.3805C564.048 88.8804 567.946 92.3796 567.646 89.9802C567.346 87.5807 565.347 85.8811 565.847 84.1815C566.347 82.5819 570.145 82.7819 570.145 82.7819C570.145 82.7819 567.046 80.0825 567.046 77.2831C567.046 74.4838 571.044 76.7833 571.044 76.7833C571.044 76.7833 568.046 74.2838 567.546 70.3848C567.046 66.4857 571.044 71.0846 571.044 71.0846C571.044 71.0846 567.946 66.3857 567.946 62.7865C567.946 59.1874 570.545 63.6863 570.545 63.6863C570.545 63.6863 567.646 57.6877 567.746 53.9886C567.846 50.2895 571.844 56.688 571.844 56.688C571.844 56.688 568.446 51.6891 567.846 46.7903C567.246 41.8914 571.844 45.9905 571.844 45.9905C571.844 45.9905 568.046 44.4908 567.446 40.2918C566.946 36.0928 569.145 33.8933 571.844 38.9921" stroke="#2E3748" stroke-width="0.4485" stroke-miterlimit="10" stroke-linecap="round"/>
<path d="M601.031 126.771C600.631 125.771 600.032 124.871 599.232 124.171C598.432 123.472 597.433 122.972 596.333 122.972C595.833 122.972 595.234 123.072 594.834 123.372C594.434 123.672 594.134 124.071 593.934 124.571C593.535 125.571 593.734 126.671 594.234 127.571C595.234 129.47 597.033 130.77 598.732 131.97C599.632 132.57 600.431 133.17 601.331 133.869C601.531 134.069 601.731 134.269 601.931 134.469C602.031 134.569 602.131 134.669 602.231 134.769C602.331 134.869 602.431 135.069 602.431 135.069C602.431 135.069 602.53 135.069 602.63 135.069L602.83 134.869L603.43 134.269C604.929 132.67 606.329 131.07 607.628 129.37C608.228 128.471 608.828 127.671 609.327 126.671C609.827 125.771 609.627 124.671 609.228 123.772C608.428 121.872 606.029 120.772 604.03 121.372C603.03 121.672 602.131 122.372 601.631 123.272C601.031 124.171 600.731 125.171 600.631 126.271C600.731 125.171 601.031 124.171 601.531 123.172C602.031 122.272 602.93 121.472 604.03 121.172C606.129 120.472 608.628 121.572 609.627 123.672C609.827 124.171 610.027 124.771 610.027 125.271C610.027 125.571 610.027 125.871 610.027 126.171C609.927 126.471 609.827 126.671 609.727 126.971C609.228 127.971 608.628 128.87 608.028 129.77C606.729 131.47 605.229 133.07 603.83 134.669L603.23 135.269C603.13 135.369 603.13 135.469 602.93 135.569C602.73 135.669 602.53 135.669 602.331 135.469C602.131 135.269 602.131 135.169 602.031 135.069C601.931 134.969 601.831 134.869 601.831 134.769C601.631 134.569 601.431 134.369 601.231 134.269C600.431 133.569 599.532 132.97 598.732 132.27C597.033 130.97 595.234 129.67 594.234 127.671C593.734 126.671 593.634 125.471 594.034 124.471C594.234 123.972 594.534 123.472 595.034 123.172C595.534 122.872 596.033 122.772 596.633 122.772C597.733 122.772 598.732 123.272 599.532 123.972C600.132 124.771 600.731 125.671 601.031 126.771C601.131 126.771 601.131 126.671 601.031 126.771Z" fill="#2E3748"/>
<path d="M630.218 129.67L631.118 134.769V134.869H631.018L626.22 132.269H626.32L621.422 134.769L621.122 134.969L621.222 134.669C621.522 132.869 621.822 131.07 622.222 129.27L622.322 129.47C621.023 128.17 619.823 126.87 618.524 125.471L618.324 125.271H618.624C619.623 125.171 620.623 125.071 621.622 125.071C620.623 125.271 619.623 125.371 618.624 125.571L618.724 125.371C620.023 126.67 621.322 127.97 622.622 129.27L622.722 129.37V129.47C622.422 131.27 622.022 133.069 621.622 134.869L621.422 134.669L626.42 132.269H626.52H626.62L631.418 134.969H631.318L630.218 129.67C630.218 129.57 630.218 129.67 630.218 129.67C630.218 129.67 630.218 129.57 630.218 129.67Z" fill="#2E3748"/>
<path d="M624.121 124.171L626.42 119.572L626.52 119.372L626.619 119.572L629.018 124.571L628.919 124.471C630.718 124.771 632.517 125.071 634.316 125.371L634.716 125.471L634.416 125.771C633.716 126.371 633.017 126.97 632.317 127.57C631.617 128.17 630.918 128.77 630.218 129.37C630.818 128.67 631.517 128.07 632.117 127.37C632.817 126.771 633.416 126.071 634.116 125.471L634.216 125.871C632.417 125.571 630.618 125.271 628.819 124.871H628.719V124.771L626.52 119.772H626.719L624.121 124.171C624.121 124.271 624.121 124.271 624.121 124.171C624.121 124.171 624.121 124.271 624.121 124.171Z" fill="#2E3748"/>
</svg>
