<svg width="385" height="346" viewBox="0 0 385 346" fill="none" xmlns="http://www.w3.org/2000/svg">
<rect opacity="0.3" x="14.0581" y="61" width="370.052" height="285" rx="10" fill="#D4DBE4"/>
<rect x="0.0561523" y="48" width="370.052" height="275" rx="10" fill="white"/>
<path d="M0.0561523 58C0.0561523 52.4771 4.5333 48 10.0562 48H360.108C365.631 48 370.108 52.4772 370.108 58V250H0.0561523V58Z" fill="#F6F9F5"/>
<path d="M50.0418 47.2617C49.5421 44.3589 46.244 46.9614 49.4421 50.0643" stroke="#D4DBE4" stroke-width="2" stroke-linecap="round"/>
<path d="M315.079 46.2617C314.579 43.3589 311.281 45.9614 314.479 49.0643" stroke="#D4DBE4" stroke-width="2" stroke-linecap="round"/>
<path d="M49.063 47C63.065 41.5 163.507 5.10112 178.486 5.00018C193.465 4.89924 314.6 47 314.6 47" stroke="#D4DBE4" stroke-width="2" stroke-linecap="round"/>
<path d="M177.677 5.80553C177.677 9.00858 176.378 11.6111 174.878 11.6111C173.279 11.6111 172.08 9.00858 172.08 5.80553C172.08 2.60248 173.379 0 174.878 0C175.178 0 175.378 0.100096 175.678 0.200191C175.878 0.300287 176.078 0.500477 176.278 0.700668C177.177 1.80172 177.677 3.70353 177.677 5.80553Z" fill="#D4DBE4"/>
<path d="M183.775 7.80756C183.775 9.1088 183.275 10.1098 182.676 10.1098C182.076 10.1098 181.576 9.1088 181.576 7.80756C181.576 6.50632 182.076 5.50537 182.676 5.50537C182.775 5.50537 182.875 5.50537 182.975 5.60546C183.075 5.70556 183.175 5.70556 183.275 5.80566C183.475 6.10594 183.775 6.90671 183.775 7.80756Z" fill="#D4DBE4"/>
<path d="M182.575 10.1096L179.077 9.60915L174.779 11.7112L174.879 0L178.777 3.50334L182.575 5.40515V10.1096Z" fill="#D4DBE4"/>
<path d="M96.9138 96.4395C96.2406 95.7134 95.8819 94.5983 96.0189 93.6018C96.1558 92.6052 96.6887 91.7235 97.3102 91.1455C98.657 89.8933 100.281 89.2524 101.99 89.0153C105.312 88.4373 108.594 88.9596 111.764 89.7783C113.348 90.2377 114.927 90.7971 116.4 91.5528C117.084 91.9788 117.868 92.4086 118.445 93.0309C118.734 93.3421 119.022 93.6533 119.307 94.0645C119.492 94.4721 119.773 94.9833 119.647 95.6798C119.533 96.0762 119.225 96.2651 118.918 96.4541C118.615 96.543 118.412 96.6356 118.112 96.6245C117.612 96.606 117.213 96.5912 116.717 96.4726C115.826 96.2392 115.138 95.9132 114.353 95.4835C113.569 95.0538 112.885 94.6277 112.308 94.0054C111.731 93.383 111.154 92.7606 110.787 91.8455C110.602 91.438 110.521 90.9342 110.643 90.3377C110.762 89.8413 111.08 89.3523 111.391 89.0633C112.116 88.3891 113.026 88.1223 113.832 87.9519C115.445 87.611 117.144 87.674 118.742 87.7332C121.934 87.9518 125.112 88.5704 128.286 89.2891C131.357 90.1041 134.523 91.0228 137.483 92.1342C138.959 92.7899 140.439 93.3456 141.8 94.3977C141.996 94.5051 142.188 94.7126 142.277 95.0164C142.373 95.1201 142.362 95.4202 142.355 95.6202C142.247 95.8166 142.144 95.9129 142.04 96.0092C141.53 96.2908 141.13 96.276 140.727 96.3612C139.924 96.4316 139.025 96.3982 138.23 96.2686C136.643 95.9093 134.967 95.2462 133.92 93.805C133.635 93.3938 133.45 92.9863 133.465 92.5862C133.384 92.0824 133.499 91.686 133.617 91.1895C134.046 90.4041 134.768 89.8299 135.482 89.4557C137.01 88.7111 138.523 88.3665 140.132 88.1257C141.741 87.8849 143.347 87.7441 144.953 87.6033C151.375 87.0401 157.775 87.077 164.145 87.9142C170.52 88.6514 176.768 90.085 182.916 91.5149C189.161 93.0486 195.306 94.5786 201.45 96.1085C195.202 94.6749 189.057 93.1449 182.809 91.7113C176.561 90.2777 170.309 88.944 164.031 88.3106C157.657 87.5735 151.353 87.6402 144.93 88.2034C141.815 88.5887 138.512 88.6666 135.759 90.067C135.145 90.4449 134.527 90.9228 134.205 91.5119C133.883 92.1009 134.057 92.8085 134.434 93.4235C135.289 94.6571 136.765 95.3128 138.256 95.5684C139.051 95.6981 139.75 95.724 140.553 95.6536C140.956 95.5684 141.356 95.5832 141.563 95.3905C141.667 95.2942 141.559 95.4906 141.563 95.3905C141.567 95.2905 141.371 95.1831 141.274 95.0794C140.106 94.2347 138.53 93.5753 137.15 93.0233C134.19 91.912 131.124 90.9969 128.049 90.282C124.975 89.567 121.797 88.9484 118.701 88.8335C117.103 88.7743 115.604 88.7187 114.091 89.0633C113.385 89.2374 112.674 89.5116 112.16 89.8932C111.746 90.2784 111.624 90.8749 111.901 91.4862C112.456 92.7087 113.717 93.7571 114.99 94.5055C115.678 94.8315 116.366 95.1575 117.061 95.2834C117.457 95.3983 117.757 95.4094 118.057 95.4205C118.256 95.4279 118.36 95.3316 118.46 95.3353C118.56 95.339 118.563 95.2389 118.563 95.2389C118.567 95.1389 118.574 94.9389 118.386 94.6314C118.197 94.3239 118.005 94.1164 117.716 93.8052C117.136 93.2829 116.551 92.8606 115.863 92.5346C114.491 91.7825 113.011 91.2268 111.524 90.8712C108.553 90.0599 105.364 89.7414 102.345 90.2304C100.836 90.4749 99.4152 91.0233 98.4755 92.0902C98.0574 92.5755 97.6356 93.1609 97.6133 93.761C97.4912 94.3575 97.6687 94.9651 98.1533 95.3837C98.4418 95.6949 98.4233 96.195 98.1125 96.484C97.7018 96.7692 97.2024 96.7507 96.9138 96.4395Z" fill="#415F88"/>
<rect x="89.0688" y="267" width="191.027" height="39" rx="5" fill="#0084FF"/>
<path d="M120.895 277C116.022 277 112.072 280.937 112.072 285.794C112.072 288.557 113.351 291.022 115.35 292.634V296L118.361 294.22C119.163 294.459 120.014 294.588 120.895 294.588C125.768 294.588 129.718 290.651 129.718 285.794C129.718 280.937 125.768 277 120.895 277Z" fill="white"/>
<path d="M119.748 286.508L121.933 288.88C122.092 289.054 122.366 289.052 122.524 288.877L126.231 284.764C126.537 284.425 126.129 283.922 125.734 284.15L123.008 285.726C122.846 285.82 122.641 285.788 122.514 285.65L120.33 283.278C120.17 283.104 119.896 283.106 119.738 283.281L116.031 287.394C115.726 287.733 116.134 288.237 116.528 288.008L119.254 286.432C119.416 286.339 119.622 286.37 119.748 286.508Z" fill="#0084FF"/>
<path d="M60.0645 146C60.0645 140.477 64.5416 136 70.0645 136H319.102C324.625 136 329.102 140.477 329.102 146V209C329.102 214.523 324.625 219 319.102 219H60.0645V146Z" fill="white"/>
<path d="M80.587 170.282C79.5295 169.125 79.1248 167.598 79.151 166.079C79.1771 164.561 79.8463 163.243 80.7243 162.308C82.4869 160.06 85.307 158.969 88.1172 158.447C90.9275 157.926 93.5158 157.78 96.313 158.018C98.8948 158.253 101.689 158.681 104.049 159.291C106.624 159.905 109.193 160.899 111.543 162.079C112.61 162.667 113.889 163.449 114.953 164.227C116.014 165.194 117.075 166.162 117.264 167.685C117.258 168.065 117.248 168.634 117.023 169.2C116.797 169.766 116.145 170.134 115.711 170.317C114.627 170.678 113.765 170.663 113.122 170.462C111.618 170.246 110.335 169.655 109.052 169.063C106.702 167.883 104.359 166.323 103.105 164.023C102.479 162.872 101.858 161.342 102.531 159.835C103.203 158.327 104.512 157.4 106.027 157.046C108.843 156.145 111.428 156.189 114.014 156.234C119.18 156.513 124.337 157.361 129.272 158.586C134.208 159.81 139.139 161.224 144.065 163.018C146.418 164.008 148.775 164.808 151.121 166.178C151.761 166.569 152.185 166.956 152.818 167.727L153.027 168.11C153.024 168.3 153.021 168.49 153.018 168.68C153.011 169.06 152.792 169.246 152.574 169.432C152.136 169.804 151.705 169.797 151.271 169.979C149.972 170.337 148.464 170.311 147.172 170.289C144.375 170.05 141.809 168.867 139.9 167.125C139.054 166.161 138.212 165.007 138.235 163.678C138.258 162.349 139.143 161.034 140.017 160.29C142.201 158.618 144.799 157.903 147.179 157.374C149.773 156.849 152.362 156.704 154.953 156.369C165.098 155.404 175.444 155.202 185.765 156.519C196.089 157.646 205.966 159.715 215.839 161.974C225.713 164.233 235.579 166.872 245.453 169.131C235.579 166.872 225.709 164.423 215.617 162.35C205.744 160.091 195.648 158.208 185.537 157.275C175.425 156.341 165.081 156.353 154.934 157.508C152.342 157.843 149.754 157.988 147.374 158.517C144.995 159.046 142.612 159.765 140.866 161.064C139.991 161.809 139.544 162.751 139.531 163.51C139.515 164.459 139.929 165.416 140.778 166.19C142.26 167.735 144.613 168.725 146.979 168.956C148.056 168.974 149.349 168.997 150.433 168.635C150.648 168.639 150.867 168.453 150.867 168.453C150.654 168.259 150.23 167.872 149.806 167.485C147.887 166.313 145.533 165.322 143.177 164.522C138.464 162.922 133.532 161.508 128.594 160.473C123.655 159.438 118.714 158.594 113.543 158.505C111.174 158.464 108.586 158.609 106.418 159.332C104.251 160.054 103.579 161.562 104.842 163.293C105.889 165.02 107.805 166.383 109.943 167.369C111.014 167.767 112.081 168.355 113.158 168.374C113.589 168.381 114.235 168.392 114.235 168.392C114.235 168.392 114.235 168.392 114.239 168.203C114.033 167.629 113.403 166.669 112.551 166.084C111.702 165.31 110.635 164.722 109.78 164.327C107.642 163.341 105.286 162.541 102.926 161.931C100.566 161.32 97.9874 160.896 95.6178 160.855C93.2514 160.625 90.6631 160.77 88.4991 161.302C86.335 161.835 84.1645 162.747 83.0612 164.248C81.7426 165.744 81.7099 167.643 82.7674 168.801C83.4039 169.381 83.1721 170.327 82.516 170.885C82.2973 171.071 81.2202 171.053 80.587 170.282Z" fill="#ADC9EE"/>
<path d="M80.1559 197.603C79.3982 196.778 79.1081 195.69 79.1268 194.608C79.1454 193.525 79.6247 192.586 80.2537 191.92C81.5163 190.318 83.5366 189.541 85.5499 189.17C87.5633 188.798 89.4176 188.695 91.4216 188.865C93.2713 189.032 95.273 189.337 96.9637 189.772C98.8087 190.21 100.649 190.918 102.333 191.759C103.098 192.178 104.014 192.735 104.777 193.29C105.537 193.98 106.297 194.669 106.432 195.754C106.428 196.025 106.421 196.431 106.259 196.834C106.098 197.237 105.63 197.5 105.319 197.63C104.543 197.887 103.926 197.876 103.465 197.733C102.387 197.579 101.468 197.158 100.549 196.736C98.8653 195.895 97.1862 194.783 96.2882 193.144C95.8391 192.324 95.3947 191.234 95.8764 190.159C96.358 189.085 97.2957 188.424 98.3807 188.172C100.399 187.53 102.251 187.562 104.103 187.594C107.804 187.793 111.499 188.398 115.035 189.271C118.571 190.144 122.104 191.152 125.633 192.431C127.319 193.136 129.007 193.707 130.688 194.683C131.147 194.962 131.451 195.237 131.904 195.787L132.054 196.06C132.052 196.195 132.05 196.33 132.047 196.466C132.043 196.736 131.886 196.869 131.729 197.002C131.416 197.267 131.107 197.262 130.796 197.391C129.866 197.646 128.785 197.628 127.859 197.612C125.855 197.442 124.017 196.598 122.649 195.357C122.043 194.67 121.44 193.847 121.456 192.9C121.473 191.953 122.106 191.017 122.733 190.486C124.297 189.295 126.159 188.786 127.863 188.409C129.722 188.035 131.577 187.932 133.433 187.693C140.701 187.006 148.114 186.863 155.508 187.802C162.904 188.606 169.98 190.081 177.054 191.691C184.128 193.302 191.197 195.183 198.271 196.793C191.197 195.183 184.125 193.437 176.895 191.959C169.821 190.349 162.588 189.006 155.344 188.34C148.1 187.674 140.689 187.682 133.419 188.505C131.563 188.743 129.708 188.847 128.004 189.223C126.299 189.6 124.592 190.112 123.341 191.038C122.714 191.568 122.394 192.24 122.385 192.781C122.373 193.457 122.67 194.139 123.278 194.691C124.34 195.792 126.026 196.497 127.721 196.662C128.493 196.675 129.419 196.691 130.195 196.434C130.35 196.436 130.506 196.304 130.506 196.304C130.354 196.166 130.05 195.89 129.746 195.614C128.371 194.778 126.685 194.073 124.997 193.502C121.62 192.362 118.087 191.353 114.549 190.616C111.01 189.878 107.47 189.276 103.766 189.212C102.068 189.183 100.214 189.287 98.6614 189.801C97.1087 190.316 96.6271 191.39 97.5321 192.624C98.2829 193.855 99.6556 194.826 101.187 195.529C101.954 195.813 102.719 196.232 103.491 196.245C103.799 196.25 104.262 196.258 104.262 196.258C104.262 196.258 104.262 196.258 104.265 196.123C104.117 195.714 103.666 195.03 103.056 194.614C102.448 194.062 101.683 193.643 101.07 193.361C99.5385 192.658 97.8501 192.088 96.1594 191.653C94.4687 191.218 92.6214 190.915 90.9237 190.886C89.2284 190.722 87.374 190.825 85.8237 191.204C84.2734 191.584 82.7184 192.234 81.9281 193.303C80.9834 194.369 80.9601 195.722 81.7178 196.547C82.1739 196.961 82.0079 197.635 81.5379 198.033C81.3812 198.165 80.6096 198.152 80.1559 197.603Z" fill="#ADC9EE"/>
<path d="M147.971 291.916C147.368 291.132 147.151 290.107 147.185 289.089C147.218 288.072 147.624 287.195 148.148 286.576C149.202 285.083 150.86 284.374 152.504 284.047C154.149 283.719 155.659 283.642 157.287 283.823C158.789 284 160.412 284.309 161.78 284.736C163.274 285.167 164.759 285.853 166.115 286.661C166.73 287.064 167.466 287.597 168.077 288.127C168.684 288.783 169.29 289.44 169.382 290.461C169.374 290.715 169.361 291.097 169.223 291.474C169.085 291.851 168.7 292.093 168.445 292.212C167.808 292.445 167.306 292.429 166.934 292.289C166.059 292.133 165.319 291.726 164.578 291.32C163.223 290.511 161.876 289.449 161.173 287.898C160.822 287.123 160.479 286.093 160.889 285.088C161.299 284.083 162.074 283.473 162.961 283.247C164.614 282.666 166.12 282.716 167.626 282.766C170.635 282.992 173.631 283.601 176.493 284.459C179.354 285.318 182.212 286.303 185.061 287.543C186.421 288.225 187.785 288.779 189.136 289.715C189.505 289.982 189.747 290.244 190.107 290.765L190.224 291.024C190.22 291.151 190.216 291.278 190.211 291.405C190.203 291.659 190.073 291.782 189.944 291.905C189.684 292.151 189.433 292.143 189.178 292.262C188.416 292.491 187.537 292.462 186.784 292.437C185.157 292.256 183.676 291.443 182.584 290.262C182.103 289.609 181.626 288.83 181.655 287.94C181.685 287.05 182.216 286.176 182.735 285.684C184.028 284.582 185.552 284.123 186.945 283.787C188.464 283.456 189.975 283.378 191.489 283.174C197.415 282.606 203.448 282.552 209.448 283.514C215.453 284.349 221.185 285.812 226.913 287.402C232.641 288.992 238.36 290.836 244.088 292.425C238.36 290.836 232.637 289.119 226.779 287.652C221.051 286.062 215.189 284.722 209.306 284.018C203.423 283.314 197.393 283.242 191.464 283.937C189.949 284.141 188.439 284.218 187.045 284.554C185.652 284.89 184.254 285.353 183.221 286.21C182.702 286.701 182.429 287.329 182.413 287.837C182.392 288.473 182.622 289.117 183.107 289.642C183.952 290.689 185.312 291.37 186.688 291.543C187.316 291.564 188.069 291.589 188.705 291.355C188.831 291.359 188.96 291.236 188.96 291.236C188.839 291.105 188.596 290.843 188.354 290.58C187.249 289.78 185.89 289.098 184.526 288.544C181.798 287.435 178.94 286.45 176.074 285.718C173.208 284.987 170.337 284.383 167.325 284.283C165.944 284.237 164.433 284.315 163.161 284.782C161.889 285.249 161.479 286.253 162.194 287.423C162.784 288.588 163.884 289.515 165.118 290.192C165.738 290.467 166.353 290.87 166.98 290.89C167.231 290.899 167.608 290.911 167.608 290.911C167.608 290.911 167.608 290.911 167.612 290.784C167.499 290.398 167.144 289.75 166.654 289.352C166.169 288.827 165.554 288.425 165.06 288.154C163.826 287.477 162.462 286.922 161.094 286.495C159.726 286.068 158.228 285.764 156.847 285.718C155.47 285.545 153.96 285.622 152.692 285.962C151.424 286.302 150.148 286.896 149.486 287.893C148.699 288.885 148.657 290.156 149.26 290.94C149.624 291.334 149.477 291.966 149.088 292.335C148.958 292.458 148.33 292.437 147.971 291.916Z" fill="white"/>
<ellipse cx="48.0629" cy="96" rx="24.0034" ry="24" fill="#F9DD4A"/>
<path d="M69.566 112C69.566 113.933 67.9989 115.5 66.0655 115.5C64.1321 115.5 62.5649 113.933 62.5649 112C62.5649 110.067 64.1321 108.5 66.0655 108.5C67.9989 108.5 69.566 110.067 69.566 112Z" fill="#41F053" stroke="white"/>
<path d="M43.6555 105.097L28.0596 103.625C28.0596 103.625 31.2209 100.259 32.1693 96.5775C33.0123 93.7375 29.851 89.0043 31.6424 85.8488C33.3285 82.9037 37.9651 83.64 40.7049 81.8519C42.391 80.8001 43.234 77.2239 45.5523 77.0135C47.5545 76.8031 49.3459 79.1172 50.9266 79.4327C52.718 79.7482 54.7202 79.1172 55.8794 79.8534C60.516 82.483 60.8321 87.111 60.8321 87.111L43.6555 105.097Z" fill="#EF886C"/>
<path d="M57.2503 109.83L57.3556 117.298C56.0911 117.508 54.8266 117.614 53.562 117.614C49.663 117.614 45.9748 116.457 42.8135 114.563L43.0242 104.887L43.1296 101.941L42.8135 96.8927V96.4719C42.9189 95.5253 43.0242 94.4735 43.235 93.5268C43.235 93.3165 43.3404 93.2113 43.3404 93.0009C44.078 89.3195 45.5533 85.6381 48.5039 84.2707C48.6093 84.2707 48.7146 84.1656 48.7146 84.1656C49.0308 83.9552 49.4523 83.85 49.7684 83.7448C50.9276 83.3241 52.1921 83.3241 53.3513 83.4293C56.1965 83.6396 58.8309 85.007 60.6224 87.1107C62.203 88.7936 63.1514 91.0024 63.4676 93.4216C64.3106 99.417 64.0998 107.937 57.2503 109.83Z" fill="#E09F9B"/>
<path d="M57.2503 109.831C57.2503 109.831 54.089 110.988 49.6631 108.042C49.6631 108.042 52.1922 113.196 57.3557 114.985L57.2503 109.831Z" fill="#CA7D7A"/>
<path d="M43.656 94.9996C43.656 96.1566 43.0238 97.1033 42.1809 97.1033C41.338 97.1033 40.6005 96.2618 40.4951 95.1048C40.4951 93.9478 41.1273 93.0012 41.9702 93.0012C42.9185 92.896 43.656 93.8426 43.656 94.9996Z" fill="#BE9791"/>
<path d="M42.0754 94.9994C42.0754 95.1046 41.9701 95.3149 41.7594 95.3149C41.6541 95.3149 41.4434 95.2097 41.4434 94.9994C41.4434 94.8942 41.5487 94.6838 41.7594 94.6838C41.9701 94.789 42.0754 94.8942 42.0754 94.9994Z" fill="#A37975"/>
<path d="M57.2503 109.831C56.6181 110.146 55.9858 110.251 55.2481 110.251C54.5105 110.251 53.8782 110.146 53.246 109.936C52.6137 109.725 51.9814 109.515 51.3491 109.199L50.5061 108.674C50.19 108.463 49.9792 108.253 49.6631 108.042L51.5599 108.779C52.1922 108.989 52.8244 109.199 53.4567 109.41C54.089 109.62 54.7213 109.725 55.3535 109.831C55.8804 109.936 56.5127 109.936 57.2503 109.831Z" fill="#383A4A"/>
<path d="M43.656 94.9996C43.656 96.1566 43.0238 97.1033 42.1809 97.1033C41.338 97.1033 40.6005 96.2618 40.4951 95.1048C40.4951 93.9478 41.1273 93.0012 41.9702 93.0012C42.9185 92.896 43.656 93.8426 43.656 94.9996Z" fill="#E09F9B"/>
<path d="M42.6022 94.4737C42.6022 94.4737 41.654 94.3685 41.5487 95.1048C41.4434 95.8411 42.3915 95.7359 42.3915 95.7359" stroke="#B57A77" stroke-width="0.4282" stroke-miterlimit="10" stroke-linecap="round"/>
<path d="M53.1401 99.9434C53.667 100.574 54.1939 101.1 54.8262 101.521C55.4585 101.942 56.1961 102.152 56.9337 102.152C57.6714 102.152 58.409 101.837 59.0413 101.521C59.3574 101.311 59.6736 101.1 59.9897 100.995C60.3058 100.785 60.622 100.574 60.9381 100.364C60.7274 100.68 60.4112 100.995 60.0951 101.206C59.779 101.416 59.4628 101.731 59.1467 101.942C58.409 102.363 57.6714 102.678 56.8284 102.678C55.9853 102.678 55.1423 102.363 54.5101 101.837C53.8778 101.311 53.3509 100.68 53.1401 99.9434Z" fill="#373949"/>
<path d="M56.4072 90.5818C57.0394 91.3181 57.6716 91.9492 58.1984 92.7906C58.7252 93.5269 59.252 94.3684 59.7788 95.1047L59.8842 95.315L59.7788 95.4202C59.252 95.9461 58.7252 96.5772 58.093 96.9979C58.5145 96.3668 58.9359 95.7357 59.4628 95.1047V95.4202C58.9359 94.6839 58.4091 93.9476 57.8823 93.1062C57.2501 92.2647 56.8287 91.4232 56.4072 90.5818Z" fill="#373949"/>
<path d="M53.5609 92.5803C53.7716 93.2114 53.877 93.8425 53.9823 94.4736C53.9823 94.7891 53.9823 95.1047 53.877 95.5254C53.7716 95.8409 53.5609 96.2617 53.1394 96.472C52.718 96.6824 52.2965 96.5772 51.9804 96.472C51.6643 96.3668 51.3482 96.1565 51.1375 95.8409C50.6107 95.4202 50.2946 94.8943 49.9785 94.2632C49.9785 94.158 49.9785 94.0528 50.0839 93.9476C50.1892 93.9476 50.2946 93.9476 50.2946 93.9476C50.7161 94.4736 51.0321 94.8943 51.559 95.315C51.9804 95.7358 52.5072 95.9461 52.9287 95.8409C53.3501 95.6306 53.4555 94.9995 53.4555 94.4736C53.4555 93.8425 53.4555 93.2114 53.2448 92.6855C53.2448 92.5803 53.2448 92.4751 53.3501 92.4751C53.4555 92.4751 53.5609 92.5803 53.5609 92.5803Z" fill="#373949"/>
<path d="M61.7811 90.7922C61.9918 91.3181 62.0972 91.9492 62.2026 92.5803C62.2026 92.8959 62.2026 93.2114 62.2026 93.527C62.0972 93.8425 61.9918 94.2633 61.5704 94.4736C61.1489 94.684 60.7275 94.4736 60.4114 94.2633C60.0953 94.0529 59.8846 93.8425 59.6739 93.6322C59.2524 93.1063 58.9363 92.6855 58.7256 92.0544C58.7256 91.9492 58.7256 91.8441 58.8309 91.8441C58.9363 91.8441 59.0417 91.8441 59.0417 91.9493C59.3578 92.37 59.6739 92.8959 60.0953 93.3166C60.4114 93.7374 60.9382 94.1581 61.2543 94.0529C61.5704 93.9477 61.6758 93.3166 61.5704 92.7907C61.5704 92.2648 61.465 91.6337 61.3597 91.1078C61.3597 91.0026 61.3597 90.8974 61.465 90.8974C61.6758 90.6871 61.7811 90.687 61.7811 90.7922Z" fill="#373949"/>
<path d="M42.7075 80.3792C42.7075 80.3792 56.0905 90.056 60.8325 87.1109C60.7271 87.1109 56.0905 76.3823 42.7075 80.3792Z" fill="#EF886C"/>
<path d="M49.7679 83.7451C49.7679 83.7451 46.9227 91.1079 43.0237 93.2116L38.071 89.9509C37.8602 88.3732 44.2883 81.0104 49.7679 83.7451Z" fill="#EF886C"/>
<path d="M48.2926 103.941C50.3878 103.941 52.0862 102.292 52.0862 100.259C52.0862 98.2261 50.3878 96.5779 48.2926 96.5779C46.1975 96.5779 44.499 98.2261 44.499 100.259C44.499 102.292 46.1975 103.941 48.2926 103.941Z" fill="#EBBDBC"/>
<path d="M63.5714 93.7375C62.4126 94.3686 61.5698 95.5257 61.5698 96.9982C61.5698 98.4708 62.4126 99.6278 63.6767 100.259C63.6767 100.259 63.7821 98.9967 63.7821 96.9982C63.7821 95.1049 63.5714 93.7375 63.5714 93.7375Z" fill="#EBBDBC"/>
<ellipse cx="34.5611" cy="208.5" rx="10.5015" ry="10.5" fill="#F9DD4A"/>
<path d="M32.6328 212.48L25.8096 211.836C25.8096 211.836 27.1927 210.363 27.6076 208.753C27.9764 207.51 26.5933 205.439 27.3771 204.059C28.1147 202.77 30.1432 203.093 31.3419 202.31C32.0796 201.85 32.4484 200.285 33.4626 200.193C34.3386 200.101 35.1223 201.114 35.8139 201.252C36.5976 201.39 37.4736 201.114 37.9807 201.436C40.0092 202.586 40.1476 204.611 40.1476 204.611L32.6328 212.48Z" fill="#EF886C"/>
<path d="M38.5803 214.551L38.6264 217.818C38.0731 217.91 37.5199 217.956 36.9667 217.956C35.2609 217.956 33.6472 217.45 32.2642 216.622L32.3564 212.388L32.4025 211.099L32.2642 208.891V208.707C32.3103 208.292 32.3564 207.832 32.4486 207.418C32.4486 207.326 32.4947 207.28 32.4947 207.188C32.8174 205.577 33.4628 203.967 34.7537 203.369C34.7998 203.369 34.8459 203.323 34.8459 203.323C34.9842 203.231 35.1686 203.184 35.307 203.138C35.8141 202.954 36.3673 202.954 36.8745 203C38.1192 203.092 39.2718 203.691 40.0556 204.611C40.7471 205.347 41.162 206.314 41.3003 207.372C41.6692 209.995 41.577 213.722 38.5803 214.551Z" fill="#E09F9B"/>
<path d="M38.5802 214.551C38.5802 214.551 37.1973 215.057 35.2612 213.769C35.2612 213.769 36.3675 216.023 38.6263 216.806L38.5802 214.551Z" fill="#CA7D7A"/>
<path d="M32.6329 208.062C32.6329 208.569 32.3563 208.983 31.9875 208.983C31.6188 208.983 31.2961 208.615 31.25 208.108C31.25 207.602 31.5266 207.188 31.8953 207.188C32.3102 207.142 32.6329 207.556 32.6329 208.062Z" fill="#BE9791"/>
<path d="M31.9411 208.062C31.9411 208.108 31.895 208.2 31.8028 208.2C31.7567 208.2 31.6646 208.154 31.6646 208.062C31.6646 208.016 31.7106 207.924 31.8028 207.924C31.895 207.97 31.9411 208.016 31.9411 208.062Z" fill="#A37975"/>
<path d="M38.5802 214.551C38.3036 214.689 38.027 214.735 37.7043 214.735C37.3817 214.735 37.1051 214.689 36.8285 214.597C36.5519 214.505 36.2754 214.413 35.9988 214.275L35.63 214.045C35.4917 213.953 35.3995 213.861 35.2612 213.769L36.091 214.091C36.3675 214.183 36.6441 214.275 36.9207 214.367C37.1973 214.459 37.4739 214.505 37.7504 214.551C37.9809 214.597 38.2575 214.597 38.5802 214.551Z" fill="#383A4A"/>
<path d="M32.6329 208.062C32.6329 208.569 32.3563 208.983 31.9875 208.983C31.6188 208.983 31.2961 208.615 31.25 208.108C31.25 207.602 31.5266 207.188 31.8953 207.188C32.3102 207.142 32.6329 207.556 32.6329 208.062Z" fill="#E09F9B"/>
<path d="M32.172 207.832C32.172 207.832 31.7572 207.786 31.7111 208.108C31.665 208.431 32.0798 208.385 32.0798 208.385" stroke="#B57A77" stroke-width="0.4282" stroke-miterlimit="10" stroke-linecap="round"/>
<path d="M36.7822 210.225C37.0127 210.501 37.2432 210.732 37.5198 210.916C37.7963 211.1 38.119 211.192 38.4417 211.192C38.7644 211.192 39.087 211.054 39.3636 210.916C39.5019 210.824 39.6402 210.732 39.7785 210.686C39.9168 210.593 40.0551 210.501 40.1934 210.409C40.1012 210.547 39.9629 210.686 39.8246 210.778C39.6863 210.87 39.548 211.008 39.4097 211.1C39.087 211.284 38.7644 211.422 38.3956 211.422C38.0268 211.422 37.6581 211.284 37.3815 211.054C37.1049 210.824 36.8744 210.547 36.7822 210.225Z" fill="#373949"/>
<path d="M38.2114 206.129C38.488 206.452 38.7646 206.728 38.9951 207.096C39.2255 207.418 39.456 207.786 39.6865 208.108L39.7326 208.2L39.6865 208.246C39.456 208.476 39.2255 208.752 38.949 208.936C39.1334 208.66 39.3177 208.384 39.5482 208.108V208.246C39.3177 207.924 39.0873 207.602 38.8568 207.234C38.5802 206.866 38.3958 206.498 38.2114 206.129Z" fill="#373949"/>
<path d="M36.9667 207.004C37.0589 207.28 37.105 207.556 37.1511 207.832C37.1511 207.97 37.1511 208.108 37.105 208.292C37.0589 208.43 36.9667 208.614 36.7823 208.706C36.5979 208.798 36.4135 208.752 36.2752 208.706C36.137 208.66 35.9987 208.568 35.9065 208.43C35.676 208.246 35.5377 208.016 35.3994 207.74C35.3994 207.694 35.3994 207.648 35.4455 207.602C35.4916 207.602 35.5377 207.602 35.5377 207.602C35.7221 207.832 35.8604 208.016 36.0909 208.2C36.2752 208.384 36.5057 208.476 36.6901 208.43C36.8745 208.338 36.9206 208.062 36.9206 207.832C36.9206 207.556 36.9206 207.28 36.8284 207.05C36.8284 207.004 36.8284 206.958 36.8745 206.958C36.9206 206.958 36.9667 207.004 36.9667 207.004Z" fill="#373949"/>
<path d="M40.5629 206.221C40.6551 206.451 40.7012 206.728 40.7473 207.004C40.7473 207.142 40.7473 207.28 40.7473 207.418C40.7012 207.556 40.6551 207.74 40.4707 207.832C40.2863 207.924 40.1019 207.832 39.9636 207.74C39.8253 207.648 39.7331 207.556 39.6409 207.464C39.4566 207.234 39.3183 207.05 39.2261 206.774C39.2261 206.728 39.2261 206.682 39.2722 206.682C39.3183 206.682 39.3644 206.682 39.3644 206.728C39.5027 206.912 39.6409 207.142 39.8253 207.326C39.9636 207.51 40.1941 207.694 40.3324 207.648C40.4707 207.602 40.5168 207.326 40.4707 207.096C40.4707 206.866 40.4246 206.59 40.3785 206.359C40.3785 206.313 40.3785 206.267 40.4246 206.267C40.5168 206.175 40.5629 206.175 40.5629 206.221Z" fill="#373949"/>
<path d="M32.2178 201.666C32.2178 201.666 38.0728 205.9 40.1474 204.611C40.1013 204.611 38.0728 199.917 32.2178 201.666Z" fill="#EF886C"/>
<path d="M35.3054 203.139C35.3054 203.139 34.0608 206.36 32.3553 207.28L30.1887 205.854C30.0965 205.163 32.9084 201.942 35.3054 203.139Z" fill="#EF886C"/>
<path d="M34.6609 211.974C35.5774 211.974 36.3204 211.253 36.3204 210.364C36.3204 209.474 35.5774 208.753 34.6609 208.753C33.7444 208.753 33.0015 209.474 33.0015 210.364C33.0015 211.253 33.7444 211.974 34.6609 211.974Z" fill="#EBBDBC"/>
<path d="M41.3459 207.51C40.8389 207.786 40.4702 208.293 40.4702 208.937C40.4702 209.581 40.8389 210.087 41.392 210.363C41.392 210.363 41.4381 209.811 41.4381 208.937C41.4381 208.108 41.3459 207.51 41.3459 207.51Z" fill="#EBBDBC"/>
</svg>
