<svg width="670" height="421" viewBox="0 0 670 421" fill="none" xmlns="http://www.w3.org/2000/svg">
<path d="M434.041 35.0431C434.041 37.5455 433.641 40.1479 432.941 42.5502C432.841 43.0507 432.642 43.4511 432.542 43.9516C428.244 57.064 415.052 68.1746 401.46 69.4759C385.77 70.9773 376.075 64.6713 372.178 54.3615C372.078 54.0612 371.978 53.7609 371.878 53.3605C371.678 52.7599 371.478 52.0593 371.278 51.3586C371.178 51.0583 371.178 50.758 371.078 50.5578C370.479 48.1556 370.279 45.5531 370.279 42.7504C370.279 26.1346 385.17 12.3214 401.46 9.01828C421.148 5.01447 430.043 13.0221 432.941 24.7333C433.041 25.0335 433.041 25.3338 433.141 25.534C433.741 28.7371 434.041 31.84 434.041 35.0431Z" fill="#F9DD4A"/>
<path d="M432.942 24.9334C431.243 24.1326 429.444 23.6321 427.545 23.2317C424.946 22.7313 422.348 22.5311 419.75 22.7313C417.151 22.8314 414.553 23.2317 412.054 24.1326C411.455 24.3328 410.855 24.6331 410.255 24.9334C407.657 24.4329 405.158 24.533 402.66 24.9334C397.463 25.8342 392.566 27.8361 388.168 30.6388C383.771 33.4415 379.873 37.0449 376.775 41.1488C375.176 43.2508 373.777 45.3528 372.578 47.655C372.078 48.6559 371.578 49.6569 371.079 50.6579C371.179 50.9581 371.179 51.2584 371.279 51.4586C371.279 51.3585 371.378 51.3585 371.378 51.2584C371.978 50.1574 372.478 48.9562 373.177 47.8552C374.477 45.6531 375.876 43.5511 377.475 41.5492C380.673 37.5454 384.571 34.1421 388.868 31.5396C393.165 28.9372 397.963 27.0354 402.96 26.2346C404.858 25.9343 406.857 25.8342 408.756 26.0344L408.656 26.1345C407.657 27.0354 406.957 28.2365 406.358 29.4376C405.258 31.8399 404.659 34.5425 404.958 37.2451C405.058 38.5463 405.458 39.9476 406.358 41.1488C406.857 41.7494 407.457 42.2498 408.156 42.5501C408.856 42.8504 409.656 42.9505 410.355 42.8504C411.854 42.7503 413.054 42.1497 414.253 41.4491C415.452 40.6483 416.452 39.6474 417.051 38.3461C417.651 37.0449 417.951 35.6436 417.851 34.2422C417.751 32.8409 417.351 31.5396 416.751 30.2384C416.152 29.0373 415.352 27.9362 414.353 26.9353C414.153 26.7351 413.853 26.4348 413.553 26.2346C413.253 26.0344 412.954 25.8342 412.654 25.634C412.354 25.5339 412.154 25.4338 411.854 25.3337C412.054 25.2336 412.254 25.1335 412.554 25.0334C414.852 24.1326 417.451 23.7322 419.949 23.532C422.448 23.4319 425.046 23.532 427.545 23.9324C429.544 24.3328 431.443 24.8333 433.242 25.634C433.042 25.4338 432.942 25.2336 432.942 24.9334ZM411.854 26.9353C412.354 27.2355 412.754 27.5358 413.153 28.0363C413.953 28.9372 414.753 29.9381 415.252 30.9391C416.352 33.0411 416.651 35.6436 415.552 37.6455C415.052 38.6464 414.253 39.5473 413.253 40.1478C412.254 40.7484 411.155 41.2489 410.055 41.349C408.956 41.4491 407.957 41.0487 407.257 40.2479C406.557 39.3471 406.258 38.246 406.058 37.0449C405.758 34.6426 406.258 32.1402 407.257 29.838C407.757 28.737 408.456 27.6359 409.256 26.8352C409.456 26.635 409.656 26.4348 409.955 26.2346C410.055 26.2346 410.155 26.2346 410.155 26.3347C410.855 26.5349 411.355 26.7351 411.854 26.9353Z" fill="white"/>
<path d="M432.942 42.6501C432.843 43.1506 432.643 43.551 432.543 44.0515C432.143 44.552 431.643 45.0524 431.144 45.4528C430.644 45.9533 430.044 46.5539 429.445 46.9542C427.146 48.9562 424.547 50.6578 421.849 52.1592C416.352 54.9619 410.456 56.6635 404.36 57.5644C398.263 58.4652 392.167 58.3651 386.07 57.6644C383.072 57.2641 380.074 56.7636 377.076 56.0629C375.577 55.6625 374.178 55.2622 372.678 54.6616C372.479 54.5615 372.379 54.5615 372.179 54.4614C372.079 54.1611 371.979 53.8608 371.879 53.4604C372.279 53.6606 372.578 53.7607 372.978 53.8608C374.377 54.3613 375.877 54.7617 377.276 55.062C380.174 55.7626 383.172 56.163 386.17 56.4633C392.167 56.9638 398.163 56.7636 404.16 55.9628C410.156 55.2622 415.953 53.6606 421.349 51.0582C424.048 49.7569 426.646 48.1554 428.945 46.3537C429.544 45.9533 430.144 45.3527 430.644 44.8522C431.243 44.3518 431.743 43.8513 432.243 43.2507C432.543 43.0505 432.743 42.8503 432.942 42.6501Z" fill="white"/>
<path d="M422.647 0.00976562C423.247 2.71234 423.647 5.31482 423.947 8.01739C424.247 10.72 424.446 13.4225 424.646 16.025C424.746 18.7276 424.946 21.4302 424.946 24.1327C424.946 26.8353 424.946 29.5379 424.646 32.2405C424.047 29.5379 423.647 26.9354 423.347 24.2328C423.047 21.5303 422.847 18.8277 422.647 16.2252C422.548 13.5226 422.348 10.8201 422.348 8.11749C422.348 5.41491 422.348 2.71234 422.647 0.00976562Z" fill="#EE724A"/>
<path d="M439.737 17.0261C437.039 17.3264 434.341 17.3264 431.642 17.3264C428.944 17.3264 426.245 17.2263 423.547 17.1262C420.849 16.926 418.15 16.7258 415.552 16.4255C412.853 16.1252 410.255 15.7248 407.557 15.1243C410.255 14.824 412.953 14.824 415.652 14.824C418.35 14.824 421.049 14.9241 423.747 15.0242C426.445 15.2244 429.144 15.4245 431.742 15.7248C434.341 16.1252 437.039 16.5256 439.737 17.0261Z" fill="#EE724A"/>
<path d="M433.341 8.51782C431.942 10.1193 430.543 11.5207 428.944 12.922C427.444 14.3234 425.845 15.6246 424.246 16.9258C422.647 18.2271 420.948 19.4282 419.249 20.5293C417.55 21.6303 415.751 22.7314 413.853 23.7323C415.252 22.1308 416.651 20.7295 418.25 19.3281C419.749 17.9268 421.348 16.6255 422.947 15.3243C424.546 14.0231 426.245 12.8219 427.944 11.7209C429.743 10.5197 431.442 9.41868 433.341 8.51782Z" fill="#EE724A"/>
<path d="M415.752 6.91626C417.351 8.2175 418.85 9.51874 420.249 11.0202C421.648 12.4215 423.048 13.9229 424.347 15.4244C425.646 16.9258 426.945 18.5273 428.145 20.1288C429.344 21.7304 430.443 23.432 431.443 25.2337C429.844 23.9325 428.344 22.6312 426.945 21.1298C425.546 19.7285 424.147 18.227 422.848 16.7256C421.548 15.2242 420.249 13.6226 419.05 12.0211C417.851 10.4196 416.751 8.71798 415.752 6.91626Z" fill="#EE724A"/>
<path opacity="0.3" d="M574.357 420.01C627.179 420.01 670 412.257 670 402.693C670 393.13 627.179 385.377 574.357 385.377C521.535 385.377 478.714 393.13 478.714 402.693C478.714 412.257 521.535 420.01 574.357 420.01Z" fill="#D4DBE4"/>
<g opacity="0.3">
<path opacity="0.3" d="M26.0848 102.407H180.593C187.189 102.407 192.485 107.712 192.485 114.319V248.546C192.485 255.153 187.189 260.458 180.593 260.458H26.0848C19.4887 260.458 14.1919 255.153 14.1919 248.546V114.319C14.1919 107.712 19.4887 102.407 26.0848 102.407Z" fill="#D4DBE4"/>
</g>
<path d="M178.193 230.229C178.193 230.229 204.777 254.953 237.658 255.653C277.734 256.454 289.827 230.029 292.825 220.72" stroke="#758AC5" stroke-width="2" stroke-linecap="round"/>
<g opacity="0.3">
<path opacity="0.3" d="M310.515 208.008L464.123 207.908C470.719 207.908 476.016 213.213 476.016 219.819L476.116 287.484C476.116 294.09 470.819 299.395 464.223 299.395L310.614 299.495C304.018 299.495 298.722 294.19 298.722 287.584L298.622 219.919C298.722 213.313 304.018 208.008 310.515 208.008Z" fill="#D4DBE4"/>
</g>
<g opacity="0.3">
<path opacity="0.3" d="M239.457 38.2463L393.065 38.1462C399.661 38.1462 404.958 43.4513 404.958 50.0576L405.058 143.447C405.058 150.053 399.761 155.358 393.165 155.358L239.557 155.458C232.961 155.458 227.664 150.153 227.664 143.547V50.0576C227.664 43.5514 232.961 38.2463 239.457 38.2463Z" fill="#D4DBE4"/>
</g>
<path d="M251.949 209.81C251.949 212.512 249.751 214.714 247.052 214.714C244.354 214.714 242.155 212.512 242.155 209.81C242.155 207.107 244.354 204.905 247.052 204.905C249.751 204.905 251.949 207.107 251.949 209.81Z" stroke="#F9DD4A" stroke-width="1.5027" stroke-miterlimit="10"/>
<path d="M507.397 83.4893C507.597 85.4912 507.597 87.4931 507.597 89.495C507.597 91.4969 507.497 93.4988 507.397 95.5007C507.297 97.5026 507.098 99.5045 506.898 101.406C506.698 103.408 506.398 105.31 505.998 107.312C505.798 105.31 505.798 103.308 505.798 101.306C505.798 99.3043 505.898 97.3024 505.998 95.3005C506.098 93.2986 506.298 91.2967 506.498 89.3949C506.698 87.4931 506.998 85.4912 507.397 83.4893Z" fill="#F9DD4A"/>
<path d="M494.805 96.1013C496.803 95.7009 498.702 95.4006 500.701 95.2004C502.7 95.0002 504.699 94.8 506.598 94.6999C508.596 94.5998 510.595 94.4998 512.594 94.4998C514.593 94.4998 516.592 94.4998 518.591 94.6999C516.592 95.1003 514.693 95.4006 512.694 95.6008C510.695 95.801 508.696 96.0012 506.798 96.1013C504.799 96.2014 502.8 96.3015 500.801 96.3015C498.802 96.4016 496.803 96.3015 494.805 96.1013Z" fill="#F9DD4A"/>
<path d="M499.502 89.7952C500.901 90.4958 502.2 91.2966 503.4 92.0974C504.699 92.8981 505.898 93.8991 507.097 94.7999C508.297 95.7008 509.496 96.7017 510.595 97.7027C511.695 98.7037 512.794 99.8047 513.793 101.006C512.394 100.305 511.095 99.5044 509.796 98.7037C508.497 97.9029 507.297 96.9019 506.098 96.0011C504.899 95.1002 503.699 94.0993 502.6 93.0983C501.601 92.0974 500.501 90.9963 499.502 89.7952Z" fill="#F9DD4A"/>
<path d="M512.494 88.6941C511.795 89.9953 510.895 91.2966 509.996 92.4977C509.096 93.6989 508.197 94.9 507.197 96.0011C506.198 97.1021 505.199 98.2031 504.199 99.3042C503.1 100.405 502.1 101.406 500.801 102.307C501.501 101.006 502.4 99.7046 503.3 98.5034C504.199 97.3023 505.099 96.1011 506.098 95.0001C507.097 93.8991 508.097 92.798 509.096 91.697C510.196 90.5959 511.295 89.5949 512.494 88.6941Z" fill="#F9DD4A"/>
<path d="M606.637 79.2853L606.538 78.8849V78.6847C606.538 78.6847 606.438 78.6847 606.338 78.6847C606.238 78.6847 606.338 78.5847 606.238 78.5847C606.238 78.3845 606.138 78.0842 606.138 77.884C606.038 77.3835 606.038 76.883 605.938 76.3826C605.838 75.3816 605.738 74.3807 605.738 73.3797C605.638 71.3778 605.738 69.3759 605.938 67.374C606.438 63.3702 607.437 59.3664 609.136 55.6628C610.835 51.9593 613.034 48.5561 615.932 45.5532C617.331 44.0518 618.93 42.7505 620.729 41.6495C621.628 41.149 622.628 40.6485 623.627 40.3482C624.627 40.048 625.926 39.9479 627.125 40.5484C629.024 41.7496 630.823 43.251 632.022 45.353C632.522 46.4541 632.822 47.6552 632.722 48.9564C632.622 50.1576 632.122 51.3587 631.523 52.3597C631.223 52.8602 630.823 53.3606 630.323 53.761C629.824 54.1614 629.124 54.4617 628.424 54.4617C627.725 54.4617 627.025 54.2615 626.526 53.8611C626.026 53.4607 625.526 53.0603 625.126 52.66C623.627 50.7582 622.928 48.5561 622.628 46.2539C622.528 45.1528 622.528 43.9517 622.828 42.8506C622.928 42.25 623.128 41.7496 623.427 41.149C623.727 40.6485 624.027 40.148 624.427 39.7477C625.826 37.946 627.625 36.5446 629.424 35.3435C631.323 34.1423 633.321 33.1414 635.42 32.4407C637.519 31.74 639.718 31.2396 641.916 31.3397V32.0403C639.818 31.9402 637.719 32.5408 635.62 33.2415C633.621 34.0422 631.722 35.0432 629.924 36.1442C628.125 37.3454 626.526 38.7467 625.226 40.4483C624.926 40.8487 624.627 41.3492 624.427 41.7496C624.127 42.15 624.027 42.6504 623.927 43.1509C623.727 44.1519 623.727 45.1528 623.827 46.2539C624.127 48.2558 624.827 50.3578 626.126 51.8592C626.725 52.5599 627.625 53.1604 628.324 53.1604C629.024 53.1604 629.824 52.4598 630.323 51.659C630.823 50.8582 631.223 49.8573 631.323 48.9564C631.423 48.0556 631.223 47.0546 630.823 46.1538C629.924 44.4521 628.225 43.0508 626.526 41.8497C625.926 41.5494 625.026 41.5494 624.127 41.7496C623.228 41.9498 622.428 42.3501 621.529 42.8506C619.83 43.8516 618.33 45.0527 616.931 46.4541C614.133 49.2567 611.934 52.5599 610.235 56.1633C608.536 59.7667 607.337 63.5704 606.837 67.4741C606.537 69.476 606.438 71.3778 606.438 73.3797C606.438 74.3807 606.438 75.3816 606.538 76.3826C606.538 76.883 606.637 77.3835 606.637 77.884C606.637 78.0842 606.737 78.3845 606.737 78.5847C606.737 78.5847 606.837 78.6847 606.737 78.6847C606.637 78.6847 606.538 78.7848 606.538 78.7848V78.985L606.637 79.2853Z" fill="#F9DD4A"/>
<path d="M147.612 54.3617C149.323 54.3617 150.71 52.9724 150.71 51.2587C150.71 49.545 149.323 48.1558 147.612 48.1558C145.901 48.1558 144.514 49.545 144.514 51.2587C144.514 52.9724 145.901 54.3617 147.612 54.3617Z" stroke="#EE724A" stroke-width="1.5027" stroke-miterlimit="10"/>
<path d="M333.401 64.4712C332.901 67.6742 330.003 69.8763 326.805 69.3758C323.607 68.8754 321.408 65.9726 321.908 62.7695C322.407 59.5665 325.306 57.3644 328.504 57.8649C331.702 58.3653 333.901 61.2681 333.401 64.4712Z" stroke="#EBCA7B" stroke-width="1.5027" stroke-miterlimit="10"/>
<path d="M11.8929 88.1938H166.401C172.997 88.1938 178.294 93.4989 178.294 100.105V234.333C178.294 240.939 172.997 246.244 166.401 246.244H11.8929C5.29684 246.244 0 240.939 0 234.433V100.105C0 93.599 5.29684 88.1938 11.8929 88.1938Z" fill="white"/>
<path d="M0 99.1042C0 93.0985 4.89708 88.1938 10.8935 88.1938H167.4C173.396 88.1938 178.294 93.0985 178.294 99.1042V125.429H0V99.1042Z" fill="#A4E8A0"/>
<path opacity="0.2" d="M12.9922 196.897V187.889C12.9922 183.685 16.3902 180.281 20.5877 180.281H156.806C161.004 180.281 164.402 183.685 164.402 187.889V196.897C164.402 201.101 161.004 204.505 156.806 204.505H20.5877C16.3902 204.404 12.9922 201.101 12.9922 196.897Z" fill="#CAD9E8"/>
<path opacity="0.2" d="M12.0928 225.725V216.716C12.0928 212.512 15.4907 209.109 19.6882 209.109H155.907C160.104 209.109 163.502 212.512 163.502 216.716V225.725C163.502 229.929 160.104 233.332 155.907 233.332H19.5883C15.4907 233.232 12.0928 229.929 12.0928 225.725Z" fill="#CAD9E8"/>
<path d="M153.208 197.898C156.244 197.898 158.705 195.434 158.705 192.393C158.705 189.353 156.244 186.888 153.208 186.888C150.172 186.888 147.711 189.353 147.711 192.393C147.711 195.434 150.172 197.898 153.208 197.898Z" fill="#F9F8F7" stroke="#758AC5" stroke-width="2"/>
<path d="M155.807 194.195C155.807 194.195 164.302 206.707 180.392 200.401" stroke="#758AC5" stroke-width="2" stroke-linecap="round"/>
<path d="M180.393 200.1C180.393 200.1 174.496 172.073 180.393 175.176C186.289 178.279 181.392 194.795 180.393 200.1Z" stroke="#758AC5" stroke-width="2" stroke-linecap="round"/>
<path d="M181.691 200.801C181.691 200.801 195.783 211.912 189.787 213.513C183.69 215.115 182.591 204.004 181.691 200.801Z" stroke="#758AC5" stroke-width="2" stroke-linecap="round"/>
<path d="M153.208 226.926C156.244 226.926 158.705 224.461 158.705 221.421C158.705 218.38 156.244 215.916 153.208 215.916C150.172 215.916 147.711 218.38 147.711 221.421C147.711 224.461 150.172 226.926 153.208 226.926Z" fill="#F9F8F7" stroke="#758AC5" stroke-width="2"/>
<path d="M155.807 222.722C155.807 222.722 164.302 235.834 180.392 229.528" stroke="#758AC5" stroke-width="2" stroke-linecap="round"/>
<path d="M180.992 228.728C180.792 229.328 179.993 229.328 179.793 228.728C178.494 223.523 175.596 210.711 180.393 212.613C185.49 214.514 182.591 223.723 180.992 228.728Z" stroke="#758AC5" stroke-width="2" stroke-linecap="round"/>
<path d="M180.192 230.329C179.993 229.929 180.492 229.528 180.792 229.729C184.49 231.53 196.483 237.536 190.886 240.639C184.89 244.042 181.791 234.533 180.192 230.329Z" stroke="#758AC5" stroke-width="2" stroke-linecap="round"/>
<path d="M218.369 48.356C209.275 60.7678 221.468 246.244 180.392 200.401" stroke="#758AC5" stroke-width="2" stroke-linecap="round"/>
<path d="M461.724 274.371C461.224 364.157 356.287 407.998 424.046 407.998C440.836 407.998 472.018 404.795 474.816 399.39C477.515 394.085 415.252 387.479 386.969 397.088C358.685 406.697 412.653 409.6 439.537 404.895C466.421 400.191 447.333 395.386 417.051 396.087C385.669 396.888 325.006 411.602 271.138 406.397C267.44 405.996 207.276 403.394 203.978 403.094C203.978 403.094 110.933 410.401 99.0405 408.098C87.0476 405.796 96.9417 397.989 112.732 398.689C128.523 399.39 156.106 411.602 129.422 412.503C99.7401 413.504 86.5479 403.494 101.639 385.177C113.532 370.863 99.6401 317.112 99.0405 315.21" stroke="#758AC5" stroke-width="2"/>
<path d="M229.463 28.2368L383.071 28.1367C389.667 28.1367 394.964 33.4418 394.964 40.0481L395.064 133.437C395.064 140.043 389.767 145.348 383.171 145.348L229.563 145.448C222.967 145.448 217.67 140.143 217.67 133.537V40.0481C217.67 33.5419 222.967 28.2368 229.463 28.2368Z" fill="white"/>
<path d="M217.67 39.3474C217.67 33.3417 222.567 28.437 228.563 28.437L384.071 28.3369C390.067 28.3369 394.964 33.2416 394.964 39.2473V65.5724L217.67 65.6725V39.3474Z" fill="#A4E8A0"/>
<path opacity="0.2" d="M230.662 87.3931C230.662 82.9889 234.16 79.4856 238.557 79.4856L374.076 79.3855C378.474 79.3855 381.972 82.8888 381.972 87.293V95.6009C381.972 100.005 378.474 103.508 374.076 103.508L238.557 103.609C234.16 103.609 230.662 100.105 230.662 95.701V87.3931Z" fill="#CAD9E8"/>
<path opacity="0.2" d="M230.662 116.221C230.662 111.816 234.16 108.313 238.557 108.313L374.076 108.213C378.474 108.213 381.972 111.716 381.972 116.12V124.428C381.972 128.833 378.474 132.336 374.076 132.336L238.557 132.436C234.16 132.436 230.662 128.933 230.662 124.528V116.221Z" fill="#CAD9E8"/>
<path d="M237.701 50.6037C238.71 47.7359 237.206 44.5921 234.343 43.5818C231.48 42.5714 228.341 44.0771 227.332 46.9449C226.323 49.8127 227.827 52.9565 230.69 53.9668C233.553 54.9772 236.692 53.4715 237.701 50.6037Z" fill="#F9F8F7" stroke="#758AC5" stroke-width="2"/>
<path d="M229.863 48.556C229.863 48.556 227.065 33.3415 216.571 34.3425" stroke="#758AC5" stroke-width="2" stroke-linecap="round"/>
<path d="M216.571 34.3425C216.571 34.3425 212.873 62.7696 208.276 57.8649C203.679 52.9603 213.873 39.047 216.571 34.3425Z" stroke="#758AC5" stroke-width="2" stroke-linecap="round"/>
<path d="M215.571 33.2415C215.571 33.2415 205.977 18.027 212.173 18.5275C218.37 19.0279 215.771 29.8382 215.571 33.2415Z" stroke="#758AC5" stroke-width="2" stroke-linecap="round"/>
<path d="M21.387 87.2929C20.8873 84.3902 17.5892 86.9926 20.7873 90.0956" stroke="#D4DBE4" stroke-width="2" stroke-linecap="round"/>
<path d="M154.108 87.2929C153.608 84.3902 150.31 86.9926 153.509 90.0956" stroke="#D4DBE4" stroke-width="2" stroke-linecap="round"/>
<path d="M21.3872 86.6923C21.3872 86.6923 78.1533 44.1518 85.6488 44.0517C93.1444 43.9516 153.009 86.6923 153.009 86.6923" stroke="#D4DBE4" stroke-width="2" stroke-linecap="round"/>
<path d="M83.0503 45.3529C83.0503 48.5559 81.7511 51.1584 80.2519 51.1584C78.6529 51.1584 77.4536 48.5559 77.4536 45.3529C77.4536 42.1498 78.7528 39.5474 80.2519 39.5474C80.5518 39.5474 80.7516 39.6475 81.0515 39.7476C81.2513 39.8477 81.4512 40.0478 81.6511 40.248C82.5506 41.3491 83.0503 43.2509 83.0503 45.3529Z" fill="#D4DBE4"/>
<path d="M89.1469 47.3549C89.1469 48.6562 88.6472 49.6571 88.0476 49.6571C87.4479 49.6571 86.9482 48.6562 86.9482 47.3549C86.9482 46.0537 87.4479 45.0527 88.0476 45.0527C88.1475 45.0527 88.2475 45.0527 88.3474 45.1528C88.4473 45.2529 88.5473 45.2529 88.6472 45.353C88.8471 45.6533 89.1469 46.4541 89.1469 47.3549Z" fill="#D4DBE4"/>
<path d="M87.9477 49.657L84.4498 49.1565L80.1523 51.2585L80.2523 39.5474L84.15 43.0507L87.9477 44.9525V49.657Z" fill="#D4DBE4"/>
<path d="M234.56 28.6372C234.061 25.7344 230.763 28.3369 233.961 31.4398" stroke="#D4DBE4" stroke-width="2" stroke-linecap="round"/>
<path d="M364.979 28.2714C364.479 25.3687 361.181 27.9712 364.379 31.0741" stroke="#D4DBE4" stroke-width="2" stroke-linecap="round"/>
<path d="M233.261 28.0364C233.261 28.0364 289.127 5.41487 296.623 5.21468C304.018 5.01449 364.782 28.0364 364.782 28.0364" stroke="#D4DBE4" stroke-width="2" stroke-linecap="round"/>
<path d="M294.524 5.91539C294.524 9.11844 293.225 11.7209 291.726 11.7209C290.227 11.7209 288.828 9.11844 288.828 5.91539C288.828 2.71234 290.127 0.109863 291.626 0.109863C291.926 0.109863 292.126 0.209959 292.425 0.310054C292.625 0.410149 292.825 0.61034 293.025 0.810531C293.925 1.81148 294.524 3.7133 294.524 5.91539Z" fill="#D4DBE4"/>
<path d="M300.52 7.81709C300.52 9.11832 300.021 10.1193 299.421 10.1193C298.821 10.1193 298.322 9.11832 298.322 7.81709C298.322 6.51585 298.821 5.51489 299.421 5.51489C299.521 5.51489 299.621 5.51489 299.721 5.61499C299.821 5.71508 299.921 5.71508 300.021 5.81518C300.321 6.21556 300.52 7.01632 300.52 7.81709Z" fill="#D4DBE4"/>
<path d="M299.422 10.2195L295.824 9.61892L291.526 11.7209L291.626 0.109863L295.524 3.6132L299.422 5.51501V10.2195Z" fill="#D4DBE4"/>
<path d="M17.1897 117.222C16.3902 116.02 16.0903 114.619 16.0903 113.218C16.0903 111.816 16.4901 110.415 17.1897 109.314C17.4895 108.713 17.9892 108.213 18.389 107.612C18.8887 107.112 19.2884 106.611 19.8881 106.311L20.6876 105.711L21.587 105.21C22.1867 104.91 22.7863 104.71 23.4859 104.509C26.0844 103.709 28.6828 103.809 31.2813 104.109C33.8797 104.409 36.3782 105.11 38.6768 106.111C41.0754 107.112 43.374 108.513 45.173 110.415C46.0724 111.416 46.872 112.517 47.2717 113.918C47.4716 114.619 47.4716 115.52 46.872 116.321C46.5721 116.721 46.0724 116.821 45.6727 116.921C45.2729 117.021 44.8731 117.021 44.5733 116.921C43.1742 116.721 41.9749 116.02 40.8755 115.32C39.7762 114.619 38.7768 113.718 37.9773 112.717C37.1777 111.716 36.3782 110.615 35.9785 109.314C35.4788 108.013 35.3788 106.611 35.9785 105.21C36.5781 103.809 37.7774 102.908 39.0766 102.508C40.3758 102.007 41.6751 101.807 42.9743 101.707C45.5727 101.507 48.0712 101.807 50.5697 102.207C55.5668 103.008 60.4638 104.509 65.161 106.311C67.5596 107.212 69.8582 108.213 72.0569 109.414C73.1563 110.015 74.2556 110.615 75.3549 111.316C75.8547 111.716 76.3544 112.117 76.8541 112.517C77.0539 112.717 77.3538 113.018 77.5536 113.318C77.7535 113.618 77.9534 113.918 77.9534 114.519C77.9534 115.019 77.4537 115.42 77.1539 115.52C76.854 115.72 76.4543 115.82 76.1545 115.82C75.5548 116.02 74.8552 116.121 74.1557 116.121C72.8564 116.121 71.4573 115.62 70.3579 114.919C68.1592 113.318 66.86 110.815 66.6601 108.213C66.5602 106.912 66.6601 105.51 67.6595 104.409C68.1592 103.909 68.8588 103.509 69.4585 103.408C70.0581 103.308 70.7577 103.208 71.3573 103.108C73.8558 102.808 76.4543 102.908 78.9528 103.208C83.9498 103.709 88.9468 104.81 93.644 106.611C94.8433 107.112 95.9427 107.612 97.1419 108.213C98.2413 108.814 99.3406 109.514 100.14 110.715C100.54 111.216 100.74 112.117 100.34 112.717C100.14 113.018 99.9403 113.318 99.6404 113.518C99.3406 113.718 99.1407 113.918 98.8409 114.019C98.2413 114.319 97.5417 114.419 96.9421 114.419C96.2425 114.419 95.6428 114.319 95.0432 114.019C93.8439 113.518 92.7446 112.817 91.8451 111.917C90.9456 111.016 90.2461 109.915 89.8463 108.613C89.6464 108.013 89.6464 107.312 89.7464 106.611C89.8463 106.011 90.1461 105.31 90.5459 104.81C91.3454 103.709 92.5447 103.108 93.744 102.708C96.1425 101.907 98.741 101.907 101.239 102.007C103.738 102.107 106.237 102.407 108.735 102.808C113.732 103.609 118.629 104.61 123.526 105.711C128.423 106.812 133.32 108.113 138.117 109.614C142.915 111.116 147.712 112.817 152.209 115.019C147.712 112.817 142.915 111.116 138.117 109.614C133.32 108.113 128.423 106.912 123.526 105.811C118.629 104.71 113.632 103.809 108.735 103.008C106.237 102.608 103.738 102.307 101.239 102.207C98.741 102.107 96.2425 102.207 93.8439 103.008C92.6446 103.408 91.5453 104.009 90.8457 104.91C90.0462 105.811 89.9462 107.112 90.346 108.313C90.6458 109.514 91.3454 110.515 92.2449 111.416C93.1443 112.317 94.1437 113.018 95.2431 113.418C95.8427 113.618 96.4424 113.718 97.042 113.818C97.6416 113.818 98.2413 113.718 98.741 113.418C99.0408 113.318 99.2407 113.118 99.4406 112.917C99.6404 112.717 99.8403 112.517 99.9403 112.217C100.24 111.716 100.04 111.216 99.7404 110.715C99.0408 109.714 98.0414 109.014 96.9421 108.413C95.8427 107.813 94.7434 107.312 93.5441 106.812C88.8469 105.01 83.9498 104.009 78.9528 103.509C76.4543 103.308 73.9558 103.208 71.4573 103.509C70.8576 103.609 70.258 103.709 69.6583 103.809C69.0587 103.909 68.559 104.109 68.2592 104.61C67.5596 105.41 67.3597 106.712 67.4597 107.913C67.7595 110.315 68.9588 112.617 70.8576 114.019C71.857 114.719 72.9564 115.12 74.1557 115.12C74.7553 115.12 75.3549 115.019 75.9546 114.919C76.5542 114.819 77.1539 114.519 77.0539 114.219C77.0539 113.918 76.6542 113.418 76.2544 113.018C75.8547 112.617 75.3549 112.217 74.8552 111.917C73.8558 111.216 72.7565 110.615 71.6572 110.015C69.4585 108.914 67.1598 107.913 64.7613 107.012C60.0641 105.31 55.2669 103.909 50.2699 103.108C47.7714 102.708 45.2729 102.508 42.8743 102.708C41.6751 102.808 40.4758 103.008 39.3764 103.408C38.2771 103.809 37.3776 104.61 36.9779 105.611C36.5781 106.611 36.678 107.813 37.0778 108.914C37.4776 110.015 38.1771 111.016 38.8767 111.917C39.6763 112.817 40.5757 113.618 41.5751 114.319C42.5745 114.919 43.6739 115.52 44.7732 115.72C45.2729 115.82 45.7726 115.72 45.9725 115.42C46.1724 115.22 46.2723 114.719 46.0724 114.219C45.7726 113.218 45.073 112.217 44.2735 111.316C42.5745 109.614 40.4758 108.313 38.1771 107.412C35.8785 106.511 33.4799 105.811 31.0814 105.611C28.6828 105.31 26.1843 105.31 23.8857 106.011C23.286 106.211 22.7863 106.311 22.2866 106.611L21.4871 107.012L20.7875 107.512C20.2878 107.813 19.8881 108.313 19.4883 108.713C19.1885 109.214 18.7887 109.614 18.4889 110.115C17.3896 112.117 17.2896 114.719 18.4889 116.521C18.6888 116.821 18.5888 117.322 18.289 117.522C17.8893 117.722 17.4895 117.622 17.1897 117.222Z" fill="#F3FCF2"/>
<path d="M18.6887 149.452C17.9891 148.751 17.6893 147.65 17.7892 146.649C17.8892 145.648 18.3889 144.748 19.0885 144.147C20.3877 142.846 22.0867 142.145 23.6857 141.845C26.9838 141.244 30.2818 141.645 33.4799 142.345C35.0789 142.746 36.678 143.246 38.0771 144.047C38.7767 144.447 39.4763 144.948 40.1759 145.448C40.4757 145.748 40.7755 146.049 41.0753 146.449C41.2752 146.85 41.575 147.35 41.3752 148.051C41.2752 148.451 40.9754 148.651 40.6756 148.851C40.3758 148.952 40.0759 149.052 39.8761 149.052C39.3764 149.052 38.9766 149.052 38.4769 148.952C37.5774 148.751 36.8778 148.451 36.0783 148.051C35.3787 147.65 34.5792 147.15 33.9796 146.649C33.3799 146.049 32.7803 145.448 32.3805 144.547C32.1807 144.147 32.0807 143.646 32.1807 143.046C32.2806 142.545 32.5804 142.045 32.8802 141.745C33.5798 141.044 34.4793 140.844 35.2788 140.644C36.9778 140.243 38.5768 140.243 40.1759 140.343C43.374 140.544 46.5721 141.044 49.6702 141.745C52.7684 142.445 55.8665 143.246 58.9647 144.447C60.4638 145.048 61.9629 145.548 63.362 146.549C63.5619 146.649 63.7618 146.85 63.8617 147.15C63.9617 147.25 63.9617 147.55 63.9617 147.75C63.8617 147.951 63.7618 148.051 63.5619 148.151C63.0622 148.451 62.6625 148.451 62.2627 148.551C61.4632 148.651 60.5637 148.651 59.7642 148.551C58.1651 148.251 56.4662 147.55 55.4668 146.149C55.2669 145.748 54.967 145.348 54.967 144.948C54.8671 144.447 54.967 144.047 55.1669 143.546C55.5667 142.746 56.2663 142.145 56.9659 141.745C58.465 140.944 60.064 140.544 61.6631 140.243C63.2621 140.043 64.8611 139.843 66.4602 139.643C72.8564 138.942 79.2525 138.842 85.6487 139.543C92.0449 140.143 98.3411 141.344 104.537 142.746C110.734 144.047 117.03 145.548 123.226 146.95C117.03 145.648 110.734 144.247 104.537 142.946C98.2412 141.645 92.0449 140.443 85.6487 139.943C79.3525 139.342 72.9563 139.543 66.5601 140.243C63.462 140.744 60.1639 140.844 57.3656 142.345C56.666 142.746 56.1663 143.246 55.8665 143.847C55.5667 144.447 55.7666 145.148 56.1663 145.748C57.0658 146.95 58.5649 147.55 60.064 147.85C60.8635 147.951 61.5631 147.951 62.3626 147.85C62.7624 147.75 63.1622 147.75 63.362 147.55C63.462 147.45 63.362 147.65 63.362 147.55C63.362 147.45 63.1622 147.35 63.0622 147.25C61.8629 146.349 60.3638 145.849 58.8647 145.248C55.8665 144.147 52.7684 143.346 49.6702 142.746C46.5721 142.145 43.374 141.645 40.2758 141.444C38.6768 141.444 37.1777 141.444 35.6786 141.745C34.979 141.945 34.2794 142.245 33.7797 142.646C33.3799 143.046 33.28 143.646 33.4799 144.247C33.9796 145.448 35.2788 146.449 36.678 147.15C37.3776 147.45 38.0771 147.75 38.7767 147.951C39.1765 148.051 39.4763 148.051 39.7761 148.051C39.976 148.051 40.0759 147.951 40.1759 147.951C40.2758 147.951 40.2758 147.85 40.2758 147.85C40.2758 147.75 40.2758 147.55 40.0759 147.25C39.8761 146.95 39.6762 146.749 39.3764 146.449C38.8767 145.949 38.1771 145.548 37.4775 145.248C36.0783 144.547 34.6792 144.047 33.1801 143.747C30.1818 143.046 26.9838 142.746 23.9855 143.346C22.4864 143.646 21.0873 144.247 20.1878 145.248C19.6881 145.748 19.3883 146.349 19.3883 146.95C19.2884 147.55 19.4882 148.151 19.888 148.551C20.1878 148.851 20.1878 149.352 19.888 149.652C19.4882 149.752 18.9885 149.752 18.6887 149.452Z" fill="#ADC9EE"/>
<path d="M17.5892 166.068C17.0895 165.467 16.8896 164.667 16.8896 163.866C16.8896 163.065 17.1895 162.364 17.5892 161.864C18.3888 160.663 19.688 160.062 20.9872 159.762C22.2864 159.462 23.4857 159.362 24.7849 159.462C25.9842 159.562 27.2834 159.762 28.3828 160.062C29.5821 160.363 30.7814 160.863 31.8807 161.464C32.3804 161.764 32.98 162.164 33.4797 162.565C33.9794 163.065 34.4791 163.566 34.5791 164.366C34.5791 164.567 34.5791 164.867 34.4791 165.167C34.3792 165.467 34.0794 165.668 33.8795 165.768C33.3798 165.968 32.98 165.968 32.6802 165.868C31.9806 165.768 31.381 165.467 30.7814 165.167C29.682 164.567 28.5827 163.766 27.983 162.565C27.6832 161.964 27.3834 161.163 27.6832 160.363C27.983 159.562 28.5827 159.061 29.2822 158.861C30.5815 158.361 31.7808 158.361 32.98 158.361C35.3786 158.461 37.7772 158.861 40.0758 159.462C42.3744 160.062 44.6731 160.763 46.9717 161.664C48.071 162.164 49.1704 162.565 50.2697 163.265C50.5695 163.466 50.7694 163.666 51.0692 164.066L51.1692 164.266C51.1692 164.366 51.1692 164.466 51.1692 164.567C51.1692 164.767 51.0692 164.867 50.9693 164.967C50.7694 165.167 50.5695 165.167 50.3697 165.267C49.77 165.467 49.0704 165.467 48.4708 165.467C47.1716 165.367 45.9723 164.767 45.0728 163.866C44.6731 163.365 44.2733 162.765 44.2733 162.064C44.2733 161.364 44.6731 160.663 45.0728 160.262C46.0722 159.362 47.2715 158.961 48.3709 158.661C49.5701 158.361 50.7694 158.261 51.9687 158.06C56.6659 157.46 61.463 157.26 66.2602 157.86C71.0573 158.361 75.6546 159.362 80.2518 160.463C84.8491 161.564 89.4463 162.865 94.0436 163.966C89.4463 162.865 84.8491 161.664 80.1519 160.663C75.5546 159.562 70.8574 158.661 66.1602 158.261C61.463 157.86 56.6659 157.96 51.9687 158.661C50.7694 158.861 49.5701 158.961 48.4708 159.262C47.3714 159.562 46.2721 159.962 45.4726 160.663C45.0728 161.063 44.8729 161.564 44.8729 161.964C44.8729 162.465 45.0728 162.965 45.4726 163.365C46.1722 164.166 47.2715 164.667 48.3709 164.767C48.8706 164.767 49.4702 164.767 49.9699 164.567C50.0698 164.567 50.1698 164.466 50.1698 164.466C50.0698 164.366 49.87 164.166 49.6701 163.966C48.7706 163.365 47.6713 162.865 46.5719 162.465C44.3732 161.664 42.0746 160.963 39.776 160.463C37.4774 159.962 35.1787 159.562 32.7802 159.562C31.6808 159.562 30.4815 159.662 29.4821 160.062C28.4827 160.463 28.1829 161.263 28.7825 162.164C29.2822 163.065 30.1817 163.766 31.1811 164.266C31.6808 164.466 32.1805 164.767 32.6802 164.767C32.8801 164.767 33.1799 164.767 33.1799 164.767C33.1799 164.767 33.1799 164.767 33.1799 164.667C33.08 164.366 32.7802 163.866 32.3804 163.566C31.9806 163.165 31.4809 162.865 31.0812 162.665C30.0818 162.164 28.9824 161.764 27.8831 161.464C26.7837 161.163 25.5845 160.963 24.4851 160.963C23.3858 160.863 22.1865 160.963 21.1871 161.263C20.1877 161.564 19.1883 162.064 18.6886 162.865C18.0889 163.666 18.0889 164.667 18.5886 165.267C18.8885 165.568 18.7885 166.068 18.4887 166.368C18.3888 166.468 17.8891 166.368 17.5892 166.068Z" fill="#ADC9EE"/>
<path d="M246.553 52.8601C244.954 50.3577 245.253 47.2548 246.553 44.8525C247.852 42.4502 250.35 40.8487 252.849 40.0479C255.447 39.3472 258.046 39.2471 260.644 39.6475C263.243 40.0479 265.741 40.6485 268.04 41.6494C270.438 42.6504 272.637 44.0517 274.536 45.9535C275.435 46.9545 276.235 48.0555 276.635 49.4569C276.835 50.1575 276.835 51.0584 276.135 51.8592C275.835 52.2595 275.335 52.3596 274.936 52.4597C274.536 52.5598 274.136 52.5598 273.836 52.4597C272.437 52.2595 271.238 51.5589 270.139 50.8582C269.039 50.1575 268.04 49.2567 267.24 48.2557C266.441 47.2548 265.641 46.1537 265.241 44.8525C264.842 43.5512 264.642 42.0498 265.241 40.7486C265.841 39.3472 267.04 38.5465 268.34 38.046C269.639 37.5455 270.938 37.3453 272.237 37.2452C274.836 37.1451 277.334 37.3453 279.833 37.7457C284.83 38.5465 289.727 40.0479 294.424 41.8496C296.823 42.7505 299.121 43.7514 301.32 45.0527C302.419 45.6532 303.519 46.3539 304.518 47.1547C305.018 47.5551 305.517 47.9554 306.017 48.4559C306.217 48.7562 306.417 48.9564 306.617 49.3568C306.817 49.6571 306.917 50.1575 306.717 50.5579C306.517 50.9583 306.217 51.2586 305.917 51.4588C305.617 51.659 305.218 51.7591 304.918 51.8592C304.218 52.0593 303.519 51.9592 302.819 51.7591C301.52 51.3587 300.42 50.658 299.421 49.7572C298.422 48.8563 297.622 47.8553 296.923 46.7543C296.323 45.6532 295.823 44.352 295.823 42.9507C295.823 42.25 296.023 41.5493 296.323 40.9488C296.623 40.3482 297.222 39.8477 297.722 39.4473C298.322 39.047 298.921 38.8468 299.521 38.6466C300.121 38.4464 300.72 38.2462 301.42 38.1461C303.918 37.5455 306.517 37.5455 309.015 37.6456C314.112 38.046 319.009 39.3472 323.607 41.5493C324.706 42.1499 325.905 42.7505 326.905 43.4511C327.904 44.2519 328.903 45.0527 329.603 46.2538C329.903 46.8544 330.003 47.6551 329.703 48.2557C329.403 48.8563 328.804 49.3568 328.204 49.6571C327.005 50.2576 325.505 50.1575 324.306 49.7572C323.107 49.2567 322.008 48.556 321.108 47.5551C320.209 46.6542 319.509 45.5531 319.109 44.2519C318.71 43.0508 318.909 41.5493 319.709 40.4483C320.508 39.3472 321.708 38.7467 322.907 38.3463C325.406 37.5455 327.904 37.5455 330.403 37.6456C332.901 37.7457 335.4 38.046 337.898 38.5465C342.895 39.4473 347.792 40.3482 352.689 41.5493C357.586 42.7505 362.483 44.0517 367.281 45.5531C372.078 47.1547 376.775 48.8563 381.372 51.0584C376.875 48.8563 372.078 47.1547 367.281 45.6532C362.483 44.1518 357.586 42.8506 352.689 41.7495C347.792 40.6485 342.795 39.7476 337.898 38.8468C335.4 38.4464 332.901 38.1461 330.403 38.046C327.904 37.9459 325.406 38.046 323.007 38.7467C321.808 39.147 320.708 39.7476 320.009 40.6485C319.309 41.6494 319.109 42.9507 319.509 44.0517C319.809 45.2529 320.508 46.2538 321.408 47.1547C322.307 48.0555 323.307 48.7562 324.406 49.1566C325.506 49.557 326.805 49.6571 327.904 49.0565C328.404 48.7562 328.903 48.3558 329.103 47.8553C329.403 47.3549 329.303 46.7543 329.003 46.2538C328.504 45.1528 327.504 44.352 326.505 43.6513C325.506 42.9507 324.406 42.3501 323.307 41.7495C318.809 39.6475 313.912 38.3463 308.915 37.9459C306.417 37.7457 303.918 37.8458 301.52 38.4464C300.92 38.5465 300.321 38.7467 299.721 38.9469C299.121 39.147 298.522 39.3472 298.122 39.6475C297.122 40.2481 296.523 41.3491 296.523 42.4502C296.523 43.6513 296.923 44.7524 297.522 45.8534C298.122 46.8544 298.921 47.8553 299.821 48.6561C300.72 49.4569 301.82 50.1575 302.919 50.4578C303.519 50.5579 304.018 50.658 304.618 50.5579C305.118 50.4578 305.717 50.1575 305.817 49.8572C305.917 49.557 305.617 49.0565 305.318 48.556C304.918 48.1556 304.418 47.7552 304.018 47.3549C303.019 46.6542 301.92 45.9535 300.92 45.353C298.721 44.1518 296.423 43.1509 294.124 42.25C289.427 40.4483 284.63 39.0469 279.633 38.3463C277.134 37.9459 274.636 37.7457 272.237 37.8458C271.038 37.9459 269.839 38.1461 268.739 38.5465C267.64 38.9469 266.741 39.6475 266.241 40.6485C265.841 41.6494 265.941 42.8506 266.341 43.9516C266.741 45.0527 267.34 46.0536 268.14 46.9545C268.939 47.8553 269.839 48.6561 270.838 49.3568C271.838 49.9573 272.937 50.5579 274.036 50.7581C274.536 50.8582 275.036 50.7581 275.236 50.5579C275.435 50.3577 275.535 49.8572 275.335 49.3568C275.036 48.3558 274.336 47.3549 273.537 46.454C271.838 44.7524 269.739 43.4511 267.44 42.4502C265.142 41.5493 262.743 40.8487 260.344 40.5484C257.946 40.2481 255.447 40.2481 253.149 40.9488C250.85 41.6494 248.851 43.0508 247.752 45.0527C246.653 47.0546 246.453 49.6571 247.752 51.4588C247.952 51.7591 247.852 52.2595 247.552 52.4597C247.252 53.3606 246.753 53.2605 246.553 52.8601Z" fill="#F3FCF2"/>
<path d="M243.754 95.9012C243.055 95.2005 242.655 94.0995 242.755 93.0985C242.855 92.0976 243.355 91.1967 243.954 90.5961C245.253 89.2949 246.852 88.5942 248.551 88.2939C251.85 87.5933 255.148 87.9937 258.346 88.6943C259.945 89.0947 261.544 89.5952 263.043 90.2958C263.742 90.6962 264.542 91.0966 265.142 91.6972C265.441 91.9975 265.741 92.2978 266.041 92.6981C266.241 93.0985 266.541 93.599 266.441 94.2997C266.341 94.7 266.041 94.9002 265.741 95.1004C265.441 95.2005 265.242 95.3006 264.942 95.3006C264.442 95.3006 264.042 95.3006 263.543 95.2005C262.643 95.0003 261.943 94.7 261.144 94.2997C260.344 93.8993 259.645 93.4989 259.045 92.8983C258.446 92.2978 257.846 91.6972 257.446 90.7963C257.246 90.3959 257.146 89.8955 257.246 89.2949C257.346 88.7944 257.646 88.2939 257.946 87.9937C258.645 87.293 259.545 86.9927 260.344 86.7925C261.943 86.3921 263.642 86.3921 265.242 86.3921C268.44 86.4922 271.638 86.9927 274.836 87.5933C277.934 88.2939 281.132 89.0947 284.13 90.0957C285.629 90.6962 287.128 91.1967 288.528 92.1977C288.728 92.2978 288.927 92.4979 289.027 92.7982C289.127 92.8983 289.127 93.1986 289.127 93.3988C289.027 93.599 288.927 93.6991 288.827 93.7992C288.328 94.0995 287.928 94.0995 287.528 94.1996C286.729 94.2997 285.829 94.2997 285.03 94.1996C283.431 93.8993 281.732 93.2987 280.632 91.8974C280.333 91.497 280.133 91.0966 280.133 90.6962C280.033 90.1958 280.133 89.7954 280.233 89.2949C280.632 88.4941 281.332 87.8936 282.032 87.4932C283.531 86.6924 285.03 86.292 286.629 85.9918C288.228 85.6915 289.827 85.4913 291.426 85.2911C297.822 84.4903 304.218 84.2901 310.614 84.8907C317.011 85.3912 323.307 86.5923 329.503 87.7935C335.799 89.0947 341.996 90.3959 348.192 91.6972C341.896 90.496 335.699 89.1948 329.403 87.9937C323.107 86.7925 316.811 85.6915 310.515 85.2911C304.118 84.7906 297.822 85.0909 291.426 85.8917C288.328 86.3921 285.03 86.5923 282.331 88.0938C281.732 88.4941 281.132 88.9946 280.832 89.5952C280.532 90.1958 280.732 90.8964 281.132 91.497C282.031 92.6981 283.531 93.2987 285.03 93.4989C285.829 93.599 286.529 93.599 287.328 93.4989C287.728 93.3988 288.128 93.3988 288.328 93.1986C288.428 93.0985 288.328 93.2987 288.328 93.1986C288.328 93.0985 288.128 92.9984 288.028 92.8983C286.829 92.0976 285.23 91.497 283.83 90.9965C280.832 89.9956 277.734 89.1948 274.636 88.5942C271.538 87.9937 268.34 87.4932 265.242 87.4932C263.642 87.4932 262.143 87.4932 260.644 87.8936C259.945 88.0938 259.245 88.394 258.745 88.7944C258.346 89.1948 258.246 89.7954 258.546 90.3959C259.145 91.5971 260.444 92.598 261.744 93.2987C262.443 93.599 263.143 93.8993 263.842 93.9994C264.242 94.0995 264.542 94.0995 264.842 94.0995C265.042 94.0995 265.142 93.9994 265.242 93.9994C265.341 93.9994 265.341 93.8993 265.341 93.8993C265.341 93.7992 265.341 93.599 265.142 93.2987C264.942 92.9984 264.742 92.7982 264.442 92.4979C263.842 91.9975 263.243 91.5971 262.543 91.2968C261.144 90.5961 259.645 90.0957 258.146 89.7954C255.148 89.0947 251.949 88.8945 248.951 89.4951C247.452 89.7954 246.053 90.3959 245.154 91.497C244.754 91.9975 244.354 92.598 244.354 93.1986C244.254 93.7992 244.454 94.3998 244.954 94.8001C245.253 95.1004 245.253 95.6009 244.954 95.9012C244.554 96.3016 244.054 96.2015 243.754 95.9012Z" fill="#ADC9EE"/>
<path d="M242.955 124.028C242.455 123.427 242.255 122.626 242.255 121.826C242.255 121.025 242.555 120.324 242.955 119.824C243.754 118.623 245.054 118.022 246.353 117.722C247.652 117.421 248.851 117.321 250.151 117.421C251.35 117.522 252.649 117.722 253.749 118.022C254.948 118.322 256.147 118.823 257.246 119.423C257.746 119.724 258.346 120.124 258.845 120.524C259.345 121.025 259.845 121.525 259.945 122.326C259.945 122.526 259.945 122.827 259.845 123.127C259.745 123.427 259.445 123.627 259.245 123.727C258.746 123.928 258.346 123.928 258.046 123.828C257.346 123.727 256.747 123.427 256.147 123.127C255.048 122.526 253.948 121.726 253.349 120.524C253.049 119.924 252.749 119.123 253.049 118.322C253.349 117.522 253.948 117.021 254.648 116.821C255.947 116.32 257.146 116.32 258.346 116.32C260.744 116.42 263.143 116.821 265.442 117.421C267.74 118.022 270.039 118.723 272.337 119.624C273.437 120.124 274.536 120.524 275.635 121.225C275.935 121.425 276.135 121.625 276.435 122.026L276.535 122.226C276.535 122.326 276.535 122.426 276.535 122.526C276.535 122.726 276.435 122.827 276.335 122.927C276.135 123.127 275.935 123.127 275.735 123.227C275.136 123.427 274.436 123.427 273.837 123.427C272.537 123.327 271.338 122.726 270.439 121.826C270.039 121.325 269.639 120.725 269.639 120.024C269.639 119.323 270.039 118.623 270.439 118.222C271.438 117.321 272.637 116.921 273.737 116.621C274.936 116.32 276.135 116.22 277.334 116.02C282.032 115.42 286.829 115.219 291.626 115.82C296.423 116.32 301.02 117.321 305.618 118.422C310.215 119.523 314.812 120.825 319.409 121.926C314.812 120.825 310.215 119.624 305.518 118.623C300.92 117.522 296.223 116.621 291.526 116.22C286.829 115.82 282.032 115.92 277.334 116.621C276.135 116.821 274.936 116.921 273.837 117.221C272.737 117.522 271.638 117.922 270.838 118.623C270.439 119.023 270.239 119.523 270.239 119.924C270.239 120.424 270.439 120.925 270.838 121.325C271.538 122.126 272.637 122.626 273.737 122.726C274.236 122.726 274.836 122.726 275.336 122.526C275.436 122.526 275.536 122.426 275.536 122.426C275.436 122.326 275.236 122.126 275.036 121.926C274.136 121.325 273.037 120.825 271.938 120.424C269.739 119.624 267.44 118.923 265.142 118.422C262.843 117.922 260.544 117.522 258.146 117.522C257.047 117.522 255.847 117.622 254.848 118.022C253.848 118.422 253.549 119.223 254.148 120.124C254.648 121.025 255.547 121.726 256.547 122.226C257.047 122.426 257.546 122.726 258.046 122.726C258.246 122.726 258.546 122.726 258.546 122.726C258.546 122.726 258.546 122.726 258.546 122.626C258.446 122.326 258.146 121.826 257.746 121.525C257.346 121.125 256.847 120.825 256.447 120.624C255.448 120.124 254.348 119.724 253.249 119.423C252.149 119.123 250.95 118.923 249.851 118.923C248.751 118.823 247.552 118.923 246.553 119.223C245.553 119.523 244.554 120.024 244.054 120.825C243.455 121.625 243.455 122.626 243.954 123.227C244.254 123.527 244.154 124.028 243.854 124.328C243.655 124.428 243.255 124.328 242.955 124.028Z" fill="#ADC9EE"/>
<path d="M402.459 232.231C401.96 235.434 399.061 237.636 395.863 237.136C392.665 236.635 390.467 233.732 390.966 230.529C391.466 227.326 394.364 225.124 397.562 225.625C400.76 226.125 402.959 229.028 402.459 232.231Z" stroke="#EBCA7B" stroke-width="1.5027" stroke-miterlimit="10"/>
<path d="M298.522 195.997L452.13 195.896C458.726 195.896 464.023 201.202 464.023 207.808L464.123 275.472C464.123 282.079 458.826 287.384 452.23 287.384L298.622 287.484C292.026 287.484 286.729 282.179 286.729 275.572L286.629 207.908C286.729 201.302 292.026 195.997 298.522 195.997Z" fill="white"/>
<path d="M286.729 207.107C286.729 201.101 291.626 196.197 297.622 196.197L453.129 196.096C459.126 196.096 464.023 201.001 464.023 207.007V233.332L286.729 233.432V207.107Z" fill="#A4E8A0"/>
<path opacity="0.2" d="M299.721 255.153C299.721 250.748 303.219 247.245 307.616 247.245L443.135 247.145C447.532 247.145 451.03 250.648 451.03 255.053V263.36C451.03 267.765 447.532 271.268 443.135 271.268L307.616 271.368C303.219 271.368 299.721 267.865 299.721 263.461V255.153Z" fill="#CAD9E8"/>
<path d="M306.852 218.407C307.861 215.539 306.358 212.395 303.494 211.385C300.631 210.374 297.492 211.88 296.483 214.748C295.475 217.616 296.978 220.759 299.841 221.77C302.705 222.78 305.844 221.274 306.852 218.407Z" fill="#F9F8F7" stroke="#758AC5" stroke-width="2"/>
<path d="M298.921 216.316C298.921 216.316 296.123 201.101 285.629 202.102" stroke="#758AC5" stroke-width="2" stroke-linecap="round"/>
<path d="M285.629 202.102C285.629 202.102 281.932 230.529 277.334 225.624C272.737 220.72 282.931 206.807 285.629 202.102Z" stroke="#758AC5" stroke-width="2" stroke-linecap="round"/>
<path d="M284.63 201.001C284.63 201.001 275.036 185.787 281.232 186.287C287.428 186.788 284.83 197.598 284.63 201.001Z" stroke="#758AC5" stroke-width="2" stroke-linecap="round"/>
<path d="M303.618 196.397C303.119 193.494 299.821 196.096 303.019 199.199" stroke="#D4DBE4" stroke-width="2" stroke-linecap="round"/>
<path d="M434.141 196.097C433.641 193.194 430.343 195.796 433.541 198.899" stroke="#D4DBE4" stroke-width="2" stroke-linecap="round"/>
<path d="M302.319 195.796C302.319 195.796 357.486 167.869 364.982 167.669C372.477 167.569 433.841 195.796 433.841 195.796" stroke="#D4DBE4" stroke-width="2" stroke-linecap="round"/>
<path d="M363.883 169.972C363.883 173.175 362.584 175.777 361.084 175.777C359.585 175.777 358.286 173.175 358.286 169.972C358.286 166.768 359.585 164.166 361.084 164.166C361.384 164.166 361.584 164.266 361.884 164.366C362.084 164.466 362.284 164.666 362.484 164.867C363.383 165.868 363.883 167.769 363.883 169.972Z" fill="#D4DBE4"/>
<path d="M369.979 171.873C369.979 173.174 369.479 174.175 368.88 174.175C368.28 174.175 367.78 173.174 367.78 171.873C367.78 170.572 368.28 169.571 368.88 169.571C368.98 169.571 369.079 169.571 369.179 169.671C369.279 169.771 369.379 169.771 369.479 169.871C369.679 170.272 369.979 170.972 369.979 171.873Z" fill="#D4DBE4"/>
<path d="M368.78 174.176L365.182 173.675L360.985 175.777L361.085 164.066L364.982 167.669L368.78 169.571V174.176Z" fill="#D4DBE4"/>
<path d="M315.611 220.62C314.012 218.117 314.312 215.015 315.611 212.612C316.91 210.21 319.409 208.608 321.907 207.808C324.506 207.107 327.104 207.007 329.703 207.407C332.301 207.808 334.8 208.408 337.098 209.409C339.497 210.41 341.696 211.811 343.595 213.713C344.494 214.714 345.294 215.815 345.693 217.217C345.893 217.917 345.893 218.818 345.194 219.619C344.894 220.019 344.394 220.119 343.994 220.219C343.595 220.32 343.195 220.32 342.895 220.219C341.496 220.019 340.296 219.319 339.197 218.618C338.098 217.917 337.098 217.016 336.299 216.015C335.499 215.015 334.7 213.913 334.3 212.612C333.9 211.311 333.7 209.81 334.3 208.508C334.9 207.107 336.099 206.306 337.398 205.806C338.697 205.305 339.997 205.105 341.296 205.005C343.894 204.905 346.393 205.105 348.891 205.505C353.888 206.306 358.785 207.808 363.483 209.609C365.881 210.51 368.18 211.511 370.379 212.812C371.478 213.413 372.577 214.114 373.577 214.914C374.076 215.315 374.576 215.715 375.076 216.216C375.276 216.516 375.475 216.716 375.675 217.117C375.875 217.417 375.975 217.917 375.775 218.318C375.575 218.718 375.276 219.018 374.976 219.219C374.676 219.419 374.276 219.519 373.976 219.619C373.277 219.819 372.577 219.719 371.878 219.519C370.578 219.118 369.479 218.418 368.48 217.517C367.48 216.616 366.681 215.615 365.981 214.514C365.382 213.413 364.882 212.112 364.882 210.71C364.882 210.01 365.082 209.309 365.382 208.709C365.681 208.108 366.281 207.607 366.781 207.207C367.38 206.807 367.98 206.607 368.58 206.406C369.179 206.206 369.779 206.006 370.478 205.906C372.977 205.305 375.575 205.305 378.074 205.405C383.171 205.806 388.068 207.107 392.665 209.309C393.765 209.91 394.964 210.51 395.963 211.211C396.963 212.012 397.962 212.812 398.662 214.014C398.961 214.614 399.061 215.415 398.762 216.015C398.462 216.616 397.862 217.117 397.262 217.417C396.063 218.017 394.564 217.917 393.365 217.517C392.166 217.016 391.066 216.316 390.167 215.315C389.267 214.414 388.568 213.313 388.168 212.012C387.768 210.811 387.968 209.309 388.768 208.208C389.567 207.107 390.766 206.506 391.966 206.106C394.464 205.305 396.963 205.305 399.461 205.405C401.96 205.505 404.458 205.806 406.957 206.306C411.954 207.207 416.851 208.108 421.748 209.309C426.645 210.51 431.542 211.811 436.339 213.313C441.136 214.914 445.833 216.616 450.431 218.818C445.933 216.616 441.136 214.914 436.339 213.413C431.542 211.912 426.645 210.61 421.748 209.509C416.851 208.408 411.854 207.507 406.957 206.607C404.458 206.206 401.96 205.906 399.461 205.806C396.963 205.706 394.464 205.806 392.066 206.506C390.866 206.907 389.767 207.507 389.067 208.408C388.368 209.409 388.168 210.71 388.568 211.811C388.867 213.013 389.567 214.014 390.467 214.914C391.366 215.815 392.365 216.516 393.465 216.916C394.564 217.317 395.863 217.417 396.963 216.816C397.462 216.516 397.962 216.116 398.162 215.615C398.462 215.115 398.362 214.514 398.062 214.014C397.562 212.913 396.563 212.112 395.563 211.411C394.564 210.71 393.465 210.11 392.365 209.509C387.868 207.407 382.971 206.106 377.974 205.706C375.476 205.505 372.977 205.606 370.578 206.206C369.979 206.306 369.379 206.506 368.779 206.707C368.18 206.907 367.58 207.107 367.18 207.407C366.181 208.008 365.581 209.109 365.581 210.21C365.581 211.411 365.981 212.512 366.581 213.613C367.18 214.614 367.98 215.615 368.879 216.416C369.779 217.217 370.878 217.917 371.978 218.218C372.577 218.318 373.077 218.418 373.677 218.318C374.176 218.218 374.776 217.917 374.876 217.617C374.976 217.317 374.676 216.816 374.376 216.316C373.976 215.915 373.477 215.515 373.077 215.115C372.078 214.414 370.978 213.713 369.979 213.113C367.78 211.912 365.481 210.911 363.183 210.01C358.486 208.208 353.688 206.807 348.691 206.106C346.193 205.706 343.694 205.505 341.296 205.606C340.097 205.706 338.897 205.906 337.798 206.306C336.699 206.707 335.799 207.407 335.299 208.408C334.9 209.409 335 210.61 335.399 211.711C335.799 212.812 336.399 213.813 337.198 214.714C337.998 215.615 338.897 216.416 339.897 217.117C340.896 217.717 341.995 218.318 343.095 218.518C343.595 218.618 344.094 218.518 344.294 218.318C344.494 218.117 344.594 217.617 344.394 217.117C344.094 216.116 343.395 215.115 342.595 214.214C340.896 212.512 338.797 211.211 336.499 210.21C334.2 209.309 331.802 208.608 329.403 208.308C327.004 208.008 324.506 208.008 322.207 208.709C319.909 209.409 317.91 210.811 316.811 212.812C315.711 214.814 315.511 217.417 316.811 219.219C317.01 219.519 316.91 220.019 316.611 220.219C316.311 221.12 315.811 221.02 315.611 220.62Z" fill="#F3FCF2"/>
<path d="M312.813 263.761C312.114 263.061 311.714 261.96 311.814 260.959C311.914 259.958 312.414 259.057 313.013 258.456C314.313 257.155 315.912 256.454 317.611 256.154C320.909 255.453 324.207 255.854 327.405 256.554C329.004 256.955 330.603 257.455 332.102 258.156C332.801 258.556 333.601 258.957 334.201 259.557C334.5 259.858 334.8 260.158 335.1 260.558C335.3 260.959 335.6 261.459 335.5 262.16C335.4 262.56 335.1 262.76 334.8 262.961C334.5 263.061 334.301 263.161 334.001 263.161C333.501 263.161 333.101 263.161 332.602 263.061C331.702 262.86 331.003 262.56 330.203 262.16C329.404 261.759 328.704 261.359 328.104 260.758C327.505 260.158 326.905 259.557 326.505 258.656C326.305 258.256 326.205 257.756 326.305 257.155C326.405 256.655 326.705 256.154 327.005 255.854C327.705 255.153 328.604 254.853 329.404 254.653C331.003 254.252 332.702 254.252 334.301 254.252C337.499 254.352 340.697 254.853 343.895 255.453C346.993 256.154 350.191 256.955 353.189 257.956C354.688 258.556 356.188 259.057 357.587 260.058C357.787 260.158 357.986 260.358 358.086 260.658C358.186 260.758 358.186 261.059 358.186 261.259C358.086 261.459 357.986 261.559 357.887 261.659C357.387 261.96 356.987 261.96 356.587 262.06C355.788 262.16 354.888 262.16 354.089 262.06C352.49 261.759 350.791 261.159 349.691 259.757C349.392 259.357 349.192 258.957 349.192 258.556C349.092 258.056 349.192 257.655 349.292 257.155C349.691 256.354 350.391 255.754 351.091 255.353C352.59 254.553 354.089 254.152 355.688 253.852C357.287 253.552 358.886 253.351 360.485 253.151C366.881 252.35 373.277 252.15 379.674 252.751C386.07 253.251 392.366 254.452 398.562 255.654C404.858 256.955 411.055 258.256 417.251 259.557C410.955 258.356 404.759 257.055 398.462 255.854C392.166 254.653 385.87 253.552 379.574 253.151C373.177 252.651 366.881 252.951 360.485 253.752C357.387 254.252 354.089 254.452 351.39 255.954C350.791 256.354 350.191 256.855 349.891 257.455C349.591 258.056 349.791 258.757 350.191 259.357C351.091 260.558 352.59 261.159 354.089 261.359C354.888 261.459 355.588 261.459 356.387 261.359C356.787 261.259 357.187 261.259 357.387 261.059C357.487 260.959 357.387 261.159 357.387 261.059C357.387 260.959 357.187 260.859 357.087 260.758C355.888 259.958 354.289 259.357 352.89 258.857C349.891 257.856 346.793 257.055 343.695 256.454C340.597 255.854 337.399 255.353 334.301 255.353C332.702 255.353 331.202 255.353 329.703 255.754C329.004 255.954 328.304 256.254 327.804 256.655C327.405 257.055 327.305 257.655 327.605 258.256C328.204 259.457 329.503 260.458 330.803 261.159C331.502 261.459 332.202 261.759 332.901 261.859C333.301 261.96 333.601 261.96 333.901 261.96C334.101 261.96 334.201 261.859 334.301 261.859C334.401 261.859 334.401 261.759 334.401 261.759C334.401 261.659 334.401 261.459 334.201 261.159C334.001 260.859 333.801 260.658 333.501 260.358C332.901 259.858 332.302 259.457 331.602 259.157C330.203 258.456 328.704 257.956 327.205 257.655C324.207 256.955 321.009 256.755 318.01 257.355C316.511 257.655 315.112 258.256 314.213 259.357C313.813 259.858 313.413 260.458 313.413 261.059C313.313 261.659 313.513 262.26 314.013 262.66C314.313 262.961 314.313 263.461 314.013 263.761C313.613 264.062 313.113 264.062 312.813 263.761Z" fill="#ADC9EE"/>
<g opacity="0.3">
<path opacity="0.3" d="M113.132 308.504L232.961 308.404C238.058 308.404 242.255 312.507 242.255 317.712V370.563C242.255 375.668 238.158 379.872 232.961 379.872L113.132 379.972C108.035 379.972 103.838 375.868 103.838 370.663V317.813C103.938 312.708 108.035 308.504 113.132 308.504Z" fill="#D4DBE4"/>
</g>
<path d="M211.674 324.819C211.274 327.322 208.975 329.023 206.577 328.623C204.078 328.222 202.379 325.92 202.779 323.518C203.179 321.116 205.477 319.314 207.876 319.714C210.275 320.015 211.974 322.317 211.674 324.819Z" stroke="#EBCA7B" stroke-width="1.5027" stroke-miterlimit="10"/>
<path d="M103.838 299.195L223.666 299.094C228.763 299.094 232.961 303.198 232.961 308.403V361.254C232.961 366.359 228.863 370.563 223.666 370.563L103.838 370.663C98.741 370.663 94.5435 366.559 94.5435 361.354V308.503C94.5435 303.299 98.741 299.195 103.838 299.195Z" fill="white"/>
<path d="M94.5435 307.803C94.5435 303.098 98.3412 299.295 103.038 299.295L224.366 299.195C229.063 299.195 232.861 302.998 232.861 307.703V328.222L94.5435 328.322V307.803Z" fill="#A4E8A0"/>
<path opacity="0.2" d="M104.737 345.339C104.737 341.936 107.536 339.133 110.934 339.133L216.67 339.033C220.068 339.033 222.867 341.836 222.867 345.239V351.745C222.867 355.148 220.068 357.951 216.67 357.951L110.934 358.051C107.536 358.051 104.737 355.248 104.737 351.845V345.339Z" fill="#CAD9E8"/>
<path d="M110.232 316.629C111.021 314.387 109.845 311.93 107.607 311.14C105.368 310.35 102.914 311.527 102.125 313.769C101.337 316.011 102.512 318.469 104.751 319.259C106.989 320.049 109.443 318.872 110.232 316.629Z" fill="#F9F8F7" stroke="#758AC5" stroke-width="2"/>
<path d="M104.038 315.01C104.038 315.01 101.84 303.098 93.6445 303.899" stroke="#758AC5" stroke-width="2" stroke-linecap="round"/>
<path d="M93.7437 304C93.7437 304 90.8454 326.221 87.2476 322.317C83.6497 318.513 91.645 307.603 93.7437 304Z" stroke="#758AC5" stroke-width="2" stroke-linecap="round"/>
<path d="M92.9447 303.098C92.9447 303.098 85.4492 291.187 90.3463 291.588C95.1434 291.988 93.1446 300.496 92.9447 303.098Z" stroke="#758AC5" stroke-width="2" stroke-linecap="round"/>
<path d="M107.737 299.495C107.337 297.193 104.737 299.295 107.237 301.697" stroke="#D4DBE4" stroke-width="2" stroke-linecap="round"/>
<path d="M210.276 299.495C209.876 297.193 207.276 299.295 209.776 301.697" stroke="#D4DBE4" stroke-width="2" stroke-linecap="round"/>
<path d="M106.736 298.995C106.736 298.995 149.81 277.174 155.707 277.074C161.603 276.974 209.375 298.995 209.375 298.995" stroke="#D4DBE4" stroke-width="2" stroke-linecap="round"/>
<path d="M154.808 278.875C154.808 281.378 153.808 283.38 152.609 283.38C151.41 283.38 150.41 281.378 150.41 278.875C150.41 276.373 151.41 274.371 152.609 274.371C152.809 274.371 153.009 274.471 153.208 274.571C153.408 274.671 153.508 274.771 153.708 274.972C154.408 275.672 154.808 277.174 154.808 278.875Z" fill="#D4DBE4"/>
<path d="M159.504 280.377C159.504 281.378 159.105 282.179 158.605 282.179C158.105 282.179 157.706 281.378 157.706 280.377C157.706 279.376 158.105 278.575 158.605 278.575C158.705 278.575 158.805 278.575 158.805 278.676C158.905 278.676 158.905 278.776 159.005 278.876C159.405 279.076 159.504 279.677 159.504 280.377Z" fill="#D4DBE4"/>
<path d="M158.706 282.179L155.907 281.778L152.509 283.38L152.609 274.371L155.607 277.074L158.706 278.575V282.179Z" fill="#D4DBE4"/>
<path d="M116.93 318.513C115.631 316.511 115.831 314.009 116.93 312.107C118.03 310.205 119.929 308.904 121.927 308.303C123.926 307.703 126.025 307.703 128.024 308.003C130.023 308.303 132.021 308.804 133.82 309.605C135.719 310.405 137.418 311.506 138.917 313.008C139.617 313.809 140.316 314.609 140.616 315.81C140.716 316.311 140.816 317.112 140.216 317.812C139.617 318.413 138.817 318.413 138.318 318.313C137.218 318.113 136.219 317.612 135.419 317.012C134.52 316.411 133.82 315.71 133.121 314.91C132.421 314.109 131.921 313.208 131.522 312.207C131.122 311.206 131.022 310.005 131.522 308.904C132.021 307.803 133.021 307.102 134.02 306.702C135.02 306.301 136.019 306.201 137.018 306.101C139.017 306.001 141.016 306.201 143.015 306.502C146.912 307.202 150.71 308.303 154.408 309.705C156.207 310.405 158.106 311.206 159.805 312.207C160.704 312.708 161.504 313.208 162.303 313.809C162.703 314.109 163.103 314.409 163.503 314.81C163.702 315.01 163.802 315.21 164.002 315.51C164.102 315.811 164.202 316.211 164.102 316.511C164.002 316.912 163.702 317.112 163.403 317.212C163.103 317.312 162.903 317.412 162.603 317.512C162.003 317.612 161.504 317.612 160.904 317.412C159.905 317.112 159.005 316.511 158.206 315.911C157.406 315.21 156.807 314.409 156.307 313.508C155.807 312.607 155.407 311.606 155.407 310.505C155.407 309.404 156.007 308.303 157.006 307.703C157.506 307.402 157.906 307.202 158.406 307.102C158.905 306.902 159.405 306.802 159.905 306.702C161.903 306.301 163.902 306.201 165.901 306.301C169.899 306.602 173.796 307.603 177.294 309.404C178.194 309.805 179.093 310.305 179.893 310.906C180.692 311.506 181.492 312.207 181.991 313.108C182.191 313.608 182.291 314.209 182.091 314.709C181.792 315.21 181.392 315.61 180.892 315.81C179.893 316.311 178.793 316.211 177.794 315.81C176.795 315.41 175.995 314.81 175.295 314.109C174.596 313.408 173.996 312.507 173.696 311.506C173.397 310.505 173.497 309.404 174.196 308.504C174.796 307.703 175.795 307.202 176.695 306.902C178.594 306.301 180.592 306.301 182.591 306.301C184.59 306.402 186.489 306.602 188.488 307.002C192.385 307.703 196.183 308.403 200.081 309.304C203.878 310.205 207.676 311.206 211.474 312.407C215.172 313.608 218.869 315.01 222.467 316.711C218.969 315.01 215.272 313.709 211.474 312.507C207.676 311.306 203.878 310.305 200.081 309.504C196.283 308.604 192.385 307.903 188.488 307.302C186.589 307.002 184.59 306.702 182.691 306.702C180.792 306.602 178.793 306.702 176.895 307.302C175.995 307.603 175.096 308.103 174.596 308.804C173.996 309.504 173.896 310.505 174.196 311.406C174.796 313.208 176.295 314.709 177.994 315.41C178.893 315.71 179.893 315.81 180.692 315.41C181.092 315.21 181.492 314.91 181.592 314.509C181.792 314.109 181.692 313.708 181.492 313.308C181.092 312.507 180.292 311.907 179.593 311.306C178.793 310.706 177.994 310.305 177.094 309.805C173.596 308.103 169.699 307.102 165.901 306.902C164.002 306.802 162.003 306.902 160.105 307.302C159.605 307.402 159.205 307.503 158.705 307.703C158.206 307.903 157.806 308.003 157.406 308.303C156.607 308.804 156.207 309.605 156.207 310.505C156.207 311.406 156.507 312.307 157.006 313.108C157.506 313.909 158.106 314.609 158.805 315.31C159.505 315.911 160.304 316.411 161.204 316.711C161.604 316.811 162.103 316.811 162.503 316.811C162.903 316.711 163.303 316.511 163.403 316.311C163.503 316.111 163.303 315.71 163.003 315.41C162.703 315.11 162.303 314.81 162.003 314.509C161.204 313.909 160.404 313.408 159.605 313.008C157.906 312.107 156.107 311.306 154.308 310.606C150.71 309.204 146.912 308.103 143.015 307.503C141.116 307.202 139.117 307.002 137.218 307.102C136.319 307.202 135.319 307.302 134.52 307.703C133.72 308.003 133.021 308.604 132.721 309.304C132.421 310.005 132.521 310.906 132.821 311.807C133.121 312.607 133.62 313.408 134.22 314.109C134.82 314.81 135.519 315.41 136.319 315.911C137.118 316.411 137.918 316.811 138.717 317.012C139.617 317.112 139.817 316.811 139.617 316.011C139.417 315.21 138.917 314.509 138.218 313.809C136.918 312.507 135.319 311.506 133.52 310.706C131.721 310.005 129.923 309.504 128.024 309.204C126.125 308.904 124.226 309.004 122.427 309.504C120.728 310.005 119.129 311.106 118.23 312.607C117.33 314.109 117.33 316.111 118.23 317.412C118.429 317.712 118.329 318.213 118.03 318.413C117.63 319.014 117.23 318.913 116.93 318.513Z" fill="#F3FCF2"/>
<path d="M114.832 352.145C114.232 351.545 113.932 350.644 114.032 349.843C114.132 349.042 114.532 348.342 115.032 347.741C116.031 346.64 117.43 346.14 118.729 345.839C121.328 345.339 123.926 345.639 126.425 346.14C127.724 346.44 128.923 346.84 130.123 347.441C130.722 347.741 131.322 348.141 131.821 348.542C132.121 348.742 132.321 349.042 132.521 349.343C132.721 349.643 133.021 350.143 132.821 350.744C132.721 351.044 132.521 351.345 132.221 351.445C132.021 351.545 131.722 351.645 131.522 351.645C131.122 351.645 130.722 351.645 130.422 351.545C129.723 351.445 129.123 351.144 128.523 350.844C127.924 350.544 127.324 350.143 126.824 349.743C126.325 349.343 125.825 348.742 125.525 348.041C125.425 347.641 125.325 347.241 125.325 346.84C125.425 346.44 125.625 346.039 125.925 345.739C126.525 345.139 127.224 344.938 127.824 344.838C129.123 344.538 130.422 344.538 131.722 344.538C134.22 344.638 136.719 345.039 139.217 345.539C141.716 346.039 144.114 346.64 146.513 347.541C147.712 347.941 148.911 348.342 150.011 349.142C150.111 349.242 150.111 349.243 150.211 349.343C150.31 349.443 150.31 349.443 150.41 349.643C150.51 349.743 150.51 349.943 150.51 350.143C150.41 350.344 150.31 350.444 150.211 350.544C149.811 350.844 149.511 350.844 149.111 350.844C148.412 350.944 147.812 350.944 147.112 350.844C145.813 350.644 144.514 350.143 143.614 348.942C143.415 348.642 143.215 348.342 143.215 347.941C143.115 347.541 143.215 347.141 143.315 346.84C143.614 346.14 144.214 345.739 144.714 345.339C145.813 344.638 147.112 344.338 148.312 344.138C149.511 343.937 150.81 343.737 152.009 343.637C157.006 343.037 162.003 342.836 167.001 343.337C171.998 343.737 176.895 344.638 181.792 345.639C186.689 346.64 191.486 347.741 196.383 348.742C191.486 347.741 186.589 346.74 181.692 345.839C176.795 344.938 171.898 344.038 166.901 343.737C161.904 343.337 157.006 343.637 152.009 344.238C149.611 344.638 147.012 344.738 144.914 345.939C144.414 346.24 144.014 346.64 143.814 347.14C143.614 347.641 143.714 348.141 144.114 348.542C144.814 349.443 146.013 349.943 147.112 350.043C147.712 350.143 148.312 350.143 148.811 350.043C149.111 349.943 149.411 349.943 149.511 349.843C149.611 349.743 149.511 349.943 149.511 349.943C149.511 349.943 149.511 349.943 149.411 349.843L149.311 349.743C148.412 349.142 147.212 348.642 146.013 348.242C143.714 347.441 141.316 346.84 138.817 346.34C136.419 345.839 133.92 345.539 131.522 345.439C130.322 345.439 129.123 345.439 127.924 345.739C127.324 345.839 126.824 346.14 126.525 346.44C126.225 346.74 126.225 347.141 126.325 347.541C126.725 348.442 127.724 349.243 128.723 349.743C129.223 349.943 129.823 350.243 130.322 350.344C130.622 350.444 130.822 350.444 131.022 350.444C131.122 350.444 131.222 350.444 131.222 350.344C131.222 350.344 131.222 350.143 131.022 349.943C130.922 349.743 130.722 349.543 130.522 349.343C130.123 348.942 129.623 348.642 129.123 348.442C128.024 347.941 126.924 347.541 125.725 347.341C123.327 346.84 120.928 346.64 118.629 347.14C117.53 347.341 116.431 347.841 115.731 348.642C115.032 349.343 114.932 350.444 115.531 350.944C115.831 351.244 115.831 351.745 115.531 352.045C115.231 352.345 115.131 352.446 114.832 352.145Z" fill="#ADC9EE"/>
<path d="M24.9847 196.797C24.485 196.196 24.2852 195.396 24.2852 194.595C24.2852 193.794 24.585 193.093 24.9847 192.593C25.7843 191.392 27.0835 190.791 28.3827 190.491C29.6819 190.191 30.8812 190.091 32.1804 190.191C33.3797 190.291 34.679 190.491 35.7783 190.791C36.9776 191.092 38.1769 191.592 39.2762 192.193C39.7759 192.493 40.3756 192.893 40.8753 193.294C41.375 193.794 41.8747 194.295 41.9746 195.095C41.9746 195.296 41.9746 195.596 41.8747 195.896C41.7747 196.196 41.4749 196.397 41.275 196.497C40.7753 196.697 40.3755 196.697 40.0757 196.597C39.3761 196.497 38.7765 196.196 38.1769 195.896C37.0775 195.296 35.9782 194.495 35.3785 193.294C35.0787 192.693 34.7789 191.892 35.0787 191.092C35.3785 190.291 35.9782 189.79 36.6778 189.59C37.977 189.09 39.1763 189.09 40.3756 189.09C42.7741 189.19 45.1727 189.59 47.4713 190.191C49.7699 190.791 52.0686 191.492 54.3672 192.393C55.4665 192.893 56.5659 193.294 57.6652 193.994C57.965 194.195 58.1649 194.395 58.4647 194.795L58.5647 194.995C58.5647 195.095 58.5647 195.195 58.5647 195.296C58.5647 195.496 58.4648 195.596 58.3648 195.696C58.1649 195.896 57.965 195.896 57.7652 195.996C57.1655 196.196 56.4659 196.196 55.8663 196.196C54.5671 196.096 53.3678 195.496 52.4683 194.595C52.0686 194.094 51.6688 193.494 51.6688 192.793C51.6688 192.093 52.0686 191.392 52.4683 190.991C53.4677 190.091 54.667 189.69 55.7664 189.39C56.9656 189.09 58.1649 188.99 59.3642 188.789C64.0614 188.189 68.8585 187.989 73.6557 188.589C78.4528 189.09 83.0501 190.091 87.6473 191.192C92.2446 192.293 96.8418 193.594 101.439 194.695C96.8418 193.594 92.2446 192.393 87.5474 191.392C82.9501 190.291 78.2529 189.39 73.5557 188.99C68.8585 188.589 64.0614 188.689 59.3642 189.39C58.1649 189.59 56.9656 189.69 55.8663 189.991C54.767 190.291 53.6676 190.691 52.8681 191.392C52.4683 191.792 52.2684 192.293 52.2684 192.693C52.2684 193.194 52.4683 193.694 52.8681 194.094C53.5677 194.895 54.667 195.396 55.7664 195.496C56.2661 195.496 56.8657 195.496 57.3654 195.296C57.4653 195.296 57.5653 195.195 57.5653 195.195C57.4653 195.095 57.2655 194.895 57.0656 194.695C56.1661 194.094 55.0668 193.594 53.9674 193.194C51.7687 192.393 49.4701 191.692 47.1715 191.192C44.8729 190.691 42.5742 190.291 40.1757 190.291C39.0763 190.291 37.877 190.391 36.8776 190.791C35.8782 191.192 35.5784 191.992 36.1781 192.893C36.6778 193.794 37.5772 194.495 38.5766 194.995C39.0763 195.195 39.576 195.496 40.0757 195.496C40.2756 195.496 40.5754 195.496 40.5754 195.496C40.5754 195.496 40.5754 195.496 40.5754 195.396C40.4755 195.095 40.1757 194.595 39.7759 194.295C39.3761 193.894 38.8764 193.594 38.4767 193.394C37.4773 192.893 36.3779 192.493 35.2786 192.193C34.1792 191.892 32.98 191.692 31.8806 191.692C30.7813 191.592 29.582 191.692 28.5826 191.992C27.5832 192.293 26.5838 192.793 26.0841 193.594C25.4844 194.395 25.4844 195.396 25.9841 195.996C26.284 196.297 26.184 196.797 25.8842 197.097C25.7843 197.197 25.2846 197.197 24.9847 196.797Z" fill="#ADC9EE"/>
<path d="M24.9847 225.625C24.485 225.024 24.2852 224.224 24.2852 223.423C24.2852 222.622 24.585 221.921 24.9847 221.421C25.7843 220.22 27.0835 219.619 28.3827 219.319C29.6819 219.019 30.8812 218.919 32.1804 219.019C33.3797 219.119 34.679 219.319 35.7783 219.619C36.9776 219.919 38.1769 220.42 39.2762 221.021C39.7759 221.321 40.3756 221.721 40.8753 222.122C41.375 222.622 41.8747 223.123 41.9746 223.923C41.9746 224.123 41.9746 224.424 41.8747 224.724C41.7747 225.024 41.4749 225.225 41.275 225.325C40.7753 225.525 40.3755 225.525 40.0757 225.425C39.3761 225.325 38.7765 225.024 38.1769 224.724C37.0775 224.123 35.9782 223.323 35.3785 222.122C35.0787 221.521 34.7789 220.72 35.0787 219.919C35.3785 219.119 35.9782 218.618 36.6778 218.418C37.977 217.918 39.1763 217.918 40.3756 217.918C42.7741 218.018 45.1727 218.418 47.4713 219.019C49.7699 219.619 52.0686 220.32 54.3672 221.221C55.4665 221.721 56.5659 222.122 57.6652 222.822C57.965 223.022 58.1649 223.223 58.4647 223.623L58.5647 223.823C58.5647 223.923 58.5647 224.023 58.5647 224.123C58.5647 224.324 58.4648 224.424 58.3648 224.524C58.1649 224.724 57.965 224.724 57.7652 224.824C57.1655 225.024 56.4659 225.024 55.8663 225.024C54.5671 224.924 53.3678 224.324 52.4683 223.423C52.0686 222.922 51.6688 222.322 51.6688 221.621C51.6688 220.92 52.0686 220.22 52.4683 219.819C53.4677 218.919 54.667 218.518 55.7664 218.218C56.9656 217.918 58.1649 217.817 59.3642 217.617C64.0614 217.017 68.8585 216.816 73.6557 217.417C78.4528 217.918 83.0501 218.919 87.6473 220.02C92.2446 221.121 96.8418 222.422 101.439 223.523C96.8418 222.422 92.2446 221.221 87.5474 220.22C82.9501 219.119 78.2529 218.218 73.5557 217.817C68.8585 217.417 64.0614 217.517 59.3642 218.218C58.1649 218.418 56.9656 218.518 55.8663 218.818C54.767 219.119 53.6676 219.519 52.8681 220.22C52.4683 220.62 52.2684 221.121 52.2684 221.521C52.2684 222.021 52.4683 222.522 52.8681 222.922C53.5677 223.723 54.667 224.224 55.7664 224.324C56.2661 224.324 56.8657 224.324 57.3654 224.123C57.4653 224.123 57.5653 224.023 57.5653 224.023C57.4653 223.923 57.2655 223.723 57.0656 223.523C56.1661 222.922 55.0668 222.422 53.9674 222.021C51.7687 221.221 49.4701 220.52 47.1715 220.02C44.8729 219.519 42.5742 219.119 40.1757 219.119C39.0763 219.119 37.877 219.219 36.8776 219.619C35.8782 220.02 35.5784 220.82 36.1781 221.721C36.6778 222.622 37.5772 223.323 38.5766 223.823C39.0763 224.023 39.576 224.324 40.0757 224.324C40.2756 224.324 40.5754 224.324 40.5754 224.324C40.5754 224.324 40.5754 224.324 40.5754 224.224C40.4755 223.923 40.1757 223.423 39.7759 223.122C39.3761 222.722 38.8764 222.422 38.4767 222.222C37.4773 221.721 36.3779 221.321 35.2786 221.021C34.1792 220.72 32.98 220.52 31.8806 220.52C30.7813 220.42 29.582 220.52 28.5826 220.82C27.5832 221.121 26.5838 221.621 26.0841 222.422C25.4844 223.223 25.4844 224.224 25.9841 224.824C26.284 225.124 26.184 225.625 25.8842 225.925C25.7843 226.025 25.2846 226.025 24.9847 225.625Z" fill="#ADC9EE"/>
<path d="M574.557 133.637L596.144 131.635C596.144 131.635 591.846 127.031 590.447 121.826C589.348 117.822 593.645 111.316 591.247 107.012C588.948 102.908 582.552 103.909 578.754 101.506C576.356 100.005 575.156 95.1003 572.158 94.9001C569.36 94.7 566.861 97.8029 564.763 98.2033C562.364 98.6037 559.566 97.8029 557.867 98.7038C551.471 102.307 551.071 108.713 551.071 108.713L574.557 133.637Z" fill="#EE724A"/>
<path d="M538.478 363.756C538.478 363.756 533.381 392.383 530.983 393.585L532.682 399.09C534.081 403.494 538.279 406.497 542.876 406.297C547.573 406.096 551.571 402.893 552.67 398.289L553.969 392.784L559.166 364.257L538.478 363.756Z" fill="#EAB4B3"/>
<path d="M531.482 392.884L507.597 401.893C505.998 402.693 505.098 406.997 505.398 408.699L554.669 408.999L554.569 391.583C554.569 391.583 549.572 391.182 539.578 394.285C533.681 396.187 531.482 392.884 531.482 392.884Z" fill="#282C3E"/>
<path d="M506.797 402.594L530.783 402.693C534.781 402.693 538.778 402.693 542.776 402.793C546.773 402.893 550.771 402.894 554.769 403.094C550.771 403.194 546.773 403.093 542.776 403.193C538.778 403.193 534.781 403.094 530.783 403.094L506.797 402.594Z" fill="#CAD4DA"/>
<path d="M554.069 395.386C552.87 395.586 551.671 395.887 550.471 396.187C549.272 396.587 548.173 396.988 547.173 397.588C546.074 398.189 545.174 398.89 544.275 399.79C543.475 400.691 542.776 401.692 542.176 402.793C542.476 401.592 543.176 400.491 543.975 399.59C544.875 398.689 545.874 397.989 546.973 397.388C548.073 396.788 549.272 396.387 550.371 396.087C551.671 395.687 552.87 395.486 554.069 395.386Z" fill="#CAD4DA"/>
<path d="M529.984 396.287C530.883 395.487 531.583 394.586 532.183 393.485C532.483 392.984 532.682 392.384 532.782 391.883C532.882 391.283 532.682 390.782 532.183 390.382C531.783 389.981 531.283 389.581 530.684 389.681C530.184 389.681 529.884 390.382 529.684 390.882C529.384 391.983 529.384 393.184 529.484 394.386L529.584 395.286V395.487V395.587C529.584 395.687 529.484 395.887 529.384 395.887C529.284 395.887 529.085 395.787 529.085 395.687V395.587L528.985 395.387C528.785 394.886 528.485 394.286 528.185 393.785C527.885 393.285 527.585 392.784 527.186 392.384C526.786 391.983 526.386 391.583 525.886 391.583C525.387 391.583 524.887 391.983 524.887 392.484C524.987 392.984 525.287 393.485 525.587 393.985C526.286 394.886 527.186 395.687 528.085 396.488C527.086 395.787 526.186 394.986 525.387 394.085C524.987 393.585 524.587 393.084 524.487 392.484C524.487 392.184 524.587 391.783 524.887 391.583C525.087 391.283 525.487 391.183 525.787 391.183C526.486 391.283 526.986 391.683 527.386 392.184C527.785 392.684 528.085 393.184 528.385 393.685C528.685 394.185 528.885 394.786 529.185 395.286L529.284 395.487V395.587C529.284 395.587 529.185 395.487 529.185 395.587L529.085 395.687V395.587V395.387V394.486C529.085 393.285 529.085 392.083 529.384 390.882C529.484 390.582 529.584 390.282 529.784 390.082C529.984 389.781 530.284 389.581 530.584 389.581C531.283 389.581 531.783 389.981 532.183 390.382C532.682 390.782 532.882 391.483 532.782 392.083C532.682 392.684 532.483 393.285 532.183 393.785C531.683 394.586 530.883 395.487 529.984 396.287Z" fill="#CAD4DA"/>
<path d="M601.441 363.756C601.441 363.756 606.538 392.383 608.937 393.585L607.238 399.09C605.838 403.494 601.641 406.497 597.044 406.297C592.347 406.096 588.349 402.893 587.25 398.289L585.95 392.784L580.753 364.257L601.441 363.756Z" fill="#EAB4B3"/>
<path d="M608.537 392.884L632.422 401.893C634.022 402.693 634.921 406.997 634.621 408.699L585.351 408.999L585.451 391.583C585.451 391.583 590.448 391.182 600.442 394.285C606.238 396.187 608.537 392.884 608.537 392.884Z" fill="#282C3E"/>
<path d="M633.122 402.593L609.136 402.893C605.138 402.993 601.141 402.993 597.143 402.993C593.146 402.993 589.148 402.993 585.15 402.893C589.148 402.793 593.146 402.693 597.143 402.593C601.141 402.593 605.138 402.493 609.136 402.493L633.122 402.593Z" fill="#CAD4DA"/>
<path d="M585.851 395.286C587.05 395.386 588.249 395.686 589.448 395.987C590.648 396.287 591.747 396.787 592.846 397.288C593.946 397.888 594.945 398.589 595.845 399.49C596.644 400.391 597.344 401.492 597.644 402.693C597.144 401.592 596.444 400.591 595.545 399.69C594.645 398.889 593.746 398.089 592.647 397.488C591.547 396.887 590.448 396.487 589.348 396.087C588.249 395.786 587.05 395.486 585.851 395.286Z" fill="#CAD4DA"/>
<path d="M609.936 396.387C609.036 395.587 608.237 394.686 607.637 393.685C607.337 393.184 607.038 392.584 607.038 391.983C606.938 391.383 607.138 390.682 607.637 390.281C608.037 389.881 608.537 389.481 609.236 389.481C609.536 389.481 609.836 389.681 610.036 389.981C610.236 390.281 610.336 390.582 610.436 390.782C610.735 391.983 610.735 393.184 610.735 394.385V395.286V395.486V395.587C610.735 395.587 610.735 395.486 610.636 395.486C610.636 395.486 610.536 395.587 610.536 395.486V395.386L610.636 395.186C610.835 394.586 611.135 394.085 611.435 393.585C611.735 393.084 612.035 392.584 612.434 392.083C612.834 391.683 613.334 391.182 614.034 391.082C614.333 391.082 614.733 391.182 614.933 391.483C615.233 391.683 615.333 392.083 615.333 392.383C615.233 393.084 614.833 393.585 614.433 393.985C613.634 394.886 612.734 395.687 611.735 396.387C612.634 395.587 613.534 394.786 614.233 393.885C614.533 393.384 614.933 392.884 614.933 392.383C614.933 391.883 614.433 391.483 613.934 391.483C613.434 391.483 612.934 391.883 612.634 392.283C612.235 392.684 611.935 393.184 611.635 393.685C611.335 394.185 611.035 394.686 610.835 395.286L610.735 395.486V395.587C610.735 395.687 610.536 395.787 610.436 395.787C610.336 395.787 610.236 395.587 610.236 395.486V395.386V395.186L610.336 394.285C610.336 393.084 610.436 391.883 610.136 390.782C610.036 390.281 609.736 389.581 609.136 389.581C608.637 389.581 608.137 389.981 607.637 390.281C607.238 390.682 607.038 391.282 607.038 391.783C607.138 392.383 607.337 392.884 607.637 393.384C608.337 394.586 609.136 395.486 609.936 396.387Z" fill="#CAD4DA"/>
<path d="M530.983 381.773L544.775 210.71L560.365 208.708C560.265 207.908 560.166 207.107 560.066 206.206L570.06 207.507L580.054 206.206C579.954 207.007 579.854 207.808 579.754 208.708L595.345 210.71L609.136 381.773H580.453C574.057 358.651 573.757 337.831 570.16 295.791C566.562 337.831 566.262 358.651 559.866 381.773H530.983Z" fill="#5A3534"/>
<path d="M608.937 381.774H580.254C578.355 374.767 576.856 367.76 575.756 360.553C574.657 353.447 573.958 346.24 573.358 339.033C572.159 324.619 571.059 310.205 569.86 295.792H570.06C568.861 310.205 567.861 324.619 566.662 339.033C566.062 346.24 565.363 353.447 564.263 360.553C563.164 367.66 561.765 374.767 559.866 381.774V381.874H559.766H531.083H530.883V381.673L537.679 296.192L544.675 210.711L560.266 208.809L544.675 210.811L537.979 296.292L531.083 381.774L530.883 381.573H559.566L559.366 381.673C561.265 374.767 562.764 367.66 563.764 360.453C564.863 353.347 565.563 346.14 566.162 338.933C567.362 324.519 568.361 310.105 569.66 295.692H569.86L571.559 317.312C572.159 324.519 572.658 331.726 573.258 338.933C573.858 346.14 574.557 353.347 575.657 360.453C576.756 367.56 578.155 374.667 580.054 381.673L608.937 381.774Z" fill="#2E3748"/>
<path d="M549.472 113.218C550.271 106.912 555.168 101.907 561.464 101.306C563.363 101.106 565.362 101.406 567.361 102.307C571.958 104.609 573.557 111.516 574.157 116.821L573.757 123.427L574.357 150.753C570.259 167.67 556.967 167.069 556.867 146.249L557.067 132.636C548.972 130.234 548.672 120.224 549.472 113.218Z" fill="#E09F9B"/>
<path d="M556.967 132.536C556.967 132.536 560.765 133.837 565.962 130.434C565.962 130.434 562.964 136.44 556.867 138.642L556.967 132.536Z" fill="#CA7D7A"/>
<path d="M573.058 114.919C573.058 116.321 573.857 117.422 574.857 117.422C575.856 117.422 576.755 116.421 576.755 115.019C576.755 113.618 575.956 112.517 574.956 112.517C573.957 112.517 573.058 113.618 573.058 114.919Z" fill="#BE9791"/>
<path d="M574.856 115.019C574.856 115.219 574.956 115.319 575.156 115.319C575.356 115.319 575.456 115.219 575.456 115.019C575.456 114.819 575.356 114.719 575.156 114.719C574.956 114.719 574.856 114.819 574.856 115.019Z" fill="#A37975"/>
<path d="M556.967 132.536C557.767 132.736 558.566 132.636 559.266 132.636C560.065 132.536 560.765 132.436 561.565 132.136C562.364 131.936 563.064 131.635 563.763 131.335C564.463 131.035 565.162 130.734 565.962 130.334C565.662 130.634 565.362 130.834 564.963 131.035L563.963 131.635C563.264 132.036 562.464 132.336 561.764 132.536C560.965 132.736 560.165 132.936 559.366 132.936C558.566 133.037 557.767 132.936 556.967 132.536Z" fill="#383A4A"/>
<path d="M573.058 114.919C573.058 116.321 573.857 117.422 574.857 117.422C575.856 117.422 576.755 116.421 576.755 115.019C576.755 113.618 575.956 112.517 574.956 112.517C573.957 112.517 573.058 113.618 573.058 114.919Z" fill="#E09F9B"/>
<path d="M574.257 114.319C574.257 114.319 575.357 114.119 575.457 115.019C575.557 115.92 574.457 115.72 574.457 115.72" stroke="#B57A77" stroke-width="0.4282" stroke-miterlimit="10" stroke-linecap="round"/>
<path d="M561.865 120.825C561.365 121.526 560.665 122.126 559.866 122.627C559.066 123.127 558.167 123.427 557.167 123.528C556.967 123.528 556.668 123.528 556.468 123.427C556.268 123.327 555.968 123.327 555.768 123.227C555.368 123.027 554.869 122.827 554.569 122.426C554.169 122.126 553.969 121.726 553.669 121.426C553.47 121.025 553.27 120.625 553.07 120.224C553.37 120.525 553.669 120.925 553.969 121.225C554.269 121.526 554.569 121.926 554.969 122.126C555.668 122.627 556.468 122.927 557.267 122.927C558.067 122.927 558.966 122.627 559.766 122.226C560.465 121.826 561.165 121.325 561.865 120.825Z" fill="#373949"/>
<path d="M558.067 111.917C557.667 112.717 557.167 113.418 556.768 114.219C556.268 114.919 555.768 115.62 555.169 116.321V116.02C555.668 116.621 556.168 117.121 556.568 117.722C555.968 117.322 555.369 116.821 554.869 116.321L554.669 116.121L554.769 115.92C555.269 115.22 555.768 114.519 556.268 113.818C556.868 113.218 557.467 112.517 558.067 111.917Z" fill="#373949"/>
<path d="M561.664 112.317C561.564 113.018 561.464 113.718 561.464 114.519C561.464 115.22 561.664 116.02 562.164 116.221C562.664 116.521 563.363 116.12 563.863 115.62C564.363 115.12 564.862 114.619 565.262 114.018C565.362 113.918 565.462 113.918 565.562 114.018C565.662 114.119 565.662 114.219 565.562 114.219C565.162 114.919 564.762 115.52 564.163 116.02C563.863 116.321 563.563 116.521 563.163 116.721C562.764 116.921 562.264 116.921 561.864 116.721C561.464 116.521 561.165 116.12 561.065 115.72C560.965 115.32 560.865 114.919 560.965 114.519C560.965 113.718 561.165 113.018 561.365 112.317C561.365 112.217 561.464 112.217 561.564 112.217C561.664 112.117 561.664 112.217 561.664 112.317Z" fill="#373949"/>
<path d="M551.97 110.115C551.871 110.815 551.771 111.516 551.671 112.117C551.671 112.417 551.671 112.817 551.771 113.118C551.871 113.418 551.97 113.718 552.17 113.718C552.37 113.818 552.57 113.718 552.87 113.518C553.17 113.318 553.37 113.118 553.57 112.817C553.969 112.317 554.469 111.716 554.769 111.216C554.869 111.116 554.969 111.116 555.069 111.116C555.169 111.216 555.169 111.316 555.169 111.316C554.869 111.916 554.469 112.517 554.069 113.118C553.869 113.418 553.57 113.618 553.27 113.918C552.97 114.119 552.47 114.319 552.07 114.119C551.571 113.918 551.471 113.418 551.371 113.018C551.271 112.617 551.271 112.217 551.371 111.916C551.471 111.216 551.571 110.515 551.871 109.814C551.871 109.714 551.971 109.714 552.07 109.714C551.871 109.915 551.97 110.015 551.97 110.115Z" fill="#373949"/>
<path d="M550.871 108.613C550.871 108.613 557.367 111.015 566.961 104.309C566.961 104.309 567.061 115.92 573.558 113.118C573.558 113.118 576.256 105.911 569.36 101.006C562.564 96.3015 554.669 98.3034 550.871 108.613Z" fill="#EE724A"/>
<path d="M597.943 214.614C594.545 204.204 594.545 205.605 607.637 203.103C621.429 200.501 629.324 195.896 633.822 191.192C639.119 185.486 639.718 176.878 635.421 170.372C629.724 161.864 618.031 148.551 597.943 143.847C589.848 141.945 581.753 141.244 574.257 141.344C568.261 144.047 557.567 142.746 556.868 142.645C553.77 143.046 550.871 143.646 548.373 144.147C542.376 145.348 514.093 152.655 512.794 172.974C512.794 172.974 540.278 182.183 544.775 210.71C574.357 213.213 597.943 214.614 597.943 214.614ZM603.74 182.584C592.446 192.993 592.646 189.19 592.646 189.19L589.248 168.77C589.248 168.77 611.135 175.577 603.74 182.584Z" fill="#EED8DB"/>
<path d="M593.146 192.493C590.348 193.794 588.549 194.595 588.549 194.595C588.549 194.595 579.854 195.496 577.256 192.993C576.856 193.294 576.456 194.094 576.756 194.795C578.055 197.297 580.953 197.998 580.953 197.998C580.953 197.998 569.26 203.603 570.16 204.404C571.059 205.305 577.455 203.003 577.455 203.003C577.455 203.003 568.161 207.407 569.26 208.008C569.66 208.208 569.26 208.008 577.955 205.505C577.955 205.505 571.259 210.11 572.758 210.11C574.657 210.21 580.154 207.707 580.154 207.707C580.154 207.707 575.057 211.311 576.256 211.311C577.455 211.311 592.247 204.004 592.247 204.004L594.945 203.303C594.445 199.6 593.846 195.996 593.146 192.493Z" fill="#DE9E9A"/>
<path d="M588.249 189.591L590.848 208.509C590.848 208.509 613.834 200.701 621.229 196.797L597.943 188.289L588.249 189.591Z" fill="#EED8DB"/>
<path d="M571.559 121.726C571.559 124.128 569.56 126.03 567.061 126.03C564.563 126.03 562.564 124.128 562.564 121.726C562.564 119.323 564.563 117.422 567.061 117.422C569.46 117.321 571.559 119.323 571.559 121.726Z" fill="#EBBDBC"/>
<path d="M440.537 265.363C443.573 265.363 446.033 262.898 446.033 259.857C446.033 256.817 443.573 254.352 440.537 254.352C437.501 254.352 435.04 256.817 435.04 259.857C435.04 262.898 437.501 265.363 440.537 265.363Z" fill="#F9F8F7" stroke="#758AC5" stroke-width="2"/>
<path d="M443.135 261.158C443.135 261.158 451.63 274.271 467.721 267.965" stroke="#758AC5" stroke-width="2" stroke-linecap="round"/>
<path d="M468.32 267.164C468.121 267.765 467.321 267.765 467.121 267.164C465.822 261.959 462.924 249.147 467.721 251.049C472.818 252.951 469.919 262.16 468.32 267.164Z" stroke="#758AC5" stroke-width="2" stroke-linecap="round"/>
<path d="M467.521 268.766C467.321 268.365 467.82 267.965 468.12 268.165C471.818 269.967 483.811 275.972 478.214 279.075C472.218 282.479 469.12 272.97 467.521 268.766Z" stroke="#758AC5" stroke-width="2" stroke-linecap="round"/>
<path d="M552.671 194.395C552.671 196.897 555.769 197.298 557.968 197.298C560.166 197.298 560.566 196.897 560.566 194.395C560.566 191.893 559.167 190.191 556.968 190.191C554.77 190.191 552.671 191.893 552.671 194.395Z" stroke="#F7F2F0" stroke-width="2" stroke-miterlimit="10"/>
<path d="M551.671 194.395C551.671 193.093 552.171 191.692 553.17 190.691C554.169 189.69 555.469 189.09 556.768 188.99C557.467 188.99 558.167 188.99 558.767 189.29C559.366 189.59 559.966 189.99 560.466 190.491C561.365 191.592 561.665 192.993 561.565 194.295C561.465 192.993 561.065 191.692 560.166 190.691C559.366 189.69 558.067 189.19 556.768 189.29C555.469 189.29 554.169 189.89 553.27 190.791C552.271 191.792 551.671 193.093 551.671 194.395Z" fill="#565D5D"/>
<path d="M556.967 191.292C556.168 191.392 555.268 191.692 554.769 192.293C554.469 192.593 554.269 192.893 554.069 193.294C553.869 193.694 553.769 193.994 553.669 194.495C553.569 194.094 553.669 193.594 553.769 193.193C553.969 192.793 554.269 192.393 554.569 192.092C555.268 191.492 556.168 191.192 556.967 191.292Z" fill="#565D5D"/>
<path d="M562.765 200.801H570.36C571.36 200.801 572.359 200.701 573.258 200.4L580.554 198.198C580.754 198.198 580.654 197.898 580.554 197.898C580.554 197.898 573.059 198.499 566.662 198.499C560.266 198.499 552.471 197.898 552.471 197.898C552.071 197.898 552.071 198.499 552.371 198.499L560.366 200.5C561.166 200.701 561.965 200.801 562.765 200.801Z" fill="#F7F2F0"/>
<path d="M580.554 197.798C575.857 198.198 571.159 198.499 566.462 198.499C561.765 198.499 557.068 198.298 552.371 197.998C552.271 197.998 552.171 198.198 552.371 198.198C554.07 198.599 555.769 199.099 557.568 199.6L560.166 200.3C560.965 200.601 561.865 200.701 562.764 200.701C561.865 200.701 560.966 200.601 560.066 200.4L557.468 199.8C555.769 199.399 553.97 198.999 552.271 198.499C552.071 198.499 551.771 198.198 551.871 197.998C551.871 197.798 552.171 197.498 552.371 197.498C557.068 197.798 561.765 198.098 566.362 198.198C571.159 198.298 575.857 198.098 580.554 197.798Z" fill="#565D5D"/>
<path d="M557.467 188.99C557.467 187.989 561.165 187.188 565.762 187.188C570.359 187.188 574.057 187.989 574.057 188.99C573.957 191.092 574.057 197.798 571.958 198.699C566.961 200.701 561.664 199.4 560.265 198.699C558.266 197.598 557.767 191.292 557.467 188.99Z" fill="#F7F2F0"/>
<path d="M557.467 188.99C557.567 189.39 557.867 189.49 558.166 189.69C558.466 189.89 558.866 189.89 559.166 189.99C559.865 190.191 560.565 190.291 561.364 190.391C562.764 190.591 564.263 190.591 565.762 190.591C567.261 190.591 568.66 190.491 570.159 190.291C570.859 190.191 571.558 190.091 572.258 189.99C572.658 189.89 572.958 189.79 573.257 189.69C573.557 189.59 573.957 189.39 574.057 188.99C574.057 189.39 573.657 189.59 573.357 189.79C573.058 189.99 572.658 190.091 572.358 190.191C571.658 190.391 570.959 190.591 570.159 190.691C568.66 190.891 567.261 190.991 565.762 190.891C564.263 190.891 562.864 190.791 561.364 190.591C560.665 190.491 559.865 190.391 559.166 190.091C558.766 189.99 558.466 189.89 558.166 189.69C557.867 189.59 557.467 189.39 557.467 188.99Z" fill="#565D5D"/>
<path d="M560.266 198.699C559.466 198.299 559.066 197.398 558.767 196.597C558.467 195.796 558.267 194.995 558.067 194.095C557.667 192.393 557.467 190.691 557.267 188.99V188.89H557.367L557.267 189.09C557.168 188.89 557.367 188.589 557.467 188.489C557.667 188.389 557.767 188.289 557.967 188.189C558.267 187.989 558.667 187.889 559.066 187.789C559.766 187.588 560.466 187.488 561.265 187.388C562.764 187.188 564.163 187.088 565.662 187.088C567.162 187.088 568.661 187.188 570.06 187.388C570.759 187.488 571.559 187.588 572.259 187.889C572.658 187.989 572.958 188.089 573.258 188.289C573.558 188.489 573.958 188.689 573.958 189.09C573.858 188.689 573.558 188.589 573.158 188.389C572.858 188.289 572.458 188.189 572.159 188.089C571.459 187.889 570.759 187.789 569.96 187.688C568.461 187.488 567.062 187.488 565.563 187.488C564.063 187.488 562.664 187.588 561.165 187.688C560.466 187.789 559.766 187.889 559.066 188.089C558.667 188.189 558.367 188.289 558.067 188.489C557.767 188.589 557.367 188.89 557.467 189.09V189.29H557.267L557.367 189.19C557.567 190.892 557.767 192.593 558.067 194.295C558.267 195.096 558.467 195.996 558.667 196.797C559.166 197.398 559.566 198.198 560.266 198.699Z" fill="#565D5D"/>
<path d="M541.377 197.298L542.276 194.495C542.276 194.495 550.171 186.988 554.869 192.293H554.669C556.268 192.193 557.667 192.593 557.667 193.794C557.567 195.396 555.668 195.596 555.668 195.596C555.668 195.596 557.067 195.596 557.067 196.597C557.067 197.098 557.067 197.698 556.468 197.898C556.468 197.898 556.867 198.499 556.667 199.099C556.468 199.8 555.668 200.1 555.668 200.1C555.668 200.1 556.468 201.302 555.368 201.902C554.269 202.503 543.375 203.904 543.375 203.904L538.079 205.506L541.377 197.298Z" fill="#DE9E9A"/>
<path d="M541.376 197.298L542.276 194.395C543.175 193.594 544.075 192.893 545.074 192.193C546.074 191.492 547.173 190.992 548.272 190.591C549.372 190.191 550.671 189.991 551.87 190.191C553.069 190.391 554.169 191.092 554.968 191.993L555.168 192.193L554.768 192.293H554.569V191.892C555.168 191.892 555.668 191.892 556.268 191.993C556.567 192.093 556.867 192.193 557.067 192.293C557.367 192.493 557.567 192.793 557.667 193.094C557.767 193.694 557.567 194.395 557.167 194.895C556.667 195.296 556.168 195.496 555.568 195.596V195.196C555.868 195.196 556.168 195.296 556.467 195.396C556.767 195.496 557.067 195.796 557.167 196.197C557.167 196.597 557.167 196.797 557.167 197.198C557.167 197.498 556.867 197.898 556.467 197.998L556.567 197.698C556.767 198.098 556.867 198.699 556.767 199.099C556.567 199.6 556.168 199.9 555.668 200L555.768 199.8C555.968 200.1 556.068 200.501 555.968 200.901C555.968 201.301 555.668 201.602 555.368 201.702C555.668 201.502 555.868 201.201 555.868 200.901C555.868 200.601 555.768 200.2 555.568 200L555.468 199.9H555.568C555.968 199.7 556.268 199.4 556.467 199.099C556.567 198.699 556.467 198.299 556.268 197.898L556.168 197.698L556.368 197.598C556.567 197.498 556.767 197.298 556.767 197.097C556.767 196.897 556.767 196.497 556.767 196.297C556.667 195.796 556.068 195.696 555.568 195.696V195.296C556.068 195.196 556.567 194.995 556.967 194.695C557.367 194.395 557.467 193.794 557.367 193.394C557.267 192.994 556.767 192.693 556.268 192.593C555.768 192.493 555.168 192.493 554.669 192.493V192.093H554.868L554.768 192.393C553.969 191.592 552.97 190.892 551.87 190.691C550.771 190.491 549.572 190.691 548.472 190.992C547.373 191.292 546.274 191.892 545.274 192.493C544.275 193.094 543.275 193.794 542.376 194.595L541.376 197.298C541.376 197.398 541.376 197.398 541.376 197.298C541.376 197.298 541.376 197.398 541.376 197.298Z" fill="#2E3748"/>
<path d="M514.193 166.468C514.193 166.468 496.604 193.794 514.094 210.61C519.89 216.215 534.481 216.015 543.876 206.907C546.874 204.004 542.576 191.091 542.576 191.091C535.98 187.188 534.881 180.882 523.188 178.379L514.193 166.468Z" fill="#EED8DB"/>
<path d="M597.843 214.614C597.343 213.213 596.944 211.812 596.444 210.31C596.244 209.61 596.044 208.909 595.944 208.108C595.844 207.407 595.844 206.507 596.344 205.906C596.844 205.305 597.543 205.005 598.243 204.805C598.943 204.605 599.642 204.405 600.442 204.304C601.941 204.004 603.34 203.804 604.839 203.504C610.736 202.503 616.532 201.101 622.029 198.699C624.727 197.498 627.426 196.097 629.824 194.295C632.223 192.493 634.421 190.491 635.92 187.889C636.62 186.588 637.22 185.186 637.52 183.785C637.819 182.384 638.019 180.882 638.019 179.381C637.919 176.378 637.12 173.475 635.521 170.973C629.025 160.963 619.83 152.655 608.937 147.851C607.637 147.25 606.138 146.75 604.839 146.149C603.44 145.749 602.041 145.148 600.542 144.748C597.643 143.947 594.745 143.346 591.847 142.846C585.95 141.845 580.054 141.445 574.057 141.545H574.157C572.758 142.145 571.359 142.546 569.86 142.746C568.361 143.046 566.962 143.146 565.463 143.246C562.564 143.346 559.566 143.246 556.668 142.946L550.372 144.047C548.273 144.347 546.174 144.848 544.175 145.448C540.078 146.549 536.08 148.051 532.282 149.853C528.485 151.654 524.787 153.856 521.589 156.659C518.391 159.362 515.692 162.765 514.093 166.669L513.993 167.069L513.793 166.769H514.193C512.494 169.571 510.995 172.674 509.796 175.777C508.596 178.88 507.597 182.083 506.997 185.386C506.398 188.69 506.198 191.993 506.498 195.396C506.897 198.699 507.797 202.002 509.396 204.905C510.196 206.406 511.195 207.708 512.194 209.009C512.694 209.61 513.294 210.21 513.893 210.811L514.893 211.611C515.193 211.912 515.592 212.012 515.892 212.312C517.291 213.113 518.89 213.713 520.489 214.114C522.088 214.514 523.787 214.614 525.486 214.614C532.182 214.514 538.778 211.812 543.576 207.107C538.778 211.812 532.082 214.514 525.386 214.714C523.687 214.714 521.988 214.614 520.389 214.214C518.69 213.914 517.091 213.313 515.692 212.412C515.292 212.212 514.993 212.012 514.593 211.712L513.594 210.911C512.994 210.31 512.394 209.71 511.895 209.109C510.795 207.808 509.796 206.507 508.996 205.005C507.297 202.102 506.398 198.799 505.998 195.396C505.598 191.993 505.798 188.589 506.398 185.286C506.997 181.983 507.997 178.68 509.196 175.577C510.395 172.474 511.895 169.371 513.693 166.568L513.893 166.268L514.093 166.568L513.693 166.669C515.292 162.665 518.091 159.262 521.289 156.459C524.487 153.656 528.185 151.454 532.082 149.652C535.88 147.851 539.978 146.349 544.075 145.248C546.074 144.648 548.173 144.247 550.272 143.847L556.568 142.746C559.466 143.046 562.364 143.146 565.263 143.046C566.762 142.946 568.161 142.846 569.56 142.646C570.959 142.345 572.358 142.045 573.758 141.445C579.754 141.445 585.75 141.845 591.647 142.746C594.645 143.246 597.543 143.847 600.442 144.648C601.841 145.048 603.24 145.548 604.739 146.049C606.138 146.65 607.537 147.15 608.837 147.751C619.73 152.655 629.025 161.063 635.521 171.073C637.12 173.575 637.919 176.578 638.019 179.581C638.019 181.082 637.919 182.584 637.52 184.085C637.12 185.587 636.62 186.988 635.821 188.289C634.321 190.892 632.123 192.994 629.724 194.795C627.326 196.597 624.627 197.998 621.929 199.2C616.432 201.502 610.536 202.903 604.739 203.904C603.24 204.204 601.841 204.405 600.342 204.705C599.642 204.805 598.843 205.005 598.143 205.205C597.443 205.405 596.744 205.706 596.244 206.306C595.744 206.907 595.744 207.708 595.844 208.408C595.944 209.109 596.144 209.91 596.344 210.61C596.944 211.711 597.443 213.213 597.843 214.614C597.943 214.614 597.943 214.614 597.843 214.614C597.843 214.614 597.943 214.614 597.843 214.614Z" fill="#2E3748"/>
<path d="M589.248 168.771C592.946 169.972 596.644 171.373 600.142 173.375C601.841 174.376 603.54 175.477 604.639 177.179C605.139 177.979 605.538 179.08 605.338 180.081C605.139 181.082 604.439 181.883 603.739 182.584C604.439 181.883 604.939 180.982 605.139 180.081C605.338 179.18 604.939 178.179 604.339 177.479C603.24 175.877 601.641 174.776 599.942 173.675C598.243 172.674 596.544 171.773 594.745 170.973C592.946 170.172 591.147 169.471 589.248 168.771Z" fill="#2E3748"/>
</svg>
