<svg width="628" height="562" viewBox="0 0 628 562" fill="none" xmlns="http://www.w3.org/2000/svg">
<g opacity="0.3">
<path opacity="0.3" d="M19.2952 174.249H204.407C212.246 174.249 218.678 180.546 218.678 188.443V348.182C218.678 355.979 212.347 362.377 204.407 362.377H19.2952C11.4566 362.377 5.0249 356.079 5.0249 348.182V188.443C5.0249 180.646 11.3561 174.249 19.2952 174.249Z" fill="#D4DBE4"/>
</g>
<path d="M513.43 31.9032C513.43 34.9021 513.029 37.9009 512.124 40.8998C512.024 41.3996 511.823 41.9993 511.622 42.4992C506.396 58.0932 490.618 71.2881 474.338 72.8875C455.545 74.6868 443.888 67.1897 439.265 54.8944C439.064 54.4946 438.964 54.0947 438.863 53.7948C438.562 52.9951 438.361 52.2954 438.16 51.4957C438.059 51.1958 437.959 50.796 437.959 50.4961C437.255 47.5972 436.954 44.4984 436.954 41.2996C436.954 21.5072 454.842 5.11349 474.338 1.21499C497.954 -3.48321 508.506 6.01315 512.024 19.9078C512.124 20.2077 512.225 20.6076 512.225 20.9074C513.129 24.3061 513.43 28.1047 513.43 31.9032Z" fill="#F9DD4A"/>
<path d="M512.124 19.8079C510.114 18.9082 507.903 18.2085 505.692 17.8087C502.678 17.2089 499.462 17.009 496.447 17.2089C493.332 17.3088 490.216 17.8087 487.201 18.9082C486.498 19.2081 485.794 19.508 485.091 19.9078C481.976 19.3081 478.961 19.508 475.946 19.9078C469.715 20.9075 463.886 23.3065 458.661 26.6053C453.435 29.904 448.812 34.2024 444.993 39.1005C443.084 41.4996 441.376 44.0986 439.969 46.7975C439.366 47.9971 438.763 49.1966 438.16 50.3962C438.26 50.6961 438.361 51.0959 438.361 51.3958C438.361 51.2958 438.461 51.2958 438.461 51.1959C439.165 49.7964 439.768 48.4969 440.572 47.1974C442.079 44.5984 443.787 41.9994 445.697 39.7003C449.516 35.0021 454.138 30.9036 459.364 27.8048C464.489 24.706 470.318 22.4069 476.247 21.5072C478.559 21.2073 480.87 21.0074 483.182 21.3073L483.081 21.4073C481.875 22.5069 480.971 23.9063 480.267 25.3058C478.961 28.2047 478.257 31.4034 478.559 34.6022C478.76 36.2016 479.162 37.901 480.267 39.3004C480.77 40.0001 481.574 40.5999 482.378 40.9998C483.282 41.3996 484.187 41.4996 484.99 41.3996C486.799 41.1997 488.307 40.5999 489.714 39.7003C491.121 38.8006 492.327 37.5011 493.03 36.0017C493.734 34.5023 494.035 32.8029 493.935 31.1036C493.834 29.4042 493.332 27.8048 492.628 26.4054C491.925 25.0059 490.92 23.7064 489.814 22.5069C489.513 22.207 489.312 21.9071 488.91 21.6072C488.508 21.3073 488.206 21.1074 487.804 20.9075C487.503 20.7075 487.201 20.6076 486.9 20.5076C487.201 20.4077 487.402 20.3077 487.704 20.2077C490.518 19.1082 493.533 18.6083 496.547 18.5084C499.562 18.3085 502.678 18.5084 505.592 19.0082C507.903 19.408 510.315 20.0078 512.426 21.1074C512.325 20.5076 512.225 20.2077 512.124 19.8079ZM486.9 22.3069C487.503 22.6068 487.905 23.0067 488.508 23.6064C489.513 24.706 490.417 25.8056 491.02 27.1051C492.327 29.6041 492.628 32.7029 491.422 35.102C490.819 36.3016 489.915 37.4011 488.709 38.1009C487.603 38.8006 486.096 39.4004 484.789 39.5003C483.483 39.6003 482.277 39.2005 481.473 38.1009C480.669 37.1013 480.267 35.7018 480.066 34.3023C479.765 31.4034 480.267 28.4046 481.473 25.7056C482.076 24.4061 482.88 23.1066 483.885 22.107C484.186 21.8071 484.387 21.6072 484.689 21.4073C484.789 21.4073 484.89 21.4073 484.99 21.5072C485.694 21.7072 486.297 22.007 486.9 22.3069Z" fill="white"/>
<path d="M512.224 40.8998C512.124 41.3996 511.923 41.9994 511.722 42.4992C511.22 43.0989 510.617 43.5987 510.114 44.1985C509.511 44.7983 508.808 45.498 508.104 45.9978C505.29 48.3969 502.275 50.4961 498.959 52.0955C492.427 55.3942 485.292 57.4934 477.956 58.593C470.72 59.5926 463.283 59.5926 456.048 58.693C452.43 58.2931 448.812 57.6933 445.295 56.6937C443.486 56.2939 441.777 55.6941 440.069 55.0943C439.868 54.9944 439.667 54.8944 439.466 54.8944C439.265 54.4946 439.164 54.0947 439.064 53.7948C439.466 53.9948 439.968 54.1947 440.37 54.2946C442.079 54.8944 443.787 55.3942 445.496 55.7941C449.013 56.5938 452.631 57.0936 456.148 57.3935C463.384 57.9932 470.519 57.7933 477.654 56.7937C484.789 55.894 491.824 53.9948 498.256 50.8959C501.471 49.3965 504.587 47.4973 507.401 45.1981C508.104 44.6983 508.808 44.0986 509.411 43.4988C510.114 42.899 510.717 42.2992 511.32 41.5995C511.722 41.3996 511.923 41.1997 512.224 40.8998Z" fill="white"/>
<path opacity="0.3" d="M450.721 562C497.62 562 535.64 555.063 535.64 546.506C535.64 537.949 497.62 531.012 450.721 531.012C403.822 531.012 365.803 537.949 365.803 546.506C365.803 555.063 403.822 562 450.721 562Z" fill="#D4DBE4"/>
<path d="M441.676 116.271C441.676 120.069 438.561 123.168 434.742 123.168C430.923 123.168 427.808 120.069 427.808 116.271C427.808 112.472 430.923 109.374 434.742 109.374C438.561 109.374 441.676 112.472 441.676 116.271Z" stroke="#EBCA7B" stroke-width="1.5027" stroke-miterlimit="10"/>
<path d="M14.2703 169.251H199.383C207.221 169.251 213.653 175.548 213.653 183.445V343.184C213.653 350.981 207.322 357.378 199.383 357.378H14.2703C6.4317 357.378 0 351.081 0 343.184V183.445C0 175.648 6.3312 169.251 14.2703 169.251Z" fill="white"/>
<path d="M0 182.246C0 175.048 5.82872 169.251 13.0644 169.251H200.488C207.724 169.251 213.552 175.048 213.552 182.246V213.534H0V182.246Z" fill="#BDEBBB"/>
<path opacity="0.2" d="M15.5767 298.601V287.805C15.5767 282.807 19.5965 278.809 24.6212 278.809H187.826C192.85 278.809 196.87 282.807 196.87 287.805V298.601C196.87 303.599 192.85 307.598 187.826 307.598H24.6212C19.5965 307.598 15.5767 303.499 15.5767 298.601Z" fill="#CAD9E8"/>
<path opacity="0.2" d="M14.4712 332.888V322.092C14.4712 317.094 18.491 313.095 23.5158 313.095H186.72C191.745 313.095 195.765 317.094 195.765 322.092V332.888C195.765 337.886 191.745 341.884 186.72 341.884H23.5158C18.491 341.884 14.4712 337.786 14.4712 332.888Z" fill="#CAD9E8"/>
<path d="M183.504 299.801C187.167 299.801 190.137 296.847 190.137 293.203C190.137 289.559 187.167 286.606 183.504 286.606C179.841 286.606 176.872 289.559 176.872 293.203C176.872 296.847 179.841 299.801 183.504 299.801Z" fill="#F9F8F7" stroke="#758AC5" stroke-width="2"/>
<path d="M186.72 295.402C186.72 295.402 196.87 310.297 216.165 302.799" stroke="#758AC5" stroke-width="2" stroke-linecap="round"/>
<path d="M216.065 302.3C216.065 302.3 208.93 268.912 216.065 272.611C223.2 276.409 217.271 296.002 216.065 302.3Z" stroke="#758AC5" stroke-width="2" stroke-linecap="round"/>
<path d="M217.673 303.199C217.673 303.199 234.556 316.494 227.32 318.393C220.085 320.293 218.678 307.098 217.673 303.199Z" stroke="#758AC5" stroke-width="2" stroke-linecap="round"/>
<path d="M183.504 334.387C187.167 334.387 190.137 331.434 190.137 327.79C190.137 324.146 187.167 321.192 183.504 321.192C179.841 321.192 176.872 324.146 176.872 327.79C176.872 331.434 179.841 334.387 183.504 334.387Z" fill="#F9F8F7" stroke="#758AC5" stroke-width="2"/>
<path d="M186.72 329.289C186.72 329.289 196.87 344.883 216.165 337.386" stroke="#758AC5" stroke-width="2" stroke-linecap="round"/>
<path d="M216.869 336.386C216.668 337.086 215.663 337.086 215.462 336.386C213.854 330.189 210.437 314.995 216.166 317.194C222.195 319.493 218.678 330.489 216.869 336.386Z" stroke="#758AC5" stroke-width="2" stroke-linecap="round"/>
<path d="M215.864 338.386C215.663 337.886 216.165 337.486 216.668 337.686C221.19 339.785 235.46 346.982 228.727 350.681C221.491 354.679 217.773 343.384 215.864 338.386Z" stroke="#758AC5" stroke-width="2" stroke-linecap="round"/>
<path d="M264.101 62.7914C253.348 77.4857 273.045 326.09 235.862 326.09C221.29 326.09 215.462 308.897 216.065 302.3" stroke="#758AC5" stroke-width="2" stroke-linecap="round"/>
<path d="M216.065 337.386C216.065 337.386 203.503 328.489 205.111 391.265C206.517 442.946 206.317 549.805 168.932 549.205C142.904 548.805 94.3648 544.207 90.144 535.91C85.9232 527.613 182.7 517.517 226.516 532.311C270.332 547.106 186.619 551.604 144.914 544.307C103.208 537.01 132.754 529.612 179.886 530.712C228.626 531.912 322.791 554.703 406.503 546.606C412.332 546.006 417.759 545.506 422.984 545.106" stroke="#758AC5" stroke-width="2"/>
<path d="M447.707 474.434C447.707 474.434 473.634 494.626 473.031 497.725L479.262 499.924C484.287 501.723 489.915 499.924 492.929 495.626C496.045 491.227 495.844 485.33 492.326 481.131L488.206 476.133L461.876 456.74L447.707 474.434Z" fill="#EAB4B3"/>
<path d="M472.629 496.825L464.288 524.814C463.886 526.814 467.203 530.612 469.012 531.512L503.582 486.729L487.603 474.833C487.603 474.833 483.784 479.132 479.765 490.428C477.252 497.025 472.629 496.825 472.629 496.825Z" fill="#F7F2F0"/>
<path d="M464.388 526.014L481.171 504.122C483.985 500.424 486.799 496.825 489.613 493.227C492.527 489.628 495.24 486.029 498.155 482.431C495.441 486.129 492.627 489.728 489.914 493.426C487.1 497.025 484.286 500.724 481.472 504.322L464.388 526.014Z" fill="#2E3748"/>
<path d="M490.719 477.932C490.015 479.131 489.513 480.431 489.01 481.73C488.508 483.03 488.206 484.429 488.005 485.729C487.804 487.128 487.804 488.528 488.005 489.827C488.206 491.227 488.709 492.526 489.312 493.726C488.508 492.626 487.905 491.227 487.603 489.827C487.402 488.428 487.402 487.028 487.704 485.629C487.905 484.229 488.407 482.93 488.91 481.53C489.312 480.331 489.915 479.031 490.719 477.932C490.618 477.832 490.618 477.832 490.719 477.932Z" fill="#2E3748"/>
<path d="M468.208 512.618C469.112 512.918 470.218 512.718 471.022 512.118C471.826 511.619 472.429 510.819 473.032 510.02C473.635 509.22 474.338 508.42 475.343 508.121C476.348 507.821 477.453 507.821 478.358 508.321C477.453 508.121 476.448 508.121 475.544 508.52C474.639 508.82 473.936 509.52 473.333 510.22C472.73 511.019 472.127 511.819 471.223 512.318C470.218 512.818 469.112 513.018 468.208 512.618C468.208 512.618 468.107 512.618 468.208 512.618Z" fill="#2E3748"/>
<path d="M474.841 500.524C474.64 499.224 474.338 497.825 473.836 496.625C473.534 496.025 473.233 495.426 472.73 494.926C472.228 494.426 471.625 494.226 470.921 494.426C470.318 494.526 469.514 494.726 469.213 495.226C468.911 495.726 469.213 496.425 469.615 496.925C470.419 497.925 471.524 498.724 472.73 499.524L473.534 500.124L473.735 500.224L473.836 500.324C473.936 500.324 474.037 500.624 473.936 500.724C473.936 500.824 473.635 500.924 473.635 500.824H473.534L473.333 500.724C472.63 500.524 472.027 500.424 471.323 500.324C470.62 500.224 470.017 500.224 469.313 500.224C468.71 500.224 468.007 500.424 467.605 500.824C467.404 501.024 467.303 501.323 467.303 501.623C467.303 501.923 467.504 502.123 467.705 502.323C468.208 502.623 468.911 502.723 469.615 502.723C470.921 502.723 472.328 502.523 473.635 502.223C472.328 502.623 471.022 502.923 469.615 503.023C468.911 503.023 468.208 503.023 467.504 502.623C467.203 502.423 466.901 502.023 466.901 501.623C466.901 501.223 467.002 500.824 467.203 500.524C467.705 499.924 468.509 499.824 469.213 499.724C469.916 499.724 470.62 499.724 471.323 499.824C472.027 499.924 472.73 500.024 473.333 500.224L473.534 500.324H473.635C473.635 500.324 473.534 500.324 473.534 500.424V500.624L473.434 500.524L473.233 500.424L472.429 499.824C471.323 499.024 470.218 498.225 469.313 497.125C469.112 496.825 468.911 496.525 468.811 496.225C468.71 495.926 468.71 495.426 468.911 495.126C469.414 494.526 470.117 494.326 470.821 494.226C471.524 494.126 472.328 494.326 472.73 494.826C473.233 495.326 473.534 495.925 473.836 496.525C474.439 497.825 474.74 499.224 474.841 500.524Z" fill="#2E3748"/>
<path d="M468.911 330.789C468.911 330.789 440.27 414.557 441.375 418.455C448.109 442.746 466.499 457.94 476.75 477.133C473.031 481.231 465.695 490.428 462.178 494.226L401.981 443.246C383.591 423.253 422.884 319.493 422.884 319.493L468.911 330.789Z" fill="#BCC8D3"/>
<path d="M451.325 500.024C451.325 500.024 450.822 532.811 447.908 534.111L449.918 540.408C451.526 545.506 456.349 548.805 461.676 548.705C467.102 548.505 471.725 544.807 472.931 539.509L474.338 533.211L473.936 500.624L451.325 500.024Z" fill="#EAB4B3"/>
<path d="M448.41 533.311L420.874 543.607C418.965 544.506 417.96 549.405 418.362 551.404L475.142 551.704L475.041 531.811C475.041 531.811 469.313 531.411 457.857 534.91C451.023 537.109 448.41 533.311 448.41 533.311Z" fill="#F7F2F0"/>
<path d="M420.07 544.407L447.707 544.507C452.329 544.507 456.952 544.507 461.474 544.607C466.097 544.707 470.72 544.707 475.242 544.907C470.619 545.007 465.997 545.007 461.474 545.007C456.852 545.007 452.229 544.907 447.707 544.807L420.07 544.407Z" fill="#2E3748"/>
<path d="M474.438 536.21C473.031 536.41 471.725 536.71 470.318 537.11C469.012 537.509 467.705 538.009 466.499 538.709C465.293 539.409 464.188 540.208 463.183 541.208C462.178 542.208 461.474 543.307 460.771 544.607C461.173 543.207 461.876 542.008 462.881 540.908C463.886 539.909 465.092 539.109 466.298 538.409C467.605 537.709 468.911 537.31 470.218 536.91C471.624 536.51 473.031 536.31 474.438 536.21C474.438 536.11 474.438 536.11 474.438 536.21Z" fill="#2E3748"/>
<path d="M433.134 539.309C433.436 540.208 434.24 540.908 435.245 541.208C436.149 541.508 437.154 541.508 438.159 541.508C439.164 541.508 440.27 541.607 441.174 542.207C442.079 542.807 442.682 543.706 442.782 544.706C442.38 543.806 441.777 543.007 440.973 542.607C440.169 542.107 439.265 541.907 438.26 541.907C437.255 541.907 436.25 541.907 435.245 541.508C434.139 541.008 433.335 540.308 433.134 539.309C433.034 539.309 433.034 539.309 433.134 539.309C433.034 539.309 433.034 539.309 433.134 539.309Z" fill="#2E3748"/>
<path d="M446.702 537.21C447.707 536.31 448.611 535.21 449.214 534.011C449.515 533.411 449.817 532.811 449.917 532.112C450.018 531.412 449.716 530.812 449.314 530.312C448.812 529.912 448.209 529.413 447.606 529.413C447.003 529.413 446.702 530.212 446.501 530.812C446.199 532.112 446.199 533.511 446.3 534.81L446.4 535.81V536.11V536.21C446.4 536.31 446.3 536.51 446.199 536.51C446.099 536.51 445.898 536.41 445.898 536.31L445.797 536.21L445.697 536.01C445.395 535.41 445.094 534.811 444.792 534.211C444.491 533.611 444.089 533.111 443.687 532.611C443.285 532.112 442.682 531.712 442.179 531.612C441.878 531.612 441.576 531.712 441.375 531.912C441.174 532.112 441.074 532.311 441.074 532.611C441.174 533.211 441.476 533.811 441.878 534.311C442.682 535.41 443.687 536.31 444.792 537.21C443.687 536.41 442.581 535.51 441.677 534.511C441.275 534.011 440.772 533.411 440.672 532.611C440.672 532.211 440.772 531.812 441.074 531.512C441.375 531.212 441.777 531.112 442.179 531.112C442.983 531.212 443.586 531.712 444.089 532.212C444.591 532.711 444.893 533.311 445.295 533.911C445.596 534.511 445.898 535.11 446.199 535.81L446.3 536.01V536.11C446.3 536.11 446.199 536.01 446.199 536.11C446.099 536.11 446.099 536.21 446.099 536.21V536.11V535.81V534.81C446.099 533.411 446.099 532.112 446.4 530.712C446.501 530.412 446.601 530.012 446.802 529.712C447.003 529.413 447.305 529.113 447.707 529.113C448.511 529.113 449.013 529.613 449.616 530.012C450.118 530.512 450.42 531.212 450.319 531.912C450.219 532.611 449.917 533.211 449.616 533.811C448.711 535.31 447.807 536.41 446.702 537.21C446.802 537.31 446.802 537.31 446.702 537.21C446.702 537.31 446.702 537.31 446.702 537.21Z" fill="#2E3748"/>
<path d="M441.375 327.29L493.131 336.187C493.131 336.187 491.121 461.239 478.86 523.015L445.998 523.415L441.375 327.29Z" fill="#D4DBE4"/>
<path d="M445.395 489.528L444.591 454.341L444.189 436.748C444.189 430.85 444.089 425.053 444.089 419.155C444.29 425.053 444.39 430.85 444.591 436.748L444.893 454.341L445.395 489.528C445.496 489.528 445.496 489.628 445.395 489.528C445.395 489.628 445.395 489.528 445.395 489.528Z" fill="#2E3748"/>
<path d="M492.427 365.975C491.523 392.265 490.317 418.555 488.407 444.745C487.402 457.84 486.297 470.935 484.89 484.03C483.383 497.125 481.674 510.12 479.162 523.015V523.215H478.961L446.099 523.515H445.998V523.415L445.797 507.021L446.199 523.415L446.099 523.315L478.961 522.815L478.76 523.015C481.272 510.12 483.081 497.125 484.488 484.03C485.995 470.935 487.101 457.84 488.106 444.745C490.015 418.555 491.422 392.265 492.427 365.975C492.327 365.975 492.327 365.975 492.427 365.975Z" fill="#2E3748"/>
<path d="M449.817 199.639C451.626 184.245 469.011 177.247 478.86 188.343C478.96 188.443 478.96 188.443 479.061 188.543C486.699 197.24 490.417 196.04 506.597 185.044C516.043 178.647 523.681 174.249 533.328 175.848C542.071 177.347 546.895 182.845 549.508 188.943C555.136 201.938 547.9 217.332 535.238 220.131C532.926 220.631 530.716 220.831 528.806 220.531C523.882 219.831 521.972 217.532 516.144 223.43C506.195 233.426 497.452 242.423 484.99 236.225C481.071 234.226 477.051 232.226 472.931 230.727C450.822 222.33 449.716 210.835 449.716 210.835C449.415 206.636 449.415 202.938 449.817 199.639Z" fill="#2A2C2F"/>
<path d="M443.988 201.638C444.893 194.441 450.621 188.643 457.857 188.043C460.067 187.843 462.379 188.143 464.59 189.243C469.916 191.842 471.725 199.739 472.328 205.837L471.825 213.434L472.529 244.622C467.906 264.014 452.53 263.315 452.43 239.524L452.631 223.93C443.285 221.131 442.983 209.735 443.988 201.638Z" fill="#E09F9B"/>
<path d="M452.631 223.83C452.631 223.83 456.952 225.329 462.982 221.431C462.982 221.431 459.565 228.328 452.53 230.827L452.631 223.83Z" fill="#CA7D7A"/>
<path d="M471.021 203.637C471.021 205.236 471.926 206.435 473.132 206.535C474.338 206.535 475.343 205.336 475.343 203.737C475.343 202.138 474.438 200.938 473.232 200.839C472.127 200.839 471.122 202.138 471.021 203.637Z" fill="#BE9791"/>
<path d="M473.132 203.737C473.132 203.937 473.333 204.137 473.534 204.137C473.735 204.137 473.936 203.937 473.936 203.737C473.936 203.537 473.735 203.337 473.534 203.337C473.333 203.337 473.132 203.537 473.132 203.737Z" fill="#A37975"/>
<path d="M452.631 223.829C453.535 224.029 454.44 224.029 455.344 223.929C456.249 223.829 457.153 223.629 457.957 223.429C458.862 223.23 459.666 222.83 460.47 222.53C461.273 222.23 462.077 221.83 462.982 221.431C462.58 221.73 462.278 221.93 461.876 222.23L460.67 222.93C459.867 223.329 458.962 223.729 458.058 223.929C457.153 224.129 456.249 224.329 455.344 224.329C454.44 224.329 453.435 224.229 452.631 223.829Z" fill="#383A4A"/>
<path d="M471.021 203.637C471.021 205.236 471.926 206.435 473.132 206.535C474.338 206.535 475.343 205.336 475.343 203.737C475.343 202.138 474.438 200.938 473.232 200.839C472.127 200.839 471.122 202.138 471.021 203.637Z" fill="#E09F9B"/>
<path d="M472.529 202.938C472.529 202.938 473.835 202.738 473.936 203.738C474.036 204.738 472.83 204.538 472.83 204.538" stroke="#B57A77" stroke-width="0.4282" stroke-miterlimit="10" stroke-linecap="round"/>
<path d="M458.258 210.335C457.857 211.334 457.153 212.234 456.249 212.933C455.344 213.633 454.239 214.033 453.133 214.033C452.028 214.033 450.922 213.533 450.018 213.033C449.616 212.733 449.113 212.434 448.711 212.034C448.309 211.634 447.907 211.234 447.606 210.835C448.008 211.134 448.51 211.434 448.912 211.734C449.314 212.034 449.817 212.334 450.219 212.534C451.123 212.933 452.128 213.333 453.133 213.333C454.138 213.333 455.143 213.033 455.947 212.434C456.852 211.934 457.555 211.134 458.258 210.335Z" fill="#373949"/>
<path d="M453.636 197.64C453.033 198.739 452.43 199.839 451.726 200.938C451.023 202.038 450.319 203.038 449.616 204.037V203.737C450.219 204.537 450.922 205.437 451.525 206.336C450.721 205.637 450.018 204.837 449.314 204.137L449.214 204.037L449.314 203.837C450.018 202.738 450.721 201.738 451.425 200.639C452.028 199.639 452.832 198.639 453.636 197.64Z" fill="#373949"/>
<path d="M457.957 200.539C457.756 201.338 457.655 202.238 457.655 203.037C457.655 203.837 457.856 204.736 458.459 205.036C459.062 205.336 459.866 204.936 460.469 204.336C461.072 203.837 461.675 203.137 462.178 202.437C462.278 202.338 462.379 202.338 462.479 202.437C462.58 202.537 462.58 202.637 462.479 202.637C462.077 203.437 461.474 204.037 460.871 204.736C460.57 205.036 460.168 205.336 459.766 205.536C459.364 205.736 458.761 205.836 458.258 205.536C457.756 205.336 457.454 204.836 457.354 204.436C457.253 204.037 457.153 203.537 457.153 203.137C457.153 202.238 457.354 201.438 457.655 200.539C457.655 200.439 457.756 200.439 457.856 200.439C457.856 200.439 457.957 200.439 457.957 200.539Z" fill="#373949"/>
<path d="M446.702 198.039C446.501 198.839 446.4 199.639 446.4 200.338C446.4 200.738 446.4 201.138 446.501 201.438C446.601 201.837 446.702 202.137 447.003 202.137C447.204 202.237 447.606 202.137 447.807 201.937C448.109 201.737 448.41 201.438 448.611 201.138C449.114 200.538 449.616 199.938 450.018 199.239C450.119 199.139 450.219 199.139 450.32 199.139C450.42 199.239 450.42 199.339 450.42 199.339C450.018 200.038 449.616 200.738 449.114 201.338C448.812 201.637 448.511 201.937 448.209 202.237C447.908 202.437 447.405 202.737 446.802 202.537C446.3 202.337 446.099 201.737 445.998 201.338C445.898 200.938 445.898 200.438 445.998 200.038C446.099 199.239 446.3 198.439 446.501 197.64C446.501 197.54 446.601 197.54 446.702 197.54C446.702 197.84 446.702 197.939 446.702 198.039Z" fill="#373949"/>
<path d="M472.428 183.845C472.428 183.845 454.239 197.04 447.807 192.942C447.807 192.942 454.239 178.547 472.428 183.845Z" fill="#2A2C2F"/>
<path d="M462.68 188.443C462.68 188.443 466.499 198.439 471.926 201.238L478.659 196.74C478.86 194.741 470.217 184.745 462.68 188.443Z" fill="#2A2C2F"/>
<path d="M464.79 215.732C467.621 215.732 469.916 213.494 469.916 210.734C469.916 207.974 467.621 205.736 464.79 205.736C461.96 205.736 459.665 207.974 459.665 210.734C459.665 213.494 461.96 215.732 464.79 215.732Z" fill="#EBBDBC"/>
<path d="M443.988 202.038C445.595 202.838 446.701 204.537 446.701 206.436C446.701 208.336 445.495 210.035 443.887 210.835C443.887 210.835 443.686 209.135 443.686 206.436C443.686 203.737 443.988 202.038 443.988 202.038Z" fill="#EBBDBC"/>
<path d="M496.848 245.321C488.507 241.523 480.066 239.024 472.729 237.324L472.629 237.524C472.629 237.524 466.7 239.624 460.871 239.024C455.645 238.524 452.329 235.225 451.726 234.426C448.108 234.326 444.39 234.326 440.772 234.626C386.907 237.924 378.364 183.845 378.364 183.845L357.461 188.843C357.461 188.843 360.074 235.925 373.239 271.811C382.183 296.302 405.197 299.001 417.558 307.398L415.95 338.986L494.034 339.785L493.13 309.897C543.579 329.389 580.46 320.493 580.46 320.493L585.686 302.899C585.586 302.999 525.188 258.117 496.848 245.321Z" fill="#F8F5EC"/>
<path d="M363.19 183.345C363.291 191.942 363.793 199.539 364.597 206.236C369.622 211.135 374.747 210.835 379.772 207.736C377.46 193.241 374.948 175.948 374.948 175.948C374.948 175.948 376.757 166.052 380.375 164.053C380.174 163.453 379.37 162.753 378.566 162.953C375.45 163.553 373.642 166.552 373.642 166.552C373.642 166.552 371.23 151.857 370.024 152.557C368.818 153.257 369.22 161.054 369.22 161.054C369.22 161.054 367.31 149.358 366.305 150.458C365.903 150.858 366.305 150.458 366.305 160.754C366.305 160.754 363.391 151.957 362.889 153.557C362.185 155.656 363.19 162.553 363.19 162.553C363.19 162.553 360.879 155.756 360.477 157.155C360.075 158.555 363.391 177.148 363.391 177.148L363.19 183.345Z" fill="#DE9E9A"/>
<path d="M585.184 317.994C576.742 315.894 569.507 313.695 563.176 311.296C559.558 305.298 561.065 300.4 565.185 296.302C578.853 301.9 595.133 308.297 595.133 308.297C595.133 308.297 605.183 308.797 607.996 305.798C608.499 306.098 609.001 307.098 608.7 307.797C607.393 310.696 604.077 311.696 604.077 311.696C604.077 311.696 617.845 317.394 616.84 318.493C615.835 319.493 608.398 317.294 608.398 317.294C608.398 317.294 619.352 321.892 618.146 322.592C617.644 322.892 618.146 322.592 608.097 320.193C608.097 320.193 616.036 324.991 614.328 325.191C612.117 325.391 605.584 322.892 605.584 322.892C605.584 322.892 611.715 326.69 610.308 326.79C608.901 326.79 591.515 319.393 591.515 319.393L585.184 317.994Z" fill="#DE9E9A"/>
<path d="M444.591 339.385L451.626 234.426C448.008 234.326 444.29 234.326 440.672 234.626C386.806 237.924 378.264 183.845 378.264 183.845L357.361 188.843C357.361 188.843 359.974 235.925 373.139 271.811C382.083 296.302 405.097 299.001 417.457 307.398L415.85 338.986L444.591 339.385Z" fill="#3E4A6C"/>
<path d="M496.849 245.321C488.507 241.523 480.066 239.024 472.73 237.324V237.424L463.786 339.585L493.934 339.885L493.03 309.997C543.478 329.489 580.36 320.593 580.36 320.593L585.586 302.999C585.586 302.999 525.188 258.116 496.849 245.321Z" fill="#3E4A6C"/>
<path d="M535.238 267.813C530.313 264.614 525.389 261.515 520.465 258.516C515.44 255.518 510.415 252.519 505.29 249.72C500.165 247.021 494.838 244.522 489.412 242.522C483.985 240.423 478.357 238.824 472.729 237.324C478.458 238.524 484.085 240.123 489.613 242.123C492.326 243.122 495.039 244.222 497.753 245.521C500.366 246.721 502.979 248.12 505.591 249.52C515.741 255.018 525.59 261.315 535.238 267.813C535.338 267.813 535.338 267.813 535.238 267.813Z" fill="#2E3748"/>
<path d="M493.834 339.885L492.829 309.997V309.897H492.929L498.155 311.796L500.768 312.696C501.672 312.995 502.476 313.295 503.381 313.595L508.707 315.195C509.611 315.494 510.516 315.694 511.42 315.994L514.134 316.694L519.56 318.093L524.987 319.193L527.7 319.793L530.414 320.193C532.223 320.493 534.032 320.792 535.941 320.992C543.277 321.892 550.714 322.392 558.151 322.392C565.587 322.292 573.024 321.892 580.259 320.393L580.058 320.593L585.385 302.999L585.485 303.199L567.296 289.804L585.686 302.899L585.787 302.999V303.099L580.661 320.692V320.792H580.561C573.225 322.292 565.788 322.692 558.351 322.792C550.915 322.792 543.478 322.292 536.142 321.292C534.333 320.992 532.424 320.692 530.615 320.393L527.901 319.993L525.188 319.393L519.761 318.293L514.335 316.894L511.621 316.194C510.717 315.994 509.812 315.694 508.908 315.394L503.582 313.795C502.677 313.495 501.773 313.195 500.969 312.895L498.356 311.996L493.13 310.097L493.231 309.997L493.834 339.885C493.934 339.885 493.934 339.885 493.834 339.885C493.934 339.885 493.834 339.885 493.834 339.885Z" fill="#2E3748"/>
<path d="M400.775 244.522C404.092 236.525 401.579 227.428 402.685 224.729C402.986 223.93 408.313 231.627 408.011 237.225" stroke="#2E3748" stroke-width="0.4485" stroke-miterlimit="10" stroke-linecap="round"/>
<path d="M487.804 306.098C487.804 306.098 490.116 309.496 493.03 309.996" stroke="#2E3748" stroke-width="0.4485" stroke-miterlimit="10" stroke-linecap="round"/>
<path d="M417.357 307.498C417.357 307.498 421.477 308.897 421.477 314.195" stroke="#2E3748" stroke-width="0.4485" stroke-miterlimit="10" stroke-linecap="round"/>
<path d="M451.525 234.426L444.591 339.385" stroke="#2E3748" stroke-width="0.4485" stroke-miterlimit="10" stroke-linecap="round"/>
<path d="M472.63 237.324L463.686 339.585" stroke="#2E3748" stroke-width="0.4485" stroke-miterlimit="10" stroke-linecap="round"/>
<path d="M500.969 294.902C502.912 294.902 504.486 293.336 504.486 291.404C504.486 289.471 502.912 287.905 500.969 287.905C499.026 287.905 497.452 289.471 497.452 291.404C497.452 293.336 499.026 294.902 500.969 294.902Z" stroke="#788DB4" stroke-miterlimit="10"/>
<path d="M365.602 201.538C367.544 201.538 369.119 199.972 369.119 198.04C369.119 196.107 367.544 194.541 365.602 194.541C363.659 194.541 362.084 196.107 362.084 198.04C362.084 199.972 363.659 201.538 365.602 201.538Z" stroke="#788DB4" stroke-miterlimit="10"/>
<path d="M371.632 241.723C373.574 241.723 375.149 240.156 375.149 238.224C375.149 236.292 373.574 234.725 371.632 234.725C369.689 234.725 368.114 236.292 368.114 238.224C368.114 240.156 369.689 241.723 371.632 241.723Z" stroke="#788DB4" stroke-miterlimit="10"/>
<path d="M433.738 307.598C435.68 307.598 437.255 306.031 437.255 304.099C437.255 302.167 435.68 300.6 433.738 300.6C431.795 300.6 430.22 302.167 430.22 304.099C430.22 306.031 431.795 307.598 433.738 307.598Z" stroke="#788DB4" stroke-miterlimit="10"/>
<path d="M397.157 284.306C399.1 284.306 400.675 282.74 400.675 280.808C400.675 278.876 399.1 277.309 397.157 277.309C395.215 277.309 393.64 278.876 393.64 280.808C393.64 282.74 395.215 284.306 397.157 284.306Z" stroke="#788DB4" stroke-miterlimit="10"/>
<path d="M435.144 267.113C437.087 267.113 438.662 265.547 438.662 263.615C438.662 261.682 437.087 260.116 435.144 260.116C433.202 260.116 431.627 261.682 431.627 263.615C431.627 265.547 433.202 267.113 435.144 267.113Z" stroke="#788DB4" stroke-miterlimit="10"/>
<path d="M478.76 277.609C480.702 277.609 482.277 276.043 482.277 274.11C482.277 272.178 480.702 270.612 478.76 270.612C476.817 270.612 475.242 272.178 475.242 274.11C475.242 276.043 476.817 277.609 478.76 277.609Z" stroke="#788DB4" stroke-miterlimit="10"/>
<path d="M475.343 301.2C477.285 301.2 478.86 299.634 478.86 297.701C478.86 295.769 477.285 294.203 475.343 294.203C473.4 294.203 471.825 295.769 471.825 297.701C471.825 299.634 473.4 301.2 475.343 301.2Z" stroke="#788DB4" stroke-miterlimit="10"/>
<path d="M529.108 283.407C531.05 283.407 532.625 281.84 532.625 279.908C532.625 277.976 531.05 276.41 529.108 276.41C527.165 276.41 525.59 277.976 525.59 279.908C525.59 281.84 527.165 283.407 529.108 283.407Z" stroke="#788DB4" stroke-miterlimit="10"/>
<path d="M569.205 317.694C571.148 317.694 572.723 316.127 572.723 314.195C572.723 312.263 571.148 310.696 569.205 310.696C567.263 310.696 565.688 312.263 565.688 314.195C565.688 316.127 567.263 317.694 569.205 317.694Z" stroke="#788DB4" stroke-miterlimit="10"/>
<path d="M552.623 291.404C554.566 291.404 556.141 289.837 556.141 287.905C556.141 285.973 554.566 284.406 552.623 284.406C550.681 284.406 549.106 285.973 549.106 287.905C549.106 289.837 550.681 291.404 552.623 291.404Z" stroke="#788DB4" stroke-miterlimit="10"/>
<path d="M536.142 304.099V311.096" stroke="#788DB4" stroke-miterlimit="10" stroke-linecap="round"/>
<path d="M532.625 307.597H539.66" stroke="#788DB4" stroke-miterlimit="10" stroke-linecap="round"/>
<path d="M504.486 261.915V268.912" stroke="#788DB4" stroke-miterlimit="10" stroke-linecap="round"/>
<path d="M500.969 265.413H508.003" stroke="#788DB4" stroke-miterlimit="10" stroke-linecap="round"/>
<path d="M485.895 247.721V254.818" stroke="#788DB4" stroke-miterlimit="10" stroke-linecap="round"/>
<path d="M482.277 251.319H489.412" stroke="#788DB4" stroke-miterlimit="10" stroke-linecap="round"/>
<path d="M422.984 279.908V286.906" stroke="#788DB4" stroke-miterlimit="10" stroke-linecap="round"/>
<path d="M419.467 283.406H426.602" stroke="#788DB4" stroke-miterlimit="10" stroke-linecap="round"/>
<path d="M410.825 256.617V263.615" stroke="#788DB4" stroke-miterlimit="10" stroke-linecap="round"/>
<path d="M407.207 260.115H414.342" stroke="#788DB4" stroke-miterlimit="10" stroke-linecap="round"/>
<path d="M431.627 323.791V330.789" stroke="#788DB4" stroke-miterlimit="10" stroke-linecap="round"/>
<path d="M428.11 327.289H435.145" stroke="#788DB4" stroke-miterlimit="10" stroke-linecap="round"/>
<path d="M381.882 217.732V224.729" stroke="#788DB4" stroke-miterlimit="10" stroke-linecap="round"/>
<path d="M378.365 221.23H385.399" stroke="#788DB4" stroke-miterlimit="10" stroke-linecap="round"/>
<path d="M406.403 239.724V246.721" stroke="#788DB4" stroke-miterlimit="10" stroke-linecap="round"/>
<path d="M402.886 243.222H409.92" stroke="#788DB4" stroke-miterlimit="10" stroke-linecap="round"/>
<path d="M381.882 256.617V263.615" stroke="#788DB4" stroke-miterlimit="10" stroke-linecap="round"/>
<path d="M378.365 260.115H385.399" stroke="#788DB4" stroke-miterlimit="10" stroke-linecap="round"/>
<path d="M435.144 243.222V250.22" stroke="#788DB4" stroke-miterlimit="10" stroke-linecap="round"/>
<path d="M431.627 246.72H438.662" stroke="#788DB4" stroke-miterlimit="10" stroke-linecap="round"/>
<path d="M473.936 317.894V324.991" stroke="#788DB4" stroke-miterlimit="10" stroke-linecap="round"/>
<path d="M470.318 321.392H477.453" stroke="#788DB4" stroke-miterlimit="10" stroke-linecap="round"/>
<path d="M266.212 42.4992L448.31 16.2093C456.048 15.1097 463.283 20.4077 464.389 28.2047L480.468 138.163C481.574 145.86 476.247 153.057 468.409 154.156L286.311 180.446C278.573 181.546 271.337 176.248 270.232 168.451L254.153 58.4931C253.047 50.796 258.474 43.5988 266.212 42.4992Z" fill="white"/>
<path d="M254.052 57.4934C253.047 50.3961 257.971 43.7987 265.106 42.7991L449.515 16.2092C456.65 15.2096 463.283 20.1078 464.288 27.205L468.81 58.1932L258.574 88.3816L254.052 57.4934Z" fill="#BDEBBB"/>
<path opacity="0.2" d="M277.669 111.873C276.965 106.675 280.482 101.976 285.708 101.177L446.3 77.9856C451.525 77.2858 456.249 80.7845 457.053 85.9825L458.46 95.7788C459.163 100.977 455.646 105.675 450.42 106.475L289.828 129.666C284.603 130.366 279.879 126.867 279.076 121.669L277.669 111.873Z" fill="#CAD9E8"/>
<path opacity="0.2" d="M282.693 145.76C281.989 140.562 285.507 135.863 290.733 135.064L451.324 111.873C456.55 111.173 461.273 114.671 462.077 119.869L463.484 129.666C464.187 134.864 460.67 139.562 455.444 140.362L294.853 163.553C289.627 164.252 284.904 160.754 284.1 155.556L282.693 145.76Z" fill="#CAD9E8"/>
<path d="M283.705 65.4428C284.922 62.0061 283.108 58.2385 279.653 57.0277C276.198 55.817 272.41 57.6214 271.193 61.0581C269.976 64.4949 271.79 68.2624 275.245 69.4732C278.7 70.684 282.487 68.8795 283.705 65.4428Z" fill="#F9F8F7" stroke="#758AC5" stroke-width="2"/>
<path d="M274.151 62.9913C274.151 62.9913 270.734 44.8982 258.172 46.0978" stroke="#758AC5" stroke-width="2" stroke-linecap="round"/>
<path d="M258.273 46.0978C258.273 46.0978 253.851 79.9848 248.324 74.0871C242.897 68.1893 255.057 51.5957 258.273 46.0978Z" stroke="#758AC5" stroke-width="2" stroke-linecap="round"/>
<path d="M257.067 44.6983C257.067 44.6983 245.611 26.6052 253.047 27.205C260.484 27.8048 257.368 40.7998 257.067 44.6983Z" stroke="#758AC5" stroke-width="2" stroke-linecap="round"/>
<path d="M475.343 545.806C478.458 546.106 520.063 557.702 541.167 554.903C562.171 552.104 625.282 555.403 595.334 474.733C565.286 394.064 570.612 349.381 602.168 315.994C602.168 315.994 622.684 291.313 626 324C629.316 356.687 604.189 370.708 606.5 392.5" stroke="#758AC5" stroke-width="2" stroke-linecap="round"/>
<path d="M374.948 175.948C374.948 175.948 376.757 166.052 380.375 164.052C380.174 163.453 379.37 162.753 378.566 162.953C375.45 163.553 374.646 165.152 373.641 166.552C372.637 167.851 369.32 170.05 368.114 170.75" fill="#DE9E9A"/>
<path d="M27.2342 168.251C26.6312 164.853 22.6114 167.951 26.5307 171.649" stroke="#D4DBE4" stroke-width="2" stroke-linecap="round"/>
<path d="M184.71 168.251C184.107 164.853 180.087 167.951 184.007 171.649" stroke="#D4DBE4" stroke-width="2" stroke-linecap="round"/>
<path d="M25.6265 167.451C25.6265 167.451 93.5613 116.871 102.606 116.671C111.55 116.471 183.304 167.451 183.304 167.451" stroke="#D4DBE4" stroke-width="2" stroke-linecap="round"/>
<path d="M99.5905 118.27C99.5905 122.069 98.0831 125.168 96.1737 125.168C94.2643 125.168 92.7568 122.069 92.7568 118.27C92.7568 114.472 94.2643 111.373 96.1737 111.373C96.4751 111.373 96.7766 111.473 97.0781 111.673C97.3796 111.873 97.5806 112.073 97.8821 112.272C98.887 113.472 99.5905 115.671 99.5905 118.27Z" fill="#D4DBE4"/>
<path d="M106.726 120.569C106.726 122.068 106.123 123.367 105.419 123.367C104.716 123.367 104.113 122.168 104.113 120.569C104.113 119.07 104.716 117.77 105.419 117.77C105.52 117.77 105.62 117.77 105.821 117.87C105.922 117.97 106.022 117.97 106.123 118.17C106.525 118.67 106.726 119.569 106.726 120.569Z" fill="#D4DBE4"/>
<path d="M105.419 123.368L101.098 122.768L95.9727 125.267L96.1736 111.373L100.796 115.571L105.419 117.87V123.368Z" fill="#D4DBE4"/>
<path d="M20.8025 203.737C19.8981 202.338 19.4961 200.638 19.4961 199.039C19.4961 197.44 19.9986 195.84 20.8025 194.441L21.104 193.941C21.2045 193.741 21.305 193.641 21.506 193.441C21.707 193.141 22.0085 192.841 22.2095 192.442C22.8124 191.942 23.3149 191.242 24.0184 190.842L25.0233 190.143L26.1288 189.643C26.8322 189.243 27.6362 189.043 28.3397 188.743C31.3545 187.843 34.5704 187.843 37.5852 188.243C40.6001 188.643 43.615 189.443 46.4288 190.542C49.2427 191.742 51.9561 193.341 54.167 195.64C55.2724 196.74 56.1769 198.039 56.6793 199.739C56.8803 200.539 56.8803 201.638 56.1769 202.438C55.7749 202.838 55.2724 203.038 54.8704 203.138C54.3679 203.237 53.966 203.237 53.564 203.138C51.8556 202.838 50.5491 202.138 49.1422 201.338C47.8358 200.439 46.6298 199.439 45.6249 198.239C44.6199 197.04 43.7155 195.74 43.213 194.241C42.7105 192.742 42.5095 191.042 43.1125 189.443C43.8159 187.843 45.2229 186.844 46.7303 186.244C48.2377 185.644 49.7452 185.444 51.3531 185.344C54.4684 185.144 57.4833 185.444 60.4982 185.944C66.5279 186.944 72.3566 188.643 77.9843 190.742C80.7982 191.842 83.6121 193.041 86.3254 194.441C87.6319 195.141 89.0388 195.84 90.2448 196.74C90.8477 197.14 91.4507 197.64 92.0537 198.139C92.3551 198.439 92.6566 198.739 92.8576 199.039C93.0586 199.339 93.3601 199.839 93.2596 200.339C93.2596 200.938 92.7571 201.338 92.3552 201.538C91.9532 201.738 91.5512 201.838 91.1492 201.938C90.3452 202.138 89.6418 202.238 88.8378 202.238C88.0339 202.238 87.2299 202.138 86.5264 201.838C85.823 201.538 85.019 201.238 84.416 200.738C81.8032 198.839 80.2957 195.94 79.9942 192.841C79.8937 191.342 79.9942 189.643 81.2002 188.343C81.8032 187.743 82.6071 187.344 83.4111 187.244C84.215 187.144 84.9185 187.044 85.7225 186.944C88.7373 186.644 91.7522 186.744 94.767 187.044C100.797 187.643 106.726 188.943 112.454 191.142C113.861 191.742 115.268 192.342 116.575 193.041C117.881 193.841 119.187 194.641 120.092 195.94C120.494 196.54 120.795 197.54 120.293 198.339C120.092 198.739 119.79 199.039 119.489 199.239C119.187 199.439 118.886 199.739 118.484 199.839C117.78 200.239 116.976 200.339 116.173 200.339C115.369 200.239 114.565 200.139 113.861 199.839C112.454 199.339 111.148 198.439 110.042 197.34C109.037 196.24 108.133 194.941 107.731 193.441C107.53 192.742 107.429 191.942 107.53 191.142C107.63 190.342 107.932 189.643 108.434 189.043C109.439 187.843 110.846 187.044 112.253 186.644C115.168 185.744 118.283 185.644 121.298 185.744C124.313 185.844 127.327 186.244 130.342 186.744C136.272 187.743 142.201 188.843 148.13 190.143C153.959 191.442 159.888 193.041 165.616 194.841C168.531 195.74 171.344 196.74 174.158 197.74C176.972 198.839 179.786 199.939 182.499 201.238C179.786 199.939 176.972 198.839 174.158 197.74C171.344 196.64 168.43 195.74 165.616 194.841C159.888 193.041 154.059 191.542 148.13 190.242C142.201 188.943 136.272 187.843 130.342 186.944C127.327 186.544 124.413 186.044 121.398 186.044C118.383 185.944 115.369 186.044 112.555 186.944C111.148 187.444 109.741 188.143 108.937 189.243C108.434 189.843 108.233 190.542 108.133 191.142C108.032 191.842 108.133 192.542 108.334 193.241C108.736 194.641 109.64 195.94 110.645 196.94C111.65 198.039 112.957 198.839 114.263 199.339C114.967 199.639 115.67 199.739 116.374 199.739C117.077 199.739 117.78 199.639 118.484 199.239C118.785 199.139 119.087 198.839 119.388 198.639C119.589 198.339 119.891 198.139 119.991 197.84C120.293 197.24 120.192 196.54 119.79 195.94C118.986 194.741 117.68 193.941 116.374 193.241C115.067 192.542 113.66 191.942 112.253 191.342C106.625 189.243 100.696 187.943 94.767 187.444C91.7522 187.244 88.7373 187.144 85.823 187.444C85.1195 187.544 84.3155 187.643 83.6121 187.743C82.9086 187.843 82.3056 188.143 81.9036 188.643C80.9992 189.643 80.7982 191.242 80.8987 192.642C81.2002 195.54 82.7076 198.339 85.019 199.939C85.622 200.339 86.2249 200.638 86.9284 200.938C87.6319 201.138 88.3353 201.238 89.0388 201.238C89.7423 201.238 90.4457 201.138 91.1492 200.938C91.8527 200.738 92.5561 200.439 92.5561 200.139C92.5561 199.739 92.0537 199.039 91.5512 198.639C91.0487 198.139 90.4457 197.74 89.8428 197.34C88.6368 196.54 87.3304 195.84 86.0239 195.141C83.4111 193.741 80.5972 192.642 77.7833 191.542C72.1556 189.443 66.3269 187.743 60.4982 186.844C57.5838 186.344 54.5689 186.144 51.6546 186.344C50.1471 186.444 48.7402 186.744 47.4338 187.244C46.1273 187.743 44.9214 188.643 44.4189 189.843C43.9164 191.042 44.0169 192.542 44.5194 193.841C45.0219 195.141 45.8259 196.34 46.7303 197.44C47.6348 198.539 48.7402 199.539 49.9462 200.239C51.1521 201.038 52.4585 201.638 53.8655 201.838C54.167 201.838 54.4684 201.838 54.7699 201.838C55.0714 201.738 55.2724 201.638 55.3729 201.538C55.6744 201.238 55.7749 200.638 55.5739 199.939C55.2724 198.639 54.3679 197.44 53.363 196.44C51.3531 194.341 48.7402 192.841 46.0268 191.742C43.3135 190.642 40.3991 189.843 37.4847 189.543C34.5704 189.243 31.5555 189.243 28.8422 190.043C28.1387 190.242 27.4352 190.442 26.8322 190.842L25.9278 191.342L25.0233 191.942C24.4204 192.342 24.0184 192.841 23.4154 193.341L22.8124 194.141C22.7119 194.241 22.6114 194.441 22.511 194.541L22.31 195.041C21.6065 196.24 21.2045 197.64 21.2045 198.939C21.2045 200.339 21.506 201.638 22.31 202.738C22.511 203.038 22.4105 203.537 22.109 203.737C21.506 204.137 21.0035 204.137 20.8025 203.737Z" fill="#F3FCF2"/>
<path d="M22.5108 242.023C21.7068 241.223 21.3048 239.923 21.4053 238.824C21.5058 237.624 22.1088 236.725 22.9127 235.925C24.4202 234.426 26.4301 233.626 28.3395 233.226C32.2588 232.526 36.1781 232.926 39.9969 233.826C41.9063 234.326 43.7153 234.925 45.5242 235.825C46.4286 236.325 47.2326 236.825 48.0366 237.524C48.4385 237.824 48.74 238.224 49.0415 238.724C49.343 239.224 49.6445 239.823 49.4435 240.623C49.343 241.023 49.0415 241.323 48.6395 241.523C48.338 241.623 48.0366 241.723 47.7351 241.723C47.1321 241.723 46.6296 241.723 46.1272 241.623C45.1222 241.423 44.2177 241.023 43.3133 240.623C42.4088 240.123 41.6049 239.624 40.8009 238.924C40.0974 238.224 39.394 237.424 38.992 236.425C38.791 235.925 38.6905 235.325 38.791 234.725C38.8915 234.126 39.193 233.526 39.595 233.226C40.3989 232.426 41.4039 232.126 42.4088 231.927C44.4187 231.527 46.3281 231.527 48.2376 231.627C52.0564 231.827 55.8752 232.426 59.694 233.226C63.4123 234.026 67.1307 235.025 70.7485 236.325C71.653 236.625 72.5574 237.025 73.4619 237.424C74.3663 237.824 75.2708 238.224 76.0747 238.924C76.2757 239.124 76.4767 239.224 76.6777 239.624C76.7782 239.823 76.7782 240.023 76.7782 240.223C76.6777 240.423 76.4767 240.623 76.3762 240.723C75.7733 241.023 75.3713 241.023 74.8688 241.123C73.8638 241.223 72.8589 241.223 71.8539 241.123C70.849 240.923 69.9445 240.623 69.0401 240.223C68.1356 239.724 67.3317 239.124 66.7287 238.324C66.4272 237.924 66.2262 237.424 66.1257 236.925C66.0252 236.425 66.1257 235.825 66.3267 235.325C66.7287 234.326 67.6331 233.626 68.4371 233.226C70.1455 232.226 72.0549 231.827 73.9643 231.527C75.8737 231.227 77.7832 231.027 79.6926 230.827C87.3302 230.027 94.9678 229.827 102.605 230.627C110.243 231.327 117.78 232.826 125.217 234.426C132.654 236.025 140.09 237.724 147.627 239.424C140.191 237.824 132.654 236.125 125.217 234.625C117.78 233.126 110.243 231.727 102.605 231.027C94.9678 230.327 87.3302 230.527 79.7931 231.427C77.8837 231.627 75.9742 231.927 74.1653 232.226C72.3564 232.526 70.447 233.026 68.8391 233.926C68.0351 234.426 67.3316 235.025 67.0302 235.725C66.8292 236.125 66.8292 236.525 66.9297 236.925C67.0302 237.324 67.2312 237.724 67.4321 238.124C68.5376 239.524 70.3465 240.323 72.1554 240.623C73.0599 240.723 73.9643 240.723 74.8688 240.623C75.2708 240.523 75.7733 240.423 76.0747 240.323C76.1752 240.223 76.1752 240.323 76.1752 240.223C76.0747 240.123 75.9742 239.923 75.7733 239.823C75.0698 239.324 74.1653 238.924 73.3614 238.524C72.4569 238.124 71.653 237.824 70.7485 237.524C67.1307 236.225 63.5128 235.325 59.7945 234.526C56.0762 233.726 52.2574 233.126 48.539 233.026C46.6296 232.926 44.7202 233.026 43.0118 233.426C42.1073 233.626 41.3034 233.926 40.7004 234.526C40.0974 235.025 39.9969 235.825 40.3989 236.525C40.7004 237.324 41.3034 237.924 42.0068 238.524C42.7103 239.124 43.4138 239.624 44.2177 240.023C45.0217 240.423 45.9262 240.723 46.7301 240.923C47.1321 241.023 47.6346 241.023 47.9361 241.023C48.1371 241.023 48.2376 240.923 48.4385 240.923C48.539 240.823 48.539 240.823 48.6395 240.723C48.6395 240.623 48.6395 240.223 48.338 239.923C48.1371 239.624 47.8356 239.324 47.5341 239.024C46.8306 238.424 46.1271 237.924 45.3232 237.524C43.7153 236.725 41.9064 236.125 40.0974 235.625C36.4796 234.825 32.6608 234.426 29.043 235.125C27.234 235.525 25.5256 236.225 24.4202 237.424C23.8172 238.024 23.4152 238.724 23.4152 239.524C23.3147 240.223 23.6162 241.023 24.1187 241.523C24.4202 241.823 24.4202 242.323 24.1187 242.622C23.3147 242.323 22.8122 242.323 22.5108 242.023Z" fill="#ADC9EE"/>
<path d="M21.2044 261.815C20.6014 261.115 20.4004 260.216 20.4004 259.316C20.4004 258.416 20.7019 257.617 21.2044 256.917C22.2093 255.517 23.7167 254.818 25.1237 254.418C26.6311 254.018 28.1385 253.918 29.5455 254.018C31.0529 254.118 32.4598 254.318 33.8668 254.718C35.2737 255.118 36.6806 255.617 37.9871 256.317C38.59 256.717 39.2935 257.117 39.796 257.617C40.2984 258.116 40.9014 258.716 41.1024 259.716C41.1024 259.916 41.1024 260.316 41.0019 260.616C40.9014 260.915 40.5999 261.215 40.3989 261.315C39.8965 261.515 39.394 261.515 38.992 261.515C38.188 261.415 37.4846 261.115 36.7811 260.716C35.4747 260.016 34.2687 259.016 33.4648 257.617C33.0628 256.917 32.8618 256.017 33.1633 255.118C33.4648 254.218 34.2687 253.618 34.9722 253.418C36.4796 252.819 37.9871 252.819 39.394 252.819C42.3084 252.918 45.1222 253.418 47.9361 254.018C50.75 254.718 53.4633 255.517 56.1767 256.617C57.4831 257.117 58.7896 257.717 60.096 258.516C60.3975 258.716 60.699 258.916 61.0005 259.416C61.101 259.516 61.101 259.716 61.101 259.916C61.101 260.116 61.0005 260.216 60.9 260.416C60.7995 260.516 60.699 260.616 60.5985 260.616L60.297 260.716C59.5935 260.915 58.7896 261.015 58.0861 260.915C56.5787 260.815 55.0713 260.116 54.0663 259.016C53.5638 258.416 53.1618 257.717 53.1618 256.917C53.1618 256.117 53.5638 255.318 54.1668 254.818C55.2722 253.718 56.7797 253.318 58.1866 252.918C59.5935 252.619 61.0005 252.419 62.4074 252.219C68.0351 251.519 73.8639 251.319 79.4916 251.919C85.2198 252.519 90.7471 253.718 96.2743 255.018C101.802 256.317 107.329 257.817 112.856 259.216C107.329 257.917 101.802 256.517 96.2743 255.218C90.7471 253.918 85.1193 252.819 79.4916 252.319C73.8639 251.819 68.1356 252.019 62.5079 252.819C61.101 253.018 59.694 253.218 58.2871 253.518C56.9807 253.818 55.5737 254.318 54.6693 255.218C54.1668 255.617 53.8653 256.217 53.8653 256.817C53.8653 257.417 54.1668 258.017 54.5688 258.516C55.4732 259.516 56.7797 260.016 58.0861 260.116C58.7896 260.216 59.3925 260.116 60.096 259.916L60.297 259.816C60.3975 259.816 60.3975 259.716 60.3975 259.716C60.3975 259.716 60.3975 259.816 60.3975 259.716C60.297 259.516 59.9955 259.316 59.7945 259.116C58.6891 258.416 57.3826 257.817 56.0762 257.317C53.4633 256.317 50.75 255.517 47.9361 254.918C45.2227 254.318 42.4089 253.818 39.595 253.818C38.1881 253.818 36.7811 253.918 35.5752 254.418C34.9722 254.618 34.5702 255.018 34.3692 255.517C34.1682 256.017 34.3692 256.617 34.6707 257.117C35.2737 258.216 36.3791 259.116 37.5851 259.716C38.1881 260.016 38.791 260.216 39.394 260.316C39.6955 260.316 39.997 260.316 40.0975 260.216C40.198 260.216 40.198 260.216 40.198 260.116C40.198 260.116 40.198 260.016 40.198 259.916C40.0975 259.516 39.6955 258.916 39.193 258.516C38.6905 258.116 38.1881 257.717 37.5851 257.417C36.3791 256.717 35.0727 256.317 33.7663 255.917C32.4598 255.617 31.0529 255.418 29.646 255.318C28.239 255.218 26.9326 255.318 25.6261 255.717C24.4202 256.117 23.2143 256.717 22.5108 257.717C21.8073 258.716 21.7068 259.916 22.4103 260.716C22.7118 261.015 22.6113 261.515 22.3098 261.815C22.0083 262.215 21.5058 262.115 21.2044 261.815Z" fill="#ADC9EE"/>
<path d="M290.733 68.3893C289.627 67.0898 288.924 65.4904 288.723 63.891C288.522 62.2916 288.723 60.5923 289.326 59.0929C290.532 56.094 293.044 53.7949 295.959 52.4954C298.873 51.1959 301.988 50.6961 305.104 50.6961C308.219 50.6961 311.234 50.996 314.249 51.7957C317.264 52.5954 320.178 53.7949 322.59 55.7941C323.796 56.7937 325.002 57.8933 325.605 59.4927C325.806 59.8926 325.906 60.2924 325.906 60.7922C325.906 61.292 325.806 61.7918 325.504 62.1917C325.203 62.5915 324.7 62.8914 324.298 63.0913C323.896 63.1913 323.394 63.2913 322.992 63.2913C321.283 63.2913 319.776 62.6915 318.369 62.0917C316.962 61.392 315.656 60.5923 314.45 59.4927C313.244 58.4931 312.239 57.2936 311.535 55.7941C310.832 54.3947 310.329 52.6953 310.832 50.996C311.234 49.2966 312.641 48.0971 313.947 47.2974C315.354 46.4977 316.861 46.0979 318.369 45.698C321.384 45.0982 324.499 44.9983 327.514 44.9983C333.644 45.0982 339.573 45.9979 345.503 47.2974C348.417 47.9971 351.331 48.7968 354.246 49.7964C355.653 50.2962 357.06 50.896 358.467 51.6957C359.17 52.0956 359.773 52.4954 360.376 52.9952C360.677 53.2951 360.979 53.595 361.18 53.8949C361.381 54.2947 361.582 54.7945 361.481 55.2943C361.381 55.7941 360.979 56.194 360.677 56.3939C360.376 56.6938 359.974 56.8937 359.572 56.9937C358.768 57.2936 357.964 57.2936 357.16 57.1936C355.552 56.9937 354.145 56.2939 352.839 55.4943C351.532 54.6946 350.427 53.595 349.422 52.3954C348.518 51.1959 347.714 49.7964 347.412 48.197C347.312 47.3974 347.412 46.5977 347.714 45.798C348.015 44.9983 348.518 44.3985 349.12 43.8987C349.723 43.3989 350.427 42.999 351.13 42.6992C351.834 42.2993 352.537 41.9994 353.241 41.7995C356.055 40.6999 359.17 40.2001 362.185 39.9002C368.215 39.5004 374.345 40.2001 380.174 41.9994C381.58 42.4992 383.088 42.999 384.394 43.6988C385.701 44.3985 387.108 45.1982 388.012 46.4977C388.414 47.0975 388.716 47.9971 388.414 48.8968C388.113 49.6965 387.61 50.2962 386.907 50.796C385.6 51.7957 383.892 51.8956 382.384 51.4958C380.877 51.1959 379.47 50.3962 378.264 49.4965C377.058 48.5969 375.953 47.3974 375.35 45.9979C374.646 44.5984 374.646 42.8991 375.45 41.4996C376.254 40.1001 377.561 39.2005 378.867 38.5008C381.681 37.2013 384.696 36.7015 387.711 36.4016C390.726 36.1017 393.74 36.1017 396.755 36.1017C402.785 36.3016 408.815 36.6015 414.844 37.1013C420.874 37.6011 426.803 38.3008 432.833 39.3005C435.848 39.8003 438.762 40.4 441.677 40.9998C444.591 41.6995 447.505 42.3993 450.42 43.3989C447.606 42.3993 444.591 41.6995 441.677 41.0998C438.762 40.4 435.747 39.9002 432.833 39.4004C426.904 38.4008 420.874 37.801 414.844 37.3012C408.815 36.8014 402.785 36.6015 396.755 36.4016C393.74 36.3016 390.726 36.4016 387.711 36.7015C384.696 37.0013 381.681 37.6011 379.068 38.8006C377.762 39.5004 376.455 40.4 375.752 41.5996C375.048 42.8991 375.048 44.3985 375.752 45.798C376.355 47.0975 377.36 48.297 378.566 49.1967C379.772 50.0963 381.078 50.7961 382.485 51.0959C383.892 51.3958 385.5 51.2959 386.605 50.3962C387.208 49.9964 387.711 49.3966 387.912 48.7968C388.113 48.197 387.912 47.4973 387.51 46.8975C386.706 45.698 385.399 44.8983 384.093 44.1986C382.786 43.4988 381.379 42.999 379.973 42.4992C374.244 40.6999 368.215 40.1001 362.185 40.5C359.17 40.6999 356.256 41.2997 353.442 42.3993C352.738 42.6992 352.035 42.999 351.432 43.2989C350.728 43.5988 350.125 43.9987 349.623 44.4985C348.518 45.3981 348.015 46.7976 348.216 48.197C348.417 49.5965 349.12 50.896 350.025 51.9956C350.929 53.0952 352.035 54.0948 353.241 54.8945C354.447 55.6942 355.854 56.2939 357.261 56.4939C357.964 56.5938 358.668 56.4939 359.271 56.2939C359.873 56.094 360.577 55.5942 360.677 55.1944C360.778 54.7945 360.275 54.1947 359.773 53.6949C359.271 53.1951 358.567 52.8952 357.964 52.4954C356.658 51.7957 355.251 51.1959 353.844 50.6961C351.03 49.6965 348.116 48.8968 345.201 48.197C339.372 46.8975 333.343 46.0978 327.414 45.9979C324.399 45.9979 321.384 46.0979 318.57 46.6976C317.163 46.9975 315.756 47.3974 314.45 48.197C313.244 48.8968 312.138 49.8964 311.837 51.1959C311.435 52.4954 311.837 53.8949 312.44 55.0944C313.143 56.2939 314.048 57.4935 315.153 58.3931C316.259 59.3928 317.464 60.1924 318.771 60.7922C320.077 61.392 321.484 61.8918 322.891 61.8918C323.595 61.8918 324.198 61.6919 324.399 61.292C324.7 60.8922 324.6 60.2924 324.399 59.6926C323.896 58.4931 322.891 57.3935 321.786 56.4939C319.474 54.6946 316.761 53.595 313.847 52.7953C311.033 52.0956 308.018 51.6957 305.104 51.7957C302.189 51.7957 299.174 52.2955 296.561 53.495C293.949 54.6946 291.738 56.6938 290.733 59.3928C290.23 60.6923 290.029 62.0917 290.23 63.4912C290.431 64.8906 290.934 66.1902 291.838 67.0898C292.14 67.3897 292.14 67.8895 291.738 68.1894C291.336 68.4893 290.934 68.7892 290.733 68.3893Z" fill="#F3FCF2"/>
<path d="M294.753 119.57C293.848 118.87 293.245 117.67 293.245 116.571C293.245 115.371 293.647 114.372 294.25 113.472C295.557 111.773 297.365 110.673 299.174 109.973C302.993 108.674 306.912 108.474 310.832 108.774C312.741 108.974 314.751 109.274 316.56 109.873C317.464 110.173 318.469 110.573 319.273 111.173C319.675 111.473 320.077 111.773 320.479 112.172C320.781 112.572 321.283 113.172 321.183 113.972C321.082 114.372 320.881 114.771 320.58 114.971C320.278 115.171 319.977 115.271 319.675 115.371C319.072 115.471 318.57 115.571 318.067 115.471C317.063 115.371 316.058 115.171 315.153 114.871C314.249 114.572 313.244 114.172 312.44 113.572C311.636 113.072 310.832 112.372 310.229 111.373C309.927 110.873 309.726 110.373 309.726 109.773C309.726 109.174 309.927 108.574 310.329 108.174C311.033 107.274 311.937 106.774 312.942 106.375C314.852 105.675 316.761 105.375 318.67 105.075C322.489 104.675 326.409 104.675 330.227 104.875C334.046 105.075 337.865 105.475 341.684 106.275C342.588 106.475 343.593 106.675 344.498 106.874C345.402 107.174 346.407 107.374 347.312 107.874C347.513 107.974 347.814 108.174 348.015 108.474C348.116 108.574 348.216 108.874 348.216 109.074C348.216 109.374 348.015 109.473 347.915 109.573C347.412 109.973 346.91 110.073 346.508 110.273C345.603 110.573 344.598 110.673 343.593 110.673C342.588 110.673 341.583 110.473 340.679 110.173C339.774 109.873 338.87 109.374 338.066 108.674C337.664 108.274 337.363 107.874 337.262 107.374C337.061 106.874 337.061 106.275 337.162 105.775C337.463 104.775 338.166 103.976 338.97 103.276C340.578 102.076 342.387 101.277 344.196 100.677C346.005 100.077 347.915 99.5773 349.723 99.0775C357.16 97.0782 364.697 95.7787 372.335 95.2789C379.973 94.7791 387.61 95.079 395.248 95.4788C402.885 95.8787 410.523 96.4784 418.161 96.8783C410.523 96.4784 402.885 95.9786 395.248 95.6788C387.61 95.3789 379.973 95.079 372.335 95.6788C364.697 96.1786 357.16 97.578 349.824 99.5773C348.015 100.077 346.206 100.677 344.397 101.277C342.588 101.876 340.88 102.676 339.372 103.776C338.669 104.375 338.066 105.075 337.865 105.875C337.765 106.275 337.765 106.675 337.966 107.074C338.066 107.474 338.368 107.774 338.669 108.174C339.975 109.374 341.885 109.873 343.694 109.873C344.598 109.873 345.503 109.773 346.407 109.473C346.809 109.274 347.312 109.174 347.513 108.974C347.613 108.874 347.613 108.974 347.513 108.874C347.412 108.774 347.312 108.674 347.111 108.574C346.307 108.174 345.402 107.874 344.498 107.674C343.593 107.474 342.689 107.274 341.684 107.074C337.966 106.375 334.147 105.975 330.328 105.775C326.509 105.575 322.69 105.575 318.972 106.075C317.062 106.275 315.254 106.675 313.545 107.274C312.741 107.574 311.937 108.074 311.435 108.674C310.932 109.274 311.033 110.073 311.435 110.773C311.837 111.473 312.54 112.072 313.344 112.572C314.148 113.072 314.952 113.472 315.756 113.672C316.661 113.972 317.565 114.172 318.369 114.172C318.771 114.172 319.273 114.172 319.575 114.072C319.776 114.072 319.876 113.972 319.977 113.872C320.077 113.772 320.077 113.772 320.077 113.672C320.077 113.572 319.977 113.172 319.675 112.872C319.374 112.572 319.072 112.272 318.67 112.072C317.967 111.573 317.063 111.273 316.259 110.973C314.55 110.373 312.641 110.073 310.832 109.973C307.113 109.673 303.295 109.973 299.777 111.173C298.069 111.773 296.461 112.772 295.557 114.172C295.054 114.871 294.853 115.671 294.853 116.371C294.853 117.171 295.255 117.77 295.858 118.27C296.159 118.57 296.26 118.97 295.959 119.37C295.557 119.77 295.054 119.869 294.753 119.57Z" fill="#ADC9EE"/>
<path d="M298.672 152.857C297.969 152.257 297.567 151.357 297.567 150.558C297.466 149.658 297.667 148.858 298.069 148.059C298.873 146.559 300.18 145.66 301.586 145.06C302.993 144.46 304.501 144.16 305.908 144.06C307.415 143.96 308.822 143.96 310.33 144.16C311.736 144.36 313.244 144.66 314.651 145.16C315.354 145.46 316.058 145.76 316.661 146.259C317.264 146.759 317.967 147.159 318.269 148.159C318.369 148.359 318.369 148.658 318.269 149.058C318.168 149.358 317.967 149.658 317.766 149.858C317.264 150.158 316.862 150.258 316.359 150.258C315.555 150.258 314.751 150.058 314.048 149.858C312.641 149.358 311.234 148.559 310.33 147.259C309.827 146.659 309.425 145.76 309.626 144.86C309.827 143.96 310.531 143.261 311.133 142.861C312.54 142.061 313.947 141.861 315.455 141.661C318.369 141.361 321.183 141.461 324.097 141.661C326.911 141.961 329.826 142.361 332.639 143.061C334.046 143.361 335.453 143.76 336.76 144.46C337.061 144.66 337.463 144.76 337.765 145.26C337.865 145.36 337.966 145.46 337.966 145.66C337.966 145.86 337.865 146.059 337.765 146.159C337.664 146.259 337.564 146.359 337.463 146.459L337.162 146.659C336.458 146.959 335.755 147.159 334.951 147.159C333.443 147.259 331.936 146.859 330.73 145.86C330.127 145.36 329.625 144.66 329.524 143.86C329.424 143.061 329.725 142.261 330.228 141.661C331.233 140.462 332.539 139.762 333.845 139.262C335.152 138.762 336.559 138.362 337.966 137.963C343.493 136.463 349.121 135.464 354.849 135.264C360.577 134.964 366.305 135.464 371.933 135.963C377.561 136.463 383.289 137.163 388.917 137.763C383.289 137.263 377.561 136.663 371.933 136.163C366.305 135.663 360.577 135.364 354.849 135.663C349.221 135.963 343.593 136.963 338.066 138.562C336.76 138.962 335.353 139.362 334.046 139.862C332.74 140.362 331.534 141.061 330.63 142.061C330.228 142.561 330.027 143.161 330.127 143.76C330.228 144.36 330.63 144.86 331.132 145.36C332.137 146.159 333.544 146.559 334.85 146.459C335.554 146.459 336.157 146.259 336.76 145.96L336.961 145.86C337.061 145.86 337.061 145.76 337.061 145.76C337.061 145.76 337.061 145.86 337.061 145.76C336.961 145.56 336.659 145.46 336.358 145.26C335.152 144.66 333.745 144.36 332.338 143.96C329.625 143.361 326.811 142.961 323.997 142.761C321.183 142.561 318.369 142.461 315.555 142.861C314.148 143.061 312.842 143.361 311.736 143.96C311.234 144.26 310.832 144.76 310.732 145.26C310.631 145.76 310.832 146.359 311.234 146.759C312.038 147.759 313.244 148.459 314.45 148.858C315.053 149.058 315.756 149.258 316.359 149.258C316.661 149.258 316.962 149.158 317.063 149.158C317.163 149.158 317.163 149.058 317.163 149.058C317.163 149.058 317.163 148.958 317.163 148.858C317.063 148.459 316.56 147.959 315.957 147.659C315.455 147.259 314.852 146.959 314.148 146.759C312.842 146.259 311.535 145.96 310.129 145.86C308.722 145.66 307.315 145.66 306.008 145.86C304.601 145.96 303.295 146.259 302.089 146.759C300.883 147.259 299.778 148.059 299.275 149.158C298.672 150.158 298.873 151.457 299.677 152.157C299.979 152.457 299.978 152.957 299.778 153.257C299.376 153.057 298.974 153.157 298.672 152.857Z" fill="#ADC9EE"/>
<path d="M30.0481 298.401C29.4451 297.701 29.2441 296.802 29.2441 295.902C29.2441 295.002 29.5456 294.203 30.0481 293.503C31.0531 292.104 32.5605 291.404 33.9674 291.004C35.4748 290.604 36.9823 290.504 38.3892 290.604C39.8966 290.704 41.3036 290.904 42.7105 291.304C44.1174 291.704 45.5244 292.203 46.8308 292.903C47.4338 293.303 48.1372 293.703 48.6397 294.203C49.1422 294.703 49.7452 295.302 49.9462 296.302C49.9462 296.502 49.9462 296.902 49.8457 297.202C49.7452 297.501 49.4437 297.801 49.2427 297.901C48.7402 298.101 48.2377 298.101 47.8358 298.101C47.0318 298.001 46.3283 297.701 45.6249 297.302C44.3184 296.602 43.1125 295.602 42.3085 294.203C41.9065 293.503 41.7056 292.603 42.007 291.704C42.3085 290.804 43.1125 290.204 43.816 290.004C45.3234 289.405 46.8308 289.405 48.2377 289.405C51.1521 289.505 53.966 290.004 56.7798 290.604C59.5937 291.304 62.3071 292.104 65.0205 293.203C66.3269 293.703 67.6333 294.303 68.9398 295.102C69.2413 295.302 69.5427 295.502 69.8442 296.002C69.9447 296.102 69.9447 296.302 69.9447 296.502C69.9447 296.702 69.8442 296.802 69.7437 297.002C69.6432 297.102 69.5427 297.202 69.4422 297.202L69.1408 297.302C68.4373 297.501 67.6333 297.601 66.9299 297.501C65.4224 297.401 63.915 296.702 62.91 295.602C62.4076 295.002 62.0056 294.303 62.0056 293.503C62.0056 292.703 62.4076 291.904 63.0105 291.404C64.116 290.304 65.6234 289.904 67.0304 289.505C68.4373 289.205 69.8442 289.005 71.2512 288.805C76.8789 288.105 82.7076 287.905 88.3354 288.505C94.0636 289.105 99.5908 290.304 105.118 291.604C110.645 292.903 116.173 294.403 121.7 295.802C116.173 294.503 110.645 293.103 105.118 291.804C99.5908 290.504 93.9631 289.405 88.3354 288.905C82.7076 288.405 76.9794 288.605 71.3517 289.405C69.9447 289.604 68.5378 289.804 67.1309 290.104C65.8244 290.404 64.4175 290.904 63.513 291.804C63.0105 292.203 62.7091 292.803 62.7091 293.403C62.7091 294.003 63.0105 294.603 63.4125 295.102C64.317 296.102 65.6234 296.602 66.9299 296.702C67.6333 296.802 68.2363 296.702 68.9398 296.502L69.1408 296.402C69.2413 296.402 69.2413 296.302 69.2413 296.302C69.2413 296.302 69.2413 296.402 69.2413 296.302C69.1408 296.102 68.8393 295.902 68.6383 295.702C67.5328 295.002 66.2264 294.403 64.92 293.903C62.3071 292.903 59.5937 292.104 56.7798 291.504C54.0665 290.904 51.2526 290.404 48.4387 290.404C47.0318 290.404 45.6249 290.504 44.4189 291.004C43.816 291.204 43.414 291.604 43.213 292.104C43.012 292.603 43.213 293.203 43.5145 293.703C44.1174 294.802 45.2229 295.702 46.4288 296.302C47.0318 296.602 47.6348 296.802 48.2377 296.902C48.5392 296.902 48.8407 296.902 48.9412 296.802C49.0417 296.802 49.0417 296.802 49.0417 296.702C49.0417 296.702 49.0417 296.602 49.0417 296.502C48.9412 296.102 48.5392 295.502 48.0368 295.102C47.5343 294.703 47.0318 294.303 46.4288 294.003C45.2229 293.303 43.9164 292.903 42.61 292.503C41.3036 292.203 39.8966 292.004 38.4897 291.904C37.0828 291.804 35.7763 291.904 34.4699 292.303C33.2639 292.703 32.058 293.303 31.3545 294.303C30.6511 295.302 30.5506 296.502 31.254 297.302C31.5555 297.601 31.455 298.101 31.1536 298.401C30.8521 298.801 30.3496 298.701 30.0481 298.401Z" fill="#ADC9EE"/>
<path d="M30.0481 332.688C29.4451 331.988 29.2441 331.088 29.2441 330.189C29.2441 329.289 29.5456 328.489 30.0481 327.79C31.0531 326.39 32.5605 325.691 33.9674 325.291C35.4748 324.891 36.9823 324.791 38.3892 324.891C39.8966 324.991 41.3036 325.191 42.7105 325.591C44.1174 325.99 45.5244 326.49 46.8308 327.19C47.4338 327.59 48.1372 327.99 48.6397 328.489C49.1422 328.989 49.7452 329.589 49.9462 330.589C49.9462 330.789 49.9462 331.188 49.8457 331.488C49.7452 331.788 49.4437 332.088 49.2427 332.188C48.7402 332.388 48.2377 332.388 47.8358 332.388C47.0318 332.288 46.3283 331.988 45.6249 331.588C44.3184 330.889 43.1125 329.889 42.3085 328.489C41.9065 327.79 41.7056 326.89 42.007 325.99C42.3085 325.091 43.1125 324.491 43.816 324.291C45.3234 323.691 46.8308 323.691 48.2377 323.691C51.1521 323.791 53.966 324.291 56.7798 324.891C59.5937 325.591 62.3071 326.39 65.0205 327.49C66.3269 327.99 67.6333 328.589 68.9398 329.389C69.2413 329.589 69.5427 329.789 69.8442 330.289C69.9447 330.389 69.9447 330.589 69.9447 330.789C69.9447 330.989 69.8442 331.088 69.7437 331.288C69.6432 331.388 69.5427 331.488 69.4422 331.488L69.1408 331.588C68.4373 331.788 67.6333 331.888 66.9299 331.788C65.4224 331.688 63.915 330.989 62.91 329.889C62.4076 329.289 62.0056 328.589 62.0056 327.79C62.0056 326.99 62.4076 326.19 63.0105 325.691C64.116 324.591 65.6234 324.191 67.0304 323.791C68.4373 323.491 69.8442 323.291 71.2512 323.092C76.8789 322.392 82.7076 322.192 88.3354 322.792C94.0636 323.391 99.5908 324.591 105.118 325.89C110.645 327.19 116.173 328.689 121.7 330.089C116.173 328.789 110.645 327.39 105.118 326.09C99.5908 324.791 93.9631 323.691 88.3354 323.192C82.7076 322.692 76.9794 322.892 71.3517 323.691C69.9447 323.891 68.5378 324.091 67.1309 324.391C65.8244 324.691 64.4175 325.191 63.513 326.09C63.0105 326.49 62.7091 327.09 62.7091 327.69C62.7091 328.29 63.0105 328.889 63.4125 329.389C64.317 330.389 65.6234 330.889 66.9299 330.989C67.6333 331.088 68.2363 330.989 68.9398 330.789L69.1408 330.689C69.2413 330.689 69.2413 330.589 69.2413 330.589C69.2413 330.589 69.2413 330.689 69.2413 330.589C69.1408 330.389 68.8393 330.189 68.6383 329.989C67.5328 329.289 66.2264 328.689 64.92 328.19C62.3071 327.19 59.5937 326.39 56.7798 325.791C54.0665 325.191 51.2526 324.691 48.4387 324.691C47.0318 324.691 45.6249 324.791 44.4189 325.291C43.816 325.491 43.414 325.89 43.213 326.39C43.012 326.89 43.213 327.49 43.5145 327.99C44.1174 329.089 45.2229 329.989 46.4288 330.589C47.0318 330.889 47.6348 331.088 48.2377 331.188C48.5392 331.188 48.8407 331.188 48.9412 331.088C49.0417 331.088 49.0417 331.088 49.0417 330.989C49.0417 330.989 49.0417 330.889 49.0417 330.789C48.9412 330.389 48.5392 329.789 48.0368 329.389C47.5343 328.989 47.0318 328.589 46.4288 328.29C45.2229 327.59 43.9164 327.19 42.61 326.79C41.3036 326.49 39.8966 326.29 38.4897 326.19C37.0828 326.09 35.7763 326.19 34.4699 326.59C33.2639 326.99 32.058 327.59 31.3545 328.589C30.6511 329.589 30.5506 330.789 31.254 331.588C31.5555 331.888 31.455 332.388 31.1536 332.688C30.8521 333.088 30.3496 332.988 30.0481 332.688Z" fill="#ADC9EE"/>
<path d="M378.164 183.945L357.261 189.043V188.943C358.065 200.838 359.472 212.734 361.381 224.429C363.29 236.225 365.702 247.92 369.019 259.316C369.923 262.215 370.727 265.014 371.732 267.813C372.234 269.212 372.636 270.612 373.239 272.011L374.948 276.11C377.561 281.508 381.38 286.206 385.902 290.004C390.525 293.803 395.75 296.702 401.177 299.201C406.604 301.8 412.232 303.999 417.256 307.298L417.357 307.398V307.498L415.648 339.085L417.055 307.498L417.156 307.598C412.131 304.299 406.503 302.2 401.077 299.601C395.65 297.102 390.324 294.203 385.701 290.304C381.078 286.506 377.259 281.708 374.646 276.31L372.938 272.211C372.435 270.812 371.933 269.412 371.43 268.013C370.426 265.214 369.622 262.315 368.717 259.416C365.401 247.92 363.089 236.225 361.18 224.429C359.271 212.634 357.964 200.739 357.16 188.843V188.743H357.261L378.164 183.945C378.164 183.845 378.264 183.845 378.164 183.945C378.264 183.945 378.264 183.945 378.164 183.945Z" fill="#2E3748"/>
<path d="M444.491 339.385L447.807 286.905L449.515 260.715C450.219 252.019 450.721 243.222 451.425 234.526C450.922 243.322 450.42 252.019 449.917 260.815L448.109 287.005L444.491 339.385C444.591 339.385 444.591 339.385 444.491 339.385Z" fill="#2E3748"/>
</svg>
