<svg width="314" height="290" viewBox="0 0 314 290" fill="none" xmlns="http://www.w3.org/2000/svg">
<path d="M270.488 194H254.819C251.217 194 248.155 197.011 248.155 200.554V213.84C248.155 217.56 251.217 220.571 254.819 220.571H265.985V225C272.109 225 277.152 220.04 277.152 214.017V200.731C277.332 197.011 274.27 194 270.488 194ZM259.142 209.589C257.881 209.589 256.8 208.526 256.8 207.286C256.8 206.046 257.881 204.983 259.142 204.983C260.402 204.983 261.483 206.046 261.483 207.286C261.483 208.526 260.402 209.589 259.142 209.589ZM266.346 209.589C265.085 209.589 264.004 208.526 264.004 207.286C264.004 206.046 265.085 204.983 266.346 204.983C267.606 204.983 268.687 206.046 268.687 207.286C268.867 208.526 267.786 209.589 266.346 209.589Z" fill="#EF886C"/>
<path d="M119.727 109H104.545C100.833 109 98.134 111.967 98.134 115.264V128.121C98.134 131.747 101.171 134.714 104.545 134.714H115.341V139C121.414 139 126.138 134.385 126.138 128.451V115.593C126.138 111.967 123.101 109 119.727 109ZM108.593 123.835C107.244 123.835 106.232 122.846 106.232 121.527C106.232 120.209 107.244 119.22 108.593 119.22C109.943 119.22 110.955 120.209 110.955 121.527C110.955 122.846 109.943 123.835 108.593 123.835ZM115.679 123.835C114.329 123.835 113.317 122.846 113.317 121.527C113.317 120.209 114.329 119.22 115.679 119.22C117.028 119.22 118.04 120.209 118.04 121.527C118.04 122.846 116.691 123.835 115.679 123.835Z" fill="#A4E8A0"/>
<path d="M263.537 254.12C263.537 263.192 258.727 271.196 251.6 275.821C249.818 276.888 247.858 277.955 245.898 278.489C243.404 279.378 240.553 279.734 237.702 279.734C234.495 279.734 231.466 279.2 228.794 278.133C218.995 274.576 209.73 264.793 212.046 254.12C216.856 231.175 223.627 228.329 237.881 228.329C247.68 228.329 255.698 229.574 260.686 242.025C262.112 245.938 263.537 249.851 263.537 254.12Z" fill="#A4E8A0"/>
<path d="M226.655 246.828C228.259 233.487 243.225 227.44 251.599 237.045L251.777 237.223C258.37 244.693 261.577 243.626 275.474 234.199C283.67 228.685 290.262 224.95 298.458 226.195C305.941 227.44 310.217 232.242 312.355 237.401C317.166 248.606 310.93 261.947 300.062 264.259C298.102 264.615 296.142 264.793 294.538 264.615C290.262 264.081 288.659 262.125 283.67 267.105C275.118 275.821 267.635 283.469 256.944 278.133C253.559 276.354 250.174 274.753 246.611 273.33C227.546 266.038 226.655 256.255 226.655 256.255C226.299 252.697 226.299 249.674 226.655 246.828Z" fill="#373949"/>
<path d="M245.898 278.489C243.404 279.378 240.553 279.734 237.703 279.734C234.495 279.734 231.467 279.2 228.794 278.133L228.972 267.461C220.954 265.148 220.598 255.365 221.489 248.428C221.845 245.582 223.093 243.092 224.874 240.958C226.478 239.179 228.438 237.934 230.754 237.223C231.645 237.045 232.536 236.867 233.426 236.689C234.852 236.511 236.277 236.689 237.703 237.045C238.059 237.223 238.593 237.4 238.95 237.578C239.128 237.578 239.128 237.756 239.306 237.756C242.691 239.357 244.473 243.804 245.364 248.073C245.364 248.251 245.364 248.428 245.542 248.606C245.72 249.851 245.898 250.919 246.077 251.986V252.519L245.72 258.567L246.077 273.33L245.898 278.489Z" fill="#C18987"/>
<path d="M228.973 267.639C228.973 267.639 232.714 268.884 237.881 265.504C237.881 265.504 235.03 271.552 228.973 273.508V267.639Z" fill="#AD7777"/>
<path d="M244.829 250.207C244.829 251.63 245.542 252.698 246.611 252.698C247.679 252.698 248.57 251.63 248.57 250.385C248.57 248.962 247.857 247.895 246.789 247.895C245.72 247.895 244.829 248.962 244.829 250.207Z" fill="#BE9791"/>
<path d="M246.611 250.207C246.611 250.385 246.789 250.563 246.967 250.563C247.145 250.563 247.323 250.385 247.323 250.207C247.323 250.03 247.145 249.852 246.967 249.852C246.789 250.03 246.611 250.03 246.611 250.207Z" fill="#A37975"/>
<path d="M228.973 267.639C229.685 267.639 230.576 267.639 231.289 267.461C232.002 267.283 232.714 267.105 233.427 266.927C234.852 266.571 236.278 265.86 237.881 265.504C237.525 265.86 237.347 266.038 236.99 266.394L235.921 267.105C235.209 267.461 234.496 267.816 233.605 267.994C232.892 268.172 232.002 268.35 231.111 268.35C230.576 268.172 229.685 267.994 228.973 267.639Z" fill="#383A4A"/>
<path d="M244.829 250.207C244.829 251.63 245.542 252.698 246.611 252.698C247.679 252.698 248.57 251.63 248.57 250.385C248.57 248.962 247.857 247.895 246.789 247.895C245.72 247.895 244.829 248.962 244.829 250.207Z" fill="#C18987"/>
<path d="M246.076 249.674C246.076 249.674 247.145 249.496 247.323 250.385C247.501 251.275 246.432 251.097 246.432 251.097" stroke="#B57A77" stroke-width="0.4282" stroke-miterlimit="10" stroke-linecap="round"/>
<path d="M233.782 255.899C233.604 256.789 232.892 257.678 232.179 258.211C231.466 258.923 230.397 259.279 229.328 259.279C228.259 259.279 227.368 258.923 226.477 258.389C226.121 258.034 225.765 257.856 225.408 257.5C225.052 257.144 224.874 256.789 224.518 256.433C225.408 256.966 226.121 257.322 226.834 257.856C227.725 258.211 228.437 258.389 229.328 258.567C230.219 258.567 230.932 258.389 231.644 257.856C232.535 257.322 233.248 256.611 233.782 255.899Z" fill="#373949"/>
<path d="M229.861 245.049C229.505 246.116 228.971 247.006 228.437 248.073C227.902 248.962 227.19 249.852 226.477 250.741V250.207C227.012 250.919 227.546 251.63 227.902 252.52C227.19 251.986 226.477 251.275 225.765 250.741L225.587 250.563L225.765 250.207C226.299 249.318 226.833 248.251 227.546 247.539C228.258 246.65 228.971 245.761 229.861 245.049Z" fill="#373949"/>
<path d="M233.782 247.539C233.604 248.251 233.604 248.962 233.604 249.674C233.604 250.385 233.782 250.919 234.138 251.097C234.495 251.275 235.029 250.919 235.564 250.563C236.098 250.207 236.632 249.674 236.989 249.14C237.167 248.962 237.345 248.962 237.523 249.14C237.701 249.318 237.701 249.496 237.523 249.496C237.167 250.207 236.811 250.741 236.098 251.452C235.742 251.808 235.564 251.986 235.029 252.164C234.673 252.342 233.96 252.52 233.604 252.164C233.07 251.986 232.891 251.452 232.713 251.097C232.535 250.741 232.535 250.207 232.535 249.852C232.535 249.14 232.713 248.251 233.07 247.539C233.07 247.361 233.248 247.361 233.426 247.361C233.604 247.361 233.782 247.539 233.782 247.539Z" fill="#373949"/>
<path d="M224.161 245.405C223.983 246.116 223.983 246.828 223.983 247.361C223.983 247.895 224.161 248.784 224.339 248.784C224.517 248.962 225.052 248.428 225.408 248.073C225.764 247.539 226.298 247.006 226.655 246.472C226.833 246.294 227.011 246.294 227.189 246.472C227.367 246.65 227.367 246.65 227.367 246.828C227.011 247.539 226.655 248.073 226.298 248.606C226.12 248.962 225.764 249.14 225.408 249.496C225.052 249.674 224.517 250.029 223.983 249.851C223.449 249.674 223.27 248.962 223.092 248.606C223.092 248.251 223.092 247.895 223.092 247.539C223.27 246.828 223.449 246.116 223.627 245.405C223.627 245.227 223.805 245.227 223.983 245.227C223.983 245.227 224.161 245.227 224.161 245.405Z" fill="#373949"/>
<path d="M246.077 233.132C246.077 233.132 230.398 244.515 224.875 240.958C224.875 240.958 230.398 228.507 246.077 233.132Z" fill="#373949"/>
<path d="M237.703 237.045C237.703 237.045 241.088 245.583 245.542 248.073L251.422 244.16C251.6 242.559 244.117 233.843 237.703 237.045Z" fill="#373949"/>
<path d="M99.5324 164.409C99.5324 176.314 93.9427 184.126 83.5087 188.218C82.0181 188.776 80.5276 189.334 78.8507 189.52C76.9874 189.893 75.3106 190.079 73.261 190.079C68.044 190.079 63.1997 188.776 59.1006 186.358C50.7161 181.522 45.1265 172.408 45.1265 161.991C45.1265 148.227 49.5982 139.67 60.7775 136.694C64.8765 135.578 68.7893 133.718 73.261 133.718C78.8507 133.718 84.254 135.392 88.7257 138.182C96.3649 143.39 99.5324 154.551 99.5324 164.409Z" fill="#EF886C"/>
<path d="M83.5086 183.382V188.219C82.018 188.777 80.5274 189.335 78.8505 189.521C76.9873 189.893 75.3104 190.079 73.2609 190.079C68.0438 190.079 63.1995 188.777 59.1004 186.359L59.473 170.176L58.9141 161.433V160.875C59.1004 159.201 59.2867 157.527 59.6594 155.853C60.9636 149.529 63.3858 142.833 68.6028 140.229C71.3976 138.926 74.1925 138.554 76.9873 138.74C81.2727 139.112 84.9991 140.973 87.794 143.577C91.1478 146.553 93.5699 151.017 94.1289 155.667C95.4332 165.712 95.0605 180.034 83.5086 183.382Z" fill="#E0BEBD"/>
<path d="M83.5089 188.219C82.0183 188.777 80.5277 189.335 78.8508 189.521C73.4475 185.801 70.6526 180.592 70.4663 180.22C72.8885 181.895 75.1244 182.639 76.9876 183.197C77.1739 183.197 77.3602 183.383 77.5465 183.383C80.5277 183.941 82.3909 183.569 83.1362 183.383C83.3225 183.383 83.3225 183.383 83.3225 183.383L83.5089 188.219Z" fill="#D6AAAA"/>
<path d="M60.5901 158.271C60.5901 160.132 59.4723 161.806 57.9819 161.806C56.4916 161.806 55.1875 160.318 55.1875 158.458C55.1875 156.597 56.3053 154.923 57.7956 154.923C59.286 154.737 60.4038 156.411 60.5901 158.271Z" fill="#BE9791"/>
<path d="M57.9816 158.271C57.9816 158.457 57.7953 158.829 57.6091 158.829C57.4228 158.829 57.0503 158.643 57.0503 158.457C57.0503 158.271 57.2366 157.899 57.4228 157.899C57.6091 157.899 57.9816 158.085 57.9816 158.271Z" fill="#A37975"/>
<path d="M83.5085 183.383C82.5769 183.941 81.2727 184.127 80.1548 184.127C79.0368 184.127 77.7326 183.941 76.6146 183.569C75.4967 183.197 74.3788 182.825 73.4472 182.267L71.9566 181.337C71.584 180.964 71.025 180.592 70.6523 180.22L73.8198 181.523C74.9377 181.895 75.8694 182.267 76.9873 182.639C78.1052 183.011 79.0368 183.197 80.1548 183.383C81.0864 183.569 82.2043 183.569 83.5085 183.383Z" fill="#383A4A"/>
<path d="M60.5901 158.271C60.5901 160.132 59.4723 161.806 57.9819 161.806C56.4916 161.806 55.1875 160.318 55.1875 158.458C55.1875 156.597 56.3053 154.923 57.7956 154.923C59.286 154.737 60.4038 156.411 60.5901 158.271Z" fill="#E0BEBD"/>
<path d="M58.7274 157.341C58.7274 157.341 57.2373 157.155 57.0511 158.272C56.8648 159.574 58.5412 159.388 58.5412 159.388" stroke="#B57A77" stroke-width="0.4282" stroke-miterlimit="10" stroke-linecap="round"/>
<path d="M76.4287 166.642C77.174 167.758 78.2919 168.688 79.2235 169.246C80.3415 169.99 81.4594 170.362 82.7636 170.176C84.0679 170.176 85.1858 169.804 86.3037 169.246C86.8627 168.874 87.4217 168.688 87.9806 168.316C88.5396 167.944 89.0986 167.572 89.6575 167.2C89.2849 167.758 88.7259 168.13 88.3533 168.688C87.7943 169.06 87.2354 169.618 86.6764 169.99C85.5585 170.734 84.2542 171.292 82.7636 171.292C81.2731 171.292 79.7825 170.734 78.8509 169.804C77.733 169.06 76.9877 167.758 76.4287 166.642Z" fill="#373949"/>
<path d="M82.2046 150.831C83.3224 151.947 84.2538 153.249 85.1853 154.551C86.1168 155.853 87.0483 157.155 87.7935 158.457L87.9798 158.829L87.7935 159.015C86.862 159.945 85.9305 160.876 84.8127 161.806C85.5579 160.69 86.3031 159.573 87.0483 158.457V159.015C86.1168 157.713 85.1853 156.411 84.4401 155.109C83.5087 153.621 82.7635 152.319 82.2046 150.831Z" fill="#373949"/>
<path d="M77.3597 154.365C77.7323 155.481 77.9186 156.412 77.9186 157.528C77.9186 158.086 77.9186 158.644 77.7323 159.202C77.546 159.76 77.1733 160.504 76.4281 160.69C75.8691 161.062 74.9375 160.876 74.3785 160.69C73.8195 160.504 73.2606 160.132 72.8879 159.76C72.1426 159.016 71.3973 158.086 70.8384 157.156C70.8384 156.97 70.8384 156.784 71.0247 156.598C71.211 156.598 71.3973 156.598 71.3973 156.598C71.9563 157.342 72.7016 158.272 73.4469 158.83C74.1922 159.388 75.1238 159.946 75.6828 159.574C76.4281 159.202 76.6144 158.272 76.6144 157.342C76.6144 156.412 76.6144 155.295 76.4281 154.365C76.4281 154.179 76.4281 153.993 76.6144 153.993C77.1733 153.993 77.1733 154.179 77.3597 154.365Z" fill="#373949"/>
<path d="M91.1472 151.203C91.5198 152.133 91.7061 153.063 91.8923 154.179C91.8923 154.737 91.8923 155.295 91.8923 155.853C91.8923 156.411 91.5198 157.155 90.7746 157.528C90.0294 157.9 89.2842 157.528 88.9116 157.155C88.539 156.783 87.9801 156.411 87.7938 156.039C87.0487 155.295 86.6761 154.365 86.1172 153.435C86.1172 153.249 86.1172 153.063 86.3035 153.063C86.4898 153.063 86.6761 153.063 86.6761 153.249C87.235 153.993 87.7938 154.923 88.539 155.481C89.0979 156.225 90.0294 156.783 90.402 156.597C90.9609 156.411 90.9609 155.295 90.9609 154.365C90.9609 153.435 90.7746 152.505 90.5883 151.575C90.5883 151.389 90.5883 151.203 90.7746 151.203C90.9609 151.017 91.1472 151.017 91.1472 151.203Z" fill="#373949"/>
<path d="M84.8127 134.835C90.0297 136.137 92.6382 145.995 80.7136 145.623C66.9258 145.065 66.9258 140.043 66.3669 148.971C65.8079 157.9 59.6593 155.853 59.6593 155.853C59.6593 155.853 46.9894 125.72 84.8127 134.835Z" fill="#EADB9D"/>
<path d="M96.3301 282.122C91.7257 280.901 87.5645 280.24 84.5318 277.169C81.6468 274.285 79.5866 270.143 79.4244 265.716C79.4634 265.381 79.3546 264.86 79.3936 264.525C79.2848 264.004 79.3628 263.335 79.5884 262.853C80.6018 254.157 84.8736 248.049 97.2176 248.32C106.699 248.422 116.872 251.319 114.084 265.061C111.99 274.308 105.5 284.9 96.3301 282.122Z" fill="#A4E8A0"/>
<path d="M178.334 126.829L178.4 125.88L178.433 125.405C178.433 125.405 178.433 125.405 178.45 125.168C178.45 125.168 178.212 125.151 177.974 125.134C177.736 125.118 177.991 124.897 177.753 124.88C177.803 124.168 177.852 123.456 177.664 122.728C177.764 121.304 177.625 119.863 177.725 118.439C177.923 115.591 178.122 112.743 178.559 109.911C179.194 104.232 180.305 98.5851 181.874 93.2091C185.03 82.2198 189.834 71.5839 195.997 61.9968C202.399 52.4263 210.161 43.9047 219.487 36.9231C224.032 33.4241 229.018 30.4329 234.669 28.2035C237.367 27.1991 240.302 26.2114 243.188 25.9356C246.075 25.6599 249.657 25.6713 252.615 27.7856C257.343 31.9312 261.783 36.7724 263.951 43.363C264.925 46.5314 265.152 50.1247 264.207 53.3977C263.262 56.6708 261.62 59.6568 259.298 62.1183C258.248 63.4761 256.976 64.5799 255.246 65.4132C253.753 66.2631 251.801 66.8425 249.661 66.6933C247.76 66.5606 245.924 65.4786 244.58 64.1924C243.237 62.9062 242.131 61.6366 241.279 60.1462C238.094 54.4386 236.877 47.9143 237.086 41.4894C237.318 38.1666 237.771 35.0978 239.175 32.0952C239.75 30.7043 240.579 29.0926 241.629 27.7349C242.68 26.3772 243.714 25.2568 244.985 24.153C249.596 19.7045 255.296 16.7631 260.979 14.059C266.646 11.5922 272.755 9.63325 278.815 8.38635C284.858 7.37679 291.343 6.87508 297.713 8.03477L297.376 9.44225C291.482 8.31572 285.234 8.83401 279.175 10.0809C273.115 11.3278 267.243 13.3033 261.814 15.7867C256.385 18.27 250.906 21.4654 246.55 25.6931C245.516 26.8135 244.482 27.9339 243.449 29.0543C242.415 30.1747 241.857 31.3282 241.282 32.7191C240.132 35.5009 239.695 38.3324 239.718 41.4345C239.542 47.3846 240.792 53.4343 243.789 58.4133C245.288 60.9028 247.295 62.9507 249.672 63.1165C252.033 63.5197 254.305 61.7701 256.135 59.5128C257.965 57.2554 259.319 54.9649 260.231 52.1665C260.889 49.5889 260.85 46.7242 259.843 44.0305C258.068 38.6597 253.849 34.0725 249.597 29.96C248.015 28.6573 245.163 28.4583 242.752 28.7672C240.104 29.0595 237.422 29.8265 234.962 30.8474C229.804 32.8726 225.071 35.6431 220.543 38.9048C211.488 45.4282 203.726 53.9498 197.358 63.0456C190.973 72.3788 185.965 82.5234 182.825 93.2754C181.256 98.6514 179.907 104.281 179.051 109.707C178.614 112.539 178.415 115.387 178.217 118.235C178.117 119.659 178.018 121.083 177.919 122.507C177.869 123.219 177.819 123.931 177.769 124.643L177.753 124.88C177.515 124.864 177.277 124.847 177.261 125.085C177.261 125.085 177.261 125.085 177.244 125.322L177.211 125.797L178.334 126.829Z" fill="#F9DD4A"/>
<path d="M9.93851 56.6061C14.8085 56.6061 18.7564 52.6649 18.7564 47.8031C18.7564 42.9413 14.8085 39 9.93851 39C5.06851 39 1.12061 42.9413 1.12061 47.8031C1.12061 52.6649 5.06851 56.6061 9.93851 56.6061Z" stroke="#EE724A" stroke-width="2" stroke-miterlimit="10"/>
</svg>
