<svg width="326" height="253" viewBox="0 0 326 253" fill="none" xmlns="http://www.w3.org/2000/svg">
<path d="M172.145 160H188.482C192.253 160 195.395 163.136 195.395 166.899V180.907C195.395 184.879 192.253 188.015 188.482 188.015H176.753V192.615C170.259 192.615 165.023 187.388 165.023 180.907V166.899C165.232 162.927 168.374 160 172.145 160ZM184.084 176.098C185.55 176.098 186.597 175.053 186.597 173.59C186.597 172.126 185.55 171.081 184.084 171.081C182.618 171.081 181.57 172.126 181.57 173.59C181.57 175.053 182.618 176.098 184.084 176.098ZM176.543 176.098C178.009 176.098 179.057 175.053 179.057 173.59C179.057 172.126 178.009 171.081 176.543 171.081C175.077 171.081 174.03 172.126 174.03 173.59C174.03 175.053 175.077 176.098 176.543 176.098Z" fill="#F9DD4A"/>
<path d="M180.314 223.055C182.409 230.79 183.456 238.108 188.483 243.335C193.51 248.561 200.212 251.906 207.753 252.325C208.381 252.325 209.01 252.325 209.848 252.325C210.895 252.325 211.733 252.325 212.78 252.115C227.652 250.652 238.125 243.544 238.125 222.427C238.125 206.12 233.516 188.767 209.848 193.367C193.929 196.503 176.125 207.165 180.314 223.055Z" fill="#A4E8A0"/>
<path d="M188.693 232.881L188.483 243.335C193.51 248.561 200.213 251.906 207.753 252.325C208.382 252.325 209.01 252.325 209.848 252.325C210.895 252.325 211.733 252.325 212.78 252.116V245.843C224.3 242.498 224.719 228.282 223.463 218.037C222.415 209.047 215.294 201.939 206.287 201.102C203.564 200.893 200.632 201.102 197.909 202.566C191.206 205.702 189.111 215.737 188.274 223.264L188.693 232.881Z" fill="#C18987"/>
<path d="M197.49 244.171C197.699 244.38 201.888 248.979 207.963 252.325C208.591 252.325 209.219 252.325 210.057 252.325C211.105 252.325 211.942 252.325 212.99 252.116V245.843C212.571 246.053 205.03 246.889 197.49 244.171Z" fill="#AD7777"/>
<path d="M189.739 220.755C189.739 222.637 188.692 224.309 187.227 224.309C185.761 224.309 184.504 222.846 184.504 220.964C184.504 219.082 185.551 217.41 187.017 217.41C188.273 217.201 189.53 218.873 189.739 220.755Z" fill="#BE9791"/>
<path d="M187.018 220.754C187.018 220.963 186.808 221.172 186.599 221.172C186.389 221.172 186.18 220.963 186.18 220.754C186.18 220.546 186.389 220.337 186.599 220.337C186.808 220.337 187.018 220.546 187.018 220.754Z" fill="#A37975"/>
<path d="M212.571 246.052C211.524 246.262 210.267 246.052 209.219 246.052C208.172 245.843 207.125 245.634 206.078 245.425C205.03 245.216 203.983 244.798 202.936 244.38C201.888 243.962 200.841 243.544 199.794 243.125C200.213 243.544 200.632 243.962 201.051 244.171L202.517 245.007C203.564 245.634 204.611 246.052 205.659 246.262C206.706 246.471 207.963 246.889 209.219 246.68C210.476 246.68 211.733 246.471 212.571 246.052Z" fill="#383A4A"/>
<path d="M189.739 220.755C189.739 222.637 188.692 224.309 187.227 224.309C185.761 224.309 184.504 222.846 184.504 220.964C184.504 219.082 185.551 217.41 187.017 217.41C188.273 217.201 189.53 218.873 189.739 220.755Z" fill="#C18987"/>
<path d="M187.854 219.919C187.854 219.919 186.388 219.71 186.179 220.964C185.969 222.219 187.645 222.01 187.645 222.01" stroke="#B57A77" stroke-width="0.4282" stroke-miterlimit="10" stroke-linecap="round"/>
<path d="M205.658 229.118C206.286 229.327 206.705 229.745 207.334 230.163L209.009 231.208C210.057 231.836 211.314 232.463 212.57 232.672C213.827 232.881 215.293 233.09 216.55 232.672C217.807 232.254 218.854 230.999 219.063 229.745C218.226 230.79 217.388 231.417 216.131 231.626C215.084 231.836 213.827 231.626 212.78 231.417C211.732 231.208 210.476 230.581 209.428 230.163C208.172 229.745 206.915 229.118 205.658 229.118Z" fill="#373949"/>
<path d="M210.687 213.229C211.315 214.692 211.944 216.156 212.781 217.41C213.619 218.664 214.456 220.128 215.503 221.382V220.755C214.666 221.8 214.038 222.846 213.409 224.1C214.456 223.264 215.503 222.428 216.341 221.382L216.55 221.173L216.341 220.755C215.503 219.292 214.666 218.037 213.828 216.783C212.781 215.737 211.944 214.483 210.687 213.229Z" fill="#373949"/>
<path d="M205.867 216.991C206.077 218.037 206.077 219.082 206.077 220.128C206.077 221.173 205.867 222.218 205.239 222.427C204.611 222.845 203.773 222.218 202.935 221.591C202.097 220.964 201.469 220.128 200.84 219.291C200.631 219.082 200.421 219.082 200.212 219.291C200.002 219.5 200.002 219.709 200.212 219.709C200.84 220.755 201.469 221.591 202.306 222.427C202.725 222.845 203.144 223.264 203.773 223.473C204.401 223.682 205.239 223.891 205.867 223.473C206.496 223.055 206.915 222.427 207.124 221.8C207.333 221.173 207.333 220.546 207.333 220.128C207.333 219.082 207.124 217.828 206.705 216.991C206.705 216.782 206.496 216.782 206.286 216.782C206.077 216.573 205.867 216.782 205.867 216.991Z" fill="#373949"/>
<path d="M219.902 213.856C220.111 214.901 220.111 215.737 220.321 216.783C220.321 217.619 220.111 218.873 219.692 218.873C219.274 219.082 218.436 218.455 217.808 217.828C217.18 217.201 216.551 216.365 215.923 215.528C215.714 215.319 215.504 215.319 215.295 215.528C215.086 215.737 215.086 215.737 215.086 215.946C215.504 216.783 216.133 217.828 216.761 218.664C217.18 219.082 217.389 219.501 218.017 219.71C218.436 219.919 219.274 220.337 219.902 220.128C220.739 219.71 220.949 219.082 220.949 218.455C220.949 217.828 220.949 217.41 220.949 216.783C220.739 215.737 220.53 214.692 220.111 213.856C220.111 213.647 219.902 213.647 219.692 213.647C219.902 213.438 219.902 213.647 219.902 213.856Z" fill="#373949"/>
<path d="M218.225 194.621C220.53 195.248 218.644 200.265 218.644 202.774C218.854 204.656 220.739 206.119 218.225 206.956C216.969 207.374 210.266 206.328 208.171 206.328C203.354 206.119 201.888 207.165 199.793 206.538C196.023 205.492 195.813 205.492 195.604 211.346C195.395 215.946 193.719 217.618 192.043 218.245C190.368 218.873 188.901 218.245 188.901 218.245C188.901 218.245 188.063 214.482 187.016 210.092C186.388 207.583 179.685 206.956 188.273 201.729C190.577 200.474 191.834 194.621 195.185 193.366C198.117 192.321 201.469 195.457 206.705 196.084C208.8 196.711 215.503 193.993 218.225 194.621Z" fill="#373949"/>
<path d="M222.205 235.39C221.577 236.644 219.273 239.153 215.084 239.153C210.894 239.153 206.077 237.481 203.563 236.017C200.84 234.763 200.003 233.508 198.327 229.745C196.651 225.982 196.232 224.309 195.604 222.637C194.766 220.964 193.3 217.41 192.672 215.946C192.043 214.483 190.786 214.483 190.577 215.946C190.368 217.41 192.043 222.427 190.996 224.1C189.949 225.773 191.624 229.745 192.253 232.672C192.881 235.599 193.719 240.826 196.023 242.707C198.536 244.798 201.259 245.007 204.192 246.889C206.705 248.561 209.219 249.607 211.523 248.77C213.827 248.143 215.503 250.025 218.644 246.471C221.786 242.916 224.509 242.707 224.09 238.944C223.881 236.644 224.509 226.191 224.509 227.863C223.671 230.163 222.834 234.135 222.205 235.39Z" fill="#373949"/>
<path d="M29.5218 169.27C27.2177 172.615 25.3326 175.96 21.9812 177.633C18.6299 179.305 14.8596 179.723 11.0894 178.678C10.6705 178.678 10.461 178.469 10.0421 178.469C9.62317 178.26 9.20426 178.051 8.57588 177.842C1.66374 174.497 -2.31598 169.27 1.45428 159.025C4.17724 151.081 9.62317 143.554 20.0961 149.826C27.6366 154.217 34.3393 162.371 29.5218 169.27Z" fill="#EF886C"/>
<path d="M28.0552 140C28.8928 142.509 29.3116 145.018 29.7304 147.317C30.1492 149.826 30.3586 152.335 30.568 154.844C30.7774 157.353 30.7774 159.862 30.7774 162.371C30.7774 164.879 30.568 167.388 29.9398 169.897C29.1022 167.388 28.6834 164.879 28.2646 162.58C27.8458 160.071 27.6365 157.562 27.4271 155.053C27.2177 152.544 27.2177 150.035 27.4271 147.527C27.4271 145.018 27.6365 142.509 28.0552 140Z" fill="#F9DD4A"/>
<path d="M43.9741 155.889C41.4606 156.308 38.9471 156.517 36.4336 156.726C33.9201 156.935 31.4066 156.726 28.8931 156.726C26.3795 156.517 23.866 156.308 21.3525 155.889C18.839 155.471 16.3255 155.053 14.0215 154.217C16.535 153.799 19.0485 153.59 21.562 153.381C24.0755 153.171 26.589 153.381 29.1025 153.381C31.616 153.59 34.1295 153.799 36.643 154.217C38.9471 154.635 41.4606 155.053 43.9741 155.889Z" fill="#F9DD4A"/>
<path d="M37.8982 147.945C36.8509 149.617 35.5942 151.081 34.1279 152.335C32.8712 153.799 31.405 155.053 29.7293 156.099C28.2631 157.353 26.5874 158.398 24.9118 159.444C23.2361 160.489 21.5604 161.325 19.6753 161.953C20.7226 160.28 21.9793 158.816 23.4455 157.562C24.7023 156.099 26.1685 154.844 27.8442 153.799C29.3104 152.544 30.9861 151.499 32.6617 150.454C34.3374 149.617 36.0131 148.572 37.8982 147.945Z" fill="#F9DD4A"/>
<path d="M21.5615 146.481C23.2372 147.527 24.7034 148.572 26.1696 150.036C27.6358 151.29 28.8926 152.544 30.1493 154.008C31.4061 155.471 32.4534 156.935 33.5007 158.398C34.548 160.071 35.5953 161.534 36.2236 163.416C34.548 162.371 33.0818 161.325 31.6155 159.862C30.1493 158.608 28.8926 157.353 27.6358 155.89C26.3791 154.426 25.3318 152.963 24.2845 151.499C23.2372 150.036 22.3994 148.363 21.5615 146.481Z" fill="#F9DD4A"/>
<path d="M61.7695 60.4712C66.0497 60.4712 69.5195 57.0079 69.5195 52.7356C69.5195 48.4634 66.0497 45 61.7695 45C57.4893 45 54.0195 48.4634 54.0195 52.7356C54.0195 57.0079 57.4893 60.4712 61.7695 60.4712Z" stroke="#EE724A" stroke-width="2" stroke-miterlimit="10"/>
<path d="M314.537 0C314.537 2.85505 314.06 5.7101 313.583 8.56515C313.107 11.4202 312.392 14.0373 311.677 16.8924C310.962 19.5095 310.009 22.3646 309.055 24.9817C308.102 27.5988 306.91 30.216 305.48 32.8331C305.48 29.9781 305.957 27.123 306.434 24.268C306.91 21.4129 307.625 18.7958 308.34 15.9407C309.055 13.3236 310.009 10.4685 310.962 7.8514C311.915 4.99635 313.107 2.37921 314.537 0Z" fill="#F9DD4A"/>
<path d="M325.5 22.8404C322.64 22.3646 319.78 21.6508 317.159 20.937C314.537 19.9854 311.677 19.0337 309.056 18.082C306.434 16.8924 303.813 15.7028 301.429 14.5132C298.808 13.0856 296.425 11.6581 294.042 9.99268C296.901 10.4685 299.761 11.1823 302.383 11.896C305.004 12.8477 307.864 13.7994 310.486 14.7511C313.107 15.9407 315.729 17.1303 318.112 18.3199C320.733 19.7474 323.355 21.175 325.5 22.8404Z" fill="#F9DD4A"/>
<path d="M322.162 12.134C320.256 13.5616 318.349 14.5132 316.443 15.4649C314.536 16.4166 312.391 17.1304 310.485 17.8441C308.34 18.5579 306.433 19.0337 304.288 19.5096C302.143 19.9854 299.998 20.2233 297.615 20.2233C299.522 18.7958 301.428 17.8441 303.335 16.8924C305.242 15.9408 307.386 15.227 309.293 14.5132C311.438 13.7995 313.344 13.3236 315.489 12.8478C317.634 12.372 320.017 12.134 322.162 12.134Z" fill="#F9DD4A"/>
<path d="M305.243 4.28271C306.673 5.94816 307.864 7.85152 308.817 9.75488C309.771 11.6583 310.724 13.5616 311.439 15.465C312.154 17.3684 312.869 19.5096 313.346 21.6509C313.822 23.7922 314.299 25.9335 314.299 28.0748C312.869 26.4094 311.677 24.506 310.724 22.6026C309.771 20.6992 308.817 18.7959 308.103 16.8925C307.388 14.9891 306.673 12.8479 306.196 10.7066C305.719 8.8032 305.243 6.66192 305.243 4.28271Z" fill="#F9DD4A"/>
</svg>
