<svg width="157" height="50" viewBox="0 0 157 50" fill="none" xmlns="http://www.w3.org/2000/svg">
<g clip-path="url(#clip0)">
<path fill-rule="evenodd" clip-rule="evenodd" d="M28.6 42.9H10.7C4.8 42.9 0 38.1 0 32.1V10.7C0 4.8 4.8 0 10.7 0H35.7C41.6 0 46.4 4.8 46.4 10.7V32.1C46.4 42 38.4 50 28.5 50L28.6 42.9ZM11 14.1L15.3 10.7H18.4V31.7999H14.3V16.2L11 18.7999V14.1ZM21.8999 30C24.0999 31.4 26.3999 32.0999 28.7999 32.0999C30.9999 32.0999 32.7999 31.5 34.2999 30.2C35.6999 29 36.3999 27.5 36.3999 25.7C36.3999 24.4 35.9999 23.2 35.2999 22.2999C34.5999 21.4 33.5999 20.8 32.2999 20.5V20.4C33.3999 20.1 34.1999 19.4 34.8999 18.6C35.5999 17.8 35.8999 16.8 35.8999 15.7C35.8999 14.2 35.2999 12.8 33.9999 11.8C32.6999 10.7 31.0999 10.2 29.1999 10.2C27.8999 10.2 26.6999 10.4 25.4999 10.9C24.2999 11.4 23.2999 12 22.3999 12.8L24.3999 15.8C25.8999 14.7 27.2999 14.2 28.5999 14.2C29.3999 14.2 30.1999 14.5 30.6999 14.9C31.1999 15.4 31.4999 16 31.4999 16.7C31.4999 17.4 31.1999 18 30.5999 18.5C29.9999 19 29.2999 19.2 28.2999 19.2H25.9999V23H28.6999C29.6999 23 30.4999 23.2 31.0999 23.7C31.6999 24.2 31.9999 24.8 31.9999 25.6C31.9999 26.4 31.6999 27 31.0999 27.5C30.4999 28 29.6999 28.2 28.5999 28.2C27.0999 28.2 25.3999 27.6 23.6999 26.6L21.8999 30Z" fill="#181C1C"/>
<path d="M65 32C61.8 32 59.2 31 57.1 29C55.1 27 54 24.4 54 21.2C54 18 55 15.4 57.1 13.4C59.2 11.4 61.9 10.3 65.1 10.3C67.2 10.3 69.1 10.8 70.9 11.8C72.6 12.8 73.9 14.2 74.7 16L70.4 18.3C69.1 16.2 67.4 15.2 65.1 15.2C63.4 15.2 62 15.8 60.9 16.9C59.8 18 59.2 19.4 59.2 21.1C59.2 22.8 59.7 24.2 60.8 25.3C61.9 26.4 63.3 27 64.9 27C66 27 67 26.7 68 26.1C69 25.5 69.7 24.8 70.2 23.9L74.5 26.4C73.6 28.1 72.3 29.4 70.6 30.4C69 31.5 67.1 32 65 32Z" fill="#181C1C"/>
<path d="M82.4 31.5H77V2.80005H82.2V13.6C82.8 12.6 83.6 11.9 84.8 11.3C86 10.7 87.3 10.4 88.7 10.4C90.9 10.4 92.8 11.1 94.4 12.6C96 14.1 96.7 16.2 96.7 19V31.6H91.4V20.4C91.4 18.8 91 17.5 90.2 16.6C89.4 15.7 88.4 15.3 87 15.3C85.6 15.3 84.4 15.8 83.6 16.8C82.7 17.8 82.3 19 82.3 20.6V31.5H82.4Z" fill="#181C1C"/>
<path d="M116.1 13.4V10.9H121.2V31.5H116.1V29.1C114.3 31 112.1 32 109.5 32C106.5 32 104.1 31 102.2 28.9C100.3 26.8 99.2998 24.2 99.2998 21.1C99.2998 18 100.3 15.4 102.2 13.4C104.1 11.4 106.6 10.3 109.5 10.3C112.1 10.4 114.3 11.4 116.1 13.4ZM116.2 21.2C116.2 19.6 115.6 18.2 114.5 17C113.4 15.8 112 15.3 110.4 15.3C108.7 15.3 107.3 15.9 106.2 17C105.1 18.2 104.6 19.6 104.6 21.2C104.6 22.9 105.1 24.3 106.2 25.4C107.3 26.6 108.7 27.1 110.3 27.1C111.9 27.1 113.3 26.5 114.4 25.4C115.6 24.2 116.2 22.8 116.2 21.2Z" fill="#181C1C"/>
<path d="M138.3 26.1001L139.9 30.3001C138.2 31.4001 136.2 32.0001 133.8 32.0001C131.4 32.0001 129.6 31.3001 128.4 29.9001C127.2 28.5001 126.6 26.5001 126.6 23.8001V15.3001H123.2V10.8001H126.6V3.6001H131.9V10.9001H138.7V15.4001H132V23.6001C132 26.0001 133 27.2001 134.9 27.2001C135.9 27.2001 137.1 26.8001 138.3 26.1001Z" fill="#181C1C"/>
<path d="M148.4 32.1C144.8 32.1 142 30.8 139.9 28.1L142.7 24.7C143.4 25.6 144.3 26.3 145.3 26.8C146.3 27.3 147.3 27.6 148.4 27.6C149.2 27.6 149.9 27.4 150.4 27C150.9 26.6 151.2 26.1 151.2 25.6C151.2 24.9 150.7 24.3 149.7 23.8C149.4 23.7 148.6 23.4 147.2 22.9C146 22.5 145.1 22.1 144.6 21.8C142.2 20.7 141 18.9 141 16.5C141 14.7 141.7 13.2 143.1 12C144.5 10.8 146.4 10.3 148.7 10.3C151.6 10.3 154 11.3 155.9 13.3L153.3 16.7C151.9 15.3 150.3 14.7 148.6 14.7C147.9 14.7 147.4 14.9 146.9 15.2C146.5 15.5 146.2 16 146.2 16.4C146.2 17.3 146.8 17.9 148 18.3C150.7 19.3 152.4 20 153 20.3C155.3 21.5 156.5 23.3 156.5 25.5C156.5 27.4 155.7 29 154.2 30.3C152.9 31.4 150.9 32.1 148.4 32.1Z" fill="#181C1C"/>
</g>
<defs>
<clipPath id="clip0">
<rect width="156.6" height="50" fill="white"/>
</clipPath>
</defs>
</svg>
