<svg width="40" height="39" viewBox="0 0 40 39" fill="none" xmlns="http://www.w3.org/2000/svg">
<path d="M18.8999 0C19.4999 3.20056 19.8999 6.40111 20.2999 9.50165C20.6999 12.7022 20.8999 15.9028 21.0999 19.1033C21.2999 22.3039 21.3999 25.5044 21.4999 28.705C21.4999 31.9056 21.4999 35.1061 21.2999 38.3067C20.6999 35.1061 20.2999 31.9056 19.8999 28.805C19.4999 25.6045 19.2999 22.4039 19.0999 19.2033C18.8999 16.0028 18.7999 12.8022 18.6999 9.60167C18.5999 6.40111 18.5999 3.20056 18.8999 0Z" fill="#EE724A"/>
<path d="M39.1998 20.3031C35.9998 20.5031 32.7998 20.6031 29.5998 20.5031C26.3998 20.5031 23.1998 20.3031 19.9998 20.2031C16.7998 20.0031 13.5998 19.8031 10.3998 19.4031C7.19981 19.1031 3.9998 18.7031 0.799805 18.1031C3.9998 17.9031 7.19981 17.8031 10.3998 17.9031C13.5998 17.9031 16.7998 18.1031 19.9998 18.2031C23.1998 18.4031 26.3998 18.6031 29.5998 19.0031C32.7998 19.3031 35.9998 19.7031 39.1998 20.3031Z" fill="#EE724A"/>
<path d="M31.5999 10.1018C29.8999 11.9021 28.0999 13.6024 26.2999 15.3027C24.4999 16.903 22.5999 18.5033 20.5999 20.0035C18.6999 21.5038 16.6999 23.0041 14.6999 24.4043C12.6999 25.8045 10.5999 27.1048 8.3999 28.305C10.0999 26.5047 11.8999 24.8044 13.6999 23.1041C15.4999 21.5038 17.3999 19.9035 19.3999 18.4033C21.2999 16.903 23.2999 15.4027 25.2999 14.1025C27.2999 12.7023 29.3999 11.302 31.5999 10.1018Z" fill="#EE724A"/>
<path d="M10.5996 8.30139C12.4996 9.80165 14.1996 11.5019 15.8996 13.2022C17.5996 14.9025 19.1996 16.7029 20.7996 18.5032C22.3996 20.3035 23.8996 22.2038 25.2996 24.1041C26.7996 26.0045 28.1996 28.0048 29.3996 30.1052C27.4996 28.6049 25.7996 26.9046 24.0996 25.2043C22.3996 23.504 20.7996 21.7037 19.1996 19.9034C17.5996 18.1031 16.0996 16.2028 14.6996 14.3024C13.2996 12.3021 11.8996 10.4018 10.5996 8.30139Z" fill="#EE724A"/>
</svg>
