<svg width="29" height="29" viewBox="0 0 29 29" fill="none" xmlns="http://www.w3.org/2000/svg">
<path d="M13.4002 0.109741C13.9002 2.41014 14.2002 4.81056 14.4002 7.11096C14.7002 9.51138 14.8002 11.8118 15.0002 14.2122C15.1002 16.6126 15.2002 18.913 15.3002 21.3134C15.3002 23.7139 15.3002 26.0143 15.1002 28.4147C14.6002 26.1143 14.3002 23.7139 14.1002 21.4135C13.8002 19.013 13.7002 16.7126 13.5002 14.3122C13.4002 11.9118 13.3002 9.6114 13.2002 7.21098C13.2002 4.81056 13.2002 2.41014 13.4002 0.109741Z" fill="#F9DD4A"/>
<path d="M28.4 15.012C26 15.212 23.6 15.212 21.3 15.212C18.9 15.212 16.6 15.112 14.2 15.012C11.8 14.912 9.5 14.712 7.1 14.412C4.7 14.212 2.4 13.912 0 13.412C2.4 13.212 4.8 13.212 7.1 13.212C9.5 13.212 11.8 13.312 14.2 13.412C16.6 13.612 18.9 13.712 21.3 14.012C23.7 14.312 26.1 14.612 28.4 15.012Z" fill="#F9DD4A"/>
<path d="M22.8002 7.51099C21.6002 8.91123 20.2002 10.1114 18.9002 11.3116C17.5002 12.5119 16.1002 13.612 14.7002 14.8123C13.3002 15.9124 11.8002 17.0126 10.3002 18.0128C8.80019 19.013 7.3002 20.0132 5.7002 20.9133C6.9002 19.5131 8.30019 18.3129 9.60019 17.1127C11.0002 15.9124 12.4002 14.8123 13.8002 13.612C15.2002 12.5119 16.7002 11.4117 18.2002 10.4115C19.7002 9.41132 21.2002 8.41114 22.8002 7.51099Z" fill="#F9DD4A"/>
<path d="M7.2998 6.21082C8.6998 7.31101 9.99981 8.61123 11.1998 9.91146C12.3998 11.2117 13.5998 12.5119 14.7998 13.8121C15.8998 15.2124 17.0998 16.5126 18.0998 17.9129C19.1998 19.3131 20.1998 20.8134 21.0998 22.3136C19.6998 21.2134 18.3998 19.9132 17.1998 18.613C15.9998 17.3127 14.7998 16.0125 13.5998 14.7123C12.4998 13.312 11.2998 12.0118 10.2998 10.6116C9.2998 9.21134 8.1998 7.71108 7.2998 6.21082Z" fill="#F9DD4A"/>
</svg>
