<svg width="44" height="58" viewBox="0 0 44 58" fill="none" xmlns="http://www.w3.org/2000/svg">
<path d="M1.20019 57.8276L1.1002 57.4275V57.2275C1.1002 57.2275 1.1002 57.2275 1.1002 57.1275C1.1002 57.1275 1.00019 57.1275 0.900186 57.1275C0.800186 57.1275 0.900195 57.0275 0.800195 57.0275C0.800195 56.7274 0.700189 56.4274 0.700189 56.1273C0.600189 55.5272 0.500192 54.9271 0.500192 54.327C0.400192 53.1268 0.300195 51.9266 0.300195 50.7264C0.200195 48.326 0.300198 45.9255 0.600198 43.5251C1.2002 38.7243 2.40019 34.0235 4.40018 29.6227C6.40018 25.2219 9.10019 21.1212 12.5002 17.6206C14.2002 15.9203 16.1002 14.32 18.2002 13.0198C19.3002 12.4197 20.4002 11.8196 21.6002 11.5195C22.8002 11.2195 24.3002 11.0195 25.6002 11.7196C27.8002 13.1198 30.0002 14.9201 31.4002 17.4206C32.0002 18.7208 32.4002 20.121 32.2002 21.6213C32.1002 23.0215 31.5002 24.4218 30.7002 25.522C30.3002 26.1221 29.9002 26.7222 29.3002 27.1223C28.7002 27.6224 27.9002 27.9224 27.1002 28.0224C26.3002 28.0224 25.5002 27.7224 24.9002 27.3223C24.3002 26.9222 23.8002 26.4221 23.3002 25.822C21.6002 23.6217 20.7002 21.0212 20.4002 18.3207C20.3002 17.0205 20.3002 15.6203 20.6002 14.22C20.8002 13.5199 21.0002 12.9198 21.3002 12.3197C21.6002 11.7196 22.0002 11.1195 22.4002 10.6194C24.1002 8.51902 26.2002 6.81873 28.4002 5.41849C30.6002 4.01824 33.0002 2.81803 35.5002 1.91788C38.0002 1.01772 40.6002 0.417612 43.3002 0.617647V1.31777C40.8002 1.21776 38.2002 1.81785 35.8002 2.71801C33.4002 3.61817 31.1002 4.81838 29.0002 6.21862C26.9002 7.61886 24.9002 9.31917 23.3002 11.3195C22.9002 11.8196 22.6002 12.3197 22.3002 12.9198C22.0002 13.4199 21.8002 14.02 21.7002 14.6201C21.4002 15.8203 21.4002 17.1205 21.6002 18.3207C21.9002 20.8212 22.8002 23.2216 24.4002 25.1219C25.2002 26.0221 26.2002 26.7222 27.1002 26.7222C28.1002 26.7222 28.9002 25.822 29.6002 24.8219C30.3002 23.8217 30.7002 22.7215 30.8002 21.5213C30.9002 20.3211 30.7002 19.2209 30.1002 18.1207C29.0002 16.0203 27.0002 14.32 24.9002 12.9198C24.1002 12.5197 23.0002 12.5197 21.9002 12.8198C20.8002 13.1198 19.8002 13.6199 18.8002 14.12C16.8002 15.3202 15.0002 16.8205 13.4002 18.4207C10.1002 21.7213 7.50018 25.722 5.40018 29.9227C3.40019 34.2235 2.00019 38.7243 1.30019 43.4251C1.00019 45.7255 0.800186 48.1259 0.900186 50.5263C0.900186 51.7266 1.0002 52.9268 1.1002 54.127C1.1002 54.7271 1.20019 55.3272 1.30019 55.9273C1.30019 56.2273 1.40019 56.5274 1.40019 56.8274C1.40019 56.8274 1.50019 56.9274 1.40019 56.9274C1.30019 56.9274 1.20019 57.0275 1.20019 57.0275C1.20019 57.0275 1.20019 57.0275 1.20019 57.1275V57.3275V57.8276Z" fill="#F9DD4A"/>
</svg>
