<svg width="168" height="171" viewBox="0 0 168 171" fill="none" xmlns="http://www.w3.org/2000/svg">
<path d="M48.9116 83.5195H2V169H48.9116M48.9116 83.5195V38.8713M48.9116 83.5195V169M48.9116 38.8713H42.8093V26.2782H83.0465M48.9116 38.8713H117.563M117.563 38.8713H123.284V26.2782H83.0465M117.563 38.8713V83.5195M117.563 169H166V83.5195H117.563M117.563 169V83.5195M117.563 169H100.781M48.9116 169H66.0744M66.0744 169V130.076H83.4279M66.0744 169H83.4279M100.781 169V130.076H83.4279M100.781 169H83.4279M83.4279 169V130.076M83.0465 26.2782V15.9747M83.0465 15.9747V3L102.307 9.48736L83.0465 15.9747ZM9.24651 100.692H21.0698V112.14H9.24651V100.692ZM29.0791 100.692H40.9023V112.14H29.0791V100.692ZM29.0791 120.154H40.9023V131.602H29.0791V120.154ZM9.24651 120.154H21.0698V131.602H9.24651V120.154ZM57.6837 55.2805H69.507V66.7287H57.6837V55.2805ZM57.6837 77.7954H69.507V89.2437H57.6837V77.7954ZM57.6837 100.692H69.507V112.14H57.6837V100.692ZM77.5163 100.692H89.3395V112.14H77.5163V100.692ZM97.7302 100.692H109.553V112.14H97.7302V100.692ZM77.5163 77.7954H89.3395V89.2437H77.5163V77.7954ZM97.7302 77.7954H109.553V89.2437H97.7302V77.7954ZM77.5163 55.2805H89.3395V66.7287H77.5163V55.2805ZM97.7302 55.2805H109.553V66.7287H97.7302V55.2805ZM126.335 100.692H138.158V112.14H126.335V100.692ZM146.167 100.692H157.991V112.14H146.167V100.692ZM146.167 120.154H157.991V131.602H146.167V120.154ZM126.335 120.154H138.158V131.602H126.335V120.154Z" stroke="#00C6D7" stroke-width="3"/>
</svg>
