<svg width="254" height="197" viewBox="0 0 254 197" fill="none" xmlns="http://www.w3.org/2000/svg">
<path d="M4.13636 11.6551C6.25117 9.18291 11.2306 5.09304 14.2297 5.09304C15.6145 5.09304 17.2574 5.2926 18.7952 6.67064M51.8636 11.7747C50.1814 9.26266 46.0095 5.09304 42.7796 5.09304C41.2678 5.09304 39.7392 5.3393 38.4125 6.76789M38.4125 6.76789C35.4151 3.48876 31.6465 2 28.6489 2C25.7011 2 21.8902 3.41572 18.7952 6.67064M38.4125 6.76789C40.0288 8.53611 41.4209 10.328 42.347 11.6551M14.5181 11.7747C15.5249 10.3923 17.0457 8.51063 18.7952 6.67064M11.1544 29H8.15646L3 14.6456H53L47.8435 29H45.0455M33.6818 29H22.8864" stroke="#00C6D7" stroke-width="3"/>
<path d="M1.5 11.8199H54.5V14.4199H1.5V11.8199ZM22.02 28.5999C22.02 31.4829 19.6829 33.8199 16.8 33.8199C13.9171 33.8199 11.58 31.4829 11.58 28.5999C11.58 25.717 13.9171 23.3799 16.8 23.3799C19.6829 23.3799 22.02 25.717 22.02 28.5999ZM44.42 28.5999C44.42 31.4829 42.0829 33.8199 39.2 33.8199C36.3171 33.8199 33.98 31.4829 33.98 28.5999C33.98 25.717 36.3171 23.3799 39.2 23.3799C42.0829 23.3799 44.42 25.717 44.42 28.5999Z" stroke="#00C6D7" stroke-width="3"/>
<path d="M70.1364 11.6551C72.2512 9.18291 77.2306 5.09304 80.2297 5.09304C81.6145 5.09304 83.2574 5.2926 84.7952 6.67064M117.864 11.7747C116.181 9.26266 112.009 5.09304 108.78 5.09304C107.268 5.09304 105.739 5.3393 104.413 6.76789M104.413 6.76789C101.415 3.48876 97.6465 2 94.6489 2C91.7011 2 87.8902 3.41572 84.7952 6.67064M104.413 6.76789C106.029 8.53611 107.421 10.328 108.347 11.6551M80.5181 11.7747C81.5249 10.3923 83.0457 8.51063 84.7952 6.67064M77.1544 29H74.1565L69 14.6456H119L113.844 29H111.045M99.6818 29H88.8864" stroke="#00C6D7" stroke-width="3"/>
<path d="M67.5 11.8199H120.5V14.4199H67.5V11.8199ZM88.02 28.5999C88.02 31.4829 85.6829 33.8199 82.8 33.8199C79.9171 33.8199 77.58 31.4829 77.58 28.5999C77.58 25.717 79.9171 23.3799 82.8 23.3799C85.6829 23.3799 88.02 25.717 88.02 28.5999ZM110.42 28.5999C110.42 31.4829 108.083 33.8199 105.2 33.8199C102.317 33.8199 99.98 31.4829 99.98 28.5999C99.98 25.717 102.317 23.3799 105.2 23.3799C108.083 23.3799 110.42 25.717 110.42 28.5999Z" stroke="#00C6D7" stroke-width="3"/>
<path d="M136.136 11.6551C138.251 9.18291 143.231 5.09304 146.23 5.09304C147.614 5.09304 149.257 5.2926 150.795 6.67064M183.864 11.7747C182.181 9.26266 178.009 5.09304 174.78 5.09304C173.268 5.09304 171.739 5.3393 170.413 6.76789M170.413 6.76789C167.415 3.48876 163.647 2 160.649 2C157.701 2 153.89 3.41572 150.795 6.67064M170.413 6.76789C172.029 8.53611 173.421 10.328 174.347 11.6551M146.518 11.7747C147.525 10.3923 149.046 8.51063 150.795 6.67064M143.154 29H140.156L135 14.6456H185L179.844 29H177.045M165.682 29H154.886" stroke="#00C6D7" stroke-width="3"/>
<path d="M133.5 11.8199H186.5V14.4199H133.5V11.8199ZM154.02 28.5999C154.02 31.4829 151.683 33.8199 148.8 33.8199C145.917 33.8199 143.58 31.4829 143.58 28.5999C143.58 25.717 145.917 23.3799 148.8 23.3799C151.683 23.3799 154.02 25.717 154.02 28.5999ZM176.42 28.5999C176.42 31.4829 174.083 33.8199 171.2 33.8199C168.317 33.8199 165.98 31.4829 165.98 28.5999C165.98 25.717 168.317 23.3799 171.2 23.3799C174.083 23.3799 176.42 25.717 176.42 28.5999Z" stroke="#00C6D7" stroke-width="3"/>
<path d="M202.136 11.6551C204.251 9.18291 209.231 5.09304 212.23 5.09304C213.614 5.09304 215.257 5.2926 216.795 6.67064M249.864 11.7747C248.181 9.26266 244.009 5.09304 240.78 5.09304C239.268 5.09304 237.739 5.3393 236.413 6.76789M236.413 6.76789C233.415 3.48876 229.647 2 226.649 2C223.701 2 219.89 3.41572 216.795 6.67064M236.413 6.76789C238.029 8.53611 239.421 10.328 240.347 11.6551M212.518 11.7747C213.525 10.3923 215.046 8.51063 216.795 6.67064M209.154 29H206.156L201 14.6456H251L245.844 29H243.045M231.682 29H220.886" stroke="#00C6D7" stroke-width="3"/>
<path d="M199.5 11.8199H252.5V14.4199H199.5V11.8199ZM220.02 28.5999C220.02 31.4829 217.683 33.8199 214.8 33.8199C211.917 33.8199 209.58 31.4829 209.58 28.5999C209.58 25.717 211.917 23.3799 214.8 23.3799C217.683 23.3799 220.02 25.717 220.02 28.5999ZM242.42 28.5999C242.42 31.4829 240.083 33.8199 237.2 33.8199C234.317 33.8199 231.98 31.4829 231.98 28.5999C231.98 25.717 234.317 23.3799 237.2 23.3799C240.083 23.3799 242.42 25.717 242.42 28.5999Z" stroke="#00C6D7" stroke-width="3"/>
<path d="M4.13636 66.6551C6.25117 64.1829 11.2306 60.093 14.2297 60.093C15.6145 60.093 17.2574 60.2926 18.7952 61.6706M51.8636 66.7747C50.1814 64.2627 46.0095 60.093 42.7796 60.093C41.2678 60.093 39.7392 60.3393 38.4125 61.7679M38.4125 61.7679C35.4151 58.4888 31.6465 57 28.6489 57C25.7011 57 21.8902 58.4157 18.7952 61.6706M38.4125 61.7679C40.0288 63.5361 41.4209 65.328 42.347 66.6551M14.5181 66.7747C15.5249 65.3923 17.0457 63.5106 18.7952 61.6706M11.1544 84H8.15646L3 69.6456H53L47.8435 84H45.0455M33.6818 84H22.8864" stroke="#00C6D7" stroke-width="3"/>
<path d="M1.5 66.8199H54.5V69.4199H1.5V66.8199ZM22.02 83.5999C22.02 86.4829 19.6829 88.8199 16.8 88.8199C13.9171 88.8199 11.58 86.4829 11.58 83.5999C11.58 80.717 13.9171 78.3799 16.8 78.3799C19.6829 78.3799 22.02 80.717 22.02 83.5999ZM44.42 83.5999C44.42 86.4829 42.0829 88.8199 39.2 88.8199C36.3171 88.8199 33.98 86.4829 33.98 83.5999C33.98 80.717 36.3171 78.3799 39.2 78.3799C42.0829 78.3799 44.42 80.717 44.42 83.5999Z" stroke="#00C6D7" stroke-width="3"/>
<path d="M70.1364 66.6551C72.2512 64.1829 77.2306 60.093 80.2297 60.093C81.6145 60.093 83.2574 60.2926 84.7952 61.6706M117.864 66.7747C116.181 64.2627 112.009 60.093 108.78 60.093C107.268 60.093 105.739 60.3393 104.413 61.7679M104.413 61.7679C101.415 58.4888 97.6465 57 94.6489 57C91.7011 57 87.8902 58.4157 84.7952 61.6706M104.413 61.7679C106.029 63.5361 107.421 65.328 108.347 66.6551M80.5181 66.7747C81.5249 65.3923 83.0457 63.5106 84.7952 61.6706M77.1544 84H74.1565L69 69.6456H119L113.844 84H111.045M99.6818 84H88.8864" stroke="#00C6D7" stroke-width="3"/>
<path d="M67.5 66.8199H120.5V69.4199H67.5V66.8199ZM88.02 83.5999C88.02 86.4829 85.6829 88.8199 82.8 88.8199C79.9171 88.8199 77.58 86.4829 77.58 83.5999C77.58 80.717 79.9171 78.3799 82.8 78.3799C85.6829 78.3799 88.02 80.717 88.02 83.5999ZM110.42 83.5999C110.42 86.4829 108.083 88.8199 105.2 88.8199C102.317 88.8199 99.98 86.4829 99.98 83.5999C99.98 80.717 102.317 78.3799 105.2 78.3799C108.083 78.3799 110.42 80.717 110.42 83.5999Z" stroke="#00C6D7" stroke-width="3"/>
<path d="M136.136 66.6551C138.251 64.1829 143.231 60.093 146.23 60.093C147.614 60.093 149.257 60.2926 150.795 61.6706M183.864 66.7747C182.181 64.2627 178.009 60.093 174.78 60.093C173.268 60.093 171.739 60.3393 170.413 61.7679M170.413 61.7679C167.415 58.4888 163.647 57 160.649 57C157.701 57 153.89 58.4157 150.795 61.6706M170.413 61.7679C172.029 63.5361 173.421 65.328 174.347 66.6551M146.518 66.7747C147.525 65.3923 149.046 63.5106 150.795 61.6706M143.154 84H140.156L135 69.6456H185L179.844 84H177.045M165.682 84H154.886" stroke="#00C6D7" stroke-width="3"/>
<path d="M133.5 66.8199H186.5V69.4199H133.5V66.8199ZM154.02 83.5999C154.02 86.4829 151.683 88.8199 148.8 88.8199C145.917 88.8199 143.58 86.4829 143.58 83.5999C143.58 80.717 145.917 78.3799 148.8 78.3799C151.683 78.3799 154.02 80.717 154.02 83.5999ZM176.42 83.5999C176.42 86.4829 174.083 88.8199 171.2 88.8199C168.317 88.8199 165.98 86.4829 165.98 83.5999C165.98 80.717 168.317 78.3799 171.2 78.3799C174.083 78.3799 176.42 80.717 176.42 83.5999Z" stroke="#00C6D7" stroke-width="3"/>
<path d="M202.136 66.6551C204.251 64.1829 209.231 60.093 212.23 60.093C213.614 60.093 215.257 60.2926 216.795 61.6706M249.864 66.7747C248.181 64.2627 244.009 60.093 240.78 60.093C239.268 60.093 237.739 60.3393 236.413 61.7679M236.413 61.7679C233.415 58.4888 229.647 57 226.649 57C223.701 57 219.89 58.4157 216.795 61.6706M236.413 61.7679C238.029 63.5361 239.421 65.328 240.347 66.6551M212.518 66.7747C213.525 65.3923 215.046 63.5106 216.795 61.6706M209.154 84H206.156L201 69.6456H251L245.844 84H243.045M231.682 84H220.886" stroke="#00C6D7" stroke-width="3"/>
<path d="M199.5 66.8199H252.5V69.4199H199.5V66.8199ZM220.02 83.5999C220.02 86.4829 217.683 88.8199 214.8 88.8199C211.917 88.8199 209.58 86.4829 209.58 83.5999C209.58 80.717 211.917 78.3799 214.8 78.3799C217.683 78.3799 220.02 80.717 220.02 83.5999ZM242.42 83.5999C242.42 86.4829 240.083 88.8199 237.2 88.8199C234.317 88.8199 231.98 86.4829 231.98 83.5999C231.98 80.717 234.317 78.3799 237.2 78.3799C240.083 78.3799 242.42 80.717 242.42 83.5999Z" stroke="#00C6D7" stroke-width="3"/>
<path d="M4.13636 119.655C6.25117 117.183 11.2306 113.093 14.2297 113.093C15.6145 113.093 17.2574 113.293 18.7952 114.671M51.8636 119.775C50.1814 117.263 46.0095 113.093 42.7796 113.093C41.2678 113.093 39.7392 113.339 38.4125 114.768M38.4125 114.768C35.4151 111.489 31.6465 110 28.6489 110C25.7011 110 21.8902 111.416 18.7952 114.671M38.4125 114.768C40.0288 116.536 41.4209 118.328 42.347 119.655M14.5181 119.775C15.5249 118.392 17.0457 116.511 18.7952 114.671M11.1544 137H8.15646L3 122.646H53L47.8435 137H45.0455M33.6818 137H22.8864" stroke="#00C6D7" stroke-width="3"/>
<path d="M1.5 119.82H54.5V122.42H1.5V119.82ZM22.02 136.6C22.02 139.483 19.6829 141.82 16.8 141.82C13.9171 141.82 11.58 139.483 11.58 136.6C11.58 133.717 13.9171 131.38 16.8 131.38C19.6829 131.38 22.02 133.717 22.02 136.6ZM44.42 136.6C44.42 139.483 42.0829 141.82 39.2 141.82C36.3171 141.82 33.98 139.483 33.98 136.6C33.98 133.717 36.3171 131.38 39.2 131.38C42.0829 131.38 44.42 133.717 44.42 136.6Z" stroke="#00C6D7" stroke-width="3"/>
<path d="M70.1364 119.655C72.2512 117.183 77.2306 113.093 80.2297 113.093C81.6145 113.093 83.2574 113.293 84.7952 114.671M117.864 119.775C116.181 117.263 112.009 113.093 108.78 113.093C107.268 113.093 105.739 113.339 104.413 114.768M104.413 114.768C101.415 111.489 97.6465 110 94.6489 110C91.7011 110 87.8902 111.416 84.7952 114.671M104.413 114.768C106.029 116.536 107.421 118.328 108.347 119.655M80.5181 119.775C81.5249 118.392 83.0457 116.511 84.7952 114.671M77.1544 137H74.1565L69 122.646H119L113.844 137H111.045M99.6818 137H88.8864" stroke="#00C6D7" stroke-width="3"/>
<path d="M67.5 119.82H120.5V122.42H67.5V119.82ZM88.02 136.6C88.02 139.483 85.6829 141.82 82.8 141.82C79.9171 141.82 77.58 139.483 77.58 136.6C77.58 133.717 79.9171 131.38 82.8 131.38C85.6829 131.38 88.02 133.717 88.02 136.6ZM110.42 136.6C110.42 139.483 108.083 141.82 105.2 141.82C102.317 141.82 99.98 139.483 99.98 136.6C99.98 133.717 102.317 131.38 105.2 131.38C108.083 131.38 110.42 133.717 110.42 136.6Z" stroke="#00C6D7" stroke-width="3"/>
<path d="M136.136 119.655C138.251 117.183 143.231 113.093 146.23 113.093C147.614 113.093 149.257 113.293 150.795 114.671M183.864 119.775C182.181 117.263 178.009 113.093 174.78 113.093C173.268 113.093 171.739 113.339 170.413 114.768M170.413 114.768C167.415 111.489 163.647 110 160.649 110C157.701 110 153.89 111.416 150.795 114.671M170.413 114.768C172.029 116.536 173.421 118.328 174.347 119.655M146.518 119.775C147.525 118.392 149.046 116.511 150.795 114.671M143.154 137H140.156L135 122.646H185L179.844 137H177.045M165.682 137H154.886" stroke="#00C6D7" stroke-width="3"/>
<path d="M133.5 119.82H186.5V122.42H133.5V119.82ZM154.02 136.6C154.02 139.483 151.683 141.82 148.8 141.82C145.917 141.82 143.58 139.483 143.58 136.6C143.58 133.717 145.917 131.38 148.8 131.38C151.683 131.38 154.02 133.717 154.02 136.6ZM176.42 136.6C176.42 139.483 174.083 141.82 171.2 141.82C168.317 141.82 165.98 139.483 165.98 136.6C165.98 133.717 168.317 131.38 171.2 131.38C174.083 131.38 176.42 133.717 176.42 136.6Z" stroke="#00C6D7" stroke-width="3"/>
<path d="M202.136 119.655C204.251 117.183 209.231 113.093 212.23 113.093C213.614 113.093 215.257 113.293 216.795 114.671M249.864 119.775C248.181 117.263 244.009 113.093 240.78 113.093C239.268 113.093 237.739 113.339 236.413 114.768M236.413 114.768C233.415 111.489 229.647 110 226.649 110C223.701 110 219.89 111.416 216.795 114.671M236.413 114.768C238.029 116.536 239.421 118.328 240.347 119.655M212.518 119.775C213.525 118.392 215.046 116.511 216.795 114.671M209.154 137H206.156L201 122.646H251L245.844 137H243.045M231.682 137H220.886" stroke="#00C6D7" stroke-width="3"/>
<path d="M199.5 119.82H252.5V122.42H199.5V119.82ZM220.02 136.6C220.02 139.483 217.683 141.82 214.8 141.82C211.917 141.82 209.58 139.483 209.58 136.6C209.58 133.717 211.917 131.38 214.8 131.38C217.683 131.38 220.02 133.717 220.02 136.6ZM242.42 136.6C242.42 139.483 240.083 141.82 237.2 141.82C234.317 141.82 231.98 139.483 231.98 136.6C231.98 133.717 234.317 131.38 237.2 131.38C240.083 131.38 242.42 133.717 242.42 136.6Z" stroke="#00C6D7" stroke-width="3"/>
<path d="M4.13636 172.655C6.25117 170.183 11.2306 166.093 14.2297 166.093C15.6145 166.093 17.2574 166.293 18.7952 167.671M51.8636 172.775C50.1814 170.263 46.0095 166.093 42.7796 166.093C41.2678 166.093 39.7392 166.339 38.4125 167.768M38.4125 167.768C35.4151 164.489 31.6465 163 28.6489 163C25.7011 163 21.8902 164.416 18.7952 167.671M38.4125 167.768C40.0288 169.536 41.4209 171.328 42.347 172.655M14.5181 172.775C15.5249 171.392 17.0457 169.511 18.7952 167.671M11.1544 190H8.15646L3 175.646H53L47.8435 190H45.0455M33.6818 190H22.8864" stroke="#00C6D7" stroke-width="3"/>
<path d="M1.5 172.82H54.5V175.42H1.5V172.82ZM22.02 189.6C22.02 192.483 19.6829 194.82 16.8 194.82C13.9171 194.82 11.58 192.483 11.58 189.6C11.58 186.717 13.9171 184.38 16.8 184.38C19.6829 184.38 22.02 186.717 22.02 189.6ZM44.42 189.6C44.42 192.483 42.0829 194.82 39.2 194.82C36.3171 194.82 33.98 192.483 33.98 189.6C33.98 186.717 36.3171 184.38 39.2 184.38C42.0829 184.38 44.42 186.717 44.42 189.6Z" stroke="#00C6D7" stroke-width="3"/>
<path d="M70.1364 172.655C72.2512 170.183 77.2306 166.093 80.2297 166.093C81.6145 166.093 83.2574 166.293 84.7952 167.671M117.864 172.775C116.181 170.263 112.009 166.093 108.78 166.093C107.268 166.093 105.739 166.339 104.413 167.768M104.413 167.768C101.415 164.489 97.6465 163 94.6489 163C91.7011 163 87.8902 164.416 84.7952 167.671M104.413 167.768C106.029 169.536 107.421 171.328 108.347 172.655M80.5181 172.775C81.5249 171.392 83.0457 169.511 84.7952 167.671M77.1544 190H74.1565L69 175.646H119L113.844 190H111.045M99.6818 190H88.8864" stroke="#00C6D7" stroke-width="3"/>
<path d="M67.5 172.82H120.5V175.42H67.5V172.82ZM88.02 189.6C88.02 192.483 85.6829 194.82 82.8 194.82C79.9171 194.82 77.58 192.483 77.58 189.6C77.58 186.717 79.9171 184.38 82.8 184.38C85.6829 184.38 88.02 186.717 88.02 189.6ZM110.42 189.6C110.42 192.483 108.083 194.82 105.2 194.82C102.317 194.82 99.98 192.483 99.98 189.6C99.98 186.717 102.317 184.38 105.2 184.38C108.083 184.38 110.42 186.717 110.42 189.6Z" stroke="#00C6D7" stroke-width="3"/>
</svg>
