<svg width="294" height="274" viewBox="0 0 294 274" fill="none" xmlns="http://www.w3.org/2000/svg">
<rect x="1.5" y="-1.5" width="27" height="128" transform="matrix(1 0 0 -1 0 271)" stroke="#00C6D7" stroke-width="3"/>
<rect x="1.5" y="-1.5" width="27" height="271" transform="matrix(1 0 0 -1 44 271)" stroke="#00C6D7" stroke-width="3"/>
<rect x="1.5" y="-1.5" width="27" height="164" transform="matrix(1 0 0 -1 88 271)" stroke="#00C6D7" stroke-width="3"/>
<rect x="1" y="-1" width="28" height="203" transform="matrix(1 0 0 -1 132 272)" fill="#00C6D7" stroke="#00C6D7" stroke-width="2"/>
<rect x="1.5" y="-1.5" width="27" height="97" transform="matrix(1 0 0 -1 176 271)" stroke="#00C6D7" stroke-width="3"/>
<rect x="1.5" y="-1.5" width="27" height="164" transform="matrix(1 0 0 -1 264 271)" stroke="#00C6D7" stroke-width="3"/>
<rect x="1.5" y="-1.5" width="27" height="235" transform="matrix(1 0 0 -1 220 271)" stroke="#00C6D7" stroke-width="3"/>
</svg>
