<svg width="170" height="170" viewBox="0 0 170 170" fill="none" xmlns="http://www.w3.org/2000/svg">
<path d="M31.3165 107.602V95.0664M31.3165 95.0664V82.5309L2 95.8261V107.602M31.3165 95.0664L61.3945 82.5309V95.0664M61.3945 107.602V95.0664M61.3945 95.0664L91.4725 82.5309V107.602M91.4725 107.602H102.514M91.4725 107.602H2M102.514 107.602H158.101M102.514 107.602L111.207 55.5606M115.078 32.389C113.428 32.389 109.139 32.389 105.179 32.389C100.229 32.389 95.2798 42.2654 80.4312 42.2654C65.5826 42.2654 65.2018 32.389 57.2064 32.389C49.211 32.389 53.3991 20.2334 34.7431 20.2334C16.0872 20.2334 17.2294 2 34.7431 2C52.2569 2 129.546 2 139.826 2C150.106 2 158.482 4.27918 153.913 12.2563C149.344 20.2334 143.633 15.2952 146.298 32.389M115.078 32.389H146.298M115.078 32.389L113.111 44.1648M146.298 32.389C146.742 35.2346 147.38 39.3139 148.14 44.1648M158.101 107.602C156.141 95.137 152.7 73.2368 149.927 55.5606M158.101 107.602H168V168H68.2477M113.111 44.1648H148.14M113.111 44.1648L111.207 55.5606M148.14 44.1648C148.682 47.6264 149.287 51.481 149.927 55.5606M111.207 55.5606H149.927M18.3716 168H2V107.602M18.3716 168H68.2477M18.3716 168V158.693M68.2477 168V158.693M18.3716 139.89V130.773H68.2477V139.89M18.3716 139.89H68.2477M18.3716 139.89V149.387M68.2477 139.89V149.387M18.3716 149.387H68.2477M18.3716 149.387V158.693M68.2477 149.387V158.693M18.3716 158.693H68.2477M83.4771 130.773V142.929H111.207V130.773H83.4771ZM125.802 130.773V142.929H153.532V130.773H125.802Z" stroke="#00C6D7" stroke-width="3"/>
</svg>
