<svg width="200" height="200" viewBox="0 0 200 200" fill="none" xmlns="http://www.w3.org/2000/svg">
<path opacity="0.2" d="M198 100C198 154.124 154.124 198 100 198C69.1671 198 41.6598 183.761 23.6953 161.5C10.125 144.684 2 123.291 2 100C2 45.8761 45.8761 2 100 2C154.124 2 198 45.8761 198 100Z" stroke="#00C6D7" stroke-width="3"/>
<path d="M100 2C154.124 2 198 45.8761 198 100C198 154.124 154.124 198 100 198C69.1671 198 41.6598 183.761 23.6953 161.5" stroke="#00C6D7" stroke-width="3"/>
<path d="M88.2849 153.615V115.429M88.2849 108.903V115.429M99.8151 121.713V153.615M111.836 108.903V115.429M111.836 153.615V115.429M99.8151 89.81V93.4353M99.8151 98.2691V102.136M88.2849 115.429H77V88.3599C77 80.885 83.1508 74.8255 90.7381 74.8255L100.06 85.4597L109.383 74.8255C116.97 74.8255 123.121 80.8851 123.121 88.3599V115.429H111.836M112.108 57.5C112.108 63.8513 106.735 69 100.108 69C93.4804 69 88.1078 63.8513 88.1078 57.5C88.1078 51.1487 93.4804 46 100.108 46C106.735 46 112.108 51.1487 112.108 57.5Z" stroke="#00C6D7" stroke-width="3"/>
</svg>
