<svg width="249" height="166" viewBox="0 0 249 166" fill="none" xmlns="http://www.w3.org/2000/svg">
<path d="M13.7273 13.2993C13.5821 12.2215 14.2501 10.0661 18.0837 10.0661C22.8757 10.0661 23.0209 13.1523 21.4236 14.7689C20.8471 15.3523 19.9492 16.261 18.9686 17.2672C17.232 19.0492 15.2363 21.1368 14.3082 22.2639C12.8561 24.0274 13.8725 26.9666 17.648 26.9666C21.4236 26.9666 22.2948 25.7909 22.2948 23.7335M15.1928 19H23.5M16.579 19H13.5M15.1138 16H23.5M16.5 16H13.5M2 18.4997C2 27.5976 9.40191 35 18.5 35C27.5981 35 35 27.5976 35 18.4997C35 9.40178 27.5981 2 18.5 2C9.40191 2 2 9.40178 2 18.4997Z" stroke="#00C6D7" stroke-width="3"/>
<path d="M66.7273 13.2993C66.5821 12.2215 67.2501 10.0661 71.0837 10.0661C75.8757 10.0661 76.0209 13.1523 74.4236 14.7689C73.8471 15.3523 72.9492 16.261 71.9686 17.2672C70.232 19.0492 68.2363 21.1368 67.3082 22.2639C65.8561 24.0274 66.8725 26.9666 70.648 26.9666C74.4236 26.9666 75.2948 25.7909 75.2948 23.7335M68.1928 19H76.5M69.579 19H66.5M68.1138 16H76.5M69.5 16H66.5M55 18.4997C55 27.5976 62.4019 35 71.5 35C80.5981 35 88 27.5976 88 18.4997C88 9.40178 80.5981 2 71.5 2C62.4019 2 55 9.40178 55 18.4997Z" stroke="#00C6D7" stroke-width="3"/>
<path d="M119.727 13.2993C119.582 12.2215 120.25 10.0661 124.084 10.0661C128.876 10.0661 129.021 13.1523 127.424 14.7689C126.847 15.3523 125.949 16.261 124.969 17.2672C123.232 19.0492 121.236 21.1368 120.308 22.2639C118.856 24.0274 119.873 26.9666 123.648 26.9666C127.424 26.9666 128.295 25.7909 128.295 23.7335M121.193 19H129.5M122.579 19H119.5M121.114 16H129.5M122.5 16H119.5M108 18.4997C108 27.5976 115.402 35 124.5 35C133.598 35 141 27.5976 141 18.4997C141 9.40178 133.598 2 124.5 2C115.402 2 108 9.40178 108 18.4997Z" stroke="#00C6D7" stroke-width="3"/>
<path d="M172.727 13.2993C172.582 12.2215 173.25 10.0661 177.084 10.0661C181.876 10.0661 182.021 13.1523 180.424 14.7689C179.847 15.3523 178.949 16.261 177.969 17.2672C176.232 19.0492 174.236 21.1368 173.308 22.2639C171.856 24.0274 172.873 26.9666 176.648 26.9666C180.424 26.9666 181.295 25.7909 181.295 23.7335M174.193 19H182.5M175.579 19H172.5M174.114 16H182.5M175.5 16H172.5M161 18.4997C161 27.5976 168.402 35 177.5 35C186.598 35 194 27.5976 194 18.4997C194 9.40178 186.598 2 177.5 2C168.402 2 161 9.40178 161 18.4997Z" stroke="#00C6D7" stroke-width="3"/>
<path d="M13.7273 56.2993C13.5821 55.2215 14.2501 53.0661 18.0837 53.0661C22.8757 53.0661 23.0209 56.1523 21.4236 57.7689C20.8471 58.3523 19.9492 59.261 18.9686 60.2672C17.232 62.0492 15.2363 64.1368 14.3082 65.2639C12.8561 67.0274 13.8725 69.9666 17.648 69.9666C21.4236 69.9666 22.2948 68.7909 22.2948 66.7335M15.1928 62H23.5M16.579 62H13.5M15.1138 59H23.5M16.5 59H13.5M2 61.4997C2 70.5976 9.40191 78 18.5 78C27.5981 78 35 70.5976 35 61.4997C35 52.4018 27.5981 45 18.5 45C9.40191 45 2 52.4018 2 61.4997Z" stroke="#00C6D7" stroke-width="3"/>
<path d="M66.7273 56.2993C66.5821 55.2215 67.2501 53.0661 71.0837 53.0661C75.8757 53.0661 76.0209 56.1523 74.4236 57.7689C73.8471 58.3523 72.9492 59.261 71.9686 60.2672C70.232 62.0492 68.2363 64.1368 67.3082 65.2639C65.8561 67.0274 66.8725 69.9666 70.648 69.9666C74.4236 69.9666 75.2948 68.7909 75.2948 66.7335M68.1928 62H76.5M69.579 62H66.5M68.1138 59H76.5M69.5 59H66.5M55 61.4997C55 70.5976 62.4019 78 71.5 78C80.5981 78 88 70.5976 88 61.4997C88 52.4018 80.5981 45 71.5 45C62.4019 45 55 52.4018 55 61.4997Z" stroke="#00C6D7" stroke-width="3"/>
<path d="M119.727 56.2993C119.582 55.2215 120.25 53.0661 124.084 53.0661C128.876 53.0661 129.021 56.1523 127.424 57.7689C126.847 58.3523 125.949 59.261 124.969 60.2672C123.232 62.0492 121.236 64.1368 120.308 65.2639C118.856 67.0274 119.873 69.9666 123.648 69.9666C127.424 69.9666 128.295 68.7909 128.295 66.7335M121.193 62H129.5M122.579 62H119.5M121.114 59H129.5M122.5 59H119.5M108 61.4997C108 70.5976 115.402 78 124.5 78C133.598 78 141 70.5976 141 61.4997C141 52.4018 133.598 45 124.5 45C115.402 45 108 52.4018 108 61.4997Z" stroke="#00C6D7" stroke-width="3"/>
<path d="M172.727 56.2993C172.582 55.2215 173.25 53.0661 177.084 53.0661C181.876 53.0661 182.021 56.1523 180.424 57.7689C179.847 58.3523 178.949 59.261 177.969 60.2672C176.232 62.0492 174.236 64.1368 173.308 65.2639C171.856 67.0274 172.873 69.9666 176.648 69.9666C180.424 69.9666 181.295 68.7909 181.295 66.7335M174.193 62H182.5M175.579 62H172.5M174.114 59H182.5M175.5 59H172.5M161 61.4997C161 70.5976 168.402 78 177.5 78C186.598 78 194 70.5976 194 61.4997C194 52.4018 186.598 45 177.5 45C168.402 45 161 52.4018 161 61.4997Z" stroke="#00C6D7" stroke-width="3"/>
<path d="M13.7273 99.2993C13.5821 98.2215 14.2501 96.0661 18.0837 96.0661C22.8757 96.0661 23.0209 99.1523 21.4236 100.769C20.8471 101.352 19.9492 102.261 18.9686 103.267C17.232 105.049 15.2363 107.137 14.3082 108.264C12.8561 110.027 13.8725 112.967 17.648 112.967C21.4236 112.967 22.2948 111.791 22.2948 109.733M15.1928 105H23.5M16.579 105H13.5M15.1138 102H23.5M16.5 102H13.5M2 104.5C2 113.598 9.40191 121 18.5 121C27.5981 121 35 113.598 35 104.5C35 95.4018 27.5981 88 18.5 88C9.40191 88 2 95.4018 2 104.5Z" stroke="#00C6D7" stroke-width="3"/>
<path d="M66.7273 99.2993C66.5821 98.2215 67.2501 96.0661 71.0837 96.0661C75.8757 96.0661 76.0209 99.1523 74.4236 100.769C73.8471 101.352 72.9492 102.261 71.9686 103.267C70.232 105.049 68.2363 107.137 67.3082 108.264C65.8561 110.027 66.8725 112.967 70.648 112.967C74.4236 112.967 75.2948 111.791 75.2948 109.733M68.1928 105H76.5M69.579 105H66.5M68.1138 102H76.5M69.5 102H66.5M55 104.5C55 113.598 62.4019 121 71.5 121C80.5981 121 88 113.598 88 104.5C88 95.4018 80.5981 88 71.5 88C62.4019 88 55 95.4018 55 104.5Z" stroke="#00C6D7" stroke-width="3"/>
<path d="M119.727 99.2993C119.582 98.2215 120.25 96.0661 124.084 96.0661C128.876 96.0661 129.021 99.1523 127.424 100.769C126.847 101.352 125.949 102.261 124.969 103.267C123.232 105.049 121.236 107.137 120.308 108.264C118.856 110.027 119.873 112.967 123.648 112.967C127.424 112.967 128.295 111.791 128.295 109.733M121.193 105H129.5M122.579 105H119.5M121.114 102H129.5M122.5 102H119.5M108 104.5C108 113.598 115.402 121 124.5 121C133.598 121 141 113.598 141 104.5C141 95.4018 133.598 88 124.5 88C115.402 88 108 95.4018 108 104.5Z" stroke="#00C6D7" stroke-width="3"/>
<path d="M172.727 99.2993C172.582 98.2215 173.25 96.0661 177.084 96.0661C181.876 96.0661 182.021 99.1523 180.424 100.769C179.847 101.352 178.949 102.261 177.969 103.267C176.232 105.049 174.236 107.137 173.308 108.264C171.856 110.027 172.873 112.967 176.648 112.967C180.424 112.967 181.295 111.791 181.295 109.733M174.193 105H182.5M175.579 105H172.5M174.114 102H182.5M175.5 102H172.5M161 104.5C161 113.598 168.402 121 177.5 121C186.598 121 194 113.598 194 104.5C194 95.4018 186.598 88 177.5 88C168.402 88 161 95.4018 161 104.5Z" stroke="#00C6D7" stroke-width="3"/>
<path d="M225.727 99.2993C225.582 98.2215 226.25 96.0661 230.084 96.0661C234.876 96.0661 235.021 99.1523 233.424 100.769C232.847 101.352 231.949 102.261 230.969 103.267C229.232 105.049 227.236 107.137 226.308 108.264C224.856 110.027 225.873 112.967 229.648 112.967C233.424 112.967 234.295 111.791 234.295 109.733M227.193 105H235.5M228.579 105H225.5M227.114 102H235.5M228.5 102H225.5M214 104.5C214 113.598 221.402 121 230.5 121C239.598 121 247 113.598 247 104.5C247 95.4018 239.598 88 230.5 88C221.402 88 214 95.4018 214 104.5Z" stroke="#00C6D7" stroke-width="3"/>
<path d="M13.7273 142.299C13.5821 141.222 14.2501 139.066 18.0837 139.066C22.8757 139.066 23.0209 142.152 21.4236 143.769C20.8471 144.352 19.9492 145.261 18.9686 146.267C17.232 148.049 15.2363 150.137 14.3082 151.264C12.8561 153.027 13.8725 155.967 17.648 155.967C21.4236 155.967 22.2948 154.791 22.2948 152.733M15.1928 148H23.5M16.579 148H13.5M15.1138 145H23.5M16.5 145H13.5M2 147.5C2 156.598 9.40191 164 18.5 164C27.5981 164 35 156.598 35 147.5C35 138.402 27.5981 131 18.5 131C9.40191 131 2 138.402 2 147.5Z" stroke="#00C6D7" stroke-width="3"/>
<path d="M66.7273 142.299C66.5821 141.222 67.2501 139.066 71.0837 139.066C75.8757 139.066 76.0209 142.152 74.4236 143.769C73.8471 144.352 72.9492 145.261 71.9686 146.267C70.232 148.049 68.2363 150.137 67.3082 151.264C65.8561 153.027 66.8725 155.967 70.648 155.967C74.4236 155.967 75.2948 154.791 75.2948 152.733M68.1928 148H76.5M69.579 148H66.5M68.1138 145H76.5M69.5 145H66.5M55 147.5C55 156.598 62.4019 164 71.5 164C80.5981 164 88 156.598 88 147.5C88 138.402 80.5981 131 71.5 131C62.4019 131 55 138.402 55 147.5Z" stroke="#00C6D7" stroke-width="3"/>
<path d="M119.727 142.299C119.582 141.222 120.25 139.066 124.084 139.066C128.876 139.066 129.021 142.152 127.424 143.769C126.847 144.352 125.949 145.261 124.969 146.267C123.232 148.049 121.236 150.137 120.308 151.264C118.856 153.027 119.873 155.967 123.648 155.967C127.424 155.967 128.295 154.791 128.295 152.733M121.193 148H129.5M122.579 148H119.5M121.114 145H129.5M122.5 145H119.5M108 147.5C108 156.598 115.402 164 124.5 164C133.598 164 141 156.598 141 147.5C141 138.402 133.598 131 124.5 131C115.402 131 108 138.402 108 147.5Z" stroke="#00C6D7" stroke-width="3"/>
<path d="M172.727 142.299C172.582 141.222 173.25 139.066 177.084 139.066C181.876 139.066 182.021 142.152 180.424 143.769C179.847 144.352 178.949 145.261 177.969 146.267C176.232 148.049 174.236 150.137 173.308 151.264C171.856 153.027 172.873 155.967 176.648 155.967C180.424 155.967 181.295 154.791 181.295 152.733M174.193 148H182.5M175.579 148H172.5M174.114 145H182.5M175.5 145H172.5M161 147.5C161 156.598 168.402 164 177.5 164C186.598 164 194 156.598 194 147.5C194 138.402 186.598 131 177.5 131C168.402 131 161 138.402 161 147.5Z" stroke="#00C6D7" stroke-width="3"/>
<path d="M225.727 142.299C225.582 141.222 226.25 139.066 230.084 139.066C234.876 139.066 235.021 142.152 233.424 143.769C232.847 144.352 231.949 145.261 230.969 146.267C229.232 148.049 227.236 150.137 226.308 151.264C224.856 153.027 225.873 155.967 229.648 155.967C233.424 155.967 234.295 154.791 234.295 152.733M227.193 148H235.5M228.579 148H225.5M227.114 145H235.5M228.5 145H225.5M214 147.5C214 156.598 221.402 164 230.5 164C239.598 164 247 156.598 247 147.5C247 138.402 239.598 131 230.5 131C221.402 131 214 138.402 214 147.5Z" stroke="#00C6D7" stroke-width="3"/>
</svg>
