<svg width="190" height="160" viewBox="0 0 190 160" fill="none" xmlns="http://www.w3.org/2000/svg">
<path d="M2.7982 158.167L72.3708 53.5H81.0667H108.933H117.629L187.202 158.167H176.7H13.3H2.7982Z" stroke="#00C6D7" stroke-width="3"/>
<path d="M94 1.5C83.7663 1.5 75.5 10.0016 75.5 20.3837L92.8611 50.4808L91.7339 51.4705C91.7339 51.4705 91.7339 51.4705 91.7339 51.4705C92.9404 52.8446 95.0621 52.8417 96.2661 51.4705C96.6109 51.0778 100.628 46.4671 104.568 40.437C106.538 37.4219 108.508 34.0228 109.99 30.5965C111.463 27.1883 112.5 23.6497 112.5 20.3837C112.5 10.0016 104.234 1.5 94 1.5ZM94 27.6299C90.1436 27.6299 86.947 24.4097 86.947 20.3837C86.947 16.3577 90.1437 13.1376 94 13.1376C97.8563 13.1376 101.053 16.3578 101.053 20.3838C101.053 24.4098 97.8563 27.6299 94 27.6299Z" stroke="#00C6D7" stroke-width="3"/>
<path d="M94.3662 53.9V157.767" stroke="#00C6D7" stroke-width="3" stroke-dasharray="10 6"/>
</svg>
