<svg width="190" height="160" viewBox="0 0 190 160" fill="none" xmlns="http://www.w3.org/2000/svg">
    <path d="M2.7982 158.167L72.3708 53.5H81.0667H108.933H117.629L187.202 158.167H176.7H13.3H2.7982Z" stroke="#00C6D7"
          stroke-width="3"/>
    <path xmlns="http://www.w3.org/2000/svg" d="M19 2C9.62615 2 2 9.79832 2 19.3837C2 31.2795 17.2133 48.7432 17.8611 49.4808C18.4694 50.1737 19.5317 50.1725 20.1389 49.4808C20.7867 48.7432 36 31.2795 36 19.3837C35.9998 9.79832 28.3738 2 19 2ZM19 28.1299C14.2838 28.1299 10.447 24.2064 10.447 19.3837C10.447 14.561 14.2839 10.6376 19 10.6376C23.7161 10.6376 27.5529 14.5611 27.5529 19.3838C27.5529 24.2065 23.7161 28.1299 19 28.1299Z"
          stroke="#00C6D7" stroke-width="3" transform="translate(75,0)"/>
    <path d="M94.3662 53.9V157.767" stroke="#00C6D7" stroke-width="3" stroke-dasharray="10 6"/>
</svg>
